<svg xmlns="http://www.w3.org/2000/svg" xmlns:xlink="http://www.w3.org/1999/xlink" width="165" height="130" viewBox="0 0 165 130">
  <defs>
    <clipPath id="clip-path">
      <rect id="Rectángulo_35885" data-name="Rectángulo 35885" width="165" height="130" transform="translate(6440 -7400)" fill="#fff" stroke="#707070" stroke-width="1"/>
    </clipPath>
  </defs>
  <g id="icon1-7" transform="translate(-6440 7400)" clip-path="url(#clip-path)">
    <g id="Grupo_133669" data-name="Grupo 133669" transform="translate(12.479 -16.099)">
      <g id="Grupo_78348" data-name="Grupo 78348" transform="translate(6458.521 -7366.901)">
        <path id="Trazado_113319" data-name="Trazado 113319" d="M1572.434,1094v-8.714h-8.783v-6.015h8.783v-8.714h5.855v8.714h8.806v6.015h-8.806V1094Z" transform="translate(-1563.651 -1070.555)" fill="#ffb840"/>
      </g>
      <g id="GzNIxF" transform="translate(3096.326 -7604.811)">
        <g id="Grupo_133668" data-name="Grupo 133668" transform="translate(3388.588 226.373)">
          <path id="Trazado_126779" data-name="Trazado 126779" d="M3405.326,346.347a4.734,4.734,0,0,1-3.073-5.3,22.619,22.619,0,0,0,.059-3.388,1.635,1.635,0,0,0-.661-1.046c-2.965-2.16-5.959-4.279-8.944-6.412-5.471-3.91-5.5-10.315-.048-14.235,5.8-4.171,11.611-8.32,17.4-12.5a7,7,0,0,1,4.361-1.4c3.312.049,6.625.015,9.942.015.325-.936.09-1.277-.86-1.455a11.762,11.762,0,0,1-9.534-10.855c-.055-.966-.3-1.381-1.333-1.561a5.2,5.2,0,0,1-4.126-4.789,17.658,17.658,0,0,1-.01-3.273c.262-2.87,2.077-4.611,5.327-5.123.021-.381.063-.792.063-1.2.005-3.787,0-7.574,0-11.361.01-6.368,3.839-10.225,10.179-10.261.348,0,.7,0,1.143,0v-7.1c-.758,0-1.559.013-2.358,0-2.262-.045-3.187-1.591-2.087-3.541q3.881-6.879,7.809-13.731c1.114-1.941,2.963-1.928,4.083.026q3.9,6.8,7.754,13.627c1.146,2.031.246,3.578-2.078,3.62-.773.014-1.547,0-2.389,0V255.24c.9.046,1.787.07,2.665.139a9.245,9.245,0,0,1,8.684,9.195c.06,3.044.015,6.09.018,9.135,0,.423,0,.846.258,1.012a37.645,37.645,0,0,1,3.579,2c2.242,1.573,2.263,8.49-.047,10.1a38.076,38.076,0,0,1-3.729,2.031c-.077.611-.136,1.58-.325,2.522a11.78,11.78,0,0,1-9.316,9.244c-.875.161-1.161.462-.9,1.457H3438c3.006,0,6.014.019,9.02-.007a6.621,6.621,0,0,1,4.047,1.288c5.892,4.24,11.81,8.443,17.68,12.711,5.262,3.825,5.229,10.2-.041,14.036-3.028,2.205-6.086,4.372-9.147,6.531a1.289,1.289,0,0,0-.664,1.4,26.387,26.387,0,0,1,.037,4.56c-.147,1.984-1.444,3.106-3.225,3.751h-15c-.794-.579-1.451-1.241-1.052-2.333.392-1.074,1.294-1.22,2.3-1.189s2.03.007,3.044.007h4.175c.022-.447.047-.719.047-.991q0-16.974,0-33.948c0-.194,0-.39-.016-.584a1.647,1.647,0,0,0-1.726-1.7c-3.548-.04-7.1-.016-10.622-.016-1.271,4.027-2.675,5.019-6.94,4.948-2.935-.048-4.592-1.51-5.51-4.863a.747.747,0,0,0-.219-.069q-4.741-.014-9.483-.021c-2.28,0-2.737.453-2.737,2.737q0,16.565,0,33.13v1.376h1.387c6.361,0,12.722.008,19.084-.009,1,0,1.905.118,2.3,1.191.4,1.092-.261,1.754-1.055,2.332Zm38.472-64.6c0-2.342.014-4.684,0-7.026-.031-4.17-2.457-7.228-6.622-7.523a94.286,94.286,0,0,0-13.316.023c-3.859.276-6.356,3.259-6.421,7.1-.083,4.916-.109,9.837.01,14.752a8.293,8.293,0,0,0,8.63,8.288q4.51.02,9.017,0a8.371,8.371,0,0,0,8.7-8.593C3443.823,286.427,3443.8,284.084,3443.8,281.743Zm8.946,55.3a5.542,5.542,0,0,0,.653-.319c4.539-3.242,9.1-6.448,13.6-9.75,2.593-1.9,3.042-5.29.679-7.154-4.762-3.756-9.764-7.21-14.939-10.986,0,1.8.037,3.264-.016,4.726a1.793,1.793,0,0,0,.869,1.736c2.816,1.961,5.59,3.986,8.372,6,1.665,1.2,1.651,2.365-.042,3.581-2.789,2-5.59,3.986-8.37,6-.321.234-.754.6-.769.923C3452.7,333.488,3452.744,335.191,3452.744,337.039ZM3408.449,309c-.5.339-.789.523-1.066.722q-6.364,4.568-12.725,9.142c-3.416,2.463-3.4,5.981.04,8.445q6.367,4.563,12.75,9.107c.27.193.567.346,1,.609,0-1.684-.036-3.2.016-4.706a1.615,1.615,0,0,0-.812-1.527c-2.808-1.969-5.592-3.973-8.378-5.973-1.615-1.159-1.617-2.341,0-3.507,2.812-2.03,5.643-4.036,8.439-6.087a1.707,1.707,0,0,0,.7-1.07C3408.492,312.518,3408.449,310.881,3408.449,309Zm25.281-45.632c0-.675.017-1.255,0-1.835a5.81,5.81,0,0,0-5.7-5.8c-1.634-.069-3.276-.063-4.91,0a5.423,5.423,0,0,0-5.326,3.984,44.31,44.31,0,0,0-.511,6.39l.339.124C3422.41,262.222,3428.172,263.813,3433.73,263.364Zm2.658-21.854-5.782-10.161c-1.985,3.5-3.851,6.784-5.777,10.177.392.03.546.049.7.054,2.639.059,3.3.727,3.3,3.365,0,2.147-.018,4.293.021,6.439.005.318.2.832.435.914.964.343,1.976.557,3.078.845,0-2.771,0-5.457,0-8.144,0-2.65.662-3.336,3.272-3.419C3435.815,241.573,3436,241.546,3436.388,241.509Zm.65,17.436.3,4.5a33.862,33.862,0,0,1,3.295,1.026c1.055.446,2.029,1.08,3.041,1.632C3444.379,261.738,3441.233,258.333,3437.038,258.945Zm-3.825,42.006h-5.176c0,1.545-.05,3.022.018,4.492a1.569,1.569,0,0,0,1.59,1.564,13.122,13.122,0,0,0,1.755.013,1.728,1.728,0,0,0,1.8-1.869C3433.239,303.788,3433.213,302.424,3433.213,300.951Zm25.193,22.109-5.565-3.988v7.967Zm-50.032-3.955-5.513,3.952,5.513,3.937Zm5.4-34.271v-6.2c-1.666.479-1.848.872-1.815,3.7C3411.978,283.951,3412.328,284.459,3413.775,284.834Zm33.61-6.148v6.07c1.375-.157,1.8-.681,1.842-2.186C3449.309,279.5,3449.073,278.977,3447.385,278.685Zm5.4,64.05c2.824.314,3.168-.11,2.461-3.119C3454.444,340.744,3452.476,340.712,3452.782,342.735Zm-46.934-3.017c-.087,3.162-.629,3.385,2.535,2.962C3408.5,341.262,3408.373,341.109,3405.848,339.719Z" transform="translate(-3388.588 -226.373)" fill="#fff"/>
          <path id="Trazado_126780" data-name="Trazado 126780" d="M3394.086,264.24c-1.042,0-1.932.028-2.819-.006a2.081,2.081,0,0,1-1.884-3.268q3.97-7.094,8.039-14.132a2.085,2.085,0,0,1,3.834-.025q4.072,7.036,8.046,14.127c.948,1.691-.019,3.246-1.972,3.3-.848.024-1.7,0-2.687,0,0,1.557.031,2.989-.008,4.421-.04,1.4-.979,2.213-2.172,1.924a1.658,1.658,0,0,1-1.327-1.811c0-1.756-.019-3.512,0-5.269a2.484,2.484,0,0,1,2.736-2.775c.347-.01.694,0,1.275,0l-5.8-10.2-5.765,10.114c.407.036.657.074.908.079,2.237.046,3.1.905,3.1,3.153q.011,17.505,0,35.01V300.5h3.53v-1.388q0-10.537,0-21.076a8.178,8.178,0,0,1,.036-1.169,1.716,1.716,0,0,1,3.335-.274,5.109,5.109,0,0,1,.138,1.386q.01,11.358,0,22.716c0,2.661-.754,3.418-3.4,3.422-1.327,0-2.655.005-3.982,0-2.384-.01-3.168-.781-3.17-3.146q-.009-11.417,0-22.834v-13.9Z" transform="translate(-3388.665 -229.754)" fill="#fff"/>
          <path id="Trazado_126781" data-name="Trazado 126781" d="M3470.143,264.236c-1.076,0-1.971.035-2.862-.007a2.044,2.044,0,0,1-1.87-3.125q4.031-7.26,8.21-14.439a2.031,2.031,0,0,1,3.638.022q4.149,7.127,8.157,14.336c.913,1.639-.067,3.152-1.968,3.212-.854.027-1.711,0-2.7,0-.021.484-.055.895-.055,1.306q-.006,6.441,0,12.883a1.77,1.77,0,0,1-1.272,1.981,1.7,1.7,0,0,1-2.226-1.717q-.056-7.729,0-15.459a2.442,2.442,0,0,1,2.552-2.5c.424-.021.849,0,1.48,0l-5.8-10.2-5.739,10.092c3.778.447,3.963.659,3.963,4.382v35.528h3.523V287.938c0-.312-.017-.627.01-.937a1.745,1.745,0,0,1,1.789-1.77,1.674,1.674,0,0,1,1.7,1.826c.026,3.123.011,6.246.012,9.369,0,1.718.022,3.436-.012,5.153a2.348,2.348,0,0,1-2.483,2.52c-1.794.05-3.591.044-5.386.008a2.455,2.455,0,0,1-2.667-2.725c-.024-1.756-.005-3.513-.005-5.27V264.236Z" transform="translate(-3402.073 -229.752)" fill="#fff"/>
          <path id="Trazado_126782" data-name="Trazado 126782" d="M3429.112,352.257c.19-1.147.354-2.547.676-3.91a1.547,1.547,0,0,0-.584-1.722c-.9-.8-1.764-1.657-2.622-2.511a2.578,2.578,0,0,1,1.46-4.485c1.275-.177,2.563-.3,3.816-.578a2.059,2.059,0,0,0,1.193-.876c.654-1.1,1.172-2.288,1.757-3.434a2.6,2.6,0,0,1,4.683-.011c.559,1.072,1.153,2.133,1.605,3.25a1.7,1.7,0,0,0,1.569,1.133c1.24.149,2.479.317,3.706.538a2.527,2.527,0,0,1,1.5,4.286,28.046,28.046,0,0,1-2.607,2.523,1.856,1.856,0,0,0-.706,2.132,29.988,29.988,0,0,1,.562,3.106,2.641,2.641,0,0,1-4.015,2.92c-1.1-.595-2.19-1.2-3.327-1.711a1.705,1.705,0,0,0-1.261.007c-1.273.584-2.477,1.326-3.756,1.9A2.584,2.584,0,0,1,3429.112,352.257Zm14.792-9.426c-1.25-.176-2.243-.339-3.241-.452a2.371,2.371,0,0,1-2.049-1.5c-.423-.94-.923-1.845-1.467-2.922a27.821,27.821,0,0,0-1.3,2.592,2.764,2.764,0,0,1-2.657,1.908c-.869.064-1.728.242-2.724.389.848.871,1.529,1.615,2.26,2.307a2.252,2.252,0,0,1,.767,2.3c-.23,1.035-.346,2.1-.54,3.317,1.121-.578,2.071-1.025,2.978-1.548a2.245,2.245,0,0,1,2.427-.013c.924.526,1.89.981,3,1.552-.2-1.222-.309-2.23-.546-3.205a2.273,2.273,0,0,1,.772-2.406C3442.328,344.464,3443.015,343.725,3443.9,342.831Z" transform="translate(-3395.13 -245.213)" fill="#fff"/>
          <path id="Trazado_126783" data-name="Trazado 126783" d="M3437.963,307.5a7.551,7.551,0,0,1-7.475-7.339,2.7,2.7,0,0,1,2.851-2.989q4.686-.046,9.372,0a2.715,2.715,0,0,1,2.8,2.93A7.579,7.579,0,0,1,3437.963,307.5Zm3.806-6.735h-7.624a3.942,3.942,0,0,0,4.063,3.21A3.746,3.746,0,0,0,3441.77,300.767Z" transform="translate(-3395.973 -238.847)" fill="#fff"/>
          <path id="Trazado_126784" data-name="Trazado 126784" d="M3439.831,289.751a11.351,11.351,0,0,1,1.329.256,1.6,1.6,0,0,1,1.178,1.792,1.544,1.544,0,0,1-1.479,1.539,13.27,13.27,0,0,1-2.454-.008,2.217,2.217,0,0,1-2.015-2.1,27.911,27.911,0,0,1-.035-3.737,1.65,1.65,0,0,1,1.739-1.676,1.7,1.7,0,0,1,1.726,1.811c.023.35.009.7.011,1.053S3439.831,289.375,3439.831,289.751Z" transform="translate(-3397 -236.85)" fill="#fff"/>
          <path id="Trazado_126785" data-name="Trazado 126785" d="M3449.482,286.582c0,.543.045,1.09-.009,1.627a1.569,1.569,0,0,1-1.613,1.526,1.549,1.549,0,0,1-1.779-1.462,18.566,18.566,0,0,1,.01-3.364,1.514,1.514,0,0,1,1.7-1.408,1.555,1.555,0,0,1,1.668,1.456,12.449,12.449,0,0,1,.013,1.626Z" transform="translate(-3398.708 -236.441)" fill="#fff"/>
          <path id="Trazado_126786" data-name="Trazado 126786" d="M3432.391,286.677c0,.5.039,1.013-.009,1.512a1.575,1.575,0,0,1-1.6,1.542,1.51,1.51,0,0,1-1.766-1.33,16.656,16.656,0,0,1,0-3.587,1.5,1.5,0,0,1,1.776-1.313,1.566,1.566,0,0,1,1.586,1.548C3432.432,285.587,3432.391,286.134,3432.391,286.677Z" transform="translate(-3395.697 -236.441)" fill="#fff"/>
        </g>
      </g>
    </g>
  </g>
</svg>
