<svg xmlns="http://www.w3.org/2000/svg" xmlns:xlink="http://www.w3.org/1999/xlink" width="165" height="130" viewBox="0 0 165 130">
  <defs>
    <clipPath id="clip-path">
      <rect id="Rectángulo_35892" data-name="Rectángulo 35892" width="165" height="130" transform="translate(8576 -7394)" fill="#fff" stroke="#707070" stroke-width="1"/>
    </clipPath>
  </defs>
  <g id="icon2-7" transform="translate(-8576 7394)" clip-path="url(#clip-path)">
    <g id="Grupo_133684" data-name="Grupo 133684" transform="translate(-18.521 -8.099)">
      <g id="Grupo_78348" data-name="Grupo 78348" transform="translate(8611.521 -7366.901)">
        <path id="Trazado_113319" data-name="Trazado 113319" d="M1572.434,1085.285h-8.783v-6.015H1587.1v6.015h-14.661Z" transform="translate(-1563.651 -1070.555)" fill="#5bd3a9"/>
      </g>
      <g id="Grupo_62200" data-name="Grupo 62200" transform="translate(6458.417 -8689.376)">
        <g id="Grupo_60261" data-name="Grupo 60261" transform="translate(2181.274 1309.174)">
          <path id="Trazado_130867" data-name="Trazado 130867" d="M2285.642,1352.029a1.848,1.848,0,0,0-2.84-1.578c-.234.125-.441.294-.877.59v-39.432c0-1.777-.626-2.435-2.33-2.435h-81.05c-1.669,0-2.323.656-2.327,2.317,0,2.639-.03,5.279.014,7.918.013.746-.167.971-.942.96-3.726-.043-7.452-.019-11.18-.019-2.31,0-2.8.486-2.8,2.786v91.413a9.371,9.371,0,0,0,8.527,10.147,9.226,9.226,0,0,0,1.61,0h76.623c.465,0,.932,0,1.4-.019a13.086,13.086,0,0,0,12-9.679,36.711,36.711,0,0,0,.451-8.222c.017-.472,0-.945,0-1.527a5.243,5.243,0,0,1,.486.264,1.93,1.93,0,0,0,2.266.3,2.116,2.116,0,0,0,.982-2.082q-.017-24.279,0-48.56C2285.653,1354.118,2285.694,1353.069,2285.642,1352.029Zm-89.429,63.23a5.586,5.586,0,0,1-11.167.31q0-.155,0-.31-.017-22.474,0-44.947,0-22.531-.024-45.064c0-.962.215-1.22,1.188-1.2,3.026.073,6.055.054,9.082,0,.759-.01.952.19.952.952q-.04,45.121-.033,90.255Zm81.979-3.644a9.276,9.276,0,0,1-9.225,9.327q-.045,0-.09,0-35.048.036-70.088,0h-.759a10.5,10.5,0,0,0,1.929-6.43q-.033-50.185-.043-100.37c0-1.1.317-1.286,1.329-1.286q37.843.043,75.685,0c1.071,0,1.286.3,1.286,1.322q-.054,19.153,0,38.308a1.979,1.979,0,0,1-1,1.871c-3.961,2.72-7.887,5.491-11.812,8.262a2.92,2.92,0,0,1-1.813.585c-3.725-.034-7.453-.026-11.177-.013a11.145,11.145,0,0,0-11.47,10.811q-.01.32,0,.639a56.866,56.866,0,0,0,.187,9.064,10.658,10.658,0,0,0,6.415,8.269,1.236,1.236,0,0,1,.858,1.368c-.03,4.113-.022,8.228-.014,12.342a7.459,7.459,0,1,0,14.9.762q.019-.357,0-.713c.01-3.8,0-7.607.012-11.412,0-.428-.257-1.071.187-1.266a1.785,1.785,0,0,1,1.715.37c2.293,1.657,4.625,3.258,6.942,4.88,1.747,1.222,3.479,2.467,5.249,3.655a1.566,1.566,0,0,1,.813,1.5C2278.171,1406.187,2278.222,1408.905,2278.192,1411.615Zm-11.185-44.919a1.114,1.114,0,0,1,.535-1.046c2.259-1.554,4.5-3.131,6.859-4.773v34.457c-2.358-1.655-4.6-3.241-6.859-4.8a1.1,1.1,0,0,1-.528-1.046q.017-11.389,0-22.788Zm-7.441,33.3v5.815a3.732,3.732,0,1,1-7.448.479,3.828,3.828,0,0,1,0-.5c-.01-3.955,0-7.909-.015-11.861,0-.643.049-.965.845-.937,1.929.068,3.878.051,5.813,0,.673-.015.833.2.821.842-.039,2.065-.017,4.12-.017,6.173Zm-7.288-10.716a7.448,7.448,0,0,1-7.6-7.29c0-.088,0-.177,0-.266-.019-2.443-.024-4.884,0-7.328a7.432,7.432,0,0,1,7.4-7.465h.054c3.413-.03,6.825.017,10.235-.024.752,0,.964.18.955.947-.042,3.451-.019,6.9-.019,10.353,0,3.335-.026,6.669.019,10,.011.815-.114,1.121-1.042,1.1-3.339-.066-6.675-.008-10.007-.028Zm29.622,11.288c-1.2-.837-2.284-1.615-3.4-2.357-.383-.255-.291-.6-.291-.926v-38.416a.978.978,0,0,1,.428-.979c1.072-.69,2.085-1.439,3.266-2.259Z" transform="translate(-2181.274 -1309.174)" fill="#fff"/>
          <path id="Trazado_130868" data-name="Trazado 130868" d="M2296.115,1370.577c.41.472.682.416,1.094,0,1.483-1.528,3-3.02,4.5-4.529.161-.161.3-.343.474-.54-.152-.172-.272-.32-.406-.453-.546-.551-1.127-1.071-1.633-1.653-.416-.48-.688-.428-1.1.013-.986,1.039-2.023,2.028-3.026,3.052-.644.661-1.836,1.415-1.765,2C2294.358,1369.229,2295.483,1369.853,2296.115,1370.577Z" transform="translate(-2187.25 -1312.024)" fill="#fff"/>
          <path id="Trazado_130869" data-name="Trazado 130869" d="M2298.663,1386.524c-.66-.643-1.407-1.835-2-1.766-.765.088-1.394,1.211-2.121,1.844-.46.4-.441.677,0,1.093,1.149,1.095,2.257,2.235,3.38,3.357,1.687,1.687,1.681,1.68,3.385,0a8.94,8.94,0,0,1,1.05-.772c-.367-.405-.538-.611-.728-.8C2300.64,1388.494,2299.66,1387.5,2298.663,1386.524Z" transform="translate(-2187.248 -1313.172)" fill="#fff"/>
          <path id="Trazado_130870" data-name="Trazado 130870" d="M2302.882,1376.7c-.026-.5-.139-.669-.654-.655-1.318.035-2.639.011-3.957.011-3.05,0-3.036,0-2.873,3.082.026.5.139.673.654.654,1.007-.038,2.017-.01,3.026-.01h.93C2303.06,1379.779,2303.044,1379.779,2302.882,1376.7Z" transform="translate(-2187.308 -1312.711)" fill="#fff"/>
          <path id="Trazado_130871" data-name="Trazado 130871" d="M2207.531,1350.573H2273.3c1.809,0,2.426-.625,2.426-2.454v-28.636c0-1.826-.617-2.446-2.435-2.446h-65.883c-1.892,0-2.484.6-2.484,2.513v28.4C2204.925,1350.016,2205.475,1350.573,2207.531,1350.573Zm1.1-28.762c0-.87.2-1.071,1.072-1.071q30.624.04,61.249,0c.857,0,1.072.2,1.072,1.071q-.058,12,0,23.987c0,.87-.2,1.072-1.072,1.072-10.209-.034-20.416-.022-30.625-.022-10.17,0-20.338-.015-30.509.026-.966,0-1.2-.214-1.192-1.19Q2208.691,1333.751,2208.626,1321.811Z" transform="translate(-2182.525 -1309.59)" fill="#fff"/>
          <path id="Trazado_130872" data-name="Trazado 130872" d="M2236.037,1356.382h-28.745c-1.738,0-2.371.643-2.372,2.388v32.47c0,1.8.626,2.4,2.476,2.4h28.629c1.811,0,2.43-.625,2.432-2.449v-32.35C2238.457,1357.008,2237.844,1356.382,2236.037,1356.382Zm-1.285,32.6c0,.76-.191.955-.95.952q-12.11-.042-24.22,0c-.759,0-.958-.19-.951-.952.036-4.657.019-9.315.019-13.973s.017-9.315-.019-13.973c0-.759.19-.954.951-.951q12.111.042,24.22,0c.759,0,.954.19.952.951q-.037,13.974,0,27.945Z" transform="translate(-2182.525 -1311.671)" fill="#fff"/>
          <path id="Trazado_130873" data-name="Trazado 130873" d="M2244.79,1399.641q-18.573.043-37.143.019c-2.751,0-2.712,0-2.752,2.746-.012.836.229,1,1.026,1,6.482-.034,12.963-.019,19.445-.019H2243.3c2.619,0,2.572,0,2.639-2.63C2245.959,1399.818,2245.672,1399.638,2244.79,1399.641Z" transform="translate(-2182.524 -1313.959)" fill="#fff"/>
          <path id="Trazado_130874" data-name="Trazado 130874" d="M2225.356,1411.255h17.931c2.63,0,2.589,0,2.647-2.617.021-.906-.214-1.134-1.129-1.132q-18.573.05-37.143.022c-2.761,0-2.725,0-2.762,2.732-.011.816.192,1.018,1.011,1.013C2212.392,1411.239,2218.875,1411.255,2225.356,1411.255Z" transform="translate(-2182.524 -1314.375)" fill="#fff"/>
          <path id="Trazado_130875" data-name="Trazado 130875" d="M2244.79,1415.378q-18.573.043-37.143.019c-2.751,0-2.712,0-2.752,2.746-.012.836.229,1,1.026,1,6.482-.034,12.963-.019,19.445-.019H2243.3c2.619,0,2.572,0,2.639-2.63C2245.959,1415.556,2245.672,1415.376,2244.79,1415.378Z" transform="translate(-2182.524 -1314.791)" fill="#fff"/>
          <path id="Trazado_130876" data-name="Trazado 130876" d="M2212.788,1340.709c0,2.887,0,2.851,2.883,2.851.774,0,.857-.268.857-.931-.032-2.987-.015-5.975-.015-8.963l.2-.081c1.8,2.876,3.605,5.746,5.388,8.632.556.9,1.235,1.565,2.359,1.236s1.386-1.192,1.38-2.276c-.025-4.463-.01-8.928-.01-13.389,0-2.971,0-2.944-2.943-2.9-.708,0-.8.259-.8.87.03,2.756.019,5.513,0,8.267,0,.268.185.613-.187.832-1.8-2.868-3.6-5.717-5.358-8.585-.551-.893-1.2-1.6-2.334-1.3-1.168.309-1.443,1.224-1.434,2.357C2212.807,1331.781,2212.788,1336.244,2212.788,1340.709Z" transform="translate(-2182.94 -1310.005)" fill="#fff"/>
          <path id="Trazado_130877" data-name="Trazado 130877" d="M2244.267,1333.063v8.495a1.794,1.794,0,0,0,1.515,1.929,1.762,1.762,0,0,0,2.064-1.128c.2-.428.362-.857.536-1.286.465-1.149.926-2.3,1.475-3.662.677,1.67,1.271,3.052,1.794,4.46.392,1.055.994,1.777,2.208,1.634,1.044-.125,1.58-.954,1.582-2.341v-13.381c0-2.968,0-2.941-2.94-2.9-.7,0-.81.251-.8.857.037,1.914.013,3.83.013,5.877-1.413-1.5-2.377-1.5-3.728.107v-3.931c0-2.973,0-2.947-2.932-2.908-.687,0-.816.229-.808.857C2244.287,1328.18,2244.267,1330.626,2244.267,1333.063Z" transform="translate(-2184.605 -1310.004)" fill="#fff"/>
          <path id="Trazado_130878" data-name="Trazado 130878" d="M2230.5,1341.38a1.9,1.9,0,0,0,2.143,2.143c1.436.017,2.872,0,4.308,0,2.958,0,2.938,0,2.879-2.962-.013-.6-.146-.8-.769-.778-1.286.049-2.573-.041-3.841.034-.816.047-1.031-.184-1.018-1.007.041-2.737,0-2.74,2.759-2.74,3.05,0,3.035,0,2.87-3.088-.028-.508-.155-.662-.66-.643-1.319.032-2.643-.045-3.957.032-.829.049-1.02-.214-1.009-1.015.039-2.731,0-2.731,2.767-2.731,2.951,0,2.927,0,2.864-2.979-.013-.628-.2-.77-.789-.759-2.1.032-4.191,0-6.287.014-1.586,0-2.25.675-2.257,2.27v6.985C2230.5,1336.567,2230.486,1338.973,2230.5,1341.38Z" transform="translate(-2183.877 -1310.005)" fill="#fff"/>
          <path id="Trazado_130879" data-name="Trazado 130879" d="M2260.153,1343.339c.317.59,1.644.127,2.516.193.231.017.465,0,.7,0v-.068a20.029,20.029,0,0,0,3.131-.026,5.559,5.559,0,0,0,4.67-5.881,5.636,5.636,0,0,0-5.313-5.2c-1.373-.1-2.169-.827-2.124-1.939s.882-1.777,2.268-1.789h2.325c2.949,0,2.932,0,2.87-2.963-.012-.594-.143-.8-.767-.778-1.55.044-3.1,0-4.652.017a5.59,5.59,0,1,0-.4,11.173h0c1.313.1,2.076.791,2.067,1.878,0,1.127-.846,1.838-2.208,1.849-1.511.01-3.021,0-4.535,0-.322,0-.727-.125-.708.46C2260.038,1341.32,2259.717,1342.527,2260.153,1343.339Z" transform="translate(-2185.435 -1310.005)" fill="#fff"/>
        </g>
      </g>
    </g>
  </g>
</svg>
