<svg xmlns="http://www.w3.org/2000/svg" xmlns:xlink="http://www.w3.org/1999/xlink" width="165" height="130" viewBox="0 0 165 130">
  <defs>
    <clipPath id="clip-path">
      <rect id="Rectángulo_35884" data-name="Rectángulo 35884" width="165" height="130" transform="translate(6440 -7809)" fill="#fff" stroke="#707070" stroke-width="1"/>
    </clipPath>
  </defs>
  <g id="icon1-6" transform="translate(-6440 7809)" clip-path="url(#clip-path)">
    <g id="Grupo_133667" data-name="Grupo 133667" transform="translate(3.48 -11.099)">
      <g id="Grupo_78348" data-name="Grupo 78348" transform="translate(6453.521 -7789.901)">
        <path id="Trazado_113319" data-name="Trazado 113319" d="M1572.434,1094v-8.714h-8.783v-6.015h8.783v-8.714h5.855v8.714h8.806v6.015h-8.806V1094Z" transform="translate(-1563.651 -1070.555)" fill="#ffb840"/>
      </g>
      <g id="QimBqA" transform="translate(5326.951 -9694.425)">
        <g id="Grupo_133666" data-name="Grupo 133666" transform="translate(1131.57 1924.712)">
          <path id="Trazado_126778" data-name="Trazado 126778" d="M1269.593,1949.726c-.578,2.951-2.434,5.1-4.391,7.24-5.521,6.024-10.977,12.106-16.611,18.334,3.231,2.6,5.735,5.667,4.526,10.112a10.616,10.616,0,0,1-8.132,7.75c1.172,6.743-5.815,12.929-11.6,11.322-1.177,4.073-3.515,7.155-7.76,8.295-4.469,1.2-7.5-1.426-10.162-4.2a50.755,50.755,0,0,1-3.5,4.481,8.481,8.481,0,0,1-12.009.322c-2.3-2.062-4.543-4.18-6.564-6.043a57.606,57.606,0,0,0-4.642,4.259c-4.87,5.535-12.359,4-15.916-2.76-.144-.273-.251-.566-.373-.846-6.809,2.546-11.49.521-14.32-6.248-3.955,1.337-7.316.316-10.214-2.672-2.973-3.065-3.609-6.48-2-10.069a51.4,51.4,0,0,1-4.709-3.6,8.373,8.373,0,0,1-.272-12.073c1.829-1.974,3.712-3.9,5.672-5.95-.666-.583-1.286-1.137-1.919-1.678q-4.867-4.156-9.738-8.305c-4.2-3.582-4.534-8.663-.845-12.8q6.055-6.784,12.108-13.571a11.605,11.605,0,0,1,13.581-3.09c1.982.836,3.948,1.715,5.938,2.534a13.888,13.888,0,0,0,10.992-.026c1.864-.773,3.716-1.573,5.573-2.363a16.872,16.872,0,0,1,14.934.4,1.132,1.132,0,0,1,.12.06c1.781,1.214,3.27,1.315,5.374.063a12.661,12.661,0,0,1,12.162-.37c3.221,1.476,6.37,3.1,9.573,4.615a9.858,9.858,0,0,0,9.886-.507c3.291-2.015,6.551-4.08,9.836-6.105a9.3,9.3,0,0,1,12.467,2.039c3.716,4.616,7.374,9.282,10.93,14.021a22.713,22.713,0,0,1,2,4.188Zm-64.977,42.543c.414.363.751.647,1.075.946,4.918,4.539,9.822,9.092,14.767,13.6a6.152,6.152,0,0,0,2.252,1.379c2.037.61,4.144-.625,5.456-3.006a3.9,3.9,0,0,0-1.027-4.975q-7.51-6.962-15.041-13.9c-.321-.3-.684-.547-1.1-.876l3.256-3.477c.465.417.8.711,1.127,1.014q8.412,7.771,16.837,15.532a5.974,5.974,0,0,0,2.125,1.339c2.405.751,3.964-.672,5.486-2.906,1.071-1.572.673-3.525-.888-4.978q-9.174-8.536-18.385-17.033a16.2,16.2,0,0,0-1.3-.978l3.317-3.542c.584.538,1.11,1.019,1.635,1.5,5.538,5.125,11.06,10.269,16.624,15.365,2.122,1.943,4.22,1.659,6.41-.721,1.936-2.106,1.938-4.291,0-6.155-10.834-10.4-22.063-20.318-34.641-28.611a7.8,7.8,0,0,0-8.74-.361c-1.211.683-2.384,1.433-3.581,2.14-4.994,2.953-10.225,1.438-13.735-3.9-2.216-3.368-2.051-8.919,3.083-12.115,1.827-1.137,3.537-2.461,5.3-3.706.306-.217.586-.47.966-.776a12.274,12.274,0,0,0-11.107-.938c-2.052.782-4.048,1.71-6.074,2.561a18.532,18.532,0,0,1-15.028-.031q-2.906-1.243-5.822-2.466a6.818,6.818,0,0,0-7.966,1.778q-6.171,6.862-12.3,13.766c-1.9,2.14-1.757,4.226.393,6.078,3.4,2.932,6.828,5.836,10.246,8.749.533.455,1.08.9,1.717,1.422,2.856-3.406,5.912-6.543,10.757-5.3,4.519,1.163,7.214,4.289,8.015,9.077,3.354-.216,5.876,1.414,8.053,3.8,2.293,2.509,2.722,5.441,1.941,8.676,4.966,1.337,6.972,5.1,8.182,9.569.167.019.342.047.519.057a9.79,9.79,0,0,1,8.933,12.849,1.6,1.6,0,0,0,.428,1.309c1.8,1.755,3.665,3.445,5.51,5.154,2.8,2.592,4.761,2.49,7.3-.375a3.854,3.854,0,0,0-.228-5.836c-1.369-1.3-2.773-2.559-4.158-3.839-1.237-1.143-2.47-2.291-3.749-3.477Zm40.577-20.218c.269-.282.492-.5.7-.735q8.629-9.54,17.257-19.081c2.246-2.481,2.343-5.1.269-7.752q-5.014-6.422-10.032-12.84c-1.918-2.452-4.346-2.9-6.976-1.276-3.243,2.006-6.443,4.083-9.719,6.034a14.377,14.377,0,0,1-14.15.7c-3.25-1.516-6.443-3.153-9.7-4.655a8.331,8.331,0,0,0-8.372.479c-4.427,2.9-8.7,6.038-13.023,9.095a3.546,3.546,0,0,0-1.588,3.24,5.4,5.4,0,0,0,7.978,4.313c1.4-.806,2.73-1.737,4.165-2.472,4.243-2.174,8.63-2.271,12.537.435q9.786,6.78,19.135,14.186C1237.679,1964.89,1241.3,1968.536,1245.193,1972.051Zm-76.343.314a10.243,10.243,0,0,0-2.458,1.491c-5.115,5.221-10.163,10.507-15.207,15.8-2.037,2.136-1.869,4.24.423,6.417,2.246,2.134,4.386,2.159,6.437.025q7.5-7.809,14.983-15.639c1.306-1.359,1.906-2.937.987-4.64A6.088,6.088,0,0,0,1168.85,1972.366Zm-10.513-9.293a8.978,8.978,0,0,0-2.333,1.355q-5.864,5.934-11.566,12.03c-1.88,2-1.58,4.166.723,6.3,2.142,1.986,4.217,2,6.113.028,3.731-3.881,7.443-7.781,11.192-11.642,1.225-1.261,1.937-2.6,1.1-4.336A5.836,5.836,0,0,0,1158.337,1963.072Zm23.944,26.844c-.159-1.943-1.377-2.987-2.566-4.024a3.807,3.807,0,0,0-5.552.156q-5.306,5.454-10.518,11a3.712,3.712,0,0,0,.059,5.234,15.686,15.686,0,0,0,1.263,1.21,3.874,3.874,0,0,0,5.564-.138c3.481-3.565,6.937-7.155,10.325-10.807A11.912,11.912,0,0,0,1182.281,1989.916Zm10.242,9.693c-.193-2.052-1.521-3.126-2.809-4.174a3.776,3.776,0,0,0-5.254.256q-3.374,3.39-6.619,6.907a3.853,3.853,0,0,0,.137,5.559,15.961,15.961,0,0,0,1.173,1.11,3.838,3.838,0,0,0,5.464-.19c2.216-2.23,4.408-4.486,6.505-6.826A12.239,12.239,0,0,0,1192.523,1999.609Z" transform="translate(-1131.569 -1924.712)" fill="#fff"/>
        </g>
      </g>
    </g>
  </g>
</svg>
