<svg xmlns="http://www.w3.org/2000/svg" xmlns:xlink="http://www.w3.org/1999/xlink" width="165" height="130" viewBox="0 0 165 130">
  <defs>
    <clipPath id="clip-path">
      <rect id="Rectángulo_35893" data-name="Rectángulo 35893" width="165" height="130" transform="translate(8575 -6957)" fill="#fff" stroke="#707070" stroke-width="1"/>
    </clipPath>
  </defs>
  <g id="icon2-8" transform="translate(-8575 6957)" clip-path="url(#clip-path)">
    <g id="Grupo_133685" data-name="Grupo 133685" transform="translate(-18.521 0.901)">
      <g id="Grupo_78348" data-name="Grupo 78348" transform="translate(8611.521 -6940.901)">
        <path id="Trazado_113319" data-name="Trazado 113319" d="M1572.434,1085.285h-8.783v-6.015H1587.1v6.015h-14.661Z" transform="translate(-1563.651 -1070.555)" fill="#5bd3a9"/>
      </g>
      <g id="Grupo_133682" data-name="Grupo 133682" transform="translate(7586.308 -8262.622)">
        <g id="uAeX5t" transform="translate(1054.768 1311.041)">
          <g id="Grupo_133681" data-name="Grupo 133681">
            <path id="Trazado_126836" data-name="Trazado 126836" d="M1056.122,1429.619a2.744,2.744,0,0,1-1.127-2.475c-.055-9.541-.148-19.081-.226-28.622-.019-2.228.432-2.668,2.7-2.669h1.954v-1.373q0-5.54,0-11.08c0-.308-.015-.618.015-.923a1.783,1.783,0,0,1,1.765-1.768,1.716,1.716,0,0,1,1.667,1.838c.026,3.924.014,7.848.016,11.772v1.446h19.7c-3.495-10.686-1.831-20.506,5.214-29.6h-1.36q-8.541,0-17.082,0c-1.959,0-2.434-.482-2.435-2.456q0-13.734,0-27.469c0-1.955.49-2.438,2.456-2.438q10.964,0,21.929,0c1.849,0,2.395.545,2.4,2.416q.005,11.6,0,23.2v1.318c12.046-6.954,24-7.249,35.059,1.4,11.043,8.636,13.589,20.292,9.774,33.626h9.5v-1.4q0-17.024,0-34.047a5.636,5.636,0,0,1,.1-1.373,1.584,1.584,0,0,1,1.79-1.295,1.6,1.6,0,0,1,1.551,1.578c.033.383.019.769.019,1.154q0,16.965,0,33.932v1.543c.846,0,1.6,0,2.355,0,1.807.014,2.313.514,2.315,2.352.008,6.463.019,12.927-.016,19.39a2.537,2.537,0,0,0,.844,2.012c2.235,2.171,4.423,4.391,6.621,6.6,1.339,1.346,1.3,2.191-.153,3.411h-1.154c-.433-.375-.891-.725-1.3-1.129q-6.857-6.839-13.7-13.692c-.265-.265-.544-.516-.765-.724l-7.434,7.447c1.539,1.532,3.143,3.121,4.736,4.722,1.345,1.352,1.277,2.218-.241,3.377h-69.032c-.83-.541-1.447-1.222-1.077-2.285s1.259-1.247,2.255-1.182c.269.018.539,0,.808,0h62.061c-.057-.2-.055-.289-.1-.333q-1.213-1.234-2.437-2.458c-1.664-1.666-1.68-2.043-.173-3.815.041-.047.023-.143.014-.073-1.154-1.186-2.246-2.306-3.338-3.427-1.98,1.6-2.233,1.581-4.1-.28-1.089-1.087-2.221-2.135-3.249-3.277a1.314,1.314,0,0,0-1.859-.3,29.662,29.662,0,0,1-38.629-11.95,1.6,1.6,0,0,0-1.612-.942c-7.884.029-15.769.016-23.654.021-.4,0-.8.046-1.1.064v26.772c2.769,0,5.372.014,7.976-.007.977-.008,1.863.088,2.272,1.154.417,1.09-.259,1.717-.994,2.316Zm54.368-17.958a26.23,26.23,0,1,0-26.206-26.31A26.144,26.144,0,0,0,1110.49,1411.662Zm-40.022-74.332V1362.6h19.719v-25.272Zm66.245,62.05c1.783,1.75,3.332,3.241,4.846,4.768a1.736,1.736,0,0,1,.1,2.732l-.512.6,3.372,3.434c.11-.083.238-.162.349-.262,1.366-1.225,1.993-1.209,3.3.094.953.948,1.9,1.9,2.852,2.851.494.491.993.978,1.618,1.592v-15.812Zm-6.227,13.428,7.353-7.285-2.75-2.844-7.314,7.313Zm11.237.788-3.09-3.2-3.163,3.173,3.107,3.291Z" transform="translate(-1054.769 -1311.407)" fill="#fff"/>
            <path id="Trazado_126837" data-name="Trazado 126837" d="M1105.566,1329.456h-40.853c-1.745,0-1.746,0-1.746,1.8v41.2c0,.308,0,.615,0,.923-.015,1.58-.592,2.345-1.751,2.325s-1.708-.786-1.708-2.39q-.005-21.35-.008-42.7a4.552,4.552,0,0,1,1.865-4,1.538,1.538,0,0,0,.464-1.05c.068-1.034.018-2.076.048-3.114a4.223,4.223,0,0,1,1.641-3.171,2.128,2.128,0,0,0,.651-1.292c.1-1.029,0-2.076.058-3.111a3.988,3.988,0,0,1,3.884-3.82c.345-.016.693-.007,1.038-.007h72.819c3.527,0,4.971,1.443,4.972,4.967a9.977,9.977,0,0,1-.007,1.153,2.644,2.644,0,0,0,1.041,2.553,5.737,5.737,0,0,1,1.28,4.559,3.215,3.215,0,0,0,1.119,2.994,4.4,4.4,0,0,1,1.165,2.964c.1,6.769.056,13.541.048,20.311,0,1.308-.608,2.035-1.654,2.066-1.1.032-1.795-.725-1.8-2.066-.015-5.77-.007-11.54-.007-17.31,0-.962-.016-1.925,0-2.886.012-.638-.275-.917-.9-.893-.346.013-.692,0-1.038,0Zm-40.1-3.551H1145.8v-2.041c0-1.912,0-1.912-1.868-1.912H1068.7c-3.727,0-3.727,0-3.334,3.751A1.1,1.1,0,0,0,1065.469,1325.9Zm78.005-7.471v-2.128c0-1.8,0-1.8-1.738-1.8h-72.379c-.27,0-.591-.093-.8.023-.337.19-.821.492-.852.787a30.911,30.911,0,0,0-.04,3.118Z" transform="translate(-1054.844 -1311.041)" fill="#fff"/>
            <path id="Trazado_126838" data-name="Trazado 126838" d="M1121.843,1337.267q-10.206,0-20.411,0a5.129,5.129,0,0,1-1.148-.05,1.714,1.714,0,0,1,.074-3.382,5.684,5.684,0,0,1,1.035-.029h40.82a6.505,6.505,0,0,1,1.036.024,1.715,1.715,0,0,1,.038,3.4,5.981,5.981,0,0,1-1.149.037Q1131.99,1337.269,1121.843,1337.267Z" transform="translate(-1055.478 -1311.407)" fill="#fff"/>
            <path id="Trazado_126839" data-name="Trazado 126839" d="M1121.708,1344.835q-10.043,0-20.084,0a9.581,9.581,0,0,1-1.268-.042,1.586,1.586,0,0,1-1.462-1.536,1.56,1.56,0,0,1,1.189-1.751,4.427,4.427,0,0,1,1.252-.128q20.488-.009,40.978,0c.455,0,1.061-.067,1.331.184.483.45,1.081,1.145,1.036,1.687s-.752,1.123-1.3,1.5c-.322.22-.9.086-1.357.088Q1131.865,1344.838,1121.708,1344.835Z" transform="translate(-1055.478 -1311.529)" fill="#fff"/>
            <path id="Trazado_126840" data-name="Trazado 126840" d="M1114.883,1352.443q-6.746,0-13.492-.005a5.031,5.031,0,0,1-1.255-.112,1.562,1.562,0,0,1-1.248-1.707,1.581,1.581,0,0,1,1.406-1.583,6.888,6.888,0,0,1,1.15-.054q13.376,0,26.752,0a6.7,6.7,0,0,1,1.149.054,1.691,1.691,0,0,1,.167,3.291,4.938,4.938,0,0,1-1.255.111Q1121.572,1352.448,1114.883,1352.443Z" transform="translate(-1055.478 -1311.651)" fill="#fff"/>
            <path id="Trazado_126841" data-name="Trazado 126841" d="M1111.058,1408.171a22.261,22.261,0,1,1,22.262-22.216A22.282,22.282,0,0,1,1111.058,1408.171Zm.052-3.464a18.8,18.8,0,1,0-18.849-18.742A18.781,18.781,0,0,0,1111.11,1404.707Z" transform="translate(-1055.316 -1311.887)" fill="#fff"/>
          </g>
        </g>
        <path id="Trazado_126842" data-name="Trazado 126842" d="M1111.035,1396.2q-4.416,0-8.832,0c-.813,0-1.023-.206-1.013-1.033.014-1.032-.015-2.07.084-3.1a4.051,4.051,0,0,1,2.449-3.422c.746-.354,1.558-.57,2.3-.927a5.173,5.173,0,0,0,1.447-.974c.394-.4.3-.621-.136-.986a5.334,5.334,0,0,1-2.1-3.893,23.12,23.12,0,0,1,.137-4.954,5.85,5.85,0,0,1,11.506.638,27.136,27.136,0,0,1-.014,4.5,5.31,5.31,0,0,1-2.2,3.792c-.271.211-.346.433-.163.661a3.7,3.7,0,0,0,.945.927,11.342,11.342,0,0,0,1.6.653c.349.137.7.263,1.047.412a4.433,4.433,0,0,1,2.823,4.27c.024.845.01,1.691.007,2.537,0,.656-.247.894-.917.894Q1115.522,1396.2,1111.035,1396.2Z" transform="translate(-0.747 -0.988)" fill="#fff"/>
      </g>
    </g>
  </g>
</svg>
