<svg xmlns="http://www.w3.org/2000/svg" xmlns:xlink="http://www.w3.org/1999/xlink" width="165" height="130" viewBox="0 0 165 130">
  <defs>
    <clipPath id="clip-path">
      <rect id="Rectángulo_35889" data-name="Rectángulo 35889" width="165" height="130" transform="translate(8574 -8602)" fill="#fff" stroke="#707070" stroke-width="1"/>
    </clipPath>
  </defs>
  <g id="icon2-4" transform="translate(-8574 8602)" clip-path="url(#clip-path)">
    <g id="Grupo_133683" data-name="Grupo 133683" transform="translate(-12.521 0)">
      <g id="Grupo_78348" data-name="Grupo 78348" transform="translate(8611.521 -8549)">
        <path id="Trazado_113319" data-name="Trazado 113319" d="M1572.434,1085.285h-8.783v-6.015H1587.1v6.015h-14.661Z" transform="translate(-1567.651 -1106.555)" fill="#5bd3a9"/>
      </g>
      <g id="Grupo_133676" data-name="Grupo 133676" transform="translate(7074.505 -9912.219)">
        <path id="Trazado_126810" data-name="Trazado 126810" d="M1567.509,1349.538a1.542,1.542,0,0,0,1.539,1.489,1.558,1.558,0,0,0,1.759-1.246,4.664,4.664,0,0,0,.084-1.213c0-8.34.017-16.681-.017-25.02,0-.816.173-1.035,1.038-1.034q28.679.042,57.359,0c.818,0,1.077.144,1.066,1.009-.053,4.448-.031,8.9-.022,13.344.006,2.547,1.4,3.9,4.006,3.9,4.581,0,9.162.026,13.744-.021.873-.009,1.061.232,1.04,1.046-.059,2.334-.01,4.67-.027,7.005a1.717,1.717,0,0,0,.951,1.746c1.226.6,2.441-.273,2.453-1.792.024-2.706-.048-5.414.028-8.117a4.7,4.7,0,0,0-1.6-3.739q-8.317-8.054-16.552-16.19a5.58,5.58,0,0,0-2.3-1.511h-62.27a3.7,3.7,0,0,0-2.331,3.874c.067,8.487.029,16.977.03,25.465A8.92,8.92,0,0,0,1567.509,1349.538Zm66.205-24.343,12.51,12.249h-8.774c-1.022,0-2.045-.015-3.066.007-.461.01-.682-.1-.679-.61C1633.721,1332.929,1633.714,1329.017,1633.714,1325.195Z" transform="translate(0)" fill="#fff"/>
        <path id="Trazado_126811" data-name="Trazado 126811" d="M1663.148,1346.524q-.907-.455-1.828-.882c-2.735-1.277-5.219-.469-6.552,2.179q-16.7,33.171-33.378,66.348a3.57,3.57,0,0,0-.392,1.932c.08,1,.1,2,.144,3h-.025c.062,1.074.161,2.146.179,3.221a2.383,2.383,0,0,0,1.324,2.385,2.587,2.587,0,0,0,2.76-.365q2.541-1.775,5.115-3.5a4.551,4.551,0,0,0,1.577-1.838c2.012-4.056,4.062-8.095,6.1-12.139.952-1.89,1.92-3.772,2.849-5.672a1.687,1.687,0,0,0-.847-2.489c-.909-.326-1.705.062-2.259,1.156-1.61,3.178-3.217,6.359-4.8,9.555-.288.582-.526.763-1.164.39a18.474,18.474,0,0,0-2.74-1.32c-.789-.3-.89-.588-.5-1.356,3.254-6.382,6.455-12.791,9.672-19.191q6.275-12.487,12.535-24.981c.359-.719.648-.911,1.4-.457a18.838,18.838,0,0,0,2.642,1.266c.7.287.844.576.472,1.293-1.747,3.359-3.426,6.752-5.127,10.133q-4.428,8.8-8.852,17.609c-.6,1.186-.366,2.089.608,2.567.953.466,1.831.07,2.451-1.107.069-.131.135-.263.2-.4l10.406-20.692q5.1-10.148,10.2-20.3A4.421,4.421,0,0,0,1663.148,1346.524Zm-38.546,74.269v-4.155l3.573,1.717Zm6.087-7.9a3.583,3.583,0,0,1,.5.366c-.407.764-.74,1.462-1.148,2.113-.142.226-.411-.03-.593-.116-1.082-.507-2.136-1.074-3.237-1.537-.606-.255-.535-.52-.3-.995.846-1.74.829-1.747,2.569-.907C1629.212,1412.172,1629.955,1412.522,1630.689,1412.891Zm26.717-51.862c-.121.215-.352.057-.5-.015-1.187-.566-2.359-1.162-3.554-1.71-.374-.172-.367-.317-.232-.668.775-2.021.792-2.039,2.777-1.079.676.326,1.345.669,2.025.989.236.111.462.207.542.446C1658.091,1359.714,1657.769,1360.383,1657.406,1361.029Zm5.071-10.187a5.7,5.7,0,0,1-.245.646c-.6,1.226-1.249,2.434-1.826,3.673-.266.572-.528.659-1.1.347-.982-.538-2-1.011-3.033-1.458-.516-.225-.682-.419-.377-.97.7-1.262,1.328-2.558,1.964-3.851a1.261,1.261,0,0,1,1.94-.625c.637.317,1.281.619,1.917.937A1.2,1.2,0,0,1,1662.476,1350.842Z" transform="translate(2.09 0.447)" fill="#fff"/>
        <path id="Trazado_126812" data-name="Trazado 126812" d="M1652.372,1396.667a1.549,1.549,0,0,0-1.591-1.183,1.529,1.529,0,0,0-1.577,1.049,4.167,4.167,0,0,0-.116,1.317c-.006,10.011-.024,20.023.023,30.035.005,1.058-.227,1.325-1.334,1.324q-37.778-.055-75.556,0c-1.059,0-1.359-.187-1.357-1.29q.058-35.541.026-71.081a5.44,5.44,0,0,0-.09-1.322,1.677,1.677,0,0,0-3.294.246c-.028.3-.016.593-.016.889q0,36.041,0,72.083c0,2.746,1.085,3.788,3.933,3.788h77.145c2.8,0,3.918-1.094,3.918-3.83q0-15.406,0-30.813A4.566,4.566,0,0,0,1652.372,1396.667Z" transform="translate(0.001 0.606)" fill="#fff"/>
        <path id="Trazado_126813" data-name="Trazado 126813" d="M1575.351,1387.388a3.223,3.223,0,0,0,3.35,3.323q4.484.075,8.97,0a3.287,3.287,0,0,0,3.388-3.423q.034-4.28,0-8.56a3.153,3.153,0,0,0-3.152-3.383c-3.137-.1-6.282-.094-9.419,0a3.1,3.1,0,0,0-3.139,3.262c-.036,1.444-.007,2.89-.007,4.335C1575.343,1384.425,1575.313,1385.907,1575.351,1387.388Zm3.38-8.071c0-.527.166-.706.712-.7q3.8.034,7.593,0c.506,0,.636.183.633.65-.018,2.478-.03,4.956.006,7.434.01.651-.288.706-.816.695-1.246-.025-2.494-.008-3.74-.008-1.209,0-2.419-.03-3.626.012-.608.022-.769-.191-.763-.76Q1578.767,1382.979,1578.731,1379.317Z" transform="translate(0.307 0.97)" fill="#fff"/>
        <path id="Trazado_126814" data-name="Trazado 126814" d="M1575.348,1367.627a3.146,3.146,0,0,0,3.22,3.315q4.651.122,9.308-.01a3.177,3.177,0,0,0,3.184-3.361q.036-4.28,0-8.559a3.264,3.264,0,0,0-3.356-3.447q-4.54-.085-9.082,0a3.18,3.18,0,0,0-3.27,3.277c-.039,1.481-.008,2.965-.009,4.447C1575.341,1364.737,1575.314,1366.182,1575.348,1367.627Zm3.382-8.075c-.005-.534.169-.7.713-.691,2.5.026,4.993.032,7.489,0,.629-.009.746.217.741.768q-.039,3.667,0,7.332c.005.528-.147.716-.7.7-1.247-.035-2.5-.011-3.744-.011-1.211,0-2.421-.022-3.63.01-.59.015-.884-.084-.873-.774C1578.766,1364.439,1578.754,1361.995,1578.73,1359.551Z" transform="translate(0.307 0.628)" fill="#fff"/>
        <path id="Trazado_126815" data-name="Trazado 126815" d="M1575.357,1407.231a3.2,3.2,0,0,0,3.338,3.2q4.486.04,8.971,0a3.253,3.253,0,0,0,3.388-3.294q.053-4.39,0-8.782a3.208,3.208,0,0,0-3.365-3.293q-4.486-.046-8.971,0a3.167,3.167,0,0,0-3.37,3.273c-.037,1.445-.007,2.89-.007,4.335h.005C1575.348,1404.194,1575.31,1405.714,1575.357,1407.231Zm3.371-8.109c-.006-.568.133-.779.749-.757,1.247.046,2.5.013,3.743.013s2.5.023,3.745-.01c.536-.015.714.132.708.678-.028,2.481-.024,4.962,0,7.444,0,.475-.121.638-.63.634q-3.8-.037-7.6,0c-.525.005-.718-.115-.711-.668Q1578.773,1402.789,1578.728,1399.122Z" transform="translate(0.307 1.312)" fill="#fff"/>
        <path id="Trazado_126816" data-name="Trazado 126816" d="M1591.05,1339.033a3.2,3.2,0,0,0-3.25-3.191q-4.6-.073-9.2,0a3.141,3.141,0,0,0-3.241,3.175q-.073,4.5,0,9a3.157,3.157,0,0,0,3.34,3.189c1.477.027,2.953.006,4.428.006h4.429c.076,0,.152,0,.228,0a3.224,3.224,0,0,0,3.266-3.174Q1591.122,1343.536,1591.05,1339.033Zm-4.074,8.857c-1.246-.036-2.494-.012-3.741-.012-1.285,0-2.571-.018-3.855.01-.487.01-.655-.127-.651-.621q.034-3.719,0-7.439c-.006-.537.158-.684.7-.68,2.532.026,5.065.022,7.6,0,.481,0,.652.114.647.615q-.038,3.717,0,7.437C1587.678,1347.733,1587.526,1347.906,1586.976,1347.889Z" transform="translate(0.307 0.287)" fill="#fff"/>
        <path id="Trazado_126817" data-name="Trazado 126817" d="M1632.7,1366.99a1.5,1.5,0,0,0-1.131-1.705,4.168,4.168,0,0,0-1.226-.122q-17.534-.009-35.067,0a4.877,4.877,0,0,0-1.015.053,1.634,1.634,0,0,0-1.307,2.009,1.8,1.8,0,0,0,2,1.273c5.977-.019,11.954-.01,17.931-.01q8.682,0,17.364,0a6.413,6.413,0,0,0,1.019-.022A1.547,1.547,0,0,0,1632.7,1366.99Z" transform="translate(0.993 0.795)" fill="#fff"/>
        <path id="Trazado_126818" data-name="Trazado 126818" d="M1595.5,1357.841a8.59,8.59,0,0,0-1.135.037,1.533,1.533,0,0,0-1.458,1.569,1.5,1.5,0,0,0,1.259,1.62,5.449,5.449,0,0,0,1.236.108q17.385.007,34.769,0a4.887,4.887,0,0,0,1.455-.159,1.619,1.619,0,0,0-.228-3.111,6.581,6.581,0,0,0-1.245-.06q-8.636,0-17.271,0Q1604.2,1357.84,1595.5,1357.841Z" transform="translate(0.994 0.668)" fill="#fff"/>
        <path id="Trazado_126819" data-name="Trazado 126819" d="M1629.319,1388.212a1.611,1.611,0,0,0,1.782-1.82c-.1-1.04-.815-1.5-2.368-1.5q-16.7,0-33.4,0a4.3,4.3,0,0,0-1.341.154,1.494,1.494,0,0,0-1.081,1.639,1.528,1.528,0,0,0,1.309,1.472,6.566,6.566,0,0,0,1.245.065q8.235.006,16.472,0h11.587C1625.456,1388.226,1627.388,1388.25,1629.319,1388.212Z" transform="translate(0.993 1.137)" fill="#fff"/>
        <path id="Trazado_126820" data-name="Trazado 126820" d="M1594.821,1380.907c.189.008.378,0,.567,0q15.452,0,30.9,0a3.755,3.755,0,0,0,1.348-.116,1.619,1.619,0,0,0,.993-2.249,1.9,1.9,0,0,0-1.986-.977q-7.9.02-15.793.007h-6.817c-3.067,0-6.136-.009-9.2.006-1.166.006-1.9.637-1.938,1.588C1592.859,1380.173,1593.611,1380.854,1594.821,1380.907Z" transform="translate(0.993 1.01)" fill="#fff"/>
        <path id="Trazado_126821" data-name="Trazado 126821" d="M1623.322,1400.614a1.631,1.631,0,0,0,1.588-1.592,1.654,1.654,0,0,0-1.577-1.716,9.181,9.181,0,0,0-1.021-.014h-26.687a10.81,10.81,0,0,0-1.135.014,1.646,1.646,0,0,0-1.585,1.706,1.621,1.621,0,0,0,1.574,1.6,7.1,7.1,0,0,0,.907.016h27.029A7.712,7.712,0,0,0,1623.322,1400.614Z" transform="translate(0.993 1.351)" fill="#fff"/>
        <path id="Trazado_126822" data-name="Trazado 126822" d="M1595.052,1348.774q13.12.008,26.24,0c1.4,0,2.226-.633,2.226-1.677s-.809-1.656-2.228-1.657q-6.531-.006-13.063,0-6.588,0-13.176,0c-1.351,0-2.12.585-2.154,1.6C1592.861,1348.106,1593.67,1348.773,1595.052,1348.774Z" transform="translate(0.993 0.454)" fill="#fff"/>
        <path id="Trazado_126823" data-name="Trazado 126823" d="M1594.261,1341.355a6.552,6.552,0,0,0,1.133.045q6.357,0,12.717,0h6.7c2.309,0,4.619.016,6.926-.012a1.667,1.667,0,0,0,1.778-1.631,1.736,1.736,0,0,0-1.656-1.666,3.931,3.931,0,0,0-.454-.01q-13.228,0-26.456.006a2.755,2.755,0,0,0-1,.156,1.517,1.517,0,0,0-1.035,1.67A1.539,1.539,0,0,0,1594.261,1341.355Z" transform="translate(0.993 0.327)" fill="#fff"/>
        <path id="Trazado_126824" data-name="Trazado 126824" d="M1618.355,1404.713a6.76,6.76,0,0,0-1.244-.064q-5.393-.007-10.784,0-4.54,0-9.081,0c-.946,0-1.894-.023-2.836.042a1.5,1.5,0,0,0-1.5,1.527,1.53,1.53,0,0,0,1.322,1.682,4.655,4.655,0,0,0,1.012.082q11.068.006,22.136,0a3.669,3.669,0,0,0,1.225-.157,1.507,1.507,0,0,0,1.067-1.648A1.527,1.527,0,0,0,1618.355,1404.713Z" transform="translate(0.994 1.478)" fill="#fff"/>
      </g>
    </g>
  </g>
</svg>
