<svg xmlns="http://www.w3.org/2000/svg" xmlns:xlink="http://www.w3.org/1999/xlink" width="165" height="130" viewBox="0 0 165 130">
  <defs>
    <clipPath id="clip-path">
      <rect id="Rectángulo_35881" data-name="Rectángulo 35881" width="165" height="130" transform="translate(6438 -9030)" fill="#fff" stroke="#707070" stroke-width="1"/>
    </clipPath>
  </defs>
  <g id="icon1-3" transform="translate(-6438 9030)" clip-path="url(#clip-path)">
    <g id="Grupo_133661" data-name="Grupo 133661" transform="translate(8.479 0.247)">
      <g id="Grupo_78348" data-name="Grupo 78348" transform="translate(6458.521 -9000.901)">
        <path id="Trazado_113319" data-name="Trazado 113319" d="M1572.434,1094v-8.714h-8.783v-6.015h8.783v-8.714h5.855v8.714h8.806v6.015h-8.806V1094Z" transform="translate(-1563.651 -1070.555)" fill="#ffb840"/>
      </g>
      <g id="vImdG7" transform="translate(5139 -10942.553)">
        <g id="Grupo_133660" data-name="Grupo 133660" transform="translate(1322.809 1919.462)">
          <path id="Trazado_126750" data-name="Trazado 126750" d="M1337.416,2032.179a5.8,5.8,0,0,1-3.37-3.819c-3.54-9.551-7.151-19.076-10.735-28.611-1.186-3.152-.283-5.136,2.871-6.325q15.674-5.906,31.349-11.811c2.961-1.115,4.448-.574,6.049,2.258,1.159-.471,2.335-.945,3.506-1.428,2.164-.891,4.354-1.721,6.478-2.7a20.823,20.823,0,0,1,8.811-1.772c4.761-.012,9.525.06,14.286-.047,3.722-.084,6.9.717,8.758,4.434,2.853-2.365,5.608-4.652,8.366-6.935,3.61-2.988,7.172-6.035,10.849-8.938,2.76-2.177,5.882-2.962,9.208-1.327a7.955,7.955,0,0,1,3.616,10.631,12.385,12.385,0,0,1-2,3.133q-12.71,13.728-25.52,27.361a16.634,16.634,0,0,1-11.678,5.022c-1.733.092-3.476.027-5.214.005-1.239-.015-2.006-.682-2.01-1.687s.767-1.65,2-1.711c2.671-.134,5.368-.093,8-.478a11.343,11.343,0,0,0,6.632-3.658q10.384-11.089,20.731-22.216c1.47-1.575,2.966-3.126,4.394-4.739,1.449-1.637,2.506-3.476,1.855-5.768-.943-3.324-4.693-4.415-7.577-2.149-3.208,2.521-6.32,5.162-9.467,7.761-3.583,2.961-7.17,5.916-10.719,8.917a3.364,3.364,0,0,0-.977,1.545,7.73,7.73,0,0,1-6.746,6c-4.482.66-8.958,1.363-13.44,2.023a3.617,3.617,0,0,1-1.561-.043,1.483,1.483,0,0,1-1.043-1.685,1.728,1.728,0,0,1,1.662-1.58c1.566-.25,3.138-.457,4.707-.693,3.136-.472,6.274-.93,9.4-1.432a4.378,4.378,0,0,0,3.827-4.369,4.182,4.182,0,0,0-4.31-3.96q-9.519.018-19.037.226a9.826,9.826,0,0,0-3.276.8c-3.615,1.427-7.194,2.942-10.785,4.427-.17.07-.326.175-.588.317,2.984,7.915,5.958,15.8,8.971,23.8.886-.368,1.685-.676,2.464-1.026a21.784,21.784,0,0,1,7.972-1.971c1.346-.064,2.174.431,2.291,1.466.129,1.132-.548,1.869-1.974,1.908-3.38.094-6.367,1.429-9.418,2.8a5.957,5.957,0,0,0,.076.666,3.736,3.736,0,0,1-2.456,4.706c-3.658,1.419-7.335,2.79-11.007,4.17q-11.123,4.18-22.249,8.352c-.065.025-.112.1-.167.145Zm11.54-43.6a3.859,3.859,0,0,0-.5.092c-7.1,2.671-14.187,5.359-21.291,8.006-1.048.391-1.02.974-.687,1.852q5.5,14.554,10.974,29.122c.454,1.207.64,1.271,1.96.774q10.168-3.828,20.333-7.66c.373-.141.729-.324,1.149-.512C1356.9,2009.65,1352.935,1999.14,1348.956,1988.582Zm15.145,30.541c2.353-.89,4.519-1.76,6.724-2.519.929-.321,1.132-.682.768-1.629-2.311-6.015-4.564-12.052-6.837-18.082q-2.172-5.766-4.342-11.531c-.194-.517-.354-1.058-1.088-.783-2.389.9-4.777,1.8-7.215,2.724C1356.121,1997.945,1360.09,2008.477,1364.1,2019.123Z" transform="translate(-1322.809 -1916.064)" fill="#fff"/>
          <path id="Trazado_126751" data-name="Trazado 126751" d="M1385.64,1947.841c1.4,3.324.734,5.945-1.905,7.971a26.341,26.341,0,0,1,2.917,1.288,6.3,6.3,0,0,1,3.247,5.722c.009,1.7,0,3.394,0,5.181h16.3c0-1.368-.009-2.68,0-3.992.013-1.437.627-2.219,1.706-2.2s1.674.813,1.691,2.25c.014,1.1.008,2.191,0,3.288-.017,2.824-1.344,4.148-4.187,4.149q-25.79.005-51.582,0c-.642,0-1.285.014-1.927-.014a3.465,3.465,0,0,1-3.486-3.452c-.038-5.9-.171-11.8.058-17.683.165-4.215,2.772-7.055,6.364-9.01a13.557,13.557,0,0,1,6.505-1.723c3.88-.008,7.789-.44,11.616.555a13.014,13.014,0,0,1,6.8,4.253,4.232,4.232,0,0,0,4.188.658,13.425,13.425,0,0,1,7.314-2.043c2.53-.011,5.066-.031,7.591.114,4.762.273,9.267,3.742,10.349,8.017a17.836,17.836,0,0,1,.355,4.265,1.616,1.616,0,0,1-1.776,1.764,1.644,1.644,0,0,1-1.577-1.843c-.018-1.7.011-3.407-.954-4.924a7.8,7.8,0,0,0-6.148-3.792,89.32,89.32,0,0,0-10.391.135A11.957,11.957,0,0,0,1385.64,1947.841Zm-8.729-1.515a8.65,8.65,0,0,0-5.279-2.94,85.165,85.165,0,0,0-8.916-.393,16.454,16.454,0,0,0-4.241.551c-3.707.978-6.863,3.943-6.715,8.622.154,4.868.034,9.743.034,14.617v1.235h19.525c0-1.845-.017-3.614,0-5.382a6.167,6.167,0,0,1,3.007-5.394,24.394,24.394,0,0,1,3.09-1.425C1374.094,1952.4,1373.915,1949.75,1376.911,1946.326Zm9.454,21.7c.057-.132.11-.2.11-.266.012-1.549.024-3.1.021-4.646,0-2-.9-3.389-2.841-3.622a28.507,28.507,0,0,0-6.184.012,2.811,2.811,0,0,0-2.642,2.455c-.186,2.007-.047,4.044-.047,6.067Zm-5.715-19.516a2.391,2.391,0,0,0-2.434,2.322,2.385,2.385,0,1,0,4.77.093A2.376,2.376,0,0,0,1380.65,1948.511Z" transform="translate(-1320.874 -1917.942)" fill="#fff"/>
          <path id="Trazado_126752" data-name="Trazado 126752" d="M1354.9,1929.463a9.963,9.963,0,1,1,9.946,9.946A10.016,10.016,0,0,1,1354.9,1929.463Zm3.4,0a6.569,6.569,0,0,0,6.576,6.54,6.572,6.572,0,1,0-6.576-6.54Z" transform="translate(-1320.377 -1919.462)" fill="#fff"/>
          <path id="Trazado_126753" data-name="Trazado 126753" d="M1391.635,1942.9a9.081,9.081,0,1,1,9.085-9.051A9.108,9.108,0,0,1,1391.635,1942.9Zm-.033-3.4a5.634,5.634,0,0,0,5.717-5.615,5.679,5.679,0,1,0-5.717,5.615Z" transform="translate(-1318.28 -1919.061)" fill="#fff"/>
        </g>
      </g>
    </g>
  </g>
</svg>
