<svg xmlns="http://www.w3.org/2000/svg" xmlns:xlink="http://www.w3.org/1999/xlink" width="165" height="130" viewBox="0 0 165 130">
  <defs>
    <clipPath id="clip-path">
      <rect id="Rectángulo_35888" data-name="Rectángulo 35888" width="165" height="130" transform="translate(8574 -9028)" fill="#fff" stroke="#707070" stroke-width="1"/>
    </clipPath>
  </defs>
  <g id="icon2-3" transform="translate(-8574 9028)" clip-path="url(#clip-path)">
    <g id="Grupo_133675" data-name="Grupo 133675" transform="translate(-4.521 -10.098)">
      <g id="Grupo_78348" data-name="Grupo 78348" transform="translate(8600.521 -9000.901)">
        <path id="Trazado_113319" data-name="Trazado 113319" d="M1572.434,1085.285h-8.783v-6.015H1587.1v6.015h-14.661Z" transform="translate(-1570.651 -1070.555)" fill="#5bd3a9"/>
      </g>
      <g id="nPmDLe" transform="translate(6828.002 -10328.807)">
        <g id="Grupo_133674" data-name="Grupo 133674" transform="translate(1801.421 1316.277)">
          <path id="Trazado_126799" data-name="Trazado 126799" d="M1822.558,1438.021a11.455,11.455,0,0,1-6.346-3.416,10.808,10.808,0,0,1-2.608-7.319c0-.356-.013-.713-.03-1.068a.7.7,0,0,0-.079-.212,30.309,30.309,0,0,1-4.322-.521c-4.916-1.295-7.74-5.167-7.745-10.47q-.017-19.017,0-38.033,0-24.9,0-49.8c0-4.409,1.724-7.907,5.811-9.8a12.421,12.421,0,0,1,5.042-1.05q31.794-.1,63.588-.042c6.378,0,10.639,4.191,10.8,10.582.013.47,0,.941,0,1.419a31.913,31.913,0,0,1,4.4.519c4.9,1.27,7.764,5.168,7.773,10.452q.023,12.479,0,24.96,0,31.436,0,62.874c0,4.463-1.79,7.9-5.873,9.915a21.847,21.847,0,0,1-3.135,1.016Zm51.916-117.623c0,1.607,0,3.106,0,4.607q0,4.694-.007,9.389a1.954,1.954,0,0,1-1.231,1.987,2.025,2.025,0,0,1-2.295-.5c-.341-.329-.679-.665-1.012-1-1.156-1.176-2.309-2.354-3.58-3.651-1.488,1.529-2.853,2.9-4.183,4.309a2.285,2.285,0,0,1-2.634.854,2.262,2.262,0,0,1-1.3-2.44c.019-3.645.007-7.289.007-10.935v-2.687h-1.171q-22.4,0-44.81,0c-4.285,0-6.77,2.5-6.771,6.818q-.008,43.918,0,87.838c0,4.306,2.491,6.81,6.782,6.811q31.794.013,63.589,0c4.241,0,6.738-2.464,6.74-6.718q.023-44.037-.023-88.075a7.808,7.808,0,0,0-.761-3.417C1880.324,1320.663,1877.64,1320.109,1874.474,1320.4Zm12.2,12.248v1.709q0,40.122,0,80.244a11.764,11.764,0,0,1-1.031,5.429c-2.06,4.076-5.489,5.839-9.944,5.839h-57.855c-.965,4.592,1.9,8.1,6.559,8.1q31.8.01,63.6,0c4.294,0,6.784-2.491,6.785-6.805q.008-43.928,0-87.853C1894.788,1334.6,1891.546,1331.883,1886.676,1332.646Zm-16.369-2.971v-9.238h-7.928v8.9l.246.162c.661-.718,1.3-1.464,1.991-2.15,1.233-1.217,2.256-1.226,3.489-.029C1868.8,1328,1869.431,1328.734,1870.307,1329.675Z" transform="translate(-1801.421 -1316.277)" fill="#fff"/>
          <path id="Trazado_126800" data-name="Trazado 126800" d="M1833.309,1361.673l2.358-2.659,2.829,3.039c-1.362,1.367-2.859,2.929-4.431,4.414a2.546,2.546,0,0,0-.841,2.081c.046,3.091.023,6.182.017,9.273,0,2.182-.677,2.883-2.813,2.888q-7.371.016-14.741,0c-2.079-.005-2.759-.7-2.763-2.812q-.016-7.371,0-14.742c.006-2.064.724-2.758,2.818-2.761,4.914-.008,9.828-.042,14.741.033a10.78,10.78,0,0,1,2.682.753Zm-4.181,10.087-.286-.17c-.732.771-1.436,1.571-2.2,2.306-.8.76-1.811,1.083-2.665.272-1.448-1.375-2.75-2.9-3.958-4.2l2.583-2.883,2.449,2.744c1.375-1.4,2.648-2.637,3.841-3.948.26-.285.238-.825.374-1.353h-12.186v12.021h12.054Z" transform="translate(-1800.737 -1313.735)" fill="#fff"/>
          <path id="Trazado_126801" data-name="Trazado 126801" d="M1833.133,1335.008l2.633-2.841,2.746,3.065c-1.378,1.377-2.887,2.933-4.455,4.426a2.424,2.424,0,0,0-.834,1.959c.046,3.167.026,6.334.015,9.5-.007,2.084-.691,2.751-2.8,2.752q-7.422.006-14.844,0c-1.944,0-2.664-.694-2.671-2.635q-.025-7.48,0-14.962c.006-1.965.7-2.651,2.647-2.653,4.949-.008,9.9.009,14.844-.013A2.537,2.537,0,0,1,1833.133,1335.008Zm-4.006,9.956-.307-.213c-.724.777-1.412,1.591-2.178,2.325a1.928,1.928,0,0,1-2.775.23c-1.431-1.34-2.748-2.8-4.008-4.106l2.842-2.968,2.395,2.718c1.3-1.311,2.523-2.489,3.662-3.745a4.374,4.374,0,0,0,.523-1.456h-12.207v11.986h12.053Z" transform="translate(-1800.737 -1315.332)" fill="#fff"/>
          <path id="Trazado_126802" data-name="Trazado 126802" d="M1812.92,1395.4c0-2.5-.015-4.992,0-7.489.015-1.99.745-2.7,2.752-2.706q7.429-.013,14.856,0c1.97,0,2.7.752,2.7,2.759q.014,7.428,0,14.856c0,1.94-.722,2.685-2.637,2.692q-7.547.028-15.095,0c-1.85-.009-2.562-.75-2.58-2.624C1812.9,1400.394,1812.92,1397.9,1812.92,1395.4Zm4.146-6.074v11.981a1.781,1.781,0,0,0,.407.119c3.643.01,7.286,0,10.93.029.771.006.786-.434.784-1-.009-3.446,0-6.891-.011-10.336a5.092,5.092,0,0,0-.125-.795Z" transform="translate(-1800.737 -1312.177)" fill="#fff"/>
          <path id="Trazado_126803" data-name="Trazado 126803" d="M1859.954,1371.9v3.907h-20.137V1371.9Z" transform="translate(-1799.137 -1312.969)" fill="#fff"/>
          <path id="Trazado_126804" data-name="Trazado 126804" d="M1839.8,1348.98v-3.9h20.123v3.9Z" transform="translate(-1799.138 -1314.564)" fill="#fff"/>
          <path id="Trazado_126805" data-name="Trazado 126805" d="M1839.819,1400.676v-3.908h20.13v3.908Z" transform="translate(-1799.137 -1311.489)" fill="#fff"/>
          <path id="Trazado_126806" data-name="Trazado 126806" d="M1839.822,1337.412h12v3.925h-12Z" transform="translate(-1799.136 -1315.02)" fill="#fff"/>
          <path id="Trazado_126807" data-name="Trazado 126807" d="M1851.81,1368.143h-11.984v-3.9h11.984Z" transform="translate(-1799.136 -1313.424)" fill="#fff"/>
          <path id="Trazado_126808" data-name="Trazado 126808" d="M1839.807,1392.994v-3.883h12.029v3.883Z" transform="translate(-1799.137 -1311.945)" fill="#fff"/>
          <path id="Trazado_126809" data-name="Trazado 126809" d="M1855.142,1389.075H1859v3.943h-3.855Z" transform="translate(-1798.225 -1311.947)" fill="#fff"/>
        </g>
      </g>
    </g>
  </g>
</svg>
