<svg xmlns="http://www.w3.org/2000/svg" xmlns:xlink="http://www.w3.org/1999/xlink" width="165" height="130" viewBox="0 0 165 130">
  <defs>
    <clipPath id="clip-path">
      <rect id="Rectángulo_35880" data-name="Rectángulo 35880" width="165" height="130" transform="translate(6438 -9426)" fill="#fff" stroke="#707070" stroke-width="1"/>
    </clipPath>
  </defs>
  <g id="icon1-2" transform="translate(-6438 9426)" clip-path="url(#clip-path)">
    <g id="Grupo_133659" data-name="Grupo 133659" transform="translate(8.479 -0.099)">
      <g id="Grupo_78348" data-name="Grupo 78348" transform="translate(6458.521 -9409.901)">
        <path id="Trazado_113319" data-name="Trazado 113319" d="M1572.434,1094v-8.714h-8.783v-6.015h8.783v-8.714h5.855v8.714h8.806v6.015h-8.806V1094Z" transform="translate(-1563.651 -1070.555)" fill="#ffb840"/>
      </g>
      <g id="eFZj6C" transform="translate(4081.714 -11730.456)">
        <g id="Grupo_133658" data-name="Grupo 133658" transform="translate(2376.807 2312.141)">
          <path id="Trazado_126742" data-name="Trazado 126742" d="M2376.807,2376.823c.79-2.154,1.279-4.487,2.43-6.425a14.456,14.456,0,0,1,12.574-7.424c7.7-.2,15.414-.072,23.122-.061a2.288,2.288,0,0,1,2.49,2.2c.026,1.336-1.028,2.273-2.642,2.277q-10.72.016-21.439,0c-7.244,0-12.043,4.775-12.044,11.986q0,16.557,0,33.113c0,7.086,4.819,11.917,11.882,11.922,4.453,0,8.9.015,13.358-.009a3.252,3.252,0,0,1,2.6,1.219c1.664,1.807,3.491,3.464,5.385,5.312,0-1.31-.009-2.52,0-3.73.017-1.968.836-2.786,2.826-2.788q11.5-.01,23.011,0c7.011,0,11.866-4.837,11.872-11.82q.007-7.015,0-14.031a6.283,6.283,0,0,1,.1-1.337,2.187,2.187,0,0,1,4.28-.037,4.8,4.8,0,0,1,.105,1.111c.006,4.938.037,9.878,0,14.816a15.605,15.605,0,0,1-12.416,15.4,18.461,18.461,0,0,1-3.894.373c-7.07.034-14.141.016-21.4.016v3.008c0,1.272-.061,2.547.016,3.815a2.929,2.929,0,0,1-1.588,3.055h-1.346c-.749-.662-1.528-1.292-2.239-1.993-2.419-2.386-4.793-4.819-7.239-7.177a2.629,2.629,0,0,0-1.629-.678c-4.368-.061-8.743.091-13.106-.084a14.7,14.7,0,0,1-12.651-7.451c-1.15-1.935-1.635-4.264-2.423-6.414Z" transform="translate(-2376.807 -2323.814)" fill="#fff"/>
          <path id="Trazado_126743" data-name="Trazado 126743" d="M2469.2,2312.194a35.52,35.52,0,0,1,13.986,1.895c10.791,4.1,17.94,11.68,20.671,22.9,3.01,12.359-.417,23.052-9.619,31.828a4.008,4.008,0,0,0-1.491,3.327c.108,3.476.021,6.958.043,10.437a2.35,2.35,0,0,1-4.254,1.768c-2.4-2.413-4.827-4.8-7.213-7.23a1.682,1.682,0,0,0-1.738-.557,49.261,49.261,0,0,1-21.789-.413,32.54,32.54,0,0,1-23.648-34.344,31.827,31.827,0,0,1,12.286-22.6A32.725,32.725,0,0,1,2469.2,2312.194Zm19.092,65.584c0-2.674.1-5.025-.031-7.365a4.264,4.264,0,0,1,1.828-3.924,25.89,25.89,0,0,0,8.691-12.275c2.938-8.741,2.03-17.14-3.063-24.878a27.049,27.049,0,0,0-18.9-12.246,46.725,46.725,0,0,0-13.64-.129,28.266,28.266,0,0,0-8.145,2.28c-9.115,4.234-14.7,11.407-16.178,21.381-1.566,10.579,2.063,19.36,10.269,26.152a26.337,26.337,0,0,0,16.179,6.076c4.934.186,9.879.409,14.7-1.011a3,3,0,0,1,3.325.925C2484.874,2374.387,2486.48,2375.951,2488.3,2377.778Z" transform="translate(-2389.968 -2312.14)" fill="#fff"/>
          <path id="Trazado_126744" data-name="Trazado 126744" d="M2418.6,2402.573h22.672a7.629,7.629,0,0,1,1.119.04,2.215,2.215,0,0,1,0,4.41,7.7,7.7,0,0,1-1.119.039q-22.784,0-45.568,0h-.224c-1.821-.01-2.9-.848-2.9-2.245s1.082-2.243,2.9-2.244Q2407.041,2402.57,2418.6,2402.573Z" transform="translate(-2380.437 -2332.953)" fill="#fff"/>
          <path id="Trazado_126745" data-name="Trazado 126745" d="M2414.226,2418.9q9.144,0,18.286.008a5.532,5.532,0,0,1,1.547.174,2.178,2.178,0,0,1-.025,4.135,5.6,5.6,0,0,1-1.548.167q-18.4.013-36.8.006c-.113,0-.224,0-.336,0-1.716-.019-2.785-.89-2.775-2.258s1.076-2.227,2.8-2.229Q2404.8,2418.9,2414.226,2418.9Z" transform="translate(-2380.437 -2336.711)" fill="#fff"/>
          <path id="Trazado_126746" data-name="Trazado 126746" d="M2411.228,2386.243q7.8,0,15.6.005a5.387,5.387,0,0,1,1.331.128,2.148,2.148,0,0,1,1.638,2.148,2.113,2.113,0,0,1-1.6,2.064,4.911,4.911,0,0,1-1.329.14q-15.657.011-31.313,0a5.9,5.9,0,0,1-1.116-.066,2.2,2.2,0,0,1-.038-4.341,6.348,6.348,0,0,1,1.228-.077Q2403.428,2386.239,2411.228,2386.243Z" transform="translate(-2380.436 -2329.195)" fill="#fff"/>
          <path id="Trazado_126747" data-name="Trazado 126747" d="M2456.3,2418.928a2.226,2.226,0,1,1-2.2,2.256A2.315,2.315,0,0,1,2456.3,2418.928Z" transform="translate(-2394.597 -2336.717)" fill="#fff"/>
          <path id="Trazado_126748" data-name="Trazado 126748" d="M2475.821,2353.68c0-.861-.022-1.722,0-2.581a4.115,4.115,0,0,1,2.925-3.952c.352-.124.71-.229,1.06-.36a4.983,4.983,0,0,0,3.157-5.568,5.048,5.048,0,0,0-5.041-4.1,4.957,4.957,0,0,0-4.815,4.326c-.293,2.146-1.128,3.04-2.658,2.845-1.4-.177-1.962-1.21-1.8-3.284a9.43,9.43,0,0,1,16.365-5.285,9.4,9.4,0,0,1-3.932,15.344.983.983,0,0,0-.8,1.11c.048,1.42.061,2.844-.006,4.262a2.239,2.239,0,1,1-4.465-.065c-.014-.335,0-.673,0-1.009v-1.683Z" transform="translate(-2397.938 -2316.86)" fill="#fff"/>
          <path id="Trazado_126749" data-name="Trazado 126749" d="M2482.424,2374.543a2.256,2.256,0,0,1-2.178,2.251,2.2,2.2,0,0,1-2.263-2.147,2.235,2.235,0,0,1,2.16-2.272A2.291,2.291,0,0,1,2482.424,2374.543Z" transform="translate(-2400.092 -2326.003)" fill="#fff"/>
        </g>
      </g>
    </g>
  </g>
</svg>
