<svg xmlns="http://www.w3.org/2000/svg" width="567" height="528" viewBox="0 0 567 528">
  <g id="img1" transform="translate(-726 -431.5)">
    <g id="Grupo_130953" data-name="Grupo 130953" transform="translate(210.668 -31.5)">
      <circle id="Elipse_4791" data-name="Elipse 4791" cx="82" cy="82" r="82" transform="translate(718.332 485)" fill="#d2f3e8"/>
      <circle id="Elipse_4792" data-name="Elipse 4792" cx="82" cy="82" r="82" transform="translate(918.332 604)" fill="#d2f3e8"/>
      <circle id="Elipse_4793" data-name="Elipse 4793" cx="82" cy="82" r="82" transform="translate(515.332 623)" fill="#d2f3e8"/>
      <circle id="Elipse_4794" data-name="Elipse 4794" cx="82" cy="82" r="82" transform="translate(601.332 827)" fill="#d2f3e8"/>
      <circle id="Elipse_4795" data-name="Elipse 4795" cx="82" cy="82" r="82" transform="translate(830.332 827)" fill="#d2f3e8"/>
      <path id="Trazado_127021" data-name="Trazado 127021" d="M24.043,12.547V17h-1.5V5.625h4.2a4.215,4.215,0,0,1,2.926.953A3.231,3.231,0,0,1,30.723,9.1a3.189,3.189,0,0,1-1.035,2.551,4.4,4.4,0,0,1-2.965.895Zm0-1.227h2.7a2.7,2.7,0,0,0,1.844-.567,2.075,2.075,0,0,0,.641-1.64,2.143,2.143,0,0,0-.641-1.628,2.525,2.525,0,0,0-1.758-.634H24.043Zm11.875,5.836a3.693,3.693,0,0,1-2.8-1.129,4.19,4.19,0,0,1-1.078-3.02v-.266a5.073,5.073,0,0,1,.48-2.246,3.748,3.748,0,0,1,1.344-1.547,3.378,3.378,0,0,1,1.871-.559A3.166,3.166,0,0,1,38.3,9.477a4.7,4.7,0,0,1,.914,3.109v.6H33.488a3,3,0,0,0,.73,2.02,2.3,2.3,0,0,0,1.777.77,2.517,2.517,0,0,0,1.3-.312,3.259,3.259,0,0,0,.93-.828l.883.688A3.55,3.55,0,0,1,35.918,17.156Zm-.18-7.578a1.928,1.928,0,0,0-1.469.637A3.1,3.1,0,0,0,33.535,12H37.77v-.109a2.753,2.753,0,0,0-.594-1.707A1.815,1.815,0,0,0,35.738,9.578Zm9.234.266a4.331,4.331,0,0,0-.711-.055A1.9,1.9,0,0,0,42.332,11v6H40.887V8.547h1.406l.023.977a2.251,2.251,0,0,1,2.016-1.133,1.477,1.477,0,0,1,.641.109Zm2.688-1.3.039.938a3.122,3.122,0,0,1,2.508-1.094A2.417,2.417,0,0,1,52.621,9.75a3.2,3.2,0,0,1,1.1-.984,3.242,3.242,0,0,1,1.6-.375q2.781,0,2.828,2.945V17H56.7V11.422a1.941,1.941,0,0,0-.414-1.355,1.823,1.823,0,0,0-1.391-.449,1.917,1.917,0,0,0-1.336.48,1.949,1.949,0,0,0-.617,1.293V17H51.488V11.461a1.613,1.613,0,0,0-1.8-1.844,1.934,1.934,0,0,0-1.945,1.211V17H46.293V8.547ZM61.895,17H60.449V8.547h1.445ZM60.332,6.3a.863.863,0,0,1,.215-.594.807.807,0,0,1,.637-.242.819.819,0,0,1,.641.242.854.854,0,0,1,.219.594.826.826,0,0,1-.219.586.834.834,0,0,1-.641.234.821.821,0,0,1-.637-.234A.834.834,0,0,1,60.332,6.3Zm5.836.2V8.547h1.578V9.664H66.168v5.249a1.173,1.173,0,0,0,.211.763.888.888,0,0,0,.719.254,3.5,3.5,0,0,0,.688-.094V17a4.215,4.215,0,0,1-1.109.155,1.8,1.8,0,0,1-1.461-.586,2.517,2.517,0,0,1-.492-1.664V9.664H63.184V8.547h1.539V6.5ZM71,17H69.559V8.547H71ZM69.441,6.3a.863.863,0,0,1,.215-.594.807.807,0,0,1,.637-.242.819.819,0,0,1,.641.242.854.854,0,0,1,.219.594.826.826,0,0,1-.219.586.834.834,0,0,1-.641.234.821.821,0,0,1-.637-.234A.834.834,0,0,1,69.441,6.3ZM77.4,9.844a4.331,4.331,0,0,0-.711-.055A1.9,1.9,0,0,0,74.762,11v6H73.316V8.547h1.406l.023.977a2.251,2.251,0,0,1,2.016-1.133A1.477,1.477,0,0,1,77.4,8.5ZM84.262,17H82.816V5h1.445Zm7.531,0a3.036,3.036,0,0,1-.2-.891,3.225,3.225,0,0,1-2.406,1.047,2.984,2.984,0,0,1-2.051-.707,2.288,2.288,0,0,1-.8-1.793,2.39,2.39,0,0,1,1-2.051,4.733,4.733,0,0,1,2.824-.73h1.406v-.664A1.623,1.623,0,0,0,91.113,10a1.821,1.821,0,0,0-1.336-.449,2.108,2.108,0,0,0-1.3.391,1.151,1.151,0,0,0-.523.945H86.5a2,2,0,0,1,.449-1.223,3.066,3.066,0,0,1,1.219-.934,4.1,4.1,0,0,1,1.691-.344,3.342,3.342,0,0,1,2.289.73,2.635,2.635,0,0,1,.859,2.012v3.891a4.757,4.757,0,0,0,.3,1.852V17Zm-2.4-1.1a2.54,2.54,0,0,0,1.289-.352,2.127,2.127,0,0,0,.883-.914V12.9H90.434q-2.656,0-2.656,1.555a1.316,1.316,0,0,0,.453,1.063A1.742,1.742,0,0,0,89.395,15.9ZM100.809,17H99.363V5h1.445Zm3.883,0h-1.445V8.547h1.445ZM103.129,6.3a.863.863,0,0,1,.215-.594.807.807,0,0,1,.637-.242.819.819,0,0,1,.641.242.854.854,0,0,1,.219.594.826.826,0,0,1-.219.586.834.834,0,0,1-.641.234.821.821,0,0,1-.637-.234A.834.834,0,0,1,103.129,6.3Zm11.031,6.563a5.026,5.026,0,0,1-.891,3.113,2.846,2.846,0,0,1-2.391,1.176,2.947,2.947,0,0,1-2.477-1.133l-.07.977H107V5h1.445V9.477a2.93,2.93,0,0,1,2.414-1.086,2.863,2.863,0,0,1,2.418,1.164,5.177,5.177,0,0,1,.879,3.188Zm-1.445-.164a3.906,3.906,0,0,0-.57-2.281,1.888,1.888,0,0,0-1.641-.8,2.122,2.122,0,0,0-2.055,1.328V14.6a2.181,2.181,0,0,0,2.07,1.328,1.878,1.878,0,0,0,1.617-.8A4.153,4.153,0,0,0,112.715,12.7Zm7.352-2.859a4.331,4.331,0,0,0-.711-.055A1.9,1.9,0,0,0,117.426,11v6H115.98V8.547h1.406l.023.977a2.251,2.251,0,0,1,2.016-1.133,1.477,1.477,0,0,1,.641.109Zm4.836,7.313a3.693,3.693,0,0,1-2.8-1.129,4.19,4.19,0,0,1-1.078-3.02v-.266a5.073,5.073,0,0,1,.48-2.246,3.748,3.748,0,0,1,1.344-1.547,3.378,3.378,0,0,1,1.871-.559,3.166,3.166,0,0,1,2.563,1.086,4.7,4.7,0,0,1,.914,3.109v.6h-5.727a3,3,0,0,0,.73,2.02,2.3,2.3,0,0,0,1.777.77,2.517,2.517,0,0,0,1.3-.312,3.259,3.259,0,0,0,.93-.828l.883.688A3.55,3.55,0,0,1,124.9,17.156Zm-.18-7.578a1.928,1.928,0,0,0-1.469.637A3.1,3.1,0,0,0,122.52,12h4.234v-.109a2.753,2.753,0,0,0-.594-1.707A1.815,1.815,0,0,0,124.723,9.578Zm-79.8,31.578a3.693,3.693,0,0,1-2.8-1.129,4.19,4.19,0,0,1-1.078-3.02v-.266a5.073,5.073,0,0,1,.48-2.246,3.748,3.748,0,0,1,1.344-1.547,3.378,3.378,0,0,1,1.871-.559A3.166,3.166,0,0,1,47.3,33.477a4.7,4.7,0,0,1,.914,3.109v.6H42.492a3,3,0,0,0,.73,2.02,2.3,2.3,0,0,0,1.777.77,2.517,2.517,0,0,0,1.3-.312,3.258,3.258,0,0,0,.93-.828l.883.688A3.55,3.55,0,0,1,44.922,41.156Zm-.18-7.578a1.928,1.928,0,0,0-1.469.637A3.1,3.1,0,0,0,42.539,36h4.234v-.109a2.753,2.753,0,0,0-.594-1.707A1.815,1.815,0,0,0,44.742,33.578Zm7.984,2.055L54.6,32.547h1.688l-2.766,4.18L56.375,41H54.7L52.75,37.836,50.8,41h-1.68l2.852-4.273L49.2,32.547h1.672Zm12.234,1.234a5.062,5.062,0,0,1-.883,3.109,2.829,2.829,0,0,1-2.391,1.18,3.1,3.1,0,0,1-2.422-.977v4.07H57.82v-11.7h1.32l.07.938a2.977,2.977,0,0,1,2.453-1.094,2.882,2.882,0,0,1,2.41,1.148,5.117,5.117,0,0,1,.887,3.2ZM63.516,36.7a3.735,3.735,0,0,0-.609-2.258,1.963,1.963,0,0,0-1.672-.828,2.125,2.125,0,0,0-1.969,1.164V38.82a2.129,2.129,0,0,0,1.984,1.156,1.954,1.954,0,0,0,1.652-.824A4.077,4.077,0,0,0,63.516,36.7Zm7.367-2.859a4.331,4.331,0,0,0-.711-.055A1.9,1.9,0,0,0,68.242,35v6H66.8V32.547H68.2l.023.977a2.251,2.251,0,0,1,2.016-1.133,1.477,1.477,0,0,1,.641.109Zm4.836,7.313a3.693,3.693,0,0,1-2.8-1.129,4.19,4.19,0,0,1-1.078-3.02v-.266a5.073,5.073,0,0,1,.48-2.246,3.748,3.748,0,0,1,1.344-1.547,3.378,3.378,0,0,1,1.871-.559A3.166,3.166,0,0,1,78.1,33.477a4.7,4.7,0,0,1,.914,3.109v.6H73.289a3,3,0,0,0,.73,2.02,2.3,2.3,0,0,0,1.777.77,2.517,2.517,0,0,0,1.3-.312,3.259,3.259,0,0,0,.93-.828l.883.688A3.55,3.55,0,0,1,75.719,41.156Zm-.18-7.578a1.928,1.928,0,0,0-1.469.637A3.1,3.1,0,0,0,73.336,36H77.57v-.109a2.753,2.753,0,0,0-.594-1.707A1.815,1.815,0,0,0,75.539,33.578Zm10.07,5.18a1.064,1.064,0,0,0-.441-.91,4.249,4.249,0,0,0-1.539-.559,7.277,7.277,0,0,1-1.742-.562,2.479,2.479,0,0,1-.953-.781,1.869,1.869,0,0,1-.309-1.078,2.193,2.193,0,0,1,.879-1.758,3.432,3.432,0,0,1,2.246-.719,3.532,3.532,0,0,1,2.332.742,2.357,2.357,0,0,1,.895,1.9H85.523a1.3,1.3,0,0,0-.5-1.023,1.888,1.888,0,0,0-1.27-.43,1.976,1.976,0,0,0-1.234.344,1.082,1.082,0,0,0-.445.9.877.877,0,0,0,.414.789,5.1,5.1,0,0,0,1.5.508,7.8,7.8,0,0,1,1.754.578,2.558,2.558,0,0,1,1,.809,1.988,1.988,0,0,1,.324,1.152,2.163,2.163,0,0,1-.906,1.816,3.8,3.8,0,0,1-2.352.684A4.257,4.257,0,0,1,82,40.8a2.922,2.922,0,0,1-1.223-1,2.42,2.42,0,0,1-.441-1.395h1.445a1.5,1.5,0,0,0,.582,1.152,2.258,2.258,0,0,0,1.434.426,2.331,2.331,0,0,0,1.316-.332A1.02,1.02,0,0,0,85.609,38.758ZM90.508,41H89.063V32.547h1.445ZM88.945,30.3a.863.863,0,0,1,.215-.594.807.807,0,0,1,.637-.242.819.819,0,0,1,.641.242.854.854,0,0,1,.219.594.826.826,0,0,1-.219.586.834.834,0,0,1-.641.234.821.821,0,0,1-.637-.234A.834.834,0,0,1,88.945,30.3ZM92.438,36.7a4.993,4.993,0,0,1,.488-2.234,3.643,3.643,0,0,1,1.359-1.531,3.7,3.7,0,0,1,1.988-.539,3.565,3.565,0,0,1,2.793,1.2,4.6,4.6,0,0,1,1.066,3.18v.1a5.036,5.036,0,0,1-.473,2.215,3.589,3.589,0,0,1-1.352,1.527,3.743,3.743,0,0,1-2.02.547,3.556,3.556,0,0,1-2.785-1.2A4.575,4.575,0,0,1,92.438,36.8Zm1.453.172a3.616,3.616,0,0,0,.652,2.258,2.211,2.211,0,0,0,3.5-.012,3.955,3.955,0,0,0,.648-2.418,3.61,3.61,0,0,0-.66-2.254,2.1,2.1,0,0,0-1.754-.863,2.075,2.075,0,0,0-1.727.852A3.925,3.925,0,0,0,93.891,36.867ZM96.93,29h1.75l-2.094,2.3-1.164,0Zm6.383,3.547.047,1.063a3.08,3.08,0,0,1,2.531-1.219q2.68,0,2.7,3.023V41h-1.445V35.406a1.946,1.946,0,0,0-.418-1.352,1.675,1.675,0,0,0-1.277-.437,2.086,2.086,0,0,0-1.234.375,2.546,2.546,0,0,0-.828.984V41h-1.445V32.547Z" transform="translate(725.332 561)" fill="#12263f"/>
      <path id="Trazado_127022" data-name="Trazado 127022" d="M37.285,15.773h5.391V17h-6.9V5.625h1.508ZM49.379,17a3.036,3.036,0,0,1-.2-.891,3.225,3.225,0,0,1-2.406,1.047,2.984,2.984,0,0,1-2.051-.707,2.287,2.287,0,0,1-.8-1.793,2.39,2.39,0,0,1,1-2.051,4.733,4.733,0,0,1,2.824-.73h1.406v-.664A1.623,1.623,0,0,0,48.7,10a1.821,1.821,0,0,0-1.336-.449,2.107,2.107,0,0,0-1.3.391,1.151,1.151,0,0,0-.523.945H44.09a2,2,0,0,1,.449-1.223,3.066,3.066,0,0,1,1.219-.934,4.1,4.1,0,0,1,1.691-.344,3.342,3.342,0,0,1,2.289.73,2.635,2.635,0,0,1,.859,2.012v3.891a4.757,4.757,0,0,0,.3,1.852V17Zm-2.4-1.1a2.54,2.54,0,0,0,1.289-.352,2.127,2.127,0,0,0,.883-.914V12.9H48.02q-2.656,0-2.656,1.555a1.316,1.316,0,0,0,.453,1.063A1.742,1.742,0,0,0,46.98,15.9Zm13.352,1.258a3.693,3.693,0,0,1-2.8-1.129,4.19,4.19,0,0,1-1.078-3.02v-.266a5.073,5.073,0,0,1,.48-2.246,3.748,3.748,0,0,1,1.344-1.547,3.378,3.378,0,0,1,1.871-.559,3.166,3.166,0,0,1,2.563,1.086,4.7,4.7,0,0,1,.914,3.109v.6H57.9a3,3,0,0,0,.73,2.02,2.3,2.3,0,0,0,1.777.77,2.517,2.517,0,0,0,1.3-.312,3.259,3.259,0,0,0,.93-.828l.883.688A3.55,3.55,0,0,1,60.332,17.156Zm-.18-7.578a1.928,1.928,0,0,0-1.469.637A3.1,3.1,0,0,0,57.949,12h4.234v-.109a2.753,2.753,0,0,0-.594-1.707A1.815,1.815,0,0,0,60.152,9.578Zm10.07,5.18a1.064,1.064,0,0,0-.441-.91,4.249,4.249,0,0,0-1.539-.559,7.277,7.277,0,0,1-1.742-.562,2.479,2.479,0,0,1-.953-.781,1.869,1.869,0,0,1-.309-1.078,2.193,2.193,0,0,1,.879-1.758,3.432,3.432,0,0,1,2.246-.719,3.532,3.532,0,0,1,2.332.742,2.357,2.357,0,0,1,.895,1.9H70.137a1.3,1.3,0,0,0-.5-1.023,1.888,1.888,0,0,0-1.27-.43,1.976,1.976,0,0,0-1.234.344,1.082,1.082,0,0,0-.445.9.877.877,0,0,0,.414.789,5.1,5.1,0,0,0,1.5.508,7.8,7.8,0,0,1,1.754.578,2.558,2.558,0,0,1,1,.809,1.988,1.988,0,0,1,.324,1.152,2.163,2.163,0,0,1-.906,1.816,3.8,3.8,0,0,1-2.352.684,4.257,4.257,0,0,1-1.8-.359,2.922,2.922,0,0,1-1.223-1,2.42,2.42,0,0,1-.441-1.395h1.445a1.5,1.5,0,0,0,.582,1.152,2.258,2.258,0,0,0,1.434.426,2.331,2.331,0,0,0,1.316-.332A1.02,1.02,0,0,0,70.223,14.758Zm6.719,1.219a2.082,2.082,0,0,0,1.352-.469,1.649,1.649,0,0,0,.641-1.172H80.3a2.621,2.621,0,0,1-.5,1.383,3.293,3.293,0,0,1-1.23,1.047,3.55,3.55,0,0,1-1.629.391A3.482,3.482,0,0,1,74.2,16a4.59,4.59,0,0,1-1.02-3.152v-.242a5.089,5.089,0,0,1,.453-2.2,3.451,3.451,0,0,1,1.3-1.492,3.7,3.7,0,0,1,2-.531,3.39,3.39,0,0,1,2.363.852,3.043,3.043,0,0,1,1,2.211H78.934a1.992,1.992,0,0,0-.621-1.348,1.932,1.932,0,0,0-1.379-.527,2.023,2.023,0,0,0-1.707.793,3.724,3.724,0,0,0-.605,2.293v.273a3.65,3.65,0,0,0,.6,2.25A2.033,2.033,0,0,0,76.941,15.977Zm10.2.188a3.07,3.07,0,0,1-2.477.992,2.628,2.628,0,0,1-2.059-.785,3.4,3.4,0,0,1-.715-2.324v-5.5H83.34v5.461q0,1.922,1.563,1.922a2.163,2.163,0,0,0,2.2-1.234V8.547h1.445V17H87.176Zm6.992-.187a2.082,2.082,0,0,0,1.352-.469,1.649,1.649,0,0,0,.641-1.172H97.5a2.621,2.621,0,0,1-.5,1.383,3.293,3.293,0,0,1-1.23,1.047,3.55,3.55,0,0,1-1.629.391A3.482,3.482,0,0,1,91.391,16a4.59,4.59,0,0,1-1.02-3.152v-.242a5.089,5.089,0,0,1,.453-2.2,3.451,3.451,0,0,1,1.3-1.492,3.7,3.7,0,0,1,2-.531,3.39,3.39,0,0,1,2.363.852,3.043,3.043,0,0,1,1,2.211H96.129a1.992,1.992,0,0,0-.621-1.348,1.932,1.932,0,0,0-1.379-.527,2.023,2.023,0,0,0-1.707.793,3.724,3.724,0,0,0-.605,2.293v.273a3.65,3.65,0,0,0,.6,2.25A2.033,2.033,0,0,0,94.137,15.977Zm6.43-6.406a3.073,3.073,0,0,1,2.5-1.18q2.68,0,2.7,3.023V17h-1.445V11.406a1.946,1.946,0,0,0-.418-1.352,1.675,1.675,0,0,0-1.277-.437,2.086,2.086,0,0,0-1.234.375,2.546,2.546,0,0,0-.828.984V17H99.121V5h1.445ZM113.152,17a3.036,3.036,0,0,1-.2-.891,3.225,3.225,0,0,1-2.406,1.047,2.984,2.984,0,0,1-2.051-.707,2.288,2.288,0,0,1-.8-1.793,2.39,2.39,0,0,1,1-2.051,4.733,4.733,0,0,1,2.824-.73h1.406v-.664A1.623,1.623,0,0,0,112.473,10a1.821,1.821,0,0,0-1.336-.449,2.108,2.108,0,0,0-1.3.391,1.151,1.151,0,0,0-.523.945h-1.453a2,2,0,0,1,.449-1.223,3.066,3.066,0,0,1,1.219-.934,4.1,4.1,0,0,1,1.691-.344,3.342,3.342,0,0,1,2.289.73,2.635,2.635,0,0,1,.859,2.012v3.891a4.757,4.757,0,0,0,.3,1.852V17Zm-2.4-1.1a2.54,2.54,0,0,0,1.289-.352,2.127,2.127,0,0,0,.883-.914V12.9h-1.133q-2.656,0-2.656,1.555a1.316,1.316,0,0,0,.453,1.063A1.742,1.742,0,0,0,110.754,15.9ZM36.5,33.844a4.331,4.331,0,0,0-.711-.055A1.9,1.9,0,0,0,33.859,35v6H32.414V32.547H33.82l.023.977a2.251,2.251,0,0,1,2.016-1.133,1.477,1.477,0,0,1,.641.109Zm4.836,7.313a3.693,3.693,0,0,1-2.8-1.129,4.19,4.19,0,0,1-1.078-3.02v-.266a5.073,5.073,0,0,1,.48-2.246,3.748,3.748,0,0,1,1.344-1.547,3.378,3.378,0,0,1,1.871-.559,3.166,3.166,0,0,1,2.563,1.086,4.7,4.7,0,0,1,.914,3.109v.6H38.906a3,3,0,0,0,.73,2.02,2.3,2.3,0,0,0,1.777.77,2.517,2.517,0,0,0,1.3-.312,3.258,3.258,0,0,0,.93-.828l.883.688A3.55,3.55,0,0,1,41.336,41.156Zm-.18-7.578a1.928,1.928,0,0,0-1.469.637A3.1,3.1,0,0,0,38.953,36h4.234v-.109a2.753,2.753,0,0,0-.594-1.707A1.815,1.815,0,0,0,41.156,33.578Zm10.07,5.18a1.064,1.064,0,0,0-.441-.91,4.249,4.249,0,0,0-1.539-.559,7.277,7.277,0,0,1-1.742-.562,2.479,2.479,0,0,1-.953-.781,1.869,1.869,0,0,1-.309-1.078,2.193,2.193,0,0,1,.879-1.758,3.432,3.432,0,0,1,2.246-.719,3.532,3.532,0,0,1,2.332.742,2.357,2.357,0,0,1,.895,1.9H51.141a1.3,1.3,0,0,0-.5-1.023,1.888,1.888,0,0,0-1.27-.43,1.976,1.976,0,0,0-1.234.344,1.082,1.082,0,0,0-.445.9.877.877,0,0,0,.414.789,5.1,5.1,0,0,0,1.5.508,7.8,7.8,0,0,1,1.754.578,2.558,2.558,0,0,1,1,.809,1.988,1.988,0,0,1,.324,1.152,2.163,2.163,0,0,1-.906,1.816,3.8,3.8,0,0,1-2.352.684,4.257,4.257,0,0,1-1.8-.359,2.922,2.922,0,0,1-1.223-1,2.42,2.42,0,0,1-.441-1.395H47.4a1.5,1.5,0,0,0,.582,1.152,2.258,2.258,0,0,0,1.434.426,2.331,2.331,0,0,0,1.316-.332A1.02,1.02,0,0,0,51.227,38.758ZM61.7,36.867a5.062,5.062,0,0,1-.883,3.109,2.829,2.829,0,0,1-2.391,1.18A3.1,3.1,0,0,1,56,40.18v4.07H54.555v-11.7h1.32l.07.938A2.977,2.977,0,0,1,58.4,32.391a2.882,2.882,0,0,1,2.41,1.148,5.117,5.117,0,0,1,.887,3.2ZM60.25,36.7a3.735,3.735,0,0,0-.609-2.258,1.963,1.963,0,0,0-1.672-.828A2.125,2.125,0,0,0,56,34.781V38.82a2.129,2.129,0,0,0,1.984,1.156,1.954,1.954,0,0,0,1.652-.824A4.077,4.077,0,0,0,60.25,36.7Zm2.9-.008a4.993,4.993,0,0,1,.488-2.234A3.643,3.643,0,0,1,65,32.93a3.7,3.7,0,0,1,1.988-.539,3.565,3.565,0,0,1,2.793,1.2,4.6,4.6,0,0,1,1.066,3.18v.1a5.036,5.036,0,0,1-.473,2.215,3.589,3.589,0,0,1-1.352,1.527,3.743,3.743,0,0,1-2.02.547,3.556,3.556,0,0,1-2.785-1.2A4.575,4.575,0,0,1,63.148,36.8Zm1.453.172a3.616,3.616,0,0,0,.652,2.258,2.211,2.211,0,0,0,3.5-.012A3.955,3.955,0,0,0,69.4,36.7a3.61,3.61,0,0,0-.66-2.254,2.1,2.1,0,0,0-1.754-.863,2.075,2.075,0,0,0-1.727.852A3.925,3.925,0,0,0,64.6,36.867Zm9.422-4.32.047,1.063A3.08,3.08,0,0,1,76.6,32.391q2.68,0,2.7,3.023V41H77.859V35.406a1.946,1.946,0,0,0-.418-1.352,1.675,1.675,0,0,0-1.277-.437,2.086,2.086,0,0,0-1.234.375,2.546,2.546,0,0,0-.828.984V41H72.656V32.547Zm12.383,6.211a1.064,1.064,0,0,0-.441-.91,4.249,4.249,0,0,0-1.539-.559,7.277,7.277,0,0,1-1.742-.562,2.479,2.479,0,0,1-.953-.781,1.869,1.869,0,0,1-.309-1.078,2.193,2.193,0,0,1,.879-1.758,3.432,3.432,0,0,1,2.246-.719,3.532,3.532,0,0,1,2.332.742,2.357,2.357,0,0,1,.895,1.9H86.32a1.3,1.3,0,0,0-.5-1.023,1.888,1.888,0,0,0-1.27-.43,1.976,1.976,0,0,0-1.234.344,1.082,1.082,0,0,0-.445.9.877.877,0,0,0,.414.789,5.1,5.1,0,0,0,1.5.508,7.8,7.8,0,0,1,1.754.578,2.558,2.558,0,0,1,1,.809,1.988,1.988,0,0,1,.324,1.152,2.163,2.163,0,0,1-.906,1.816,3.8,3.8,0,0,1-2.352.684,4.257,4.257,0,0,1-1.8-.359,2.922,2.922,0,0,1-1.223-1,2.42,2.42,0,0,1-.441-1.395h1.445a1.5,1.5,0,0,0,.582,1.152,2.258,2.258,0,0,0,1.434.426,2.331,2.331,0,0,0,1.316-.332A1.02,1.02,0,0,0,86.406,38.758ZM94.953,41a3.036,3.036,0,0,1-.2-.891,3.225,3.225,0,0,1-2.406,1.047,2.984,2.984,0,0,1-2.051-.707,2.288,2.288,0,0,1-.8-1.793,2.39,2.39,0,0,1,1-2.051,4.733,4.733,0,0,1,2.824-.73h1.406v-.664A1.623,1.623,0,0,0,94.273,34a1.821,1.821,0,0,0-1.336-.449,2.107,2.107,0,0,0-1.3.391,1.151,1.151,0,0,0-.523.945H89.664a2,2,0,0,1,.449-1.223,3.066,3.066,0,0,1,1.219-.934,4.1,4.1,0,0,1,1.691-.344,3.342,3.342,0,0,1,2.289.73,2.635,2.635,0,0,1,.859,2.012v3.891a4.757,4.757,0,0,0,.3,1.852V41Zm-2.4-1.1a2.54,2.54,0,0,0,1.289-.352,2.127,2.127,0,0,0,.883-.914V36.9H93.594q-2.656,0-2.656,1.555a1.316,1.316,0,0,0,.453,1.063A1.742,1.742,0,0,0,92.555,39.9Zm13.039-3.031a5.026,5.026,0,0,1-.891,3.113,2.846,2.846,0,0,1-2.391,1.176,2.947,2.947,0,0,1-2.477-1.133l-.07.977H98.438V29h1.445v4.477a2.93,2.93,0,0,1,2.414-1.086,2.863,2.863,0,0,1,2.418,1.164,5.177,5.177,0,0,1,.879,3.188Zm-1.445-.164a3.906,3.906,0,0,0-.57-2.281,1.888,1.888,0,0,0-1.641-.8,2.122,2.122,0,0,0-2.055,1.328V38.6a2.181,2.181,0,0,0,2.07,1.328,1.878,1.878,0,0,0,1.617-.8A4.153,4.153,0,0,0,104.148,36.7Zm4.836,4.3h-1.445V29h1.445Zm5.82.156a3.693,3.693,0,0,1-2.8-1.129,4.19,4.19,0,0,1-1.078-3.02v-.266a5.073,5.073,0,0,1,.48-2.246,3.748,3.748,0,0,1,1.344-1.547,3.378,3.378,0,0,1,1.871-.559,3.166,3.166,0,0,1,2.563,1.086,4.7,4.7,0,0,1,.914,3.109v.6h-5.727a3,3,0,0,0,.73,2.02,2.3,2.3,0,0,0,1.777.77,2.517,2.517,0,0,0,1.3-.312,3.259,3.259,0,0,0,.93-.828l.883.688A3.55,3.55,0,0,1,114.8,41.156Zm-.18-7.578a1.928,1.928,0,0,0-1.469.637A3.1,3.1,0,0,0,112.422,36h4.234v-.109a2.753,2.753,0,0,0-.594-1.707A1.815,1.815,0,0,0,114.625,33.578Z" transform="translate(925.332 677)" fill="#12263f"/>
      <path id="Trazado_127020" data-name="Trazado 127020" d="M31.734,12.547V17h-1.5V5.625h4.2a4.215,4.215,0,0,1,2.926.953A3.231,3.231,0,0,1,38.414,9.1a3.189,3.189,0,0,1-1.035,2.551,4.4,4.4,0,0,1-2.965.895Zm0-1.227h2.7a2.7,2.7,0,0,0,1.844-.567,2.075,2.075,0,0,0,.641-1.64,2.143,2.143,0,0,0-.641-1.628,2.525,2.525,0,0,0-1.758-.634H31.734ZM44.188,9.844a4.331,4.331,0,0,0-.711-.055A1.9,1.9,0,0,0,41.547,11v6H40.1V8.547h1.406l.023.977a2.251,2.251,0,0,1,2.016-1.133,1.477,1.477,0,0,1,.641.109Zm.789,2.852a4.993,4.993,0,0,1,.488-2.234A3.643,3.643,0,0,1,46.824,8.93a3.7,3.7,0,0,1,1.988-.539,3.565,3.565,0,0,1,2.793,1.2,4.6,4.6,0,0,1,1.066,3.18v.1a5.036,5.036,0,0,1-.473,2.215,3.589,3.589,0,0,1-1.352,1.527,3.743,3.743,0,0,1-2.02.547,3.556,3.556,0,0,1-2.785-1.2A4.575,4.575,0,0,1,44.977,12.8Zm1.453.172a3.616,3.616,0,0,0,.652,2.258,2.211,2.211,0,0,0,3.5-.012,3.955,3.955,0,0,0,.648-2.418,3.61,3.61,0,0,0-.66-2.254,2.1,2.1,0,0,0-1.754-.863,2.075,2.075,0,0,0-1.727.852A3.925,3.925,0,0,0,46.43,12.867Zm15.2,0a5.062,5.062,0,0,1-.883,3.109,2.829,2.829,0,0,1-2.391,1.18,3.1,3.1,0,0,1-2.422-.977v4.07H54.484V8.547H55.8l.07.938a2.977,2.977,0,0,1,2.453-1.094,2.882,2.882,0,0,1,2.41,1.148,5.117,5.117,0,0,1,.887,3.2ZM60.18,12.7a3.735,3.735,0,0,0-.609-2.258A1.963,1.963,0,0,0,57.9,9.617a2.125,2.125,0,0,0-1.969,1.164V14.82a2.129,2.129,0,0,0,1.984,1.156,1.954,1.954,0,0,0,1.652-.824A4.077,4.077,0,0,0,60.18,12.7Zm2.9-.008a4.993,4.993,0,0,1,.488-2.234A3.643,3.643,0,0,1,64.926,8.93a3.7,3.7,0,0,1,1.988-.539,3.565,3.565,0,0,1,2.793,1.2,4.6,4.6,0,0,1,1.066,3.18v.1a5.036,5.036,0,0,1-.473,2.215,3.589,3.589,0,0,1-1.352,1.527,3.743,3.743,0,0,1-2.02.547,3.556,3.556,0,0,1-2.785-1.2A4.575,4.575,0,0,1,63.078,12.8Zm1.453.172a3.616,3.616,0,0,0,.652,2.258,2.211,2.211,0,0,0,3.5-.012,3.955,3.955,0,0,0,.648-2.418,3.61,3.61,0,0,0-.66-2.254,2.1,2.1,0,0,0-1.754-.863,2.075,2.075,0,0,0-1.727.852A3.925,3.925,0,0,0,64.531,12.867ZM76.672,9.844a4.331,4.331,0,0,0-.711-.055A1.9,1.9,0,0,0,74.031,11v6H72.586V8.547h1.406l.023.977a2.251,2.251,0,0,1,2.016-1.133,1.477,1.477,0,0,1,.641.109Zm4.57,6.133a2.082,2.082,0,0,0,1.352-.469,1.649,1.649,0,0,0,.641-1.172H84.6a2.621,2.621,0,0,1-.5,1.383,3.293,3.293,0,0,1-1.23,1.047,3.55,3.55,0,0,1-1.629.391A3.482,3.482,0,0,1,78.5,16a4.59,4.59,0,0,1-1.02-3.152v-.242a5.089,5.089,0,0,1,.453-2.2,3.451,3.451,0,0,1,1.3-1.492,3.7,3.7,0,0,1,2-.531,3.39,3.39,0,0,1,2.363.852,3.043,3.043,0,0,1,1,2.211H83.234a1.992,1.992,0,0,0-.621-1.348,1.932,1.932,0,0,0-1.379-.527,2.023,2.023,0,0,0-1.707.793,3.724,3.724,0,0,0-.605,2.293v.273a3.65,3.65,0,0,0,.6,2.25A2.033,2.033,0,0,0,81.242,15.977ZM87.8,17H86.352V8.547H87.8ZM86.234,6.3a.863.863,0,0,1,.215-.594.807.807,0,0,1,.637-.242.819.819,0,0,1,.641.242.854.854,0,0,1,.219.594.826.826,0,0,1-.219.586.834.834,0,0,1-.641.234.821.821,0,0,1-.637-.234A.834.834,0,0,1,86.234,6.3ZM89.727,12.7a4.993,4.993,0,0,1,.488-2.234A3.643,3.643,0,0,1,91.574,8.93a3.7,3.7,0,0,1,1.988-.539,3.565,3.565,0,0,1,2.793,1.2,4.6,4.6,0,0,1,1.066,3.18v.1a5.036,5.036,0,0,1-.473,2.215A3.589,3.589,0,0,1,95.6,16.609a3.743,3.743,0,0,1-2.02.547,3.556,3.556,0,0,1-2.785-1.2A4.575,4.575,0,0,1,89.727,12.8Zm1.453.172a3.616,3.616,0,0,0,.652,2.258,2.211,2.211,0,0,0,3.5-.012,3.955,3.955,0,0,0,.648-2.418,3.61,3.61,0,0,0-.66-2.254,2.1,2.1,0,0,0-1.754-.863,2.075,2.075,0,0,0-1.727.852A3.925,3.925,0,0,0,91.18,12.867Zm9.422-4.32.047,1.063a3.08,3.08,0,0,1,2.531-1.219q2.68,0,2.7,3.023V17h-1.445V11.406a1.946,1.946,0,0,0-.418-1.352,1.675,1.675,0,0,0-1.277-.437,2.086,2.086,0,0,0-1.234.375,2.546,2.546,0,0,0-.828.984V17H99.234V8.547ZM113.281,17a3.036,3.036,0,0,1-.2-.891,3.225,3.225,0,0,1-2.406,1.047,2.984,2.984,0,0,1-2.051-.707,2.288,2.288,0,0,1-.8-1.793,2.39,2.39,0,0,1,1-2.051,4.733,4.733,0,0,1,2.824-.73h1.406v-.664A1.623,1.623,0,0,0,112.6,10a1.821,1.821,0,0,0-1.336-.449,2.108,2.108,0,0,0-1.3.391,1.151,1.151,0,0,0-.523.945h-1.453a2,2,0,0,1,.449-1.223,3.066,3.066,0,0,1,1.219-.934,4.1,4.1,0,0,1,1.691-.344,3.342,3.342,0,0,1,2.289.73,2.635,2.635,0,0,1,.859,2.012v3.891a4.757,4.757,0,0,0,.3,1.852V17Zm-2.4-1.1a2.54,2.54,0,0,0,1.289-.352,2.127,2.127,0,0,0,.883-.914V12.9h-1.133q-2.656,0-2.656,1.555a1.316,1.316,0,0,0,.453,1.063A1.742,1.742,0,0,0,110.883,15.9Zm9.969-6.055a4.331,4.331,0,0,0-.711-.055A1.9,1.9,0,0,0,118.211,11v6h-1.445V8.547h1.406l.023.977a2.251,2.251,0,0,1,2.016-1.133,1.477,1.477,0,0,1,.641.109ZM34.793,41H33.348V32.547h1.445ZM33.23,30.3a.863.863,0,0,1,.215-.594.807.807,0,0,1,.637-.242.819.819,0,0,1,.641.242.854.854,0,0,1,.219.594.826.826,0,0,1-.219.586.834.834,0,0,1-.641.234.821.821,0,0,1-.637-.234A.834.834,0,0,1,33.23,30.3Zm5.242,2.242.047,1.063a3.08,3.08,0,0,1,2.531-1.219q2.68,0,2.7,3.023V41H42.309V35.406a1.946,1.946,0,0,0-.418-1.352,1.675,1.675,0,0,0-1.277-.437,2.086,2.086,0,0,0-1.234.375,2.546,2.546,0,0,0-.828.984V41H37.105V32.547ZM46.645,41V33.664H45.309V32.547h1.336V31.68a2.878,2.878,0,0,1,.727-2.1,2.745,2.745,0,0,1,2.055-.742,3.816,3.816,0,0,1,.992.132l-.078,1.165a4.151,4.151,0,0,0-.781-.07,1.41,1.41,0,0,0-1.086.411,1.669,1.669,0,0,0-.383,1.18v.893h1.8v1.117h-1.8V41Zm4.461-4.3a4.993,4.993,0,0,1,.488-2.234,3.643,3.643,0,0,1,1.359-1.531,3.7,3.7,0,0,1,1.988-.539,3.565,3.565,0,0,1,2.793,1.2,4.6,4.6,0,0,1,1.066,3.18v.1a5.036,5.036,0,0,1-.473,2.215,3.589,3.589,0,0,1-1.352,1.527,3.743,3.743,0,0,1-2.02.547,3.556,3.556,0,0,1-2.785-1.2A4.575,4.575,0,0,1,51.105,36.8Zm1.453.172a3.616,3.616,0,0,0,.652,2.258,2.211,2.211,0,0,0,3.5-.012,3.955,3.955,0,0,0,.648-2.418,3.61,3.61,0,0,0-.66-2.254,2.1,2.1,0,0,0-1.754-.863,2.075,2.075,0,0,0-1.727.852A3.925,3.925,0,0,0,52.559,36.867ZM64.7,33.844a4.331,4.331,0,0,0-.711-.055A1.9,1.9,0,0,0,62.059,35v6H60.613V32.547H62.02l.023.977a2.251,2.251,0,0,1,2.016-1.133,1.477,1.477,0,0,1,.641.109Zm2.688-1.3.039.938a3.122,3.122,0,0,1,2.508-1.094,2.417,2.417,0,0,1,2.414,1.359,3.2,3.2,0,0,1,1.1-.984,3.242,3.242,0,0,1,1.6-.375q2.781,0,2.828,2.945V41H76.426V35.422a1.941,1.941,0,0,0-.414-1.355,1.823,1.823,0,0,0-1.391-.449,1.916,1.916,0,0,0-1.336.48,1.949,1.949,0,0,0-.617,1.293V41H71.215V35.461a1.613,1.613,0,0,0-1.8-1.844,1.934,1.934,0,0,0-1.945,1.211V41H66.02V32.547ZM85.27,41a3.036,3.036,0,0,1-.2-.891,3.225,3.225,0,0,1-2.406,1.047,2.984,2.984,0,0,1-2.051-.707,2.288,2.288,0,0,1-.8-1.793,2.39,2.39,0,0,1,1-2.051,4.733,4.733,0,0,1,2.824-.73h1.406v-.664A1.623,1.623,0,0,0,84.59,34a1.821,1.821,0,0,0-1.336-.449,2.107,2.107,0,0,0-1.3.391,1.151,1.151,0,0,0-.523.945H79.98a2,2,0,0,1,.449-1.223,3.066,3.066,0,0,1,1.219-.934,4.1,4.1,0,0,1,1.691-.344,3.342,3.342,0,0,1,2.289.73,2.635,2.635,0,0,1,.859,2.012v3.891a4.757,4.757,0,0,0,.3,1.852V41Zm-2.4-1.1a2.54,2.54,0,0,0,1.289-.352,2.127,2.127,0,0,0,.883-.914V36.9H83.91q-2.656,0-2.656,1.555a1.316,1.316,0,0,0,.453,1.063A1.742,1.742,0,0,0,82.871,39.9Zm9.273.078a2.082,2.082,0,0,0,1.352-.469,1.649,1.649,0,0,0,.641-1.172H95.5a2.621,2.621,0,0,1-.5,1.383,3.293,3.293,0,0,1-1.23,1.047,3.55,3.55,0,0,1-1.629.391A3.482,3.482,0,0,1,89.4,40a4.59,4.59,0,0,1-1.02-3.152v-.242a5.089,5.089,0,0,1,.453-2.2,3.451,3.451,0,0,1,1.3-1.492,3.7,3.7,0,0,1,2-.531,3.39,3.39,0,0,1,2.363.852,3.043,3.043,0,0,1,1,2.211H94.137a1.992,1.992,0,0,0-.621-1.348,1.932,1.932,0,0,0-1.379-.527,2.023,2.023,0,0,0-1.707.793,3.724,3.724,0,0,0-.605,2.293v.273a3.65,3.65,0,0,0,.6,2.25A2.033,2.033,0,0,0,92.145,39.977ZM98.7,41H97.254V32.547H98.7ZM97.137,30.3a.863.863,0,0,1,.215-.594.807.807,0,0,1,.637-.242.819.819,0,0,1,.641.242.854.854,0,0,1,.219.594.826.826,0,0,1-.219.586.834.834,0,0,1-.641.234.821.821,0,0,1-.637-.234A.834.834,0,0,1,97.137,30.3Zm3.492,6.391a4.993,4.993,0,0,1,.488-2.234,3.643,3.643,0,0,1,1.359-1.531,3.7,3.7,0,0,1,1.988-.539,3.565,3.565,0,0,1,2.793,1.2,4.6,4.6,0,0,1,1.066,3.18v.1a5.036,5.036,0,0,1-.473,2.215,3.589,3.589,0,0,1-1.352,1.527,3.743,3.743,0,0,1-2.02.547,3.556,3.556,0,0,1-2.785-1.2,4.575,4.575,0,0,1-1.066-3.164Zm1.453.172a3.616,3.616,0,0,0,.652,2.258,2.211,2.211,0,0,0,3.5-.012,3.955,3.955,0,0,0,.648-2.418,3.61,3.61,0,0,0-.66-2.254,2.1,2.1,0,0,0-1.754-.863,2.075,2.075,0,0,0-1.727.852A3.925,3.925,0,0,0,102.082,36.867ZM105.121,29h1.75l-2.094,2.3-1.164,0Zm6.383,3.547.047,1.063a3.08,3.08,0,0,1,2.531-1.219q2.68,0,2.7,3.023V41H115.34V35.406a1.946,1.946,0,0,0-.418-1.352,1.675,1.675,0,0,0-1.277-.437,2.086,2.086,0,0,0-1.234.375,2.546,2.546,0,0,0-.828.984V41h-1.445V32.547Z" transform="translate(522.332 695)" fill="#12263f"/>
      <path id="Trazado_127024" data-name="Trazado 127024" d="M3.543,12.547V17h-1.5V5.625h4.2a4.215,4.215,0,0,1,2.926.953A3.231,3.231,0,0,1,10.223,9.1a3.189,3.189,0,0,1-1.035,2.551,4.4,4.4,0,0,1-2.965.895Zm0-1.227h2.7a2.7,2.7,0,0,0,1.844-.567,2.075,2.075,0,0,0,.641-1.64,2.143,2.143,0,0,0-.641-1.628,2.525,2.525,0,0,0-1.758-.634H3.543ZM16,9.844a4.331,4.331,0,0,0-.711-.055A1.9,1.9,0,0,0,13.355,11v6H11.91V8.547h1.406l.023.977a2.251,2.251,0,0,1,2.016-1.133A1.477,1.477,0,0,1,16,8.5Zm.789,2.852a4.993,4.993,0,0,1,.488-2.234A3.643,3.643,0,0,1,18.633,8.93a3.7,3.7,0,0,1,1.988-.539,3.565,3.565,0,0,1,2.793,1.2,4.6,4.6,0,0,1,1.066,3.18v.1a5.036,5.036,0,0,1-.473,2.215,3.589,3.589,0,0,1-1.352,1.527,3.743,3.743,0,0,1-2.02.547,3.556,3.556,0,0,1-2.785-1.2A4.575,4.575,0,0,1,16.785,12.8Zm1.453.172a3.616,3.616,0,0,0,.652,2.258,2.211,2.211,0,0,0,3.5-.012,3.955,3.955,0,0,0,.648-2.418,3.61,3.61,0,0,0-.66-2.254,2.1,2.1,0,0,0-1.754-.863,2.075,2.075,0,0,0-1.727.852A3.925,3.925,0,0,0,18.238,12.867Zm15.2,0a5.062,5.062,0,0,1-.883,3.109,2.829,2.829,0,0,1-2.391,1.18,3.1,3.1,0,0,1-2.422-.977v4.07H26.293V8.547h1.32l.07.938a2.977,2.977,0,0,1,2.453-1.094,2.882,2.882,0,0,1,2.41,1.148,5.117,5.117,0,0,1,.887,3.2ZM31.988,12.7a3.735,3.735,0,0,0-.609-2.258,1.963,1.963,0,0,0-1.672-.828,2.125,2.125,0,0,0-1.969,1.164V14.82a2.129,2.129,0,0,0,1.984,1.156,1.954,1.954,0,0,0,1.652-.824A4.077,4.077,0,0,0,31.988,12.7ZM36.84,17H35.395V8.547H36.84ZM35.277,6.3a.863.863,0,0,1,.215-.594.807.807,0,0,1,.637-.242.819.819,0,0,1,.641.242.854.854,0,0,1,.219.594.826.826,0,0,1-.219.586.834.834,0,0,1-.641.234.821.821,0,0,1-.637-.234A.834.834,0,0,1,35.277,6.3Zm7.266,9.672a2.082,2.082,0,0,0,1.352-.469,1.649,1.649,0,0,0,.641-1.172H45.9a2.621,2.621,0,0,1-.5,1.383,3.293,3.293,0,0,1-1.23,1.047,3.55,3.55,0,0,1-1.629.391A3.482,3.482,0,0,1,39.8,16a4.59,4.59,0,0,1-1.02-3.152v-.242a5.089,5.089,0,0,1,.453-2.2,3.451,3.451,0,0,1,1.3-1.492,3.7,3.7,0,0,1,2-.531,3.39,3.39,0,0,1,2.363.852,3.043,3.043,0,0,1,1,2.211H44.535a1.992,1.992,0,0,0-.621-1.348,1.932,1.932,0,0,0-1.379-.527,2.023,2.023,0,0,0-1.707.793,3.724,3.724,0,0,0-.605,2.293v.273a3.65,3.65,0,0,0,.6,2.25A2.033,2.033,0,0,0,42.543,15.977ZM49.1,17H47.652V8.547H49.1ZM47.535,6.3a.863.863,0,0,1,.215-.594.807.807,0,0,1,.637-.242.819.819,0,0,1,.641.242.854.854,0,0,1,.219.594.826.826,0,0,1-.219.586.834.834,0,0,1-.641.234.821.821,0,0,1-.637-.234A.834.834,0,0,1,47.535,6.3ZM56.629,17a3.036,3.036,0,0,1-.2-.891,3.225,3.225,0,0,1-2.406,1.047,2.984,2.984,0,0,1-2.051-.707,2.287,2.287,0,0,1-.8-1.793,2.39,2.39,0,0,1,1-2.051A4.733,4.733,0,0,1,55,11.875H56.4v-.664A1.623,1.623,0,0,0,55.949,10a1.821,1.821,0,0,0-1.336-.449,2.107,2.107,0,0,0-1.3.391,1.151,1.151,0,0,0-.523.945H51.34a2,2,0,0,1,.449-1.223,3.066,3.066,0,0,1,1.219-.934A4.1,4.1,0,0,1,54.7,8.391a3.342,3.342,0,0,1,2.289.73,2.635,2.635,0,0,1,.859,2.012v3.891a4.757,4.757,0,0,0,.3,1.852V17Zm-2.4-1.1a2.54,2.54,0,0,0,1.289-.352,2.127,2.127,0,0,0,.883-.914V12.9H55.27q-2.656,0-2.656,1.555a1.316,1.316,0,0,0,.453,1.063A1.742,1.742,0,0,0,54.23,15.9ZM64.2,9.844a4.331,4.331,0,0,0-.711-.055A1.9,1.9,0,0,0,61.559,11v6H60.113V8.547H61.52l.023.977a2.251,2.251,0,0,1,2.016-1.133A1.477,1.477,0,0,1,64.2,8.5Zm8.68,6.133a2.082,2.082,0,0,0,1.352-.469,1.649,1.649,0,0,0,.641-1.172h1.367a2.621,2.621,0,0,1-.5,1.383,3.293,3.293,0,0,1-1.23,1.047,3.55,3.55,0,0,1-1.629.391A3.482,3.482,0,0,1,70.133,16a4.59,4.59,0,0,1-1.02-3.152v-.242a5.089,5.089,0,0,1,.453-2.2,3.451,3.451,0,0,1,1.3-1.492,3.7,3.7,0,0,1,2-.531,3.39,3.39,0,0,1,2.363.852,3.043,3.043,0,0,1,1,2.211H74.871a1.992,1.992,0,0,0-.621-1.348,1.932,1.932,0,0,0-1.379-.527,2.023,2.023,0,0,0-1.707.793,3.724,3.724,0,0,0-.605,2.293v.273a3.65,3.65,0,0,0,.6,2.25A2.033,2.033,0,0,0,72.879,15.977Zm4.6-3.281a4.993,4.993,0,0,1,.488-2.234A3.643,3.643,0,0,1,79.328,8.93a3.7,3.7,0,0,1,1.988-.539,3.565,3.565,0,0,1,2.793,1.2,4.6,4.6,0,0,1,1.066,3.18v.1a5.036,5.036,0,0,1-.473,2.215,3.589,3.589,0,0,1-1.352,1.527,3.743,3.743,0,0,1-2.02.547,3.556,3.556,0,0,1-2.785-1.2A4.575,4.575,0,0,1,77.48,12.8Zm1.453.172a3.616,3.616,0,0,0,.652,2.258,2.211,2.211,0,0,0,3.5-.012A3.955,3.955,0,0,0,83.73,12.7a3.61,3.61,0,0,0-.66-2.254,2.1,2.1,0,0,0-1.754-.863,2.075,2.075,0,0,0-1.727.852A3.925,3.925,0,0,0,78.934,12.867Zm9.422-4.32L88.4,9.609a3.08,3.08,0,0,1,2.531-1.219q2.68,0,2.7,3.023V17H92.191V11.406a1.946,1.946,0,0,0-.418-1.352A1.675,1.675,0,0,0,90.5,9.617a2.086,2.086,0,0,0-1.234.375,2.546,2.546,0,0,0-.828.984V17H86.988V8.547ZM96.3,17V9.664H94.965V8.547H96.3V7.828a2.937,2.937,0,0,1,.809-2.2,3.136,3.136,0,0,1,2.285-.789,6.881,6.881,0,0,1,2.211.477l-.242,1.219A5.008,5.008,0,0,0,99.5,6.141a1.819,1.819,0,0,0-1.34.418,1.723,1.723,0,0,0-.41,1.254v.734H99.48V9.664H97.754V17Zm6.023,0h-1.453V8.547h1.453Zm7.57,0a3.036,3.036,0,0,1-.2-.891,3.225,3.225,0,0,1-2.406,1.047,2.984,2.984,0,0,1-2.051-.707,2.288,2.288,0,0,1-.8-1.793,2.39,2.39,0,0,1,1-2.051,4.733,4.733,0,0,1,2.824-.73h1.406v-.664A1.623,1.623,0,0,0,109.215,10a1.821,1.821,0,0,0-1.336-.449,2.108,2.108,0,0,0-1.3.391,1.151,1.151,0,0,0-.523.945h-1.453a2,2,0,0,1,.449-1.223,3.066,3.066,0,0,1,1.219-.934,4.1,4.1,0,0,1,1.691-.344,3.342,3.342,0,0,1,2.289.73,2.635,2.635,0,0,1,.859,2.012v3.891a4.757,4.757,0,0,0,.3,1.852V17Zm-2.4-1.1a2.54,2.54,0,0,0,1.289-.352,2.127,2.127,0,0,0,.883-.914V12.9h-1.133q-2.656,0-2.656,1.555a1.316,1.316,0,0,0,.453,1.063A1.742,1.742,0,0,0,107.5,15.9Zm7.25-7.352.047,1.063a3.08,3.08,0,0,1,2.531-1.219q2.68,0,2.7,3.023V17h-1.445V11.406a1.946,1.946,0,0,0-.418-1.352,1.675,1.675,0,0,0-1.277-.437,2.086,2.086,0,0,0-1.234.375,2.546,2.546,0,0,0-.828.984V17h-1.445V8.547Zm8.82,7.273h4.945V17H121.8V15.938l4.664-6.2h-4.594v-1.2h6.406V9.57ZM135.355,17a3.036,3.036,0,0,1-.2-.891,3.225,3.225,0,0,1-2.406,1.047,2.984,2.984,0,0,1-2.051-.707,2.287,2.287,0,0,1-.8-1.793,2.39,2.39,0,0,1,1-2.051,4.733,4.733,0,0,1,2.824-.73h1.406v-.664A1.623,1.623,0,0,0,134.676,10a1.821,1.821,0,0,0-1.336-.449,2.107,2.107,0,0,0-1.3.391,1.151,1.151,0,0,0-.523.945h-1.453a2,2,0,0,1,.449-1.223,3.066,3.066,0,0,1,1.219-.934,4.1,4.1,0,0,1,1.691-.344,3.342,3.342,0,0,1,2.289.73,2.635,2.635,0,0,1,.859,2.012v3.891a4.757,4.757,0,0,0,.3,1.852V17Zm-2.4-1.1a2.54,2.54,0,0,0,1.289-.352,2.127,2.127,0,0,0,.883-.914V12.9H134q-2.656,0-2.656,1.555a1.316,1.316,0,0,0,.453,1.063A1.742,1.742,0,0,0,132.957,15.9Zm12.609-1.016,1.969-6.336h1.547l-3.4,9.758q-.789,2.109-2.508,2.109l-.273-.023-.539-.1V19.117l.391.031a1.923,1.923,0,0,0,1.145-.3,2.148,2.148,0,0,0,.676-1.086l.32-.859-3.016-8.359h1.578Zm-95,26.273a3.693,3.693,0,0,1-2.8-1.129,4.19,4.19,0,0,1-1.078-3.02v-.266a5.073,5.073,0,0,1,.48-2.246,3.748,3.748,0,0,1,1.344-1.547,3.378,3.378,0,0,1,1.871-.559,3.166,3.166,0,0,1,2.563,1.086,4.7,4.7,0,0,1,.914,3.109v.6H48.141a3,3,0,0,0,.73,2.02,2.3,2.3,0,0,0,1.777.77,2.517,2.517,0,0,0,1.3-.312,3.258,3.258,0,0,0,.93-.828l.883.688A3.55,3.55,0,0,1,50.57,41.156Zm-.18-7.578a1.928,1.928,0,0,0-1.469.637A3.1,3.1,0,0,0,48.188,36h4.234v-.109a2.753,2.753,0,0,0-.594-1.707A1.815,1.815,0,0,0,50.391,33.578ZM56.9,32.547l.039.938a3.122,3.122,0,0,1,2.508-1.094,2.417,2.417,0,0,1,2.414,1.359,3.2,3.2,0,0,1,1.1-.984,3.242,3.242,0,0,1,1.6-.375q2.781,0,2.828,2.945V41H65.938V35.422a1.941,1.941,0,0,0-.414-1.355,1.823,1.823,0,0,0-1.391-.449,1.916,1.916,0,0,0-1.336.48,1.949,1.949,0,0,0-.617,1.293V41H60.727V35.461a1.613,1.613,0,0,0-1.8-1.844,1.934,1.934,0,0,0-1.945,1.211V41H55.531V32.547Zm19.8,4.32a5.062,5.062,0,0,1-.883,3.109,2.829,2.829,0,0,1-2.391,1.18,3.1,3.1,0,0,1-2.422-.977v4.07H69.563v-11.7h1.32l.07.938a2.977,2.977,0,0,1,2.453-1.094,2.882,2.882,0,0,1,2.41,1.148,5.117,5.117,0,0,1,.887,3.2ZM75.258,36.7a3.735,3.735,0,0,0-.609-2.258,1.963,1.963,0,0,0-1.672-.828,2.125,2.125,0,0,0-1.969,1.164V38.82a2.129,2.129,0,0,0,1.984,1.156,1.954,1.954,0,0,0,1.652-.824A4.077,4.077,0,0,0,75.258,36.7Zm8.5,4.3a3.036,3.036,0,0,1-.2-.891,3.225,3.225,0,0,1-2.406,1.047,2.984,2.984,0,0,1-2.051-.707,2.288,2.288,0,0,1-.8-1.793,2.39,2.39,0,0,1,1-2.051,4.733,4.733,0,0,1,2.824-.73h1.406v-.664A1.623,1.623,0,0,0,83.078,34a1.821,1.821,0,0,0-1.336-.449,2.107,2.107,0,0,0-1.3.391,1.151,1.151,0,0,0-.523.945H78.469a2,2,0,0,1,.449-1.223,3.066,3.066,0,0,1,1.219-.934,4.1,4.1,0,0,1,1.691-.344,3.342,3.342,0,0,1,2.289.73,2.635,2.635,0,0,1,.859,2.012v3.891a4.757,4.757,0,0,0,.3,1.852V41Zm-2.4-1.1a2.54,2.54,0,0,0,1.289-.352,2.127,2.127,0,0,0,.883-.914V36.9H82.4q-2.656,0-2.656,1.555a1.316,1.316,0,0,0,.453,1.063A1.742,1.742,0,0,0,81.359,39.9ZM89.2,30.5v2.047h1.578v1.117H89.2v5.249a1.173,1.173,0,0,0,.211.763.888.888,0,0,0,.719.254,3.5,3.5,0,0,0,.688-.094V41a4.215,4.215,0,0,1-1.109.155,1.8,1.8,0,0,1-1.461-.586,2.517,2.517,0,0,1-.492-1.664V33.664H86.219V32.547h1.539V30.5ZM94.039,41H92.586V32.547h1.453Zm.016-11.992H95.8l-2.094,2.3-1.164,0ZM101.641,41a3.036,3.036,0,0,1-.2-.891,3.225,3.225,0,0,1-2.406,1.047,2.984,2.984,0,0,1-2.051-.707,2.288,2.288,0,0,1-.8-1.793,2.39,2.39,0,0,1,1-2.051,4.733,4.733,0,0,1,2.824-.73h1.406v-.664A1.623,1.623,0,0,0,100.961,34a1.821,1.821,0,0,0-1.336-.449,2.107,2.107,0,0,0-1.3.391,1.151,1.151,0,0,0-.523.945H96.352a2,2,0,0,1,.449-1.223,3.066,3.066,0,0,1,1.219-.934,4.1,4.1,0,0,1,1.691-.344,3.342,3.342,0,0,1,2.289.73,2.635,2.635,0,0,1,.859,2.012v3.891a4.757,4.757,0,0,0,.3,1.852V41Zm-2.4-1.1a2.54,2.54,0,0,0,1.289-.352,2.127,2.127,0,0,0,.883-.914V36.9h-1.133q-2.656,0-2.656,1.555a1.316,1.316,0,0,0,.453,1.063A1.742,1.742,0,0,0,99.242,39.9Z" transform="translate(608.332 908)" fill="#12263f"/>
      <path id="Trazado_127023" data-name="Trazado 127023" d="M48.043,6.852H44.387V17H42.895V6.852H39.246V5.625h8.8ZM53,9.844a4.331,4.331,0,0,0-.711-.055A1.9,1.9,0,0,0,50.363,11v6H48.918V8.547h1.406l.023.977a2.251,2.251,0,0,1,2.016-1.133A1.477,1.477,0,0,1,53,8.5ZM59.238,17a3.036,3.036,0,0,1-.2-.891,3.225,3.225,0,0,1-2.406,1.047,2.984,2.984,0,0,1-2.051-.707,2.287,2.287,0,0,1-.8-1.793,2.39,2.39,0,0,1,1-2.051,4.733,4.733,0,0,1,2.824-.73h1.406v-.664A1.623,1.623,0,0,0,58.559,10a1.821,1.821,0,0,0-1.336-.449,2.107,2.107,0,0,0-1.3.391,1.151,1.151,0,0,0-.523.945H53.949A2,2,0,0,1,54.4,9.668a3.066,3.066,0,0,1,1.219-.934,4.1,4.1,0,0,1,1.691-.344,3.342,3.342,0,0,1,2.289.73,2.635,2.635,0,0,1,.859,2.012v3.891a4.757,4.757,0,0,0,.3,1.852V17Zm-2.4-1.1a2.54,2.54,0,0,0,1.289-.352,2.127,2.127,0,0,0,.883-.914V12.9H57.879q-2.656,0-2.656,1.555a1.316,1.316,0,0,0,.453,1.063A1.742,1.742,0,0,0,56.84,15.9Zm7.25-7.352.047,1.063a3.08,3.08,0,0,1,2.531-1.219q2.68,0,2.7,3.023V17H67.926V11.406a1.946,1.946,0,0,0-.418-1.352,1.675,1.675,0,0,0-1.277-.437A2.086,2.086,0,0,0,65,9.992a2.546,2.546,0,0,0-.828.984V17H62.723V8.547Zm12.383,6.211a1.064,1.064,0,0,0-.441-.91,4.249,4.249,0,0,0-1.539-.559,7.277,7.277,0,0,1-1.742-.562,2.479,2.479,0,0,1-.953-.781,1.869,1.869,0,0,1-.309-1.078,2.193,2.193,0,0,1,.879-1.758,3.432,3.432,0,0,1,2.246-.719,3.532,3.532,0,0,1,2.332.742,2.357,2.357,0,0,1,.895,1.9H76.387a1.3,1.3,0,0,0-.5-1.023,1.888,1.888,0,0,0-1.27-.43,1.976,1.976,0,0,0-1.234.344,1.082,1.082,0,0,0-.445.9.877.877,0,0,0,.414.789,5.1,5.1,0,0,0,1.5.508A7.8,7.8,0,0,1,76.6,12.7a2.558,2.558,0,0,1,1,.809,1.988,1.988,0,0,1,.324,1.152,2.163,2.163,0,0,1-.906,1.816,3.8,3.8,0,0,1-2.352.684,4.257,4.257,0,0,1-1.8-.359,2.922,2.922,0,0,1-1.223-1A2.42,2.42,0,0,1,71.2,14.4h1.445a1.5,1.5,0,0,0,.582,1.152,2.258,2.258,0,0,0,1.434.426,2.331,2.331,0,0,0,1.316-.332A1.02,1.02,0,0,0,76.473,14.758ZM81.16,8.547l.039.938a3.122,3.122,0,0,1,2.508-1.094A2.417,2.417,0,0,1,86.121,9.75a3.2,3.2,0,0,1,1.1-.984,3.242,3.242,0,0,1,1.6-.375q2.781,0,2.828,2.945V17H90.2V11.422a1.941,1.941,0,0,0-.414-1.355,1.823,1.823,0,0,0-1.391-.449,1.916,1.916,0,0,0-1.336.48,1.949,1.949,0,0,0-.617,1.293V17H84.988V11.461a1.613,1.613,0,0,0-1.8-1.844,1.934,1.934,0,0,0-1.945,1.211V17H79.793V8.547ZM95.395,17H93.949V8.547h1.445ZM93.832,6.3a.863.863,0,0,1,.215-.594.807.807,0,0,1,.637-.242.819.819,0,0,1,.641.242.854.854,0,0,1,.219.594.826.826,0,0,1-.219.586.834.834,0,0,1-.641.234.821.821,0,0,1-.637-.234A.834.834,0,0,1,93.832,6.3Zm5.836.2V8.547h1.578V9.664H99.668v5.249a1.173,1.173,0,0,0,.211.763.888.888,0,0,0,.719.254,3.5,3.5,0,0,0,.688-.094V17a4.215,4.215,0,0,1-1.109.155,1.8,1.8,0,0,1-1.461-.586,2.517,2.517,0,0,1-.492-1.664V9.664H96.684V8.547h1.539V6.5ZM104.5,17h-1.445V8.547H104.5ZM102.941,6.3a.863.863,0,0,1,.215-.594.807.807,0,0,1,.637-.242.819.819,0,0,1,.641.242.854.854,0,0,1,.219.594.826.826,0,0,1-.219.586.834.834,0,0,1-.641.234.821.821,0,0,1-.637-.234A.834.834,0,0,1,102.941,6.3ZM110.9,9.844a4.331,4.331,0,0,0-.711-.055A1.9,1.9,0,0,0,108.262,11v6h-1.445V8.547h1.406l.023.977a2.251,2.251,0,0,1,2.016-1.133,1.477,1.477,0,0,1,.641.109ZM41.977,41a3.036,3.036,0,0,1-.2-.891,3.225,3.225,0,0,1-2.406,1.047,2.984,2.984,0,0,1-2.051-.707,2.287,2.287,0,0,1-.8-1.793,2.39,2.39,0,0,1,1-2.051,4.733,4.733,0,0,1,2.824-.73H41.75v-.664A1.623,1.623,0,0,0,41.3,34a1.821,1.821,0,0,0-1.336-.449,2.107,2.107,0,0,0-1.3.391,1.151,1.151,0,0,0-.523.945H36.688a2,2,0,0,1,.449-1.223,3.066,3.066,0,0,1,1.219-.934,4.1,4.1,0,0,1,1.691-.344,3.342,3.342,0,0,1,2.289.73,2.635,2.635,0,0,1,.859,2.012v3.891a4.757,4.757,0,0,0,.3,1.852V41Zm-2.4-1.1a2.54,2.54,0,0,0,1.289-.352,2.127,2.127,0,0,0,.883-.914V36.9H40.617q-2.656,0-2.656,1.555a1.316,1.316,0,0,0,.453,1.063A1.742,1.742,0,0,0,39.578,39.9Zm9.273.078a2.082,2.082,0,0,0,1.352-.469,1.649,1.649,0,0,0,.641-1.172h1.367a2.621,2.621,0,0,1-.5,1.383,3.293,3.293,0,0,1-1.23,1.047,3.55,3.55,0,0,1-1.629.391A3.482,3.482,0,0,1,46.105,40a4.59,4.59,0,0,1-1.02-3.152v-.242a5.089,5.089,0,0,1,.453-2.2,3.451,3.451,0,0,1,1.3-1.492,3.7,3.7,0,0,1,2-.531,3.39,3.39,0,0,1,2.363.852,3.043,3.043,0,0,1,1,2.211H50.844a1.992,1.992,0,0,0-.621-1.348,1.932,1.932,0,0,0-1.379-.527,2.023,2.023,0,0,0-1.707.793,3.724,3.724,0,0,0-.605,2.293v.273a3.65,3.65,0,0,0,.6,2.25A2.033,2.033,0,0,0,48.852,39.977Zm8.492,1.18a3.693,3.693,0,0,1-2.8-1.129,4.19,4.19,0,0,1-1.078-3.02v-.266a5.073,5.073,0,0,1,.48-2.246,3.748,3.748,0,0,1,1.344-1.547,3.378,3.378,0,0,1,1.871-.559,3.166,3.166,0,0,1,2.563,1.086,4.7,4.7,0,0,1,.914,3.109v.6H54.914a3,3,0,0,0,.73,2.02,2.3,2.3,0,0,0,1.777.77,2.517,2.517,0,0,0,1.3-.312,3.258,3.258,0,0,0,.93-.828l.883.688A3.55,3.55,0,0,1,57.344,41.156Zm-.18-7.578a1.928,1.928,0,0,0-1.469.637A3.1,3.1,0,0,0,54.961,36H59.2v-.109a2.753,2.753,0,0,0-.594-1.707A1.815,1.815,0,0,0,57.164,33.578Zm12.289,3.289a5.062,5.062,0,0,1-.883,3.109,2.829,2.829,0,0,1-2.391,1.18,3.1,3.1,0,0,1-2.422-.977v4.07H62.313v-11.7h1.32l.07.938a2.977,2.977,0,0,1,2.453-1.094,2.882,2.882,0,0,1,2.41,1.148,5.117,5.117,0,0,1,.887,3.2ZM68.008,36.7a3.735,3.735,0,0,0-.609-2.258,1.963,1.963,0,0,0-1.672-.828,2.125,2.125,0,0,0-1.969,1.164V38.82a2.129,2.129,0,0,0,1.984,1.156,1.954,1.954,0,0,0,1.652-.824A4.077,4.077,0,0,0,68.008,36.7Zm5.242-6.2v2.047h1.578v1.117H73.25v5.249a1.173,1.173,0,0,0,.211.763.888.888,0,0,0,.719.254,3.5,3.5,0,0,0,.688-.094V41a4.215,4.215,0,0,1-1.109.155A1.8,1.8,0,0,1,72.3,40.57a2.517,2.517,0,0,1-.492-1.664V33.664H70.266V32.547H71.8V30.5ZM81.734,41a3.036,3.036,0,0,1-.2-.891,3.225,3.225,0,0,1-2.406,1.047,2.984,2.984,0,0,1-2.051-.707,2.288,2.288,0,0,1-.8-1.793,2.39,2.39,0,0,1,1-2.051,4.733,4.733,0,0,1,2.824-.73h1.406v-.664A1.623,1.623,0,0,0,81.055,34a1.821,1.821,0,0,0-1.336-.449,2.107,2.107,0,0,0-1.3.391,1.151,1.151,0,0,0-.523.945H76.445a2,2,0,0,1,.449-1.223,3.066,3.066,0,0,1,1.219-.934,4.1,4.1,0,0,1,1.691-.344,3.342,3.342,0,0,1,2.289.73,2.635,2.635,0,0,1,.859,2.012v3.891a4.757,4.757,0,0,0,.3,1.852V41Zm-2.4-1.1a2.54,2.54,0,0,0,1.289-.352,2.127,2.127,0,0,0,.883-.914V36.9H80.375q-2.656,0-2.656,1.555a1.316,1.316,0,0,0,.453,1.063A1.742,1.742,0,0,0,79.336,39.9Zm9.273.078a2.082,2.082,0,0,0,1.352-.469,1.649,1.649,0,0,0,.641-1.172h1.367a2.621,2.621,0,0,1-.5,1.383,3.293,3.293,0,0,1-1.23,1.047,3.55,3.55,0,0,1-1.629.391A3.482,3.482,0,0,1,85.863,40a4.59,4.59,0,0,1-1.02-3.152v-.242a5.089,5.089,0,0,1,.453-2.2,3.451,3.451,0,0,1,1.3-1.492,3.7,3.7,0,0,1,2-.531,3.39,3.39,0,0,1,2.363.852,3.043,3.043,0,0,1,1,2.211H90.6a1.992,1.992,0,0,0-.621-1.348,1.932,1.932,0,0,0-1.379-.527,2.023,2.023,0,0,0-1.707.793,3.724,3.724,0,0,0-.605,2.293v.273a3.65,3.65,0,0,0,.6,2.25A2.033,2.033,0,0,0,88.609,39.977ZM95.164,41H93.719V32.547h1.445ZM93.6,30.3a.863.863,0,0,1,.215-.594.807.807,0,0,1,.637-.242.819.819,0,0,1,.641.242.854.854,0,0,1,.219.594.826.826,0,0,1-.219.586.834.834,0,0,1-.641.234.821.821,0,0,1-.637-.234A.834.834,0,0,1,93.6,30.3ZM97.094,36.7a4.993,4.993,0,0,1,.488-2.234,3.643,3.643,0,0,1,1.359-1.531,3.7,3.7,0,0,1,1.988-.539,3.565,3.565,0,0,1,2.793,1.2,4.6,4.6,0,0,1,1.066,3.18v.1a5.036,5.036,0,0,1-.473,2.215,3.589,3.589,0,0,1-1.352,1.527,3.743,3.743,0,0,1-2.02.547,3.556,3.556,0,0,1-2.785-1.2A4.575,4.575,0,0,1,97.094,36.8Zm1.453.172a3.616,3.616,0,0,0,.652,2.258,2.211,2.211,0,0,0,3.5-.012,3.955,3.955,0,0,0,.648-2.418,3.61,3.61,0,0,0-.66-2.254,2.1,2.1,0,0,0-1.754-.863,2.075,2.075,0,0,0-1.727.852A3.925,3.925,0,0,0,98.547,36.867ZM101.586,29h1.75l-2.094,2.3-1.164,0Zm6.383,3.547.047,1.063a3.08,3.08,0,0,1,2.531-1.219q2.68,0,2.7,3.023V41H111.8V35.406a1.946,1.946,0,0,0-.418-1.352,1.675,1.675,0,0,0-1.277-.437,2.086,2.086,0,0,0-1.234.375,2.546,2.546,0,0,0-.828.984V41H106.6V32.547Z" transform="translate(837.332 910)" fill="#12263f"/>
      <path id="Unión_4" data-name="Unión 4" d="M7875.591,11736.06v-19.008H7869l14.5-17.052,14.5,17.052h-6.591v19.008Z" transform="translate(14888.617 2615.125) rotate(132)" fill="#5bd3a9"/>
      <path id="Unión_8" data-name="Unión 8" d="M7875.591,11736.06v-19.008H7869l14.5-17.052,14.5,17.052h-6.591v19.008Z" transform="translate(957.514 14926.084) rotate(-146)" fill="#5bd3a9"/>
      <path id="Unión_10" data-name="Unión 10" d="M6.591,0V19.008H0L14.5,36.06,29,19.008H22.409V0Z" transform="translate(637.332 821.841) rotate(146)" fill="#5bd3a9"/>
      <path id="Unión_11" data-name="Unión 11" d="M6.591,36.06V17.052H0L14.5,0,29,17.052H22.409V36.06Z" transform="matrix(0.695, 0.719, -0.719, 0.695, 685.794, 589.101)" fill="#5bd3a9"/>
      <path id="Unión_9" data-name="Unión 9" d="M7875.591,11736.06v-19.008H7869l14.5-17.052,14.5,17.052h-6.591v19.008Z" transform="translate(-10924.029 8806) rotate(-90)" fill="#5bd3a9"/>
      <circle id="Elipse_4796" data-name="Elipse 4796" cx="39.5" cy="39.5" r="39.5" transform="translate(761.332 463)" fill="#133d60"/>
      <circle id="Elipse_4797" data-name="Elipse 4797" cx="39.5" cy="39.5" r="39.5" transform="translate(961.332 577)" fill="#133d60"/>
      <circle id="Elipse_4798" data-name="Elipse 4798" cx="39.5" cy="39.5" r="39.5" transform="translate(873.332 803)" fill="#133d60"/>
      <circle id="Elipse_4799" data-name="Elipse 4799" cx="39.5" cy="39.5" r="39.5" transform="translate(644.332 803)" fill="#133d60"/>
      <circle id="Elipse_4800" data-name="Elipse 4800" cx="39.5" cy="39.5" r="39.5" transform="translate(558.332 589)" fill="#133d60"/>
    </g>
    <path id="Trazado_127019" data-name="Trazado 127019" d="M14.879,14.658V19H11.794V6.2H16.9a5.948,5.948,0,0,1,2.6.541,4.074,4.074,0,0,1,1.749,1.538,4.2,4.2,0,0,1,.62,2.263,3.7,3.7,0,0,1-1.34,2.993,5.561,5.561,0,0,1-3.678,1.121Zm0-2.382H16.9a1.906,1.906,0,0,0,1.367-.448,1.665,1.665,0,0,0,.47-1.266,2.059,2.059,0,0,0-.483-1.433,1.712,1.712,0,0,0-1.318-.545H14.879Zm14.247-.105-.976-.07a1.752,1.752,0,0,0-1.793.879V19H23.4V9.49h2.777l.1,1.222a2.294,2.294,0,0,1,2.083-1.4,2.888,2.888,0,0,1,.826.105ZM33.319,19H30.348V9.49h2.971ZM30.172,7.038A1.322,1.322,0,0,1,30.629,6,1.943,1.943,0,0,1,33,6a1.322,1.322,0,0,1,.457,1.037A1.322,1.322,0,0,1,33,8.075a1.943,1.943,0,0,1-2.373,0A1.322,1.322,0,0,1,30.172,7.038Zm7.69,2.452.1,1.116a3.225,3.225,0,0,1,2.716-1.292,2.713,2.713,0,0,1,2.219.888,4.226,4.226,0,0,1,.76,2.672V19H40.684V13a1.6,1.6,0,0,0-.29-1.059,1.342,1.342,0,0,0-1.055-.338,1.413,1.413,0,0,0-1.292.686V19H35.085V9.49Zm11.452,7.4a1.317,1.317,0,0,0,.967-.338,1.241,1.241,0,0,0,.334-.945h2.777a3.288,3.288,0,0,1-1.121,2.566,4.168,4.168,0,0,1-2.887,1,4.22,4.22,0,0,1-3.27-1.3,5.125,5.125,0,0,1-1.2-3.6v-.123a5.792,5.792,0,0,1,.532-2.544,3.872,3.872,0,0,1,1.534-1.7,4.573,4.573,0,0,1,2.373-.593A4.116,4.116,0,0,1,52.3,10.343a3.647,3.647,0,0,1,1.09,2.786H50.616A1.626,1.626,0,0,0,50.255,12a1.244,1.244,0,0,0-.967-.4q-1.151,0-1.345,1.468a10.357,10.357,0,0,0-.062,1.283,4.068,4.068,0,0,0,.343,1.986A1.187,1.187,0,0,0,49.315,16.891ZM57.77,19H54.8V9.49H57.77ZM54.624,7.038A1.322,1.322,0,0,1,55.081,6a1.943,1.943,0,0,1,2.373,0,1.322,1.322,0,0,1,.457,1.037,1.322,1.322,0,0,1-.457,1.037,1.943,1.943,0,0,1-2.373,0A1.322,1.322,0,0,1,54.624,7.038Zm13.8,7.277a5.735,5.735,0,0,1-1,3.538,3.2,3.2,0,0,1-2.694,1.323,2.742,2.742,0,0,1-2.153-.958v4.438H59.616V9.49h2.769l.088.879a2.742,2.742,0,0,1,2.241-1.055,3.224,3.224,0,0,1,2.733,1.3,5.805,5.805,0,0,1,.976,3.564Zm-2.962-.185q0-2.531-1.477-2.531a1.394,1.394,0,0,0-1.406.756V16.1A1.439,1.439,0,0,0,64,16.891q1.415,0,1.459-2.443ZM72.852,19H69.881V9.49h2.971ZM69.706,7.038A1.322,1.322,0,0,1,70.163,6a1.943,1.943,0,0,1,2.373,0,1.322,1.322,0,0,1,.457,1.037,1.322,1.322,0,0,1-.457,1.037,1.943,1.943,0,0,1-2.373,0A1.322,1.322,0,0,1,69.706,7.038Zm4.6,7.119a5.613,5.613,0,0,1,.554-2.536,3.96,3.96,0,0,1,1.591-1.709,4.791,4.791,0,0,1,2.435-.6,4.373,4.373,0,0,1,3.366,1.323,5.076,5.076,0,0,1,1.23,3.6v.105a4.925,4.925,0,0,1-1.235,3.529A4.384,4.384,0,0,1,78.9,19.176a4.434,4.434,0,0,1-3.261-1.217,4.761,4.761,0,0,1-1.327-3.3Zm2.962.185a3.538,3.538,0,0,0,.413,1.934,1.376,1.376,0,0,0,1.222.615q1.582,0,1.617-2.435v-.3q0-2.558-1.635-2.558-1.485,0-1.608,2.206Zm12.5,1.986a.684.684,0,0,0-.4-.606,6.016,6.016,0,0,0-1.5-.475,6.853,6.853,0,0,1-1.828-.646,3.062,3.062,0,0,1-1.1-.971,2.319,2.319,0,0,1-.378-1.31,2.628,2.628,0,0,1,1.081-2.158,4.453,4.453,0,0,1,2.83-.848,4.934,4.934,0,0,1,3.023.853,2.666,2.666,0,0,1,1.143,2.241H89.666q0-1.143-1.2-1.143a1.194,1.194,0,0,0-.782.259.8.8,0,0,0-.316.646.737.737,0,0,0,.387.642,3.654,3.654,0,0,0,1.235.4,10.671,10.671,0,0,1,1.49.378,2.706,2.706,0,0,1,2.145,2.646,2.491,2.491,0,0,1-1.156,2.118,5.068,5.068,0,0,1-2.993.817,5.172,5.172,0,0,1-2.18-.439,3.645,3.645,0,0,1-1.494-1.2,2.707,2.707,0,0,1-.536-1.591h2.769a1.145,1.145,0,0,0,.439.962,1.808,1.808,0,0,0,1.081.3,1.422,1.422,0,0,0,.91-.246A.787.787,0,0,0,89.762,16.328ZM33,39.175a5.809,5.809,0,0,1,.976-3.56,3.211,3.211,0,0,1,2.725-1.3,2.731,2.731,0,0,1,2.145,1V30.5h2.971V44H39.155l-.149-1.02a2.8,2.8,0,0,1-2.32,1.2A3.205,3.205,0,0,1,34,42.875,5.993,5.993,0,0,1,33,39.175Zm2.962.185q0,2.531,1.477,2.531a1.458,1.458,0,0,0,1.406-.826V37.443a1.419,1.419,0,0,0-1.389-.844q-1.371,0-1.485,2.215ZM48.1,44.176a4.889,4.889,0,0,1-3.542-1.305,4.507,4.507,0,0,1-1.354-3.4v-.246a5.84,5.84,0,0,1,.541-2.575,3.955,3.955,0,0,1,1.578-1.727,4.763,4.763,0,0,1,2.461-.611,4.117,4.117,0,0,1,3.164,1.244,4.887,4.887,0,0,1,1.16,3.467v1.151H46.221a2.135,2.135,0,0,0,.694,1.257,2.066,2.066,0,0,0,1.389.457,2.662,2.662,0,0,0,2.2-.984l1.354,1.6a3.784,3.784,0,0,1-1.569,1.217A5.3,5.3,0,0,1,48.1,44.176ZM47.768,36.6q-1.3,0-1.547,1.723h2.988v-.229a1.467,1.467,0,0,0-.36-1.1A1.434,1.434,0,0,0,47.768,36.6ZM60.908,44H57.937V30.5h2.971Zm7.181,0a3.344,3.344,0,0,1-.281-.853,2.754,2.754,0,0,1-2.285,1.028,3.374,3.374,0,0,1-2.285-.813,2.588,2.588,0,0,1-.94-2.043,2.66,2.66,0,0,1,1.143-2.338,5.821,5.821,0,0,1,3.322-.791h.914v-.5q0-1.316-1.134-1.316a.927.927,0,0,0-1.055,1.042H62.525A2.655,2.655,0,0,1,63.7,35.175a4.931,4.931,0,0,1,2.993-.86,4.323,4.323,0,0,1,2.874.888,3.086,3.086,0,0,1,1.081,2.435v4.21a4.311,4.311,0,0,0,.4,2V44Zm-1.854-1.934a1.652,1.652,0,0,0,.918-.237,1.487,1.487,0,0,0,.523-.536V39.772h-.861q-1.547,0-1.547,1.389a.848.848,0,0,0,.272.655A.986.986,0,0,0,66.234,42.066ZM5.08,69H2V56.2H5.08Zm4.729-9.51.1,1.116a3.225,3.225,0,0,1,2.716-1.292,2.713,2.713,0,0,1,2.219.888,4.226,4.226,0,0,1,.76,2.672V69H12.629V63a1.6,1.6,0,0,0-.29-1.059,1.342,1.342,0,0,0-1.055-.338,1.413,1.413,0,0,0-1.292.686V69H7.031V59.49Zm10.881-2.364V59.49h1.564v2.057H20.689V65.9a1.111,1.111,0,0,0,.193.747,1.037,1.037,0,0,0,.765.211,4.345,4.345,0,0,0,.738-.053v2.118a5.466,5.466,0,0,1-1.67.255,3.1,3.1,0,0,1-2.259-.721,2.954,2.954,0,0,1-.729-2.188v-4.72H16.514V59.49h1.213V57.126Zm7.33,12.05a4.889,4.889,0,0,1-3.542-1.305,4.507,4.507,0,0,1-1.354-3.4v-.246a5.84,5.84,0,0,1,.541-2.575,3.955,3.955,0,0,1,1.578-1.727,4.763,4.763,0,0,1,2.461-.611,4.117,4.117,0,0,1,3.164,1.244,4.887,4.887,0,0,1,1.16,3.467v1.151H26.138a2.135,2.135,0,0,0,.694,1.257,2.066,2.066,0,0,0,1.389.457,2.662,2.662,0,0,0,2.2-.984l1.354,1.6A3.784,3.784,0,0,1,30.2,68.723,5.3,5.3,0,0,1,28.019,69.176ZM27.685,61.6q-1.3,0-1.547,1.723h2.988v-.229a1.467,1.467,0,0,0-.36-1.1A1.434,1.434,0,0,0,27.685,61.6Zm11.285.571-.976-.07a1.752,1.752,0,0,0-1.793.879V69H33.24V59.49h2.777l.1,1.222a2.294,2.294,0,0,1,2.083-1.4,2.888,2.888,0,0,1,.826.105Zm5.019,3.3,1.5-5.985h3.12L45.509,69H42.486l-3.1-9.51h3.129Zm10.107,3.7a4.889,4.889,0,0,1-3.542-1.305,4.507,4.507,0,0,1-1.354-3.4v-.246a5.84,5.84,0,0,1,.541-2.575,3.955,3.955,0,0,1,1.578-1.727,4.763,4.763,0,0,1,2.461-.611,4.117,4.117,0,0,1,3.164,1.244,4.887,4.887,0,0,1,1.16,3.467v1.151H52.215a2.135,2.135,0,0,0,.694,1.257,2.066,2.066,0,0,0,1.389.457,2.662,2.662,0,0,0,2.2-.984l1.354,1.6a3.784,3.784,0,0,1-1.569,1.217A5.3,5.3,0,0,1,54.1,69.176ZM53.762,61.6q-1.3,0-1.547,1.723H55.2v-.229a1.467,1.467,0,0,0-.36-1.1A1.434,1.434,0,0,0,53.762,61.6Zm8.253-2.109.1,1.116a3.225,3.225,0,0,1,2.716-1.292,2.713,2.713,0,0,1,2.219.888,4.226,4.226,0,0,1,.76,2.672V69H64.836V63a1.6,1.6,0,0,0-.29-1.059,1.342,1.342,0,0,0-1.055-.338,1.413,1.413,0,0,0-1.292.686V69H59.238V59.49Zm11.452,7.4a1.317,1.317,0,0,0,.967-.338,1.241,1.241,0,0,0,.334-.945h2.777a3.288,3.288,0,0,1-1.121,2.566,4.168,4.168,0,0,1-2.887,1,4.22,4.22,0,0,1-3.27-1.3,5.125,5.125,0,0,1-1.2-3.6v-.123A5.792,5.792,0,0,1,69.6,61.6a3.872,3.872,0,0,1,1.534-1.7,4.573,4.573,0,0,1,2.373-.593,4.116,4.116,0,0,1,2.944,1.028,3.647,3.647,0,0,1,1.09,2.786H74.768A1.626,1.626,0,0,0,74.408,62a1.244,1.244,0,0,0-.967-.4q-1.151,0-1.345,1.468a10.357,10.357,0,0,0-.062,1.283,4.068,4.068,0,0,0,.343,1.986A1.187,1.187,0,0,0,73.467,66.891ZM81.922,69H78.952V59.49h2.971ZM78.776,57.038A1.322,1.322,0,0,1,79.233,56a1.943,1.943,0,0,1,2.373,0,1.405,1.405,0,0,1,0,2.074,1.943,1.943,0,0,1-2.373,0A1.322,1.322,0,0,1,78.776,57.038Zm4.6,7.119a5.613,5.613,0,0,1,.554-2.536,3.96,3.96,0,0,1,1.591-1.709,4.791,4.791,0,0,1,2.435-.6,4.373,4.373,0,0,1,3.366,1.323,5.076,5.076,0,0,1,1.23,3.6v.105a4.925,4.925,0,0,1-1.235,3.529,4.384,4.384,0,0,1-3.344,1.305,4.434,4.434,0,0,1-3.261-1.217,4.761,4.761,0,0,1-1.327-3.3Zm2.962.185a3.538,3.538,0,0,0,.413,1.934,1.376,1.376,0,0,0,1.222.615q1.582,0,1.617-2.435v-.3q0-2.558-1.635-2.558-1.485,0-1.608,2.206ZM88.356,55.5h3.129l-2.443,2.76-2.417,0Zm8.218,3.99.1,1.116a3.225,3.225,0,0,1,2.716-1.292,2.713,2.713,0,0,1,2.219.888,4.226,4.226,0,0,1,.76,2.672V69H99.4V63a1.6,1.6,0,0,0-.29-1.059A1.342,1.342,0,0,0,98.05,61.6a1.413,1.413,0,0,0-1.292.686V69H93.8V59.49Z" transform="translate(959 667.5)" fill="#12263f"/>
    <g id="eFZj6C" transform="translate(-1387.153 -1867.814)">
      <g id="Grupo_133652" data-name="Grupo 133652" transform="translate(2376.807 2312.141)">
        <path id="Trazado_126700" data-name="Trazado 126700" d="M2376.807,2368.775a16.106,16.106,0,0,1,1.029-2.721,6.122,6.122,0,0,1,5.324-3.144c3.262-.083,6.527-.03,9.791-.026a.969.969,0,0,1,1.054.931c.011.566-.435.963-1.119.964q-4.54.007-9.079,0a4.8,4.8,0,0,0-5.1,5.076q0,7.011,0,14.022a4.793,4.793,0,0,0,5.031,5.048c1.885,0,3.771.006,5.656,0a1.377,1.377,0,0,1,1.1.516c.7.765,1.478,1.467,2.281,2.25,0-.555,0-1.067,0-1.58.008-.833.354-1.18,1.2-1.18q4.872,0,9.745,0a4.791,4.791,0,0,0,5.027-5.005c0-1.98,0-3.961,0-5.941a2.663,2.663,0,0,1,.041-.566.926.926,0,0,1,1.812-.016,2.045,2.045,0,0,1,.045.47c0,2.091.016,4.183,0,6.274a6.609,6.609,0,0,1-5.258,6.52,7.8,7.8,0,0,1-1.649.158c-2.994.015-5.988.007-9.06.007v1.274c0,.539-.026,1.079.007,1.616a1.24,1.24,0,0,1-.673,1.294h-.57c-.317-.281-.647-.547-.948-.844-1.024-1.01-2.03-2.041-3.065-3.04a1.115,1.115,0,0,0-.69-.287c-1.85-.026-3.7.039-5.55-.035a6.224,6.224,0,0,1-5.357-3.155,16.069,16.069,0,0,1-1.026-2.716Z" transform="translate(-2376.807 -2346.328)" fill="#fff"/>
        <path id="Trazado_126701" data-name="Trazado 126701" d="M2448.9,2312.163a15.046,15.046,0,0,1,5.923.8,13.806,13.806,0,0,1,4.68,23.174,1.7,1.7,0,0,0-.631,1.409c.045,1.472.009,2.946.018,4.419a.995.995,0,0,1-1.8.749c-1.017-1.021-2.044-2.033-3.054-3.061a.713.713,0,0,0-.736-.236,20.859,20.859,0,0,1-9.227-.175,13.779,13.779,0,0,1-10.014-14.543,13.477,13.477,0,0,1,5.2-9.569A13.857,13.857,0,0,1,2448.9,2312.163Zm8.085,27.772c0-1.132.041-2.127-.013-3.118a1.8,1.8,0,0,1,.774-1.661,10.965,10.965,0,0,0,3.68-5.2,11.6,11.6,0,0,0-1.3-10.535,11.455,11.455,0,0,0-8-5.186,19.778,19.778,0,0,0-5.776-.054,11.973,11.973,0,0,0-3.449.966,11.888,11.888,0,0,0-2.5,20.129,11.153,11.153,0,0,0,6.851,2.573,19.148,19.148,0,0,0,6.223-.428,1.272,1.272,0,0,1,1.408.392C2455.539,2338.5,2456.219,2339.162,2456.989,2339.935Z" transform="translate(-2415.35 -2312.14)" fill="#fff"/>
        <path id="Trazado_126702" data-name="Trazado 126702" d="M2403.6,2402.573h9.6a3.229,3.229,0,0,1,.474.017.938.938,0,0,1,0,1.867,3.3,3.3,0,0,1-.474.016h-19.392c-.771,0-1.229-.359-1.229-.951s.458-.949,1.229-.95Q2398.7,2402.571,2403.6,2402.573Z" transform="translate(-2387.436 -2373.091)" fill="#fff"/>
        <path id="Trazado_126703" data-name="Trazado 126703" d="M2401.745,2418.9q3.872,0,7.743,0a2.351,2.351,0,0,1,.655.074.922.922,0,0,1-.011,1.751,2.373,2.373,0,0,1-.656.071q-7.791.005-15.582,0h-.143c-.727-.008-1.179-.377-1.175-.956s.456-.943,1.187-.944Q2397.754,2418.9,2401.745,2418.9Z" transform="translate(-2387.436 -2384.097)" fill="#fff"/>
        <path id="Trazado_126704" data-name="Trazado 126704" d="M2400.475,2386.242q3.3,0,6.606,0a2.275,2.275,0,0,1,.563.054.91.91,0,0,1,.694.91.9.9,0,0,1-.678.874,2.073,2.073,0,0,1-.563.059q-6.63,0-13.26,0a2.5,2.5,0,0,1-.473-.028.932.932,0,0,1-.016-1.838,2.673,2.673,0,0,1,.52-.032Q2397.171,2386.241,2400.475,2386.242Z" transform="translate(-2387.435 -2362.084)" fill="#fff"/>
        <path id="Trazado_126705" data-name="Trazado 126705" d="M2455.036,2418.927a.943.943,0,1,1-.93.955A.98.98,0,0,1,2455.036,2418.927Z" transform="translate(-2428.906 -2384.114)" fill="#fff"/>
        <path id="Trazado_126706" data-name="Trazado 126706" d="M2471.673,2341.554c0-.365-.009-.729,0-1.093a1.743,1.743,0,0,1,1.239-1.674c.149-.052.3-.1.449-.152a2.11,2.11,0,0,0,1.337-2.358,2.138,2.138,0,0,0-2.135-1.736,2.1,2.1,0,0,0-2.039,1.832c-.124.909-.478,1.288-1.126,1.205-.591-.075-.831-.512-.762-1.391a3.994,3.994,0,0,1,6.93-2.238,3.983,3.983,0,0,1-1.665,6.5.416.416,0,0,0-.338.47c.02.6.026,1.2,0,1.8a.948.948,0,1,1-1.891-.028c-.006-.142,0-.285,0-.427v-.713Z" transform="translate(-2438.693 -2325.962)" fill="#fff"/>
        <path id="Trazado_126707" data-name="Trazado 126707" d="M2479.862,2373.292a.955.955,0,0,1-.922.953.93.93,0,0,1-.959-.909.947.947,0,0,1,.915-.962A.97.97,0,0,1,2479.862,2373.292Z" transform="translate(-2444.997 -2352.737)" fill="#fff"/>
      </g>
    </g>
    <g id="_82nCaA" data-name="82nCaA" transform="translate(-1531.959 -1766.307)">
      <g id="Grupo_133653" data-name="Grupo 133653" transform="translate(2724.98 2327.123)">
        <path id="Trazado_126708" data-name="Trazado 126708" d="M2740.739,2347.716c.131-.153.178-.213.231-.267a9.1,9.1,0,0,1,13.282.513,9.781,9.781,0,0,1,1.95,3.749.7.7,0,0,0,.916.558.721.721,0,0,0,.463-.968c-.126-.45-.263-.9-.431-1.334a10.547,10.547,0,0,0-20.329,3.7c-.021.559.239.911.688.931s.725-.257.757-.81a10.8,10.8,0,0,1,.746-3.485,1.428,1.428,0,0,1,1.031-.909,6.946,6.946,0,0,1,1.281-.242,8.308,8.308,0,0,1,5.6,1.645,6,6,0,0,1,2.6,5,10.581,10.581,0,0,1-.588,3.466.735.735,0,0,0,.434,1.028c.427.127.769-.075.945-.593.15-.442.289-.89.4-1.343a8.1,8.1,0,0,0-5.016-9.906A10.348,10.348,0,0,0,2740.739,2347.716Zm3.341,27.613a5.353,5.353,0,0,0,3.7-1.1,9.181,9.181,0,0,0,2.087-2.462q2.236-3.569,4.477-7.134c.395-.629.807-1.248,1.18-1.889a16.958,16.958,0,0,0,2.336-7.659c.03-.533-.175-.847-.587-.906-.448-.064-.751.19-.847.72-.026.142-.021.291-.047.433-.176,1-.3,2.013-.55,2.993a17.219,17.219,0,0,1-2.5,5.214c-1.661,2.483-3.365,4.936-4.784,7.573a7.648,7.648,0,0,1-1.069,1.431,4,4,0,0,1-4.558,1.041,4.129,4.129,0,0,1-2.539-3.749,4.806,4.806,0,0,1,1.413-3.291,3.694,3.694,0,0,0,.588-4.045,3.781,3.781,0,0,0-3.3-2.409c-.678-.066-1.013.13-1.068.6s.24.737.907.832c.048.007.1.009.145.017a2.418,2.418,0,0,1,2.032,1.648,2.712,2.712,0,0,1-.756,2.873,5.352,5.352,0,0,0-.833,6.137A5.12,5.12,0,0,0,2744.08,2375.328Zm19.864-10.964a13.471,13.471,0,0,0,3.873,9.492.732.732,0,1,0,1.076-.974c-.165-.2-.354-.377-.52-.576a11.942,11.942,0,0,1-2.339-11.8,11.763,11.763,0,0,1,2.825-4.634.739.739,0,0,0,.065-1.117c-.322-.307-.765-.25-1.146.151A13.5,13.5,0,0,0,2763.944,2364.364Zm4.352-.007a8.931,8.931,0,0,0,.661,3.45,9.246,9.246,0,0,0,1.98,3.019.652.652,0,0,0,.87.171,1.058,1.058,0,0,0,.375-.7,1.02,1.02,0,0,0-.331-.61,7.387,7.387,0,0,1-1.583-2.529,7.669,7.669,0,0,1,1.617-8.145c.4-.444.436-.894.1-1.192s-.764-.229-1.178.215A9.086,9.086,0,0,0,2768.3,2364.358Zm4.354.026a4.7,4.7,0,0,0,1.109,3.063c.512.611.9.734,1.288.4.374-.32.33-.717-.158-1.306a3.3,3.3,0,0,1-.756-1.749,3.527,3.527,0,0,1,.943-2.846.7.7,0,0,0-.041-1.072.73.73,0,0,0-1.07.155A4.841,4.841,0,0,0,2772.65,2364.384Z" transform="translate(-2732.199 -2337.014)" fill="#fff"/>
        <path id="Trazado_126709" data-name="Trazado 126709" d="M2741.794,2327.123c1.045.188,2.108.307,3.132.577a15.362,15.362,0,0,1,9.017,6.452,16.481,16.481,0,0,1,2.647,10.46,23.941,23.941,0,0,1-5.13,13.254c-1.408,1.889-2.744,3.836-4.031,5.81a18.371,18.371,0,0,0-2.056,4.9,14.973,14.973,0,0,1-2.417,5.036,8.122,8.122,0,0,1-6.235,3.16,10.822,10.822,0,0,1-7.213-2.048,1.165,1.165,0,0,1-.463-.727c-.052-.6.61-.848,1.2-.519a16.865,16.865,0,0,0,2.48,1.292,8.659,8.659,0,0,0,6.879-.221,7.425,7.425,0,0,0,3.542-4.146c.567-1.386.977-2.836,1.494-4.244a26.382,26.382,0,0,1,3.427-6.162c1.425-2,2.9-3.971,4.214-6.039a18.937,18.937,0,0,0,2.814-8.965,16.791,16.791,0,0,0-.477-5.956,14.122,14.122,0,0,0-6-8.122,14.3,14.3,0,0,0-18.206,2.167,14.325,14.325,0,0,0-3.957,10.265q.021,11.106,0,22.214a9.907,9.907,0,0,0,1.462,5.439c.314.5.255.9-.127,1.148s-.8.1-1.121-.411a10.224,10.224,0,0,1-1.65-5.5c-.019-7.792-.09-15.586.016-23.377.083-6.1,2.928-10.7,8.188-13.77a14.473,14.473,0,0,1,6.254-1.891,3.167,3.167,0,0,0,.375-.074Z" transform="translate(-2724.98 -2327.123)" fill="#fff"/>
        <path id="Trazado_126710" data-name="Trazado 126710" d="M2740.739,2347.716a10.348,10.348,0,0,1,4.959.735,8.1,8.1,0,0,1,5.016,9.906c-.114.453-.252.9-.4,1.343-.177.518-.518.72-.945.593a.735.735,0,0,1-.434-1.028,10.581,10.581,0,0,0,.588-3.466,6,6,0,0,0-2.6-5,8.308,8.308,0,0,0-5.6-1.645,6.946,6.946,0,0,0-1.281.242,1.428,1.428,0,0,0-1.031.909,10.8,10.8,0,0,0-.746,3.485c-.032.553-.311.83-.757.81s-.708-.372-.687-.931a10.547,10.547,0,0,1,20.329-3.7c.169.436.305.885.431,1.334a.721.721,0,0,1-.463.968.7.7,0,0,1-.916-.558,9.781,9.781,0,0,0-1.95-3.749,9.1,9.1,0,0,0-13.282-.513C2740.917,2347.5,2740.87,2347.563,2740.739,2347.716Z" transform="translate(-2732.199 -2337.014)" fill="#fff"/>
        <path id="Trazado_126711" data-name="Trazado 126711" d="M2745.932,2392.253a5.12,5.12,0,0,1-4.575-3.129,5.352,5.352,0,0,1,.833-6.137,2.712,2.712,0,0,0,.756-2.873,2.418,2.418,0,0,0-2.032-1.648c-.048-.007-.1-.01-.145-.017-.668-.094-.961-.363-.907-.832s.39-.67,1.068-.6a3.781,3.781,0,0,1,3.3,2.409,3.694,3.694,0,0,1-.588,4.045,4.806,4.806,0,0,0-1.413,3.291,4.129,4.129,0,0,0,2.539,3.749,4,4,0,0,0,4.558-1.041,7.648,7.648,0,0,0,1.069-1.431c1.419-2.637,3.123-5.09,4.784-7.573a17.219,17.219,0,0,0,2.5-5.214c.254-.979.374-1.993.55-2.993.025-.142.021-.291.047-.433.1-.531.4-.785.847-.72.412.06.617.374.587.906a16.958,16.958,0,0,1-2.336,7.659c-.373.642-.785,1.26-1.18,1.889q-2.239,3.567-4.477,7.134a9.181,9.181,0,0,1-2.087,2.462A5.353,5.353,0,0,1,2745.932,2392.253Z" transform="translate(-2734.051 -2353.938)" fill="#fff"/>
        <path id="Trazado_126712" data-name="Trazado 126712" d="M2806.345,2381.9a13.5,13.5,0,0,1,3.835-9.456c.381-.4.823-.458,1.146-.151a.739.739,0,0,1-.064,1.117,11.762,11.762,0,0,0-2.825,4.634,11.942,11.942,0,0,0,2.338,11.8c.165.2.355.377.52.576a.732.732,0,1,1-1.076.974,13.471,13.471,0,0,1-3.873-9.492Z" transform="translate(-2774.6 -2354.552)" fill="#fff"/>
        <path id="Trazado_126713" data-name="Trazado 126713" d="M2817.5,2386.7a9.087,9.087,0,0,1,2.516-6.321c.414-.444.84-.521,1.178-.215s.294.748-.1,1.192a7.669,7.669,0,0,0-1.617,8.145,7.394,7.394,0,0,0,1.583,2.53,1.02,1.02,0,0,1,.331.609,1.059,1.059,0,0,1-.375.7.653.653,0,0,1-.871-.171,9.25,9.25,0,0,1-1.98-3.019A8.931,8.931,0,0,1,2817.5,2386.7Z" transform="translate(-2781.402 -2359.359)" fill="#fff"/>
        <path id="Trazado_126714" data-name="Trazado 126714" d="M2828.659,2391.521a4.842,4.842,0,0,1,1.314-3.357.73.73,0,0,1,1.07-.155.7.7,0,0,1,.041,1.072,3.529,3.529,0,0,0-.943,2.847,3.3,3.3,0,0,0,.757,1.749c.489.589.532.987.158,1.306-.391.334-.775.211-1.288-.4A4.708,4.708,0,0,1,2828.659,2391.521Z" transform="translate(-2788.208 -2364.15)" fill="#fff"/>
      </g>
    </g>
    <g id="vImdG7" transform="translate(-219.032 -1127.823)">
      <g id="Grupo_133654" data-name="Grupo 133654" transform="translate(1322.809 1919.462)">
        <path id="Trazado_126715" data-name="Trazado 126715" d="M1327.923,1988.058a2.029,2.029,0,0,1-1.18-1.337c-1.24-3.344-2.5-6.679-3.759-10.018a1.5,1.5,0,0,1,1.005-2.214l10.976-4.135a1.44,1.44,0,0,1,2.118.791c.406-.165.817-.331,1.228-.5.757-.312,1.524-.6,2.268-.945a7.293,7.293,0,0,1,3.085-.62c1.667,0,3.335.021,5-.017a2.934,2.934,0,0,1,3.066,1.552c1-.828,1.964-1.629,2.929-2.428,1.264-1.046,2.511-2.113,3.8-3.129a2.874,2.874,0,0,1,3.224-.465,2.785,2.785,0,0,1,1.266,3.722,4.336,4.336,0,0,1-.7,1.1q-4.45,4.807-8.935,9.58a5.823,5.823,0,0,1-4.089,1.758c-.607.032-1.217.009-1.826,0-.434-.005-.7-.239-.7-.591s.269-.578.7-.6c.935-.047,1.88-.032,2.8-.167a3.971,3.971,0,0,0,2.322-1.281q3.636-3.883,7.258-7.779c.515-.551,1.039-1.095,1.538-1.659a2.092,2.092,0,0,0,.649-2.02,1.613,1.613,0,0,0-2.653-.753c-1.123.883-2.213,1.807-3.315,2.717-1.255,1.037-2.51,2.071-3.753,3.122a1.179,1.179,0,0,0-.342.541,2.707,2.707,0,0,1-2.362,2.1c-1.569.231-3.136.477-4.706.708a1.262,1.262,0,0,1-.547-.015.519.519,0,0,1-.365-.59.6.6,0,0,1,.582-.553c.548-.087,1.1-.16,1.648-.243,1.1-.165,2.2-.325,3.293-.5a1.533,1.533,0,0,0,1.34-1.53,1.464,1.464,0,0,0-1.509-1.386q-3.333.006-6.666.079a3.442,3.442,0,0,0-1.147.28c-1.266.5-2.519,1.03-3.776,1.55-.059.024-.114.061-.206.111l3.141,8.332c.31-.129.59-.237.863-.359a7.63,7.63,0,0,1,2.791-.69c.471-.022.761.151.8.513.045.4-.192.654-.691.668a8.6,8.6,0,0,0-3.3.982,2.11,2.11,0,0,0,.027.233,1.308,1.308,0,0,1-.86,1.648c-1.281.5-2.568.977-3.854,1.46l-7.79,2.924c-.023.009-.039.033-.058.051Zm4.041-15.265a1.385,1.385,0,0,0-.176.032c-2.484.935-4.967,1.876-7.455,2.8-.367.137-.357.341-.241.648q1.927,5.1,3.842,10.2c.159.423.224.445.686.271q3.56-1.34,7.12-2.682c.131-.049.255-.113.4-.179C1334.744,1980.17,1333.357,1976.49,1331.964,1972.793Zm5.3,10.693c.824-.312,1.582-.616,2.354-.882.325-.112.4-.239.269-.57-.809-2.106-1.6-4.22-2.394-6.331q-.76-2.019-1.52-4.037c-.068-.181-.124-.37-.381-.274-.837.314-1.672.631-2.526.954Z" transform="translate(-1322.809 -1947.402)" fill="#fff"/>
        <path id="Trazado_126716" data-name="Trazado 126716" d="M1361.4,1942.43a2.13,2.13,0,0,1-.667,2.791,9.2,9.2,0,0,1,1.022.451,2.208,2.208,0,0,1,1.137,2c0,.594,0,1.188,0,1.814h5.706c0-.479,0-.938,0-1.4,0-.5.22-.777.6-.771s.586.285.592.788c0,.383,0,.767,0,1.151a1.277,1.277,0,0,1-1.466,1.453q-9.03,0-18.061,0c-.225,0-.45,0-.675,0a1.213,1.213,0,0,1-1.22-1.209c-.013-2.064-.06-4.131.02-6.191a3.73,3.73,0,0,1,2.228-3.155,4.748,4.748,0,0,1,2.278-.6,15.787,15.787,0,0,1,4.067.194,4.557,4.557,0,0,1,2.382,1.489,1.482,1.482,0,0,0,1.466.231,4.7,4.7,0,0,1,2.561-.715c.886,0,1.774-.011,2.658.04a4.046,4.046,0,0,1,3.624,2.807,6.238,6.238,0,0,1,.124,1.494.566.566,0,0,1-.622.618.575.575,0,0,1-.552-.645,3.107,3.107,0,0,0-.334-1.724,2.73,2.73,0,0,0-2.153-1.328,31.264,31.264,0,0,0-3.638.047A4.185,4.185,0,0,0,1361.4,1942.43Zm-3.056-.53a3.028,3.028,0,0,0-1.848-1.029,29.848,29.848,0,0,0-3.122-.137,5.766,5.766,0,0,0-1.485.193,2.969,2.969,0,0,0-2.351,3.019c.054,1.7.012,3.411.012,5.118v.432h6.836c0-.646-.006-1.265,0-1.885a2.159,2.159,0,0,1,1.053-1.889,8.532,8.532,0,0,1,1.082-.5C1357.36,1944.027,1357.3,1943.1,1358.346,1941.9Zm3.31,7.6c.02-.046.038-.07.038-.093,0-.542.008-1.084.008-1.627a1.117,1.117,0,0,0-.995-1.268,9.983,9.983,0,0,0-2.165,0,.984.984,0,0,0-.925.86c-.065.7-.017,1.416-.017,2.124Zm-2-6.833a.837.837,0,0,0-.852.813.835.835,0,1,0,1.67.032A.832.832,0,0,0,1359.656,1942.664Z" transform="translate(-1338.726 -1931.961)" fill="#fff"/>
        <path id="Trazado_126717" data-name="Trazado 126717" d="M1354.9,1922.963a3.489,3.489,0,1,1,3.482,3.482A3.507,3.507,0,0,1,1354.9,1922.963Zm1.191,0a2.3,2.3,0,0,0,2.3,2.29,2.3,2.3,0,1,0-2.3-2.29Z" transform="translate(-1342.812 -1919.462)" fill="#fff"/>
        <path id="Trazado_126718" data-name="Trazado 126718" d="M1385.738,1931.1a3.18,3.18,0,1,1,3.181-3.169A3.189,3.189,0,0,1,1385.738,1931.1Zm-.012-1.191a1.973,1.973,0,0,0,2-1.966,1.988,1.988,0,1,0-2,1.966Z" transform="translate(-1360.054 -1922.752)" fill="#fff"/>
      </g>
    </g>
    <g id="_8zyr0U" data-name="8zyr0U" transform="translate(-2345.328 558.554)">
      <g id="Grupo_133655" data-name="Grupo 133655" transform="translate(3218.66 225.901)">
        <path id="Trazado_126719" data-name="Trazado 126719" d="M3257.064,225.9a2.4,2.4,0,0,1,1.2,1.132c.829,1.46,1.695,2.9,2.54,4.351a1.6,1.6,0,0,1-.459,2.368c-.266.21-.528.428-.809.617a1.514,1.514,0,0,1-1.959-.144q-2.063-1.981-4.1-3.992a1.485,1.485,0,0,1,.078-2.27c.887-.718,1.82-1.378,2.733-2.063Zm2.616,6.442-2.951-5.03-2.4,1.879a3.345,3.345,0,0,1,.462.308q1.516,1.46,3.021,2.933c.894.87.894.871,1.82.006A.562.562,0,0,0,3259.681,232.343Z" transform="translate(-3239.481 -225.901)" fill="#fff"/>
        <path id="Trazado_126720" data-name="Trazado 126720" d="M3222.159,286.737c.855-.236,1.635-.435,2.406-.667a4.876,4.876,0,0,1,4.5.785,4.62,4.62,0,0,0,4.22.747c2.186-.626,4.379-1.223,6.633-1.851-.126-.454-.244-.881-.363-1.309q-.968-3.474-1.939-6.948a2.109,2.109,0,0,0-2.856-1.6c-.825.227-1.646.469-2.474.685-.61.159-1.123-.188-1.008-.716a1,1,0,0,1,.544-.637,28.786,28.786,0,0,1,2.981-.84,3.5,3.5,0,0,1,4.16,2.533c.638,2.2,1.237,4.413,1.854,6.62.047.169.105.334.157.494q4-.169,4.8,2.954c.517,2-.409,3.711-2.63,4.83a10.1,10.1,0,0,1-1.444,8.805,9.825,9.825,0,0,1-6.109,4.06,10.189,10.189,0,0,1-12.011-7.428,4.051,4.051,0,0,1-3.66-1.006,3.782,3.782,0,0,1-1.208-2.266,4.044,4.044,0,0,1,2.693-4.469c-.021-.112-.035-.234-.068-.352q-.664-2.4-1.334-4.8a3.566,3.566,0,0,1,2.667-4.732c.665-.178,1.356-.259,2.075-.393.063-.233.122-.532.226-.814a2.77,2.77,0,0,1,1.615-1.71,17.44,17.44,0,0,1,2.087-.612.692.692,0,0,1,.862.51.714.714,0,0,1-.508.868c-.521.171-1.056.3-1.58.461a1.578,1.578,0,0,0-1.2,1.8c.086.951-.155,1.181-1.122,1.068a5.289,5.289,0,0,0-2.607.407,1.966,1.966,0,0,0-1.226,2.193C3221.521,284.5,3221.853,285.585,3222.159,286.737Zm.4,1.372c.872,3.127,1.678,6.152,2.561,9.155a8.682,8.682,0,0,0,9.786,6.083,8.589,8.589,0,0,0,7.15-9.1,25.774,25.774,0,0,0-.909-4.1c-.247-1-.551-1.981-.836-2.993-2.164.6-4.286,1.155-6.385,1.785a6.187,6.187,0,0,1-5.78-.953,3,3,0,0,0-2.269-.674C3224.767,287.5,3223.685,287.83,3222.555,288.109Zm20.162,2.24a2.483,2.483,0,0,0,1.6-3.152,2.432,2.432,0,0,0-2.943-1.653Q3242.045,287.943,3242.717,290.348Zm-19.534,5.432-1.342-4.8a2.5,2.5,0,0,0,1.342,4.8Z" transform="translate(-3218.659 -255.26)" fill="#fff"/>
        <path id="Trazado_126721" data-name="Trazado 126721" d="M3293.265,253.03a10,10,0,0,1-3.778,5.529c-.608.446-1.009.465-1.314.07-.317-.411-.177-.78.468-1.254a7.886,7.886,0,0,0,2.981-4.023c.668-2.14,1.31-4.295,1.8-6.48a14.852,14.852,0,0,0,.073-3.124,1.28,1.28,0,0,0-.11-.344,9.769,9.769,0,0,1-8.026,1.151,9.892,9.892,0,0,1-6.23-5.228,8.257,8.257,0,0,0-1.85,2.9c-.052.136-.094.276-.156.407a.718.718,0,0,1-1.358-.466c.049-.217.135-.426.2-.637a2.312,2.312,0,0,0-2.822,1.406,2.414,2.414,0,0,0,1.458,3.207c.072-.244.14-.489.218-.731a.735.735,0,1,1,1.4.408c-.286,1.092-.652,2.168-.865,3.274a8.419,8.419,0,0,0,8.595,9.881,14.275,14.275,0,0,0,1.536-.188c.517-.081.882.1.982.535s-.154.768-.666.889a9.9,9.9,0,0,1-11.988-8.719,11.511,11.511,0,0,1,.009-1.933c.055-.64.206-1.271.326-1.971a3.99,3.99,0,0,1-2.533-2.825,3.757,3.757,0,0,1,.26-2.553,3.938,3.938,0,0,1,4.688-2.119,23.761,23.761,0,0,1,2.061-2.266,9.9,9.9,0,0,1,16.349,6.039c.076.46-.067,1.019.151,1.373.2.321.768.4,1.143.63a3.912,3.912,0,0,1-2.633,7.189C3293.528,253.043,3293.416,253.041,3293.265,253.03Zm-.356-11.1a8.327,8.327,0,0,0-12.577-3.549A8.391,8.391,0,0,0,3292.908,241.926Zm2.08,4.956c-.439,1.581-.868,3.124-1.3,4.665a2.37,2.37,0,0,0,2.84-1.616A2.422,2.422,0,0,0,3294.988,246.883Z" transform="translate(-3250.712 -231.593)" fill="#fff"/>
        <path id="Trazado_126722" data-name="Trazado 126722" d="M3300.594,306.484c-1.651-.1-3.329-.2-5-.322-1.2-.087-1.688-.621-1.742-1.829-.008-.177-.017-.355-.033-.532a1.613,1.613,0,0,1,1.451-1.97c1.771-.362,3.54-.737,5.313-1.087a1.537,1.537,0,0,1,1.9,1.48c.051.709.038,1.429.157,2.125A1.691,1.691,0,0,1,3300.594,306.484Zm.41-4.323c-.212.029-.37.042-.524.074q-2.2.459-4.4.923c-.827.175-.8.177-.795,1.01,0,.425.154.545.56.565,1.466.074,2.93.186,4.4.276.314.019.63,0,.974,0Z" transform="translate(-3264.236 -271.275)" fill="#fff"/>
        <path id="Trazado_126723" data-name="Trazado 126723" d="M3244.8,244.773a5.213,5.213,0,0,1-.647-.211q-2.451-1.091-4.892-2.2a1.56,1.56,0,0,1-.746-2.456c.423-.687.847-1.372,1.28-2.052a1.545,1.545,0,0,1,2.476-.393q2.076,1.705,4.136,3.43a1.573,1.573,0,0,1,.376,2.3c-.185.3-.368.607-.569.9A1.621,1.621,0,0,1,3244.8,244.773Zm-5.2-3.852,5.377,2.417.718-1.156-4.538-3.76Z" transform="translate(-3230.501 -232.636)" fill="#fff"/>
        <path id="Trazado_126724" data-name="Trazado 126724" d="M3304.367,320.854c-.012.063-.032.223-.075.377-.234.838-.462,1.677-.714,2.51a1.523,1.523,0,0,1-2.132,1.043q-2.623-1.117-5.222-2.292a1.489,1.489,0,0,1-.875-1.756,9.631,9.631,0,0,1,.388-1.345,1.505,1.505,0,0,1,1.645-1q2.85.4,5.693.844A1.531,1.531,0,0,1,3304.367,320.854Zm-2.238,2.648.8-2.792c-.175-.042-.3-.081-.421-.1q-2.25-.335-4.5-.664c-.911-.135-.9-.133-1.167.781-.092.312-.033.451.276.581,1.263.532,2.513,1.1,3.768,1.647Z" transform="translate(-3265.151 -281.993)" fill="#fff"/>
        <path id="Trazado_126725" data-name="Trazado 126725" d="M3245.533,259.686c-.086.367-.179.943-.361,1.49a1.481,1.481,0,0,1-1.528.967c-1.882-.131-3.765-.269-5.645-.431a1.522,1.522,0,0,1-1.424-1.97c.169-.821.338-1.642.517-2.46a1.539,1.539,0,0,1,2.12-1.209q2.6.9,5.189,1.848A1.621,1.621,0,0,1,3245.533,259.686Zm-7.578.538c.194.032.348.07.5.082,1.5.11,3,.223,4.495.321.88.057.86.041,1.078-.837.089-.361-.035-.48-.346-.588-1.569-.547-3.131-1.113-4.7-1.669-.129-.046-.266-.072-.438-.118Z" transform="translate(-3229.497 -244.135)" fill="#fff"/>
        <path id="Trazado_126726" data-name="Trazado 126726" d="M3295,334.589a5.211,5.211,0,0,1-.4.911c-.488.722-1.008,1.424-1.533,2.12a1.529,1.529,0,0,1-2.4.212q-2.029-1.912-4.027-3.854a1.528,1.528,0,0,1-.183-2.142c.22-.319.443-.637.688-.937a1.483,1.483,0,0,1,1.873-.44c1.731.9,3.447,1.835,5.159,2.774A1.652,1.652,0,0,1,3295,334.589Zm-7.417-1.716,4.218,4.027,1.712-2.359c-.184-.112-.314-.2-.452-.276q-1.875-1.012-3.751-2.02c-1.065-.573-1.065-.572-1.69.486A.71.71,0,0,0,3287.585,332.873Z" transform="translate(-3259.572 -289.218)" fill="#fff"/>
        <path id="Trazado_126727" data-name="Trazado 126727" d="M3293.68,277.63a4.006,4.006,0,0,1-3.9-4.92c.148-.607.47-.81,1.063-.644q3.031.849,6.056,1.714c.6.171.762.52.57,1.11A4.011,4.011,0,0,1,3293.68,277.63Zm-2.511-3.962a2.5,2.5,0,0,0,1.946,2.446,2.429,2.429,0,0,0,2.634-1.146Z" transform="translate(-3261.729 -253.868)" fill="#fff"/>
        <path id="Trazado_126728" data-name="Trazado 126728" d="M3288.672,262.081c.065-.468-.05-.731-.4-.834a.564.564,0,0,0-.7.364c-.275.524-.63.676-1.04.461-.382-.2-.48-.6-.27-1.09a2.028,2.028,0,0,1,3.85,1.206c-.113.495-.408.729-.843.665A.667.667,0,0,1,3288.672,262.081Z" transform="translate(-3259.598 -246.439)" fill="#fff"/>
        <path id="Trazado_126729" data-name="Trazado 126729" d="M3309.785,267.954c.043-.342-.042-.622-.412-.709s-.564.1-.716.417a.727.727,0,0,1-.987.427.759.759,0,0,1-.33-1.032,2.033,2.033,0,0,1,3.877,1.187.753.753,0,0,1-.8.626C3309.988,268.819,3309.764,268.5,3309.785,267.954Z" transform="translate(-3272.403 -250.076)" fill="#fff"/>
        <path id="Trazado_126730" data-name="Trazado 126730" d="M3253.817,329.559a4.072,4.072,0,0,1-3.916-2.84.728.728,0,0,1,.57-1.061q3.121-.882,6.245-1.745c.589-.163.917.052,1.055.653A4.076,4.076,0,0,1,3253.817,329.559Zm2.564-4.047-4.788,1.336a2.576,2.576,0,0,0,4.788-1.336Z" transform="translate(-3237.57 -285.319)" fill="#fff"/>
        <path id="Trazado_126731" data-name="Trazado 126731" d="M3264.113,314.568a.668.668,0,0,1-.572.772.72.72,0,0,1-.863-.639,2.064,2.064,0,0,1,3.976-1.081.744.744,0,0,1-.4.969.707.707,0,0,1-.943-.432c-.166-.342-.387-.579-.79-.454C3264.158,313.817,3264.046,314.108,3264.113,314.568Z" transform="translate(-3245.326 -278.257)" fill="#fff"/>
        <path id="Trazado_126732" data-name="Trazado 126732" d="M3243.063,318.26a2.059,2.059,0,0,1,1.907,1.326.751.751,0,0,1-.341,1.031.714.714,0,0,1-.978-.434c-.168-.358-.416-.55-.8-.424-.367.118-.446.407-.393.775a.715.715,0,0,1-.583.859.729.729,0,0,1-.839-.618A2.052,2.052,0,0,1,3243.063,318.26Z" transform="translate(-3232.193 -281.921)" fill="#fff"/>
      </g>
    </g>
    <g id="_34hTMy" data-name="34hTMy" transform="translate(-1541.204 -733.485)">
      <g id="Grupo_133656" data-name="Grupo 133656" transform="translate(2328.479 1306.128)">
        <path id="Trazado_126733" data-name="Trazado 126733" d="M2362.86,1306.128c.16.144.326.282.479.434,1.263,1.259,2.533,2.512,3.775,3.793a1.262,1.262,0,0,1,.344.786q.027,13.052.014,26.1c0,.678-.234.908-.919.909-1.07,0-2.14,0-3.258,0v.5q0,4.5,0,9.006a2.8,2.8,0,0,1-3.042,3.026h-28.718a2.8,2.8,0,0,1-3.056-3.055q0-10.485,0-20.97c0-.855.186-1.038,1.05-1.039h1.039v-2.675c0-.479-.007-.957,0-1.435a.69.69,0,0,1,.757-.76c2.509-.006,5.019-.011,7.528.011a1.141,1.141,0,0,1,.674.317c.544.5,1.048,1.043,1.582,1.556a.676.676,0,0,0,.4.192c.738.019,1.477.009,2.283.009v-.517q0-7.592-.008-15.184a1.087,1.087,0,0,1,.443-1.008Zm-4.924,43.165a18.371,18.371,0,0,1-.2-1.918q-.022-9.918-.009-19.836v-.492h-27.853v20.562c0,1.179.51,1.684,1.7,1.684h26.364Zm-12.724-23.671h12.9c.8,0,1,.2,1,1q0,4.808,0,9.615v.5h6.937V1311.7c-1.126,0-2.226,0-3.325,0-.568,0-.82-.257-.825-.826-.006-.638,0-1.276,0-1.914v-1.414h-16.691Zm-13.243-.025h11.8v-1.367c-.884,0-1.739.024-2.591-.014a1.329,1.329,0,0,1-.762-.314c-.531-.47-1-1.008-1.524-1.486a1.043,1.043,0,0,0-.632-.262c-1.957-.02-3.914-.012-5.871-.012h-.419Zm27.2,12.578c-.025.044-.038.057-.038.068,0,3.247-.012,6.494,0,9.741a1.274,1.274,0,0,0,.671,1.1,1.384,1.384,0,0,0,2.1-1.251c.009-3.131,0-6.262,0-9.393,0-.083-.008-.167-.014-.269Zm5.938-27.881c-.372-.356-.654-.62-.928-.891s-.532-.544-.848-.867v1.759Z" transform="translate(-2328.479 -1306.128)" fill="#fff"/>
        <path id="Trazado_126734" data-name="Trazado 126734" d="M2353.873,1368.656a9.747,9.747,0,1,1-9.759,9.724A9.761,9.761,0,0,1,2353.873,1368.656Zm.01,18.1a8.353,8.353,0,1,0-8.375-8.419A8.364,8.364,0,0,0,2353.883,1386.754Z" transform="translate(-2338.543 -1346.377)" fill="#fff"/>
        <path id="Trazado_126735" data-name="Trazado 126735" d="M2388.3,1334.022q-4.026,0-8.051,0c-.74,0-.957-.217-.957-.957q0-3.242,0-6.483c0-.683.23-.913.913-.913q8.138,0,16.276,0c.683,0,.914.231.915.912q0,3.263,0,6.527c0,.682-.232.913-.914.914Q2392.39,1334.024,2388.3,1334.022Zm7.681-6.93h-15.276v2.711c1.031.134,2.007.175,2.664-.833a3.417,3.417,0,0,1,.487-.5c.975-.974,1.039-.975,2-.012.591.591,1.179,1.185,1.824,1.833.254-.283.472-.516.678-.757a.952.952,0,0,1,.917-.385,2.571,2.571,0,0,0,2.663-1.08c.36-.471.752-.426,1.188,0a12.515,12.515,0,0,1,1.219,1.239,1.519,1.519,0,0,0,1.634.5ZM2380.7,1332.6h15.264v-1.363a7.524,7.524,0,0,0-.815,0,1.5,1.5,0,0,1-1.413-.571c-.369-.435-.8-.816-1.25-1.26-.218.241-.4.426-.565.629a1.216,1.216,0,0,1-1.219.5,2.33,2.33,0,0,0-2.362.963c-.5.623-.836.582-1.4.015-.684-.685-1.366-1.371-2.087-2.095-.5.508-.973.974-1.428,1.457a1.089,1.089,0,0,1-.887.363c-.6-.019-1.21-.005-1.835-.005Z" transform="translate(-2361.187 -1318.706)" fill="#fff"/>
        <path id="Trazado_126736" data-name="Trazado 126736" d="M2402.44,1354.458h-15.265v-1.34h15.265Z" transform="translate(-2366.262 -1336.375)" fill="#fff"/>
        <path id="Trazado_126737" data-name="Trazado 126737" d="M2422.582,1362.277h-4.107v-1.355h4.107Z" transform="translate(-2386.409 -1341.399)" fill="#fff"/>
        <path id="Trazado_126738" data-name="Trazado 126738" d="M2422.583,1368.752v1.332h-4.139v-1.332Z" transform="translate(-2386.39 -1346.439)" fill="#fff"/>
        <path id="Trazado_126739" data-name="Trazado 126739" d="M2418.435,1377.875v-1.34h4.123v1.34Z" transform="translate(-2386.384 -1351.449)" fill="#fff"/>
        <path id="Trazado_126740" data-name="Trazado 126740" d="M2380.723,1353.106v1.342h-1.339v-1.342Z" transform="translate(-2361.247 -1336.368)" fill="#fff"/>
        <path id="Trazado_126741" data-name="Trazado 126741" d="M2356.1,1380.648c0-1.118,0-2.174,0-3.231,0-.719.221-.945.923-.946q1.871,0,3.741,0c.676,0,.9.234.905.922,0,1.069,0,2.139,0,3.255h3.111c.889,0,1.066.178,1.067,1.065q0,1.8,0,3.61c0,.655-.238.892-.89.894-1.072,0-2.145,0-3.288,0v.425c0,.957,0,1.914,0,2.871,0,.63-.242.878-.859.88q-1.936.006-3.871,0c-.589,0-.836-.256-.838-.856,0-1.086,0-2.172,0-3.3-.16-.007-.3-.02-.437-.02-.986,0-1.972.005-2.958,0a.7.7,0,0,1-.78-.781q-.01-2,0-4c0-.529.271-.78.823-.783C2353.851,1380.644,2354.95,1380.648,2356.1,1380.648Zm4.178-2.761H2357.5v.449c0,.942,0,1.884,0,2.825,0,.629-.244.873-.861.878-.449,0-.9,0-1.348,0h-1.936v2.785c1.1,0,2.174,0,3.246,0,.656,0,.9.237.9.883,0,.956,0,1.912,0,2.869v.4h2.785v-.449c0-.942,0-1.884,0-2.826,0-.63.241-.872.86-.877.493,0,.986,0,1.479,0h1.807v-2.785h-3.159c-.775,0-.986-.207-.987-.969C2360.281,1380.017,2360.282,1378.963,2360.282,1377.888Z" transform="translate(-2343.57 -1351.407)" fill="#fff"/>
      </g>
    </g>
  </g>
</svg>
