<svg xmlns="http://www.w3.org/2000/svg" xmlns:xlink="http://www.w3.org/1999/xlink" width="1241" height="513.828" viewBox="0 0 1241 513.828">
  <defs>
    <linearGradient id="linear-gradient" x1="0.241" y1="0.652" x2="1.055" y2="1.033" gradientUnits="objectBoundingBox">
      <stop offset="0" stop-color="#004b89"/>
      <stop offset="1" stop-color="#008bfd"/>
    </linearGradient>
    <clipPath id="clip-path">
      <path id="Rectangle_652" data-name="Rectangle 652" d="M1221.457,0H19.543A19.292,19.292,0,0,0,0,19.031V494.8a19.292,19.292,0,0,0,19.543,19.031H1221.457A19.292,19.292,0,0,0,1241,494.8V19.031A19.292,19.292,0,0,0,1221.457,0Z" transform="translate(179.999 2546.586)" fill="none" stroke="#707070" stroke-width="1"/>
    </clipPath>
  </defs>
  <g id="fondo-sliderB" transform="translate(-180.666 -2930)">
    <g id="Grupo_130992" data-name="Grupo 130992" transform="translate(180.666 2930)">
      <path id="Rectangle_652-2" data-name="Rectangle 652" d="M1221.457,0H19.543A19.292,19.292,0,0,0,0,19.031V494.8a19.292,19.292,0,0,0,19.543,19.031H1221.457A19.292,19.292,0,0,0,1241,494.8V19.031A19.292,19.292,0,0,0,1221.457,0Z" fill="url(#linear-gradient)"/>
    </g>
    <g id="Enmascarar_grupo_56" data-name="Enmascarar grupo 56" transform="translate(0.667 383.414)" clip-path="url(#clip-path)">
      <g id="Grupo_130994" data-name="Grupo 130994" transform="translate(-22 -7)">
        <g id="Grupo_130993" data-name="Grupo 130993" transform="translate(1833 3519.08) rotate(172)">
          <path id="Trazado_122782" data-name="Trazado 122782" d="M33.774,671.03C72.359,591.6,143.242,538.912,222.2,513.529c93.607-30.094,183.242-15.55,276.709-1.117,86.179,13.306,182.149,16.237,255.591-44.865C868.486,372.7,881.1,191.2,985.671,85.136,1037.4,32.658,1107.441,1.653,1177.838.062,1255.666-1.7,1353.776,33.657,1392.8,110.425c37.895,74.546-2.018,149.607,10.934,226.2,25.333,149.794,218.188,138.8,310.581,212.289,44.146,35.117,73.562,87.9,93.524,143.088,22.153,61.249,33.868,129.623,17.81,193.871-26.6,106.426-122.9,147.191-216.339,152.011-69.434,3.585-138.24-14.878-201.68-43.861-56.108-25.634-108.788-59.491-166.214-81.661C1099.6,857.607,958.622,930.947,835,1009.5c-158.694,100.836-322.521,198.165-510.726,166.089C180.465,1151.077,31.9,1057.4,5.283,892.054-5.975,822.11.314,747.731,28.459,682.614Q31,676.733,33.774,671.03Z" transform="translate(0 85.051)" fill="none" stroke="#fff" stroke-miterlimit="10" stroke-width="1" opacity="0.29" style="mix-blend-mode: overlay;isolation: isolate"/>
          <path id="Trazado_122783" data-name="Trazado 122783" d="M33.774,671.03c38.585-79.437,109.468-132.118,188.421-157.5,93.607-30.094,183.242-15.547,276.709-1.115,86.179,13.306,182.149,16.237,255.591-44.868C868.486,372.7,881.1,191.2,985.671,85.133,1037.4,32.658,1107.441,1.653,1177.838.062,1255.666-1.7,1353.776,33.657,1392.8,110.425c37.895,74.543-2.018,149.607,10.934,226.2,25.333,149.794,218.188,138.8,310.581,212.289,44.146,35.117,73.562,87.9,93.524,143.089,22.153,61.249,33.868,129.623,17.81,193.871-26.6,106.424-122.9,147.191-216.339,152.011-69.434,3.582-138.24-14.878-201.68-43.861-56.108-25.634-108.788-59.491-166.214-81.661C1099.6,857.607,958.622,930.947,835,1009.5c-158.694,100.836-322.521,198.162-510.726,166.089C180.465,1151.077,31.9,1057.4,5.283,892.054-5.975,822.108.314,747.731,28.459,682.614Q31,676.729,33.774,671.03Z" transform="translate(0.284 56.701)" fill="none" stroke="#fff" stroke-miterlimit="10" stroke-width="1" opacity="0.29" style="mix-blend-mode: overlay;isolation: isolate"/>
          <path id="Trazado_122784" data-name="Trazado 122784" d="M33.774,671.032C72.359,591.6,143.242,538.914,222.2,513.529c93.607-30.094,183.242-15.547,276.709-1.115,86.179,13.306,182.149,16.237,255.591-44.868C868.486,372.7,881.1,191.2,985.671,85.136,1037.4,32.661,1107.441,1.656,1177.838.062c77.828-1.759,175.937,33.6,214.961,110.365,37.895,74.543-2.018,149.607,10.934,226.2,25.333,149.794,218.188,138.795,310.581,212.289,44.146,35.117,73.562,87.9,93.524,143.089,22.153,61.249,33.867,129.623,17.81,193.871-26.6,106.424-122.9,147.189-216.339,152.011-69.434,3.582-138.24-14.878-201.68-43.864-56.108-25.631-108.788-59.491-166.214-81.661C1099.6,857.61,958.622,930.947,835,1009.5c-158.694,100.836-322.521,198.162-510.726,166.089C180.465,1151.08,31.9,1057.4,5.283,892.057-5.975,822.11.314,747.734,28.459,682.617Q31,676.731,33.774,671.032Z" transform="translate(0.568 28.349)" fill="none" stroke="#fff" stroke-miterlimit="10" stroke-width="1" opacity="0.29" style="mix-blend-mode: overlay;isolation: isolate"/>
          <path id="Trazado_122785" data-name="Trazado 122785" d="M33.774,671.03C72.359,591.6,143.242,538.914,222.2,513.529c93.607-30.094,183.242-15.55,276.709-1.117,86.179,13.309,182.149,16.237,255.591-44.865C868.486,372.7,881.1,191.2,985.671,85.136,1037.4,32.661,1107.441,1.656,1177.838.062,1255.666-1.7,1353.776,33.657,1392.8,110.425c37.895,74.546-2.018,149.61,10.934,226.2,25.333,149.8,218.188,138.8,310.581,212.292,44.146,35.114,73.562,87.9,93.524,143.088,22.153,61.249,33.868,129.62,17.81,193.868-26.6,106.426-122.9,147.192-216.339,152.014-69.434,3.582-138.24-14.88-201.68-43.864-56.108-25.634-108.788-59.491-166.214-81.661C1099.6,857.61,958.622,930.947,835,1009.5c-158.694,100.838-322.521,198.165-510.726,166.091C180.465,1151.079,31.9,1057.4,5.283,892.054-5.975,822.11.314,747.734,28.459,682.614Q31,676.733,33.774,671.03Z" transform="translate(0.853 0)" fill="none" stroke="#fff" stroke-miterlimit="10" stroke-width="1" opacity="0.29" style="mix-blend-mode: overlay;isolation: isolate"/>
        </g>
        <path id="Trazado_122786" data-name="Trazado 122786" d="M29.531,586.741c33.739-69.456,95.718-115.522,164.755-137.716,81.847-26.314,160.223-13.6,241.951-.977,75.353,11.635,159.269,14.2,223.484-39.229,99.673-82.929,110.7-241.632,202.138-334.376,45.234-45.885,106.475-73,168.029-74.388,68.052-1.538,153.836,29.376,187.959,96.5,33.135,65.18-1.766,130.814,9.561,197.784,22.15,130.979,190.78,121.364,271.566,185.624,38.6,30.7,64.323,76.86,81.778,125.115,19.372,53.557,29.613,113.341,15.573,169.517-23.257,93.058-107.462,128.7-189.165,132.917-60.711,3.133-120.875-13.01-176.349-38.353-49.059-22.412-95.121-52.017-145.334-71.4-124-47.873-247.272,16.252-355.364,84.937-138.757,88.171-282.007,173.272-446.57,145.227C157.8,1006.489,27.891,924.578,4.62,780-5.225,718.843.274,653.809,24.885,596.871Q27.107,591.726,29.531,586.741Z" transform="translate(1054.975 2986.66) rotate(172)" fill="#fff" opacity="0.132" style="mix-blend-mode: overlay;isolation: isolate"/>
        <path id="Trazado_122787" data-name="Trazado 122787" d="M1182.041,253.287c-6.907,59.72-40.152,110.563-84.525,146.173-52.608,42.218-112.546,55.271-174.884,69.344-57.478,12.976-118.863,34.932-151.87,91.726-51.234,88.153-19.2,205.865-61.989,298.768C687.6,905.258,650.11,942.208,605.905,960.673c-48.869,20.417-118.759,22.433-160.384-16.351-40.422-37.66-31.713-94.951-56.8-140.091-49.064-88.282-168.7-33.5-243.38-56.981C109.656,736.032,79.4,710,54.6,680.117,27.069,646.944,4.577,606.685.573,562.14-6.06,488.354,45.9,438.731,103.977,412.509c43.155-19.485,90.774-24.9,137.316-22.338,41.164,2.264,81.972,10.573,123.205,10.325,101.83-.614,174.886-81.884,235.8-162.139C678.5,135.33,760.73,33.249,886.919,6.812c96.425-20.2,211.11,2.086,264.415,99.87,22.549,41.365,34.97,89.881,31.514,137.973Q1182.537,249,1182.041,253.287Z" transform="translate(2161.85 2871.986) rotate(172)" fill="#5bd3a9" opacity="0.8" style="mix-blend-mode: color-burn;isolation: isolate"/>
        <path id="Trazado_122788" data-name="Trazado 122788" d="M25,0C38.764-.043,49.887,10.272,49.844,23.04s-11.236,23.153-25,23.2S-.043,35.964,0,23.2,11.236.043,25,0Z" transform="translate(1091.555 3071) rotate(-87.524)" fill="#fff" opacity="0.17" style="mix-blend-mode: overlay;isolation: isolate"/>
        <path id="Trazado_122789" data-name="Trazado 122789" d="M12.64,18.96,1771.534,0l-12.64,1260.758L0,1279.719Z" transform="translate(1809.01 3318.143) rotate(172)" fill="none"/>
      </g>
    </g>
  </g>
</svg>
