<svg xmlns="http://www.w3.org/2000/svg" width="94.539" height="91.902" viewBox="0 0 94.539 91.902">
  <g id="icon2" transform="translate(-221.076 -3021)">
    <g id="Grupo_78348" data-name="Grupo 78348" transform="translate(221.076 3021)">
      <path id="Trazado_113319" data-name="Trazado 113319" d="M1572.434,1094v-8.714h-8.783v-6.015h8.783v-8.714h5.855v8.714h8.806v6.015h-8.806V1094Z" transform="translate(-1563.651 -1070.555)" fill="#5bd3a9"/>
    </g>
    <g id="oMj6ON" transform="translate(-2511.516 2784.432)">
      <g id="Grupo_133647" data-name="Grupo 133647" transform="translate(2768.592 236.568)">
        <path id="Trazado_126689" data-name="Trazado 126689" d="M2814.194,328.47c-1.367-1.007-1.26-1.964.274-2.7a.814.814,0,0,0,.409-.581c.026-3.044.018-6.089.018-9.191h-5.865v9.542c.162.052.3.1.443.141.936.269,1.352.819,1.2,1.589s-.754,1.137-1.711,1.048a2.933,2.933,0,0,1-2.67-2.8c-.037-4.367-.088-8.737.029-13.1a5.189,5.189,0,0,1,3.318-4.64c.294-.14.6-.25.943-.389,0-3.355.02-6.7-.033-10.052,0-.311-.468-.614-.854-1.087-.656,1.9-1.219,3.53-1.777,5.158-1.134,3.3-2.257,6.612-3.408,9.911-.132.379-.334.9-.634,1.015a2.27,2.27,0,0,1-1.494-.015,1.091,1.091,0,0,1-.53-1.457c.2-.709.463-1.4.727-2.191h-9.437l4.684,13.836c.188-.463.3-.717.4-.98.459-1.326.887-2.664,1.378-3.978a1.2,1.2,0,0,1,1.659-.77,1.236,1.236,0,0,1,.854,1.631c-.259.888-.581,1.757-.88,2.633-.636,1.865-1.291,3.725-1.905,5.6-.247.751-.525,1.443-1.456,1.452s-1.219-.673-1.473-1.426q-4.931-14.6-9.886-29.188c-.1-.308-.229-.61-.355-.946-.752.094-1.049.426-1.044,1.219.032,5.743.024,11.488.007,17.231a1.132,1.132,0,0,0,.715,1.227,4.384,4.384,0,0,1,2.3,5.052,4.477,4.477,0,1,1-6.373-5.1c.282-.155.646-.51.648-.775.037-5.653.028-11.3.028-17.018a1.22,1.22,0,0,0-.356.044c-2.272,1.133-4.578,2.206-6.8,3.429a7.346,7.346,0,0,0-3.985,6.762c-.042,5.833-.013,11.667-.014,17.5a5.79,5.79,0,0,1-.02.9,1.215,1.215,0,0,1-1.292,1.118,1.228,1.228,0,0,1-1.344-1.061,3.924,3.924,0,0,1-.032-.8q0-8.616,0-17.232a10.418,10.418,0,0,1,6.123-9.942c1.62-.822,3.244-1.638,4.917-2.482-.472-.935-.949-1.791-1.345-2.684a21.165,21.165,0,0,1-1.825-8.706c.008-9.184-.009-18.368.011-27.552a20.757,20.757,0,0,1,3.426-11.342,1.477,1.477,0,0,1,1.524-.875,1.349,1.349,0,0,1,.8,2.223,17.872,17.872,0,0,0-2.533,5.9,18.463,18.463,0,0,0-.5,3.63c-.039,9.663-.061,19.326,0,28.988a17.117,17.117,0,0,0,2.936,9.2c.716-.351,1.4-.686,2.087-1.026,1.578-.786,3.157-1.57,4.731-2.365a2.5,2.5,0,0,0,1.558-2.554c-.093-2.659-.009-5.325-.052-7.986a1.372,1.372,0,0,0-.53-.972,15.273,15.273,0,0,1-7.32-13.391c-.016-1.855-.008-3.71.009-5.565.01-1.088.466-1.6,1.482-1.62,5.224-.122,8.623-2.9,10.833-7.413.315-.642.557-1.32.816-1.988a2.181,2.181,0,0,1,2.075-1.565,2.111,2.111,0,0,1,2.208,1.493,15.587,15.587,0,0,0,5.9,7.376,16.863,16.863,0,0,0,5.505,2.316c1.5.348,1.708.6,1.688,2.14a70.186,70.186,0,0,1-.186,7.256,14.5,14.5,0,0,1-6.927,10.8,1.454,1.454,0,0,0-.759,1.439c.034,2.572.057,5.147-.006,7.718a2.325,2.325,0,0,0,1.3,2.35c2.3,1.2,4.625,2.358,7,3.565a16.379,16.379,0,0,0,2.6-6.294,24,24,0,0,0,.39-4.186q.051-13.327.014-26.654a18.577,18.577,0,0,0-15.5-18.7,18.078,18.078,0,0,0-13.532,2.811c-.176.114-.342.242-.521.35a1.337,1.337,0,1,1-1.512-2.2,20.431,20.431,0,0,1,6.854-3.228,21.42,21.42,0,0,1,26.652,17.38,19.393,19.393,0,0,1,.232,3.038q.027,13.82.01,27.641a20.882,20.882,0,0,1-2.858,10.606c-.1.176-.178.365-.3.626,1.526.775,2.994,1.561,4.5,2.277,4.5,2.147,6.623,5.7,6.564,10.676-.067,5.653-.014,11.308-.018,16.962,0,1.017-.384,1.534-1.164,1.626a1.3,1.3,0,0,1-1.517-1.439c-.015-2.273,0-4.547,0-6.821,0-3.649.007-7.3,0-10.949a7.706,7.706,0,0,0-4.6-7.4c-2.137-1.055-4.274-2.114-6.5-3.215v9.125c.338.142.706.265,1.047.442a5.531,5.531,0,0,1,3.193,5.123c.047,4.068.005,8.137.018,12.205a3.476,3.476,0,0,1-2.317,3.284Zm-28.9-65.915c0,1.729-.019,3.4,0,5.067a12.577,12.577,0,0,0,24.433,4.007c1.054-2.94.592-5.959.71-8.975a18.512,18.512,0,0,1-12.5-10.261C2795.448,257.986,2791.6,261.784,2785.3,262.555Zm3.358,32.636a1.877,1.877,0,0,0,.043.372c1.106,3.279,2.2,6.562,3.353,9.826a1.09,1.09,0,0,0,.849.5c3.317.036,6.637.009,9.955.036a.841.841,0,0,0,.939-.7c.774-2.352,1.585-4.692,2.382-7.036.333-.979.665-1.959,1-2.953-.7-.385-1.334-.713-1.949-1.075a4.9,4.9,0,0,1-2.66-4.716c.078-2.059.017-4.124.017-6.187v-1.306a15.7,15.7,0,0,1-9.414.015c0,2.642-.049,5.152.016,7.659a4.7,4.7,0,0,1-2.418,4.39C2790.089,294.437,2789.369,294.8,2788.656,295.191Zm20.384,17.991h5.822a2.964,2.964,0,0,0-3.113-3.2A2.862,2.862,0,0,0,2809.04,313.182Zm-27.007,6.947a1.785,1.785,0,0,0,1.715,1.82,1.836,1.836,0,0,0,1.844-1.8,1.788,1.788,0,0,0-1.783-1.751A1.732,1.732,0,0,0,2782.033,320.129Z" transform="translate(-2768.592 -236.568)" fill="#fff"/>
        <path id="Trazado_126690" data-name="Trazado 126690" d="M2807.2,289.932a6,6,0,0,1-4.008-1.587,1.34,1.34,0,1,1,1.732-2.04,3.209,3.209,0,0,0,4.527.017,1.36,1.36,0,0,1,1.988.073,1.4,1.4,0,0,1-.275,1.984A5.977,5.977,0,0,1,2807.2,289.932Z" transform="translate(-2777.928 -250.102)" fill="#fff"/>
      </g>
    </g>
  </g>
</svg>
