<svg xmlns="http://www.w3.org/2000/svg" width="108.687" height="91.901" viewBox="0 0 108.687 91.901">
  <g id="icon1" transform="translate(-221.076 -3021)">
    <g id="Grupo_78348" data-name="Grupo 78348" transform="translate(221.076 3021)">
      <path id="Trazado_113319" data-name="Trazado 113319" d="M1572.434,1094v-8.714h-8.783v-6.015h8.783v-8.714h5.855v8.714h8.806v6.015h-8.806V1094Z" transform="translate(-1563.651 -1070.555)" fill="#5bd3a9"/>
    </g>
    <g id="_34hTMy" data-name="34hTMy" transform="translate(-2075.404 1770.528)">
      <g id="Grupo_133646" data-name="Grupo 133646" transform="translate(2328.479 1254.745)">
        <path id="Trazado_126680" data-name="Trazado 126680" d="M2396.094,1254.745c.314.285.641.556.941.854,2.484,2.477,4.982,4.941,7.424,7.459a2.481,2.481,0,0,1,.678,1.545q.052,25.668.027,51.336c0,1.333-.46,1.785-1.807,1.788-2.1,0-4.208,0-6.408,0v.982q0,8.855,0,17.711c0,3.7-2.26,5.951-5.981,5.952H2334.49c-3.773,0-6.01-2.236-6.01-6.009q0-20.62,0-41.24c0-1.68.365-2.041,2.064-2.042h2.043v-5.261c0-.941-.015-1.882.006-2.823a1.356,1.356,0,0,1,1.488-1.494c4.935-.013,9.87-.022,14.8.022a2.244,2.244,0,0,1,1.326.624c1.071.982,2.062,2.051,3.11,3.059a1.33,1.33,0,0,0,.794.378c1.452.037,2.905.018,4.49.018v-1.017q0-14.93-.016-29.86a2.141,2.141,0,0,1,.871-1.983Zm-9.684,84.889a36.205,36.205,0,0,1-.4-3.772q-.043-19.5-.018-39.009v-.968h-54.776v40.437c0,2.32,1,3.312,3.344,3.312h51.847Zm-25.023-46.552h25.378c1.572,0,1.968.4,1.968,1.969q0,9.454,0,18.91v.986h13.643V1265.7c-2.214,0-4.377.008-6.539,0-1.118-.006-1.612-.505-1.623-1.623-.012-1.255,0-2.51,0-3.765v-2.781h-32.824Zm-26.044-.051h23.2v-2.688c-1.739,0-3.419.048-5.095-.029a2.622,2.622,0,0,1-1.5-.618c-1.044-.924-1.967-1.983-3-2.923a2.053,2.053,0,0,0-1.242-.515c-3.848-.039-7.7-.022-11.545-.022h-.826Zm53.489,24.737c-.05.087-.074.111-.074.135-.008,6.385-.022,12.771-.008,19.156a2.5,2.5,0,0,0,1.319,2.172,2.723,2.723,0,0,0,4.136-2.461c.018-6.158.006-12.316,0-18.474,0-.164-.017-.327-.028-.528Zm11.677-54.831c-.73-.7-1.286-1.218-1.825-1.752s-1.046-1.069-1.667-1.706v3.459Z" transform="translate(-2328.479 -1254.745)" fill="#fff"/>
        <path id="Trazado_126681" data-name="Trazado 126681" d="M2363.306,1317.274a19.168,19.168,0,1,1-19.192,19.124A19.2,19.2,0,0,1,2363.306,1317.274Zm.02,35.593a16.427,16.427,0,1,0-16.47-16.557A16.449,16.449,0,0,0,2363.326,1352.867Z" transform="translate(-2333.159 -1273.46)" fill="#fff"/>
        <path id="Trazado_126682" data-name="Trazado 126682" d="M2397.008,1290.716q-7.916,0-15.833,0c-1.456,0-1.882-.427-1.883-1.883q0-6.375,0-12.75c0-1.344.452-1.8,1.8-1.8q16,0,32.008,0c1.343,0,1.8.454,1.8,1.794q.005,6.418,0,12.835c0,1.341-.457,1.8-1.8,1.8Q2405.053,1290.718,2397.008,1290.716Zm15.107-13.63h-30.042v5.332c2.029.264,3.947.343,5.239-1.64a6.736,6.736,0,0,1,.957-.975c1.917-1.917,2.044-1.919,3.936-.024,1.161,1.162,2.319,2.33,3.588,3.606.5-.558.928-1.014,1.333-1.49a1.874,1.874,0,0,1,1.8-.758,5.058,5.058,0,0,0,5.237-2.125c.709-.926,1.478-.837,2.337,0a24.587,24.587,0,0,1,2.4,2.438c.872,1.134,1.957,1.169,3.215.98Zm-30.043,10.835h30.018v-2.682a14.761,14.761,0,0,0-1.6.009,2.949,2.949,0,0,1-2.78-1.122c-.727-.856-1.581-1.6-2.459-2.48-.429.474-.793.837-1.112,1.237a2.388,2.388,0,0,1-2.4.981,4.582,4.582,0,0,0-4.645,1.895c-.99,1.226-1.645,1.144-2.758.029-1.345-1.345-2.686-2.695-4.1-4.119-.984,1-1.914,1.915-2.809,2.865a2.14,2.14,0,0,1-1.745.714c-1.188-.037-2.379-.01-3.609-.01Z" transform="translate(-2343.687 -1260.593)" fill="#fff"/>
        <path id="Trazado_126683" data-name="Trazado 126683" d="M2417.2,1304.37h-30.02v-2.635h30.02Z" transform="translate(-2346.047 -1268.809)" fill="#fff"/>
        <path id="Trazado_126684" data-name="Trazado 126684" d="M2426.552,1312.2h-8.078v-2.665h8.078Z" transform="translate(-2355.415 -1271.145)" fill="#fff"/>
        <path id="Trazado_126685" data-name="Trazado 126685" d="M2426.584,1317.37v2.619h-8.139v-2.619Z" transform="translate(-2355.406 -1273.489)" fill="#fff"/>
        <path id="Trazado_126686" data-name="Trazado 126686" d="M2418.435,1327.788v-2.635h8.108v2.635Z" transform="translate(-2355.403 -1275.818)" fill="#fff"/>
        <path id="Trazado_126687" data-name="Trazado 126687" d="M2382.018,1301.723v2.639h-2.633v-2.639Z" transform="translate(-2343.715 -1268.806)" fill="#fff"/>
        <path id="Trazado_126688" data-name="Trazado 126688" d="M2360.145,1333.3c0-2.2,0-4.276,0-6.354,0-1.413.435-1.858,1.816-1.86q3.679-.005,7.357,0c1.329,0,1.778.46,1.781,1.811,0,2.1,0,4.206,0,6.4h6.118c1.748,0,2.1.35,2.1,2.094q0,3.549,0,7.1c0,1.287-.468,1.755-1.749,1.758-2.11.006-4.219,0-6.466,0v.837c0,1.881,0,3.763,0,5.645,0,1.24-.476,1.727-1.69,1.731q-3.807.012-7.613,0c-1.159,0-1.643-.5-1.647-1.685-.008-2.135,0-4.271,0-6.486-.315-.015-.587-.039-.861-.039-1.939,0-3.878.01-5.817-.008a1.372,1.372,0,0,1-1.534-1.537q-.021-3.934,0-7.869c.006-1.041.533-1.534,1.617-1.539C2355.714,1333.3,2357.876,1333.3,2360.145,1333.3Zm8.217-5.429h-5.478v.883c0,1.852,0,3.7,0,5.557,0,1.235-.479,1.716-1.693,1.726-.884.008-1.767,0-2.651,0h-3.807v5.477c2.169,0,4.276,0,6.384,0,1.291,0,1.763.466,1.768,1.736.006,1.881,0,3.761,0,5.642v.787h5.478v-.884c0-1.852,0-3.7,0-5.557,0-1.239.474-1.715,1.691-1.725.969-.008,1.938,0,2.907,0h3.553v-5.477c-2.113,0-4.162,0-6.212,0-1.525,0-1.94-.408-1.942-1.907C2368.36,1332.063,2368.362,1329.989,2368.362,1327.875Z" transform="translate(-2335.496 -1275.798)" fill="#fff"/>
      </g>
    </g>
  </g>
</svg>
