<svg id="equis2" xmlns="http://www.w3.org/2000/svg" width="55.214" height="49.637" viewBox="0 0 55.214 49.637">
  <path id="Trazado_122313" data-name="Trazado 122313" d="M325.19,445.346a.935.935,0,0,0,.275.663l.95.949-.95.949a.938.938,0,0,0,1.327,1.327l.949-.949.949.949a.938.938,0,0,0,1.327-1.327l-.949-.949.949-.949a.938.938,0,0,0,0-1.327h0a.938.938,0,0,0-1.327,0l-.949.949-.949-.949a.939.939,0,0,0-1.327,0h0a.935.935,0,0,0-.275.663Z" transform="translate(-325.19 -408.945)" fill="#133d60"/>
  <path id="Trazado_122323" data-name="Trazado 122323" d="M325.19,445.346a.935.935,0,0,0,.275.663l.95.949-.95.949a.938.938,0,0,0,1.327,1.327l.949-.949.949.949a.938.938,0,0,0,1.327-1.327l-.949-.949.949-.949a.938.938,0,0,0,0-1.327h0a.938.938,0,0,0-1.327,0l-.949.949-.949-.949a.939.939,0,0,0-1.327,0h0a.935.935,0,0,0-.275.663Z" transform="translate(-325.19 -435.336)" fill="#133d60"/>
  <path id="Trazado_122316" data-name="Trazado 122316" d="M325.19,445.346a.935.935,0,0,0,.275.663l.95.949-.95.949a.938.938,0,0,0,1.327,1.327l.949-.949.949.949a.938.938,0,0,0,1.327-1.327l-.949-.949.949-.949a.938.938,0,0,0,0-1.327h0a.938.938,0,0,0-1.327,0l-.949.949-.949-.949a.939.939,0,0,0-1.327,0h0a.935.935,0,0,0-.275.663Z" transform="translate(-325.19 -417.192)" fill="#133d60"/>
  <path id="Trazado_122322" data-name="Trazado 122322" d="M325.19,445.346a.935.935,0,0,0,.275.663l.95.949-.95.949a.938.938,0,0,0,1.327,1.327l.949-.949.949.949a.938.938,0,0,0,1.327-1.327l-.949-.949.949-.949a.938.938,0,0,0,0-1.327h0a.938.938,0,0,0-1.327,0l-.949.949-.949-.949a.939.939,0,0,0-1.327,0h0a.935.935,0,0,0-.275.663Z" transform="translate(-325.19 -444.408)" fill="#133d60"/>
  <path id="Trazado_122318" data-name="Trazado 122318" d="M325.19,445.346a.935.935,0,0,0,.275.663l.95.949-.95.949a.938.938,0,0,0,1.327,1.327l.949-.949.949.949a.938.938,0,0,0,1.327-1.327l-.949-.949.949-.949a.938.938,0,0,0,0-1.327h0a.938.938,0,0,0-1.327,0l-.949.949-.949-.949a.939.939,0,0,0-1.327,0h0a.935.935,0,0,0-.275.663Z" transform="translate(-325.19 -399.873)" fill="#133d60"/>
  <path id="Trazado_122328" data-name="Trazado 122328" d="M325.19,445.346a.935.935,0,0,0,.275.663l.95.949-.95.949a.938.938,0,0,0,1.327,1.327l.949-.949.949.949a.938.938,0,0,0,1.327-1.327l-.949-.949.949-.949a.938.938,0,0,0,0-1.327h0a.938.938,0,0,0-1.327,0l-.949.949-.949-.949a.939.939,0,0,0-1.327,0h0a.935.935,0,0,0-.275.663Z" transform="translate(-325.19 -426.264)" fill="#133d60"/>
  <path id="Trazado_122314" data-name="Trazado 122314" d="M325.19,445.346a.935.935,0,0,0,.275.663l.95.949-.95.949a.938.938,0,0,0,1.327,1.327l.949-.949.949.949a.938.938,0,0,0,1.327-1.327l-.949-.949.949-.949a.938.938,0,0,0,0-1.327h0a.938.938,0,0,0-1.327,0l-.949.949-.949-.949a.939.939,0,0,0-1.327,0h0a.935.935,0,0,0-.275.663Z" transform="translate(-315.1 -408.945)" fill="#133d60"/>
  <path id="Trazado_122324" data-name="Trazado 122324" d="M325.19,445.346a.935.935,0,0,0,.275.663l.95.949-.95.949a.938.938,0,0,0,1.327,1.327l.949-.949.949.949a.938.938,0,0,0,1.327-1.327l-.949-.949.949-.949a.938.938,0,0,0,0-1.327h0a.938.938,0,0,0-1.327,0l-.949.949-.949-.949a.939.939,0,0,0-1.327,0h0a.935.935,0,0,0-.275.663Z" transform="translate(-315.1 -435.336)" fill="#133d60"/>
  <path id="Trazado_122320" data-name="Trazado 122320" d="M325.19,445.346a.935.935,0,0,0,.275.663l.95.949-.95.949a.938.938,0,0,0,1.327,1.327l.949-.949.949.949a.938.938,0,0,0,1.327-1.327l-.949-.949.949-.949a.938.938,0,0,0,0-1.327h0a.938.938,0,0,0-1.327,0l-.949.949-.949-.949a.939.939,0,0,0-1.327,0h0a.935.935,0,0,0-.275.663Z" transform="translate(-305.011 -408.945)" fill="#133d60"/>
  <path id="Trazado_122325" data-name="Trazado 122325" d="M325.19,445.346a.935.935,0,0,0,.275.663l.95.949-.95.949a.938.938,0,0,0,1.327,1.327l.949-.949.949.949a.938.938,0,0,0,1.327-1.327l-.949-.949.949-.949a.938.938,0,0,0,0-1.327h0a.938.938,0,0,0-1.327,0l-.949.949-.949-.949a.939.939,0,0,0-1.327,0h0a.935.935,0,0,0-.275.663Z" transform="translate(-305.011 -435.336)" fill="#133d60"/>
  <path id="Trazado_122315" data-name="Trazado 122315" d="M325.19,445.346a.935.935,0,0,0,.275.663l.95.949-.95.949a.938.938,0,0,0,1.327,1.327l.949-.949.949.949a.938.938,0,0,0,1.327-1.327l-.949-.949.949-.949a.938.938,0,0,0,0-1.327h0a.938.938,0,0,0-1.327,0l-.949.949-.949-.949a.939.939,0,0,0-1.327,0h0a.935.935,0,0,0-.275.663Z" transform="translate(-315.1 -417.192)" fill="#133d60"/>
  <path id="Trazado_122326" data-name="Trazado 122326" d="M325.19,445.346a.935.935,0,0,0,.275.663l.95.949-.95.949a.938.938,0,0,0,1.327,1.327l.949-.949.949.949a.938.938,0,0,0,1.327-1.327l-.949-.949.949-.949a.938.938,0,0,0,0-1.327h0a.938.938,0,0,0-1.327,0l-.949.949-.949-.949a.939.939,0,0,0-1.327,0h0a.935.935,0,0,0-.275.663Z" transform="translate(-315.1 -444.408)" fill="#133d60"/>
  <path id="Trazado_122319" data-name="Trazado 122319" d="M325.19,445.346a.935.935,0,0,0,.275.663l.95.949-.95.949a.938.938,0,0,0,1.327,1.327l.949-.949.949.949a.938.938,0,0,0,1.327-1.327l-.949-.949.949-.949a.938.938,0,0,0,0-1.327h0a.938.938,0,0,0-1.327,0l-.949.949-.949-.949a.939.939,0,0,0-1.327,0h0a.935.935,0,0,0-.275.663Z" transform="translate(-305.011 -417.192)" fill="#133d60"/>
  <path id="Trazado_122327" data-name="Trazado 122327" d="M325.19,445.346a.935.935,0,0,0,.275.663l.95.949-.95.949a.938.938,0,0,0,1.327,1.327l.949-.949.949.949a.938.938,0,0,0,1.327-1.327l-.949-.949.949-.949a.938.938,0,0,0,0-1.327h0a.938.938,0,0,0-1.327,0l-.949.949-.949-.949a.939.939,0,0,0-1.327,0h0a.935.935,0,0,0-.275.663Z" transform="translate(-305.011 -444.408)" fill="#133d60"/>
  <path id="Trazado_122317" data-name="Trazado 122317" d="M325.19,445.346a.935.935,0,0,0,.275.663l.95.949-.95.949a.938.938,0,0,0,1.327,1.327l.949-.949.949.949a.938.938,0,0,0,1.327-1.327l-.949-.949.949-.949a.938.938,0,0,0,0-1.327h0a.938.938,0,0,0-1.327,0l-.949.949-.949-.949a.939.939,0,0,0-1.327,0h0a.935.935,0,0,0-.275.663Z" transform="translate(-315.1 -399.873)" fill="#133d60"/>
  <path id="Trazado_122329" data-name="Trazado 122329" d="M325.19,445.346a.935.935,0,0,0,.275.663l.95.949-.95.949a.938.938,0,0,0,1.327,1.327l.949-.949.949.949a.938.938,0,0,0,1.327-1.327l-.949-.949.949-.949a.938.938,0,0,0,0-1.327h0a.938.938,0,0,0-1.327,0l-.949.949-.949-.949a.939.939,0,0,0-1.327,0h0a.935.935,0,0,0-.275.663Z" transform="translate(-315.1 -426.264)" fill="#133d60"/>
  <path id="Trazado_122321" data-name="Trazado 122321" d="M325.19,445.346a.935.935,0,0,0,.275.663l.95.949-.95.949a.938.938,0,0,0,1.327,1.327l.949-.949.949.949a.938.938,0,0,0,1.327-1.327l-.949-.949.949-.949a.938.938,0,0,0,0-1.327h0a.938.938,0,0,0-1.327,0l-.949.949-.949-.949a.939.939,0,0,0-1.327,0h0a.935.935,0,0,0-.275.663Z" transform="translate(-305.011 -399.873)" fill="#133d60"/>
  <path id="Trazado_122330" data-name="Trazado 122330" d="M325.19,445.346a.935.935,0,0,0,.275.663l.95.949-.95.949a.938.938,0,0,0,1.327,1.327l.949-.949.949.949a.938.938,0,0,0,1.327-1.327l-.949-.949.949-.949a.938.938,0,0,0,0-1.327h0a.938.938,0,0,0-1.327,0l-.949.949-.949-.949a.939.939,0,0,0-1.327,0h0a.935.935,0,0,0-.275.663Z" transform="translate(-305.011 -426.264)" fill="#133d60"/>
  <path id="Trazado_122313-2" data-name="Trazado 122313" d="M325.19,445.346a.935.935,0,0,0,.275.663l.95.949-.95.949a.938.938,0,0,0,1.327,1.327l.949-.949.949.949a.938.938,0,0,0,1.327-1.327l-.949-.949.949-.949a.938.938,0,0,0,0-1.327h0a.938.938,0,0,0-1.327,0l-.949.949-.949-.949a.939.939,0,0,0-1.327,0h0a.935.935,0,0,0-.275.663Z" transform="translate(-295.257 -408.945)" fill="#133d60"/>
  <path id="Trazado_122331" data-name="Trazado 122331" d="M325.19,445.346a.935.935,0,0,0,.275.663l.95.949-.95.949a.938.938,0,0,0,1.327,1.327l.949-.949.949.949a.938.938,0,0,0,1.327-1.327l-.949-.949.949-.949a.938.938,0,0,0,0-1.327h0a.938.938,0,0,0-1.327,0l-.949.949-.949-.949a.939.939,0,0,0-1.327,0h0a.935.935,0,0,0-.275.663Z" transform="translate(-295.257 -435.336)" fill="#133d60"/>
  <path id="Trazado_122316-2" data-name="Trazado 122316" d="M325.19,445.346a.935.935,0,0,0,.275.663l.95.949-.95.949a.938.938,0,0,0,1.327,1.327l.949-.949.949.949a.938.938,0,0,0,1.327-1.327l-.949-.949.949-.949a.938.938,0,0,0,0-1.327h0a.938.938,0,0,0-1.327,0l-.949.949-.949-.949a.939.939,0,0,0-1.327,0h0a.935.935,0,0,0-.275.663Z" transform="translate(-295.257 -417.192)" fill="#133d60"/>
  <path id="Trazado_122332" data-name="Trazado 122332" d="M325.19,445.346a.935.935,0,0,0,.275.663l.95.949-.95.949a.938.938,0,0,0,1.327,1.327l.949-.949.949.949a.938.938,0,0,0,1.327-1.327l-.949-.949.949-.949a.938.938,0,0,0,0-1.327h0a.938.938,0,0,0-1.327,0l-.949.949-.949-.949a.939.939,0,0,0-1.327,0h0a.935.935,0,0,0-.275.663Z" transform="translate(-295.257 -444.408)" fill="#133d60"/>
  <path id="Trazado_122318-2" data-name="Trazado 122318" d="M325.19,445.346a.935.935,0,0,0,.275.663l.95.949-.95.949a.938.938,0,0,0,1.327,1.327l.949-.949.949.949a.938.938,0,0,0,1.327-1.327l-.949-.949.949-.949a.938.938,0,0,0,0-1.327h0a.938.938,0,0,0-1.327,0l-.949.949-.949-.949a.939.939,0,0,0-1.327,0h0a.935.935,0,0,0-.275.663Z" transform="translate(-295.257 -399.873)" fill="#133d60"/>
  <path id="Trazado_122333" data-name="Trazado 122333" d="M325.19,445.346a.935.935,0,0,0,.275.663l.95.949-.95.949a.938.938,0,0,0,1.327,1.327l.949-.949.949.949a.938.938,0,0,0,1.327-1.327l-.949-.949.949-.949a.938.938,0,0,0,0-1.327h0a.938.938,0,0,0-1.327,0l-.949.949-.949-.949a.939.939,0,0,0-1.327,0h0a.935.935,0,0,0-.275.663Z" transform="translate(-295.257 -426.264)" fill="#133d60"/>
  <path id="Trazado_122314-2" data-name="Trazado 122314" d="M325.19,445.346a.935.935,0,0,0,.275.663l.95.949-.95.949a.938.938,0,0,0,1.327,1.327l.949-.949.949.949a.938.938,0,0,0,1.327-1.327l-.949-.949.949-.949a.938.938,0,0,0,0-1.327h0a.938.938,0,0,0-1.327,0l-.949.949-.949-.949a.939.939,0,0,0-1.327,0h0a.935.935,0,0,0-.275.663Z" transform="translate(-285.168 -408.945)" fill="#133d60"/>
  <path id="Trazado_122334" data-name="Trazado 122334" d="M325.19,445.346a.935.935,0,0,0,.275.663l.95.949-.95.949a.938.938,0,0,0,1.327,1.327l.949-.949.949.949a.938.938,0,0,0,1.327-1.327l-.949-.949.949-.949a.938.938,0,0,0,0-1.327h0a.938.938,0,0,0-1.327,0l-.949.949-.949-.949a.939.939,0,0,0-1.327,0h0a.935.935,0,0,0-.275.663Z" transform="translate(-285.168 -435.336)" fill="#133d60"/>
  <path id="Trazado_122320-2" data-name="Trazado 122320" d="M325.19,445.346a.935.935,0,0,0,.275.663l.95.949-.95.949a.938.938,0,0,0,1.327,1.327l.949-.949.949.949a.938.938,0,0,0,1.327-1.327l-.949-.949.949-.949a.938.938,0,0,0,0-1.327h0a.938.938,0,0,0-1.327,0l-.949.949-.949-.949a.939.939,0,0,0-1.327,0h0a.935.935,0,0,0-.275.663Z" transform="translate(-275.078 -408.945)" fill="#133d60"/>
  <path id="Trazado_122337" data-name="Trazado 122337" d="M325.19,445.346a.935.935,0,0,0,.275.663l.95.949-.95.949a.938.938,0,0,0,1.327,1.327l.949-.949.949.949a.938.938,0,0,0,1.327-1.327l-.949-.949.949-.949a.938.938,0,0,0,0-1.327h0a.938.938,0,0,0-1.327,0l-.949.949-.949-.949a.939.939,0,0,0-1.327,0h0a.935.935,0,0,0-.275.663Z" transform="translate(-275.078 -435.336)" fill="#133d60"/>
  <path id="Trazado_122315-2" data-name="Trazado 122315" d="M325.19,445.346a.935.935,0,0,0,.275.663l.95.949-.95.949a.938.938,0,0,0,1.327,1.327l.949-.949.949.949a.938.938,0,0,0,1.327-1.327l-.949-.949.949-.949a.938.938,0,0,0,0-1.327h0a.938.938,0,0,0-1.327,0l-.949.949-.949-.949a.939.939,0,0,0-1.327,0h0a.935.935,0,0,0-.275.663Z" transform="translate(-285.168 -417.192)" fill="#133d60"/>
  <path id="Trazado_122335" data-name="Trazado 122335" d="M325.19,445.346a.935.935,0,0,0,.275.663l.95.949-.95.949a.938.938,0,0,0,1.327,1.327l.949-.949.949.949a.938.938,0,0,0,1.327-1.327l-.949-.949.949-.949a.938.938,0,0,0,0-1.327h0a.938.938,0,0,0-1.327,0l-.949.949-.949-.949a.939.939,0,0,0-1.327,0h0a.935.935,0,0,0-.275.663Z" transform="translate(-285.168 -444.408)" fill="#133d60"/>
  <path id="Trazado_122319-2" data-name="Trazado 122319" d="M325.19,445.346a.935.935,0,0,0,.275.663l.95.949-.95.949a.938.938,0,0,0,1.327,1.327l.949-.949.949.949a.938.938,0,0,0,1.327-1.327l-.949-.949.949-.949a.938.938,0,0,0,0-1.327h0a.938.938,0,0,0-1.327,0l-.949.949-.949-.949a.939.939,0,0,0-1.327,0h0a.935.935,0,0,0-.275.663Z" transform="translate(-275.078 -417.192)" fill="#133d60"/>
  <path id="Trazado_122338" data-name="Trazado 122338" d="M325.19,445.346a.935.935,0,0,0,.275.663l.95.949-.95.949a.938.938,0,0,0,1.327,1.327l.949-.949.949.949a.938.938,0,0,0,1.327-1.327l-.949-.949.949-.949a.938.938,0,0,0,0-1.327h0a.938.938,0,0,0-1.327,0l-.949.949-.949-.949a.939.939,0,0,0-1.327,0h0a.935.935,0,0,0-.275.663Z" transform="translate(-275.078 -444.408)" fill="#133d60"/>
  <path id="Trazado_122317-2" data-name="Trazado 122317" d="M325.19,445.346a.935.935,0,0,0,.275.663l.95.949-.95.949a.938.938,0,0,0,1.327,1.327l.949-.949.949.949a.938.938,0,0,0,1.327-1.327l-.949-.949.949-.949a.938.938,0,0,0,0-1.327h0a.938.938,0,0,0-1.327,0l-.949.949-.949-.949a.939.939,0,0,0-1.327,0h0a.935.935,0,0,0-.275.663Z" transform="translate(-285.168 -399.873)" fill="#133d60"/>
  <path id="Trazado_122336" data-name="Trazado 122336" d="M325.19,445.346a.935.935,0,0,0,.275.663l.95.949-.95.949a.938.938,0,0,0,1.327,1.327l.949-.949.949.949a.938.938,0,0,0,1.327-1.327l-.949-.949.949-.949a.938.938,0,0,0,0-1.327h0a.938.938,0,0,0-1.327,0l-.949.949-.949-.949a.939.939,0,0,0-1.327,0h0a.935.935,0,0,0-.275.663Z" transform="translate(-285.168 -426.264)" fill="#133d60"/>
  <path id="Trazado_122321-2" data-name="Trazado 122321" d="M325.19,445.346a.935.935,0,0,0,.275.663l.95.949-.95.949a.938.938,0,0,0,1.327,1.327l.949-.949.949.949a.938.938,0,0,0,1.327-1.327l-.949-.949.949-.949a.938.938,0,0,0,0-1.327h0a.938.938,0,0,0-1.327,0l-.949.949-.949-.949a.939.939,0,0,0-1.327,0h0a.935.935,0,0,0-.275.663Z" transform="translate(-275.078 -399.873)" fill="#133d60"/>
  <path id="Trazado_122339" data-name="Trazado 122339" d="M325.19,445.346a.935.935,0,0,0,.275.663l.95.949-.95.949a.938.938,0,0,0,1.327,1.327l.949-.949.949.949a.938.938,0,0,0,1.327-1.327l-.949-.949.949-.949a.938.938,0,0,0,0-1.327h0a.938.938,0,0,0-1.327,0l-.949.949-.949-.949a.939.939,0,0,0-1.327,0h0a.935.935,0,0,0-.275.663Z" transform="translate(-275.078 -426.264)" fill="#133d60"/>
</svg>
