<svg xmlns="http://www.w3.org/2000/svg" width="64.597" height="78.92" viewBox="0 0 64.597 78.92">
  <g id="icon10" transform="translate(-5452.28 -64.158)">
    <g id="Grupo_133634" data-name="Grupo 133634" transform="translate(5452.28 64.158)">
      <path id="Trazado_126614" data-name="Trazado 126614" d="M5458.864,143.079c-.052-6.268.065-12.544-.236-18.8a50.129,50.129,0,0,0-1.7-8.592c-1.35-5.875-2.877-11.712-4.118-17.61a26.592,26.592,0,0,1,.994-14.06,28.676,28.676,0,0,1,11.156-14.811,27.466,27.466,0,0,1,12.225-4.763A28.314,28.314,0,0,1,5501.7,72.6a27.449,27.449,0,0,1,8.208,16.433c.233,1.775.2,3.584.313,5.376a4.449,4.449,0,0,0,.243,1.34c1.99,5.006,4.006,10,6.011,15,1.215,3.029-.432,5.488-3.676,5.5-1.669,0-3.338,0-5.123,0,0,.344,0,.642,0,.941-.012,2.261.05,4.526-.053,6.782a7.429,7.429,0,0,1-7.036,6.9c-1,.04-2.005.009-3.008.018a2.86,2.86,0,0,0-3.072,3.087c-.014,3.033-.009,6.065-.012,9.1Zm33.3-2.378c0-.327,0-.6,0-.879,0-2.082-.039-4.165.021-6.245a5.087,5.087,0,0,1,4.966-5c.873-.038,1.748-.014,2.622-.02a5.159,5.159,0,0,0,5.541-5.534c.008-2.75,0-5.5,0-8.251v-.852c2.564,0,5,0,7.445,0,1.621,0,2.133-.764,1.529-2.276q-3.133-7.825-6.262-15.651a2.482,2.482,0,0,1-.2-1.034A26.671,26.671,0,0,0,5493.553,69.5a26.54,26.54,0,0,0-25.386.474,26.28,26.28,0,0,0-11.189,12.351,24.715,24.715,0,0,0-1.852,15.356c1.266,6.1,2.756,12.162,4.294,18.2a55.859,55.859,0,0,1,1.86,15.624c-.086,2.773-.015,5.552-.015,8.327v.866Z" transform="translate(-5452.279 -64.158)" fill="#12263f"/>
      <path id="Trazado_126615" data-name="Trazado 126615" d="M5470.291,93.249h3.073c.181,0,.474.067.522-.013a21.474,21.474,0,0,0,1.121-2.063.721.721,0,0,0-.15-.637c-.789-.807-1.615-1.579-2.36-2.3l6.024-6.015c.649.673,1.433,1.45,2.173,2.265.318.35.578.262.991.181,1.7-.333,2.073-1.4,1.846-2.928a12.033,12.033,0,0,1-.014-1.72h8.417c0,1.09.022,2.185-.008,3.279-.013.451.177.613.554.848a2.2,2.2,0,0,0,3.374-.752,15.2,15.2,0,0,1,1.139-1.32l5.959,6-2.737,2.552,1.083,2.625h3.866v8.372c-1.067,0-2.111.026-3.153-.011-.536-.019-.732.2-1.018.656-.865,1.383-.525,2.362.723,3.242a9.872,9.872,0,0,1,1.195,1.149l-5.958,5.957c-.663-.669-1.451-1.44-2.207-2.24-.292-.307-.554-.421-.93-.173a1.449,1.449,0,0,1-.557.256c-1.208.169-1.463.913-1.34,2a21.648,21.648,0,0,1,.016,2.369h-8.417c0-1.061-.033-2.109.014-3.154.024-.565-.162-.875-.71-.973a.355.355,0,0,1-.146-.045c-1.231-.925-2.105-.392-2.911.659a14.81,14.81,0,0,1-1.3,1.338l-5.973-6.041c.695-.657,1.481-1.425,2.3-2.158.32-.288.286-.526.2-.926-.36-1.655-1.343-2.207-2.957-1.921a10.352,10.352,0,0,1-1.734.016Zm2.36,6.055h3.186l2.227,5.384-2.2,2.106,2.667,2.681,2.081-2.316,5.3,2.188v3.16h3.671c0-.961-.022-1.881.017-2.8a.827.827,0,0,1,.35-.631c1.583-.634,3.187-1.221,4.984-1.9l2.007,2.148,2.743-2.735-2.213-2.021c.648-1.664,1.278-3.172,1.807-4.715.159-.464.329-.6.785-.588.912.029,1.827.009,2.75.009V95.564h-3.33c-.308-.958-.53-1.834-.875-2.659-.353-.843-.826-1.637-1.318-2.59l2.315-2.121-2.671-2.681-2.035,2.209c-1.67-.657-3.149-1.3-4.668-1.806-.538-.181-.674-.4-.655-.9.03-.887.008-1.775.008-2.646h-3.7c0,.976.03,1.9-.021,2.821a.874.874,0,0,1-.441.638c-1.559.633-3.139,1.217-5.007,1.928l-1.94-2.186-2.645,2.652c.615.6,1.31,1.248,1.963,1.936a.712.712,0,0,1,.13.629c-.677,1.565-1.394,3.114-2.164,4.812h-3.111Z" transform="translate(-5459.45 -70.473)" fill="#12263f"/>
      <path id="Trazado_126616" data-name="Trazado 126616" d="M5505.83,185.991v2.239H5492.8v-2.239Z" transform="translate(-5468.408 -112.653)" fill="#12263f"/>
      <path id="Trazado_126617" data-name="Trazado 126617" d="M5529.428,84.129l-1.973,1.265a23.586,23.586,0,0,0-7.418-7.212l1.219-2.019A25.258,25.258,0,0,1,5529.428,84.129Z" transform="translate(-5479.251 -68.937)" fill="#12263f"/>
      <path id="Trazado_126618" data-name="Trazado 126618" d="M5485.323,185.981v2.31h-4.077c-2.147,0-2.147,0-1.795-2.31Z" transform="translate(-5463.026 -112.649)" fill="#12263f"/>
      <path id="Trazado_126619" data-name="Trazado 126619" d="M5538.134,97.279l-2.253.663-1.461-3.673,2.082-1.07Z" transform="translate(-5484.975 -75.718)" fill="#12263f"/>
      <path id="Trazado_126620" data-name="Trazado 126620" d="M5502.472,102.665a9.531,9.531,0,1,1-19.055-.4,9.692,9.692,0,0,1,9.533-9.183A9.594,9.594,0,0,1,5502.472,102.665Zm-9.493,7.072a7.1,7.1,0,1,0-.062-14.207,7.1,7.1,0,1,0,.062,14.207Z" transform="translate(-5464.672 -75.673)" fill="#12263f"/>
      <path id="Trazado_126621" data-name="Trazado 126621" d="M5500.9,105.732a4.884,4.884,0,1,1-4.881-4.921A4.906,4.906,0,0,1,5500.9,105.732Zm-2.342-.016a2.545,2.545,0,0,0-5.09,0,2.6,2.6,0,0,0,2.552,2.557A2.569,2.569,0,0,0,5498.559,105.716Z" transform="translate(-5467.745 -78.748)" fill="#12263f"/>
    </g>
  </g>
</svg>
