<svg xmlns="http://www.w3.org/2000/svg" width="79.646" height="80.662" viewBox="0 0 79.646 80.662">
  <g id="icon13" transform="translate(8471.158 5440.843)">
    <path id="Trazado_126636" data-name="Trazado 126636" d="M2230.235,328.726a19.653,19.653,0,0,0-2.31-5.307c-.093-.106-.192-.207-.278-.319a15.872,15.872,0,0,0-13.247-6.578c-1.995.005-3.99-.017-5.985-.026-.6.009-1.2.015-1.8.03-.688.017-1-.313-.952-1a.371.371,0,0,0,0-.086c-.271-1.562.312-2.478,1.735-3.359a21.076,21.076,0,0,0,9.445-12.857c.14-.515.3-.808.921-.861a3.517,3.517,0,0,0,2.789-2.153,6.883,6.883,0,0,0,.37-5.243l-.713-1.362a4.308,4.308,0,0,0-2.226-1.484c-.466-.089-.352-.445-.354-.736-.006-1.537,0-3.074,0-4.611l2.585-.152a14.119,14.119,0,0,0,3.679-.933,3.608,3.608,0,0,0,2.226-2.393,4.557,4.557,0,0,0-.378-2.232h0a.286.286,0,0,0-.207-.33,19.585,19.585,0,0,0-5.5-4.749l-1.17-.724c-.33-.162-.668-.308-.988-.489-.436-.247-.886-.4-1.18.131-.257.462,0,.812.44,1.033a1.244,1.244,0,0,1,.2.157,5.394,5.394,0,0,1,1.425.819,1.952,1.952,0,0,1,.835.5,13.831,13.831,0,0,1,4.1,3.3h0a.306.306,0,0,0,.308.366c1.253,1.569.987,2.68-.855,3.433a8.33,8.33,0,0,1-3.232.669,5.2,5.2,0,0,1-1.6.174,23.87,23.87,0,0,0-3.06-10.6l.023-.016a22.841,22.841,0,0,0,3.128-2.655,8.6,8.6,0,0,0,1.447-2.2q.076-.665.151-1.331a3.561,3.561,0,0,0-2.26-2.593,12.39,12.39,0,0,0-3.716-.915,37.131,37.131,0,0,0-5.381-.113.662.662,0,0,0-.732.67c-.012.447.3.657.714.692a7.452,7.452,0,0,0,.769-.005,27.183,27.183,0,0,1,4.95.2,6.554,6.554,0,0,1,3.7,1.35l-.021,0,.193.188a1.274,1.274,0,0,1,.182,1.593,1.749,1.749,0,0,1-.419.828,13.13,13.13,0,0,1-3.458,3.077l-.227-.366-.229.133c-5.923-7.948-13.684-11.122-23.066-9.424a22.423,22.423,0,0,0-7.975,3.363l-2.2,1.733a30.083,30.083,0,0,0-4.077,4.709,7.78,7.78,0,0,1-1.477-1.122,5.877,5.877,0,0,1-1.552-1.406,3.279,3.279,0,0,1-.848-1.058,1.707,1.707,0,0,1,.748-2.7,6.751,6.751,0,0,1,1.515-.577,25.14,25.14,0,0,1,7.065-.5c.511.011.961-.105.963-.7,0-.545-.42-.663-.9-.68a39.643,39.643,0,0,0-4.539.052,12.526,12.526,0,0,0-4.479,1.029c-2.226,1.06-2.75,2.928-1.419,5a8.637,8.637,0,0,0,1.823,2.033c.674.549,1.365,1.076,2.055,1.6l-1.357,2.813-.766,2.356-.022.083a31.93,31.93,0,0,0-.8,5.457,13.89,13.89,0,0,1-3.5-.453,3.729,3.729,0,0,1-1.576-.523c-1.47-.68-1.76-1.587-.9-2.935a7.948,7.948,0,0,1,.97-1.194,17.778,17.778,0,0,1,3.581-2.775c.873-.54,1.771-1.04,2.664-1.549.4-.229.625-.556.406-.987-.245-.485-.662-.462-1.094-.213-.4.228-.8.434-1.2.668a20.858,20.858,0,0,0-6.158,4.842c-1.78,2.285-1.269,4.3,1.359,5.513.155.072.305.151.458.227l1.87.471a33.232,33.232,0,0,0,3.808.335l3.979-.048c2.175-.283,4.348-.576,6.524-.846a29.734,29.734,0,0,1,3.451-.534l-.023.011.014,0,.008-.011a17.09,17.09,0,0,1,2.922-.745c1.537-.425,3.088-.8,4.628-1.211a1.824,1.824,0,0,1,1.008-.05c2.49.724,5.008,1.336,7.546,1.868.067.014.121.086.18.136,1.509.073,2.962.516,4.455.694,1.839.219,3.677.456,5.515.684a6.862,6.862,0,0,0,2.065,1.184.692.692,0,0,1,.528.748c-.06,3.514.111,7.03-.1,10.542a20.682,20.682,0,0,1-40.958,2.124,23.784,23.784,0,0,1-.352-4.693c0-2.6.014-5.2-.009-7.8a.851.851,0,0,1,.614-.954,6.325,6.325,0,0,0,1.988-1.15l-3.979.049-.041,1.157v1.37c.015.77.026,1.54.045,2.31.006.248-.031.424-.323.507-2.15.612-2.952,2.284-3.259,4.281-.341,2.216.638,5.264,3.182,5.983.327.718.462,1.579,1.387,1.848a23.678,23.678,0,0,0,8.234,11.317,7.031,7.031,0,0,0,2.712,2.589c.01.4.027.8.027,1.2,0,1.049-.139,1.191-1.175,1.193-2.194,0-4.392.07-6.582-.014a17.218,17.218,0,0,0-10.083,2.6c-.3-.279-.171-.646-.171-.972q-.012-12.089-.006-24.178c0-.229,0-.458,0-.687a.686.686,0,1,0-1.37.039c.007.171,0,.343,0,.515q0,12.689,0,25.378c0,.342.03.684.045,1.026a16.406,16.406,0,0,0-5.3,8.783,34.72,34.72,0,0,0-.382,7.419c-.02,2.192.569,2.813,2.711,2.941q7.4-.015,14.81-.026c.542,0,1.047-.013,1.194-.683-.107-.7-.612-.7-1.159-.7q-6.862.011-13.723,0c-.313,0-.628-.017-.942-.026-1.408.07-1.536-.035-1.516-1.441.037-2.559-.213-5.137.47-7.656a14.509,14.509,0,0,1,7.449-9.334c.245-.132.483-.325.8-.208a10.7,10.7,0,0,1,5.644-1.391,8.337,8.337,0,0,1,3.143.075c.962.373.966,1.745,1.49,2.633a16.9,16.9,0,0,0,30.479-2.035.9.9,0,0,1,.977-.7,19.906,19.906,0,0,1,7.921,1.047,14.693,14.693,0,0,1,9.175,13.585c.016,1.372.005,2.744,0,4.116,0,1.179-.154,1.333-1.331,1.333h-35.158c-.886,0-1.772.016-2.658-.006-.528-.013-.893.147-1,.7.17.715.728.684,1.287.684q11.187-.006,22.373,0,7.587,0,15.173,0c1.948,0,2.711-.743,2.687-2.686C2230.654,334.01,2230.872,331.349,2230.235,328.726Zm-12.493-39.141c.256-.145.5.066.687.219a4.532,4.532,0,0,1,1.482,3.491,4.424,4.424,0,0,1-1.5,3.4c-.276.212-.63.433-.937.266s-.032-.516-.006-.78c.194-1.988.155-3.98.162-5.972C2217.628,290,2217.516,289.713,2217.742,289.586Zm-6.943-9.076a20.484,20.484,0,0,1-2.645-3.24,9.393,9.393,0,0,0-1.543-1.913l.076-.03c2.394-1.151,4.786-2.3,7.082-3.643a22.214,22.214,0,0,1,2.735,9.141A32.856,32.856,0,0,1,2210.8,280.51Zm-29.012-14.338,2.046-1.615a21,21,0,0,1,7.422-3.141c8.709-1.569,15.923,1.334,21.456,8.631-2.617,1.464-5.387,2.744-8.083,3.976l-.794.363a6.815,6.815,0,0,0-.977.048,64.559,64.559,0,0,1-14.641,0,7.29,7.29,0,0,0-.825-.054,4.037,4.037,0,0,0-.825.079,43.966,43.966,0,0,1-8.31-4.28A28.75,28.75,0,0,1,2181.787,266.172Zm-6.678,10.113.692-2.153,1.151-2.387c2.141,1.288,4.371,2.426,6.559,3.522a6.009,6.009,0,0,0-1.163,1.4,25.115,25.115,0,0,1-2.822,3.882,27.238,27.238,0,0,1-5.153.31A33.06,33.06,0,0,1,2175.108,276.285Zm11.971,3.609c-1.892.375-3.783.757-5.7.975a26.425,26.425,0,0,0,2.333-3.342,5.864,5.864,0,0,1,1.765-1.736l.041-.028c2.415.926,4.843,1.887,7.528,2.7C2190.922,279.095,2189,279.513,2187.08,279.894Zm5.332-3.047c-.5-.212-1.005-.4-1.516-.586,1.546.109,3.1.17,4.646.17s3.125-.062,4.683-.173c-.527.187-1.051.381-1.565.6A7.566,7.566,0,0,1,2192.411,276.847Zm9.171,2.523c-1.113-.245-2.215-.536-3.589-.872,2.394-.769,4.61-1.6,6.789-2.434a7.423,7.423,0,0,1,1.839,2.059,17.78,17.78,0,0,0,2.013,2.6C2206.262,280.394,2203.921,279.887,2201.582,279.37Zm-29.564,16.683a5.091,5.091,0,0,1,.077-5.7,3.185,3.185,0,0,1,.681-.633c.464-.329.7-.241.684.385-.028.939-.007,1.879-.007,3.283a19.974,19.974,0,0,0,.232,3.109c.1.578-.171.575-.555.444A2.3,2.3,0,0,1,2172.018,296.053Zm35.136,26.645c-7.41,8.442-21.363,6.283-25.785-3.978-.275-.639-.286-.889.519-.833.882.061,1.772.028,2.658.01a2.109,2.109,0,0,0,2.25-2.255c.018-.559-.265-1.35.125-1.613s1.032.272,1.567.447a21.956,21.956,0,0,0,14.861-.268c.284-.105.545-.33.941-.223,0,.587-.013,1.182,0,1.777a2.052,2.052,0,0,0,2.1,2.128c1.168.035,2.338.007,3.614.007A14.554,14.554,0,0,1,2207.154,322.7Z" transform="translate(-10628.246 -5699.907)"/>
    <path id="Trazado_126636_-_Contorno" data-name="Trazado 126636 - Contorno" d="M2163.092,339.726h-.011a3.354,3.354,0,0,1-2.4-.808,3.438,3.438,0,0,1-.638-2.485c0-.55,0-1.112-.007-1.655a25.157,25.157,0,0,1,.4-5.838,16.286,16.286,0,0,1,1.988-4.922,18.04,18.04,0,0,1,3.292-3.932q0-.078-.009-.156c-.014-.235-.028-.478-.028-.722,0-8.459,0-17.06,0-25.378,0-.062,0-.123,0-.185,0-.11,0-.214,0-.315a.992.992,0,0,1,1.007-1.1h.037a.984.984,0,0,1,1.026,1.043c0,.113,0,.227,0,.341s0,.23,0,.345v3.3c0,6.843,0,13.918.007,20.877,0,.092-.008.179-.016.264s-.013.15-.013.206a17.54,17.54,0,0,1,9.133-2.464c.268,0,.541.005.813.016.75.029,1.55.042,2.515.042.712,0,1.437-.007,2.137-.014.628-.006,1.277-.013,1.915-.014.189,0,.63,0,.726-.1s.1-.552.1-.744c0-.27-.008-.547-.017-.815,0-.062,0-.124-.006-.186a7.1,7.1,0,0,1-2.641-2.551,24.112,24.112,0,0,1-8.233-11.272,2.343,2.343,0,0,1-1.262-1.567c-.036-.093-.071-.183-.107-.27a4.63,4.63,0,0,1-2.734-2.571,6.745,6.745,0,0,1-.537-3.753c.246-1.6.878-3.816,3.51-4.565a.269.269,0,0,0,.061-.024.539.539,0,0,0,.008-.138c-.014-.551-.024-1.11-.033-1.652q-.006-.33-.012-.66V285.3l0-1.382.029-.809a32.757,32.757,0,0,1-3.5-.326l-.033-.007-1.906-.48-.033-.017-.157-.079c-.1-.051-.2-.1-.293-.144a4.146,4.146,0,0,1-2.528-2.605,4.1,4.1,0,0,1,1.041-3.44,21.033,21.033,0,0,1,6.256-4.928c.224-.133.454-.258.676-.379.173-.094.352-.192.524-.291a1.449,1.449,0,0,1,.716-.221.956.956,0,0,1,.866.579,1.044,1.044,0,0,1-.545,1.449l-.49.279c-.715.406-1.455.826-2.163,1.264a17.641,17.641,0,0,0-3.512,2.719,7.46,7.46,0,0,0-.928,1.14,1.792,1.792,0,0,0-.39,1.412c.111.381.484.713,1.141,1.016l.022.01.02.013a3.358,3.358,0,0,0,1.431.47l.023,0,.023.006a13.261,13.261,0,0,0,3.074.435,33.722,33.722,0,0,1,.793-5.174l.031-.117.773-2.378,1.243-2.578c-.608-.466-1.234-.946-1.837-1.438a9,9,0,0,1-1.9-2.115,3.472,3.472,0,0,1,1.563-5.5,12.893,12.893,0,0,1,4.6-1.062c.8-.063,1.634-.093,2.565-.093.607,0,1.265.013,2.013.04,1.025.037,1.238.582,1.236,1.032,0,.392-.165,1.05-1.25,1.05h-.08c-.673-.016-1.369-.032-2.05-.032a19.478,19.478,0,0,0-4.91.519,6.408,6.408,0,0,0-1.437.546,1.667,1.667,0,0,0-.908.932,1.7,1.7,0,0,0,.3,1.287,2.968,2.968,0,0,0,.753.952l.038.028.029.037a5.5,5.5,0,0,0,1.459,1.324l.036.022.03.03a6.711,6.711,0,0,0,1.135.9,30.555,30.555,0,0,1,3.932-4.49l.023-.02,2.23-1.755a22.752,22.752,0,0,1,8.1-3.41,27.22,27.22,0,0,1,4.825-.45c7.289,0,13.477,3.283,18.4,9.759l.254-.148.217.351a12.474,12.474,0,0,0,3.071-2.8,1.46,1.46,0,0,0,.35-.659l.007-.053.022-.049c.245-.538.214-.885-.107-1.2l-.193-.188-.147-.144a6.138,6.138,0,0,0-3.07-1.064l-.273-.044a19.735,19.735,0,0,0-3.182-.216c-.512,0-1.036.01-1.542.02l-.163,0-.216.007c-.1,0-.21.008-.318.008s-.188,0-.272-.011a1.031,1.031,0,1,1,.038-2.06c.849-.026,1.563-.044,2.283-.044a27.283,27.283,0,0,1,3.148.158,12.884,12.884,0,0,1,3.82.944,3.883,3.883,0,0,1,2.46,2.843l.011.054-.006.055q-.057.506-.115,1.012l-.043.376-.024.052a8.9,8.9,0,0,1-1.506,2.292,21.578,21.578,0,0,1-2.954,2.531A24.218,24.218,0,0,1,2218.641,281a4.253,4.253,0,0,0,1.167-.159l.051-.016h.108a7.957,7.957,0,0,0,3.042-.643c.8-.327,1.263-.716,1.378-1.159a2.041,2.041,0,0,0-.588-1.634.628.628,0,0,1-.458-.557,13.792,13.792,0,0,0-3.924-3.12l-.041-.023-.033-.033a1.6,1.6,0,0,0-.688-.413l-.068-.021-.054-.045a5.012,5.012,0,0,0-1.334-.764l-.046-.019-.039-.031c-.026-.021-.052-.044-.077-.066a.663.663,0,0,0-.062-.052,1.268,1.268,0,0,1-.695-.722.992.992,0,0,1,.106-.794.928.928,0,0,1,.835-.537,1.743,1.743,0,0,1,.824.272c.208.118.425.22.654.329.105.05.21.1.315.151l.03.017,1.157.716.021.013a20.125,20.125,0,0,1,5.537,4.757.613.613,0,0,1,.331.553,4.742,4.742,0,0,1,.374,2.348l-.006.031a3.9,3.9,0,0,1-2.419,2.625,13.658,13.658,0,0,1-3.566.927l-.238.037-2.256.133q0,.527,0,1.054c0,1.057,0,2.151,0,3.226,0,.059,0,.116-.006.171a1.014,1.014,0,0,0,0,.2.288.288,0,0,0,.075.022,4.625,4.625,0,0,1,2.412,1.584l.035.036.754,1.441.01.036a7.2,7.2,0,0,1-.4,5.5,3.822,3.822,0,0,1-3.068,2.338c-.406.035-.491.153-.614.6a21.425,21.425,0,0,1-9.6,13.063c-1.379.854-1.806,1.667-1.574,3a.708.708,0,0,1,.005.17.7.7,0,0,0,.1.493.614.614,0,0,0,.454.131h.041c.443-.011.892-.017,1.326-.023l.475-.007h.007l1.845.011c1.151.008,2.341.016,3.51.016h.683a16.682,16.682,0,0,1,7.561,1.7,17.277,17.277,0,0,1,5.908,5.014c.05.065.108.128.169.2l.094.105.022.025.017.029a19.177,19.177,0,0,1,2.348,5.4,25.139,25.139,0,0,1,.465,6.223c-.005.587-.011,1.194,0,1.788a3.063,3.063,0,0,1-.694,2.311,3.123,3.123,0,0,1-2.343.73h-25.157q-6.194,0-12.389,0h-.149a1.281,1.281,0,0,1-1.478-.953l-.018-.074.015-.075a1.158,1.158,0,0,1,1.288-.985h.065c.317.008.659.012,1.077.012l.784,0,.788,0h35.158a1.713,1.713,0,0,0,.858-.122,1.731,1.731,0,0,0,.123-.862q0-.486,0-.972c0-1.029.007-2.094-.006-3.139a14.558,14.558,0,0,0-2.473-8.023,14.4,14.4,0,0,0-6.485-5.242,17.961,17.961,0,0,0-6.9-1.024q-.443,0-.886,0c-.389,0-.5.087-.653.471a17.073,17.073,0,0,1-15.87,10.942c-.458,0-.921-.019-1.378-.056a17.416,17.416,0,0,1-8.062-2.6,18.17,18.17,0,0,1-5.8-6.194,5.528,5.528,0,0,1-.45-1.1c-.21-.643-.391-1.2-.866-1.382a3.011,3.011,0,0,0-1.1-.168c-.343,0-.71.031-1.065.06-.275.023-.559.047-.835.056a10.479,10.479,0,0,0-5.467,1.335l-.148.1-.165-.061a.2.2,0,0,0-.072-.014.767.767,0,0,0-.313.132c-.041.024-.083.048-.124.07a14.838,14.838,0,0,0-4.622,3.775,14.586,14.586,0,0,0-2.655,5.343,20.95,20.95,0,0,0-.464,5.753c.007.6.014,1.211.005,1.817a2.306,2.306,0,0,0,.109,1.011.937.937,0,0,0,.542.091c.127,0,.28,0,.5-.016h.028l.3.01c.209.008.425.016.634.016h6.858c2.655,0,4.837,0,6.865,0h.062c.451,0,1.291,0,1.444,1l.01.064-.014.063c-.209.956-1.007.957-1.535.958-3.891,0-7.848.011-11.674.019Zm3.625-46.794h-.017a.36.36,0,0,0-.253.093.381.381,0,0,0-.074.272c.005.123,0,.242,0,.357,0,.058,0,.115,0,.173,0,8.318,0,16.919,0,25.378,0,.224.013.446.027.681.007.11.013.219.018.329l.008.166-.125.111a17.421,17.421,0,0,0-3.286,3.888,15.6,15.6,0,0,0-1.9,4.711,24.638,24.638,0,0,0-.38,5.677c.006.547.012,1.112.007,1.669-.018,1.984.426,2.47,2.372,2.588l3.125-.006c3.826-.008,7.783-.016,11.674-.019.572,0,.752-.043.836-.345-.059-.285-.2-.341-.741-.341h-.06c-2.029,0-4.211,0-6.867,0h-6.858c-.222,0-.444-.008-.66-.016l-.278-.01c-.222.011-.383.016-.519.016a1.371,1.371,0,0,1-1.04-.3c-.3-.309-.321-.8-.311-1.513.009-.6,0-1.208-.006-1.8a21.486,21.486,0,0,1,.488-5.944,14.907,14.907,0,0,1,7.621-9.551c.035-.019.069-.039.1-.059a1.305,1.305,0,0,1,.664-.227.881.881,0,0,1,.134.01,11.257,11.257,0,0,1,5.692-1.365c.26-.009.523-.031.8-.055.369-.031.751-.062,1.123-.062a3.674,3.674,0,0,1,1.356.215,2.531,2.531,0,0,1,1.278,1.817,4.928,4.928,0,0,0,.387.963,17.479,17.479,0,0,0,5.571,5.96,16.725,16.725,0,0,0,7.742,2.5c.438.036.882.054,1.321.054a16.373,16.373,0,0,0,15.217-10.494,1.231,1.231,0,0,1,1.3-.92q.447,0,.892,0a18.566,18.566,0,0,1,7.166,1.077,15.1,15.1,0,0,1,6.8,5.5,15.257,15.257,0,0,1,2.593,8.407c.012,1.05.009,2.118.006,3.15q0,.486,0,.971a1.337,1.337,0,0,1-1.681,1.682h-35.158l-.784,0-.788,0c-.424,0-.772,0-1.095-.012h-.048c-.4,0-.523.116-.584.345.092.295.275.341.777.341h.148q6.2,0,12.39,0H2228a2.509,2.509,0,0,0,1.845-.522,2.447,2.447,0,0,0,.492-1.81c-.007-.6,0-1.213,0-1.8a24.612,24.612,0,0,0-.445-6.051,19.567,19.567,0,0,0-2.255-5.183l-.064-.071c-.068-.075-.139-.153-.207-.241a16.588,16.588,0,0,0-5.667-4.816,15.99,15.99,0,0,0-7.247-1.626h-.683c-1.172,0-2.363-.008-3.515-.016l-1.841-.011-.472.007c-.432.006-.879.012-1.319.023h-.057a1.261,1.261,0,0,1-.968-.355,1.3,1.3,0,0,1-.284-1.02s0-.008,0-.013c-.278-1.622.272-2.7,1.9-3.7a20.745,20.745,0,0,0,9.292-12.651,1.261,1.261,0,0,1,1.229-1.119,3.14,3.14,0,0,0,2.51-1.969,6.519,6.519,0,0,0,.352-4.95l-.672-1.284a3.943,3.943,0,0,0-2.005-1.347.782.782,0,0,1-.643-.952c0-.046.005-.089,0-.127,0-1.078,0-2.172,0-3.23q0-.692,0-1.383v-.33l2.9-.17.184-.03a12.932,12.932,0,0,0,3.387-.872,3.223,3.223,0,0,0,2.029-2.145,4.269,4.269,0,0,0-.362-2.038l0-.009.316-.109-.3,0,.012.007-.025-.007h-.025v-.007l-.068-.019-.074-.1a19.318,19.318,0,0,0-5.406-4.658l-.01-.006-1.142-.707c-.1-.047-.193-.093-.29-.139-.231-.109-.47-.222-.7-.353a1.237,1.237,0,0,0-.479-.181c-.044,0-.125,0-.223.177a.3.3,0,0,0-.05.246.636.636,0,0,0,.34.3.961.961,0,0,1,.215.156l.013.012a5.706,5.706,0,0,1,1.41.808,2.3,2.3,0,0,1,.879.535,14.179,14.179,0,0,1,4.156,3.361l.2.248.019,0,.092.115a2.722,2.722,0,0,1,.794,2.345,2.657,2.657,0,0,1-1.791,1.63,8.642,8.642,0,0,1-3.306.7h-.008a5.371,5.371,0,0,1-1.485.175h-.168l-.328,0-.017-.327a23.545,23.545,0,0,0-3.015-10.445l-.156-.277.278-.194.214-.162a21.057,21.057,0,0,0,2.862-2.447,8.173,8.173,0,0,0,1.364-2.064l.03-.262.109-.956a3.2,3.2,0,0,0-2.05-2.291,12.228,12.228,0,0,0-3.612-.887,26.6,26.6,0,0,0-3.068-.154c-.711,0-1.419.017-2.262.043-.385.011-.39.226-.393.329s-.008.3.393.334c.064.006.133.008.213.008.094,0,.19,0,.291-.008.077,0,.153-.006.23-.007l.162,0c.51-.01,1.036-.02,1.555-.02a20.389,20.389,0,0,1,3.3.225l.271.044a6.369,6.369,0,0,1,3.611,1.4l.859.806-.3-.053a1.78,1.78,0,0,1-.108,1.379,2.146,2.146,0,0,1-.479.94,13.455,13.455,0,0,1-3.549,3.16l-.3.191-.234-.378-.2.119-.187-.251a25.222,25.222,0,0,0-8.143-7.3,20.584,20.584,0,0,0-9.879-2.432,26.52,26.52,0,0,0-4.7.438,22.075,22.075,0,0,0-7.836,3.305l-2.172,1.711a29.753,29.753,0,0,0-4.018,4.643l-.189.271-.281-.173a8.081,8.081,0,0,1-1.512-1.143,6.185,6.185,0,0,1-1.58-1.43,3.676,3.676,0,0,1-.906-1.136,2.337,2.337,0,0,1-.365-1.828,2.31,2.31,0,0,1,1.248-1.358,7.087,7.087,0,0,1,1.593-.608,20.129,20.129,0,0,1,5.088-.542c.689,0,1.389.017,2.066.033h.064c.548,0,.549-.179.549-.353,0-.152,0-.309-.561-.33-.74-.027-1.39-.04-1.988-.04-.913,0-1.734.03-2.51.091a12.256,12.256,0,0,0-4.355,1,2.786,2.786,0,0,0-1.276,4.494,8.3,8.3,0,0,0,1.75,1.951c.635.517,1.3,1.025,1.94,1.517l.333.255-1.47,3.049-.756,2.324-.017.065a31.707,31.707,0,0,0-.792,5.389l-.013.339-.339,0a14.139,14.139,0,0,1-3.563-.458,4.022,4.022,0,0,1-1.677-.559,2.483,2.483,0,0,1-1.5-1.445,2.417,2.417,0,0,1,.471-1.985A8.109,8.109,0,0,1,2167.5,276a18.293,18.293,0,0,1,3.65-2.831c.719-.445,1.465-.868,2.186-1.277l.489-.278c.414-.237.322-.417.268-.524-.1-.2-.191-.2-.241-.2a.765.765,0,0,0-.366.127c-.18.1-.363.2-.539.3-.217.118-.441.24-.654.366a20.466,20.466,0,0,0-6.061,4.756,3.4,3.4,0,0,0-.913,2.845,3.494,3.494,0,0,0,2.143,2.135c.108.05.213.1.315.155l.118.06,1.817.457a32.723,32.723,0,0,0,3.743.329l1.942-.024,2.008-.024,1.914-.251c1.5-.2,3.06-.4,4.592-.592.438-.054.884-.147,1.315-.236a11.374,11.374,0,0,1,2.1-.3,7.89,7.89,0,0,1,1.854-.5c.365-.068.709-.131,1.048-.225.854-.237,1.726-.46,2.569-.675.677-.173,1.376-.352,2.061-.537a2.8,2.8,0,0,1,.726-.114,1.665,1.665,0,0,1,.47.065c2.361.687,4.821,1.3,7.52,1.862a.542.542,0,0,1,.255.136,19.44,19.44,0,0,1,2.519.378c.6.117,1.22.238,1.831.311,1.267.151,2.553.313,3.8.469l1.719.215.109.014.082.073a6.569,6.569,0,0,0,1.962,1.12,1.033,1.033,0,0,1,.746,1.078c-.022,1.314-.012,2.653,0,3.947.017,2.165.034,4.4-.1,6.61a21.079,21.079,0,0,1-16.51,18.914,22.5,22.5,0,0,1-4.438.448,21.184,21.184,0,0,1-7.17-1.237,20.8,20.8,0,0,1-10.844-8.924,21.965,21.965,0,0,1-2.689-7.029,24.223,24.223,0,0,1-.359-4.762l0-1.186c0-2.167.008-4.408-.011-6.611a1.185,1.185,0,0,1,.836-1.283,8.279,8.279,0,0,0,1-.46l-2.524.031-.029.818V285.3q.006.328.012.657c.01.54.02,1.1.033,1.647a.765.765,0,0,1-.577.852c-1.732.493-2.66,1.726-3.009,4a6.112,6.112,0,0,0,.481,3.353,3.92,3.92,0,0,0,2.45,2.24l.156.044.067.148c.068.149.127.3.185.45.25.644.431,1.047.981,1.208l.173.05.06.17a23.326,23.326,0,0,0,8.115,11.153l.064.049.037.072a6.718,6.718,0,0,0,2.59,2.453l.155.1,0,.185c0,.122.007.244.01.367.008.274.017.556.017.837a1.72,1.72,0,0,1-.3,1.235,1.662,1.662,0,0,1-1.224.308c-.635,0-1.283.008-1.909.014-.7.007-1.43.015-2.145.015-.975,0-1.782-.014-2.542-.043-.263-.01-.527-.015-.786-.015a16.6,16.6,0,0,0-9.1,2.563l-.227.142-.2-.181a1.131,1.131,0,0,1-.3-1.03c.007-.072.013-.14.013-.2-.007-6.959-.007-14.035-.006-20.878v-3.3q0-.171,0-.342t0-.345a.373.373,0,0,0-.083-.261A.345.345,0,0,0,2166.718,292.932Zm10.863-9.875a6.682,6.682,0,0,1-2.012,1.142c-.322.127-.4.243-.392.625.019,2.207.015,4.45.011,6.619l0,1.186a23.582,23.582,0,0,0,.345,4.624,21.271,21.271,0,0,0,2.6,6.806,20.105,20.105,0,0,0,10.48,8.625,20.483,20.483,0,0,0,6.934,1.2,21.793,21.793,0,0,0,4.3-.434,20.379,20.379,0,0,0,15.95-18.271c.132-2.182.115-4.409.1-6.562-.01-1.3-.02-2.642,0-3.964,0-.232-.032-.305-.309-.418a7.382,7.382,0,0,1-2.083-1.174l-1.613-.2c-1.243-.156-2.529-.318-3.793-.468-.637-.076-1.27-.2-1.883-.319a18,18,0,0,0-2.549-.373l-.12-.006-.091-.079c-.021-.018-.042-.038-.062-.058l-.012-.011c-2.7-.567-5.158-1.177-7.521-1.864a.977.977,0,0,0-.275-.038,2.168,2.168,0,0,0-.544.09c-.688.186-1.39.365-2.069.539-.84.215-1.708.437-2.556.672-.369.1-.744.172-1.107.239a7.286,7.286,0,0,0-1.685.451l-.085.108-.247-.041a10.947,10.947,0,0,0-1.927.284c-.445.092-.906.188-1.372.246-1.529.189-3.083.394-4.586.592Zm18,45.2a16.134,16.134,0,0,1-8.521-2.411,15.321,15.321,0,0,1-6.012-6.99c-.163-.379-.294-.742-.1-1.033a.843.843,0,0,1,.744-.3c.068,0,.141,0,.223.008.334.023.7.035,1.124.035.377,0,.763-.009,1.136-.017l.367-.008a1.765,1.765,0,0,0,1.907-1.916,3.605,3.605,0,0,0-.039-.511c-.057-.481-.128-1.08.318-1.381a.773.773,0,0,1,.441-.13,2.278,2.278,0,0,1,.956.32,3.751,3.751,0,0,0,.475.213,22.361,22.361,0,0,0,6.969,1.148,22.057,22.057,0,0,0,7.662-1.411c.055-.02.115-.049.179-.08a1.506,1.506,0,0,1,.677-.193,1.139,1.139,0,0,1,.3.04l.259.07v.268c0,.181,0,.364,0,.547,0,.4-.006.815.006,1.221a1.712,1.712,0,0,0,1.762,1.788c.4.012.822.017,1.34.017.357,0,.712,0,1.087-.005s.774-.005,1.176-.005h.5l-.166.467a14.9,14.9,0,0,1-2.92,4.914,15.486,15.486,0,0,1-5.492,4.022A15.8,15.8,0,0,1,2195.581,328.26Zm-14.019-10.024a2.561,2.561,0,0,0,.129.346,14.624,14.624,0,0,0,5.738,6.672,15.435,15.435,0,0,0,8.152,2.306,15.1,15.1,0,0,0,6.065-1.251,14.793,14.793,0,0,0,5.246-3.842,14.29,14.29,0,0,0,2.61-4.218l-.666,0c-.377,0-.733.005-1.092.005-.525,0-.957-.006-1.361-.018a2.392,2.392,0,0,1-2.441-2.468c-.012-.418-.009-.839-.006-1.245q0-.1,0-.2a1.767,1.767,0,0,0-.227.1c-.076.037-.155.075-.241.107a22.753,22.753,0,0,1-7.9,1.455,23.062,23.062,0,0,1-7.187-1.183,4.31,4.31,0,0,1-.571-.253,1.964,1.964,0,0,0-.642-.246.08.08,0,0,0-.049.01c-.092.062-.041.489-.014.718a4.171,4.171,0,0,1,.043.616,2.465,2.465,0,0,1-2.592,2.593l-.365.008c-.377.009-.767.017-1.152.017-.438,0-.822-.012-1.172-.036-.065,0-.124-.007-.175-.007A1.142,1.142,0,0,0,2181.561,318.236Zm36.143-20.862a.829.829,0,0,1-.4-.1.714.714,0,0,1-.236-.946,1.091,1.091,0,0,0,.049-.176c.16-1.645.16-3.331.159-4.96q0-.489,0-.979a1.2,1.2,0,0,0-.011-.124.737.737,0,0,1,.3-.807.705.705,0,0,1,.35-.093,1.143,1.143,0,0,1,.7.323l.026.021a4.852,4.852,0,0,1,1.612,3.738l0,.029,0,.029a4.755,4.755,0,0,1-1.638,3.649A1.59,1.59,0,0,1,2217.7,297.374Zm-.01-.7h.01a1,1,0,0,0,.491-.253,4.062,4.062,0,0,0,1.365-3.13,4.216,4.216,0,0,0-1.35-3.214l-.027-.022a1.282,1.282,0,0,0-.232-.161c0,.035.007.078.011.111a1.788,1.788,0,0,1,.016.207q0,.49,0,.977c0,1.647,0,3.349-.163,5.029a1.532,1.532,0,0,1-.08.326C2217.722,296.583,2217.705,296.633,2217.695,296.674Zm-44.234.694a1.373,1.373,0,0,1-.442-.09,2.632,2.632,0,0,1-1.284-1.02,5.434,5.434,0,0,1,.084-6.114,3.511,3.511,0,0,1,.756-.7,1.109,1.109,0,0,1,.627-.252.546.546,0,0,1,.4.167,1.009,1.009,0,0,1,.208.767c-.019.627-.015,1.247-.011,2.032,0,.367,0,.783,0,1.24a19.761,19.761,0,0,0,.227,3.05.889.889,0,0,1-.12.729A.565.565,0,0,1,2173.46,297.368Zm-.353-7.44a1.368,1.368,0,0,0-.128.082,2.818,2.818,0,0,0-.607.561,4.758,4.758,0,0,0-.07,5.278,1.935,1.935,0,0,0,.941.766c.044.015.08.026.109.034,0-.024-.006-.053-.012-.087a20.407,20.407,0,0,1-.237-3.164c0-.46,0-.875,0-1.241,0-.792-.008-1.417.011-2.057A1.4,1.4,0,0,0,2173.107,289.928Zm7.458-8.614.544-.666a26.141,26.141,0,0,0,2.3-3.3,6.17,6.17,0,0,1,1.865-1.845l.2-.135.172.066.752.289c2.142.825,4.357,1.677,6.752,2.4l1.116.337-1.117.333c-2.222.663-4.2,1.085-6,1.442l-.244.048c-1.788.354-3.636.721-5.483.931Zm5-5.158a5.323,5.323,0,0,0-1.553,1.548,26.437,26.437,0,0,1-1.828,2.71c1.54-.212,3.082-.518,4.58-.815l.244-.048c1.477-.292,3.069-.628,4.817-1.106-1.994-.647-3.864-1.367-5.682-2.066Zm-10.279,5.068c-.3,0-.609,0-.925-.011L2174,281.2l.026-.366a33.638,33.638,0,0,1,.742-4.627l.009-.034.7-2.176.01-.022,1.318-2.732.329.2c2.164,1.3,4.415,2.447,6.536,3.509l.457.229-.378.343a5.629,5.629,0,0,0-1.1,1.321,25.462,25.462,0,0,1-2.861,3.936l-.082.093-.122.021A25.555,25.555,0,0,1,2175.29,281.224Zm-.538-.7c.183,0,.363,0,.538,0a25.1,25.1,0,0,0,4.056-.3,24.715,24.715,0,0,0,2.7-3.734,6.008,6.008,0,0,1,.868-1.135c-1.895-.952-3.881-1.973-5.813-3.117l-.975,2.02-.679,2.113A35.073,35.073,0,0,0,2174.752,280.52Zm34.786.68-.952-.132c-2.321-.321-4.579-.8-7.079-1.357-.761-.168-1.5-.352-2.353-.565-.393-.1-.8-.2-1.244-.308l-1.2-.294,1.18-.379c2.446-.786,4.7-1.631,6.77-2.428l.182-.07.156.118a7.743,7.743,0,0,1,1.926,2.154,17.707,17.707,0,0,0,1.974,2.548Zm-10.281-2.749.066.016c.849.212,1.583.4,2.334.561,2.145.474,4.111.9,6.084,1.208a16.01,16.01,0,0,1-1.419-1.93,7.1,7.1,0,0,0-1.6-1.844C2203.025,277.114,2201.206,277.8,2199.257,278.451Zm16.3,2.733a30.882,30.882,0,0,1-4.816-.328l-.118-.018-.082-.087a20.729,20.729,0,0,1-2.689-3.3,8.986,8.986,0,0,0-1.485-1.842l-.4-.38.577-.225c2.326-1.118,4.731-2.274,7.045-3.624l.309-.18.174.312a22.6,22.6,0,0,1,2.778,9.283l.029.371-.372.007C2216.185,281.182,2215.866,281.184,2215.562,281.184Zm-4.591-1a30.483,30.483,0,0,0,4.591.3c.182,0,.37,0,.562,0a21.883,21.883,0,0,0-2.49-8.313c-2.12,1.217-4.3,2.276-6.421,3.3a9.8,9.8,0,0,1,1.24,1.623A19.638,19.638,0,0,0,2210.971,280.182Zm-15.426-2.3a8.231,8.231,0,0,1-3.271-.708c-.429-.183-.891-.361-1.5-.578l.143-.679c1.595.112,3.15.169,4.621.169s3.052-.058,4.658-.172l.142.679c-.63.224-1.107.406-1.546.591A8.255,8.255,0,0,1,2195.545,277.878Zm-2.468-1.145a7.07,7.07,0,0,0,4.941,0c-.845.033-1.673.05-2.477.05S2193.918,276.765,2193.077,276.732Zm2.463-1.532a65.07,65.07,0,0,1-7.364-.419,6.829,6.829,0,0,0-.785-.051,3.675,3.675,0,0,0-.754.072l-.1.021-.1-.038a44.23,44.23,0,0,1-8.376-4.314l-.3-.2.214-.295a29.016,29.016,0,0,1,3.574-4.057l.023-.02,2.078-1.638a21.316,21.316,0,0,1,7.544-3.188,25.553,25.553,0,0,1,4.513-.419c6.848,0,12.664,3.09,17.284,9.183l.243.321-.351.2c-2.557,1.431-5.185,2.653-8.109,3.989l-.868.4-.082,0-.152,0a6.8,6.8,0,0,0-.775.049A65.065,65.065,0,0,1,2195.54,275.2Zm-8.149-1.171a7.506,7.506,0,0,1,.865.056,64.209,64.209,0,0,0,14.562,0,7.483,7.483,0,0,1,.854-.053h.09l.721-.329c2.774-1.268,5.28-2.432,7.7-3.767a23.219,23.219,0,0,0-7.324-6.36,19.286,19.286,0,0,0-9.156-2.226,24.854,24.854,0,0,0-4.389.408,20.641,20.641,0,0,0-7.282,3.083l-2.019,1.594a28.424,28.424,0,0,0-3.26,3.653,43.724,43.724,0,0,0,7.844,4.006A4.45,4.45,0,0,1,2187.391,274.03Z" transform="translate(-10628.246 -5699.907)"/>
    <path id="Trazado_126637" data-name="Trazado 126637" d="M2217.6,288.4l-.01-.01-.014,0Z" transform="translate(-10642.149 -5706.949)"/>
    <path id="Trazado_126638" data-name="Trazado 126638" d="M2251.274,330.8a.675.675,0,0,0,1.348.03,4.019,4.019,0,0,0,.014-.6q0-12.827,0-25.652a3.232,3.232,0,0,0-.074-.847.6.6,0,0,0-.695-.5.639.639,0,0,0-.6.628c0,.229,0,.458,0,.687q0,6.391,0,12.783t0,12.783A6.547,6.547,0,0,0,2251.274,330.8Z" transform="translate(-10650.337 -5710.555)"/>
    <path id="Trazado_126638_-_Contorno" data-name="Trazado 126638 - Contorno" d="M2251.96,331.8h-.034a1,1,0,0,1-1-.967,4.4,4.4,0,0,1-.014-.543c0-.06,0-.121,0-.181q0-6.391,0-12.783t0-12.783c0-.258,0-.484,0-.691a1.083,1.083,0,0,1,1.067-.986.952.952,0,0,1,.911.768,3.542,3.542,0,0,1,.086.939c0,8.681,0,17.432,0,25.652,0,.049,0,.1,0,.149a2.872,2.872,0,0,1-.02.5A1,1,0,0,1,2251.96,331.8Zm.026-28.234a.29.29,0,0,0-.055.006c-.31.059-.312.209-.313.289,0,.2,0,.427,0,.682q0,6.391,0,12.783t0,12.783c0,.064,0,.128,0,.193a3.769,3.769,0,0,0,.01.456c.032.3.181.339.322.342h.017c.087,0,.265,0,.315-.329a2.357,2.357,0,0,0,.012-.383c0-.055,0-.109,0-.163,0-8.22,0-16.972,0-25.652a2.99,2.99,0,0,0-.061-.754C2252.2,303.747,2252.137,303.57,2251.986,303.57Z" transform="translate(-10650.337 -5710.555)"/>
    <path id="Trazado_126639" data-name="Trazado 126639" d="M2164.219,327.231a.675.675,0,0,0,1.348.018,4.888,4.888,0,0,0,.014-.685q0-12.808,0-25.618a4.637,4.637,0,0,0-.025-.769.668.668,0,0,0-1.318-.017,4.041,4.041,0,0,0-.028.768q0,6.426,0,12.852v12.766A6.671,6.671,0,0,0,2164.219,327.231Z" transform="translate(-10629.176 -5709.677)"/>
    <path id="Trazado_126639_-_Contorno" data-name="Trazado 126639 - Contorno" d="M2164.907,328.222h-.03a.982.982,0,0,1-1.007-.955,4.581,4.581,0,0,1-.014-.546c0-.058,0-.117,0-.175v-16.2q0-4.71,0-9.421c0-.056,0-.113,0-.17a3.1,3.1,0,0,1,.037-.665.989.989,0,0,1,1-.832h.016a.986.986,0,0,1,.991.859,3.568,3.568,0,0,1,.031.658c0,.057,0,.113,0,.169q0,12.809,0,25.618c0,.058,0,.117,0,.176a3.361,3.361,0,0,1-.02.558A.976.976,0,0,1,2164.907,328.222Zm-.014-28.262a.29.29,0,0,0-.313.267,2.559,2.559,0,0,0-.024.518c0,.061,0,.122,0,.183q0,4.71,0,9.42v16.2c0,.062,0,.124,0,.185a4,4,0,0,0,.01.464c.027.266.145.322.327.327h.013c.13,0,.271-.025.313-.321a2.816,2.816,0,0,0,.013-.446c0-.064,0-.127,0-.191q0-12.808,0-25.618c0-.06,0-.12,0-.18a2.981,2.981,0,0,0-.022-.531.289.289,0,0,0-.31-.275Z" transform="translate(-10629.176 -5709.677)"/>
    <path id="Trazado_126640" data-name="Trazado 126640" d="M2247.649,327.249a.676.676,0,0,0,1.35-.019,3.992,3.992,0,0,0,.01-.513q0-12.981,0-25.961a2.823,2.823,0,0,0-.026-.6.67.67,0,0,0-1.32.018,4.635,4.635,0,0,0-.024.769q0,6.383,0,12.766v12.853A5.6,5.6,0,0,0,2247.649,327.249Z" transform="translate(-10649.455 -5709.677)"/>
    <path id="Trazado_126640_-_Contorno" data-name="Trazado 126640 - Contorno" d="M2248.328,328.221a.978.978,0,0,1-1.026-.929,3.958,3.958,0,0,1-.017-.555c0-.058,0-.115,0-.172V313.712q0-6.383,0-12.766c0-.057,0-.114,0-.172a3.505,3.505,0,0,1,.031-.656.994.994,0,0,1,.991-.858h.026a.987.987,0,0,1,.991.823,2.344,2.344,0,0,1,.036.55c0,.041,0,.082,0,.122,0,8.147,0,16.639,0,25.961,0,.043,0,.086,0,.129a2.829,2.829,0,0,1-.014.43.989.989,0,0,1-1.012.946Zm0-28.262h-.01a.3.3,0,0,0-.316.276,2.944,2.944,0,0,0-.021.528c0,.061,0,.122,0,.183q0,6.383,0,12.766v12.853c0,.061,0,.123,0,.184a3.348,3.348,0,0,0,.012.457c.032.262.156.315.332.315v.35l0-.35c.139,0,.28-.027.321-.337a2.285,2.285,0,0,0,.009-.325c0-.047,0-.095,0-.142,0-9.322,0-17.814,0-25.961,0-.045,0-.089,0-.134a1.787,1.787,0,0,0-.02-.388C2248.586,299.988,2248.439,299.96,2248.333,299.96Z" transform="translate(-10649.455 -5709.677)"/>
    <path id="Trazado_126641" data-name="Trazado 126641" d="M2239.894,314.3q.014,5.773.023,11.546c0,.523.039,1.051.7,1.037s.68-.552.679-1.068q-.009-5.517,0-11.034a1.754,1.754,0,0,0-.244-.974C2240.535,313.657,2240.111,313.735,2239.894,314.3Z" transform="translate(-10647.574 -5713.112)"/>
    <path id="Trazado_126641_-_Contorno" data-name="Trazado 126641 - Contorno" d="M2240.639,313.39h0a1.848,1.848,0,0,1,.513.08l.129.037.071.114a2.091,2.091,0,0,1,.3,1.161c-.008,3.352-.009,6.961,0,11.032a2.135,2.135,0,0,1-.123.863.922.922,0,0,1-.9.555h-.032c-1.026,0-1.026-.972-1.026-1.387,0-2.972-.009-5.993-.016-8.915l-.007-2.7.023-.061A1.093,1.093,0,0,1,2240.639,313.39Zm.184.72a.967.967,0,0,0-.184-.02h0a.389.389,0,0,0-.395.279l.006,2.56c.008,2.922.015,5.944.016,8.917,0,.687.123.687.326.687h.018c.234-.005.337-.036.336-.718-.007-4.072-.006-7.681,0-11.035A1.511,1.511,0,0,0,2240.823,314.11Z" transform="translate(-10647.574 -5713.112)"/>
    <path id="Trazado_126642" data-name="Trazado 126642" d="M2172.627,313.75c-.616-.015-.714.438-.713.945q.005,5.619,0,11.238c0,.514.112.969.71.954s.672-.493.67-.994c-.01-1.859,0-3.718,0-5.576s0-3.717,0-5.576C2173.292,314.252,2173.256,313.766,2172.627,313.75Z" transform="translate(-10631.05 -5713.114)"/>
    <path id="Trazado_126642_-_Contorno" data-name="Trazado 126642 - Contorno" d="M2172.6,313.4h.038c1.009.026,1.006.947,1,1.341,0,1.327,0,2.677,0,3.982q0,.8,0,1.593,0,.766,0,1.531c0,1.325,0,2.7,0,4.043,0,.326.006,1.319-1.011,1.346h-.038a.964.964,0,0,1-.711-.267,1.449,1.449,0,0,1-.32-1.037c.005-3.339.006-6.91,0-11.237a1.416,1.416,0,0,1,.313-1.028A.977.977,0,0,1,2172.6,313.4Zm0,13.137h.02c.185,0,.332-.009.329-.642-.007-1.349-.006-2.721,0-4.047q0-.766,0-1.531,0-.8,0-1.592c0-1.306,0-2.656,0-3.985,0-.607-.091-.634-.322-.639h-.021a.318.318,0,0,0-.225.062.837.837,0,0,0-.108.533c0,4.328,0,7.9,0,11.239,0,.352.063.489.115.542C2172.394,326.49,2172.44,326.537,2172.594,326.537Z" transform="translate(-10631.05 -5713.114)"/>
    <path id="Trazado_126643" data-name="Trazado 126643" d="M2157.184,308.693c-.649,0-.692.533-.689,1.056.01,1.825,0,3.65,0,5.476,0,1.854,0,3.707,0,5.561,0,.512.007,1.047.687,1.047s.689-.539.689-1.048q0-5.519,0-11.038C2157.876,309.227,2157.834,308.692,2157.184,308.693Z" transform="translate(-10627.303 -5711.885)"/>
    <path id="Trazado_126643_-_Contorno" data-name="Trazado 126643 - Contorno" d="M2157.183,308.343h0a.979.979,0,0,1,.722.267,1.554,1.554,0,0,1,.318,1.137c-.006,3.76,0,7.526,0,11.037a2.157,2.157,0,0,1-.119.856.916.916,0,0,1-.921.542,1,1,0,0,1-.736-.267,1.526,1.526,0,0,1-.3-1.13c0-1.359,0-2.741,0-4.077q0-.741,0-1.483,0-.775,0-1.55c0-1.286,0-2.616,0-3.924a1.548,1.548,0,0,1,.314-1.138A.981.981,0,0,1,2157.183,308.343Zm0,13.139c.258,0,.339-.032.339-.7,0-3.511,0-7.278,0-11.038,0-.171,0-.528-.113-.642a.321.321,0,0,0-.227-.062v0a.323.323,0,0,0-.229.063c-.114.115-.112.47-.111.641.007,1.31.006,2.641,0,3.929q0,.774,0,1.549,0,.741,0,1.483c0,1.337,0,2.72,0,4.08,0,.226,0,.535.1.634A.369.369,0,0,0,2157.184,321.482Z" transform="translate(-10627.303 -5711.885)"/>
    <path id="Trazado_126644" data-name="Trazado 126644" d="M2260.343,318.949c0-1.916,0-3.832,0-5.747,0-.472-.178-.908-.7-.9-.508.01-.675.394-.674.9q.023,5.619.005,11.238c0,.5.091.973.692.971s.689-.474.687-.977C2260.339,322.61,2260.344,320.779,2260.343,318.949Z" transform="translate(-10652.209 -5712.763)"/>
    <path id="Trazado_126644_-_Contorno" data-name="Trazado 126644 - Contorno" d="M2259.656,325.767a.975.975,0,0,1-.719-.268,1.454,1.454,0,0,1-.319-1.053c.006-4,.009-7.607-.005-11.236,0-1.115.71-1.249,1.017-1.255h.024c.635,0,1.032.478,1.036,1.246,0,1.311,0,2.642,0,3.93q0,.909,0,1.819,0,.865,0,1.731c0,1.232,0,2.506,0,3.758a1.8,1.8,0,0,1-.158.843.925.925,0,0,1-.877.486Zm0-13.113h-.011c-.132,0-.332.006-.33.553.015,3.63.011,7.238.005,11.24a.877.877,0,0,0,.114.558.315.315,0,0,0,.224.063v.35l0-.35c.2,0,.239-.073.262-.116a1.288,1.288,0,0,0,.075-.51c-.005-1.254,0-2.529,0-3.762q0-.865,0-1.73,0-.91,0-1.819c0-1.287,0-2.618,0-3.927C2259.987,312.654,2259.745,312.654,2259.654,312.654Z" transform="translate(-10652.209 -5712.763)"/>
    <path id="Trazado_126645" data-name="Trazado 126645" d="M2160.123,324.5c0,.48.117.9.659.92s.718-.366.717-.86q0-5.661,0-11.324c0-.472-.156-.92-.673-.93-.568-.011-.712.421-.706.955.021,1.858.008,3.717.008,5.576C2160.126,320.724,2160.13,322.612,2160.123,324.5Z" transform="translate(-10628.183 -5712.764)"/>
    <path id="Trazado_126645_-_Contorno" data-name="Trazado 126645 - Contorno" d="M2160.826,325.77h-.059c-.455-.018-1-.254-.995-1.271.006-1.479,0-2.983,0-4.438v-1.223q0-.779,0-1.557c0-1.316.005-2.678-.01-4.015a1.389,1.389,0,0,1,.32-1.036.965.965,0,0,1,.715-.273h.027c.636.011,1.016.489,1.016,1.279q0,2.837,0,5.675t0,5.649a1.281,1.281,0,0,1-.317.941A.962.962,0,0,1,2160.826,325.77Zm-.023-13.114c-.153,0-.2.049-.218.065-.046.046-.122.177-.118.536.015,1.342.012,2.706.01,4.024q0,.778,0,1.555v1.222c0,1.455,0,2.96,0,4.441,0,.556.171.563.323.569.168.007.223-.047.24-.064a.663.663,0,0,0,.112-.446q0-2.825,0-5.649t0-5.675c0-.574-.23-.578-.329-.58Z" transform="translate(-10628.183 -5712.764)"/>
    <path id="Trazado_126646" data-name="Trazado 126646" d="M2256.016,308.692c-.583.009-.676.486-.675.991q.011,5.6,0,11.208c0,.508.1.957.711.944s.668-.494.667-.983c-.005-1.854,0-3.707,0-5.561s-.006-3.707,0-5.561C2256.725,309.2,2256.67,308.681,2256.016,308.692Z" transform="translate(-10651.329 -5711.885)"/>
    <path id="Trazado_126646_-_Contorno" data-name="Trazado 126646 - Contorno" d="M2256.036,308.342a.976.976,0,0,1,.721.268,1.523,1.523,0,0,1,.315,1.121c-.007,1.347-.006,2.717,0,4.042q0,.758,0,1.517,0,.726,0,1.451c0,1.347,0,2.74,0,4.109,0,.359,0,1.312-1.01,1.334h-.033a.979.979,0,0,1-.722-.268,1.413,1.413,0,0,1-.313-1.027c.006-4.126.006-7.792,0-11.207,0-.88.342-1.331,1.02-1.342Zm-.008,13.143h.018c.226,0,.326-.032.324-.632,0-1.371,0-2.764,0-4.111q0-.725,0-1.451,0-.758,0-1.516c0-1.326,0-2.7,0-4.047,0-.152,0-.509-.111-.624a.318.318,0,0,0-.225-.062h-.014c-.163,0-.332.005-.331.64.007,3.416.007,7.082,0,11.209a.832.832,0,0,0,.108.531A.32.32,0,0,0,2256.028,321.485Z" transform="translate(-10651.329 -5711.885)"/>
    <path id="Trazado_126647" data-name="Trazado 126647" d="M2244.127,330.466a.71.71,0,0,0,.8-.707,3.274,3.274,0,0,0,0-.343q0-5.481,0-10.963c0-.5-.063-.985-.661-1-.661-.017-.72.5-.718,1.028.008,1.826,0,3.654,0,5.481q0,2.869,0,5.739C2243.554,330.11,2243.61,330.459,2244.127,330.466Z" transform="translate(-10648.464 -5714.015)"/>
    <path id="Trazado_126647_-_Contorno" data-name="Trazado 126647 - Contorno" d="M2244.147,330.816h-.025c-.92-.012-.918-.842-.918-1.115,0-1.448,0-2.919,0-4.342v-1.4q0-.869,0-1.739c0-1.226,0-2.494,0-3.74a1.508,1.508,0,0,1,.316-1.112.99.99,0,0,1,.761-.268c1,.025,1,1.023,1,1.35,0,2.569,0,5.181,0,7.707q0,1.628,0,3.255c0,.029,0,.059,0,.088a2.4,2.4,0,0,1-.008.291A1.05,1.05,0,0,1,2244.147,330.816Zm.093-13.013a.319.319,0,0,0-.226.062c-.114.114-.112.478-.112.615.006,1.248,0,2.517,0,3.744q0,.869,0,1.738v1.4c0,1.423,0,2.9,0,4.344,0,.411.052.411.228.414h.015c.285,0,.4-.1.429-.395a1.72,1.72,0,0,0,0-.2c0-.034,0-.067,0-.1q0-1.628,0-3.255c0-2.526,0-5.138,0-7.708,0-.641-.14-.645-.32-.649Z" transform="translate(-10648.464 -5714.015)"/>
    <path id="Trazado_126648" data-name="Trazado 126648" d="M2176.195,330.444c.66.022.725-.493.724-1.022q-.008-5.482,0-10.963c0-.5-.058-.986-.655-1.006-.66-.022-.727.493-.724,1.021.008,1.8,0,3.6,0,5.4,0,1.855,0,3.711,0,5.567C2175.538,329.932,2175.6,330.424,2176.195,330.444Z" transform="translate(-10631.932 -5714.015)"/>
    <path id="Trazado_126648_-_Contorno" data-name="Trazado 126648 - Contorno" d="M2176.235,330.795h-.052c-1-.033-.995-1.03-.993-1.357.006-1.365.005-2.754,0-4.1q0-.735,0-1.469,0-.712,0-1.424c0-1.3,0-2.647,0-3.97a1.5,1.5,0,0,1,.317-1.106.993.993,0,0,1,.77-.267c1,.033.994.994.993,1.356-.006,3.559-.006,7.247,0,10.962a1.5,1.5,0,0,1-.317,1.106A.97.97,0,0,1,2176.235,330.795Zm-.011-12.992a.312.312,0,0,0-.221.061c-.115.115-.113.474-.113.609.006,1.325.005,2.672,0,3.974q0,.712,0,1.424,0,.734,0,1.469c0,1.344,0,2.733,0,4.1,0,.644.138.649.316.655h.029a.311.311,0,0,0,.22-.061c.114-.115.113-.475.113-.611-.005-3.716-.005-7.4,0-10.964,0-.645-.139-.65-.316-.656Z" transform="translate(-10631.932 -5714.015)"/>
    <path id="Trazado_126649" data-name="Trazado 126649" d="M2216.384,289.461a6.382,6.382,0,0,0,6.117,4.487c.387-.033.669-.182.717-.59.053-.453-.21-.687-.626-.77a3.079,3.079,0,0,0-.426-.04,4.736,4.736,0,0,1-4.315-3.131,3.093,3.093,0,0,0-.566-1.015C2216.591,288.415,2216.2,288.69,2216.384,289.461Z" transform="translate(-10641.849 -5706.953)"/>
    <path id="Trazado_126649_-_Contorno" data-name="Trazado 126649 - Contorno" d="M2217.429,288.049l.105.108a2.926,2.926,0,0,1,.58.986l.058.136a4.376,4.376,0,0,0,4.014,2.919l.066,0a2.769,2.769,0,0,1,.408.043,1.006,1.006,0,0,1,.905,1.154.989.989,0,0,1-1.034.9c-.125.011-.254.016-.383.016a6.415,6.415,0,0,1-3.8-1.428,6.273,6.273,0,0,1-2.31-3.343,1.212,1.212,0,0,1,.144-1.063,1.319,1.319,0,0,1,1.091-.427Zm4.72,5.564c.109,0,.217,0,.322-.014.37-.032.386-.165.4-.282.019-.163.007-.315-.347-.386a2.207,2.207,0,0,0-.308-.03l-.07,0a5.082,5.082,0,0,1-4.616-3.342l-.06-.142a2.955,2.955,0,0,0-.336-.652.577.577,0,0,0-.392.146.6.6,0,0,0-.017.472A6.088,6.088,0,0,0,2222.149,293.613Z" transform="translate(-10641.849 -5706.953)"/>
    <path id="Trazado_126650" data-name="Trazado 126650" d="M2217.6,288.4l-.024-.011.01.012Z" transform="translate(-10642.149 -5706.949)"/>
    <path id="Trazado_126651" data-name="Trazado 126651" d="M2189.028,292.569c-.478.017-.854.231-.8.789.054.519.446.585.883.586a6.258,6.258,0,0,0,5.852-4.241c.3-.9.142-1.156-.8-1.3a2.992,2.992,0,0,0-.407.616A4.871,4.871,0,0,1,2189.028,292.569Z" transform="translate(-10635.016 -5706.954)"/>
    <path id="Trazado_126651_-_Contorno" data-name="Trazado 126651 - Contorno" d="M2189.125,294.294h-.011a1.049,1.049,0,0,1-1.23-.9,1.02,1.02,0,0,1,.222-.805,1.224,1.224,0,0,1,.909-.37,4.527,4.527,0,0,0,4.411-3.318,2,2,0,0,1,.325-.531c.044-.057.086-.111.123-.165l.124-.18.216.033a1.488,1.488,0,0,1,1.117.532,1.468,1.468,0,0,1-.034,1.224A6.616,6.616,0,0,1,2189.125,294.294Zm5.19-5.508-.009.012a1.444,1.444,0,0,0-.221.342,5.225,5.225,0,0,1-5.044,3.779.587.587,0,0,0-.407.13.357.357,0,0,0-.054.274c.017.163.028.271.535.272h.01a5.907,5.907,0,0,0,5.51-4c.151-.449.128-.591.1-.636S2194.625,288.849,2194.315,288.786Z" transform="translate(-10635.016 -5706.954)"/>
    <path id="Trazado_126652" data-name="Trazado 126652" d="M2193.125,363.186c-1.588.025-3.177.018-4.765,0a.773.773,0,0,0-.892.7c.128.547.51.686,1.022.681,1.508-.012,3.015-.019,4.522,0a.956.956,0,0,0,1.036-.693A.867.867,0,0,0,2193.125,363.186Z" transform="translate(-10634.831 -5725.131)"/>
    <path id="Trazado_126652_-_Contorno" data-name="Trazado 126652 - Contorno" d="M2193.15,362.836a1.2,1.2,0,0,1,1.231.938l.038.113-.04.113a1.3,1.3,0,0,1-1.372.927c-.66-.01-1.358-.014-2.133-.014-.866,0-1.728.006-2.382.011h-.027a1.541,1.541,0,0,1-.82-.189,1.151,1.151,0,0,1-.519-.763l-.016-.069.012-.07a1.112,1.112,0,0,1,1.218-.993h.023c.969.009,1.754.013,2.469.013.827,0,1.575-.005,2.286-.017Zm.524,1.043a.484.484,0,0,0-.524-.343h-.019c-.715.011-1.467.017-2.3.017-.718,0-1.5,0-2.476-.013h-.016c-.352,0-.462.115-.514.341.069.227.206.343.639.343h.021c.656-.005,1.519-.011,2.388-.011.778,0,1.479,0,2.143.014h.025A.6.6,0,0,0,2193.674,363.879Z" transform="translate(-10634.831 -5725.131)"/>
    <path id="Trazado_126653" data-name="Trazado 126653" d="M2189.138,299.767c-.6.02-.7.484-.67.986a3.169,3.169,0,0,0,.047.422,4.578,4.578,0,0,0,5.435,3.555,4.661,4.661,0,0,0,3.439-4.079c.044-.4-.089-.831-.613-.881-.59-.056-.714.372-.771.891a3.09,3.09,0,0,1-6.156-.025C2189.8,300.153,2189.678,299.749,2189.138,299.767Z" transform="translate(-10635.073 -5709.715)"/>
    <path id="Trazado_126654" data-name="Trazado 126654" d="M2214.076,299.767c-.6.02-.7.485-.67.986a3.181,3.181,0,0,0,.046.422,4.578,4.578,0,0,0,5.435,3.555,4.66,4.66,0,0,0,3.44-4.078c.042-.4-.089-.832-.613-.882-.591-.056-.714.372-.772.891a3.055,3.055,0,0,1-3.922,2.689,3.02,3.02,0,0,1-2.232-2.714C2214.738,300.153,2214.615,299.749,2214.076,299.767Z" transform="translate(-10641.135 -5709.715)"/>
    <path id="Trazado_126655" data-name="Trazado 126655" d="M2205.827,310.993a1.7,1.7,0,0,1-1.723-1.742c-.021-.484.019-.973-.029-1.453a.627.627,0,0,0-.693-.612.617.617,0,0,0-.649.649c-.021.512-.022,1.027,0,1.54a3.072,3.072,0,0,0,2.1,2.837,3.146,3.146,0,0,0,4.113-3.443c0-.228,0-.456,0-.684.008-.472-.091-.891-.665-.894-.552,0-.71.384-.712.867,0,.4.011.8-.007,1.2A1.693,1.693,0,0,1,2205.827,310.993Z" transform="translate(-10638.537 -5711.519)"/>
    <path id="Trazado_126655_-_Contorno" data-name="Trazado 126655 - Contorno" d="M2205.823,312.734a3.321,3.321,0,0,1-1.114-.19,3.415,3.415,0,0,1-2.33-3.156c-.018-.53-.016-1.058,0-1.566a.962.962,0,0,1,.985-.985h.047a.972.972,0,0,1,1.008.927,8.314,8.314,0,0,1,.025.9c0,.2,0,.387,0,.576a1.376,1.376,0,1,0,2.751.006c.012-.271.01-.551.008-.822,0-.12,0-.24,0-.36.006-1.1.74-1.217,1.056-1.217h.008a.972.972,0,0,1,.72.273,1.341,1.341,0,0,1,.292.977c0,.165,0,.336,0,.5v.159a3.65,3.65,0,0,1-.886,2.838A3.49,3.49,0,0,1,2205.823,312.734Zm-2.407-5.2h-.021c-.218.008-.3.093-.311.314-.02.492-.022,1,0,1.514a2.728,2.728,0,0,0,1.865,2.519,2.624,2.624,0,0,0,.88.15,2.788,2.788,0,0,0,2.061-.913,2.9,2.9,0,0,0,.707-2.316l0-.033V308.6c0-.169,0-.344,0-.518.005-.309-.048-.43-.093-.476a.316.316,0,0,0-.224-.062h0c-.161,0-.355,0-.357.519,0,.117,0,.235,0,.353,0,.28,0,.57-.009.86a2.075,2.075,0,0,1-4.15-.008c-.009-.206-.007-.412-.006-.611a7.765,7.765,0,0,0-.022-.823C2203.7,307.57,2203.547,307.536,2203.416,307.536Z" transform="translate(-10638.537 -5711.519)"/>
    <path id="Trazado_126656" data-name="Trazado 126656" d="M2200.921,319.433c-.34.3-.518.657-.208,1.045.341.425.743.329,1.116-.005a2.811,2.811,0,0,0,.385-.339c.586-.76,1.2-.83,1.859-.1.075.082.2.123.276.2.651.65,1.237.565,1.93-.015,1.083-.907,1.115-.864,2.255.054a2.1,2.1,0,0,0,.634.427c.537.164.783-.16.887-.612-.077-.59-.562-.8-.924-1.1-1.979-1.65-1.512-1.506-3.37-.119-.305.228-.516.32-.883.051-2.2-1.6-1.6-1.471-3.633.231C2201.134,319.244,2201.028,319.34,2200.921,319.433Z" transform="translate(-10638.012 -5714.097)"/>
    <path id="Trazado_126656_-_Contorno" data-name="Trazado 126656 - Contorno" d="M2201.222,321.111h0a.987.987,0,0,1-.782-.414,1.037,1.037,0,0,1,.251-1.528l.088-.077c.078-.068.158-.139.241-.208.317-.265.574-.5.781-.681.544-.489.844-.758,1.261-.758s.771.269,1.494.806c.156.116.33.245.528.389a.422.422,0,0,0,.2.1.664.664,0,0,0,.267-.146c.252-.188.458-.351.64-.495.534-.422.828-.654,1.214-.654.433,0,.777.291,1.53.927l.419.353c.068.057.143.111.223.17a1.666,1.666,0,0,1,.824,1.157l.008.063-.014.061c-.187.805-.686.926-.966.926a1.255,1.255,0,0,1-.364-.058,1.916,1.916,0,0,1-.652-.407l-.1-.082-.031-.025c-.455-.367-.755-.609-.92-.609s-.443.228-.859.576a1.945,1.945,0,0,1-1.243.551,1.629,1.629,0,0,1-1.158-.557.669.669,0,0,0-.068-.045.937.937,0,0,1-.219-.17.974.974,0,0,0-.647-.4c-.206,0-.433.16-.676.474a1.606,1.606,0,0,1-.309.289c-.044.034-.085.066-.121.1A1.273,1.273,0,0,1,2201.222,321.111Zm1.839-2.967c-.148,0-.405.23-.793.579-.21.189-.472.424-.8.7-.076.063-.149.128-.227.2l-.091.08c-.363.315-.243.464-.165.562.122.152.208.152.236.152h0a.645.645,0,0,0,.373-.2c.054-.048.107-.09.159-.13a1.065,1.065,0,0,0,.182-.162,1.391,1.391,0,0,1,2.4-.12.772.772,0,0,0,.066.043,1.029,1.029,0,0,1,.2.145.982.982,0,0,0,.665.354,1.336,1.336,0,0,0,.794-.388c.564-.472.9-.74,1.308-.74s.748.271,1.359.764l.032.026.109.09a1.414,1.414,0,0,0,.407.274.562.562,0,0,0,.16.028c.055,0,.179,0,.268-.319-.056-.262-.243-.411-.532-.622-.085-.062-.174-.127-.259-.2-.155-.129-.3-.248-.423-.355-.543-.459-.9-.762-1.079-.762-.143,0-.4.2-.78.5-.185.147-.4.313-.655.507a1.151,1.151,0,0,1-.686.285,1.037,1.037,0,0,1-.614-.232c-.2-.144-.375-.275-.532-.392A3.267,3.267,0,0,0,2203.062,318.145Z" transform="translate(-10638.012 -5714.097)"/>
    <path id="Trazado_126657" data-name="Trazado 126657" d="M2193.7,302.009a2.09,2.09,0,0,0,2.1-2.117,2.117,2.117,0,1,0-4.232.034A2.089,2.089,0,0,0,2193.7,302.009Z" transform="translate(-10635.829 -5709.224)"/>
    <path id="Trazado_126657_-_Contorno" data-name="Trazado 126657 - Contorno" d="M2193.688,302.359a2.445,2.445,0,0,1-2.465-2.428,2.5,2.5,0,0,1,.724-1.8,2.42,2.42,0,0,1,1.733-.732h.037a2.492,2.492,0,0,1,2.437,2.5,2.449,2.449,0,0,1-2.448,2.466Zm-.008-4.264a1.725,1.725,0,0,0-1.235.524,1.805,1.805,0,0,0-.523,1.3,1.731,1.731,0,0,0,1.765,1.738h.014a1.734,1.734,0,0,0,1.753-1.768,1.789,1.789,0,0,0-1.748-1.8Z" transform="translate(-10635.829 -5709.224)"/>
    <path id="Trazado_126658" data-name="Trazado 126658" d="M2218.619,302.009a2.085,2.085,0,0,0,2.11-2.106,2.116,2.116,0,1,0-4.232-.073A2.093,2.093,0,0,0,2218.619,302.009Z" transform="translate(-10641.887 -5709.224)"/>
    <path id="Trazado_126658_-_Contorno" data-name="Trazado 126658 - Contorno" d="M2218.62,302.359h-.005a2.443,2.443,0,0,1-2.468-2.537,2.487,2.487,0,0,1,2.458-2.427h.052a2.5,2.5,0,0,1,2.422,2.509A2.444,2.444,0,0,1,2218.62,302.359Zm-.014-4.263a1.8,1.8,0,0,0-1.263,3.04,1.759,1.759,0,0,0,1.272.524v.35l0-.35a1.73,1.73,0,0,0,1.76-1.758,1.792,1.792,0,0,0-1.737-1.805Z" transform="translate(-10641.887 -5709.224)"/>
  </g>
</svg>
