<svg xmlns="http://www.w3.org/2000/svg" width="58.461" height="60" viewBox="0 0 58.461 60">
  <g id="iocn7" transform="translate(5718 7253)">
    <ellipse id="Elipse_4917" data-name="Elipse 4917" cx="29.231" cy="30" rx="29.231" ry="30" transform="translate(-5718 -7253)" fill="#d2f3e8"/>
    <g id="Grupo_133631" data-name="Grupo 133631" transform="translate(-11006.662 -7344.067)">
      <path id="Trazado_126601" data-name="Trazado 126601" d="M5302.35,168.511h6.008v-1.9c0-.6-.009-1.2,0-1.806.013-.648.34-1.016.865-1,.507.014.8.361.8.993.008,1.218,0,2.437,0,3.685h14.563v-3.355c0-.945.242-1.326.84-1.323s.834.385.834,1.331c0,1.1,0,2.2,0,3.352h5.939c.026-.049.061-.084.061-.118q-.04-3.489-.086-6.977a3.434,3.434,0,0,0-.1-.532.873.873,0,0,1,.638-1.116.847.847,0,0,1,1,.8,13.944,13.944,0,0,1,.22,2.029c.028,2.167.013,4.335.009,6.5,0,.853-.272,1.122-1.112,1.122q-15.53,0-31.06,0c-.781,0-1.079-.243-1.083-.957-.009-2.368-.079-4.739.027-7.1a9.029,9.029,0,0,1,9.144-8.756c4.875-.039,9.751-.009,14.626-.007a2.081,2.081,0,0,1,.477.045.815.815,0,0,1-.072,1.6,5.1,5.1,0,0,1-.661.019q-7.164,0-14.326,0a7.467,7.467,0,0,0-7.406,6.01,6.378,6.378,0,0,0-.147,1.253C5302.342,164.351,5302.35,166.394,5302.35,168.511Z" transform="translate(0 -30.685)" fill="#133d60"/>
      <path id="Trazado_126602" data-name="Trazado 126602" d="M5337.823,110.83a8.727,8.727,0,1,1-8.691-8.763A8.731,8.731,0,0,1,5337.823,110.83Zm-1.672-.02a7.054,7.054,0,1,0-7.095,7.039A7.054,7.054,0,0,0,5336.151,110.81Z" transform="translate(-11.788)" fill="#133d60"/>
      <path id="Trazado_126603" data-name="Trazado 126603" d="M5373.248,158.829c0,.65-.647,1.113-1.13.8a9.373,9.373,0,0,1-1.691-1.42.976.976,0,0,1,.052-.909c.136-.2.656-.391.806-.289a20.175,20.175,0,0,1,1.885,1.542C5373.242,158.613,5373.232,158.772,5373.248,158.829Z" transform="translate(-41.676 -32.846)" fill="#133d60"/>
    </g>
  </g>
</svg>
