<svg xmlns="http://www.w3.org/2000/svg" width="250" height="236.296" viewBox="0 0 250 236.296">
  <g id="img14" transform="translate(-2196.067 -829.909)">
    <g id="Grupo_131297" data-name="Grupo 131297" transform="translate(2279.327 909.769)">
      <path id="Trazado_123757" data-name="Trazado 123757" d="M2438.333,1007.092a9.783,9.783,0,0,0-4.533-2.7c-1.882-.443-2.969.789-4.7,1.231-.538.137-11.162-1.356-10.686-1.326.356,2.572-3.413,10.191-3.056,12.763.19,1.374,14.868,1.79,16.138,2.611,1.117.722,2.881-.458,3.879-.916,1.654-.76,4.21-1.587,5.406-3.032C2442.774,1013.305,2440.11,1008.891,2438.333,1007.092Z" transform="translate(-2377.554 -975.982)" fill="#522727"/>
      <path id="Trazado_123758" data-name="Trazado 123758" d="M2410.535,1026.131s9.141-2.941,12.161-2.862a107.2,107.2,0,0,1,15.9,1.987c3.577.954,5.485,5.484,5.485,5.484l-2.385,11.287-18.044,7.948-12.32-6.438Z" transform="translate(-2375.121 -985.612)" fill="#133d60"/>
      <path id="Trazado_123759" data-name="Trazado 123759" d="M2433.981,1200.122c-.007.373-.455-.41-.7-.258-12.181,1.458-24.414,2.372-36.656,3.116-6.063.368-12.162.9-18.237.975-3.735.045-8.75-1.481-11.84,1.264a.412.412,0,0,0-.35.328c-.007.024-.011.047-.017.07-.039.075.078-7.489.084-7.413.131,1.517-3.287,14.951-2.822,28.938.039,1.173,28.281,3.294,36.87,3.016,11.216-.368,23.459-2.04,34.149-6.107,1.914-.728,1.018-16.944.4-23.621C2434.446,1195.958,2434.061,1195.66,2433.981,1200.122Z" transform="translate(-2351.197 -1073.747)" fill="#636363"/>
      <path id="Trazado_123760" data-name="Trazado 123760" d="M2439.412,1007.4c.056-.295-.361-.421-.43-.139a.508.508,0,0,0-.415-.1,29.222,29.222,0,0,1-12.955,1.524c-.288-.031-.286.446,0,.477l.066,0a.215.215,0,0,0-.035.136c.153,2.243.284,3.589.4,5.834a19.058,19.058,0,0,1-.936,7.408c-.035.11-.049.188.008.253a.2.2,0,0,0,.1.266,14.664,14.664,0,0,0,6.939,1.5c2.169-.027,4.525-.379,6.184-1.976a.753.753,0,0,0,.152-.37.221.221,0,0,0,.3-.274c-.706-2.213-.427-4.944-.292-7.246A56.486,56.486,0,0,1,2439.412,1007.4Z" transform="translate(-2382.501 -977.406)" fill="#944b3c"/>
      <g id="Grupo_131272" data-name="Grupo 131272" transform="translate(64.062 131.205)">
        <path id="Trazado_123761" data-name="Trazado 123761" d="M2468.953,1233.989h-.026a.246.246,0,0,1-.22-.27c.606-5.977,0-20.092,0-20.234a.246.246,0,0,1,.492-.021c.006.142.608,14.292,0,20.3A.245.245,0,0,1,2468.953,1233.989Z" transform="translate(-2468.706 -1213.227)" fill="#0b0808"/>
      </g>
      <g id="Grupo_131273" data-name="Grupo 131273" transform="translate(31.214 128.94)">
        <path id="Trazado_123762" data-name="Trazado 123762" d="M2402.252,1230.94a.247.247,0,0,1-.246-.25,201.688,201.688,0,0,1,2.089-21.852.246.246,0,0,1,.487.075,200.959,200.959,0,0,0-2.083,21.786A.247.247,0,0,1,2402.252,1230.94Z" transform="translate(-2402.006 -1208.628)" fill="#0b0808"/>
      </g>
      <g id="Grupo_131274" data-name="Grupo 131274" transform="translate(67.79 128.94)">
        <path id="Trazado_123763" data-name="Trazado 123763" d="M2479.981,1225.574a.246.246,0,0,1-.245-.227c-.352-4.458-3.42-16.292-3.451-16.411a.247.247,0,0,1,.478-.124c.031.119,3.109,12,3.465,16.5a.246.246,0,0,1-.226.265Z" transform="translate(-2476.277 -1208.627)" fill="#0b0808"/>
      </g>
      <path id="Trazado_123764" data-name="Trazado 123764" d="M2435.156,964.972a8.189,8.189,0,0,0-6.9-3.5,11.316,11.316,0,0,0-7.025,2.792.189.189,0,0,0-.239.061c-.119.147-.232.3-.348.444l-.169.152a.21.21,0,0,0-.071.156,15.7,15.7,0,0,0-3.324,7.084c-.656,4.113.306,8.247,1.672,12.112.947,2.679,2.268,5.39,4.38,7,2.361,1.8,7.564,1.665,9.617-.636,1.952-2.187,3.094-5.105,4.132-8.292,1.569-4.811,1.671-10.733-.553-15.357A15.147,15.147,0,0,0,2435.156,964.972Z" transform="translate(-2378.333 -954.25)" fill="#944b3c"/>
      <path id="Trazado_123765" data-name="Trazado 123765" d="M2438.677,1028.687q-.109-2.37-.219-4.74c-.04-.857.219-2.654-.391-2.829-.467-.134-.574.4-.662.575a4.221,4.221,0,0,1-2.155,1.606,10.388,10.388,0,0,1-9.818-1.171,3.491,3.491,0,0,1-.34-.3.367.367,0,0,0-.592.124,7.526,7.526,0,0,0-.251,2.316,34.722,34.722,0,0,1-.671,4.085c-.039.193-.385,1.19-.174,1.364,2.409,1.986,4.806,4.01,8.114,3.9a8.259,8.259,0,0,0,6.913-4.57.243.243,0,0,0,.02-.131A.212.212,0,0,0,2438.677,1028.687Z" transform="translate(-2381.617 -984.51)" fill="#133d60"/>
      <path id="Trazado_123766" data-name="Trazado 123766" d="M2437.911,1047.462a47.5,47.5,0,0,0-2.286-10.773c-2.056-6.109-4.947-12.067-11.567-13.963-6.707-1.92-14.436-.95-21.314-.922a.431.431,0,0,0-.418.279.334.334,0,0,0-.2.2c-1.1,3.543-1.119,7.687-3.025,10.945-1.756,3-5.395,4.55-8.77,4.586a11.75,11.75,0,0,1-9.168-4.632c-2.412-3.011-2.49-6.267-3.7-9.721-.53-1.509-1.254-1.66-2.724-1.682-2.023-.029-4.044-.145-6.067-.2a54.06,54.06,0,0,0-14.691,1.579c-6.947,2.069-9.937,10.688-12.906,27.482,1.58,3.744,5.342-.982,7.458,2.49a2.732,2.732,0,0,1,1.041,1.879,2.271,2.271,0,0,1,.076.908c.9,11.606-1.931,18.441-1.472,30.065.2,5.114,1.41,14.006,1.987,19.092.219,1.928,1.263,16.425,2.783,16.836,6.376,1.722,20.822,2.126,25.119,2.141,26.706.092,46.995-8.336,47.333-10.368a449.212,449.212,0,0,0,5.9-58.475c1.309-.733,2.652-1.437,4.036-2.122C2437.832,1051.842,2438.152,1050.082,2437.911,1047.462Z" transform="translate(-2339.866 -984.732)" fill="#5bd3a9"/>
      <path id="Trazado_123767" data-name="Trazado 123767" d="M2502.56,1054.11c-.072-.21-.354.181-.6.01a.516.516,0,0,0-.6-.545c-3.185.562-6.45.966-9.591,1.745-2.021.5-4.145,1.345-5.322,3.173-1.51,2.345-1.206,5.574-1.294,8.225l-.384,11.6c-.252,7.587-3.08,15.289-4.776,22.727-1.667,7.314-5.437,10.183-7.71,17.328-.161.509-.3,2.652,3.1,4.173,11.446,3.339,14.168,4.058,18.427-.851,4.739-5.464,6.4-7.1,7.887-13.15C2506.941,1087.271,2507.619,1068.836,2502.56,1054.11Z" transform="translate(-2406.427 -1000.989)" fill="#5bd3a9"/>
      <g id="Grupo_131275" data-name="Grupo 131275" transform="translate(43.318 33.569)">
        <path id="Trazado_123768" data-name="Trazado 123768" d="M2432.573,1019.531a6.661,6.661,0,0,1-5.958-3.135.246.246,0,0,1,.43-.24c1.631,2.918,5.726,3.526,8.53,2.263a7.7,7.7,0,0,0,3.435-3.327.246.246,0,1,1,.427.246,8.173,8.173,0,0,1-3.66,3.53A7.853,7.853,0,0,1,2432.573,1019.531Z" transform="translate(-2426.585 -1014.969)" fill="#6f2e17"/>
      </g>
      <path id="Trazado_123769" data-name="Trazado 123769" d="M2343.305,1050.386l-.88,3.19c-3.64,14.774-4.449,21.03-3.344,32.956.56,6.048,2.876,25.536,9.1,31.653a21.389,21.389,0,0,0,14.449,6.112l7.674-5.712-1.908-19.553,3.061-1.471-15.778-43.36Z" transform="translate(-2338.623 -999.375)" fill="#5bd3a9"/>
      <g id="Grupo_131276" data-name="Grupo 131276" transform="translate(21.205 64.797)">
        <path id="Trazado_123770" data-name="Trazado 123770" d="M2385.677,1092.1a.247.247,0,0,1-.24-.186c-1.647-6.593-3.724-13.151-3.745-13.217a.246.246,0,1,1,.469-.149c.021.065,2.1,6.638,3.755,13.246a.246.246,0,0,1-.239.306Z" transform="translate(-2381.68 -1078.381)" fill="#0b0808"/>
      </g>
      <g id="Grupo_131277" data-name="Grupo 131277" transform="translate(1.928 68.133)">
        <path id="Trazado_123771" data-name="Trazado 123771" d="M2362.9,1099.485a.246.246,0,0,1-.189-.089c-.072-.087-7.251-8.693-11.641-11.4-3.208-1.981-8.254-2.345-8.3-2.349a.246.246,0,0,1,.034-.492c.211.015,5.215.376,8.529,2.421,4.458,2.751,11.465,11.149,11.761,11.505a.247.247,0,0,1-.189.4Z" transform="translate(-2342.538 -1085.154)" fill="#0b0808"/>
      </g>
      <g id="Grupo_131278" data-name="Grupo 131278" transform="translate(2.174 71.584)">
        <path id="Trazado_123772" data-name="Trazado 123772" d="M2410.883,1147.708c-.006,0-.009.008-.01.024C2410.912,1147.742,2410.919,1147.736,2410.883,1147.708Z" transform="translate(-2377.466 -1120.353)" fill="#944b3c"/>
        <path id="Trazado_123773" data-name="Trazado 123773" d="M2410.837,1147.749l-.034-.01c.009.125.015.25.025.373C2410.857,1148.133,2410.828,1147.834,2410.837,1147.749Z" transform="translate(-2377.431 -1120.369)" fill="#944b3c"/>
        <path id="Trazado_123774" data-name="Trazado 123774" d="M2381.559,1110.447c-2.118-1.376-6.462-3.462-8.62-4.771-.839-.51-1.452-.545-1.871-1.433-.991-2.1-2.4-4.879-3.225-5.516-1.292-1-10.107-6.554-10.107-6.554-1.59-.2-1.291,2.367-.561,3.405.7.995,2,1.412,2.912,2.127.307.241,1.1,1.192,1,1.569a.763.763,0,0,1-.121.236.49.49,0,0,0-.107-.033,60.871,60.871,0,0,0-8.2-4.168c-3.013-1.15-8.533,1.776-8.553,1.9a.4.4,0,0,0-.337.412,2.037,2.037,0,0,0,2.331,2.108,7.021,7.021,0,0,0,1.475-.38c1.785-.477,3.327-.912,5.023-.109a10.172,10.172,0,0,1,2.323,1.44.11.11,0,0,1-.117.171,16.828,16.828,0,0,0-6.476-.744c-2.152.348-4.583,4.14-5.194,5.148a.652.652,0,0,0-.054.559c.6,1.687,2.212,1.426,3.6.466.369-.255.771-.635,1.122-.906,1.551-1.2,2.753-1.115,4.633-.64.6.153,1.2.322,1.8.5q.459.139.916.284c.152.048.311.087.457.146s.234.185.146.327c-.069.112-.226.1-.347.11-.277.013-.552-.034-.828-.028-.43.01-.859.028-1.288.064a9.069,9.069,0,0,0-2.409.494c-2.086.777-4.841,4.93-4.594,5.033a.43.43,0,0,0,.118.349c1.116,1.235,2.1.857,3.43.041,1.365-.839,2.028-2.132,3.715-2.5a14.521,14.521,0,0,1,3-.038.169.169,0,0,1,.061.3,24.617,24.617,0,0,0-2.5,1.039,15.311,15.311,0,0,0-3.152,3.127c-.513.606.474,1.514.983,1.7.766.274,1.537-.221,2.195-.566.93-.488,1.553-.933,2.459-1.452l.146-.084a3.175,3.175,0,0,1,3.153-.041,14.775,14.775,0,0,0,7.108,1.837,2.6,2.6,0,0,1,1.427.289c2.8,1.517,7.371,3.666,7.981,3.861a7.653,7.653,0,0,1,.856-4.705,13.391,13.391,0,0,0,2.131-3.59.4.4,0,0,0,.006-.058C2379.644,1111.008,2381.881,1110.657,2381.559,1110.447Z" transform="translate(-2343.038 -1092.162)" fill="#944b3c"/>
      </g>
      <path id="Trazado_123775" data-name="Trazado 123775" d="M2425.718,990.559c-.831.139-4.086,1.127-4.113,2.171-.037,1.49,2.96.691,3.66.4s1.729-.762,1.737-1.757C2427.008,990.6,2426.457,990.434,2425.718,990.559Z" transform="translate(-2380.739 -968.992)" fill="#522727"/>
      <path id="Trazado_123776" data-name="Trazado 123776" d="M2445.069,990.493a16.083,16.083,0,0,1,3.8,1.3.7.7,0,0,1,.533.822.559.559,0,0,1-.287.668,4.559,4.559,0,0,1-3.3.018c-.731-.249-1.82-.672-1.94-1.776C2443.78,990.665,2444.314,990.43,2445.069,990.493Z" transform="translate(-2392.036 -968.973)" fill="#522727"/>
      <g id="Grupo_131279" data-name="Grupo 131279" transform="translate(77.285 64.797)">
        <path id="Trazado_123777" data-name="Trazado 123777" d="M2495.815,1092.7a.245.245,0,0,1-.246-.242,61.273,61.273,0,0,1,1.206-13.89.246.246,0,0,1,.479.115,60.72,60.72,0,0,0-1.193,13.765.246.246,0,0,1-.242.251Z" transform="translate(-2495.558 -1078.381)" fill="#0b0808"/>
      </g>
      <path id="Trazado_123778" data-name="Trazado 123778" d="M2432.554,965.632a5.779,5.779,0,0,1-.8-2.944c-.427-3.8-1.205-7.207-3.843-10.128a14.2,14.2,0,0,0-9.445-4.519,4.232,4.232,0,0,1-1.437-.429c-4.136-1.949-13.421-.207-17.626,3.5a19.471,19.471,0,0,0-5.38,8.195,20.754,20.754,0,0,0-1.346,7,2.059,2.059,0,0,1-1,1.79c-4.558,2.75-5.9,8.506-3.9,13.272,1.137,2.716,4.06,4.044,5.841,6.287,2.068,2.6,3.168,5.876,7.4,5.843,2.439-.018,3-2.567,3.206-4.223.189-1.528,1.215-2.137,1.987-3.345,1.552-2.429.913-5.285-.3-7.939-1.476-3.237-3.1-5.88-2.1-9.548.964-3.556,4.842-6.63,8.007-8.185a.675.675,0,0,1,.954.523c.4,2.446,2.169,4.592,4.311,6.486a11.31,11.31,0,0,1,2.8,2.94c1.016,2.034-.552,4.088-1.062,5.955a4.88,4.88,0,0,0,1.011,4.854c1.206,1.45,2.144,2.353,2.105,4.435a22.7,22.7,0,0,0-.151,3.908,4.558,4.558,0,0,0,4.368,3.8c2.387,0,4.8-2.321,5.691-4.4a36.586,36.586,0,0,1,1.629-4.262,26.625,26.625,0,0,1,2.82-4.3C2440.611,975.231,2435.638,969.667,2432.554,965.632Z" transform="translate(-2363.112 -946.804)" fill="#522727"/>
      <path id="Trazado_123779" data-name="Trazado 123779" d="M2426.979,998.159a1.166,1.166,0,0,0-.526-.755c-.457-.2-.82.236-.9.645-.106.532.058,1.562.726,1.62C2427.114,999.743,2427.15,998.719,2426.979,998.159Z" transform="translate(-2382.727 -972.46)" fill="#301212"/>
      <path id="Trazado_123780" data-name="Trazado 123780" d="M2447.095,998.159a1.166,1.166,0,0,1,.526-.755c.457-.2.82.236.9.645.106.532-.058,1.562-.725,1.62C2446.961,999.743,2446.924,998.719,2447.095,998.159Z" transform="translate(-2393.634 -972.46)" fill="#301212"/>
      <g id="Grupo_131280" data-name="Grupo 131280" transform="translate(56.813 12.334)">
        <path id="Trazado_123781" data-name="Trazado 123781" d="M2455.282,983.282a.247.247,0,0,1-.217-.365c2.258-4.141-1.018-10.645-1.051-10.71a.246.246,0,1,1,.438-.224c.141.275,3.426,6.8,1.046,11.17A.247.247,0,0,1,2455.282,983.282Z" transform="translate(-2453.988 -971.849)" fill="#301616"/>
      </g>
      <g id="Grupo_131281" data-name="Grupo 131281" transform="translate(48.135 4.882)">
        <path id="Trazado_123782" data-name="Trazado 123782" d="M2437.039,963.827a.246.246,0,0,1-.235-.173,13.758,13.758,0,0,1,0-6.754.246.246,0,0,1,.475.128,13.53,13.53,0,0,0,0,6.48.247.247,0,0,1-.162.308A.252.252,0,0,1,2437.039,963.827Z" transform="translate(-2436.365 -956.717)" fill="#301616"/>
      </g>
      <g id="Grupo_131282" data-name="Grupo 131282" transform="translate(56.359 34.162)">
        <path id="Trazado_123783" data-name="Trazado 123783" d="M2455.639,1020.681a.247.247,0,0,1-.242-.205,5.709,5.709,0,0,0-2.215-3.846.246.246,0,0,1,.257-.42,6.079,6.079,0,0,1,2.444,4.184.246.246,0,0,1-.2.284A.3.3,0,0,1,2455.639,1020.681Z" transform="translate(-2453.064 -1016.173)" fill="#301616"/>
      </g>
      <g id="Grupo_131283" data-name="Grupo 131283" transform="translate(28.844 15.405)">
        <path id="Trazado_123784" data-name="Trazado 123784" d="M2397.462,996.769a.247.247,0,0,1-.244-.218,4.378,4.378,0,0,1,1.485-3.618,11.116,11.116,0,0,1,1.057-.925,4.388,4.388,0,0,0,1.786-2.241,5.026,5.026,0,0,0-.51-3.113,12.151,12.151,0,0,1-.493-1.476c-.6-2.513.1-4.8.862-6.93a.246.246,0,1,1,.463.167c-.74,2.059-1.415,4.268-.846,6.649a11.856,11.856,0,0,0,.474,1.414,5.455,5.455,0,0,1,.525,3.418,4.835,4.835,0,0,1-1.953,2.5,10.975,10.975,0,0,0-1.013.884,3.921,3.921,0,0,0-1.348,3.218.247.247,0,0,1-.216.273Z" transform="translate(-2397.192 -978.085)" fill="#301616"/>
      </g>
      <g id="Grupo_131284" data-name="Grupo 131284" transform="translate(61.482 20.838)">
        <path id="Trazado_123785" data-name="Trazado 123785" d="M2470.779,1006.8a.24.24,0,0,1-.042,0,.247.247,0,0,1-.2-.284c.845-4.926-1.746-6.374-4.032-7.652a5.97,5.97,0,0,1-2.464-1.953c-1.36-2.5.121-7.4.185-7.611a.246.246,0,1,1,.47.145c-.016.049-1.484,4.91-.223,7.231a5.583,5.583,0,0,0,2.271,1.759c2.308,1.291,5.18,2.9,4.277,8.166A.246.246,0,0,1,2470.779,1006.8Z" transform="translate(-2463.467 -989.119)" fill="#301616"/>
      </g>
      <g id="Grupo_131285" data-name="Grupo 131285" transform="translate(79.085 69.206)">
        <path id="Trazado_123786" data-name="Trazado 123786" d="M2499.458,1100.591a.242.242,0,0,1-.111-.027.246.246,0,0,1-.109-.33c.145-.285,3.563-7,6.631-9.275,3.288-2.442,11.222-3.576,11.559-3.623a.246.246,0,0,1,.069.488c-.082.011-8.146,1.165-11.334,3.531-2.974,2.208-6.45,9.033-6.485,9.1A.245.245,0,0,1,2499.458,1100.591Z" transform="translate(-2499.211 -1087.333)" fill="#0b0808"/>
      </g>
      <g id="Grupo_131286" data-name="Grupo 131286" transform="translate(66.931 19.624)">
        <path id="Trazado_123787" data-name="Trazado 123787" d="M2479.578,999.87a.246.246,0,0,1-.246-.25c.046-2.99-.9-3.826-2.1-4.883a9.929,9.929,0,0,1-1.7-1.81c-1.759-2.529-.667-5.961-.619-6.106a.246.246,0,0,1,.469.153c-.011.033-1.063,3.346.555,5.671a9.339,9.339,0,0,0,1.626,1.722c1.242,1.1,2.314,2.043,2.264,5.26A.246.246,0,0,1,2479.578,999.87Z" transform="translate(-2474.532 -986.652)" fill="#301616"/>
      </g>
      <g id="Grupo_131287" data-name="Grupo 131287" transform="translate(33.644 27.105)">
        <path id="Trazado_123788" data-name="Trazado 123788" d="M2407.8,1019.332a.247.247,0,0,1-.234-.169c-.05-.152-1.209-3.75-.233-6.189a17.794,17.794,0,0,1,2.241-3.744l.143-.2a7.069,7.069,0,0,0,.775-6.849.247.247,0,0,1,.458-.183,7.557,7.557,0,0,1-.832,7.318l-.144.2a17.445,17.445,0,0,0-2.185,3.64c-.91,2.275.233,5.818.245,5.853a.247.247,0,0,1-.234.323Z" transform="translate(-2406.94 -1001.843)" fill="#301616"/>
      </g>
      <path id="Trazado_123789" data-name="Trazado 123789" d="M2493.744,1107.809c-.539-2.158-1.5-4.2-3.7-5.181-1.14-.511-5.642-.87-6.641-1.03a.381.381,0,0,1-.228-.628c1.475-1.658,5.879-.682,7.635-.871,1.858-.2,3.3-.588,2.845-2.64a.4.4,0,0,0-.331-.327.494.494,0,0,0-.3-.149c-2.766-.339-6.028-.981-8.471-.866a18.556,18.556,0,0,0-8.4,3.142,155.972,155.972,0,0,0-14.2,13.467c-1,.487-.583.488-.662.567a24.306,24.306,0,0,0-3.072,3.336c-.4.533-.572.784-.322,1.463.333.908,1.9,1.812,2.64,2.38a35.424,35.424,0,0,0,4.7,3.045.456.456,0,0,0,.612-.151c.157.293.563.428.9-.161l5.485-3.707a13.466,13.466,0,0,0,5.891-2.317,24.9,24.9,0,0,0,2.721-2.045c.4-.34.778-.695,1.157-1.054.875-.83,2.068.425,2.782,1.037.64.549.828,1.7,1.625,2.027,1.106.447,2.526.452,2.445-1.173a7.054,7.054,0,0,0-2.514-4.489,5.748,5.748,0,0,0-2.393-1.056.341.341,0,0,1-.261-.43.585.585,0,0,1,.518-.44c.16-.011.321-.016.482-.014,1.563.023,2.47.779,3.643,1.675.68.52,1.677,1.548,2.643,1.307,1.261-.314,1.082-1.765.625-3.108.121.354,1.014.036,1.19-.069C2493.194,1109.113,2493.873,1108.326,2493.744,1107.809Z" transform="translate(-2399.103 -1022.579)" fill="#944b3c"/>
      <path id="Trazado_123790" data-name="Trazado 123790" d="M2417.687,1129.288c-.006,0-18.186,5.217-28.627,7-3.895.667-11.553.477-14.892,4.651s-2.932,21.467-2.932,21.467c13.379,4.955,27.582.861,40.37-3.865,1.854-.685,3.795-1.128,5.143-2.634a40.666,40.666,0,0,1,3.222-3.631,18.386,18.386,0,0,0,4.154-5.24C2427.583,1140.458,2418.892,1129.009,2417.687,1129.288Z" transform="translate(-2355.167 -1039.418)" fill="#5bd3a9"/>
      <path id="Trazado_123791" data-name="Trazado 123791" d="M2456.223,1137.614c-13.319-10.225-43.921-16.571-48.409-17.46a.766.766,0,0,0-.83.393,42.6,42.6,0,0,0-4.428,21.162.927.927,0,0,0,.577.813c1.8.729,7.482,3.1,8.639,4.153,6.531,5.961,32.523,20.507,46.657,8.806C2465.308,1149.788,2456.223,1137.614,2456.223,1137.614Z" transform="translate(-2371.046 -1034.777)" fill="#5bd3a9"/>
      <path id="Trazado_123792" data-name="Trazado 123792" d="M2436.121,1002.737c-.993-.715-.7-2.046-.457-3.055.073-.3-.386-.425-.46-.127-.31,1.261-.521,2.732.676,3.593C2436.13,1003.328,2436.368,1002.915,2436.121,1002.737Z" transform="translate(-2387.519 -973.491)" fill="#6f2e17"/>
      <path id="Trazado_123793" data-name="Trazado 123793" d="M2439.8,1004.256a2.365,2.365,0,0,0-.919.207c-.281.123-.039.534.24.412a1.765,1.765,0,0,1,.679-.142A.239.239,0,0,0,2439.8,1004.256Z" transform="translate(-2389.446 -975.963)" fill="#6f2e17"/>
      <path id="Trazado_123794" data-name="Trazado 123794" d="M2436.959,1010.443a4.2,4.2,0,0,0-1.566.128c-.328.117-.883.478-.87.909.022.7.779.4,1.152.349a9.183,9.183,0,0,1,2.166.153c.26.031.723.137.829-.243C2438.906,1010.9,2437.458,1010.462,2436.959,1010.443Z" transform="translate(-2387.295 -979.095)" fill="#fff"/>
      <g id="Grupo_131288" data-name="Grupo 131288" transform="translate(46.296 38.802)">
        <path id="Trazado_123795" data-name="Trazado 123795" d="M2436.575,1035.313a16.08,16.08,0,0,1-3.755-.489.246.246,0,0,1,.116-.479c6.25,1.507,8.807-.917,9.773-2.5a2.829,2.829,0,0,0,.406-1.61l-.091-1.96c-.03-.643-.091-2.669-.091-2.669l.492-.015s.061,2.02.09,2.661l.091,1.961a3.308,3.308,0,0,1-.476,1.89C2442.318,1033.43,2440.478,1035.313,2436.575,1035.313Z" transform="translate(-2432.632 -1025.594)" fill="#0b0808"/>
      </g>
      <g id="Grupo_131289" data-name="Grupo 131289" transform="translate(31.219 97.147)">
        <path id="Trazado_123796" data-name="Trazado 123796" d="M2444.666,1172.269c-5.683,0-12.035-1.554-18.969-4.649a42.53,42.53,0,0,1-6.9-3.671c-.743-.515-1.475-1.068-2.182-1.6a36.587,36.587,0,0,0-4-2.755,39.364,39.364,0,0,0-3.656-1.629c-3.924-1.615-6.714-2.852-6.888-4.073-.249-1.757.569-9.281.605-9.6a.246.246,0,0,1,.489.053c-.009.078-.847,7.781-.607,9.478.147,1.036,3.87,2.568,6.588,3.686a39.755,39.755,0,0,1,3.711,1.655,37.152,37.152,0,0,1,4.059,2.791c.7.532,1.43,1.082,2.165,1.591a42.075,42.075,0,0,0,6.823,3.626c9.484,4.233,17.854,5.557,24.879,3.935a13.79,13.79,0,0,0,6.288-2.929.246.246,0,0,1,.322.373,14.248,14.248,0,0,1-6.5,3.036A27.6,27.6,0,0,1,2444.666,1172.269Z" transform="translate(-2402.016 -1144.07)" fill="#0b0808"/>
      </g>
      <g id="Grupo_131290" data-name="Grupo 131290" transform="translate(35.368 85)">
        <path id="Trazado_123797" data-name="Trazado 123797" d="M2440.4,1127.752a.243.243,0,0,1-.125-.034,27.27,27.27,0,0,0-5.451-2.262c-.5-.159-1-.313-1.489-.465-.512-.159-1.019-.315-1.516-.475-3.678-1.181-12.485-3.076-17.218-4.094-1-.216-1.814-.391-2.341-.508-.751-.168-1.348.994-1.354,1.006a.246.246,0,1,1-.441-.219c.03-.062.768-1.52,1.9-1.267.526.117,1.335.291,2.338.507,4.74,1.02,13.563,2.919,17.264,4.107.495.158,1,.315,1.512.473.493.153.992.307,1.492.466a27.715,27.715,0,0,1,5.551,2.307.246.246,0,0,1-.125.458Z" transform="translate(-2410.441 -1119.404)" fill="#0b0808"/>
      </g>
      <g id="Grupo_131291" data-name="Grupo 131291" transform="translate(75.045 96.856)">
        <path id="Trazado_123798" data-name="Trazado 123798" d="M2504.873,1149.864a.246.246,0,0,1-.16-.059c-4.39-3.771-13.421-5.82-13.511-5.84a.246.246,0,1,1,.108-.481c.375.084,9.241,2.1,13.725,5.947a.246.246,0,0,1-.161.433Z" transform="translate(-2491.008 -1143.478)" fill="#0b0808"/>
      </g>
      <g id="Grupo_131292" data-name="Grupo 131292" transform="translate(14.82 97.052)">
        <path id="Trazado_123799" data-name="Trazado 123799" d="M2368.962,1148.715a.247.247,0,0,1-.148-.444,21.065,21.065,0,0,1,14.638-4.3.246.246,0,0,1,.2.282.243.243,0,0,1-.281.2,20.559,20.559,0,0,0-14.266,4.2A.243.243,0,0,1,2368.962,1148.715Z" transform="translate(-2368.716 -1143.876)" fill="#0b0808"/>
      </g>
      <g id="Grupo_131293" data-name="Grupo 131293" transform="translate(10.345 119.47)">
        <path id="Trazado_123800" data-name="Trazado 123800" d="M2377.836,1195.557c-7.421,0-13.4-1.9-18.116-5.72a.246.246,0,1,1,.31-.383c6.4,5.185,15.176,6.754,26.824,4.8a82.439,82.439,0,0,0,16.118-4.547.246.246,0,0,1,.179.459,82.957,82.957,0,0,1-16.215,4.574A55.1,55.1,0,0,1,2377.836,1195.557Z" transform="translate(-2359.629 -1189.399)" fill="#0b0808"/>
      </g>
      <g id="Grupo_131294" data-name="Grupo 131294" transform="translate(59.79 89.506)">
        <path id="Trazado_123801" data-name="Trazado 123801" d="M2460.277,1130.179a.246.246,0,0,1-.153-.439c.04-.031.971-.774,1.378-1.034a1.764,1.764,0,0,1,1.342-.02.248.248,0,0,1,.149.315.245.245,0,0,1-.315.149,1.328,1.328,0,0,0-.911-.03c-.385.246-1.327,1-1.336,1A.246.246,0,0,1,2460.277,1130.179Z" transform="translate(-2460.031 -1128.555)" fill="#0b0808"/>
      </g>
      <g id="Grupo_131295" data-name="Grupo 131295" transform="translate(20.185 78.704)">
        <path id="Trazado_123802" data-name="Trazado 123802" d="M2384.626,1109.259a.244.244,0,0,1-.113-.028c-1.289-.664-4.719-2.123-4.752-2.138a.246.246,0,1,1,.192-.453c.142.06,3.482,1.482,4.786,2.154a.246.246,0,0,1-.113.465Z" transform="translate(-2379.61 -1106.62)" fill="#6f2e17"/>
      </g>
      <g id="Grupo_131296" data-name="Grupo 131296" transform="translate(83.015 81.974)">
        <path id="Trazado_123803" data-name="Trazado 123803" d="M2516.3,1117.814a.246.246,0,0,1-.215-.126,9.014,9.014,0,0,0-2.643-2.944,12.059,12.059,0,0,0-5.962-.912.25.25,0,0,1-.285-.2.246.246,0,0,1,.2-.285,12.482,12.482,0,0,1,6.288.969,9.331,9.331,0,0,1,2.832,3.134.247.247,0,0,1-.215.366Z" transform="translate(-2507.192 -1113.26)" fill="#6f2e17"/>
      </g>
    </g>
    <g id="Grupo_131299" data-name="Grupo 131299" transform="translate(2196.067 829.909)">
      <path id="Trazado_123804" data-name="Trazado 123804" d="M2567.084,981.511q-.52-.985-1.122-1.937c-2.783-4.428-5.009-8.694-5.432-14.011-.508-6.394-2.11-12.476-6.539-17.713-5.989-7.079-14.919-10.763-23.939-12-7.956-1.088-18.537-1.735-23.1,6.355-3.97,7.033-2.793,16.5,3.5,21.681,3.584,2.95,8.2,4.916,10.857,8.865,3.041,4.511-.374,9.34,1.377,14.065,1.5,4.041,5.8,6.089,8.167,9.529,3.193,4.645,3.379,9.888,2.4,15.266-.8,4.4-2.214,9.16-.951,13.609,1.105,3.893,4.376,6.058,8.232,6.693a14.914,14.914,0,0,0,10.561-2.064c3.445-2.3,4.805-6.428,5.9-10.219,1.293-4.489,2.664-8.062,5.669-11.755,4.385-5.39,7.52-11.262,6.887-18.435A20.817,20.817,0,0,0,2567.084,981.511Z" transform="translate(-2329.096 -861.062)" fill="#12263f"/>
      <path id="Trazado_123805" data-name="Trazado 123805" d="M2502.911,858.614c-.284-7.992-3.844-15.279-11.621-18.782-6.783-3.055-14.159-2.817-21.452-2.219a12.312,12.312,0,0,1-8.3-2.324c-4.305-3.162-9.251-5.508-14.815-5.374a15.866,15.866,0,0,0-9.242,3c-3.219,2.453-5.241,6.232-7.895,9.2-4.532,5.068-10.253,11.447-7.46,18.628a9.214,9.214,0,0,0,6.546,5.632c4.192,1.084,8.292.8,10.815,4.828,3.111,4.966,2.284,13.786,10.495,13.877,8.227.092,12.29-8.73,19.338-11.392,7.762-2.931,15.524,1.6,23.415-.5C2499.772,871.314,2503.15,865.354,2502.911,858.614Z" transform="translate(-2286.838 -829.909)" fill="#12263f"/>
      <path id="Trazado_123806" data-name="Trazado 123806" d="M2624.623,929.244a5.83,5.83,0,0,0-1.084-1.595c-2.072-2.181-4.278-2.563-5.391-5.592-2.475-6.737-10.2-11.088-17.171-8.215-4.034,1.661-7.867,8.991-3.75,12.426,2.358,1.966,5.89,1.4,8.433,3.249,3.27,2.376,3.8,6.459,6.043,9.574,1.5,2.081,3.995,3.861,6.676,3.488,2.8-.39,4.474-2.831,5.511-5.247C2624.973,934.806,2625.771,931.756,2624.623,929.244Z" transform="translate(-2375.185 -865.736)" fill="#12263f"/>
      <path id="Trazado_123807" data-name="Trazado 123807" d="M2600.472,1129.46c-.052-3.669-1.125-7.2-3.656-9.512-1.806-1.652-3.728-1.092-5.511.179a9.681,9.681,0,0,0-3.157,4.582c-.836,2.214-1.419,4.456-3.33,6.033-3.11,2.567-7.749,2.272-11.534,2.421-4.715.186-10.13,1.185-12.134,6.056a8.142,8.142,0,0,0,3.781,10.313c3.573,1.917,7.389.934,10.963-.358a17.025,17.025,0,0,1,6.883-.9,16.607,16.607,0,0,0,5.981-.49C2596.351,1145.319,2600.58,1137.071,2600.472,1129.46Z" transform="translate(-2357.46 -954.301)" fill="#12263f"/>
      <path id="Trazado_123808" data-name="Trazado 123808" d="M2313.556,893.42c-1.292-5.9-7.968-8.556-9.116-14.446-.72-3.693-.713-7.592-2.135-11.122-2.841-7.049-12.344-10.452-19.367-9.774-10.16.982-19.435,7.328-25.013,15.746a79.013,79.013,0,0,0-6.982,14.361c-1.594,3.961-2.573,8.476-5.655,11.618-3.317,3.382-8.79,3.418-12.722,6.126a17.957,17.957,0,0,0-7.639,15.5c.238,5.919,3.4,11.25,7.753,15.106a29.425,29.425,0,0,0,7.369,4.758c2.677,1.212,5.492,1.432,7.291,4a52.753,52.753,0,0,1,2.7,4.84,15.293,15.293,0,0,0,13.823,7.691c4.431-.194,6.768-3.477,9.379-7.056,2.2-3.012,2.744-6.887,3.776-10.382,2.107-7.136,8.654-9.258,14.644-12.176,3.94-1.92,6.741-4.554,7.231-9.114.337-3.132-.415-6.053,1.1-9.011,1.457-2.854,3.978-4.116,6.6-5.674C2310.507,902.078,2314.678,898.543,2313.556,893.42Z" transform="translate(-2210.705 -844.163)" fill="#12263f"/>
      <path id="Trazado_123809" data-name="Trazado 123809" d="M2401.942,890.135c-2.727,1.571-1.968,7.089.358,8.75a7.517,7.517,0,0,1,2.515,2.79c.947,1.753,2.872,2.329,4.372.682,2.457-2.7.36-7.738-1.536-10.137-1.017-1.286-2.452-2.582-4.2-2.5A3.291,3.291,0,0,0,2401.942,890.135Z" transform="translate(-2288.711 -856.169)" fill="#12263f"/>
      <path id="Trazado_123810" data-name="Trazado 123810" d="M2219.633,1021.153c-1.12-1.995-3.272-3.111-5.253-4.464-3.44-2.35-5.013-5.776-5.728-9.818-.4-2.243-1.124-5.556-4.068-4.916-3.568.776-6.394,4.939-7.685,8.074-2.5,6.068,1.2,11.983,3.572,17.5,2.35,5.468,7.021,8.648,12.969,6.192,4.03-1.663,7.538-5.87,6.9-10.438A5.993,5.993,0,0,0,2219.633,1021.153Z" transform="translate(-2196.067 -903.828)" fill="#12263f"/>
      <path id="Trazado_123811" data-name="Trazado 123811" d="M2275.746,1107.067c-.667-2.672-1.6-5.313-2.335-7.97a15.02,15.02,0,0,1-.409-7.88c.644-2.77,1.788-5.4,1.994-8.265.294-4.092-2.163-7.328-5.828-8.919-3.979-1.727-7.989-.863-12.166-1.008-3.96-.138-6.372-3.567-10.053-3.955-5.016-.529-8.28,4.336-9.52,8.518a23.278,23.278,0,0,0,.637,15.407c1.918,4.452,5.929,7.672,9.246,11.046,3.676,3.74,7.857,6.818,10.961,11.123,2.769,3.84,5.075,10.873,11.108,9.606C2277.138,1123.142,2277.239,1113.048,2275.746,1107.067Z" transform="translate(-2216.548 -928.978)" fill="#12263f"/>
    </g>
  </g>
</svg>
