<svg xmlns="http://www.w3.org/2000/svg" width="399" height="298" viewBox="0 0 399 298">
  <g id="img15" transform="translate(-181 -11901)">
    <g id="Grupo_131271" data-name="Grupo 131271">
      <g id="Grupo_131270" data-name="Grupo 131270">
        <rect id="Rectángulo_35568" data-name="Rectángulo 35568" width="399" height="298" transform="translate(181 11901)" fill="#95c0d9"/>
        <path id="Trazado_123756" data-name="Trazado 123756" d="M496.41,47.018c-6.537-2.642-11.774-6.706-17.73-10.015-23.228-12.9-58.295-12.524-79.942.863-9.549,5.905-16.633,13.955-27.491,18.541-19,8.023-43.741,7.014-61.55,16.734-10.62,5.795-12.665,12.165-13.149,21.2-.635,11.817-5.966,23.413-15.124,33.006-9.742,10.2-23.867,18.425-29.663,30.169-3.56,7.217-3.619,15.17-2.589,22.893,3.137,23.553,22.157,46.15,54.546,53.849,14.567,3.463,30.311,3.656,44.517,7.887,8.618,2.567,16.337,6.525,24.547,9.75,33.217,13.048,75.011,13.148,107.312.255,9.519-3.8,18.337-8.667,28.711-11.1,9.441-2.212,19.653-2.276,29.327-3.931a74.316,74.316,0,0,0,37.708-18.215c10.251-9.1,11.609-21.512,18.461-32.185,4.465-6.954,11.456-12.853,16.425-19.616,12.091-16.461,14.488-40.49-1.046-56.952-11.354-12.033-32.358-18.05-42.87-30.471-2.659-3.143-4.544-6.593-7.122-9.772-5.777-7.127-15.1-12.742-25.772-15.52-12.2-3.176-25.927-2.76-37.323-7.3Z" transform="translate(-53.594 11892.465)" fill="#b3dcf5"/>
        <g id="Grupo_131269" data-name="Grupo 131269" transform="translate(-2389.234 11639.875)">
          <path id="Trazado_123702" data-name="Trazado 123702" d="M2928.042,609.844c-2.96-3.252-7.3-4.7-10.97-6.944-3.978-2.427-9.094-8.361-4.159-12.662a10.144,10.144,0,0,0,1.139-1,20.582,20.582,0,0,0,2.672-4.666,14.888,14.888,0,0,0,.921-5.445,42.6,42.6,0,0,0-1.952-10.994,92.513,92.513,0,0,1-2.98-31.625c1.365-16.974,6.588-37.1-6.586-51.013-5.725-6.046-13.526-9.908-20.778-13.777-8.3-4.429-16.88-8.082-26.392-8.611-9.225-.513-18.5,1.258-27.442,3.347-8.142,1.9-16.263,4.415-23.6,8.487-14.754,8.183-22.3,22.178-26.051,38.165-1.962,8.353-3.065,16.871-4.477,25.325-1.738,10.4-4.177,20.59-6.648,30.833-.97,4.022-1.737,8.223-.639,12.3a22.677,22.677,0,0,0,6.013,9.631c3.187,3.279,5.041,7.584,8,11.043,4.065,4.753,7.4,3.125,12.645.973,9.21-3.778,20.952-5.456,30.416-1.61,11.909,4.84,23.034,11.555,35.541,14.861,17.118,4.524,34.846,6.133,52.519,5.908,3.741-.048,7.954.139,11.4-1.567,4.444-2.2,4.844-6.912,1.728-10.6Q2928.2,610.019,2928.042,609.844Z" transform="translate(-64.457 -71.035)" fill="#0b0808"/>
          <path id="Trazado_123703" data-name="Trazado 123703" d="M3073.954,590.112c-1.9-1.693-4.467-2.35-6.808-3.16l-11.455-3.96c-7.464-2.58-15.1-4.885-22.433-7.828-8.881-3.566-13.324-10.848-18.077-18.724a242.271,242.271,0,0,1-28.248-69.068.634.634,0,0,0-.837-.456.663.663,0,0,0-.108-.028c-2.654-.141-3.473-4.132-5.167-5.7a7.917,7.917,0,0,0-6.235-1.83c-5.418.583-8.7,5.458-11.03,9.879-6.518,12.362-9.175,26.288-10.368,40.1-.626,7.244-.866,14.516-1.046,21.784-.182,7.377.1,14.456,2.188,21.58a115.126,115.126,0,0,0,6.869,18.474c2.306,4.676,5.7,9.921,10.56,12.26,1.44.693,4.552,1.586,5.954.353,1.508-1.328.405-3.622,1.451-5.154,1.257-1.839,4.418-2.3,6.419-2.682,5.9-1.112,11.973-.852,17.944-.877,15.846-.066,31.292,1.894,47,3.579,7,.75,14.532,1.082,21.268-1.343C3075.277,596.05,3077.138,592.954,3073.954,590.112Zm-61.379-17.771c-3.512,3.468-8.43-4.276-9.819-6.7-2.047-3.57-3.2-7.524-4.449-11.418a11.324,11.324,0,0,1-.647-5.025c.279-1.778,1.886-3.525,3.732-2.285,1.67,1.122,2.208,3.223,2.91,4.985a71.506,71.506,0,0,0,7.021,14.131C3012.46,567.691,3014.461,570.477,3012.574,572.34Z" transform="translate(-132.737 -77.125)" fill="#0b0808"/>
          <path id="Trazado_123704" data-name="Trazado 123704" d="M2851.4,588.765s37.705,2.49,48.6,2.124,12.659-14.187,12.659-14.187l9.827-50.311-58.092,4.328Z" transform="translate(-95.071 -94.74)" fill="#f2ecdb"/>
          <path id="Trazado_123705" data-name="Trazado 123705" d="M2920.533,397.669l-.1-.155c-1.565-2.4-6.307-2.069-8.878-2.385q-5.58-.686-11.194-1.01a174.933,174.933,0,0,0-66.819,9.168c-.8.274-6.169,3.76-7.465,6.89-2.549,6.16-1.459,12.815-3.039,19.281-5.424,22.2-11.41,45.594-8.109,68.733.59,4.14,7.452,8.671,11.544,9.216a9.2,9.2,0,0,0,2.463-.117c11.894-1.648,23.74-3.563,35.6-5.411,5.935-.924,11.876-1.81,17.834-2.575,5.8-.746,12.2-2.133,18.051-1.88,4.481-.34,10.918.088,14.528-3.113,1.6-1.418,2.256-3.4,2.829-5.394.955-3.319,1.753-6.693,2.509-10.062a369.105,369.105,0,0,0,7.044-40.99C2928.792,424.358,2928.122,409.416,2920.533,397.669Z" transform="translate(-81.075 -45.155)" fill="#66b2f8"/>
          <path id="Trazado_123706" data-name="Trazado 123706" d="M2847.954,458.678a1.621,1.621,0,0,0,.027-.434c-1.136-16.625,1.574-33.432,1.782-50.073a108.351,108.351,0,0,0-.167-11.608c-.234-2.583-.771-5.458-2.872-7.209-8.126-6.771-21.46,6.069-25.079,12.836a37.18,37.18,0,0,0-3.678,11.37c-1.356,8.025-.886,16.253-.185,24.319.608,6.979,1.385,15.944,7.16,20.819,3.408,2.877,9.063,4.419,16.37,3.793C2843.644,462.291,2847.391,461.456,2847.954,458.678Z" transform="translate(-82.241 -42.765)" fill="#66b2f8"/>
          <path id="Trazado_123707" data-name="Trazado 123707" d="M2955.5,480.9c-1.472-4.986-5.134-8.275-10.382-10.2a22.557,22.557,0,0,0-15.7.331c-10.888,4.16-17.889,14.395-24.235,23.619-7.1,10.314-13.5,21.215-17.983,32.937-3.518,9.2-8.78,23.093-2.957,32.406,5.515,8.82,19.794,10.21,29.008,9.6,12.939-.859,13.179-4.218,18.264-11.784a201.94,201.94,0,0,0,14.628-25.764c3.675-8.009,7.061-16.23,9.075-24.831a65.542,65.542,0,0,0,.813-23.8A16.994,16.994,0,0,0,2955.5,480.9Z" transform="translate(-106.382 -73.441)" fill="#f2ecdb"/>
          <path id="Trazado_123708" data-name="Trazado 123708" d="M2885.281,477.865c-1.471-4.986-5.134-8.275-10.382-10.2a22.556,22.556,0,0,0-15.7.33c-10.888,4.16-17.889,14.395-24.235,23.619-7.1,10.314-13.5,21.215-17.983,32.937-3.518,9.2-8.781,23.093-2.957,32.406,5.514,8.82,19.774,9.491,29.008,9.6,9.775.113,14.644-6.467,19.729-14.033a167.083,167.083,0,0,0,13.164-23.515c3.675-8.009,7.06-16.23,9.075-24.831a65.569,65.569,0,0,0,.814-23.8A17.088,17.088,0,0,0,2885.281,477.865Z" transform="translate(-80.117 -72.306)" fill="#f2ecdb"/>
          <path id="Trazado_123709" data-name="Trazado 123709" d="M2939.322,652.223c-3.065-1.953-13.6-9.172-15.15-11.448-2.775-4.077-5.326-8.532-5.789-13.442-.133-1.408-.266-3.12-1.539-3.736a3.717,3.717,0,0,0-2.079-.141l-15.882,1.962c-1.124.138-2.232-6.567-2.611-5.414-.4,1.221-.4-1.046-.138,4.966.1,2.165,1.441,4.181,1.5,6.356.1,3.838-1.445,7.838-1.761,11.709-.14,1.709.135,3.759,1.655,4.556,3.331,1.733,8,1.377,11.634,2.536,9.744,3.107,19.068,10.383,29.825,8.291a5.33,5.33,0,0,0,2.485-1.017C2943.712,655.493,2940.91,653.235,2939.322,652.223Z" transform="translate(-111.692 -129.706)" fill="#faa985"/>
          <path id="Trazado_123710" data-name="Trazado 123710" d="M3010.928,647.179c-1.712-1.7-3.414-3.175-3.912-3.755-4.958-5.779-9.893-12.585-10.63-20.405-.133-1.408.63-3.163-.643-3.779a3.722,3.722,0,0,0-2.079-.141l-15.882,1.961c-1.125.139-2.32.346-2.7,1.5a3.459,3.459,0,0,0,.18,3.063c.643,1.271,1.564,1.338,1.191,2.82a28.086,28.086,0,0,0-1.9,10.963c.077,3.478,3.036,4.236,6.206,4.632,4.277.535,6.824,3.183,10.225,5.416a66.884,66.884,0,0,0,10.417,5.891c3.79,1.605,8.977.816,12.645-.746C3016.646,653.492,3013.774,650.012,3010.928,647.179Z" transform="translate(-141.136 -129.389)" fill="#faa985"/>
          <path id="Trazado_123711" data-name="Trazado 123711" d="M2882.276,570.44c9.056,3.165,18.626,3.762,28.174,3.5a1.6,1.6,0,0,0,1.55-1.478c.85-11.376-2.608-59.46-3.542-69.952-.726-8.164-.2-21.225-7.143-26.991-4-3.323-10.12-4.733-15.214-4.894-11.728-.372-16.038,7.544-16.691,18.058-.632,10.162-1.643,19.9-.523,30.071,1.137,10.324,3.645,20.443,6.453,30.423,1.557,5.533,3.281,11.015,4.785,16.564a33.985,33.985,0,0,0,1.118,3.7A1.736,1.736,0,0,0,2882.276,570.44Z" transform="translate(-101.423 -73.878)" fill="#f2ecdb"/>
          <path id="Trazado_123712" data-name="Trazado 123712" d="M2988.927,424.629a92.939,92.939,0,0,0-9.453-21.719c-3.215-5.377-9.42-12.07-16.4-9.389-4.928,1.892-9.2,8.524-9.662,13.651-.324,3.6,1.78,7.17,2.9,10.468,1.408,4.155,2.562,8.39,3.677,12.632,1.68,6.393,3.306,12.8,5.472,19.032.256.739-8.839,11.115-6.677,11.718,6.872,1.917,15.778,3.592,22.61.739C2995.792,455.745,2992.293,436.207,2988.927,424.629Z" transform="translate(-133.216 -44.811)" fill="#66b2f8"/>
          <path id="Trazado_123713" data-name="Trazado 123713" d="M2983.794,494.532c-2.368-9.32-5.523-20.47-15.257-24.557a.651.651,0,0,0-.422-.6c-7.211-2.886-14.556,1.806-17.847,8.237-4.141,8.094-4.065,18.507-3.593,27.341a171.071,171.071,0,0,0,5.069,31.035c1.455,6.013,6.791,33.537,11.418,34.809,8.449,2.322,22.81,7.279,25.658,2.054C2989.42,571.75,2987.077,507.449,2983.794,494.532Z" transform="translate(-130.626 -73.087)" fill="#f2ecdb"/>
          <g id="Grupo_131241" data-name="Grupo 131241" transform="translate(2823.304 369.986)">
            <path id="Trazado_123714" data-name="Trazado 123714" d="M2959.955,440.98a.313.313,0,0,1-.313-.312,72.824,72.824,0,0,0-1.24-12.426.313.313,0,0,1,.617-.106,73.388,73.388,0,0,1,1.248,12.53.313.313,0,0,1-.312.314Z" transform="translate(-2958.398 -427.876)" fill="#0b0808"/>
          </g>
          <path id="Trazado_123715" data-name="Trazado 123715" d="M2838.662,579.031c-2.261-1.94-4.155-3.13-4.958-6.241-.478-1.85-.21-3.824-.744-5.666-1.215-4.185-6.157-4.425-7.711-9.1-6.769-20.353,2.864-41.293,17.1-55.547a7.134,7.134,0,0,0,1.759-2.328c1.013-2.609-1.385-3.391-3.483-3.225a12.962,12.962,0,0,0-2.962.607c-7.85,2.673-12.3,9.509-16.727,16.066-2.684,3.98-4.49,4.182-4.886-2.05-.2-.077-2.994,14.3-3.193,14.505-5.206,5.357-9.65,13.615-9.726,21.5-.823,6.778-.834,15.79,3.325,21.249.016.021.036.027.052.046a.682.682,0,0,0,.261.217c3.679,1.7,5.7,6.085,7.7,9.015a21.216,21.216,0,0,1-5.6-6.123c-.437-.727-1.61-.115-1.17.618a25.007,25.007,0,0,0,15.1,10.949,46.016,46.016,0,0,0,11.858,1.489c1.7.018,4.517.327,5.512-1.52C2841.09,581.787,2839.928,580.119,2838.662,579.031Z" transform="translate(-76.854 -83.711)" fill="#0b0808"/>
          <g id="Grupo_131242" data-name="Grupo 131242" transform="translate(2805.786 410.808)">
            <path id="Trazado_123716" data-name="Trazado 123716" d="M2935.333,575.793a.313.313,0,0,1-.312-.305c-1.64-68.968-4.572-81.887-4.6-82.009a.314.314,0,0,1,.231-.377.317.317,0,0,1,.378.231c.03.122,2.974,13.023,4.618,82.141a.313.313,0,0,1-.306.32Z" transform="translate(-2930.411 -493.093)" fill="#0b0808"/>
          </g>
          <path id="Trazado_123717" data-name="Trazado 123717" d="M2887.582,440.86c-4.41-1.137-10.869-2.437-15.475-1.427-5.167,1.133-9.681,4.655-11.165,9.908a.668.668,0,0,0,.777.848,43.772,43.772,0,0,1,18.534.175.616.616,0,0,0,.863.271c.052-.028.1-.064.148-.093a.658.658,0,0,0,.521-.327c2.769-1.782,4.355-4.66,5.8-7.578a.671.671,0,0,0,.024-.562A.644.644,0,0,0,2887.582,440.86Z" transform="translate(-98.63 -62.078)" fill="#faa985"/>
          <path id="Trazado_123718" data-name="Trazado 123718" d="M2977.029,428.527a1.752,1.752,0,0,0-.807-.662,11.82,11.82,0,0,0-.451-1.253c-.812-.868-3.268-.894-4.374-1a13.206,13.206,0,0,0-5.24.464c-2.906.928-5.014,3.127-6.99,5.343-1.493,1.279-2.68,2.971-4.058,4.353a45.143,45.143,0,0,1-7.082,5.747.726.726,0,0,0-.124.1.516.516,0,0,0-.476.588c.179,2.336,2.212,3.942,3.973,5.3.122.094.252.178.378.267,1.545,1.535,1.445,2.768,3.408,3.82a.583.583,0,0,0,.584.464c2.746.059,3.757-.633,5.969-2.275a20.918,20.918,0,0,0,6.583-7.706,12.343,12.343,0,0,1,3.624-4.675c1.469-1.189,4.266-2.219,3.864-4.158a.376.376,0,0,0-.022-.051c.962-.725,1.525-1.754.719-2.876C2977.158,429.93,2977.553,429.367,2977.029,428.527Z" transform="translate(-130.989 -57.018)" fill="#faa985"/>
          <path id="Trazado_123719" data-name="Trazado 123719" d="M2913.35,456.652c-1.36-3.625-4.317-8.757-8.756-8.629-3.65.106-7.456,1.091-11.059,1.663-4.193.665-8.388,1.328-12.6,1.857a129.706,129.706,0,0,1-13.739,1.071c-4.518.083-9.039-.4-13.553-.2-5.5.252-11,1.84-14.536,6.143-.06-.638-1.072-.882-1.278-.153a45.752,45.752,0,0,0-1.231,21.252c1.193,5.895,5.479,5.172,10.412,5.384,21.677.937,45.01-3.112,63.189-15.535C2914.79,466.37,2915.218,461.631,2913.35,456.652Z" transform="translate(-89.256 -65.426)" fill="#66b2f8"/>
          <path id="Trazado_123720" data-name="Trazado 123720" d="M2925.013,341.56c-4.622-4.2-10.857-2.463-15.7.408-5.769,3.42-8,8.8-8.619,15.267-.4,4.118-.624,8.264-.9,12.392-.24,3.527.1,5.29,3.171,7.3,4.473,2.922,10.628,4.653,15.2,1.244,5.786-4.315,8.11-11.153,10.107-17.769.017-.056.051-.123.107-.118s.008.123-.018.072c.132-3.184,1.165-6.346.895-9.538A13.794,13.794,0,0,0,2925.013,341.56Z" transform="translate(-113.148 -24.667)" fill="#faa985"/>
          <path id="Trazado_123721" data-name="Trazado 123721" d="M2930.929,385.321a9.407,9.407,0,0,1-3.963.316.331.331,0,0,0-.2.629,5.34,5.34,0,0,0,4.474-.361C2931.609,385.7,2931.346,385.225,2930.929,385.321Z" transform="translate(-123.178 -41.968)" fill="#301212"/>
          <path id="Trazado_123722" data-name="Trazado 123722" d="M2930.413,378.361a2.959,2.959,0,0,0-1.555-1.265c-.98-.476-2.562-1.058-3.528-.237-1.241,1.057-.213,2.395.964,2.614l2.266.423C2929.475,380.067,2931.024,379.782,2930.413,378.361Z" transform="translate(-122.514 -38.653)" fill="#0b0808"/>
          <path id="Trazado_123723" data-name="Trazado 123723" d="M2906.368,371.475a2.957,2.957,0,0,1,1.974-.349c1.088.061,2.754.322,3.2,1.509.571,1.527-.979,2.2-2.113,1.816l-2.187-.733C2906.359,373.421,2905.143,372.419,2906.368,371.475Z" transform="translate(-115.438 -36.655)" fill="#0b0808"/>
          <g id="Grupo_131243" data-name="Grupo 131243" transform="translate(2795.372 348.779)">
            <path id="Trazado_123724" data-name="Trazado 123724" d="M2918.089,395.8a.313.313,0,0,1-.217-.088c-1.308-1.268-3.734-1.082-3.759-1.079a.318.318,0,0,1-.338-.285.313.313,0,0,1,.285-.338c.111-.011,2.733-.216,4.247,1.253a.313.313,0,0,1-.218.538Z" transform="translate(-2913.774 -393.997)" fill="#bf5b46"/>
          </g>
          <path id="Trazado_123725" data-name="Trazado 123725" d="M2906.125,379.323a9.389,9.389,0,0,0,3.674,1.518.331.331,0,0,1,0,.662,5.343,5.343,0,0,1-4.147-1.718C2905.361,379.474,2905.757,379.1,2906.125,379.323Z" transform="translate(-115.326 -39.704)" fill="#301212"/>
          <path id="Trazado_123726" data-name="Trazado 123726" d="M2959.813,464.182c-.342-3.912-8.575-5.334-11.107-8.37a.567.567,0,0,0-.094-.076.641.641,0,0,0-.417-.7c-17.741-6.754-33.9-13.4-53.045-14.422-6.63-.356-9.179,8.724-10.123,14.076a1.968,1.968,0,0,0,.769,1.962c4.54,3.172,9.641,5.743,14.393,8.567,9.282,5.517,18.358,9.955,28.877,12.646,7.951,2.034,22.722,6.375,31.424-1.187C2963.056,474.448,2960.1,467.452,2959.813,464.182Z" transform="translate(-107.637 -62.651)" fill="#66b2f8"/>
          <path id="Trazado_123727" data-name="Trazado 123727" d="M2855.587,375.064c-.149-2.275.714-4.589-.939-6.579a4.364,4.364,0,0,0-1.388-1.053,3.993,3.993,0,0,0-.643-4.357c.169-2.011.251-4.61-1.262-6.09-.525-4.143-3.755-5.988-7.24-6.013a22.331,22.331,0,0,0-2.749-2.709c-4.463-3.715-10.2-5.415-14.7-9-3.408-2.722-4.24-6.9-4.634-11.019-.416-4.352-1.018-8.791-2.943-12.769-2.168-4.483-5.638-6.215-10.035-8.17-3.863-1.718-7.825-2.045-10.414-5.763-2.287-3.282-2.925-7.531-3.52-11.394-.753-4.9-2.219-9.245-6.208-12.446-8.818-7.076-19.919-5.549-28.053,1.74-9.169,8.217-8.811,18.693-13.839,28.934-5.71,11.628-18.507,17.667-26.315,27.714-27.7,35.643-30.4,83.6-51.38,122.741-3.291,6.14-6.667,12.327-10.97,17.819a37.924,37.924,0,0,1-19.43,13.486c-7.954,2.37-16.2,3.724-24.188,5.988-4.753,1.347-10.594,2.239-14.731,5.083-7.711,5.3,2.5,13.025,8.211,15.679-9.2,9.406,16.422,18.3,22.137,20.174,34.891,11.418,72.027,8.48,105.437-6.287,5.524-2.442,10.815-2.137,16.706-2.336,2.534-.086.1-4.744-.162-7.723s0,0-2.015-1.89c-3.219-3.018-6.754-5.658-9.783-8.882a88.512,88.512,0,0,1-8.842-11.461c-5.77-8.61-11.829-18.28-9.888-29.112a.561.561,0,0,0,0-.091.641.641,0,0,0,.214-.41c.04-.326.079-.652.126-.993,1.717-5.417,5.088-9.837,8.632-14.181,3.141-3.851,6.933-7.743,8.094-12.72,1.339-5.737.511-11.644-.19-17.407a75.631,75.631,0,0,1-.7-8.746,33.508,33.508,0,0,1,.247-4.367c.162-1.271.552-2.471.692-3.745.218-1.964,2.355-3.254,3.741-4.445,1.5-1.289,3.086-2.764,3.42-4.812.246-1.512-.123-2.244-.842-2.473,1.856-1.636,4.563-4.81,1.446-5.658a.594.594,0,0,0,.053-.028c2.5-2.04,1.995-4.992-.832-5.814.531-3.089-1.434-4.737-4.575-4.916a12.706,12.706,0,0,0-4.05.432c1.143-1.745,1.875-3.839,3.532-5.055,4.931-3.617,6.517,4.641,11.226,2.666,3.629-1.522,3.824-7.069,3.918-10.3.06-2.073-.419-6.1.914-7.815,1.969-2.53,3.12.1,3.805,1.863q.883,2.269,1.612,4.59c1.4,4.458,3.154,9.569,7.5,12.109a8.635,8.635,0,0,0,9.9-.858,10.969,10.969,0,0,0,3.073-3.945c.766-1.656.929-3.451,1.926-5.027,1.562-2.468,3.991-4.136,5.258-6.845a19.283,19.283,0,0,0,1.519-8.8c-.191-5.578-2.353-11.74-.755-17.235a22.015,22.015,0,0,1,4.654-7.781c.905-1.052,1.791-1.76,2.34-.539.771,1.721-.324,4.255-.51,6.028a68.524,68.524,0,0,0-.154,9.1c.2,6.631.394,14.563,3.39,20.62,2.29,4.63,7.125,7.58,12.217,5.557,3.634-1.445,6.728-4.973,8.846-8.7.025-.006.05-.009.074-.016,2.773-.753,4.529-2.88,6.321-4.948a5.112,5.112,0,0,1,2.765-1.68,10.636,10.636,0,0,1,5.976.5c.4.15.79.325,1.171.512-1.266.94-3.469,3.043-1.435,4.318a2.813,2.813,0,0,0,2.09.075,1.7,1.7,0,0,0,.026,2.28c.721.908,2.091.973,3.113,1.21.453.105.9.225,1.335.355q-.2.068-.39.146c-1.69.7-2.267,2.492-.873,3.851.959.935,2.312,1.005,3.536,1.342a10.922,10.922,0,0,1,2.015.769.025.025,0,0,1,0,.04c-.793.74-.6,1.9.287,2.958a5.3,5.3,0,0,0,.908.84,2.176,2.176,0,0,1,.841,1.523c.35,3.208-.284,6.3-.809,9.522-.452,2.77-1.162,6.213.089,8.882,1.084,2.314,3.628,3.639,5.064,5.734a13.81,13.81,0,0,1,2.333,9.122c-.062.408-.125.837-.162,1.264-.011.068-.015.135-.027.2a.582.582,0,0,0,0,.116c0,.681-.059,2.127.727,2.5,1.857.878,3.286-6.6,3.481-7.718a34.9,34.9,0,0,0,.027-11.073,63.932,63.932,0,0,0-2.174-9.245c-.7-2.279-2.034-4.436-2.22-6.852C2855.591,375.123,2855.589,375.093,2855.587,375.064ZM2627.491,517.7a9.13,9.13,0,0,1-5.977-3.176c-2.995-3.928-.237-8.387,3.491-10.409,4.54-2.462,10.485-3.062,15.54-2.319,3.694.544,9.1,3.011,7.518,7.69C2645.433,517.281,2634.491,518.833,2627.491,517.7Zm23.495,2.2a5.514,5.514,0,0,1-3.583,2.447c-1.489.29-3.425-.111-3.919-1.761-.448-1.5.635-2.9,1.882-3.612C2647.533,515.734,2653.142,516.088,2650.986,519.9Zm31.064-42.925c-2.613,1.34-4.053-.815-3.715-3.27.475-3.455,2.735-7.5,6.309-8.57a2.2,2.2,0,0,1,2.857,1.452C2689.043,470.366,2685.291,475.314,2682.051,476.977Zm26.325-37.484a97.484,97.484,0,0,1-5.46,16.449c-1.478,3.37-8.907,15.813-11.5,6.41-.8-2.9-.032-6.03.55-8.891a76.3,76.3,0,0,1,5.066-15.2c1.8-4.124,3.7-11.291,8.036-13.522C2712.155,421.085,2709,436.893,2708.375,439.493Zm43.675-126.629c-1.28.556-1.861-.752-1.812-1.835a9.4,9.4,0,0,1,1.89-5.187c.569-.752,3.088-3.463,3.634-1.115C2756.413,307.519,2754.773,311.681,2752.05,312.865Zm53.183,46.105c-2.39-3.137-2.271-8.5-2.221-12.225a75.291,75.291,0,0,1,.641-8.372c.179-1.425.384-2.846.6-4.266.163-1.078.136-2.18.339-3.251.1-.515.518-1.067,1.083-.921a56.784,56.784,0,0,1,.345,6.764c.3,5.8.456,12.072,3.927,17.012a12.966,12.966,0,0,0,4.232,3.846C2811.642,360.531,2808.171,362.827,2805.233,358.97Z" transform="translate(0)" fill="#0b0808"/>
          <g id="Grupo_131244" data-name="Grupo 131244" transform="translate(2750.979 305.607)">
            <path id="Trazado_123728" data-name="Trazado 123728" d="M2843.167,369.417a.313.313,0,0,1-.234-.52,41.549,41.549,0,0,1,11.631-9.2c1.4-.75,2.882-1.411,4.312-2.049a35.354,35.354,0,0,0,7.765-4.283c5.16-4.11,8.258-10.346,10.748-15.357,4.458-8.973,10.181-12.982,18.542-12.982h.14a.313.313,0,0,1,0,.626.749.749,0,0,0-.136,0c-8.1,0-13.645,3.9-17.984,12.635-2.516,5.066-5.649,11.371-10.918,15.567a35.808,35.808,0,0,1-7.9,4.366c-1.42.634-2.888,1.289-4.272,2.03a40.938,40.938,0,0,0-11.456,9.059A.314.314,0,0,1,2843.167,369.417Z" transform="translate(-2842.854 -325.027)" fill="#7d4851"/>
          </g>
          <g id="Grupo_131245" data-name="Grupo 131245" transform="translate(2767.167 313.353)">
            <path id="Trazado_123729" data-name="Trazado 123729" d="M2879.2,348.385a13.689,13.689,0,0,1-10.416-4.722.313.313,0,1,1,.488-.392,13.146,13.146,0,0,0,10.981,4.443c2.736-.235,4.874-1.4,5.866-3.2,3.308-5.983,3.98-6.947,4.006-6.985a.313.313,0,1,1,.511.361c-.027.038-.7,1.017-3.97,6.927-1.1,1.981-3.413,3.263-6.361,3.516C2879.938,348.37,2879.568,348.385,2879.2,348.385Z" transform="translate(-2868.714 -337.402)" fill="#7d4851"/>
          </g>
          <g id="Grupo_131246" data-name="Grupo 131246" transform="translate(2761.948 310.257)">
            <path id="Trazado_123730" data-name="Trazado 123730" d="M2860.689,356.955a.313.313,0,0,1-.278-.456,65.2,65.2,0,0,0,6.457-23.745.319.319,0,0,1,.327-.3.314.314,0,0,1,.3.327,65.943,65.943,0,0,1-6.526,24A.314.314,0,0,1,2860.689,356.955Z" transform="translate(-2860.377 -332.455)" fill="#7d4851"/>
          </g>
          <g id="Grupo_131247" data-name="Grupo 131247" transform="translate(2727.606 378.679)">
            <path id="Trazado_123731" data-name="Trazado 123731" d="M2805.826,448.529a.306.306,0,0,1-.146-.037.312.312,0,0,1-.129-.423c2.561-4.819,9.3-6.24,9.582-6.3a.313.313,0,1,1,.125.613c-.067.014-6.733,1.423-9.155,5.979A.313.313,0,0,1,2805.826,448.529Z" transform="translate(-2805.513 -441.764)" fill="#7d4851"/>
          </g>
          <g id="Grupo_131248" data-name="Grupo 131248" transform="translate(2733.336 382.997)">
            <path id="Trazado_123732" data-name="Trazado 123732" d="M2814.98,453.783a.313.313,0,0,1-.249-.5c4.274-5.638,11.72-4.535,11.8-4.524a.313.313,0,0,1-.1.619c-.072-.011-7.156-1.05-11.2,4.284A.312.312,0,0,1,2814.98,453.783Z" transform="translate(-2814.667 -448.663)" fill="#7d4851"/>
          </g>
          <g id="Grupo_131249" data-name="Grupo 131249" transform="translate(2737.13 388.915)">
            <path id="Trazado_123733" data-name="Trazado 123733" d="M2821.04,461.437a.313.313,0,0,1-.173-.573c3.32-2.208,8.639-2.725,8.864-2.746a.318.318,0,0,1,.34.284.313.313,0,0,1-.283.34c-.053.005-5.387.523-8.575,2.643A.309.309,0,0,1,2821.04,461.437Z" transform="translate(-2820.727 -458.117)" fill="#7d4851"/>
          </g>
          <g id="Grupo_131250" data-name="Grupo 131250" transform="translate(2736.824 394.865)">
            <path id="Trazado_123734" data-name="Trazado 123734" d="M2820.552,472.061a.313.313,0,0,1-.234-.521c2.648-2.96,7.474-3.875,7.678-3.913a.313.313,0,0,1,.114.617c-.048.008-4.82.915-7.324,3.714A.312.312,0,0,1,2820.552,472.061Z" transform="translate(-2820.239 -467.622)" fill="#7d4851"/>
          </g>
          <g id="Grupo_131251" data-name="Grupo 131251" transform="translate(2769.29 342.446)">
            <path id="Trazado_123735" data-name="Trazado 123735" d="M2877.678,402.508c-3.256,0-5.429-3.491-5.526-3.649a.313.313,0,0,1,.534-.327c.022.038,2.335,3.763,5.546,3.31,2.65-.372,6.623-3.751,10.5-17.733a.313.313,0,0,1,.6.168c-3.19,11.49-6.9,17.609-11.023,18.186A4.763,4.763,0,0,1,2877.678,402.508Z" transform="translate(-2872.106 -383.88)" fill="#7d4851"/>
          </g>
          <g id="Grupo_131252" data-name="Grupo 131252" transform="translate(2823.05 335.484)">
            <path id="Trazado_123736" data-name="Trazado 123736" d="M2961.547,380a.314.314,0,0,1-.235-.106,15.069,15.069,0,0,1-3.317-6.768.313.313,0,0,1,.255-.36.316.316,0,0,1,.362.256,14.706,14.706,0,0,0,3.169,6.457.313.313,0,0,1-.235.521Z" transform="translate(-2957.991 -372.757)" fill="#7d4851"/>
          </g>
          <g id="Grupo_131253" data-name="Grupo 131253" transform="translate(2838.249 350.952)">
            <path id="Trazado_123737" data-name="Trazado 123737" d="M2982.586,399.709a.313.313,0,0,1-.212-.543,7.391,7.391,0,0,1,5.048-1.694.312.312,0,0,1,.3.322.307.307,0,0,1-.323.3,6.852,6.852,0,0,0-4.6,1.528A.311.311,0,0,1,2982.586,399.709Z" transform="translate(-2982.273 -397.468)" fill="#7d4851"/>
          </g>
          <g id="Grupo_131254" data-name="Grupo 131254" transform="translate(2838.686 354.725)">
            <path id="Trazado_123738" data-name="Trazado 123738" d="M2983.285,406.194a.313.313,0,0,1-.229-.526c.042-.045,4.237-4.414,11.972-.634a.313.313,0,0,1-.275.563c-7.3-3.567-11.082.331-11.239.5A.312.312,0,0,1,2983.285,406.194Z" transform="translate(-2982.972 -403.495)" fill="#7d4851"/>
          </g>
          <g id="Grupo_131255" data-name="Grupo 131255" transform="translate(2843.347 360.845)">
            <path id="Trazado_123739" data-name="Trazado 123739" d="M2999.174,415.761a.31.31,0,0,1-.164-.046,13.634,13.634,0,0,0-8.232-1.729.31.31,0,0,1-.357-.263.313.313,0,0,1,.262-.355,13.988,13.988,0,0,1,8.654,1.815.312.312,0,0,1-.163.579Z" transform="translate(-2990.417 -413.274)" fill="#7d4851"/>
          </g>
          <g id="Grupo_131256" data-name="Grupo 131256" transform="translate(2847.557 366.615)">
            <path id="Trazado_123740" data-name="Trazado 123740" d="M3002.12,423.612a.292.292,0,0,1-.1-.016,7.073,7.073,0,0,0-4.449-.24.313.313,0,0,1-.235-.58,7.494,7.494,0,0,1,4.88.226.313.313,0,0,1-.1.61Z" transform="translate(-2997.144 -422.491)" fill="#7d4851"/>
          </g>
          <g id="Grupo_131257" data-name="Grupo 131257" transform="translate(2731.028 433.801)">
            <path id="Trazado_123741" data-name="Trazado 123741" d="M2811.294,558a.374.374,0,0,1-.045,0,.313.313,0,0,1-.265-.354c1.188-8.23,4.29-17.016,9.76-27.649a.313.313,0,1,1,.556.286c-5.436,10.57-8.518,19.294-9.7,27.452A.313.313,0,0,1,2811.294,558Z" transform="translate(-2810.98 -529.826)" fill="#7d4851"/>
          </g>
          <g id="Grupo_131258" data-name="Grupo 131258" transform="translate(2710.48 415.508)">
            <path id="Trazado_123742" data-name="Trazado 123742" d="M2787.754,572.778a.318.318,0,0,1-.116-.022c-4.724-1.885-9.7-6.695-9.478-12.8a19.467,19.467,0,0,1,2.27-7.809c1.129-2.314,2.487-4.551,3.8-6.714a61.707,61.707,0,0,0,4.9-9.205,97.818,97.818,0,0,0,3.668-12.552c.413-1.684.839-3.427,1.29-5.109,1.629-6.075,3.119-12.038,4.429-17.722a.313.313,0,0,1,.611.141c-1.313,5.691-2.8,11.66-4.435,17.744-.45,1.675-.875,3.413-1.287,5.1a98.344,98.344,0,0,1-3.695,12.632,62.241,62.241,0,0,1-4.943,9.3c-1.3,2.151-2.654,4.376-3.771,6.665a18.839,18.839,0,0,0-2.207,7.558c-.207,5.545,4.414,10.333,9.084,12.2a.313.313,0,0,1-.116.6Z" transform="translate(-2778.153 -500.602)" fill="#7d4851"/>
          </g>
          <g id="Grupo_131259" data-name="Grupo 131259" transform="translate(2660.964 465.264)">
            <path id="Trazado_123743" data-name="Trazado 123743" d="M2699.359,605.445a.313.313,0,0,1-.023-.625c24.772-1.886,36.873-24.336,36.993-24.563a.313.313,0,0,1,.554.292c-.122.229-12.386,22.982-37.5,24.9Z" transform="translate(-2699.047 -580.091)" fill="#7d4851"/>
          </g>
          <g id="Grupo_131260" data-name="Grupo 131260" transform="translate(2696.984 514.966)">
            <path id="Trazado_123744" data-name="Trazado 123744" d="M2878.137,684.068c-10.7,0-22.262-5.7-31.78-10.383-1.782-.877-3.466-1.706-5.1-2.479-12.341-5.84-25.645-11.245-40.647-7.687-25.246,5.987-35.809,2.943-43.9-3.469a.313.313,0,1,1,.389-.49c7.949,6.3,18.367,9.278,43.368,3.35,15.2-3.6,28.619,1.844,41.06,7.73,1.636.774,3.321,1.6,5.106,2.483,10.729,5.284,24.083,11.864,35.7,10a.317.317,0,0,1,.359.26.313.313,0,0,1-.26.359A27.176,27.176,0,0,1,2878.137,684.068Z" transform="translate(-2756.593 -659.493)" fill="#7d4851"/>
          </g>
          <g id="Grupo_131261" data-name="Grupo 131261" transform="translate(2777.034 387.371)">
            <path id="Trazado_123745" data-name="Trazado 123745" d="M2915.781,478.982a.322.322,0,0,1-.093-.014,91.9,91.9,0,0,1-30.382-16.512,2.349,2.349,0,0,1-.822-1.949,13.767,13.767,0,0,1,1.069-4.674.313.313,0,1,1,.568.262,13.156,13.156,0,0,0-1.012,4.454,1.722,1.722,0,0,0,.6,1.429,91.256,91.256,0,0,0,30.164,16.392.313.313,0,0,1-.093.612Z" transform="translate(-2884.479 -455.65)" fill="#0b0808"/>
          </g>
          <g id="Grupo_131262" data-name="Grupo 131262" transform="translate(2834.833 389.48)">
            <path id="Trazado_123746" data-name="Trazado 123746" d="M2992.269,465.345a.314.314,0,0,1-.229-.1c-3.365-3.621-14.846-5.585-14.962-5.6a.313.313,0,1,1,.1-.617c.48.08,11.807,2.019,15.317,5.8a.313.313,0,0,1-.23.526Z" transform="translate(-2976.817 -459.019)" fill="#0b0808"/>
          </g>
          <g id="Grupo_131263" data-name="Grupo 131263" transform="translate(2749.16 387.027)">
            <path id="Trazado_123747" data-name="Trazado 123747" d="M2840.26,460.18a.313.313,0,0,1-.189-.562l.087-.066a21.483,21.483,0,0,1,11.551-4.45.31.31,0,0,1,.333.292.313.313,0,0,1-.292.332,20.849,20.849,0,0,0-11.209,4.321l-.09.069A.312.312,0,0,1,2840.26,460.18Z" transform="translate(-2839.947 -455.101)" fill="#0b0808"/>
          </g>
          <g id="Grupo_131264" data-name="Grupo 131264" transform="translate(2738.489 410.451)">
            <path id="Trazado_123748" data-name="Trazado 123748" d="M2833.789,501.691a.355.355,0,0,1-.057-.005c-9.745-1.792-10.822-8.738-10.831-8.808a.313.313,0,0,1,.62-.088c.039.268,1.043,6.572,10.324,8.279a.313.313,0,0,1-.056.621Z" transform="translate(-2822.898 -492.523)" fill="#0b0808"/>
          </g>
          <g id="Grupo_131265" data-name="Grupo 131265" transform="translate(2785.96 377.698)">
            <path id="Trazado_123749" data-name="Trazado 123749" d="M2933.189,447.81a.3.3,0,0,1-.094-.015c-22.386-7.043-33.933-6.969-34.041-6.972a.313.313,0,0,1-.009-.626c.1,0,11.729-.079,34.238,7a.313.313,0,0,1-.094.612Z" transform="translate(-2898.737 -440.197)" fill="#0b0808"/>
          </g>
          <g id="Grupo_131266" data-name="Grupo 131266" transform="translate(2815.545 421.867)">
            <path id="Trazado_123750" data-name="Trazado 123750" d="M2956.175,571.583a.312.312,0,0,1-.3-.219c-10.428-32.9-9.875-60.028-9.868-60.3a.313.313,0,1,1,.626.016c-.007.268-.554,27.3,9.838,60.094a.313.313,0,0,1-.2.393A.322.322,0,0,1,2956.175,571.583Z" transform="translate(-2946.002 -510.761)" fill="#0b0808"/>
          </g>
          <g id="Grupo_131267" data-name="Grupo 131267" transform="translate(2766.406 421.204)">
            <path id="Trazado_123751" data-name="Trazado 123751" d="M2880.815,581.953a.314.314,0,0,1-.3-.22c-.076-.246-7.677-24.747-11.136-40.359-3.468-15.657-1.085-31.254-1.061-31.409a.318.318,0,0,1,.357-.261.313.313,0,0,1,.261.358c-.024.155-2.387,15.639,1.054,31.176,3.452,15.586,11.045,40.063,11.122,40.309a.313.313,0,0,1-.207.392A.321.321,0,0,1,2880.815,581.953Z" transform="translate(-2867.499 -509.701)" fill="#0b0808"/>
          </g>
          <path id="Trazado_123752" data-name="Trazado 123752" d="M2983.084,428.083c-2.8-.245-5.753-.358-8.383.816-2.515,1.123-4.354,3.258-6.052,5.354-.268.33.291.685.555.358,1.623-2,3.4-4.062,5.806-5.127,2.522-1.114,5.363-.975,8.045-.74C2983.48,428.78,2983.508,428.12,2983.084,428.083Z" transform="translate(-138.902 -57.908)" fill="#bf5b46"/>
          <path id="Trazado_123753" data-name="Trazado 123753" d="M2985.848,432.723a14.092,14.092,0,0,0-7.179.8,21.287,21.287,0,0,0-5.584,4.174c-.312.29.135.778.446.487a22.492,22.492,0,0,1,4.971-3.849,13.125,13.125,0,0,1,7.317-.953C2986.244,433.422,2986.271,432.761,2985.848,432.723Z" transform="translate(-140.547 -59.659)" fill="#bf5b46"/>
          <path id="Trazado_123754" data-name="Trazado 123754" d="M2986.939,437a10.3,10.3,0,0,0-8.907,3.91c-.266.333.292.688.556.358a9.612,9.612,0,0,1,8.323-3.608C2987.335,437.688,2987.363,437.027,2986.939,437Z" transform="translate(-142.411 -61.29)" fill="#bf5b46"/>
          <g id="Grupo_131268" data-name="Grupo 131268" transform="translate(2761.091 495.154)">
            <path id="Trazado_123755" data-name="Trazado 123755" d="M2871.7,633.531c-7,0-12.537-5.093-12.6-5.148a.313.313,0,0,1,.427-.457c.062.057,6.218,5.7,13.62,4.9a.313.313,0,1,1,.067.622A14,14,0,0,1,2871.7,633.531Z" transform="translate(-2859.008 -627.843)" fill="#7d4851"/>
          </g>
        </g>
        <path id="Trazado_124209" data-name="Trazado 124209" d="M451.908,91.9c4.534-1.972,7.284-8.162,4.376-12.159-3.083-4.24-9.782-3.537-13.945-6.719-4.362-3.337-4.974-11.223-10.07-13.524-6.168-2.786-11.054,1.623-11.752,7.445C418.932,80.14,439.807,97.168,451.908,91.9Z" transform="translate(96.925 11887.585)" fill="#b3dcf5"/>
        <path id="Trazado_124210" data-name="Trazado 124210" d="M258.24,127.747a4.316,4.316,0,0,1-2.5-.058,3.675,3.675,0,0,1-1.666-1.77c-2.26-4.323-.575-9.7,2.068-13.8s6.214-7.637,8.168-12.105c1.649-3.775,2.049-8.02,3.848-11.724s5.84-6.934,9.78-5.729c8.837,2.7,6.071,21.085,3.552,27.488C277.949,119.065,267.444,126,258.24,127.747Z" transform="translate(-51.314 11893.021)" fill="#b3dcf5"/>
      </g>
    </g>
  </g>
</svg>
