<svg id="ondulada" xmlns="http://www.w3.org/2000/svg" width="52.165" height="21.628" viewBox="0 0 52.165 21.628">
  <path id="Trazado_113510" data-name="Trazado 113510" d="M111.661,77.86c2.052,0,3.065-1.638,3.878-2.954.824-1.332,1.382-2.149,2.433-2.149s1.608.816,2.43,2.149c.814,1.317,1.826,2.954,3.877,2.954s3.065-1.638,3.878-2.954c.823-1.332,1.381-2.149,2.431-2.149s1.607.816,2.43,2.149c.814,1.317,1.826,2.954,3.877,2.954s3.064-1.639,3.876-2.955,1.38-2.148,2.429-2.148,1.606.816,2.429,2.148,1.825,2.955,3.876,2.955,3.063-1.638,3.876-2.955,1.38-2.148,2.429-2.148a.85.85,0,1,0,0-1.7c-2.05,0-3.063,1.638-3.876,2.954-.822,1.332-1.38,2.149-2.429,2.149s-1.606-.816-2.429-2.149c-.814-1.317-1.826-2.954-3.876-2.954s-3.063,1.638-3.875,2.954c-.823,1.332-1.38,2.149-2.43,2.149s-1.607-.816-2.43-2.149c-.814-1.317-1.826-2.954-3.877-2.954s-3.064,1.638-3.878,2.954c-.822,1.332-1.38,2.149-2.431,2.149s-1.607-.816-2.43-2.149c-.813-1.317-1.826-2.954-3.877-2.954s-3.066,1.638-3.879,2.954c-.824,1.332-1.382,2.149-2.432,2.149s-1.609-.816-2.433-2.149c-.814-1.317-1.827-2.954-3.879-2.954a.85.85,0,0,0,0,1.7c1.051,0,1.609.816,2.433,2.149C108.6,76.222,109.609,77.86,111.661,77.86Z" transform="translate(-104.499 -71.056)" fill="#133d60"/>
  <path id="Trazado_113511" data-name="Trazado 113511" d="M111.661,85.523c2.052,0,3.065-1.639,3.878-2.954.824-1.333,1.382-2.15,2.433-2.15s1.608.816,2.43,2.149c.814,1.317,1.826,2.955,3.877,2.955s3.065-1.639,3.878-2.955c.823-1.332,1.381-2.149,2.431-2.149s1.607.816,2.43,2.149c.814,1.317,1.826,2.955,3.877,2.955s3.064-1.64,3.876-2.955c.823-1.332,1.38-2.149,2.429-2.149s1.606.816,2.429,2.149c.814,1.317,1.825,2.955,3.876,2.955s3.063-1.639,3.876-2.955c.823-1.332,1.38-2.149,2.429-2.149a.85.85,0,1,0,0-1.7c-2.05,0-3.063,1.639-3.876,2.955s-1.38,2.148-2.429,2.148S147.9,83,147.078,81.673s-1.826-2.955-3.876-2.955-3.063,1.639-3.875,2.955-1.38,2.148-2.43,2.148-1.607-.816-2.43-2.148-1.826-2.955-3.877-2.955-3.064,1.639-3.878,2.955-1.38,2.148-2.431,2.148-1.607-.816-2.43-2.148-1.826-2.955-3.877-2.955-3.066,1.639-3.879,2.955-1.382,2.148-2.432,2.148-1.609-.816-2.433-2.148-1.827-2.955-3.879-2.955a.85.85,0,0,0,0,1.7c1.051,0,1.609.816,2.433,2.149C108.6,83.884,109.609,85.523,111.661,85.523Z" transform="translate(-104.499 -71.306)" fill="#133d60"/>
  <path id="Trazado_113512" data-name="Trazado 113512" d="M111.661,93.184c2.052,0,3.065-1.638,3.878-2.954.824-1.332,1.382-2.149,2.433-2.149s1.608.816,2.43,2.149c.814,1.317,1.826,2.954,3.877,2.954s3.065-1.638,3.878-2.954c.823-1.332,1.381-2.149,2.431-2.149s1.607.816,2.43,2.149c.814,1.317,1.826,2.954,3.877,2.954s3.064-1.638,3.876-2.954c.823-1.332,1.38-2.149,2.429-2.149s1.606.816,2.429,2.149c.814,1.317,1.825,2.954,3.876,2.954s3.063-1.638,3.876-2.954c.823-1.332,1.38-2.149,2.429-2.149a.85.85,0,1,0,0-1.7c-2.05,0-3.063,1.639-3.876,2.955s-1.38,2.148-2.429,2.148-1.606-.816-2.429-2.148-1.826-2.955-3.876-2.955-3.063,1.639-3.875,2.954c-.823,1.332-1.38,2.149-2.43,2.149s-1.607-.816-2.43-2.149c-.814-1.316-1.826-2.954-3.877-2.954s-3.064,1.639-3.878,2.954c-.822,1.332-1.38,2.149-2.431,2.149s-1.607-.816-2.43-2.149c-.813-1.316-1.826-2.954-3.877-2.954s-3.066,1.639-3.879,2.954c-.824,1.332-1.382,2.149-2.432,2.149s-1.609-.816-2.433-2.149c-.814-1.316-1.827-2.954-3.879-2.954a.85.85,0,0,0,0,1.7c1.051,0,1.609.816,2.433,2.149C108.6,91.546,109.609,93.184,111.661,93.184Z" transform="translate(-104.499 -71.556)" fill="#133d60"/>
</svg>
