<svg xmlns="http://www.w3.org/2000/svg" xmlns:xlink="http://www.w3.org/1999/xlink" width="333" height="171" viewBox="0 0 333 171">
  <defs>
    <clipPath id="clip-path">
      <rect id="Rectángulo_35872" data-name="Rectángulo 35872" width="333" height="171" rx="17" transform="translate(635.333 5372.5)" fill="#fff" opacity="0.429"/>
    </clipPath>
  </defs>
  <g id="img5" transform="translate(-635.333 -5372.5)">
    <rect id="Rectángulo_35683" data-name="Rectángulo 35683" width="333" height="171" rx="17" transform="translate(635.333 5372.5)" fill="#67bafe"/>
    <g id="Enmascarar_grupo_78" data-name="Enmascarar grupo 78" clip-path="url(#clip-path)">
      <g id="Grupo_132542" data-name="Grupo 132542" transform="translate(451.95 5277.452)">
        <path id="Trazado_125623" data-name="Trazado 125623" d="M347.892,61.992s-4.026,28.334-8.462,26.028S322.806,76.7,320.837,81.1,307.184,107.015,305.87,104s5.269-42.723,8.562-41.693,19.837,12.069,21.479,9.732S347.466,43.994,347.892,61.992Z" transform="translate(97.097 51.973)" fill="#133d60"/>
        <path id="Trazado_125624" data-name="Trazado 125624" d="M373.715,113.525s-19.069,21.342-21.479,16.963-7.55-18.641-11.633-16.07-25.734,13.986-25.155,10.746S343.533,92.541,345.7,95.225s9.813,21.046,12.475,20.011S383.345,98.317,373.715,113.525Z" transform="translate(107.268 93.141)" fill="#133d60"/>
        <path id="Trazado_125625" data-name="Trazado 125625" d="M216.916,115.531s25.235-13.5,26-8.556.691,20.1,5.408,19.085,28.972-4.3,27.314-1.454-37.577,21-38.692,17.732S234.954,119.2,232.1,119.26,202.649,126.51,216.916,115.531Z" transform="translate(0 104.458)" fill="#133d60"/>
        <path id="Trazado_125626" data-name="Trazado 125626" d="M229.294,61.175s28.6-.924,27.1,3.842-8.282,18.329-3.6,19.508,27.878,8.973,25.133,10.791-42.989,2.186-42.543-1.237,8.464-21.624,5.876-22.837S211.64,64.7,229.294,61.175Z" transform="translate(11.084 57.682)" fill="#133d60"/>
        <g id="Grupo_132541" data-name="Grupo 132541" transform="translate(247.471 96.068)">
          <circle id="Elipse_4878" data-name="Elipse 4878" cx="22.383" cy="22.383" r="22.383" transform="translate(81.951)" fill="#352b4c"/>
          <path id="Trazado_125627" data-name="Trazado 125627" d="M328.837,79.781s9.822,2.7,16.239,18.772c4.87,12.2,1.815,22.289,13.755,36.281s11.84,34.29-12.864,35.674c-15.329.859-22.751,12.214-36.234,8.912s-13.516-5.177-26.509-4.825c-15.184.413-22.522-2.944-27.269-13.07-7.9-16.855,6.634-25.037,6.606-40.049C262.53,105.769,273.483,61.432,328.837,79.781Z" transform="translate(-204.787 -41.445)" fill="#352b4c"/>
          <path id="Trazado_125628" data-name="Trazado 125628" d="M318.795,104.657s-.617,40.084-.01,45.68,36.563,2.9,47.5,13.117-25.779,40.407-48.086,53.412c-17.1,9.967-75.408-55.64-61.443-56.119s36.974-4.739,36.347-14.982-1-19.561-1-19.561S316.765,106.217,318.795,104.657Z" transform="translate(-203.733 -10.895)" fill="#ffaf91"/>
          <path id="Trazado_125629" data-name="Trazado 125629" d="M321.9,95.441s9.178,61.994-25.969,64.245c-24.178,1.548-36.547-38.849-30.8-58.261S306.955,80.891,321.9,95.441Z" transform="translate(-194.201 -30.844)" fill="#ffaf91"/>
          <path id="Trazado_125630" data-name="Trazado 125630" d="M272.411,108.857s-4.7-11.373-9.566-5.99,1.75,18.977,6.718,18.6S275.052,113.455,272.411,108.857Z" transform="translate(-196.911 -14.276)" fill="#ffaf91"/>
          <path id="Trazado_125631" data-name="Trazado 125631" d="M292.986,108.682s1-10.646,6.493-5.9-.934,18.513-5.913,18.758S290.933,113.572,292.986,108.682Z" transform="translate(-166.143 -14.129)" fill="#ffaf91"/>
          <path id="Trazado_125632" data-name="Trazado 125632" d="M283.906,110.817c2.412.415,4.743,2.558,6.951,6.391l-1.66.955c-2.138-3.715-4.34-5.62-6.352-5.5-2.83.166-5.166,4.2-5.831,5.743l-1.76-.758c.117-.27,2.9-6.63,7.479-6.9A5.132,5.132,0,0,1,283.906,110.817Z" transform="translate(-182.172 -4.541)" fill="#2e1f35"/>
          <path id="Trazado_125633" data-name="Trazado 125633" d="M317.254,82.758s17.717,8.924,17.337,29.228c-.149,7.9-27.917,9.777-32.7,3.469s-5.113-23.765-5.113-23.765.035,20.86-7.943,26.259-29.528,2.754-27.621.251,4.866-33.339,24.035-39.675S317.254,82.758,317.254,82.758Z" transform="translate(-196.958 -40.3)" fill="#352b4c"/>
          <circle id="Elipse_4879" data-name="Elipse 4879" cx="6.322" cy="6.322" r="6.322" transform="translate(110.518 99.879)" fill="#fa936d"/>
          <circle id="Elipse_4880" data-name="Elipse 4880" cx="6.322" cy="6.322" r="6.322" transform="translate(76.899 99.879)" fill="#fa936d"/>
          <path id="Trazado_125634" data-name="Trazado 125634" d="M292.21,112.333c-6.373-6.73-8.207-31.8-8.282-32.867l1.914-.135c.016.254,1.856,25.45,7.761,31.685Z" transform="translate(-173.112 -37.347)" fill="#443965"/>
          <path id="Trazado_125635" data-name="Trazado 125635" d="M271,108.7a21.02,21.02,0,0,1,.135-10.453c1.353-5.436,5.381-13.328,16.9-20.05L289,79.846c-20.841,12.165-16.217,28.126-16.168,28.285Z" transform="translate(-187.21 -38.537)" fill="#443965"/>
          <path id="Trazado_125636" data-name="Trazado 125636" d="M263.725,108.723l-1.815-.611c.374-1.112,9.4-27.251,29.252-30.489l.307,1.891C272.758,82.567,263.813,108.462,263.725,108.723Z" transform="translate(-196.109 -39.131)" fill="#443965"/>
          <path id="Trazado_125637" data-name="Trazado 125637" d="M297.4,109.435l-1.856-.476c.041-.164,4.032-16.423-6.976-28.416l1.411-1.3C301.709,92.022,297.585,108.729,297.4,109.435Z" transform="translate(-168.263 -37.436)" fill="#443965"/>
          <path id="Trazado_125638" data-name="Trazado 125638" d="M306.707,128.613a41.844,41.844,0,0,0-7.89-24.57l1.478-1.214a43.1,43.1,0,0,1,8.327,25.783Z" transform="translate(-157.561 -12.805)" fill="#443965"/>
          <path id="Trazado_125639" data-name="Trazado 125639" d="M295.062,130.273,294,128.678c.063-.043,6.346-4.518,3.747-18.821l1.887-.343C302.479,125.17,295.367,130.07,295.062,130.273Z" transform="translate(-162.591 -5.823)" fill="#443965"/>
          <path id="Trazado_125640" data-name="Trazado 125640" d="M268.961,132.565c-.288-.209-7.041-5.269-5.733-20.52l1.909.166c-1.208,14.07,4.886,18.76,4.948,18.805Z" transform="translate(-194.908 -3.179)" fill="#443965"/>
          <path id="Trazado_125641" data-name="Trazado 125641" d="M262.935,133.837c-.427-.159-10.378-4.165-2.263-27.359l1.809.634c-7.5,21.438,1.035,24.9,1.122,24.93Z" transform="translate(-200.719 -8.993)" fill="#443965"/>
          <path id="Trazado_125642" data-name="Trazado 125642" d="M284.1,84.5l.642-1.593c2.4-5.96-3.57-18.572-3.631-18.7l1.73-.826c.241.5,5.469,11.553,4.163,18.552,2.022-.611,5.481-2.042,6.8-4.9,1.032-2.228.589-5.009-1.321-8.264l1.654-.969c2.249,3.833,2.717,7.213,1.4,10.047-2.341,5.033-9.445,6.307-9.746,6.358Z" transform="translate(-176.059 -54.005)" fill="#443965"/>
          <path id="Trazado_125643" data-name="Trazado 125643" d="M281.243,84.68a7.171,7.171,0,0,1-3.972-4.111c-2.594-6.5,2.036-17.239,2.235-17.695l1.754.767c-.045.1-4.506,10.47-2.21,16.221a5.265,5.265,0,0,0,2.938,3.054Z" transform="translate(-180.889 -54.536)" fill="#443965"/>
          <path id="Trazado_125644" data-name="Trazado 125644" d="M269.918,109.272l-.307-1.5c1.08-.221,4.134-1.039,5.3-2.171l1.071,1.1C274.254,108.374,270.093,109.235,269.918,109.272Z" transform="translate(-188.066 -9.912)" fill="#2e1f35"/>
          <path id="Trazado_125645" data-name="Trazado 125645" d="M290.372,108.137a19.3,19.3,0,0,1-5.109-.93l.48-1.456c1.045.343,4.1,1.155,5.678.746l.382,1.484A5.84,5.84,0,0,1,290.372,108.137Z" transform="translate(-171.718 -9.752)" fill="#2e1f35"/>
          <circle id="Elipse_4881" data-name="Elipse 4881" cx="3.18" cy="3.18" r="3.18" transform="translate(80.041 88.96)" fill="#2e1f35"/>
          <circle id="Elipse_4882" data-name="Elipse 4882" cx="3.18" cy="3.18" r="3.18" transform="translate(114.396 88.211)" fill="#2e1f35"/>
          <path id="Trazado_125646" data-name="Trazado 125646" d="M283.748,126.2a18.6,18.6,0,0,1-8.311-1.979l.568-1.987c.057.02.174.074.346.159,3.635,1.818,11.063,3.835,19.995-3.081l1.251,1.617C292.424,124.933,287.675,126.2,283.748,126.2Z" transform="translate(-181.981 4.409)" fill="#fa936d"/>
          <path id="Trazado_125647" data-name="Trazado 125647" d="M267.9,113.231l-1.963-.57c.744-2.57-2.069-5.821-3.216-6.857l1.37-1.517C264.3,104.472,269.155,108.919,267.9,113.231Z" transform="translate(-195.258 -11.283)" fill="#fa936d"/>
          <path id="Trazado_125648" data-name="Trazado 125648" d="M282.251,102.594s4.766,12.2,2.535,12.713-7.7.928-8.38,0S279.969,98.9,282.251,102.594Z" transform="translate(-181.046 -13.643)" fill="#fa936d"/>
          <path id="Trazado_125649" data-name="Trazado 125649" d="M269.283,153.514c-.178-.027-17.713-2.936-17.368-23.548.213-12.58,5.475-19.921,9.705-25.82,2.539-3.539,4.543-6.336,4.721-9.274l2.04.121c-.213,3.529-2.476,6.687-5.1,10.345C259.218,111,254.16,118.058,253.96,130c-.317,18.793,14.982,21.391,15.634,21.494Z" transform="translate(-206.553 -21.115)" fill="#352b4c"/>
          <path id="Trazado_125650" data-name="Trazado 125650" d="M313.355,147.142l-.178-2.036a9.993,9.993,0,0,0,6.416-3.768c2.335-3.079,2.964-7.646,1.873-13.575-1.642-8.914-5.778-12.355-10.568-16.335-4.234-3.521-9.03-7.509-12.441-15.947l1.9-.767c3.218,7.961,7.607,11.611,11.852,15.141,4.884,4.058,9.5,7.894,11.273,17.54,1.2,6.536.435,11.653-2.282,15.213A11.871,11.871,0,0,1,313.355,147.142Z" transform="translate(-157.937 -21.28)" fill="#352b4c"/>
          <path id="Trazado_125651" data-name="Trazado 125651" d="M317.976,148.858a1.125,1.125,0,0,1-.29-.037c-1.2-.3-2.228-.564,3.063-35.962,1.664-11.134-.435-19.774-6.24-25.679-11.643-11.85-34.56-8.983-34.791-8.953L279.45,76.2c.975-.131,24.147-3.032,36.512,9.54,6.283,6.389,8.573,15.614,6.808,27.418-4.392,29.383-4.167,33.587-3.991,34.173a.86.86,0,0,0-.679-.511.948.948,0,0,0-.558.086l1.793.654C318.949,148.623,318.393,148.858,317.976,148.858Z" transform="translate(-177.789 -41.012)" fill="#352b4c"/>
          <path id="Trazado_125652" data-name="Trazado 125652" d="M259.645,115.187c-2.852-13.265-1.022-23.419,5.436-30.178,12.075-12.635,35.719-8.824,36.719-8.656l-.339,2.016c-.229-.037-23.585-3.79-34.905,8.057-5.96,6.24-7.612,15.771-4.911,28.332Z" transform="translate(-199.837 -41.156)" fill="#352b4c"/>
          <path id="Trazado_125653" data-name="Trazado 125653" d="M349.872,128.329s-3.128,18.588-24.172,17.855-21.489-18.29-26.314-17.408-39.54.512-50.9,14.488-13.808,42.767-11.87,77.284c.423,7.527,167.066,9.1,167.55.5,1.188-21.161.186-83.849-13.941-87.726S349.872,128.329,349.872,128.329Z" transform="translate(-223.154 13.83)" fill="#262f36"/>
          <path id="Trazado_125655" data-name="Trazado 125655" d="M320.312,193.238s41.392,4.827,48.691,2.7c0,0,4.627-71.123-77.3-67.541C291.706,128.4,311.9,190.462,320.312,193.238Z" transform="translate(-164.988 13.763)" fill="#262f36"/>
          <path id="Trazado_125656" data-name="Trazado 125656" d="M256.62,230.068s-20.479-6.816-26.658-39.689c-1.321-7.031.552-66.983,69.716-61.719C299.678,128.66,265.037,227.293,256.62,230.068Z" transform="translate(-229.725 13.834)" fill="#262f36"/>
          <path id="Trazado_125660" data-name="Trazado 125660" d="M238.144,260.289s28.935,22.242,43.341-14.82c10.973-28.23,26.4-104.415,24.707-110.058s-10.879-20.655-11.815-25.611-3.514,4.578-.072,10.96c0,0-2.169-14.534-2.488-17.174s-7,6.7-2.012,17.388c0,0,.339-20.046-2.218-18.819s-6.048,13.126-5.393,20.275,9.6,14.647,7.612,18.77-49.591,68.592-51.465,85.459A182.818,182.818,0,0,0,238.144,260.289Z" transform="translate(-221.654 -13.564)" fill="#ffaf91"/>
          <path id="Trazado_125661" data-name="Trazado 125661" d="M280.217,137.025l-2.044-.049a16.961,16.961,0,0,0-2.811-8.867c-3.171-4.7-11.492-18.535-11.919-25.993l2.04-.119c.4,6.963,8.7,20.7,11.574,24.969A18.732,18.732,0,0,1,280.217,137.025Z" transform="translate(-194.509 -13.673)" fill="#fa936d"/>
          <rect id="Rectángulo_35871" data-name="Rectángulo 35871" width="13.31" height="2.045" transform="matrix(0.381, -0.925, 0.925, 0.381, 15.744, 212.707)" fill="#fa936d"/>
          <path id="Trazado_125662" data-name="Trazado 125662" d="M293.508,110.877l-2.034-.209c.45-4.381,3.085-5.947,3.2-6.011l1.02,1.771-.509-.885.521.879C295.626,106.467,293.844,107.592,293.508,110.877Z" transform="translate(-165.231 -10.894)" fill="#fa936d"/>
          <path id="Trazado_125663" data-name="Trazado 125663" d="M291.586,153.6c-15.248,0-21.312-9.55-21.581-9.987l1.74-1.073c.268.429,6.741,10.5,23.516,8.83,10.042-1,18.175-13.26,18.255-13.383l1.711,1.12c-.352.538-8.758,13.2-19.766,14.3C294.109,153.542,292.817,153.6,291.586,153.6Z" transform="translate(-187.654 23.92)" fill="#352b4c"/>
        </g>
      </g>
    </g>
  </g>
</svg>
