<svg xmlns="http://www.w3.org/2000/svg" xmlns:xlink="http://www.w3.org/1999/xlink" width="333" height="171" viewBox="0 0 333 171">
  <defs>
    <clipPath id="clip-path">
      <rect id="Rect치ngulo_35873" data-name="Rect치ngulo 35873" width="333" height="171" rx="17" transform="translate(1049.333 5372.5)" fill="#fff" opacity="0.429"/>
    </clipPath>
  </defs>
  <g id="img6" transform="translate(-1049.333 -5372.5)">
    <rect id="Rect치ngulo_35684" data-name="Rect치ngulo 35684" width="333" height="171" rx="17" transform="translate(1049.333 5372.5)" fill="#6dbdfe" opacity="0.945"/>
    <g id="Enmascarar_grupo_79" data-name="Enmascarar grupo 79" clip-path="url(#clip-path)">
      <g id="Grupo_132546" data-name="Grupo 132546" transform="translate(495.125 5123.665)">
        <path id="Trazado_125665" data-name="Trazado 125665" d="M618.545,291.65s16.843-29.1,61.339-23.526,39.6,30.953,70.408,29.715,64.347-19.191,91.71,16.067c31.745,40.9-22.5,75.693-.957,100.69,38.6,44.785,0,97.572-86.207,87.552C683.344,493.84,682.7,482.181,641.2,496.3s-79.232-38.025-64.159-78.852,53.392-25.258,35.439-58.6S618.545,291.65,618.545,291.65Z" transform="translate(0 5.717)" fill="#c7cde0"/>
        <g id="Grupo_132544" data-name="Grupo 132544" transform="translate(680.81 261.335)">
          <path id="Trazado_125666" data-name="Trazado 125666" d="M698.048,592.649s75.746-18.7,107.583-117.411c23.8-73.8,7.839-209.786-53.792-213.688-58.477-3.7-81.634,41.013-61.621,95.2,24.329,65.866.021,149.3-48.512,172.58S698.048,592.649,698.048,592.649Z" transform="translate(-628.884 -261.335)" fill="#352b4c"/>
          <path id="Trazado_125667" data-name="Trazado 125667" d="M667.866,296.185s13.374-1.16,11.595-14.288c-.887-6.554,17.623,2.718,5.838,17.016C677.039,308.932,659.088,297.465,667.866,296.185Z" transform="translate(-594.449 -244.018)" fill="#f7ece9"/>
          <path id="Trazado_125668" data-name="Trazado 125668" d="M695.555,278.387s6.709,11.628,17.852,4.465c5.565-3.578,4.99,17.119-12.949,12.486C687.885,292.091,690.683,270.975,695.555,278.387Z" transform="translate(-570.065 -246.775)" fill="#f7ece9"/>
          <path id="Trazado_125669" data-name="Trazado 125669" d="M677.737,313.268s1.209-20.9,17.608-21.853,26.044,15.708,19.389,20.462-14.34-6.075-19.965-4.278C686.938,310.1,679.728,329.906,677.737,313.268Z" transform="translate(-582.95 -233.09)" fill="#f7ece9"/>
        </g>
        <g id="Grupo_132545" data-name="Grupo 132545" transform="translate(604.251 275.001)">
          <path id="Trazado_125670" data-name="Trazado 125670" d="M627.43,326.361S595.5,329.155,590.5,360.934c-3.165,20.119.941,35.22,8.718,36.906s22.234-9.9,32.951-23.881S642.807,317.248,627.43,326.361Z" transform="translate(-589.426 -215.048)" fill="#262f36"/>
          <circle id="Elipse_4883" data-name="Elipse 4883" cx="16.217" cy="16.217" r="16.217" transform="translate(52.741)" fill="#352b4c"/>
          <path id="Trazado_125672" data-name="Trazado 125672" d="M658.743,284.231s7.117,1.956,11.768,13.6c3.527,8.838,1.315,16.149,9.967,26.288s8.576,24.843-9.321,25.846c-11.108.623-16.484,8.85-26.254,6.457s-9.792-3.751-19.207-3.5c-11,.3-16.318-2.132-19.758-9.468-5.726-12.212,4.808-18.141,4.787-29.018C610.7,303.059,618.638,270.934,658.743,284.231Z" transform="translate(-575.502 -256.454)" fill="#352b4c"/>
          <path id="Trazado_125673" data-name="Trazado 125673" d="M651.952,303.391s-.446,29.044-.006,33.1,25.945,11.242,33.865,18.646-18.132,20.134-34.294,29.556c-12.387,7.222-55.583-36.6-45.464-36.948s27.736-7.146,27.282-14.567S632.612,319,632.612,319,650.483,304.522,651.952,303.391Z" transform="translate(-575.222 -235.458)" fill="#ffaf91"/>
          <path id="Trazado_125674" data-name="Trazado 125674" d="M654.112,295.972s6.649,44.917-18.817,46.547c-17.517,1.122-26.479-28.147-22.313-42.212S643.286,285.428,654.112,295.972Z" transform="translate(-568.226 -249.168)" fill="#ffaf91"/>
          <path id="Trazado_125675" data-name="Trazado 125675" d="M618.156,306.31s-3.405-8.24-6.932-4.342,1.269,13.751,4.87,13.481S620.069,309.639,618.156,306.31Z" transform="translate(-570.09 -237.781)" fill="#ffaf91"/>
          <path id="Trazado_125676" data-name="Trazado 125676" d="M634.21,306.187s.724-7.713,4.705-4.278-.679,13.413-4.284,13.591S632.722,309.73,634.21,306.187Z" transform="translate(-548.943 -237.68)" fill="#ffaf91"/>
          <path id="Trazado_125677" data-name="Trazado 125677" d="M650.644,286.429S663.48,292.9,663.2,307.607c-.109,5.726-20.227,7.084-23.691,2.515s-3.7-17.22-3.7-17.22.025,15.113-5.755,19.026-21.4,1.995-20.012.18,3.523-24.154,17.412-28.745S650.644,286.429,650.644,286.429Z" transform="translate(-570.12 -255.667)" fill="#352b4c"/>
          <circle id="Elipse_4884" data-name="Elipse 4884" cx="4.58" cy="4.58" r="4.58" transform="translate(73.439 72.366)" fill="#fa936d"/>
          <circle id="Elipse_4885" data-name="Elipse 4885" cx="4.58" cy="4.58" r="4.58" transform="translate(49.08 72.366)" fill="#fa936d"/>
          <path id="Trazado_125678" data-name="Trazado 125678" d="M633.388,307.968c-4.618-4.876-5.947-23.042-6-23.815l1.385-.1c.012.184,1.345,18.44,5.623,22.957Z" transform="translate(-553.732 -253.638)" fill="#3f345c"/>
          <path id="Trazado_125679" data-name="Trazado 125679" d="M617.5,305.287a15.213,15.213,0,0,1,.1-7.573c.982-3.939,3.9-9.657,12.245-14.527l.7,1.2c-15.1,8.813-11.75,20.377-11.715,20.493Z" transform="translate(-563.422 -254.455)" fill="#3f345c"/>
          <path id="Trazado_125680" data-name="Trazado 125680" d="M611.893,305.286l-1.315-.444c.271-.805,6.808-19.742,21.193-22.09l.223,1.372C618.437,286.334,611.957,305.1,611.893,305.286Z" transform="translate(-569.538 -254.864)" fill="#3f345c"/>
          <path id="Trazado_125681" data-name="Trazado 125681" d="M637.329,305.863l-1.345-.343c.031-.118,2.922-11.9-5.052-20.59l1.021-.937C640.449,293.247,637.461,305.352,637.329,305.863Z" transform="translate(-550.399 -253.698)" fill="#3f345c"/>
          <path id="Trazado_125682" data-name="Trazado 125682" d="M644.47,320.678a30.32,30.32,0,0,0-5.716-17.8l1.071-.881a31.239,31.239,0,0,1,6.034,18.681Z" transform="translate(-543.044 -236.771)" fill="#3f345c"/>
          <path id="Trazado_125683" data-name="Trazado 125683" d="M635.845,322.14l-.768-1.154c.047-.033,4.6-3.273,2.716-13.638l1.366-.248C641.22,318.442,636.066,321.994,635.845,322.14Z" transform="translate(-546.502 -231.972)" fill="#3f345c"/>
          <path id="Trazado_125684" data-name="Trazado 125684" d="M611.149,324.606c-.311-.116-7.521-3.019-1.64-19.824l1.312.458c-5.437,15.534.749,18.04.811,18.064Z" transform="translate(-572.706 -234.15)" fill="#3f345c"/>
          <path id="Trazado_125685" data-name="Trazado 125685" d="M627.4,287.182l.464-1.154c1.74-4.317-2.586-13.456-2.631-13.549l1.254-.6c.175.365,3.962,8.37,3.015,13.442,1.467-.444,3.972-1.48,4.93-3.549.749-1.614.427-3.628-.957-5.988l1.2-.7c1.628,2.777,1.967,5.227,1.015,7.28-1.7,3.646-6.845,4.569-7.062,4.606Z" transform="translate(-555.758 -265.086)" fill="#3f345c"/>
          <path id="Trazado_125686" data-name="Trazado 125686" d="M625.151,287.292a5.2,5.2,0,0,1-2.877-2.978c-1.88-4.705,1.475-12.491,1.618-12.821l1.271.557c-.031.076-3.264,7.584-1.6,11.75a3.808,3.808,0,0,0,2.128,2.214Z" transform="translate(-559.077 -265.451)" fill="#3f345c"/>
          <path id="Trazado_125687" data-name="Trazado 125687" d="M616.743,301.879H616.7l.008-1.455a9.851,9.851,0,0,0,3.983-.728l.782,1.228C620.037,301.84,617.228,301.879,616.743,301.879Z" transform="translate(-563.779 -238.932)" fill="#261e35"/>
          <path id="Trazado_125688" data-name="Trazado 125688" d="M631.627,301.55a15.333,15.333,0,0,1-3.013-.351l.318-1.422a9.728,9.728,0,0,0,4.049.144l.5,1.368A5.651,5.651,0,0,1,631.627,301.55Z" transform="translate(-552.579 -238.856)" fill="#261e35"/>
          <circle id="Elipse_4886" data-name="Elipse 4886" cx="2.304" cy="2.304" r="2.304" transform="translate(55.116 64.455)" fill="#261e35"/>
          <circle id="Elipse_4887" data-name="Elipse 4887" cx="2.304" cy="2.304" r="2.304" transform="translate(76.967 64.208)" fill="#261e35"/>
          <path id="Trazado_125689" data-name="Trazado 125689" d="M615.25,309.736l-1.865-.543c.5-1.735-1.465-4-2.266-4.734l1.3-1.438C612.576,303.161,616.193,306.477,615.25,309.736Z" transform="translate(-569.029 -235.806)" fill="#fa936d"/>
          <path id="Trazado_125690" data-name="Trazado 125690" d="M634.96,308.019l-1.929-.2a5.818,5.818,0,0,1,2.427-4.532l.984,1.672A3.994,3.994,0,0,0,634.96,308.019Z" transform="translate(-548.426 -235.554)" fill="#fa936d"/>
          <path id="Trazado_125691" data-name="Trazado 125691" d="M625.329,302.5s3.454,8.84,1.837,9.21-5.576.671-6.073,0S623.676,299.82,625.329,302.5Z" transform="translate(-559.7 -236.687)" fill="#fa936d"/>
          <path id="Trazado_125692" data-name="Trazado 125692" d="M616.229,338.636c-.144-.033-14.375-3.256-14.123-18.339.155-9.216,4.719-14.4,8.046-18.18,2.061-2.338,3.687-4.183,3.807-6.2l1.936.118c-.161,2.683-2.072,4.855-4.286,7.369-3.306,3.752-7.42,8.425-7.563,16.929-.225,13.467,12.068,16.294,12.59,16.409Z" transform="translate(-577.507 -242.489)" fill="#352b4c"/>
          <path id="Trazado_125693" data-name="Trazado 125693" d="M649.395,334.059l-.169-1.932a7,7,0,0,0,4.492-2.647c1.645-2.177,2.088-5.425,1.31-9.649-1.174-6.378-4.141-8.844-7.579-11.7-3.089-2.567-6.587-5.477-9.078-11.645l1.8-.728c2.309,5.714,5.468,8.341,8.522,10.879,3.572,2.971,6.944,5.776,8.246,12.843.883,4.8.312,8.574-1.7,11.205A8.854,8.854,0,0,1,649.395,334.059Z" transform="translate(-543.406 -242.637)" fill="#352b4c"/>
          <path id="Trazado_125694" data-name="Trazado 125694" d="M651.895,334.634a1.079,1.079,0,0,1-.266-.033c-1.092-.279-1.814-.46,2.049-26.312,1.193-7.992-.3-14.185-4.457-18.411-8.357-8.5-24.847-6.44-25.016-6.418l-.252-1.927c.714-.091,17.612-2.206,26.648,6.981,4.6,4.682,6.284,11.432,4.994,20.062-3.145,21.056-3.013,24.2-2.895,24.663a.842.842,0,0,0-.681-.536.83.83,0,0,0-.805.307l1.882.534C652.766,334.454,652.252,334.634,651.895,334.634Z" transform="translate(-556.961 -256.267)" fill="#352b4c"/>
          <path id="Trazado_125695" data-name="Trazado 125695" d="M622.964,294.426c-5.262-2.165-8.147-5.085-8.568-8.681-.856-7.27,8.861-14.362,9.276-14.659l1.133,1.574c-.091.066-9.207,6.721-8.483,12.86.336,2.842,2.819,5.237,7.379,7.111Z" transform="translate(-565.997 -265.832)" fill="#352b4c"/>
          <path id="Trazado_125696" data-name="Trazado 125696" d="M636.151,325.621s3.178,13.642,13.547,14.4c20.929,1.529,22.943-16.612,22.943-16.612,3.985,1.762,24.533-1.11,32.779,14.418s14.016,105.195,33.613,162.3C741.305,506.744,605.6,505.9,595.7,505.9s2.526-126.157,5-141.825S597.393,331.692,636.151,325.621Z" transform="translate(-587.072 -216.636)" fill="#262f36"/>
          <path id="Trazado_125697" data-name="Trazado 125697" d="M623.6,313.279l-1.387-.439c.045-.14,1.1-3.425,3.588-4,1.515-.347,3.135.374,4.822,2.152l-1.057,1c-1.3-1.374-2.451-1.969-3.434-1.737C624.738,310.577,623.83,312.546,623.6,313.279Z" transform="translate(-558.6 -230.412)" fill="#261e35"/>
          <path id="Trazado_125698" data-name="Trazado 125698" d="M627.5,318.87a13.487,13.487,0,0,1-8.3-2.7l.937-1.112c.237.2,5.887,4.783,14.41.588l.64,1.308A17.3,17.3,0,0,1,627.5,318.87Z" transform="translate(-561.429 -224.487)" fill="#fa936d"/>
          <path id="Trazado_125699" data-name="Trazado 125699" d="M592.574,397.02c1.442-3.622,19.919-43.582,21.473-58.012s11.855-30.677,13.041-27.464-1.279,9.5-1.279,9.5,3.78-3.589,8.6,2.146-2.352,20.943-2.206,27.123-.19,61.671-9.721,65.7S586.191,413.066,592.574,397.02Z" transform="translate(-587.38 -228.178)" fill="#ffaf91"/>
          <path id="Trazado_125702" data-name="Trazado 125702" d="M649.734,372.47h39.418c-2.4-11.816-2.1-50.231-47.785-47.87C619.076,325.752,649.734,372.47,649.734,372.47Z" transform="translate(-548.225 -215.615)" fill="#262f36"/>
          <path id="Trazado_125703" data-name="Trazado 125703" d="M630.494,340.866a24.875,24.875,0,0,1-14.2-4.965l1.23-1.5c.617.5,15.25,12.165,28.5-3.743l1.488,1.244C641.782,338.78,635.729,340.866,630.494,340.866Z" transform="translate(-564.165 -209.82)" fill="#352b4c"/>
          <path id="Trazado_125705" data-name="Trazado 125705" d="M648.52,358.6l-1.767-.8c1.865-4.1-.92-13.993-2.152-17.46l1.828-.648C646.623,340.221,651.089,352.95,648.52,358.6Z" transform="translate(-537.547 -201.333)" fill="#352b4c"/>
        </g>
      </g>
    </g>
  </g>
</svg>
