<svg xmlns="http://www.w3.org/2000/svg" xmlns:xlink="http://www.w3.org/1999/xlink" width="511" height="482" viewBox="0 0 511 482">
  <defs>
    <clipPath id="clip-path">
      <rect id="Rectángulo_35692" data-name="Rectángulo 35692" width="511" height="482" transform="translate(527.333 6073)" fill="none" stroke="#707070" stroke-width="1"/>
    </clipPath>
    <clipPath id="clip-path-2">
      <path id="Trazado_122884" data-name="Trazado 122884" d="M266.139,385.6c43.757-15.912,125.152,25.875,154.485-10.315,10.978-13.545,62.615-95.022,62.615-95.022L471.2,138.568,420.2,70.328S393.133-13.342,357.365-36.718c-16.2-36.408-169.011-70.313-169.011-70.313S106.048-23.211,87.2-17.7C54.126-8.039,43.825,38.117,26.629,67.975c-37.593,65.269-31.443,151.487-5.925,220,14.344,38.515,39.659,74.249,75.711,93.979C123.5,396.775,155.1,401.8,185.964,400.991A254.466,254.466,0,0,0,266.139,385.6Z" transform="matrix(0.545, -0.839, 0.839, 0.545, 515.04, 6394.506)" fill="#5bd3a9"/>
    </clipPath>
  </defs>
  <g id="infografia3" transform="translate(-527.333 -6073)" clip-path="url(#clip-path)">
    <g id="Grupo_131031" data-name="Grupo 131031">
      <path id="Trazado_122885" data-name="Trazado 122885" d="M184.52,0C286.428,0,369.04,82.612,369.04,184.52S286.428,369.04,184.52,369.04,0,286.428,0,184.52,82.612,0,184.52,0Z" transform="translate(1038.509 6379.88) rotate(150)" fill="#008bfd"/>
      <path id="Trazado_122842" data-name="Trazado 122842" d="M266.139,385.6c43.757-15.912,83.335-43.46,112.667-79.649,10.978-13.545,21.027-30.1,18.286-47.317-2.919-18.353-19.748-31.562-37.219-37.9s-36.368-7.676-54.15-13.08c-42.253-12.84-75.125-48.115-92.733-87.706C196.794,83.544,198.454,32.3,161.3,8.595,144.749-1.968,123.232-1.788,104.382,3.721c-33.072,9.664-60.557,34.4-77.753,64.254-37.593,65.269-31.443,151.487-5.925,220,14.344,38.515,39.659,74.249,75.711,93.979C123.5,396.775,155.1,401.8,185.964,400.991A254.466,254.466,0,0,0,266.139,385.6Z" transform="matrix(0.545, -0.839, 0.839, 0.545, 515.04, 6394.506)" fill="#5bd3a9"/>
      <g id="Enmascarar_grupo_58" data-name="Enmascarar grupo 58" clip-path="url(#clip-path-2)">
        <g id="Grupo_131027" data-name="Grupo 131027" transform="translate(339.382 5854.556)">
          <path id="Trazado_122844" data-name="Trazado 122844" d="M188.013,321.515c-4.5-1.126-96.786-59.648-96.786-59.648s56.271,97.912,54.02,94.535-123.8-145.179-123.8-145.179L80.57,234.507,33.831,152.7S192.515,322.64,188.013,321.515Z" transform="translate(261.686 366.356)" fill="#ffdfa3"/>
          <g id="Grupo_131018" data-name="Grupo 131018" transform="translate(496.518 354.068)">
            <path id="Trazado_122845" data-name="Trazado 122845" d="M343.833,290.476,219.119,257.353a16.706,16.706,0,0,1,8.578-32.292l110.178,29.263,47.466-108.363,11.848,6.078L363.731,280.288A16.708,16.708,0,0,1,343.833,290.476Z" transform="translate(-206.699 -145.962)" fill="#f3725f"/>
          </g>
          <path id="Trazado_122846" data-name="Trazado 122846" d="M220.743,205.263q.939-2.1,1.97-4.17Q221.739,203.178,220.743,205.263Z" transform="translate(311.791 294.358)" fill="#ffbf80"/>
          <path id="Trazado_122847" data-name="Trazado 122847" d="M160.9,232.465c-2.354-6.7-3.6-13.533-2.513-20.683a34.732,34.732,0,0,1,4.967-13.233c4.208-6.747,10.553-12.31,17.782-16.687a84.27,84.27,0,0,1,15.6-7.337c.772-.277,1.554-.544,2.329-.8q6.162-2.016,12.5-3.421a140.225,140.225,0,0,1,57.64-.644,135.385,135.385,0,0,1,20.313,5.691,59.067,59.067,0,0,1,27.035,20.152,57.907,57.907,0,0,1,10.715,25.035,45.126,45.126,0,0,1,.4,12.479c-.08.759-.187,1.505-.305,2.249a2.97,2.97,0,0,0-2.187,1.216,104.775,104.775,0,0,0-15.143,28.83c-.177.515-.338,1.036-.51,1.552a2.475,2.475,0,0,0-.8.833c-6.355,10.984-9.435,22.765-11.022,34.9a243.611,243.611,0,0,0-6.465,39.116,2.892,2.892,0,0,0-.213,1.133c0,.421,0,.844,0,1.264-.7,8.237-1.131,16.5-1.449,24.737l-.372.041A352.525,352.525,0,0,1,198.67,365.6c-5.8-.967-11.768-2.154-16.623-5.483-10.714-7.324-12.489-22.327-10.212-35.293.139-.785.287-1.559.456-2.323,2.918-13.451,8.9-26.578,7.97-40.311C179.062,264.547,166.653,248.883,160.9,232.465Z" transform="translate(213.607 240.993)" fill="#d2f3e8"/>
          <path id="Trazado_122848" data-name="Trazado 122848" d="M175.568,150.228a10,10,0,1,0,10-10A10,10,0,0,0,175.568,150.228Z" transform="translate(241.115 199.132)" fill="#f3725f"/>
          <path id="Trazado_122849" data-name="Trazado 122849" d="M201.855,168.209c14.982-.11,29.025,6.632,42.8,12.53a433.31,433.31,0,0,0,76.265,24.594c2.67.595,5.668,1.4,6.968,3.8a8.991,8.991,0,0,1,.585,5.142,74.848,74.848,0,0,1-32.7,54.49c-4.662,3.085-9.753,5.7-13.515,9.835-3.47,3.811-5.588,8.678-8.9,12.628-8.581,10.232-30.976,10.317-44.3,9.478-9.6-32.149,11.209-57.809,1.531-85.664C224.543,197.693,214.067,181.931,201.855,168.209Z" transform="translate(282.241 242.909)" fill="#d2f3e8"/>
          <path id="Trazado_122850" data-name="Trazado 122850" d="M284.957,246.071l-108.468-3.777s-13.938,54.865-14.951,85.718l69.3,17.7h9.609l65.815-23.373S299.595,263.687,284.957,246.071Z" transform="translate(219.165 358.817)" fill="#12263f"/>
          <path id="Trazado_122851" data-name="Trazado 122851" d="M232.012,203.728l2.167,77.119a22,22,0,0,1-10.743,19.518l-7.611,4.524-13.656-10.117,8.6-67.272Z" transform="translate(282.732 298.48)" fill="#d2f3e8"/>
          <path id="Trazado_122852" data-name="Trazado 122852" d="M171.188,251.825H274.881a5.327,5.327,0,0,0,5.311-5.311h0a5.327,5.327,0,0,0-5.311-5.311H171.188a5.327,5.327,0,0,0-5.311,5.311h0A5.327,5.327,0,0,0,171.188,251.825Z" transform="translate(225.954 357.11)" fill="#12263f"/>
          <g id="Grupo_131019" data-name="Grupo 131019" transform="translate(204.782 381.826)">
            <path id="Trazado_122853" data-name="Trazado 122853" d="M183.622,302.321l114.8-58.922a16.706,16.706,0,1,0-15.256-29.725l-96.656,42.042-85.475-98.93-8.094,3.852L162.011,296.6A16.707,16.707,0,0,0,183.622,302.321Z" transform="translate(-92.939 -156.786)" fill="#f3725f"/>
          </g>
          <path id="Trazado_122854" data-name="Trazado 122854" d="M210.47,315.367c-14.015-22.6-32.01-6.85-42.276-42.037-6.575-22.542-39.773-22.3-33.213-57.624,13.266-10.579,58.317-29.576,73.17-37.78,5.2-2.872,10.658-5.642,16.574-6.183s12.445,1.639,15.495,6.737c2.264,3.788,15.692,10.327,15.49,14.738C253.561,240.13,244.391,282.888,210.47,315.367Z" transform="translate(176.283 248.315)" fill="#d2f3e8"/>
          <g id="Grupo_131020" data-name="Grupo 131020" transform="translate(514.514 463.157)">
            <path id="Trazado_122855" data-name="Trazado 122855" d="M215.159,270.281a1.469,1.469,0,0,1-.415-.062,1.445,1.445,0,0,1-1.01-1.605l12.135-78.886a1.445,1.445,0,1,1,2.857.439L218.15,258.913l21.706-47.033a1.445,1.445,0,0,1,2.624,1.21l-26.007,56.35A1.447,1.447,0,0,1,215.159,270.281Z" transform="translate(-213.716 -188.5)" fill="#2d1a14"/>
          </g>
          <g id="Grupo_131022" data-name="Grupo 131022" transform="translate(383.791 484.706)">
            <g id="Grupo_131021" data-name="Grupo 131021" transform="translate(0)">
              <path id="Trazado_122856" data-name="Trazado 122856" d="M166.432,274.235q1.239-37.987-.8-75.94c-.1-1.852-2.99-1.862-2.89,0q2.035,37.948.8,75.94c-.062,1.859,2.829,1.857,2.89,0Z" transform="translate(-162.742 -196.903)" fill="#2d1a14"/>
            </g>
          </g>
          <g id="Grupo_131024" data-name="Grupo 131024" transform="translate(357.805 485.577)">
            <g id="Grupo_131023" data-name="Grupo 131023" transform="translate(0)">
              <path id="Trazado_122857" data-name="Trazado 122857" d="M181.744,273.668c-3.029-13.666-9.1-27.261-13.62-40.483-2.931-8.568-5.865-17.138-8.889-25.673-.672-1.9-1.964-9.122-4.185-10.114-1.859-.831-3.483,1.918-1.611,2.754-.946-.423.485,2,.905,3.142,1.113,3.021,2.17,6.063,3.234,9.1q4.466,12.76,8.809,25.563c4.075,11.943,9.545,24.217,12.279,36.557.446,2,3.521,1.157,3.077-.846Z" transform="translate(-152.609 -197.243)" fill="#2d1a14"/>
            </g>
          </g>
          <g id="Grupo_131026" data-name="Grupo 131026" transform="translate(418.608 499.171)">
            <g id="Grupo_131025" data-name="Grupo 131025" transform="translate(0)">
              <path id="Trazado_122858" data-name="Trazado 122858" d="M176.419,204.052a100.523,100.523,0,0,0,54.924,54.826c1.5.618,2.159-1.828.672-2.439a97.685,97.685,0,0,1-53.157-53.059c-.613-1.482-3.062-.831-2.439.672Z" transform="translate(-176.319 -202.544)" fill="#2d1a14"/>
            </g>
          </g>
          <path id="Trazado_122859" data-name="Trazado 122859" d="M239.41,155.909c-9.219-.362-17.841-4.421-26.825-6.519s-19.647-1.726-25.881,5.075c-1.677,1.828-3.111,4.16-5.488,4.875-2.754.831-5.575-.844-7.97-2.436-6.924-4.608-14.051-9.232-22.1-11.322s-17.321-1.254-23.624,4.17c-7.4,6.37-8.973,17.2-8.586,26.958.492,12.379,3.416,24.837,9.85,35.426s16.59,19.167,28.563,22.339a26.257,26.257,0,0,0,11.643.718c9.507-1.836,16-10.3,22.475-17.5s15.61-14.166,24.963-11.656c3.454.926,6.429,3.065,9.509,4.883a58.647,58.647,0,0,0,55.367,1.759c5.762-2.929,11.032-6.827,17.026-9.242a38.25,38.25,0,0,1,25.194-1.1c12.535,3.821,22.147,13.748,33.582,20.149a65.46,65.46,0,0,0,51.621,5.037c7.824-2.554,16.082-7.978,16.661-16.19.3-4.242-1.58-8.481-.882-12.676,1.508-9.081,13.338-11.981,22.457-10.7s18.949,4.531,27.081.215c9.678-5.134,11.556-18.718,8.019-29.084-5.962-17.464-23.488-29.392-41.758-31.99s-36.941,2.99-53.011,12.066c-8.994,5.083-18.939,11.512-28.833,8.537-8.25-2.477-13.656-10.94-21.929-13.335-11.281-3.265-20.644,6.039-31.7,5.837-7.563-.141-14.223-3.626-21.583-4.419-8.478-.913-12.051,3.749-17.631,9.294C258.615,152.034,249.419,156.3,239.41,155.909Z" transform="translate(152.428 177.591)" fill="#2d1a14"/>
          <path id="Trazado_122860" data-name="Trazado 122860" d="M301.37,176.108a11.819,11.819,0,0,1-2.572-.549c-6.506-1.993-12.628-6.3-15.225-12.589a11.341,11.341,0,0,0-1.441-2.931A2.705,2.705,0,0,0,279.244,159a3.014,3.014,0,0,0-1.6,2.893,33.485,33.485,0,0,1,.133,3.506c-.144,1.164-.944,2.393-2.116,2.439a1.1,1.1,0,0,1-.782-.241,1.515,1.515,0,0,1-.344-.559,18.049,18.049,0,0,1-1.428-7.617,8.218,8.218,0,0,1,.88-3.78c1.3-2.318,4.08-3.293,6.619-4.085-.008-.513-.69-.672-1.2-.672l-4.719-.015a4.141,4.141,0,0,0-1.685.228,4.786,4.786,0,0,0-1.746,1.764,16.528,16.528,0,0,1-4.267,4.072,1.333,1.333,0,0,1-1.133.3c-.515-.19-.6-.877-.551-1.423.287-3.024,2.108-5.652,3.87-8.124a4.6,4.6,0,0,1,1.459-1.5,4.259,4.259,0,0,1,1.567-.4,35.691,35.691,0,0,1,11.235.482,47.923,47.923,0,0,0-3.28-5.862c-1.88-3.18-6.191,1.972-8.745,2.6-1.646.408-3.149.313-4.167-1.044a.728.728,0,0,1-.192-.59.822.822,0,0,1,.272-.372,30.685,30.685,0,0,1,7.306-5.011c2.716-1.333,6.406-3.6,8.863-.757q6.1,7.066,12.2,14.133a66.947,66.947,0,0,1,7.055,9.2,22.368,22.368,0,0,1,3.46,10.94,8.32,8.32,0,0,1-1.428,5.206A3.674,3.674,0,0,1,301.37,176.108Z" transform="translate(381.489 189.177)" fill="#f3725f"/>
          <path id="Trazado_122861" data-name="Trazado 122861" d="M279.387,155.264c1.618-1.685,1.7-4.357,1.067-6.606s-1.859-4.288-2.577-6.511-.841-4.857.58-6.711c2.513,5.2,5.17,10.34,7.681,15.538a18.881,18.881,0,0,1,2.262,6.742,9.591,9.591,0,0,1-3.9,8.3C283.067,162.826,280.813,158.451,279.387,155.264Z" transform="translate(400.362 191.636)" fill="#f3725f"/>
          <path id="Trazado_122862" data-name="Trazado 122862" d="M103.663,189.9a11.8,11.8,0,0,0,1.662-2.041c3.819-5.632,5.886-12.825,3.962-19.354a11.339,11.339,0,0,1-.716-3.188,2.707,2.707,0,0,1,1.6-2.623,3.02,3.02,0,0,1,3.057,1.251,33.536,33.536,0,0,0,2.1,2.816,2.582,2.582,0,0,0,3.175.572,1.1,1.1,0,0,0,.459-.677,1.575,1.575,0,0,0-.082-.651,18.061,18.061,0,0,0-3.665-6.827,8.19,8.19,0,0,0-3.057-2.4c-2.47-.987-5.242-.008-7.717.969-.315-.4.118-.957.515-1.28l3.665-2.97a4.177,4.177,0,0,1,1.457-.88,4.79,4.79,0,0,1,2.464.28,16.472,16.472,0,0,0,5.88.495,1.324,1.324,0,0,0,1.072-.477c.28-.469-.082-1.059-.464-1.451-2.121-2.177-5.188-3.083-8.111-3.9a4.612,4.612,0,0,0-2.075-.251,4.376,4.376,0,0,0-1.472.672,35.569,35.569,0,0,0-8.445,7.422,47.71,47.71,0,0,1-1.123-6.624c-.531-3.654,6.057-2.347,8.442-3.457,1.536-.715,2.647-1.731,2.59-3.426a.726.726,0,0,0-.221-.582.828.828,0,0,0-.444-.118,30.63,30.63,0,0,0-8.835.68c-2.952.662-7.247,1.213-7.378,4.967q-.319,9.328-.639,18.659a66.729,66.729,0,0,0,.274,11.589,22.4,22.4,0,0,0,4.165,10.691,8.332,8.332,0,0,0,4.378,3.157A3.668,3.668,0,0,0,103.663,189.9Z" transform="translate(109.114 200.549)" fill="#f3725f"/>
          <path id="Trazado_122863" data-name="Trazado 122863" d="M95.013,163.521c-.477-7.842-3.726-15.213-6.924-22.385a7.63,7.63,0,0,1,6.56,4.4c1,2.229.859,4.819,1.723,7.1.631,1.669,1.772,3.1,2.5,4.731a20.133,20.133,0,0,1,1.257,7.853c.049,2.544,1.731,12.93-2.349,12.112C93.98,176.572,95.175,166.15,95.013,163.521Z" transform="translate(104.255 200.556)" fill="#f3725f"/>
          <path id="Trazado_122864" data-name="Trazado 122864" d="M209.437,143.4a1.68,1.68,0,0,1,2.626.339,44.234,44.234,0,0,0,21.331,21.616V149.036a25.974,25.974,0,0,0-51.949,0V165.71C192.809,161.318,201.3,153.083,209.437,143.4Z" transform="translate(250.311 172.281)" fill="#2d1a14"/>
          <path id="Trazado_122865" data-name="Trazado 122865" d="M177.7,190.932c12.43-6.793,19.659-21.978,17.095-35.911H219.64c-.323,9.7,5.47,16.587,10.809,24.688,2.785,4.224,6.1,8.609,10.966,10-7.022,9.407-19.18,14.11-30.915,14.407S185.186,199.969,177.7,190.932Z" transform="translate(244.447 222.279)" fill="#f3725f"/>
          <path id="Trazado_122866" data-name="Trazado 122866" d="M216.731,181.015c-7.234-1.275-14.556-3.629-20.065-8.537-5.18-4.614-8.073-10.85-9.637-17.457h18.013c-.323,9.7,5.47,16.587,10.809,24.688C216.139,180.145,216.431,180.579,216.731,181.015Z" transform="translate(259.046 222.279)" fill="#2d1a14"/>
          <path id="Trazado_122867" data-name="Trazado 122867" d="M207.419,212.666h0a26.051,26.051,0,0,0,25.976-25.973V149.036a26.05,26.05,0,0,0-25.976-25.973h0a26.049,26.049,0,0,0-25.973,25.973v37.657A26.051,26.051,0,0,0,207.419,212.666Z" transform="translate(250.311 172.281)" fill="#f3725f"/>
          <path id="Trazado_122868" data-name="Trazado 122868" d="M193.966,149.867c0,5.27-4.013,9.54-8.96,9.54s-8.96-4.27-8.96-9.54,4.011-9.537,8.96-9.537S193.966,144.6,193.966,149.867Z" transform="translate(241.861 199.295)" fill="#f3725f"/>
          <path id="Trazado_122869" data-name="Trazado 122869" d="M217.939,150.011c0,5.267-4.011,9.537-8.96,9.537s-8.96-4.27-8.96-9.537,4.011-9.54,8.96-9.54S217.939,144.743,217.939,150.011Z" transform="translate(279.367 199.515)" fill="#f3725f"/>
          <path id="Trazado_122870" data-name="Trazado 122870" d="M181.53,175.654c8.024-2.536,15-8.842,19.87-16.787s7.722-17.441,9.04-27.119c1.428,9,3.629,17.931,7.552,25.824s9.7,14.718,16.877,18.18c-.418-8.594,1.126-17.892.5-26.471-.582-8.05-2.593-17.11-8.383-23.175-6.545-6.857-17.69-9.124-26.586-5.793-9.081,3.4-14.6,12.494-17.177,21.275a62.189,62.189,0,0,0-2.334,17.577C180.891,160.533,181.735,175.59,181.53,175.654Z" transform="translate(249.443 165.607)" fill="#2d1a14"/>
          <path id="Trazado_122871" data-name="Trazado 122871" d="M299.42,137.455c-4.157-6.442-14.184-5.393-20.631-1.246s-11.494,10.517-18.608,13.379c-14.341,5.768-29.466-4.67-44.089-9.686-7.824-2.682-17.277-3.544-23.67,1.7-1.782,1.462-3.28,3.367-5.4,4.267-6.2,2.623-11.771-4.37-16.174-9.463-13.953-16.133-41.355-18.077-57.447-4.075" transform="translate(143.849 172.116)" fill="none" stroke="#2d1a14" stroke-linecap="round" stroke-linejoin="round" stroke-width="1.353"/>
          <path id="Trazado_122872" data-name="Trazado 122872" d="M199.167,144.383c6.732-3.611,14.977-7.242,21.626-3.48,1.913,1.082,3.475,2.693,5.332,3.867,4.7,2.967,10.838,2.8,16.077.949s9.809-5.165,14.371-8.34c15.464-10.753,33.562-20.642,52.164-17.685,9.76,1.554,20.46,6.421,28.833,1.169" transform="translate(278.036 166.181)" fill="none" stroke="#2d1a14" stroke-linecap="round" stroke-linejoin="round" stroke-width="1.353"/>
          <path id="Trazado_122873" data-name="Trazado 122873" d="M187.462,139c4.534.88,7.375,6.673,11.984,6.37" transform="translate(259.723 197.209)" fill="none" stroke="#2d1a14" stroke-linecap="round" stroke-linejoin="round" stroke-width="1.353"/>
          <path id="Trazado_122874" data-name="Trazado 122874" d="M194.513,145.024c1.639.505,3.311-.713,4.367-2.062s1.911-2.967,3.413-3.79" transform="translate(270.754 197.483)" fill="none" stroke="#2d1a14" stroke-linecap="round" stroke-linejoin="round" stroke-width="1.353"/>
          <path id="Trazado_122875" data-name="Trazado 122875" d="M204.074,157.176a10.461,10.461,0,0,0-7.986-9.1,6.228,6.228,0,0,0-4.555.541,5.954,5.954,0,0,0-2.521,4.308,17.619,17.619,0,0,0,.29,5.129Z" transform="translate(262.004 211.109)" fill="#fffaf5"/>
          <path id="Trazado_122876" data-name="Trazado 122876" d="M191.4,146.785l7.74,4.614q-1.2-3.624-2.4-7.242" transform="translate(265.883 205.28)" fill="none" stroke="#2d1a14" stroke-linecap="round" stroke-linejoin="round" stroke-width="0.451"/>
          <line id="Línea_155" data-name="Línea 155" x2="5.62" y2="0.162" transform="translate(451.017 364.031)" fill="none" stroke="#2d1a14" stroke-linecap="round" stroke-linejoin="round" stroke-width="0.451"/>
          <path id="Trazado_122877" data-name="Trazado 122877" d="M186.7,143.057a5.89,5.89,0,0,0,9.13,2.3" transform="translate(258.529 203.561)" fill="none" stroke="#2d1a14" stroke-linecap="round" stroke-linejoin="round" stroke-width="0.902"/>
          <path id="Trazado_122878" data-name="Trazado 122878" d="M195.1,145.6a5.889,5.889,0,0,0,9.009-2.734" transform="translate(271.671 203.261)" fill="none" stroke="#2d1a14" stroke-linecap="round" stroke-linejoin="round" stroke-width="0.902"/>
          <path id="Trazado_122879" data-name="Trazado 122879" d="M170.513,99.9c-1.485-.371-31.918-19.671-31.918-19.671s18.556,32.289,17.814,31.176-40.826-47.878-40.826-47.878l19.5,7.679L119.666,44.224S172,100.267,170.513,99.9Z" transform="translate(221.287 183.914)" fill="#ffdfa3"/>
          <path id="Trazado_122880" data-name="Trazado 122880" d="M186.248,69.954c1.52-.38,32.685-20.143,32.685-20.143s-27.326,44.762-26.565,43.622S242.5,32.707,242.5,32.707l-19.965,7.864,15.785-27.627S184.728,70.334,186.248,69.954Z" transform="translate(314.694 208.007)" fill="#ffdfa3"/>
          <path id="Trazado_122881" data-name="Trazado 122881" d="M267.685,309.525l-37.2-24.007,44.219-2.257-13.067-42.3,35.324,26.695,17.182-40.806,9.9,43.155,39.392-20.215-20.155,39.423,43.17,9.835-40.78,17.244,26.748,35.283-42.324-13L327.9,382.79,303.84,345.624l-30.1,32.469,5.456-43.939-43.93,5.523Z" transform="translate(296.195 296.293)" fill="#ffdfa3"/>
          <circle id="Elipse_4802" data-name="Elipse 4802" cx="8.671" cy="8.671" r="8.671" transform="translate(298.561 560.749)" fill="#133d60"/>
          <path id="Trazado_122882" data-name="Trazado 122882" d="M102.892,104.569A8.672,8.672,0,1,1,94.221,95.9,8.67,8.67,0,0,1,102.892,104.569Z" transform="translate(100.279 129.781)" fill="#2d1a14"/>
          <path id="Trazado_122883" data-name="Trazado 122883" d="M312.214,213.993a6.551,6.551,0,1,1-6.551-6.55A6.552,6.552,0,0,1,312.214,213.993Z" transform="translate(302.345 305.285)" fill="#133d60"/>
        </g>
      </g>
    </g>
  </g>
</svg>
