<svg xmlns="http://www.w3.org/2000/svg" xmlns:xlink="http://www.w3.org/1999/xlink" width="407" height="425" viewBox="0 0 407 425">
  <defs>
    <clipPath id="clip-path">
      <rect id="Rectángulo_35702" data-name="Rectángulo 35702" width="407" height="425" transform="translate(928.333 7781)" fill="#fff" stroke="#707070" stroke-width="1"/>
    </clipPath>
  </defs>
  <g id="infob3" transform="translate(-928.333 -7781)" clip-path="url(#clip-path)">
    <g id="Grupo_131094" data-name="Grupo 131094" transform="translate(57.848 49)">
      <path id="Trazado_123143" data-name="Trazado 123143" d="M151.8,0A151.8,151.8,0,1,1,0,151.8,151.8,151.8,0,0,1,151.8,0Z" transform="translate(1289.262 8001.926) rotate(150)" fill="#008bfd"/>
      <path id="Trazado_123144" data-name="Trazado 123144" d="M218.946,317.224c36-13.091,68.558-35.753,92.689-65.526,9.031-11.143,17.3-24.761,15.043-38.926-2.4-15.1-16.246-25.965-30.619-31.176s-29.919-6.315-44.548-10.761c-34.76-10.563-61.8-39.583-76.29-72.153C161.9,68.73,163.263,26.573,132.7,7.071c-13.62-8.69-31.321-8.542-46.828-4.01-27.208,7.95-49.819,28.3-63.966,52.861-30.927,53.7-25.867,124.625-4.875,180.99,11.8,31.685,32.626,61.083,62.286,77.314,22.282,12.193,48.279,16.324,73.67,15.66A209.343,209.343,0,0,0,218.946,317.224Z" transform="matrix(0.545, -0.839, 0.839, 0.545, 858.616, 8013.958)" fill="#5bd3a9"/>
    </g>
    <g id="Grupo_131093" data-name="Grupo 131093" transform="translate(987.694 7788)">
      <path id="Trazado_123094" data-name="Trazado 123094" d="M489.939,432.23A11.472,11.472,0,0,1,484,445.477c-4.413,2.056-10.125,1.222-13.73,4.5a21.339,21.339,0,0,0-3.3,4.64,27.345,27.345,0,0,1-25.2,12.3c5.413-10.59,10.3-22.123,15.714-32.713Z" transform="translate(-392.658 -83.526)" fill="#ae4e3e"/>
      <path id="Trazado_123095" data-name="Trazado 123095" d="M503.642,429.323a11.472,11.472,0,0,1-5.94,13.247c-4.413,2.056-10.125,1.222-13.73,4.5a21.34,21.34,0,0,0-3.3,4.64,27.345,27.345,0,0,1-25.2,12.3c5.415-10.588,10.3-22.123,15.714-32.711Z" transform="translate(-428.866 -85.393)" fill="#ae4e3e"/>
      <path id="Trazado_123096" data-name="Trazado 123096" d="M616.534,421.472c-97.388.018-196.482.018-294.732.007" transform="translate(-321.802 -90.437)" fill="none" stroke="#4a1801" stroke-linecap="round" stroke-linejoin="round" stroke-width="1.998"/>
      <g id="Grupo_131091" data-name="Grupo 131091" transform="translate(122.126)">
        <path id="Trazado_123097" data-name="Trazado 123097" d="M428.8,220.071c6.261.741,12.6,4.285,14.821,10.186,2.032,5.394.5,12.075,4.05,16.613,4.894,6.251,14.753,3.525,22.489,5.307,8.481,1.951,14.666,10.15,15.757,18.784s-2.268,17.4-7.594,24.281c-3.068,3.963-7.015,8.066-6.642,13.063.156,2.074,1.072,4.012,1.5,6.049,1.314,6.259-2.311,12.809-7.58,16.434s-11.866,4.774-18.258,4.963a70.7,70.7,0,0,1-23.1-3.18c-5.556-1.736-11.255-4.2-16.977-3.13-7.517,1.4-12.517,8.31-18.71,12.794-9.695,7.021-23.842,7.772-33.644.9s-13.811-21.3-8.054-31.79c2.051-3.74,5.244-7.205,5.277-11.47.056-7.676-9.37-11.24-14.187-17.217-6.126-7.6-3.178-20.628,5.622-24.851,8.03-3.853,19.191-1.26,24.938-8.062,5.7-6.755,2.033-18.764,8.806-24.445,7.264-6.092,16.6.355,24.562.14C411.514,225.177,418.416,218.842,428.8,220.071Z" transform="translate(-334.705 -219.913)" fill="#133d60"/>
        <g id="Grupo_131090" data-name="Grupo 131090" transform="translate(23.56 45.648)">
          <path id="Trazado_123098" data-name="Trazado 123098" d="M346.166,429.612l-5.461-53.518c0-3.107-.025-6.215-.076-9.32l47.22-9.787c-1.3,9.322,3.447,18.437,9.606,25.784s6.318,7.44,12.278,14.926a68.559,68.559,0,0,1,13.883,31.916Z" transform="translate(-305.494 -177.509)" fill="#ae4e3e"/>
          <path id="Trazado_123099" data-name="Trazado 123099" d="M344.986,420.047l-4.356-42.679,31.379-3.2q3.5-.288,7-.616,8.1-.754,16.182-1.675c.355.448.716.893,1.082,1.33,6.159,7.345,6.318,7.44,12.278,14.926a68.559,68.559,0,0,1,13.883,31.916Z" transform="translate(-304.313 -167.944)" fill="#133d60"/>
          <path id="Trazado_123100" data-name="Trazado 123100" d="M408.179,313.607c-8.673-3.874-12.227-27.357-11.258-36.809l-18.705,15.047c.736,6.466-2.767,11.383-5.9,17.084-1.636,2.973-3.62,6.083-6.8,7.274,5.2,5.911,13.578,8.406,21.44,7.975S403.656,320.05,408.179,313.607Z" transform="translate(-330.926 -229.019)" fill="#ae4e3e"/>
          <path id="Trazado_123101" data-name="Trazado 123101" d="M377.742,302.915a31.086,31.086,0,0,0,9.7-7.9,56.691,56.691,0,0,0,5.844-9.537l-9.882.792C384.118,292.568,380.813,297.4,377.742,302.915Z" transform="translate(-336.112 -223.443)" fill="#240000"/>
          <path id="Trazado_123102" data-name="Trazado 123102" d="M395.379,315.3h0a19.694,19.694,0,0,1-21.142-18.007l-2.273-28.379a19.7,19.7,0,0,1,18.007-21.142h0a19.7,19.7,0,0,1,21.142,18.007l2.273,28.379A19.694,19.694,0,0,1,395.379,315.3Z" transform="translate(-346.683 -247.707)" fill="#ae4e3e"/>
          <path id="Trazado_123103" data-name="Trazado 123103" d="M404.655,278.229c-2.738-4.016-1.153-9.6-1.4-14.161-.327-6.062-7.251-8.613-12-5.663-3.911,2.431-8,4.324-12.648,4.628a9.337,9.337,0,0,1-6.156-1.545,19.629,19.629,0,0,1,38.305,4.288l1.424,17.79A13.978,13.978,0,0,1,404.655,278.229Z" transform="translate(-346.331 -247.707)" fill="#133d60"/>
          <path id="Trazado_123104" data-name="Trazado 123104" d="M380.462,273.745a7.563,7.563,0,1,1-8.143-6.934A7.562,7.562,0,0,1,380.462,273.745Z" transform="translate(-302.978 -235.451)" fill="#ae4e3e"/>
          <path id="Trazado_123105" data-name="Trazado 123105" d="M340.869,401.483l2.142-.708c.072.235.136.471.2.708Z" transform="translate(-225.483 -149.38)" fill="#5d515d"/>
          <path id="Trazado_123106" data-name="Trazado 123106" d="M446.159,356.044c-1.708.558,10.383,70.7,8.654,71.205a211.607,211.607,0,0,1-42.05,7.369c-14.409,1.178-28.165,1.063-42.194-2.843-1-.278-15.8-70.18-16.79-70.487-4.82-8.174-11.2-15.222-10.012-26.444C345.1,322.28,354,311.23,366.829,305.858a99.977,99.977,0,0,1,13.3-4.489,105.149,105.149,0,0,1,38.565-2.717c1.184.14,2.367.3,3.544.478q2.51.384,4.983.89c9.555,1.971,19.483,6.124,25.069,12.888.107.13.215.259.317.394a19.251,19.251,0,0,1,3.64,7.233,22.812,22.812,0,0,1-.683,12.474C453.251,340.643,448.381,348.224,446.159,356.044Z" transform="translate(-343.622 -215.425)" fill="#d2f3e8"/>
          <path id="Trazado_123107" data-name="Trazado 123107" d="M391.146,272.861l-.2,3.8h-3l2.4,3.4" transform="translate(-350.74 -231.548)" fill="none" stroke="#472a1c" stroke-linecap="round" stroke-linejoin="round" stroke-width="0.478"/>
          <g id="Grupo_131088" data-name="Grupo 131088" transform="translate(26.073 37.617)">
            <path id="Trazado_123108" data-name="Trazado 123108" d="M388.533,273.211c.034,1.01,1.853,1.812,4.384,2.066a18.1,18.1,0,0,0,2.385.074,17.377,17.377,0,0,0,2.762-.305c2.3-.45,3.878-1.329,3.845-2.285-.03-.892-1.447-1.619-3.52-1.953a17.034,17.034,0,0,0-3.249-.187,17.329,17.329,0,0,0-2.94.342C390,271.421,388.5,272.28,388.533,273.211Z" transform="translate(-388.533 -270.61)" fill="#fff"/>
            <path id="Trazado_123109" data-name="Trazado 123109" d="M390.252,272.75a3.19,3.19,0,0,0,1.3,2.528,18.1,18.1,0,0,0,2.385.074,17.377,17.377,0,0,0,2.762-.305,3.144,3.144,0,0,0,1.022-2.3,3.075,3.075,0,0,0-.7-1.941,17.034,17.034,0,0,0-3.249-.187,17.329,17.329,0,0,0-2.94.342A3.079,3.079,0,0,0,390.252,272.75Z" transform="translate(-387.164 -270.61)" fill="#211902"/>
          </g>
          <g id="Grupo_131089" data-name="Grupo 131089" transform="translate(42.82 37.094)">
            <path id="Trazado_123110" data-name="Trazado 123110" d="M378.336,272.892c.034,1.01,1.853,1.812,4.382,2.066a17.852,17.852,0,0,0,2.386.076,17.567,17.567,0,0,0,2.763-.305c2.3-.45,3.878-1.33,3.845-2.286-.03-.892-1.449-1.619-3.52-1.953a16.911,16.911,0,0,0-3.249-.186,17.352,17.352,0,0,0-2.941.34C379.8,271.1,378.3,271.961,378.336,272.892Z" transform="translate(-378.336 -270.292)" fill="#fff"/>
            <path id="Trazado_123111" data-name="Trazado 123111" d="M380.056,272.43a3.186,3.186,0,0,0,1.294,2.528,17.852,17.852,0,0,0,2.386.076,17.567,17.567,0,0,0,2.763-.305,3.149,3.149,0,0,0,1.02-2.3,3.09,3.09,0,0,0-.695-1.941,16.911,16.911,0,0,0-3.249-.186,17.352,17.352,0,0,0-2.941.34A3.08,3.08,0,0,0,380.056,272.43Z" transform="translate(-376.968 -270.292)" fill="#211902"/>
          </g>
          <path id="Trazado_123112" data-name="Trazado 123112" d="M387.023,269.807a14.885,14.885,0,0,1-7.215-5.778" transform="translate(-333.244 -237.222)" fill="none" stroke="#240000" stroke-linecap="round" stroke-linejoin="round" stroke-width="1.595"/>
          <path id="Trazado_123113" data-name="Trazado 123113" d="M396.691,262.746a7.886,7.886,0,0,1-3.336,7.1" transform="translate(-365.194 -238.046)" fill="none" stroke="#240000" stroke-linecap="round" stroke-linejoin="round" stroke-width="1.595"/>
          <path id="Trazado_123114" data-name="Trazado 123114" d="M386.611,279.554a6.588,6.588,0,0,1,4.159,3.9" transform="translate(-348.164 -227.249)" fill="none" stroke="#472a1c" stroke-linecap="round" stroke-linejoin="round" stroke-width="0.456"/>
          <path id="Trazado_123115" data-name="Trazado 123115" d="M381.474,274.5a6.679,6.679,0,0,0,5.4,1.345" transform="translate(-335.826 -230.494)" fill="none" stroke="#472a1c" stroke-linecap="round" stroke-linejoin="round" stroke-width="0.478"/>
          <path id="Trazado_123116" data-name="Trazado 123116" d="M397.181,274.5a11.555,11.555,0,0,1-6.6.626" transform="translate(-361.102 -230.495)" fill="none" stroke="#472a1c" stroke-linecap="round" stroke-linejoin="round" stroke-width="0.478"/>
          <path id="Trazado_123117" data-name="Trazado 123117" d="M386.292,268.313a3.631,3.631,0,0,0-3.529.841" transform="translate(-337.367 -234.568)" fill="none" stroke="#472a1c" stroke-linecap="round" stroke-linejoin="round" stroke-width="0.478"/>
          <path id="Trazado_123118" data-name="Trazado 123118" d="M389.9,268.077A5.8,5.8,0,0,1,394.779,270" transform="translate(-357.572 -234.64)" fill="none" stroke="#472a1c" stroke-linecap="round" stroke-linejoin="round" stroke-width="0.478"/>
        </g>
      </g>
      <path id="Trazado_123119" data-name="Trazado 123119" d="M460.824,336.681c6.482,10.345,11.574,22.021,11.612,34.229s-5.85,24.956-16.721,30.509c-8.757,4.472-19.209,3.779-28.9,2.112-25.046-4.31-48.695-14.3-72.35-23.589-8.381-3.29-17.368-6.558-26.188-4.755,5.39-5.444,13.645-6.624,21.279-7.267,27.842-2.35,55.842-1.49,83.768-.627a63.833,63.833,0,0,1-5.333-47.921c2.459-8.506,7.366-16.675,14.565-8.581C449.337,318.418,455.406,328.034,460.824,336.681Z" transform="translate(-188.336 -163.673)" fill="#ae4e3e"/>
      <path id="Trazado_123120" data-name="Trazado 123120" d="M393.17,325.221q-12.559,18.233-23.415,37.561c-2.395,4.262-4.758,8.652-5.663,13.456s-.144,10.165,3.116,13.809c4.081,4.561,10.835,5.371,16.954,5.536,28.421.772,56.475-5.784,84.152-12.3-2.984-4.18-7.194-6.042-11.782-8.353a198.863,198.863,0,0,0-52.8-17.836C403.528,344.011,400.368,336.148,393.17,325.221Z" transform="translate(-242.456 -152.266)" fill="#ae4e3e"/>
      <path id="Trazado_123121" data-name="Trazado 123121" d="M430.216,310.1l-30.689,52.512,45.01-2.046Z" transform="translate(-277.458 -161.982)" fill="#d2f3e8"/>
      <path id="Trazado_123122" data-name="Trazado 123122" d="M332.673,363.971s20.459,6.138,49.784-4.774c0,0-14.356-37.242-34.8-52.037C347.66,307.16,309.486,299.866,332.673,363.971Z" transform="translate(-93.305 -164.029)" fill="#d2f3e8"/>
      <path id="Trazado_123123" data-name="Trazado 123123" d="M420.044,344.975c-7.006,1.541-9.511,4.214-14.7,9.163" transform="translate(-262.513 -139.576)" fill="none" stroke="#240000" stroke-linecap="round" stroke-linejoin="round" stroke-width="0.83"/>
      <path id="Trazado_123124" data-name="Trazado 123124" d="M371.808,351.8a93.871,93.871,0,0,1,41.408,1.733c13.17,3.613,34.124,14.8,35.828,15.828" transform="translate(-236.44 -136.175)" fill="none" stroke="#240000" stroke-linecap="round" stroke-linejoin="round" stroke-width="0.83"/>
      <path id="Trazado_123125" data-name="Trazado 123125" d="M343.939,342.8a35.718,35.718,0,0,1,19.346,10.216" transform="translate(-104.91 -140.977)" fill="none" stroke="#240000" stroke-linecap="round" stroke-linejoin="round" stroke-width="0.83"/>
      <path id="Trazado_123126" data-name="Trazado 123126" d="M397.414,365.683l-9.457,1.159a12.13,12.13,0,0,1-12.645-7.3l-2.222-5.229Z" transform="translate(-186.915 -133.575)" fill="#d2f3e8"/>
      <path id="Trazado_123127" data-name="Trazado 123127" d="M347.728,315.222c29.791-3.993,60.234,2.733,87.933,14.4s53.067,28.144,78.251,44.549c19.934,12.985,29.686,29.095,49.864,41.695,14.845,9.27,19.863,30.345,12.986,46.44s-23.665,26.71-41.045,28.781-35.05-3.548-49.859-12.875-27.066-22.177-38.289-35.608a408.013,408.013,0,0,1-44.922-65.946c11.424,35.605,7.174,76.029-12.26,107.976H339.27c2.5-53.375,5.958-108.553,12.512-161.583" transform="translate(-313.752 -159.431)" fill="none"/>
      <path id="Trazado_123128" data-name="Trazado 123128" d="M537.578,415.911c19.6,10.8,21.835,33.769,12.178,50.375s-31.667,25.455-51.674,22.446c-25.948-3.9-44.991-24.084-61.72-42.978l-50.13-56.621c9.179,18.519,9.767,41.45,10.777,61.827.693,13.955,1.373,28.078-1.583,41.774H343.3c-1.263-28.165-1.591-54.477-2.854-82.643-.493-11-.976-22.129,1.366-32.921s7.828-21.384,17.25-28.025c10.772-7.591,25.414-9.079,38.67-6.673s25.452,8.3,37.267,14.394c26.733,13.786,52.993,29.241,73.593,50.27a19.17,19.17,0,0,0,5.574,4.474C520.982,414.671,531.086,412.334,537.578,415.911Z" transform="translate(-290.532 -141.863)" fill="#133d60"/>
      <path id="Trazado_123129" data-name="Trazado 123129" d="M558.475,470.293c-7.343,11.029-23.425,14.98-36.939,11.84s-24.693-12.027-33.68-21.944-16.3-21.081-25.38-30.921V482.7H397.762c-3.63-15.681-10.358-33.408-13.988-49.089-3.4-14.714-6.829-29.8-4.613-44.705s11.254-29.865,26.234-35.488c20.254-7.606,42.794,3.807,59.679,16.711a255.9,255.9,0,0,1,50.643,51.4C528.15,438.414,542.192,456.546,558.475,470.293Z" transform="translate(-356.792 -135.721)" fill="#133d60"/>
      <path id="Trazado_123130" data-name="Trazado 123130" d="M472.133,461.569a672.782,672.782,0,0,1-66.17-65.739c-7.038-8.034-13.477-15.648-22.862-20.75" transform="translate(-278.079 -120.238)" fill="none" stroke="#240000" stroke-linecap="round" stroke-linejoin="round" stroke-width="0.83"/>
      <line id="Línea_160" data-name="Línea 160" y2="38.87" transform="translate(104.521 237.4)" fill="none" stroke="#240000" stroke-linecap="round" stroke-linejoin="round" stroke-width="0.83"/>
      <path id="Trazado_123131" data-name="Trazado 123131" d="M453.254,415.873c-1.309,3.881-6.123,5.773-10.1,4.812s-7.111-4.116-9.228-7.622-3.426-7.432-5.187-11.132a49.919,49.919,0,0,0-5.779-9.337c-2.477-3.16-6.07-6.272-10.01-5.5l-.187-12.323a92.273,92.273,0,0,1,21.535,18.953C440.527,401.158,448.562,409.89,453.254,415.873Z" transform="translate(-307.906 -120.438)" fill="#7fabd5"/>
      <path id="Trazado_123132" data-name="Trazado 123132" d="M487.438,350.754a655.463,655.463,0,0,0-4,85.98c-8.089-13.484-11.513-32.583-9.03-48.108-4.229-1.046-6.243-5.763-7.645-9.889-2.071-6.1-4.081-13.075-.948-18.7a17.765,17.765,0,0,1,4.608-5.073C474.9,351.39,481.846,352,487.438,350.754Z" transform="translate(-426.561 -135.864)" fill="#7fabd5"/>
      <path id="Trazado_123133" data-name="Trazado 123133" d="M493.9,396.382c5.589,10.907,11.329,22.473,10.677,34.712s-10.335,24.9-22.566,24.123c-6.5-.414-12.173-4.36-17.337-8.324a312.58,312.58,0,0,1-36.856-33.248c-17.787-18.813-33.437-40.021-54.356-55.276-3.6-2.625-7.46-5.109-11.822-6.011a18.055,18.055,0,0,0-11.506,1.46V483.753" transform="translate(-256.423 -135.067)" fill="none" stroke="#efdece" stroke-linecap="round" stroke-linejoin="round" stroke-width="2.076"/>
      <path id="Trazado_123134" data-name="Trazado 123134" d="M356.813,360.109c-2.255,1.611-4.278-2.354-4.272-5.126q.059-20.573.117-41.146" transform="translate(-112.566 -159.578)" fill="none" stroke="#f2e9e2" stroke-miterlimit="10" stroke-width="0.415"/>
      <path id="Trazado_123135" data-name="Trazado 123135" d="M367.3,347.1c-7.819-9.289-11.47-21.967-12-34.1" transform="translate(-127.589 -160.114)" fill="none" stroke="#f2e9e2" stroke-miterlimit="10" stroke-width="0.415"/>
      <path id="Trazado_123136" data-name="Trazado 123136" d="M399.782,355.561a117.251,117.251,0,0,1,5.8-38.211" transform="translate(-238.896 -157.322)" fill="none" stroke="#f2e9e2" stroke-miterlimit="10" stroke-width="0.415"/>
      <path id="Trazado_123137" data-name="Trazado 123137" d="M406.974,342.95c-4.738-7.065-4.178-16.509-1.521-24.591" transform="translate(-246.302 -156.674)" fill="none" stroke="#f2e9e2" stroke-miterlimit="10" stroke-width="0.415"/>
      <g id="Grupo_131092" data-name="Grupo 131092" transform="translate(177.312 228.647)">
        <path id="Trazado_123138" data-name="Trazado 123138" d="M414.43,368.784c.994.887.9,2.442.708,3.759-1.343,9.13-4.916,28.765-14.438,33.582-10.03-15.469-25.077-34.1-41.6-42.281C377.032,357.512,400.235,356.129,414.43,368.784Z" transform="translate(-359.101 -359.13)" fill="#fff"/>
        <path id="Trazado_123139" data-name="Trazado 123139" d="M371.607,382.63A21.8,21.8,0,0,1,379.1,396.1a9.455,9.455,0,0,1-.348,4.873,4.523,4.523,0,0,1-3.653,2.94c-2.615.177-4.467-2.442-5.642-4.786a166.55,166.55,0,0,1-7.539-18.67" transform="translate(-327.713 -345.429)" fill="#fff"/>
      </g>
      <path id="Trazado_123140" data-name="Trazado 123140" d="M499.025,368.491a45.016,45.016,0,0,0-17.171-25.265c2.629-2.744,4.05-6.4,5.367-9.964,2.3-6.226,3.971-14.433-1.286-18.483A7.972,7.972,0,0,0,473.3,322.9c-15.118-7.576-32.685-8.008-49.593-8.287-8.365-.138-17.91.23-23.317,6.615-4.177-6.067-9.506-12.055-16.1-15.341s-15.957-2.268-19.6,4.135c-3.324,5.849-.346,13.771,5.126,17.682s12.65,4.559,19.349,3.955c-.435,7.967,4.889,15.038,10.485,20.723A121.6,121.6,0,0,0,425.9,372.61C449.883,365.566,474.085,366.864,499.025,368.491Z" transform="translate(-272.448 -165.862)" fill="#fff"/>
      <path id="Trazado_123141" data-name="Trazado 123141" d="M438.9,349.9a80.372,80.372,0,0,1-69.673-18.817" transform="translate(-222.063 -148.497)" fill="none" stroke="#f2e9e2" stroke-miterlimit="10" stroke-width="0.415"/>
      <path id="Trazado_123142" data-name="Trazado 123142" d="M432.676,347.877a57.667,57.667,0,0,1-66.293-14.491" transform="translate(-211.162 -147.021)" fill="none" stroke="#240000" stroke-linecap="round" stroke-linejoin="round" stroke-width="0.83"/>
    </g>
  </g>
</svg>
