<svg xmlns="http://www.w3.org/2000/svg" xmlns:xlink="http://www.w3.org/1999/xlink" width="127" height="112" viewBox="0 0 127 112">
  <defs>
    <clipPath id="clip-path">
      <rect id="Rectángulo_35877" data-name="Rectángulo 35877" width="127" height="112" transform="translate(893.999 7677)" fill="#fff" stroke="#707070" stroke-width="1"/>
    </clipPath>
  </defs>
  <g id="icon3" transform="translate(-893.999 -7677)" clip-path="url(#clip-path)">
    <g id="zu2Q2r" transform="translate(-905.329 5764.059)">
      <g id="Grupo_133650" data-name="Grupo 133650" transform="translate(1804.537 1922.559)">
        <path id="Trazado_126694" data-name="Trazado 126694" d="M1913.446,1980.117c1.577,1.325,1.773,2.982,1.044,4.96-3.407,9.242-9.722,15.4-19.168,18.31a5.2,5.2,0,0,0-1.593.9,80.071,80.071,0,0,1-22.222,12.672c-1.928.689-3.921,1.2-5.9,1.741-2.871.781-5.612.006-8.33-.816-9.106-2.755-17.125-7.525-24.628-13.265a10.045,10.045,0,0,0-2.832-1.488c-9.324-3.174-15.418-9.519-18.561-18.78a3.669,3.669,0,0,1,1.242-4.22c-1.2-3.705-2.365-7.307-3.544-10.9a3.309,3.309,0,0,0-.463-.8,16.079,16.079,0,0,1-3.137-7.53c-.143-1.372-.813-2.714-.816-4.071a31.414,31.414,0,0,1,.6-6.891c.42-1.878,1.139-3.682,1.458-5.626a4.792,4.792,0,0,1,3.35-3.729,2.948,2.948,0,0,0,1.746-1.657c3.9-7.38,9.578-12.872,17.718-15.11,12.385-3.4,22.9.21,31.69,9.353.161.168.308.349.463.524,1.139,1.292,1.728,1.283,2.884-.037a30.743,30.743,0,0,1,20.337-10.838c12.257-1.319,21.52,3.689,28.2,13.843a7.5,7.5,0,0,1,.648,1.1,5.916,5.916,0,0,0,3.15,3.243c2.057.941,2.873,2.918,2.917,5.188a3.485,3.485,0,0,0,.348,1.511,8.308,8.308,0,0,1,1,4.7,12.409,12.409,0,0,0,.129,1.364,23.285,23.285,0,0,1,.032,4.831c-.684,3.608-1.511,7.212-3.946,10.173a4.015,4.015,0,0,0-.48,1.293C1915.678,1973.375,1914.584,1976.68,1913.446,1980.117Zm4.581-29.975a6.827,6.827,0,0,0-.537.434,22.441,22.441,0,0,1-7.325,4.625,1.394,1.394,0,1,1-1.223-2.5,17.032,17.032,0,0,0,1.675-.8,58.482,58.482,0,0,0,5.269-3.745,2.82,2.82,0,0,0,.259-4.162c-1.044-1.246-2.257-1.314-3.915-.265a39.783,39.783,0,0,1-9.892,4.82c-3.249.962-5.508-.133-6.837-3.247a11.861,11.861,0,0,1-.625-1.869,28.3,28.3,0,0,1-.608-8.9,5.893,5.893,0,0,0-.248-2.273,2.727,2.727,0,0,0-2.944-1.8,2.485,2.485,0,0,0-2.271,2.143c-1.621,6.934-2.968,13.938-5.535,20.623-4.035,10.507-10.674,18.852-20.511,24.424a62.52,62.52,0,0,1-31.2,7.905,37.861,37.861,0,0,1-15.869-3.019,4.579,4.579,0,0,0-1.5-.123,4.383,4.383,0,0,0-.075,1.593c3.206,8.957,9.427,14.66,18.639,17.035,7.956,2.052,15.926,1.48,23.861-.133a103.316,103.316,0,0,0,35.025-14.455c7.148-4.544,14.061-9.395,19.991-15.5,1.415-1.455,2.672-3.063,4.042-4.648-.244-.109-.286-.146-.314-.138-1.7.5-2.391.393-2.672-.511-.427-1.375.673-1.665,1.57-2.137a8.258,8.258,0,0,0,4.432-6.275,10.934,10.934,0,0,1-1.022.875c-1.571.981-3.137,1.973-4.741,2.9a1.335,1.335,0,0,1-2.067-.563c-.437-.923.032-1.553.886-1.949a4.262,4.262,0,0,0,.74-.333,45.071,45.071,0,0,0,4.6-3.475A4.135,4.135,0,0,0,1918.027,1950.142Zm-103.993-9.677a38.019,38.019,0,0,0,10.421,5.42c1.841.489,2.64.122,3.413-1.6a8.244,8.244,0,0,0,.45-1.315,24.26,24.26,0,0,0,.546-8.544,5.943,5.943,0,0,1,4.767-6.7c3.175-.5,5.526,1.281,6.362,4.674,1.426,5.789,2.683,11.633,4.438,17.323a43.7,43.7,0,0,0,17.43,23.858,1.642,1.642,0,0,0,2.217.04,43.839,43.839,0,0,0,17.474-23.966c1.768-5.766,3.027-11.689,4.476-17.551a5.4,5.4,0,0,1,3.846-4.259c3.865-1.14,7.563,2.169,7.259,6.429a23.1,23.1,0,0,0-.109,4.292,30.975,30.975,0,0,0,1.2,5.885c.521,1.614,1.49,1.936,3.139,1.459a40.189,40.189,0,0,0,10.716-5.407c-1-1.532-1.865-3.09-2.943-4.484-6.072-7.845-14.023-11.54-23.965-10.439a28.355,28.355,0,0,0-18.868,10.192c-1.961,2.28-4.614,2.258-6.615.039-.959-1.065-1.937-2.123-2.993-3.089-9.072-8.3-22.578-9.728-32.638-3.435A27.84,27.84,0,0,0,1814.034,1940.465Zm-3.82,25.559c.693.917,1.159,1.584,1.676,2.207,4.66,5.6,10.389,9.975,16.3,14.138a2.373,2.373,0,0,0,1.2.312,59.539,59.539,0,0,0,24.934-4.076c1.993-.777,3.921-1.724,5.733-2.528-2.707-2.488-5.447-4.728-7.862-7.277-6.27-6.621-9.744-14.743-12-23.439-1.1-4.234-2.008-8.518-3.025-12.775a2.485,2.485,0,0,0-2.756-2.121c-1.786.118-2.906,1.676-2.773,3.751a36.078,36.078,0,0,1,.125,4.413c-.163,2.83-.421,5.669-2.087,8.115a4.559,4.559,0,0,1-5.16,2.011,36.588,36.588,0,0,1-10.888-5.11c-1.526-.962-2.714-.886-3.739.279a2.9,2.9,0,0,0-.041,4.013,6.917,6.917,0,0,0,1.5,1.446c1.8,1.12,3.643,2.178,5.5,3.207.834.463,1.3,1.075.892,1.973s-1.188.975-2.067.589a22.563,22.563,0,0,1-7.3-4.671,1.881,1.881,0,0,0-.474-.252,4.608,4.608,0,0,0,1.618,5.188,40.2,40.2,0,0,0,4.841,3.142c.73.445,1.131,1,.809,1.813a1.27,1.27,0,0,1-1.908.733c-1.659-.9-3.258-1.919-4.868-2.91a11.919,11.919,0,0,1-1.115-.922,8.336,8.336,0,0,0,4.966,6.5c.843.379,1.4.939,1,1.9a1.353,1.353,0,0,1-2.022.7C1811.009,1966.29,1810.791,1966.228,1810.214,1966.025Zm27.755,38.844c.107.18.131.267.187.307a69.708,69.708,0,0,0,19.815,10c2.209.667,4.425,1.389,6.829.837,8.406-1.933,15.834-5.918,22.864-10.762a2.647,2.647,0,0,0,.357-.4c-.8.058-1.49.123-2.178.156a73.136,73.136,0,0,1-21.74-2.429,4.438,4.438,0,0,0-2.133-.034A71.447,71.447,0,0,1,1837.969,2004.868Zm30.4-4.136c7.78,1.583,15.3,2.293,22.885.775,10.064-2.012,17.058-7.693,20.584-17.429a1.11,1.11,0,1,0-1.611-1.523,33.487,33.487,0,0,1-9.946,2.644,7.393,7.393,0,0,0-3.53,1.257,117.109,117.109,0,0,1-21.5,11.66C1873.071,1998.986,1870.86,1999.789,1868.372,2000.732Zm-54.636-26.18-.193.131c.594,1.459,1.18,2.922,1.793,4.372a.943.943,0,0,0,.457.487c2.075.794,4.159,1.562,6.242,2.337l.088-.239Zm90.11,7.092.078.217c1.733-.629,3.47-1.251,5.2-1.895.466-.173,1.144-.294,1.319-.643.76-1.518,1.371-3.111,2.035-4.678l-.234-.092Z" transform="translate(-1804.537 -1922.559)" fill="#5bd3a9"/>
      </g>
    </g>
  </g>
</svg>
