<svg xmlns="http://www.w3.org/2000/svg" width="58.461" height="60" viewBox="0 0 58.461 60">
  <g id="icon8" transform="translate(5516 7253)">
    <ellipse id="Elipse_4918" data-name="Elipse 4918" cx="29.231" cy="30" rx="29.231" ry="30" transform="translate(-5516 -7253)" fill="#d2f3e8"/>
    <g id="xxo131" transform="translate(-10775.773 -7293.282)">
      <g id="Grupo_133632" data-name="Grupo 133632" transform="translate(5269.774 50.282)">
        <path id="Trazado_126604" data-name="Trazado 126604" d="M5301.793,163.521h4.029v-1.273c0-.4-.006-.808,0-1.211.008-.435.229-.681.58-.671s.534.242.537.666c0,.817,0,1.634,0,2.471h9.765v-2.25c0-.634.163-.889.563-.887s.56.258.561.893v2.247h3.982c.018-.033.042-.056.041-.079q-.025-2.339-.059-4.678a2.22,2.22,0,0,0-.063-.356.585.585,0,0,1,.428-.749.568.568,0,0,1,.669.538,9.335,9.335,0,0,1,.147,1.361c.018,1.453.009,2.906.006,4.36,0,.572-.183.752-.747.752H5301.41c-.524,0-.725-.163-.727-.642-.007-1.588-.053-3.178.018-4.762a6.055,6.055,0,0,1,6.131-5.871c3.27-.026,6.539-.006,9.808,0a1.4,1.4,0,0,1,.32.03.546.546,0,0,1-.048,1.073,3.438,3.438,0,0,1-.444.013q-4.8,0-9.606,0a5.006,5.006,0,0,0-4.965,4.03,4.277,4.277,0,0,0-.1.84C5301.789,160.732,5301.793,162.1,5301.793,163.521Z" transform="translate(-5292.34 -125.59)" fill="#133d60"/>
        <path id="Trazado_126605" data-name="Trazado 126605" d="M5330.623,60.449a.569.569,0,0,1-.9.487c-.765-.39-1.533-.778-2.276-1.207a.889.889,0,0,0-1.023-.011c-.728.429-1.492.8-2.239,1.192-.253.133-.546.235-.739,0a.983.983,0,0,1-.174-.684c.127-.931.311-1.854.45-2.783a.6.6,0,0,0-.147-.445c-.642-.651-1.3-1.281-1.959-1.918-.206-.2-.414-.4-.312-.729s.379-.389.665-.43c.837-.119,1.674-.25,2.514-.346a.787.787,0,0,0,.719-.514c.336-.76.727-1.5,1.091-2.245.134-.276.283-.537.636-.532s.494.273.627.547c.388.8.771,1.6,1.183,2.38a.648.648,0,0,0,.4.3c.846.148,1.7.261,2.549.386a.853.853,0,0,1,.314.056c.191.12.451.241.515.421a.727.727,0,0,1-.2.594c-.643.667-1.314,1.308-1.987,1.946a.593.593,0,0,0-.212.626c.183.908.32,1.825.475,2.738C5330.606,60.344,5330.616,60.41,5330.623,60.449Zm-7.488-5.56c.465.491.89.993,1.372,1.433a1.078,1.078,0,0,1,.36,1.145c-.137.625-.219,1.263-.342,2,.606-.319,1.145-.559,1.635-.873a1.263,1.263,0,0,1,1.521,0c.489.314,1.026.553,1.6.854-.016-.2-.015-.322-.034-.438-.087-.517-.161-1.036-.276-1.547a1.011,1.011,0,0,1,.34-1.112c.441-.372.835-.8,1.248-1.2a3.084,3.084,0,0,0,.2-.257c-.726-.1-1.389-.208-2.055-.283a.951.951,0,0,1-.85-.622c-.271-.621-.595-1.218-.934-1.9-.357.723-.683,1.365-.993,2.014a.76.76,0,0,1-.64.476C5324.566,54.663,5323.851,54.782,5323.134,54.89Z" transform="translate(-5307.397 -50.282)" fill="#133d60"/>
        <path id="Trazado_126606" data-name="Trazado 126606" d="M5374.728,78.618c.169-1,.319-1.972.5-2.935a.534.534,0,0,0-.191-.556c-.652-.622-1.291-1.258-1.938-1.885-.211-.2-.4-.414-.282-.736s.392-.362.685-.4c.919-.125,1.838-.255,2.752-.411a.611.611,0,0,0,.359-.307c.412-.8.8-1.61,1.2-2.419.13-.264.274-.5.617-.5s.481.24.611.5c.395.809.781,1.622,1.2,2.417a.7.7,0,0,0,.443.309c.927.158,1.863.265,2.788.432a.784.784,0,0,1,.534.391.761.761,0,0,1-.187.629c-.64.671-1.312,1.313-1.984,1.952a.6.6,0,0,0-.21.628c.182.909.339,1.824.462,2.742a.571.571,0,0,1-.87.633c-.812-.39-1.605-.814-2.392-1.253a.731.731,0,0,0-.811.005c-.784.441-1.585.854-2.387,1.263C5375.136,79.376,5374.694,79.1,5374.728,78.618Zm7.486-5.549c-.548-.078-1.1-.194-1.661-.228a1.331,1.331,0,0,1-1.329-.941,16.663,16.663,0,0,0-.8-1.633c-.355.72-.677,1.352-.98,1.993a.821.821,0,0,1-.708.507c-.709.085-1.411.207-2.068.306.47.5.905,1.015,1.393,1.473a1.01,1.01,0,0,1,.324,1.043c-.134.654-.23,1.316-.357,2.064.625-.329,1.2-.591,1.724-.918a1.146,1.146,0,0,1,1.342-.007c.529.327,1.1.588,1.732.919-.127-.737-.224-1.385-.354-2.027a1.036,1.036,0,0,1,.332-1.079C5381.3,74.09,5381.732,73.578,5382.214,73.069Z" transform="translate(-5345.027 -63.57)" fill="#133d60"/>
        <path id="Trazado_126607" data-name="Trazado 126607" d="M5278.482,79.233c-.073-.031-.224-.082-.364-.155-.811-.421-1.613-.859-2.432-1.262a.7.7,0,0,0-.54,0c-.831.409-1.638.868-2.474,1.268a.966.966,0,0,1-.706.029c-.28-.116-.27-.414-.217-.7.165-.9.3-1.8.468-2.7a.536.536,0,0,0-.173-.564c-.645-.61-1.273-1.237-1.908-1.858-.212-.207-.451-.4-.331-.757s.408-.381.711-.423c.905-.124,1.81-.252,2.71-.406a.6.6,0,0,0,.369-.294c.42-.811.819-1.633,1.219-2.454.124-.254.267-.47.586-.477.342-.008.493.22.623.486.395.809.8,1.613,1.187,2.425a.537.537,0,0,0,.482.339c.92.115,1.84.24,2.751.409a.841.841,0,0,1,.563.413.759.759,0,0,1-.208.626c-.651.679-1.334,1.327-2.015,1.978a.5.5,0,0,0-.174.524c.18.923.326,1.852.483,2.78C5279.17,78.917,5278.959,79.227,5278.482,79.233Zm-6.84-6.15c.444.474.854.974,1.331,1.4a1.125,1.125,0,0,1,.385,1.214c-.14.619-.219,1.253-.337,1.959.426-.223.766-.407,1.111-.58,1.584-.793.969-.809,2.576,0,.347.175.692.356,1.1.567-.122-.727-.2-1.367-.345-1.994a1.071,1.071,0,0,1,.367-1.142c.481-.442.908-.943,1.367-1.429-.661-.1-1.345-.223-2.034-.3a.891.891,0,0,1-.8-.57c-.288-.629-.609-1.242-.954-1.939-.351.706-.674,1.333-.973,1.973a.843.843,0,0,1-.735.531C5273.007,72.859,5272.31,72.982,5271.643,73.083Z" transform="translate(-5269.773 -63.577)" fill="#133d60"/>
        <path id="Trazado_126608" data-name="Trazado 126608" d="M5332.072,107.943a5.852,5.852,0,1,1-5.828-5.876A5.855,5.855,0,0,1,5332.072,107.943Zm-1.122-.013a4.729,4.729,0,1,0-4.756,4.72A4.729,4.729,0,0,0,5330.95,107.93Z" transform="translate(-5306.737 -88.114)" fill="#133d60"/>
        <path id="Trazado_126609" data-name="Trazado 126609" d="M5372.288,158.219c0,.436-.434.747-.758.534a6.293,6.293,0,0,1-1.134-.952.654.654,0,0,1,.035-.61c.091-.134.44-.262.54-.194a13.445,13.445,0,0,1,1.263,1.034C5372.284,158.075,5372.278,158.181,5372.288,158.219Z" transform="translate(-5343.24 -128.23)" fill="#133d60"/>
      </g>
    </g>
  </g>
</svg>
