<svg xmlns="http://www.w3.org/2000/svg" xmlns:xlink="http://www.w3.org/1999/xlink" width="165" height="130" viewBox="0 0 165 130">
  <defs>
    <clipPath id="clip-path">
      <rect id="Rectángulo_35891" data-name="Rectángulo 35891" width="165" height="130" transform="translate(8574 -7801)" fill="#fff" stroke="#707070" stroke-width="1"/>
    </clipPath>
  </defs>
  <g id="icon2-6" transform="translate(-8574 7801)" clip-path="url(#clip-path)">
    <g id="Grupo_133680" data-name="Grupo 133680" transform="translate(-12.521 -6.099)">
      <g id="Grupo_78348" data-name="Grupo 78348" transform="translate(8611.521 -7775.901)">
        <path id="Trazado_113319" data-name="Trazado 113319" d="M1572.434,1085.285h-8.783v-6.015H1587.1v6.015h-14.661Z" transform="translate(-1573.651 -1070.555)" fill="#5bd3a9"/>
      </g>
      <g id="WEk4HE" transform="translate(6149.09 -8039.198)">
        <g id="Grupo_133679" data-name="Grupo 133679" transform="translate(2476.512 247.761)">
          <path id="Trazado_126829" data-name="Trazado 126829" d="M2487.595,269.882c-2.375.549-4.547,1.036-6.711,1.556-1.7.41-2.211,1.686-1.238,3.161q3.463,5.249,6.975,10.465c.792,1.18,1.786,1.481,2.719.883.964-.619,1.085-1.713.282-2.927-1.671-2.533-3.362-5.053-5.039-7.582-.187-.28-.334-.588-.548-.968,2.327-.546,4.539-1.041,6.738-1.589,1.6-.4,2.114-1.634,1.2-3q-4.989-7.471-10.047-14.9a1.823,1.823,0,0,0-2.595-.625,1.773,1.773,0,0,0-.424,2.626c.638,1.012,1.331,1.992,2,2.985Zm14.279-7.977c1.658-.1,3.164-.16,4.665-.278a1.751,1.751,0,0,0,1.691-2.5c-1.2-2.914-2.481-5.795-3.787-8.664a1.707,1.707,0,0,0-2.406-.88,1.781,1.781,0,0,0-.844,2.443c.661,1.626,1.392,3.224,2.087,4.836.164.38.3.769.582,1.473-1.745,0-3.221-.077-4.686.022-1.42.095-2.223,1.166-1.736,2.37,1.3,3.216,2.682,6.4,4.1,9.568a1.652,1.652,0,0,0,2.255.8,1.774,1.774,0,0,0,1.009-2.28c-.23-.679-.554-1.324-.837-1.985Zm29.679,77.554a16.527,16.527,0,0,0-11.507,4.574c-1,.935-1.108,2.033-.345,2.836s1.726.776,2.76-.1c.214-.179.41-.381.625-.559a13.1,13.1,0,0,1,17.474.521c1.029.955,2.079.949,2.84.085a1.9,1.9,0,0,0-.356-2.753A16.526,16.526,0,0,0,2531.552,339.458Zm13.169-13.66c1.594-1.532,3.059-2.876,4.443-4.3a1.726,1.726,0,0,0,.01-2.57,1.793,1.793,0,0,0-2.579.031c-2.169,2.117-4.326,4.249-6.425,6.436a1.782,1.782,0,0,0,.782,3.058c3.144,1.021,6.307,1.983,9.476,2.921a1.743,1.743,0,0,0,2.282-1.01,1.788,1.788,0,0,0-1.313-2.5C2549.284,327.178,2547.151,326.547,2544.721,325.8Zm-26.8-.064a3.2,3.2,0,0,1-.373.217c-1.976.621-3.954,1.236-5.931,1.858-1.321.415-1.925,1.295-1.625,2.353s1.326,1.534,2.623,1.142c2.976-.9,5.948-1.808,8.911-2.749,1.862-.59,2.219-2.043.845-3.447-1.956-2-3.939-3.967-5.929-5.929-.971-.958-2.069-1.023-2.842-.224-.79.817-.7,1.83.3,2.833C2515.19,323.088,2516.514,324.358,2517.919,325.734Z" transform="translate(-2476.402 -247.673)" fill="#fff"/>
          <path id="Trazado_126830" data-name="Trazado 126830" d="M2581.083,247.761a14.819,14.819,0,0,1,3.117,2.264c1.518,1.858,1.414,3.983.24,6.052q-4.286,7.558-8.572,15.117c-.214.379-.409.768-.754,1.419.953,0,1.719-.005,2.487,0,1.319.009,2.641-.027,3.958.052a4.36,4.36,0,0,1,4.01,3.084,4.309,4.309,0,0,1-1.395,4.873c-2.451,2.054-4.965,4.033-7.454,6.041-2.086,1.682-4.189,3.341-6.247,5.057a1.434,1.434,0,0,0-.525,1.125,46.946,46.946,0,0,1,1.745,14.82,4.711,4.711,0,0,0,.052.531c.95.16,1.894.272,2.815.482a14.312,14.312,0,0,1-1.269,28.146c-2.1.285-2.026.3-2.581,2.429-.542,2.081-1.213,4.134-1.9,6.173a1.838,1.838,0,1,1-3.4-1.245,40.43,40.43,0,0,0,2.637-15.852c-.065-4.959-.014-9.919-.014-14.877v-1.628c-2.081,0-4.034.089-5.978-.015-13.015-.689-25.713-2.877-37.735-8.158a56.371,56.371,0,0,1-13.388-8.129c-.323.835-.572,1.6-.909,2.332a26.483,26.483,0,0,1-13.584,13.11,1.708,1.708,0,0,0-1.23,1.833c.1,6.837-.25,13.7.255,20.5.979,13.192,7.553,23.136,19.167,29.367,16.536,8.872,36.436,3.792,47.126-11.676a4.776,4.776,0,0,1,.82-1.022,1.647,1.647,0,0,1,2.3.019,1.685,1.685,0,0,1,.267,2.473,54.853,54.853,0,0,1-4.978,6.13c-11.411,11.05-24.96,14.847-40.15,10.189-15.207-4.662-24.376-15.348-27.73-30.941-.042-.2-.087-.389-.144-.58a.8.8,0,0,0-.133-.194c-10.139.238-15.613-7.717-15.489-14.617.127-7.019,5.513-14.126,15.078-14.228,0-.663.013-1.33,0-2a40.212,40.212,0,0,1,6.136-22.924c.554-.877,1.151-1.73,1.765-2.568.858-1.172,1.948-1.448,2.847-.759.928.711.962,1.71.051,2.949a36.358,36.358,0,0,0-6.115,13.037,42.384,42.384,0,0,0-1.018,11.325c.146.013.283.069.369.024,5.424-2.763,9.683-6.62,11.619-12.584.316-.972.224-2.077.54-3.049a2.781,2.781,0,0,1,1.261-1.651,2.17,2.17,0,0,1,1.888.5c5.511,5.55,12.273,9.01,19.492,11.658,11.414,4.187,23.295,5.792,35.387,6.128.673.019,1.349,0,2.017,0,.655-2.366-.1-10.69-1.249-13.474l-7.563,6.081c-1.09.876-2.161,1.78-3.277,2.623a4.428,4.428,0,0,1-6.932-5.067c1.556-4.233,3.166-8.448,4.753-12.671.152-.4.3-.806.506-1.372-1.875,0-3.583.006-5.291,0-4.035-.017-6.089-3.268-4.35-6.894.913-1.9,1.847-3.8,2.924-6-2.546-.822-4.946-1.82-7.445-2.366-11.612-2.539-22.1-.058-31.419,7.343a3.894,3.894,0,0,1-1.2.75,1.643,1.643,0,0,1-2.053-.806,1.668,1.668,0,0,1,.473-2.347,65.519,65.519,0,0,1,7.564-5.033c11.411-5.78,23.059-6.062,34.821-1,.219.095.441.185.757.316.2-.389.4-.766.592-1.15,2.431-4.99,4.914-9.955,7.264-14.984.973-2.082,2.211-3.757,4.465-4.5Zm-9.986,3.629c-2.759,0-5.518.019-8.278-.009a2.268,2.268,0,0,0-2.289,1.389q-6.379,13.151-12.781,26.29c-.6,1.237-.313,1.7,1.061,1.706,2.4.019,4.8,0,7.2.009,2.28.013,2.971,1.013,2.174,3.132-1.927,5.118-3.873,10.23-5.763,15.361a4.025,4.025,0,0,0,.073,1.5,3.985,3.985,0,0,0,1.362-.414q13.812-11.057,27.567-22.183c.339-.275.441-.846.654-1.279-.427-.207-.85-.584-1.281-.593-2.678-.056-5.359-.025-8.038-.03-2.517,0-3.246-1.248-2.008-3.435q5.194-9.178,10.4-18.353c1.02-1.805.29-3.079-1.768-3.09C2576.617,251.379,2573.857,251.39,2571.1,251.39Zm-79.571,60.581a10.685,10.685,0,1,0-.006,21.331V321.718a3.727,3.727,0,0,0-3.666,1.991,1.76,1.76,0,0,1-2.506.9,1.856,1.856,0,0,1-.668-2.688,6.294,6.294,0,0,1,3.75-3.335,29.665,29.665,0,0,1,3.1-.661ZM2571.7,333.3a10.67,10.67,0,0,0,8.358-16.865,10.1,10.1,0,0,0-8.3-4.438v6.031c.418.036.772.055,1.123.1a6.761,6.761,0,0,1,5.7,3.823,2.1,2.1,0,0,1,.187,1.575,2.691,2.691,0,0,1-1.436,1.227,1.611,1.611,0,0,1-1.933-1.047,3.523,3.523,0,0,0-3.7-1.945Z" transform="translate(-2476.512 -247.761)" fill="#fff"/>
          <path id="Trazado_126831" data-name="Trazado 126831" d="M2487.595,269.641l-6.685-9.909c-.669-.993-1.362-1.973-2-2.985a1.773,1.773,0,0,1,.424-2.626,1.823,1.823,0,0,1,2.595.625q5.049,7.432,10.047,14.9c.911,1.364.4,2.6-1.2,3-2.2.548-4.411,1.043-6.738,1.589.214.38.362.687.548.968,1.677,2.53,3.368,5.049,5.039,7.582.8,1.214.681,2.308-.282,2.927-.933.6-1.927.3-2.719-.883q-3.5-5.221-6.975-10.465c-.973-1.475-.464-2.751,1.238-3.161C2483.048,270.677,2485.219,270.19,2487.595,269.641Z" transform="translate(-2476.402 -247.432)" fill="#fff"/>
          <path id="Trazado_126832" data-name="Trazado 126832" d="M2500.905,261.9l2.1,4.924c.282.661.607,1.306.837,1.985a1.774,1.774,0,0,1-1.009,2.28,1.652,1.652,0,0,1-2.255-.8c-1.42-3.166-2.8-6.353-4.1-9.568-.487-1.2.315-2.275,1.736-2.37,1.464-.1,2.94-.022,4.685-.022-.277-.7-.418-1.093-.582-1.473-.695-1.612-1.426-3.211-2.087-4.836a1.781,1.781,0,0,1,.844-2.443,1.707,1.707,0,0,1,2.406.88c1.305,2.869,2.589,5.75,3.786,8.664a1.751,1.751,0,0,1-1.691,2.5C2504.069,261.744,2502.563,261.808,2500.905,261.9Z" transform="translate(-2475.434 -247.673)" fill="#fff"/>
          <path id="Trazado_126833" data-name="Trazado 126833" d="M2529.453,334.812a16.527,16.527,0,0,1,11.493,4.609,1.9,1.9,0,0,1,.356,2.753c-.761.864-1.812.87-2.841-.085a13.1,13.1,0,0,0-17.474-.521c-.215.178-.411.38-.625.559-1.035.872-1.993.9-2.761.1s-.653-1.9.345-2.836A16.526,16.526,0,0,1,2529.453,334.812Z" transform="translate(-2474.304 -243.027)" fill="#fff"/>
          <path id="Trazado_126834" data-name="Trazado 126834" d="M2541.572,322.239c2.429.749,4.563,1.379,6.676,2.07a1.789,1.789,0,0,1,1.313,2.5,1.743,1.743,0,0,1-2.282,1.01c-3.169-.937-6.332-1.9-9.476-2.921a1.782,1.782,0,0,1-.782-3.058c2.1-2.187,4.257-4.319,6.425-6.436a1.793,1.793,0,0,1,2.579-.031,1.726,1.726,0,0,1-.011,2.57C2544.63,319.362,2543.165,320.707,2541.572,322.239Z" transform="translate(-2473.253 -244.113)" fill="#fff"/>
          <path id="Trazado_126835" data-name="Trazado 126835" d="M2516.3,322.174c-1.406-1.376-2.729-2.646-4.024-3.944-1-1-1.088-2.016-.3-2.833.774-.8,1.872-.735,2.842.224,1.99,1.962,3.973,3.932,5.929,5.929,1.374,1.4,1.018,2.856-.845,3.447-2.962.941-5.935,1.849-8.91,2.749-1.3.392-2.321-.077-2.623-1.142s.3-1.938,1.625-2.353c1.977-.622,3.955-1.237,5.931-1.858A3.2,3.2,0,0,0,2516.3,322.174Z" transform="translate(-2474.783 -244.113)" fill="#fff"/>
        </g>
      </g>
    </g>
  </g>
</svg>
