<svg xmlns="http://www.w3.org/2000/svg" xmlns:xlink="http://www.w3.org/1999/xlink" width="165" height="130" viewBox="0 0 165 130">
  <defs>
    <clipPath id="clip-path">
      <rect id="Rectángulo_35882" data-name="Rectángulo 35882" width="165" height="130" transform="translate(6440 -8625)" fill="#fff" stroke="#707070" stroke-width="1"/>
    </clipPath>
  </defs>
  <g id="icon1-4" transform="translate(-6440 8625)" clip-path="url(#clip-path)">
    <g id="Grupo_133663" data-name="Grupo 133663" transform="translate(3.479 3.926)">
      <g id="Grupo_78348" data-name="Grupo 78348" transform="translate(6454.521 -8608.951)">
        <path id="Trazado_113319" data-name="Trazado 113319" d="M1572.434,1094v-8.714h-8.783v-6.015h8.783v-8.714h5.855v8.714h8.806v6.015h-8.806V1094Z" transform="translate(-1563.651 -1070.555)" fill="#ffb840"/>
      </g>
      <g id="wLn0xj" transform="translate(4285.765 -10535.712)">
        <g id="Grupo_133662" data-name="Grupo 133662" transform="translate(2188.622 1914.572)">
          <path id="Trazado_126754" data-name="Trazado 126754" d="M2259.176,1956.816c1.666-3.16,3.743-4.476,6.381-4.09,2.787.406,4.267,2.112,5.113,5.89,3.793-.537,5.666.443,7.331,3.893.273-.041.576-.069.871-.132a5.632,5.632,0,0,1,6.9,5.279c.035,6.924.014,13.854-.249,20.771a32.419,32.419,0,0,1-2.9,11.144,7.7,7.7,0,0,0-.605,2.851c-.04,11.545-.026,23.092-.026,34.638v1.526h-3.822v-1.237q0-18.036.023-36.072a5.946,5.946,0,0,1,.534-2.4,35.23,35.23,0,0,0,3.265-14.913q0-7.823,0-15.647c0-1.479-.925-2.41-2.153-2.24-1.05.144-1.657.941-1.66,2.256-.01,3.862,0,7.724,0,11.586v1.356h-3.823v-15.793c0-.239,0-.478,0-.716-.01-1.627-.669-2.508-1.888-2.524s-1.931.875-1.932,2.476q-.008,6.629,0,13.258v1.377H2266.7v-19.81c0-.319.01-.637,0-.956a1.939,1.939,0,0,0-1.852-2.078,1.907,1.907,0,0,0-1.957,2.085c-.022,3.942-.009,7.883-.009,11.825v8.923h-3.823v-16.184c0-.319.016-.638-.01-.955a1.9,1.9,0,1,0-3.8.062c-.021.317-.007.636-.007.955v23.8h-3.759v-4.255c-2.015.421-3.758,2.793-3.866,5.217a6.185,6.185,0,0,0,2.756,5.636c1.726,1.21,3.509,2.338,5.248,3.531a7.485,7.485,0,0,1,3.433,6.469q.026,17.2.007,34.4c0,.158-.019.316-.034.568h-3.786v-1.358c0-10.989-.023-21.978.021-32.966a4.627,4.627,0,0,0-2.356-4.354c-1.561-.954-3.066-2-4.571-3.041a10.128,10.128,0,0,1,1.239-17.636,2.789,2.789,0,0,0,1.893-3.021c-.142-4.335.123-8.687-.1-13.015C2251.143,1958.717,2254.827,1955.489,2259.176,1956.816Z" transform="translate(-2196.063 -1924.111)" fill="#fff"/>
          <path id="Trazado_126755" data-name="Trazado 126755" d="M2244.1,1968.087h-3.823v-1.338q0-10.329,0-20.659a5.773,5.773,0,0,0-.043-1.19,1.894,1.894,0,0,0-3.74.036,6.112,6.112,0,0,0-.037,1.19q0,10.27,0,20.54v1.392h-3.823v-1.622c0-4.418.012-8.837-.006-13.255-.007-1.753-1.543-2.831-2.82-1.927a2.521,2.521,0,0,0-.951,1.759c-.068,6.289-.058,12.578-.009,18.867a1.669,1.669,0,0,0,.8,1.091,9.857,9.857,0,0,1,4.85,8.473h-3.718a6.531,6.531,0,0,0-4.6-5.884,2.519,2.519,0,0,1-1.138-1.852c-.162-1.7-.046-3.419-.058-5.13-.009-1.478-.764-2.364-1.956-2.333-1.151.031-1.856.882-1.86,2.307q-.014,4.777,0,9.553a6.17,6.17,0,0,0,1.8,4.414c1,1.029,1.99,2.066,3.04,3.039a8.28,8.28,0,0,1,2.8,6.817c-.041.788-.006,1.58-.006,2.5h11.4v3.8h-15.2v38.21h-3.848V1998.03c0-2.713.367-3.084,3.081-3.13.2,0,.39-.021.654-.036.214-2.625.428-5.154-2.026-7.038a13.822,13.822,0,0,1-5.564-13.306,57.752,57.752,0,0,0,.036-5.968c.019-4.179,3.075-6.708,7.171-5.946a3.161,3.161,0,0,0,.472,0c0-3.175-.107-6.356.054-9.523a7.37,7.37,0,0,1,1.17-3.646c1.483-2.155,3.727-2.691,6.42-2.039,0-.718-.005-1.371,0-2.023a5.735,5.735,0,0,1,11.455-.551c.021.191.05.38.075.575,5.408-1.091,8.326,3.157,7.453,7.4h-3.7c0-.539.014-1.077,0-1.616a1.939,1.939,0,0,0-1.91-2.139,1.914,1.914,0,0,0-1.9,2.142c-.016,5.175-.007,10.349-.007,15.524Z" transform="translate(-2192.567 -1922.377)" fill="#fff"/>
          <path id="Trazado_126756" data-name="Trazado 126756" d="M2308.591,1950.782c.646,1.115,1.24,2.14,1.914,3.3l-14.888,8.6-1.909-3.3Z" transform="translate(-2202.636 -1923.864)" fill="#fff"/>
          <path id="Trazado_126757" data-name="Trazado 126757" d="M2293.7,2010.2l1.913-3.3,14.889,8.6-1.917,3.3Z" transform="translate(-2202.636 -1931.249)" fill="#fff"/>
          <path id="Trazado_126758" data-name="Trazado 126758" d="M2198.42,1950.776l14.885,8.6-1.906,3.3-14.9-8.6Z" transform="translate(-2189.844 -1923.864)" fill="#fff"/>
          <path id="Trazado_126759" data-name="Trazado 126759" d="M2211.391,2006.9l1.911,3.307-14.882,8.6-1.917-3.3Z" transform="translate(-2189.844 -1931.25)" fill="#fff"/>
          <path id="Trazado_126760" data-name="Trazado 126760" d="M2279.293,1944.212l-3.307-1.9c2.869-4.972,5.712-9.9,8.6-14.9l3.3,1.92Z" transform="translate(-2200.304 -1920.789)" fill="#fff"/>
          <path id="Trazado_126761" data-name="Trazado 126761" d="M2256.323,1936.834h-3.673v-17.049h3.673Z" transform="translate(-2197.233 -1919.785)" fill="#fff"/>
          <path id="Trazado_126762" data-name="Trazado 126762" d="M2188.835,1983.558h17.04v3.689h-17.04Z" transform="translate(-2188.835 -1928.178)" fill="#fff"/>
          <path id="Trazado_126763" data-name="Trazado 126763" d="M2318.123,1987.269h-17.065v-3.678h17.065Z" transform="translate(-2203.604 -1928.182)" fill="#fff"/>
          <path id="Trazado_126764" data-name="Trazado 126764" d="M2219.867,1929.341l3.3-1.919c2.191,3.787,4.362,7.543,6.607,11.424l-3.307,1.91Z" transform="translate(-2192.919 -1920.79)" fill="#fff"/>
          <path id="Trazado_126765" data-name="Trazado 126765" d="M2217.633,1946.012l-2.52,2.586-5.254-5.268,2.632-2.473Z" transform="translate(-2191.602 -1922.558)" fill="#fff"/>
          <path id="Trazado_126766" data-name="Trazado 126766" d="M2296.008,1940.737l2.587,2.538-5.32,5.3-2.371-2.753C2292.476,1944.259,2294.22,1942.52,2296.008,1940.737Z" transform="translate(-2202.267 -1922.542)" fill="#fff"/>
          <path id="Trazado_126767" data-name="Trazado 126767" d="M2242.385,1932.988l-3.694.97-1.964-7.354,3.669-.986C2241.06,1928.074,2241.7,1930.465,2242.385,1932.988Z" transform="translate(-2195.137 -1920.553)" fill="#fff"/>
          <path id="Trazado_126768" data-name="Trazado 126768" d="M2195.681,1967.64l7.363,1.955-.957,3.69-7.366-1.967Z" transform="translate(-2189.61 -1926.083)" fill="#fff"/>
          <path id="Trazado_126769" data-name="Trazado 126769" d="M2313.619,1999.22l-.982,3.679-7.367-1.972c.337-1.26.649-2.427.985-3.682Z" transform="translate(-2204.158 -1929.979)" fill="#fff"/>
          <path id="Trazado_126770" data-name="Trazado 126770" d="M2270.042,1933.958l-3.686-.976c.649-2.437,1.285-4.825,1.961-7.364l3.683.972Z" transform="translate(-2199.037 -1920.553)" fill="#fff"/>
          <path id="Trazado_126771" data-name="Trazado 126771" d="M2306.241,1973.279l-.977-3.682,7.356-1.98.995,3.67Z" transform="translate(-2204.157 -1926.08)" fill="#fff"/>
          <path id="Trazado_126772" data-name="Trazado 126772" d="M2194.714,1999.24l7.375-1.99.961,3.7-7.339,1.959Z" transform="translate(-2189.609 -1929.979)" fill="#fff"/>
          <path id="Trazado_126773" data-name="Trazado 126773" d="M2230.643,2012.164h3.673v3.7h-3.673Z" transform="translate(-2194.337 -1931.942)" fill="#fff"/>
        </g>
      </g>
    </g>
  </g>
</svg>
