<svg xmlns="http://www.w3.org/2000/svg" width="63" height="63" viewBox="0 0 63 63">
  <g id="icon5" transform="translate(-12609.335 11173.024)">
    <path id="Trazado_122760" data-name="Trazado 122760" d="M31.5,0A31.5,31.5,0,1,1,0,31.5,31.5,31.5,0,0,1,31.5,0Z" transform="translate(12609.335 -11173.024)" fill="#5bd3a9"/>
    <g id="zu2Q2r" transform="translate(10817.223 -13075.821)">
      <g id="Grupo_133691" data-name="Grupo 133691" transform="translate(1804.537 1922.559)">
        <path id="Trazado_126872" data-name="Trazado 126872" d="M1840.111,1941.36a1.316,1.316,0,0,1,.341,1.62,9.279,9.279,0,0,1-6.261,5.981,1.7,1.7,0,0,0-.52.3,26.154,26.154,0,0,1-7.259,4.139c-.63.225-1.281.393-1.927.569a4.835,4.835,0,0,1-2.721-.266,25.354,25.354,0,0,1-8.045-4.333,3.28,3.28,0,0,0-.925-.486,9.281,9.281,0,0,1-6.063-6.134,1.2,1.2,0,0,1,.406-1.378c-.392-1.21-.772-2.387-1.158-3.562a1.084,1.084,0,0,0-.151-.26,5.251,5.251,0,0,1-1.025-2.46c-.047-.448-.266-.886-.267-1.33a10.266,10.266,0,0,1,.195-2.251c.137-.614.372-1.2.476-1.838a1.565,1.565,0,0,1,1.094-1.218.963.963,0,0,0,.57-.541,9.269,9.269,0,0,1,5.787-4.935c4.045-1.112,7.481.069,10.351,3.055.053.055.1.114.151.171.372.422.565.419.942-.012a10.041,10.041,0,0,1,6.643-3.54,9.2,9.2,0,0,1,9.211,4.522,2.465,2.465,0,0,1,.212.359,1.932,1.932,0,0,0,1.029,1.059,1.75,1.75,0,0,1,.953,1.695,1.136,1.136,0,0,0,.114.494,2.715,2.715,0,0,1,.327,1.536,4.115,4.115,0,0,0,.042.446,7.6,7.6,0,0,1,.011,1.578,7.065,7.065,0,0,1-1.289,3.323,1.307,1.307,0,0,0-.157.422C1840.84,1939.158,1840.483,1940.237,1840.111,1941.36Zm1.5-9.791a2.152,2.152,0,0,0-.176.142,7.332,7.332,0,0,1-2.393,1.51.455.455,0,1,1-.4-.817,5.594,5.594,0,0,0,.547-.261,19.14,19.14,0,0,0,1.721-1.223.921.921,0,0,0,.084-1.36c-.341-.407-.737-.429-1.279-.087a13,13,0,0,1-3.231,1.574,1.66,1.66,0,0,1-2.233-1.061,3.879,3.879,0,0,1-.2-.61,9.241,9.241,0,0,1-.2-2.906,1.926,1.926,0,0,0-.081-.743.89.89,0,0,0-.962-.586.812.812,0,0,0-.742.7,50.835,50.835,0,0,1-1.808,6.736,15.007,15.007,0,0,1-6.7,7.978,20.42,20.42,0,0,1-10.191,2.582,12.37,12.37,0,0,1-5.184-.986,1.489,1.489,0,0,0-.491-.04,1.433,1.433,0,0,0-.025.52,8.338,8.338,0,0,0,6.088,5.564,17.147,17.147,0,0,0,7.794-.043,33.747,33.747,0,0,0,11.441-4.722,35.31,35.31,0,0,0,6.53-5.063c.462-.475.873-1,1.32-1.518-.08-.036-.093-.048-.1-.045-.555.162-.781.128-.873-.167-.14-.449.22-.544.513-.7a2.7,2.7,0,0,0,1.448-2.05,3.547,3.547,0,0,1-.334.286c-.513.321-1.025.645-1.549.946a.436.436,0,0,1-.675-.184c-.143-.3.011-.507.29-.637a1.382,1.382,0,0,0,.242-.109,14.705,14.705,0,0,0,1.5-1.135A1.351,1.351,0,0,0,1841.607,1931.569Zm-33.968-3.161a12.417,12.417,0,0,0,3.4,1.77c.6.16.862.04,1.115-.523a2.684,2.684,0,0,0,.147-.43,7.923,7.923,0,0,0,.178-2.791,1.941,1.941,0,0,1,1.557-2.187,1.776,1.776,0,0,1,2.078,1.527c.466,1.891.876,3.8,1.45,5.658a14.275,14.275,0,0,0,5.693,7.793.536.536,0,0,0,.724.013,14.319,14.319,0,0,0,5.708-7.828c.578-1.883.989-3.818,1.462-5.733a1.766,1.766,0,0,1,1.256-1.391,1.92,1.92,0,0,1,2.371,2.1,7.533,7.533,0,0,0-.036,1.4,10.126,10.126,0,0,0,.39,1.922c.17.527.487.632,1.025.477a13.133,13.133,0,0,0,3.5-1.766c-.326-.5-.609-1.009-.961-1.465a8.23,8.23,0,0,0-7.828-3.41,9.262,9.262,0,0,0-6.163,3.329,1.334,1.334,0,0,1-2.161.013c-.313-.348-.633-.694-.978-1.009a8.918,8.918,0,0,0-10.661-1.122A9.093,9.093,0,0,0,1807.639,1928.408Zm-1.248,8.349c.227.3.379.517.548.721a26.739,26.739,0,0,0,5.323,4.618.775.775,0,0,0,.39.1,19.447,19.447,0,0,0,8.145-1.331c.651-.254,1.281-.563,1.873-.826-.884-.813-1.779-1.545-2.568-2.377a16.987,16.987,0,0,1-3.92-7.656c-.359-1.383-.656-2.782-.988-4.173a.812.812,0,0,0-.9-.693,1.038,1.038,0,0,0-.906,1.225,11.8,11.8,0,0,1,.041,1.441,5.02,5.02,0,0,1-.682,2.65,1.489,1.489,0,0,1-1.686.657,11.954,11.954,0,0,1-3.556-1.669.839.839,0,0,0-1.221.091.949.949,0,0,0-.013,1.311,2.261,2.261,0,0,0,.491.472c.588.366,1.19.711,1.8,1.048.272.151.424.351.291.644s-.388.318-.675.192a7.369,7.369,0,0,1-2.384-1.526.618.618,0,0,0-.155-.082,1.505,1.505,0,0,0,.529,1.695,13.126,13.126,0,0,0,1.581,1.026c.239.145.369.328.264.592a.415.415,0,0,1-.623.24c-.542-.3-1.064-.627-1.59-.95a3.906,3.906,0,0,1-.364-.3,2.723,2.723,0,0,0,1.622,2.124c.275.124.456.307.326.62a.442.442,0,0,1-.661.229C1806.651,1936.843,1806.58,1936.823,1806.391,1936.757Zm9.066,12.688c.035.059.043.087.061.1a22.769,22.769,0,0,0,6.472,3.268,4.25,4.25,0,0,0,2.23.273,21.792,21.792,0,0,0,7.468-3.515.86.86,0,0,0,.117-.131c-.262.019-.487.04-.711.051a23.888,23.888,0,0,1-7.1-.793,1.448,1.448,0,0,0-.7-.011A23.337,23.337,0,0,1,1815.457,1949.445Zm9.931-1.351a18.648,18.648,0,0,0,7.475.253,8.447,8.447,0,0,0,6.723-5.693,1.548,1.548,0,0,0,0-.526,1.566,1.566,0,0,0-.522.028,10.934,10.934,0,0,1-3.249.864,2.415,2.415,0,0,0-1.153.411,38.258,38.258,0,0,1-7.022,3.809C1826.923,1947.523,1826.2,1947.785,1825.388,1948.094Zm-17.846-8.551-.063.043c.194.477.385.954.586,1.428a.307.307,0,0,0,.149.159c.678.26,1.359.51,2.039.763l.029-.078Zm29.434,2.316.026.071c.566-.206,1.133-.408,1.7-.619.152-.057.374-.1.431-.21.248-.5.448-1.016.665-1.528l-.077-.03Z" transform="translate(-1804.537 -1922.559)" fill="#133d60"/>
      </g>
    </g>
  </g>
</svg>
