<svg xmlns="http://www.w3.org/2000/svg" width="58.461" height="60" viewBox="0 0 58.461 60">
  <g id="icon6" transform="translate(5944 7253)">
    <ellipse id="Elipse_4916" data-name="Elipse 4916" cx="29.231" cy="30" rx="29.231" ry="30" transform="translate(-5944 -7253)" fill="#d2f3e8"/>
    <g id="UmCpdG" transform="translate(-11045.369 -7296.302)">
      <g id="Grupo_133630" data-name="Grupo 133630" transform="translate(5109.369 53.302)">
        <path id="Trazado_126597" data-name="Trazado 126597" d="M5150.753,97.175c-.065.188-.136.374-.2.564a3.959,3.959,0,0,1-2.024,2.578c.071.091.114.153.165.208a4.53,4.53,0,0,1,1.239,3.079c.039,2.478.024,4.957.021,7.435,0,.575-.32.852-.938.852q-5.052,0-10.1,0h-.534c0,.345,0,.664,0,.982-.006.676-.283.979-.945.984q-1.96.015-3.919,0c-.6,0-.954-.313-.951-.809s.359-.8.958-.8c1.063-.006,2.125,0,3.179,0a3.171,3.171,0,0,0-1.642-3.56c-.748-.355-1.554-.59-2.354-.887a3.08,3.08,0,0,1-2.944,2.026,3.024,3.024,0,0,1-2.953-1.98,10.462,10.462,0,0,0-2.768,1.051,2.765,2.765,0,0,0-1.254,2.113c-.048.384-.06.773-.091,1.205.188.012.329.029.47.029.943,0,1.887,0,2.829,0a.819.819,0,0,1,.912.723.8.8,0,0,1-.868.885c-1,.015-1.993.006-2.99.006-.377,0-.754.011-1.131-.009a.791.791,0,0,1-.812-.825c-.017-.36,0-.722,0-1.134h-10.689c-.779,0-1.043-.263-1.043-1.042,0-2.236.006-4.472,0-6.708a4.921,4.921,0,0,1,3.173-4.928c1.2-.506,2.471-.82,3.706-1.234a.628.628,0,0,0,.367-.273c.082-.213-.021-.381-.242-.52A6.77,6.77,0,0,1,5113,91.169a34.9,34.9,0,0,1,.1-4.195,6.911,6.911,0,0,1,13.74,1.134c.008,1.1.026,2.21-.01,3.313a6.766,6.766,0,0,1-3.3,5.733c-.212.137-.346.256-.323.532.026.307.271.255.442.307.385.117.829.372,1.151.268.275-.089.4-.612.615-.922a5.116,5.116,0,0,1,5.051-2.293.758.758,0,0,0,.508-.137,4.765,4.765,0,0,0,1.834-3.67c.058-1.33.059-2.666.172-3.991A7.369,7.369,0,0,1,5134,84.124a5.978,5.978,0,0,1,6-3.071c3.235.23,5.109,2.4,5.742,5.43a21.2,21.2,0,0,1,.25,4.306,5.547,5.547,0,0,0,.434,2.283,5.667,5.667,0,0,0,3.485,2.984,1.394,1.394,0,0,1,.839.634Zm-34.006,2.292c-1.176.4-2.337.737-3.459,1.179a3.445,3.445,0,0,0-2.308,3.564c.026,1.884.006,3.769.007,5.654,0,.13.011.259.018.392h2.691V109.8c0-.862,0-1.723,0-2.585,0-.646.286-1,.795-1,.526-.006.816.348.82,1.018,0,.794,0,1.589,0,2.383v.621a1.249,1.249,0,0,0,.175.036c1.844,0,3.688.007,5.533-.008a.434.434,0,0,0,.313-.249,4.286,4.286,0,0,1,2.474-2.818c.771-.342,1.589-.576,2.382-.87.16-.059.413-.151.432-.26a.76.76,0,0,0-.22-.829,4.74,4.74,0,0,1-1.767-3.248,20.335,20.335,0,0,1-.012-2.042l-1.552-.424a3.258,3.258,0,0,1-3.092,2.24A3.3,3.3,0,0,1,5116.747,99.467Zm19.515.06c-.348.094-.68.2-1.019.269-.255.052-.335.163-.339.432a13.842,13.842,0,0,1-.118,2.17,4.725,4.725,0,0,1-1.736,2.878c-.281.231-.221.509-.185.769.015.1.23.212.374.264.77.281,1.563.5,2.314.823a4.245,4.245,0,0,1,2.573,2.871c.075.28.234.273.442.273q2.546,0,5.091,0c.115,0,.231-.017.373-.028v-.509c0-.915,0-1.831.006-2.747a.744.744,0,0,1,.607-.756.751.751,0,0,1,.886.4,1.5,1.5,0,0,1,.113.585c.01,1.006,0,2.012,0,3.03h2.671c0-2.265.036-4.5-.016-6.733a2.922,2.922,0,0,0-1.451-2.437,15.7,15.7,0,0,0-4.293-1.552,3.334,3.334,0,0,1-6.3.005ZM5125.207,90.5h-.371a13.649,13.649,0,0,1-6.5-1.329.427.427,0,0,0-.372.066,4.579,4.579,0,0,1-1.867.916c-.48.112-.968.194-1.464.291a5.279,5.279,0,0,0,2.515,5.318,5,5,0,0,0,5.679-.082A5.254,5.254,0,0,0,5125.207,90.5Zm9.282-.289a5,5,0,0,0,2.372,4.948,4.943,4.943,0,0,0,7.446-4.953,8,8,0,0,0-9.818.006Zm-9.3-1.335a5.312,5.312,0,0,0-2.5-5.356,5.058,5.058,0,0,0-5.741.144,5.248,5.248,0,0,0-2.311,5.113A3.641,3.641,0,0,0,5117.3,87.6a.813.813,0,0,1,1.238-.193A11.525,11.525,0,0,0,5125.186,88.877Zm19.152-.35a8.827,8.827,0,0,0-.716-3.363c-1.466-3.26-6.291-3.282-8-.586a7.572,7.572,0,0,0-1.123,3.74.342.342,0,0,0,.186.27,3.576,3.576,0,0,0,3.705-1.4c.115-.166.208-.346.316-.516a.808.808,0,0,1,1.424.005c.065.1.119.21.181.315A3.537,3.537,0,0,0,5144.338,88.527Zm-14.629,16.333a3.553,3.553,0,0,0,3.57-3.139.393.393,0,0,0-.2-.468,6.4,6.4,0,0,0-6.68.022.481.481,0,0,0-.19.378A3.536,3.536,0,0,0,5129.709,104.86Zm15.49-10.57a16.094,16.094,0,0,1-1.812,1.819,1.4,1.4,0,0,0-.681,1.42.437.437,0,0,0,.366.462c1.182.357,2.354.74,3.531,1.112a.728.728,0,0,0,.233.046,2.181,2.181,0,0,0,2.076-1.708C5146.291,95.838,5146.291,95.838,5145.2,94.29Zm-12,5.184a3.535,3.535,0,0,0-3.61-2.858,3.468,3.468,0,0,0-3.277,2.849A8.192,8.192,0,0,1,5133.2,99.473Zm4.54-2.14c0,.408-.014.823,0,1.237a1.677,1.677,0,0,0,1.423,1.574,1.6,1.6,0,0,0,1.792-1.053,10.37,10.37,0,0,0,.191-1.766c-.646.063-1.178.156-1.71.156C5138.891,97.481,5138.345,97.39,5137.739,97.333Zm-4.027-3.129L5132.5,95.8a5.4,5.4,0,0,1,2.07,2.515l1.544-.434c0-.377.011-.713-.006-1.048a.422.422,0,0,0-.135-.3A6.994,6.994,0,0,1,5133.712,94.2Zm-15.438,3.886a1.71,1.71,0,0,0,.779,1.825,1.65,1.65,0,0,0,1.86-.083,1.727,1.727,0,0,0,.67-1.742Zm10.023,8.3a1.437,1.437,0,0,0,.618,1.593,1.537,1.537,0,0,0,1.717-.053,1.434,1.434,0,0,0,.574-1.54Z" transform="translate(-5109.369 -73.061)" fill="#133d60"/>
        <path id="Trazado_126598" data-name="Trazado 126598" d="M5166.863,54.174a3.539,3.539,0,0,1,2.611-.859,3.373,3.373,0,0,1,3.032,2.191,3.253,3.253,0,0,1-.63,3.683c-1.432,1.5-2.956,2.9-4.453,4.338a.766.766,0,0,1-1.154-.017c-1.429-1.369-2.867-2.728-4.268-4.125a3.532,3.532,0,0,1-.174-4.894,3.573,3.573,0,0,1,4.852-.443C5166.733,54.087,5166.789,54.123,5166.863,54.174Zm0,7.667c1.288-1.249,2.561-2.448,3.792-3.689a1.9,1.9,0,0,0-.016-2.635,1.959,1.959,0,0,0-2.67-.143c-.2.164-.365.359-.561.524a.806.806,0,0,1-1.1,0c-.175-.147-.331-.316-.5-.468a1.953,1.953,0,0,0-2.7.064,1.906,1.906,0,0,0-.015,2.694C5164.315,59.412,5165.579,60.6,5166.861,61.84Z" transform="translate(-5146.108 -53.302)" fill="#133d60"/>
        <path id="Trazado_126599" data-name="Trazado 126599" d="M5178.236,191.252a.8.8,0,0,1-.8-.785.806.806,0,1,1,1.612.018A.792.792,0,0,1,5178.236,191.252Z" transform="translate(-5157.874 -150.464)" fill="#133d60"/>
        <path id="Trazado_126600" data-name="Trazado 126600" d="M5140.741,123.905a2.792,2.792,0,0,1-1.845-.706.814.814,0,0,1-.137-1.153.8.8,0,0,1,1.153-.1,1.164,1.164,0,0,0,1.644,0,.8.8,0,0,1,1.154.086.827.827,0,0,1-.156,1.182A2.8,2.8,0,0,1,5140.741,123.905Z" transform="translate(-5130.184 -102.077)" fill="#133d60"/>
      </g>
    </g>
  </g>
</svg>
