<svg xmlns="http://www.w3.org/2000/svg" xmlns:xlink="http://www.w3.org/1999/xlink" width="165" height="130" viewBox="0 0 165 130">
  <defs>
    <clipPath id="clip-path">
      <rect id="Rectángulo_35890" data-name="Rectángulo 35890" width="165" height="130" transform="translate(8574 -8214)" fill="#fff" stroke="#707070" stroke-width="1"/>
    </clipPath>
  </defs>
  <g id="icon2-5" transform="translate(-8574 8214)" clip-path="url(#clip-path)">
    <g id="Grupo_133678" data-name="Grupo 133678" transform="translate(-8.521 -12.05)">
      <g id="Grupo_78348" data-name="Grupo 78348" transform="translate(8611.521 -8182.901)">
        <path id="Trazado_113319" data-name="Trazado 113319" d="M1572.434,1085.285h-8.783v-6.015H1587.1v6.015h-14.661Z" transform="translate(-1563.651 -1070.555)" fill="#5bd3a9"/>
      </g>
      <g id="BfK6s8" transform="translate(4497 -8256.146)">
        <g id="Grupo_133677" data-name="Grupo 133677" transform="translate(4140.283 57.144)">
          <path id="Trazado_126825" data-name="Trazado 126825" d="M4164.5,182.767c-2.976,3.225-6.376,4.494-10.486,3.176a9.165,9.165,0,0,1-6.388-9.117q-.055-11.882.014-23.765a1.969,1.969,0,0,0-1.589-2.292c-3.273-1.1-5.491-3.572-5.609-6.951-.189-5.406-.4-10.948.537-16.232,2.052-11.576,12.8-19.562,24.655-19.081a23.993,23.993,0,0,1,22.768,21,89.045,89.045,0,0,1,.211,13.951,7.9,7.9,0,0,1-5.778,7.348c-1.251.422-1.491,1.023-1.483,2.2q.068,11.882.011,23.765c-.027,5.118-3.248,8.92-8.146,9.586C4169.716,186.84,4166.868,185.445,4164.5,182.767Zm16.879-35.408c2.49-1.037,3.585-2.546,3.611-4.874.038-3.365.046-6.732,0-10.1a20.516,20.516,0,0,0-18.729-20.109c-9.9-1.007-19.685,5.788-21.557,15.723-.935,4.965-.588,10.192-.6,15.3a4.068,4.068,0,0,0,3.512,3.856v-1.7q0-8.155,0-16.311c0-1.276.319-2.3,1.818-2.374,1.194-.061,1.848.761,1.908,2.312.016.413,0,.828,0,1.243v38.836c0,2.537.011,5.075,0,7.612a5.45,5.45,0,0,0,2.04,4.5,5.654,5.654,0,0,0,9.241-4.456c.018-7.611.007-15.224.008-22.835a11.709,11.709,0,0,1,.016-1.243,1.85,1.85,0,0,1,3.7.056c.038.411.014.828.014,1.242,0,7.56-.02,15.12.009,22.68a5.632,5.632,0,0,0,6.95,5.707c2.706-.59,4.324-2.865,4.326-6.169q.012-23.145.009-46.292c0-.617-.136-1.379.166-1.817.407-.591,1.191-1.3,1.787-1.278s1.255.819,1.672,1.425c.247.359.1,1.005.1,1.522q.006,7.844,0,15.69Z" transform="translate(-4140.283 -62.354)" fill="#fff"/>
          <path id="Trazado_126826" data-name="Trazado 126826" d="M4177.2,71.88c1.762-3.049,3.44-5.96,5.126-8.867,4.511-7.775,14.395-7.844,18.881-.1q12.442,21.483,24.808,43.011a10.494,10.494,0,0,1-6.819,15.816,13.792,13.792,0,0,1-2.929.235q-11.726.027-23.451.009c-.414,0-.953.138-1.216-.066-.628-.489-1.482-1.1-1.562-1.746-.067-.541.742-1.33,1.341-1.762.39-.28,1.1-.148,1.665-.149,7.712-.006,15.433-.195,23.138.056,6.15.2,9.484-5.838,6.388-11.066-8.273-13.974-16.281-28.106-24.4-42.169-3.241-5.611-9.451-5.643-12.69-.073-1.743,3-3.444,6.015-5.216,8.993a1.954,1.954,0,0,0-.058,2.127c3.151,6.451,2.709,12.718-1.676,18.384a16.064,16.064,0,0,1-17.257,6.151c-6.973-1.6-11.324-6.193-12.943-13.181a17.1,17.1,0,0,1,27.548-16.722C4176.272,71.087,4176.661,71.423,4177.2,71.88Zm1.211,12.073a13.139,13.139,0,1,0-13.281,13.129A13.159,13.159,0,0,0,4178.415,83.953Z" transform="translate(-4141.058 -57.144)" fill="#fff"/>
          <path id="Trazado_126827" data-name="Trazado 126827" d="M4198.365,93.4q0,3.027,0,6.054c0,1.211-.524,2.029-1.806,2.056a1.761,1.761,0,0,1-1.9-1.987q-.054-6.209,0-12.42a1.793,1.793,0,0,1,1.91-2c1.224.031,1.8.851,1.8,2.083C4198.356,89.262,4198.365,91.332,4198.365,93.4Z" transform="translate(-4145.799 -59.982)" fill="#fff"/>
          <path id="Trazado_126828" data-name="Trazado 126828" d="M4196.559,109.743a1.985,1.985,0,0,1-2-1.923,1.939,1.939,0,0,1,1.985-2.073,1.889,1.889,0,0,1,1.95,1.969A1.977,1.977,0,0,1,4196.559,109.743Z" transform="translate(-4145.79 -62.076)" fill="#fff"/>
        </g>
      </g>
    </g>
  </g>
</svg>
