<svg xmlns="http://www.w3.org/2000/svg" width="63" height="63" viewBox="0 0 63 63">
  <g id="icon6" transform="translate(-12919.335 11173.024)">
    <path id="Trazado_122762" data-name="Trazado 122762" d="M31.5,0A31.5,31.5,0,1,1,0,31.5,31.5,31.5,0,0,1,31.5,0Z" transform="translate(12919.335 -11173.024)" fill="#5bd3a9"/>
    <g id="Grupo_133692" data-name="Grupo 133692" transform="translate(9997.665 -11211.394)">
      <path id="Trazado_126873" data-name="Trazado 126873" d="M2937.245,101.261a13.057,13.057,0,0,1,.414-1.364,4.748,4.748,0,0,1,3.37-2.839c.676-.175,1.357-.333,2.039-.487.189-.043.253-.12.269-.324a1.039,1.039,0,0,0-.464-1.021,4.054,4.054,0,0,1-1.66-3.04,21.506,21.506,0,0,1,.042-3.841,4.245,4.245,0,0,1,3.063-3.651,4.445,4.445,0,0,1,4.665,1.046,2.02,2.02,0,0,1,.21.282c1.226-3.082,3.381-4.727,6.676-4.41a6,6,0,0,1,5.235,4.34c.076-.065.153-.128.227-.194a4.62,4.62,0,0,1,7.832,3.217c.041.908.026,1.821,0,2.73a4.541,4.541,0,0,1-1.924,3.707,1.2,1.2,0,0,0-.212,1.045.452.452,0,0,0,.244.109c.679.166,1.361.321,2.038.492a4.89,4.89,0,0,1,3.776,4.813c.006,1.482,0,2.964,0,4.446,0,.64-.253.894-.89.895q-2.5,0-5.005,0h-.411c0,.613,0,1.194,0,1.773,0,.823-.208,1.028-1.043,1.028h-7.315c-.094,0-.187,0-.28,0a.718.718,0,0,1-.731-.7.7.7,0,0,1,.729-.7c.723-.015,1.447-.005,2.17-.005h1.225c0-.652,0-1.278,0-1.9,0-.362-.006-.723,0-1.085a.7.7,0,1,1,1.4-.008c.009.98,0,1.96,0,2.969h2.439q0-.9,0-1.8c0-.382.006-.763,0-1.144a5.1,5.1,0,0,0-4.017-5.168c-1.016-.257-2.037-.493-3.057-.737-.089-.021-.18-.031-.294-.05-.435.987-.867,1.966-1.3,2.945-.277.629-.559,1.256-.828,1.888-.142.334-.333.6-.733.594-.381-.006-.566-.26-.706-.581-.661-1.517-1.331-3.029-2-4.543-.046-.1-.1-.206-.162-.347-1.366.353-2.743.626-4.062,1.07a4.963,4.963,0,0,0-3.276,4.614c-.016,1.083,0,2.167,0,3.272h2.45c0-.88,0-1.752,0-2.623,0-.14-.007-.281,0-.42a.712.712,0,0,1,.717-.71.7.7,0,0,1,.675.715c.015.326,0,.653.005.98,0,.676,0,1.352,0,2.081h.384c.863,0,1.726,0,2.59,0,.519,0,.835.265.844.687s-.317.71-.855.711q-3.675,0-7.35,0c-.61,0-.862-.263-.864-.884s0-1.254,0-1.916h-.443c-1.622,0-3.244-.01-4.865.007a.993.993,0,0,1-.991-.5Zm13.174-11.544c0,.646-.021,1.241,0,1.833a4.76,4.76,0,0,0,4.338,4.531,4.7,4.7,0,0,0,5.1-4.022,18.578,18.578,0,0,0,.063-2.478.42.42,0,0,0-.2-.279c-.788-.476-1.586-.934-2.375-1.408a.3.3,0,0,0-.425.044,6.64,6.64,0,0,1-4.787,1.781C2951.575,89.709,2951.017,89.717,2950.419,89.717Zm9.527-1.914a4.692,4.692,0,0,0-2.49-4.258,4.507,4.507,0,0,0-5.016.284,4.749,4.749,0,0,0-2.015,4.481c.711,0,1.4.014,2.08,0a5.156,5.156,0,0,0,3.751-1.68c.513-.543.717-.574,1.363-.194Zm11.739,17.995c0-1.4.042-2.769-.012-4.13a3.216,3.216,0,0,0-2.1-3.036,23.7,23.7,0,0,0-2.76-.756c-.478,1.142-.941,2.234-1.385,3.334a.465.465,0,0,0,.081.369,6.532,6.532,0,0,1,1.244,3.329c.026.3.038.594.055.876h2.086c0-.985,0-1.941,0-2.9,0-.555.25-.865.689-.87.455-.006.708.308.71.885,0,.746,0,1.493,0,2.239v.657Zm-28.153-7.9c-.746.177-1.45.331-2.148.512a3.478,3.478,0,0,0-2.737,3.545c0,1.119,0,2.238,0,3.357v.476h1.4c0-.444,0-.863,0-1.281,0-.595-.012-1.19.006-1.784a.679.679,0,0,1,.708-.706.69.69,0,0,1,.682.7c.012.162,0,.326,0,.49,0,.859,0,1.718,0,2.584h2.077a.835.835,0,0,0,.02-.123,6.618,6.618,0,0,1,1.317-4.15.377.377,0,0,0,.043-.311C2944.457,100.107,2944,99.015,2943.531,97.9Zm17.853-8.224a24.11,24.11,0,0,0,.016,2.464,2.946,2.946,0,0,0,1.933,2.5,3.05,3.05,0,0,0,3.169-.422,3.608,3.608,0,0,0,1.242-3.525A12.321,12.321,0,0,1,2961.384,89.674Zm-18.845,1.013c.029.545.027,1.024.085,1.5a3.209,3.209,0,0,0,2.513,2.639,3.261,3.261,0,0,0,3.416-1.521c.662-1.139.386-2.371.465-3.661A12.415,12.415,0,0,1,2942.539,90.687Zm6.312-2.537a3.19,3.19,0,0,0-6.245,1.12A10.113,10.113,0,0,0,2948.851,88.15Zm12.645,0c1.932,1.205,4.076,1.228,6.242,1.128a3.189,3.189,0,0,0-6.242-1.128Zm-6.327,14.522c.523-1.192.968-2.307,1.5-3.379a4.923,4.923,0,0,0,.252-2.05,6.425,6.425,0,0,1-3.481.018,3.973,3.973,0,0,0,.331,2.28c.359.676.63,1.4.94,2.1C2954.85,101.956,2954.99,102.271,2955.168,102.671Zm-6.93-6.186a17.008,17.008,0,0,1,3.777,1.171,5.528,5.528,0,0,1,0-.608.666.666,0,0,0-.325-.66,11.712,11.712,0,0,1-1.3-1.206,8.158,8.158,0,0,1-.674-.938c-.458.421-.918.84-1.372,1.267a.383.383,0,0,0-.106.235C2948.23,95.991,2948.238,96.235,2948.238,96.486Zm12.376-2.242c.023-.021-.01,0-.026.025a6.32,6.32,0,0,1-2.125,2.275.3.3,0,0,0-.138.182c-.014.294-.006.589-.006.9a9.436,9.436,0,0,1,1.013-.421c.794-.226,1.6-.413,2.4-.627.13-.035.349-.125.349-.189,0-.3.038-.681-.125-.878A14.04,14.04,0,0,0,2960.614,94.244Zm-14.868,5.316.109,0c.281-1.131,1.175-2.081.968-3.321h-2.07a2.938,2.938,0,0,0,.016.942C2945.054,97.991,2945.415,98.77,2945.746,99.56Zm17.772-3.318a2.688,2.688,0,0,0,.258,1.587c.275.566.5,1.158.739,1.738l.1,0c.279-1.133,1.168-2.082.976-3.324Zm-3.829,2.288,0,.069,3.251.85-.655-1.56Zm-9.062.068.008-.073-2.594-.634-.648,1.551Z" transform="translate(0 -22.22)" fill="#133d60"/>
      <path id="Trazado_126874" data-name="Trazado 126874" d="M3006.965,51.942c.429.222.6.466.545.791a.718.718,0,0,1-.634.6.7.7,0,0,1-.7-.467.665.665,0,0,1,.266-.791c.076-.052.161-.089.242-.134Z" transform="translate(-51.656 0)" fill="#133d60"/>
      <path id="Trazado_126875" data-name="Trazado 126875" d="M3006.085,64.221c0-.291-.011-.582,0-.872a.7.7,0,1,1,1.39,0q.023.889,0,1.779a.681.681,0,0,1-.7.716.7.7,0,0,1-.7-.717c0-.023,0-.047,0-.07q0-.418,0-.837Z" transform="translate(-51.615 -8.008)" fill="#133d60"/>
      <path id="Trazado_126876" data-name="Trazado 126876" d="M3017.444,59.913a3.28,3.28,0,0,1,.324-.568c.3-.336.629-.655.959-.967a.693.693,0,0,1,1.053-.036.7.7,0,0,1-.073,1.026c-.331.343-.669.681-1.018,1.006a.589.589,0,0,1-.769.1A2.868,2.868,0,0,1,3017.444,59.913Z" transform="translate(-60.136 -4.63)" fill="#133d60"/>
      <path id="Trazado_126877" data-name="Trazado 126877" d="M2990.843,57.958a3.584,3.584,0,0,1,.6.342c.321.287.622.6.918.911a.7.7,0,1,1-.972,1c-.339-.32-.667-.652-.985-.992a.609.609,0,0,1-.119-.77A2.752,2.752,0,0,1,2990.843,57.958Z" transform="translate(-39.7 -4.511)" fill="#133d60"/>
      <path id="Trazado_126878" data-name="Trazado 126878" d="M3057.411,60.26a3.734,3.734,0,0,1-.029.382.68.68,0,0,1-.63.555.649.649,0,0,1-.7-.507,2.408,2.408,0,0,1-.027-.724.677.677,0,0,1,.7-.629.7.7,0,0,1,.666.714c0,.069,0,.139,0,.209Z" transform="translate(-89.058 -5.545)" fill="#133d60"/>
      <path id="Trazado_126879" data-name="Trazado 126879" d="M3057.371,73.844c0,.68-.334,1.035-.859.909-.378-.091-.546-.378-.542-.93,0-.509.192-.808.56-.887C3057.032,72.828,3057.37,73.194,3057.371,73.844Z" transform="translate(-89.025 -15.729)" fill="#133d60"/>
      <path id="Trazado_126880" data-name="Trazado 126880" d="M2949.261,68.457c-.6,0-.926-.247-.925-.7,0-.428.31-.688.826-.7.675-.012,1.01.206,1.028.668S2949.881,68.457,2949.261,68.457Z" transform="translate(-8.317 -11.333)" fill="#133d60"/>
      <path id="Trazado_126881" data-name="Trazado 126881" d="M2962.758,68.425a.765.765,0,0,1-.778-.38.719.719,0,0,1-.076-.23.7.7,0,0,1,.659-.785c.723-.086,1.18.171,1.2.673.016.413-.315.708-.809.721C2962.9,68.427,2962.838,68.425,2962.758,68.425Z" transform="translate(-18.484 -11.301)" fill="#133d60"/>
      <path id="Trazado_126882" data-name="Trazado 126882" d="M3049.228,68.458c-.575,0-.882-.214-.915-.637-.037-.476.28-.758.858-.764.677-.007,1.011.245.986.741C3050.134,68.24,3049.825,68.459,3049.228,68.458Z" transform="translate(-83.281 -11.334)" fill="#133d60"/>
      <path id="Trazado_126883" data-name="Trazado 126883" d="M3062.8,67c.137.018.311-.01.4.064a1.436,1.436,0,0,1,.479.536.585.585,0,0,1-.314.7,1.387,1.387,0,0,1-1.265-.059.65.65,0,0,1-.2-.785C3062.07,67.061,3062.419,67,3062.8,67Z" transform="translate(-93.433 -11.293)" fill="#133d60"/>
      <path id="Trazado_126884" data-name="Trazado 126884" d="M2957.359,60.3c-.026.159,0,.354-.09.469a1.174,1.174,0,0,1-.51.415.563.563,0,0,1-.7-.318,1.24,1.24,0,0,1,.038-1.232.619.619,0,0,1,.735-.253C2957.19,59.479,2957.339,59.751,2957.359,60.3Z" transform="translate(-13.997 -5.558)" fill="#133d60"/>
      <path id="Trazado_126885" data-name="Trazado 126885" d="M2957.415,73.787c0,.748-.345,1.1-.859.975-.387-.093-.549-.381-.541-.964.006-.483.2-.774.557-.853a.689.689,0,0,1,.825.559A1.694,1.694,0,0,1,2957.415,73.787Z" transform="translate(-14.074 -15.736)" fill="#133d60"/>
      <path id="Trazado_126886" data-name="Trazado 126886" d="M3006.071,190.351a.7.7,0,0,1,.715-.665.694.694,0,1,1-.056,1.388A.7.7,0,0,1,3006.071,190.351Z" transform="translate(-51.608 -103.284)" fill="#133d60"/>
      <path id="Trazado_126887" data-name="Trazado 126887" d="M3004.069,127.866a1.883,1.883,0,0,1-1.231-.51.692.692,0,0,1-.111-.97.647.647,0,0,1,.933-.129.706.706,0,0,0,.95,0,.651.651,0,0,1,.935.116.7.7,0,0,1-.1.975A2.025,2.025,0,0,1,3004.069,127.866Z" transform="translate(-48.988 -55.617)" fill="#133d60"/>
      <path id="Trazado_126888" data-name="Trazado 126888" d="M3016.828,117.379a.686.686,0,0,1-.677.7.7.7,0,0,1-.7-.68.713.713,0,0,1,.683-.7A.7.7,0,0,1,3016.828,117.379Z" transform="translate(-58.641 -48.553)" fill="#133d60"/>
      <path id="Trazado_126889" data-name="Trazado 126889" d="M2998.131,117.377a.686.686,0,1,1-1.372.017.686.686,0,1,1,1.372-.017Z" transform="translate(-44.626 -48.551)" fill="#133d60"/>
    </g>
  </g>
</svg>
