<svg xmlns="http://www.w3.org/2000/svg" xmlns:xlink="http://www.w3.org/1999/xlink" width="127" height="112" viewBox="0 0 127 112">
  <defs>
    <clipPath id="clip-path">
      <rect id="Rectángulo_35878" data-name="Rectángulo 35878" width="127" height="112" transform="translate(1208.999 7677)" fill="#fff" stroke="#707070" stroke-width="1"/>
    </clipPath>
  </defs>
  <g id="icon4" transform="translate(-1208.999 -7677)" clip-path="url(#clip-path)">
    <g id="_3QxWtZ" data-name="3QxWtZ" transform="translate(-800.22 5775.567)">
      <g id="Grupo_133651" data-name="Grupo 133651" transform="translate(2020.358 1905.682)">
        <path id="Trazado_126695" data-name="Trazado 126695" d="M2110.843,1986.564a5.785,5.785,0,0,0,.7.1c2.606-.192,3.1.567,3.057,3.183-.077,4.9-.022,9.81-.022,14.716v1.234h-3.441v-15.568h-31.41v15.549h-3.517v-16.318c0-2.388.373-2.762,2.773-2.791.181,0,.363-.015.714-.031,0-.383,0-.764,0-1.145.017-2.289-.138-4.594.085-6.862.465-4.711,3.49-7.891,8.578-9.29v-6.184a8.336,8.336,0,0,0-.667.536c-1.546,1.536-3.073,3.094-4.63,4.619a14.506,14.506,0,0,1-20.738-.048c-1.706-1.683-3.371-3.409-5.214-5.277v6.132a32.125,32.125,0,0,1,4.213,2.1,9.972,9.972,0,0,1,4.4,8.342c.059,2.319.011,4.641.011,7.114.631,0,1.2-.032,1.763.007a1.62,1.62,0,0,1,1.7,1.644c.039,5.8.019,11.609.019,17.471h-3.436v-15.571h-31.412v15.553h-3.508V2004.6q0-7.631,0-15.261c0-2.24.4-2.642,2.662-2.675.249,0,.5-.03,1.07-.065a7.707,7.707,0,0,0-.91-1.6c-3.263-3.314-6.564-6.59-9.849-9.883-4.647-4.658-4.635-10.654.034-15.327q7.048-7.057,14.1-14.107c.278-.279.54-.571.689-.727a51.6,51.6,0,0,1-3.143-5.306,17.747,17.747,0,0,1,28.552-19.906c2.621,2.516,5.153,5.123,7.719,7.7.279.28.51.608.811.971.395-.36.664-.587.913-.835,2.468-2.464,4.9-4.963,7.406-7.391,5.2-5.046,11.369-6.684,18.245-4.443,6.84,2.23,10.9,7.176,12.035,14.276a17.047,17.047,0,0,1-3.764,13.771c-.226.283-.459.562-.686.844a1.134,1.134,0,0,0-.079.206c.233.245.5.533.771.808q7.05,7.054,14.1,14.107c4.712,4.717,4.722,10.69.023,15.412-3.281,3.3-6.583,6.571-9.847,9.883A7.409,7.409,0,0,0,2110.843,1986.564Zm-53.893-31.283h.07a11.351,11.351,0,0,1-.01,1.415,2.516,2.516,0,0,0,.933,2.27c2.323,2.248,4.565,4.58,6.877,6.84a10.993,10.993,0,0,0,15.821-.015c1.584-1.549,3.014-3.285,4.735-4.66,2.448-1.957,3.27-4.258,3.126-7.4-.242-5.3,4.895-8.567,9.806-6.568a1.238,1.238,0,0,0,1.085-.161c1.652-1.582,3.323-3.156,4.85-4.858a14.26,14.26,0,0,0-6.294-23.2c-5.406-1.7-10.275-.419-14.356,3.52-3.085,2.976-6.073,6.052-9.106,9.081-1.414,1.412-2.118,1.408-3.548-.018-3.163-3.156-6.263-6.379-9.5-9.456a14.268,14.268,0,0,0-20.009,20.331c1.49,1.54,3.036,3.026,4.528,4.565a.913.913,0,0,0,1.213.221,6.915,6.915,0,0,1,9.761,5.374A18.01,18.01,0,0,1,2056.95,1955.281Zm46.94-8.116a5.283,5.283,0,0,1-.784,1.085c-1.162.952-1.687,1.81-1.056,3.525.572,1.555.358,3.437.305,5.169a3.6,3.6,0,0,0,1.245,3.029c1.91,1.765,3.709,3.651,5.453,5.386l-2.564,2.792-4.122-4.265v7H2098.9v-1.274q0-7.791-.007-15.582a5.412,5.412,0,0,0-.154-1.5,3.483,3.483,0,0,0-6.823,1.071c-.021,5.558-.006,11.114-.009,16.672,0,1.852-.436,2.328-2.235,2.464a6.666,6.666,0,0,0-6.263,5.562,65.987,65.987,0,0,0-.217,7.5,6.663,6.663,0,0,0,.071.792H2107.7c-.555-1.928.508-3.058,1.7-4.225q5.144-5.025,10.175-10.165a6.418,6.418,0,0,0,.324-9.051C2114.73,1957.839,2109.424,1952.669,2103.89,1947.165Zm-62.581.187c-.257.236-.5.444-.726.67q-7.2,7.2-14.405,14.408c-3.1,3.11-3.1,6.979,0,10.09,3.308,3.318,6.587,6.665,9.959,9.917,1.175,1.131,1.963,2.289,1.728,3.97-.008.054.062.118.1.185h24.287c0-.434,0-.792,0-1.151-.007-2.107.086-4.22-.045-6.318a6.932,6.932,0,0,0-6.462-6.394c-1.746-.128-2.21-.622-2.212-2.376,0-5.484.032-10.969-.035-16.453a5.019,5.019,0,0,0-.779-2.52,3.21,3.21,0,0,0-3.777-1.164,3.379,3.379,0,0,0-2.391,3.288c-.02,5.411-.009,10.823-.01,16.235v1.144h-3.522v-7.247l-4.024,4.152-2.639-2.4c1.934-1.922,3.842-3.866,5.81-5.748a2.786,2.786,0,0,0,.916-2.177c.041-2.514-.488-5.108.842-7.345Z" transform="translate(-2020.357 -1907.801)" fill="#5bd3a9"/>
        <path id="Trazado_126696" data-name="Trazado 126696" d="M2076.246,1916.513c3.891-4.185,7.837-7.97,13.465-9.568l1.048,3.217c-.661.263-1.263.488-1.854.739a21.533,21.533,0,0,0-6.956,4.777c-1.4,1.42-2.812,2.839-4.242,4.234a1.761,1.761,0,0,1-2.84-.016c-1.375-1.348-2.722-2.724-4.089-4.08-9.374-9.3-23.358-8.74-31.933,1.278-.117.136-.239.268-.429.481l-2.756-2.112c5.346-6.559,12.125-9.9,20.518-9.7S2070.939,1910.193,2076.246,1916.513Z" transform="translate(-2023.929 -1905.699)" fill="#5bd3a9"/>
        <path id="Trazado_126697" data-name="Trazado 126697" d="M2111.067,1905.942l3.678-.26v3.492l-3.14.225Z" transform="translate(-2041.532 -1905.682)" fill="#5bd3a9"/>
        <path id="Trazado_126698" data-name="Trazado 126698" d="M2073.891,2021.127h-3.361v-3.353h3.361Z" transform="translate(-2032.07 -1931.848)" fill="#5bd3a9"/>
        <path id="Trazado_126699" data-name="Trazado 126699" d="M2105.743,2021.132h-3.333v-3.39h3.333Z" transform="translate(-2039.511 -1931.84)" fill="#5bd3a9"/>
      </g>
    </g>
  </g>
</svg>
