<svg xmlns="http://www.w3.org/2000/svg" width="58.461" height="60" viewBox="0 0 58.461 60">
  <g id="icon5" transform="translate(6158 7253)">
    <ellipse id="Elipse_4915" data-name="Elipse 4915" cx="29.231" cy="30" rx="29.231" ry="30" transform="translate(-6158 -7253)" fill="#d2f3e8"/>
    <g id="Grupo_133629" data-name="Grupo 133629" transform="translate(-7173.727 -7717.904)">
      <path id="Trazado_126593" data-name="Trazado 126593" d="M1049.719,543.232c-.588.358-1.1.674-1.617.983-.458.273-.861.21-1.081-.16s-.075-.756.378-1.032c.834-.509,1.674-1.008,2.5-1.529a.868.868,0,0,1,1.03,0c.826.521,1.668,1.018,2.5,1.528.465.285.6.658.384,1.029s-.629.437-1.117.144c-.5-.3-1-.61-1.556-.945v8.32h9.62a25.07,25.07,0,0,1-.688-2.507,10.764,10.764,0,0,1,2.739-9.781,6.8,6.8,0,0,1,5.17-2.174c1.333.016,2.668.044,4-.005a7.476,7.476,0,0,1,6.936,3.849,11.373,11.373,0,0,1-.712,12.8,7.206,7.206,0,0,1-5.987,2.848c-1.317-.032-2.637-.037-3.954,0a7.322,7.322,0,0,1-6.367-3.245.868.868,0,0,0-.8-.4c-3.466.015-6.932.009-10.4.009-.776,0-.977-.2-.977-.966q0-4.11,0-8.22Zm29.447,3.708a9.383,9.383,0,0,0-2.33-6.47,5.482,5.482,0,0,0-8.4-.044,8.859,8.859,0,0,0-2.328,5.585,9.166,9.166,0,0,0,2.554,7.485,5.4,5.4,0,0,0,7.931-.017A9.139,9.139,0,0,0,1079.166,546.94Zm-10.7-8.434c-.15-.011-.218-.017-.286-.02a5.742,5.742,0,0,0-4.822,2.213,10.008,10.008,0,0,0-.316,11.914,6.57,6.57,0,0,0,2.655,2.164,5.4,5.4,0,0,0,2.753.4,11.112,11.112,0,0,1,.017-16.669Z" transform="translate(-15.814 -42.888)" fill="#133d60"/>
      <path id="Trazado_126594" data-name="Trazado 126594" d="M1055.161,490.253c.574-.349,1.063-.648,1.553-.943.523-.314.929-.271,1.161.121.222.376.076.746-.424,1.052-.821.5-1.649.991-2.462,1.5a.866.866,0,0,1-1.029,0c-.838-.529-1.692-1.033-2.536-1.553-.435-.268-.562-.642-.355-1,.217-.377.624-.445,1.079-.174.519.31,1.033.625,1.6.97v-8.309h-9.261c.213.7.486,1.387.633,2.1a10.924,10.924,0,0,1-2.3,9.823,6.943,6.943,0,0,1-5.626,2.554c-1.332-.026-2.666-.041-4,0a7.37,7.37,0,0,1-6.649-3.554,11.313,11.313,0,0,1,.754-13.364,7.1,7.1,0,0,1,5.665-2.577c1.347.025,2.7.037,4.042,0a7.32,7.32,0,0,1,6.342,3.2.878.878,0,0,0,.8.4c3.331-.016,6.662-.01,9.994-.009.83,0,1.01.183,1.01,1.024q0,4.064,0,8.129Zm-11.123-3.01a9.908,9.908,0,0,0-2.245-6.888,5.485,5.485,0,0,0-8.491-.1,9.318,9.318,0,0,0-2.3,7.449,8.918,8.918,0,0,0,2.123,5.171,5.492,5.492,0,0,0,8.579.167A8.845,8.845,0,0,0,1044.039,487.243Zm-10.741-8.878c-.036-.026-.057-.051-.081-.055a1.729,1.729,0,0,0-.177-.009,5.628,5.628,0,0,0-4.78,2.2,9.584,9.584,0,0,0-1.858,8.535,7.8,7.8,0,0,0,3.46,5.175,5.431,5.431,0,0,0,3.487.788,11.1,11.1,0,0,1-.05-16.63Z" transform="translate(0)" fill="#133d60"/>
      <path id="Trazado_126595" data-name="Trazado 126595" d="M1128.037,561.456a16,16,0,0,1-1.546-1.131,2.315,2.315,0,0,1-.676-1.646.7.7,0,0,1,.624-.819c.407-.034.69.22.738.7a1.491,1.491,0,0,0,1.011,1.337,1.66,1.66,0,0,0,1.717-.254,1.306,1.306,0,0,0,.5-1.462,1.515,1.515,0,0,0-1.323-1.1c-.262-.042-.533-.029-.795-.073a2.911,2.911,0,0,1-2.46-2.509,2.851,2.851,0,0,1,1.966-2.986c.1-.035.194-.068.315-.11.012-.11.015-.226.037-.338a.653.653,0,0,1,.667-.593.606.606,0,0,1,.678.565c.029.305.164.407.428.508a2.792,2.792,0,0,1,1.911,2.4c.067.546-.185.912-.624.948-.42.033-.688-.252-.753-.8a1.609,1.609,0,0,0-1.908-1.348,1.488,1.488,0,0,0-1.309,1.777,1.6,1.6,0,0,0,1.426,1.148,5.91,5.91,0,0,1,1.382.271,2.8,2.8,0,0,1,1.8,2.658,2.886,2.886,0,0,1-1.948,2.613c-.216.079-.391.118-.392.43a.672.672,0,0,1-.692.751c-.4-.007-.654-.289-.681-.77-.005-.088-.009-.175-.013-.263Z" transform="translate(-72.024 -52.423)" fill="#133d60"/>
      <path id="Trazado_126596" data-name="Trazado 126596" d="M1064.692,493.862a.709.709,0,0,1-.626.821.691.691,0,0,1-.747-.7,1.465,1.465,0,0,0-.96-1.324,1.664,1.664,0,0,0-1.724.209,1.319,1.319,0,0,0-.564,1.36,1.462,1.462,0,0,0,1.1,1.165,3.015,3.015,0,0,0,.7.09,2.963,2.963,0,0,1,2.786,2.38,2.808,2.808,0,0,1-1.906,3.136c-.276.1-.4.208-.4.522a.673.673,0,0,1-1.345-.011c.01-.327-.144-.408-.405-.511a2.776,2.776,0,0,1-1.923-2.481c-.043-.5.2-.831.613-.871s.692.243.752.744a1.545,1.545,0,0,0,1.25,1.378,1.707,1.707,0,0,0,1.819-.724,1.43,1.43,0,0,0-.915-2.106,3.221,3.221,0,0,0-.7-.09,2.962,2.962,0,0,1-2.8-2.42,2.824,2.824,0,0,1,1.95-3.113.439.439,0,0,0,.364-.454.617.617,0,0,1,.651-.6.628.628,0,0,1,.683.61c.011.287.148.364.376.444A2.854,2.854,0,0,1,1064.692,493.862Z" transform="translate(-24.183 -9.517)" fill="#133d60"/>
    </g>
  </g>
</svg>
