<svg xmlns="http://www.w3.org/2000/svg" xmlns:xlink="http://www.w3.org/1999/xlink" width="165" height="130" viewBox="0 0 165 130">
  <defs>
    <clipPath id="clip-path">
      <rect id="Rectángulo_35886" data-name="Rectángulo 35886" width="165" height="130" transform="translate(1041.332 2279)" fill="#fff" stroke="#707070" stroke-width="1"/>
    </clipPath>
  </defs>
  <g id="icon2-1" transform="translate(-1041.332 -2279)" clip-path="url(#clip-path)">
    <g id="Grupo_133671" data-name="Grupo 133671" transform="translate(10.479 8.063)">
      <g id="Grupo_78348" data-name="Grupo 78348" transform="translate(1057.853 2290.099)">
        <path id="Trazado_113319" data-name="Trazado 113319" d="M1572.434,1085.285h-8.783v-6.015H1587.1v6.015h-14.661Z" transform="translate(-1563.651 -1070.555)" fill="#5bd3a9"/>
      </g>
      <g id="_5wDPPB" data-name="5wDPPB" transform="translate(-2423.103 2207.46)">
        <g id="Grupo_133670" data-name="Grupo 133670" transform="translate(3496.512 69.862)">
          <path id="Trazado_126787" data-name="Trazado 126787" d="M3538.185,136.606c0-2.076.052-4.049-.037-6.016a2.137,2.137,0,0,0-.819-1.3,22.782,22.782,0,0,1-6.949-8.835,21.787,21.787,0,0,1-1.667-8.922c-.626,0-1.2.007-1.774,0a5.683,5.683,0,1,1-.091-11.365c.231-.008.46-.03.84-.055-1.144-2.306-2.268-4.508-3.336-6.737a11.609,11.609,0,0,1,1.337-12.884,26.25,26.25,0,0,1,6.863-6.28,27.221,27.221,0,0,1,37.478,7.837,12.394,12.394,0,0,1,.7,13.241c-.814,1.608-1.754,3.153-2.654,4.756,4.059.651,6.142,2.677,6.086,5.879a4.868,4.868,0,0,1-2.41,4.484,27.2,27.2,0,0,1-4.954,1.537c-.3,1.854-.488,4.022-1.034,6.094a20.1,20.1,0,0,1-7.37,10.868,2.921,2.921,0,0,0-1.3,2.784c.121,1.605.029,3.227.029,4.886,4.812,1.29,9.584,2.488,14.3,3.862,3.356.977,6.851,1.786,9.922,3.374,11.094,5.738,16.877,15.059,17.4,27.533.191,4.53.045,9.076.039,13.614,0,1.685-.679,2.348-2.387,2.348q-48.768,0-97.533,0c-1.691,0-2.349-.672-2.352-2.38-.008-4.3-.016-8.6,0-12.9a31.466,31.466,0,0,1,23.73-30.642C3526.193,139.814,3532.126,138.221,3538.185,136.606Zm-17.065,46.832h53.117v-16.9H3578v16.924h17v-.973c0-3.591.024-7.182-.006-10.772a27.636,27.636,0,0,0-20.184-26.46c-5.839-1.639-11.72-3.122-17.572-4.712-.724-.2-1.033-.051-1.333.638-1.616,3.721-3.287,7.42-4.935,11.128-.107.241-.177.5-.318.9h1.372l12.189-.006c3.775,0,6.155,2.349,6.163,6.1q.014,7.161,0,14.322c-.008,3.752-2.378,6.1-6.164,6.1q-16.568.008-33.135,0c-3.779,0-6.151-2.358-6.157-6.109q-.011-7.161.006-14.323a5.7,5.7,0,0,1,6.057-6.084c4.142-.011,8.284-.006,12.426-.011.374,0,.749-.036,1.288-.064l-5.655-12.746a6.942,6.942,0,0,0-.76.111c-5.783,1.541-11.593,2.991-17.342,4.651-10.8,3.119-17.577,10.235-19.985,21.189-.733,3.338-.5,6.9-.63,10.356-.083,2.235-.016,4.474-.016,6.746H3517.4V166.537h3.721Zm34.5-94.2a16.885,16.885,0,0,1-8.9,4.875,45.96,45.96,0,0,1-4.582.414c-3.686.3-6.583,2.238-9.307,4.508a1.539,1.539,0,0,0-.307,1.056c-.022,4.1-.056,8.2-.008,12.306a16.718,16.718,0,0,0,5.641,12.566c1.248,1.146,2.557,2.227,3.849,3.324a8.535,8.535,0,0,0,11.259.045c1.272-1.061,2.543-2.123,3.775-3.23a16.647,16.647,0,0,0,5.749-12.631c.06-4.456.022-8.914.016-13.371a8.925,8.925,0,0,0-2.937-6.861A41.193,41.193,0,0,0,3555.617,89.235Zm-25.586,7.1c.97-.722,1.8-1.318,2.6-1.942a17.592,17.592,0,0,1,8.982-3.616c1.525-.17,3.081-.144,4.58-.434a13.588,13.588,0,0,0,7.288-4.348c1.145-1.205,1.788-1.254,3.22-.4,1.286.767,2.581,1.521,3.837,2.333a13.179,13.179,0,0,1,5.308,6.758c.1.262.216.515.379.9.474-.84.9-1.505,1.239-2.21a8.808,8.808,0,0,0-.51-9.116c-8.759-13.6-28.937-14.18-38.516-1.114a7.625,7.625,0,0,0-1.053,7.722C3528.12,92.686,3529.091,94.41,3530.031,96.33Zm17.62,60.677v0q-8.284,0-16.568,0c-1.7,0-2.36.669-2.364,2.368q-.012,7.1,0,14.2c0,1.7.668,2.365,2.366,2.366q16.568.006,33.136-.007c1.7,0,2.361-.67,2.365-2.369q.015-7.043.007-14.086c0-1.852-.639-2.475-2.492-2.475Zm-5.671-24.16c0,1.277-.051,2.343.031,3.4a1.384,1.384,0,0,0,.637.939q2.173,1.187,4.427,2.226a1.579,1.579,0,0,0,1.179,0c1.5-.69,2.975-1.443,4.436-2.216.268-.142.6-.47.616-.729.066-1.152.029-2.311.029-3.615A12.216,12.216,0,0,1,3541.979,132.848Zm9.217,9.619-.17-.362c-2.254,2.052-4.527,1.863-6.812.027l-.11.328c1.148,2.566,2.3,5.133,3.555,7.945ZM3528.618,107.7v-3.667c-2.542-.211-3.619.31-3.681,1.738C3524.874,107.246,3525.962,107.831,3528.618,107.7Zm38.024.025c1.311-.05,2.7.423,3.408-.944a2.359,2.359,0,0,0-.066-1.959c-.773-1.293-2.117-.806-3.342-.815Z" transform="translate(-3496.512 -69.862)" fill="#fff"/>
        </g>
      </g>
    </g>
  </g>
</svg>
