<svg xmlns="http://www.w3.org/2000/svg" xmlns:xlink="http://www.w3.org/1999/xlink" width="165" height="130.141" viewBox="0 0 165 130.141">
  <defs>
    <clipPath id="clip-path">
      <rect id="Rectángulo_35879" data-name="Rectángulo 35879" width="165" height="130.141" transform="translate(416.66 2275.167)" fill="#fff" stroke="#707070" stroke-width="1"/>
    </clipPath>
  </defs>
  <g id="icon1-1" transform="translate(-416.66 -2275.167)" clip-path="url(#clip-path)">
    <g id="Grupo_133657" data-name="Grupo 133657" transform="translate(441.483 2294.095)">
      <g id="Grupo_78348" data-name="Grupo 78348" transform="translate(0 0)">
        <path id="Trazado_113319" data-name="Trazado 113319" d="M1572.461,1094.071v-8.741h-8.81V1079.3h8.81v-8.741h5.874v8.741h8.833v6.034h-8.833v8.741Z" transform="translate(-1563.651 -1070.555)" fill="#ffb840"/>
      </g>
      <g id="Grupo_89213" data-name="Grupo 89213" transform="translate(11.758 -11.378)">
        <g id="upfbXb">
          <g id="Grupo_89208" data-name="Grupo 89208">
            <path id="Trazado_122296" data-name="Trazado 122296" d="M2483.678,1997.236a59.65,59.65,0,0,1,1.393-7.008c4.619-14.347,14.365-22.885,29.282-25.337,2.378-.391,4.825-.369,7.277-.54.3-.858,0-1.413-.788-2a19.753,19.753,0,0,1-8.414-16.075c-.089-3.246-.015-6.5-.015-9.753-.918-.221-1.754-.395-2.574-.625-.9-.251-1.668-.843-1.652-1.768.056-3.427-.144-6.926.479-10.262,1.013-5.433,5.886-9.563,11.362-10.4a2.063,2.063,0,0,0,1.338-.751,16.539,16.539,0,0,1,18.076-8.055,22.351,22.351,0,0,1,18.471,22.315c.014,2.244.008,4.488,0,6.733-.007,2.152-.775,2.926-2.89,2.935-.7,0-1.4,0-2.379,0v13.936h1.55c3.927,0,7.855-.018,11.783.009,1.985.013,3.144,1.753,2.255,3.326a2.259,2.259,0,0,1-2.152,1.157c-2.133-.014-4.264,0-6.4,0q-12.568,0-25.136,0c-5.193,0-8.317,3.107-8.321,8.3q-.014,16.159,0,32.318c0,5.192,3.122,8.285,8.322,8.285q25.641,0,51.282,0c5.121,0,8.276-3.136,8.277-8.228q0-16.271,0-32.542c0-4.677-2.859-7.772-7.486-8.131a2.279,2.279,0,0,1-2.352-2.32,2.34,2.34,0,0,1,2.638-2.153,12.09,12.09,0,0,1,11.682,12.229q.051,14.419,0,28.839a50.394,50.394,0,0,1-.227,6.713,11.885,11.885,0,0,1-11.271,10.052c-1.9.069-3.811.011-5.5.011l-3.057,6.265c1.38.192,3.431-.482,3.979,1.879.3,1.273-.536,1.989-1.429,2.648h-85.741a7.3,7.3,0,0,0-.719-.232,13.035,13.035,0,0,1-9.07-6.479,34.665,34.665,0,0,1-1.883-4.96Zm38.32,3.142c-.091-2.8-.239-5.47-.251-8.146-.035-7.293-.012-14.586-.012-21.879v-1.213c-1.894,0-3.618-.109-5.324.017a30.953,30.953,0,0,0-27.39,23.507c-.98,4.136-.845,8.313-.85,12.5-.006,5.779,3.777,9.577,9.527,9.581q11.388.009,22.777,0c.393,0,.786-.034,1.2-.053v-9.821h-14.4c-2.077,0-3.121-.724-3.158-2.189-.039-1.5,1.051-2.3,3.157-2.3Zm31.416-68.291c0-2.026.058-3.93-.01-5.831a17.853,17.853,0,0,0-18.33-17.441,11.667,11.667,0,0,0,.517,23.323c5.644.053,11.289.014,16.934.012C2552.779,1932.151,2553.034,1932.116,2553.414,1932.088Zm-36.516,4.376c0,3.105-.046,6.131.02,9.155a20.1,20.1,0,0,0,.463,4.106,15.065,15.065,0,0,0,5.214,8.333c.225-.421.395-.75.574-1.074a11.763,11.763,0,0,1,8.166-6.109,21.247,21.247,0,0,1,4.127-.285c4.035-.035,8.07-.013,12.2-.013,1.2-4.625.423-9.256.7-13.936h-1.384c-3.852,0-7.7.019-11.556-.013a15.83,15.83,0,0,1-9.5-3.209c-.261-.193-.536-.364-.8-.543A17.222,17.222,0,0,1,2516.9,1936.464Zm5.26-6.948a16.659,16.659,0,0,1-2.638-11.274,9.082,9.082,0,0,0-6.613,6.936,59.9,59.9,0,0,0-.409,6.752A12.412,12.412,0,0,0,2522.157,1929.516Zm29.213,79.005h-14.059l1.321,6.146h12.738Zm4.593,6.165h8.412v-6.152h-8.412Zm-29.644-6.135v6.131h7.411C2534.405,2010.391,2531.492,2007.98,2526.319,2008.551Zm42.674,6.062c3.53-.214,7.2-3.254,7.443-6.077h-7.443Z" transform="translate(-2483.678 -1904.292)" fill="#fff"/>
            <path id="Trazado_122297" data-name="Trazado 122297" d="M2795.036,2218.413a8.338,8.338,0,1,1,8.341-8.349A8.314,8.314,0,0,1,2795.036,2218.413Zm.038-12.186a3.848,3.848,0,1,0,3.813,3.875A3.82,3.82,0,0,0,2795.073,2206.227Z" transform="translate(-2718.535 -2134.844)" fill="#fff"/>
            <path id="Trazado_122298" data-name="Trazado 122298" d="M2888.185,2110.168a2.284,2.284,0,0,1,2.223,2.313,2.238,2.238,0,0,1-4.474-.136A2.294,2.294,0,0,1,2888.185,2110.168Z" transform="translate(-2795.469 -2063.868)" fill="#fff"/>
            <path id="Trazado_122299" data-name="Trazado 122299" d="M2661.226,2070.838a2.176,2.176,0,0,1,2.287-2.111,2.216,2.216,0,1,1-.2,4.425A2.187,2.187,0,0,1,2661.226,2070.838Z" transform="translate(-2621.296 -2031.746)" fill="#fff"/>
            <path id="Trazado_122300" data-name="Trazado 122300" d="M2723.105,2070.835a2.176,2.176,0,0,1,2.291-2.107,2.216,2.216,0,1,1-.207,4.425A2.188,2.188,0,0,1,2723.105,2070.835Z" transform="translate(-2669.259 -2031.746)" fill="#fff"/>
          </g>
        </g>
      </g>
    </g>
  </g>
</svg>
