<svg xmlns="http://www.w3.org/2000/svg" width="63" height="63" viewBox="0 0 63 63">
  <g id="icon4" transform="translate(-12322.335 11173.024)">
    <path id="Trazado_122758" data-name="Trazado 122758" d="M31.5,0A31.5,31.5,0,1,1,0,31.5,31.5,31.5,0,0,1,31.5,0Z" transform="translate(12322.335 -11173.024)" fill="#5bd3a9"/>
    <g id="Grupo_133690" data-name="Grupo 133690" transform="translate(10091.893 -11234.574)">
      <path id="Trazado_126867" data-name="Trazado 126867" d="M2280.543,118.685c-.676.02-1.354-.011-2.03.012-.28.009-.335-.081-.327-.34.019-.561.021-1.125,0-1.686a4.268,4.268,0,0,0-1.215-2.854.742.742,0,0,1-.227-.569c.008-2.631,0-5.262.007-7.893a6.811,6.811,0,0,0-.613-2.97,6.976,6.976,0,0,0-7.563-3.95,6.834,6.834,0,0,0-5.779,6.555c-.047,2.758-.016,5.517-.012,8.276a.7.7,0,0,1-.212.537,4.243,4.243,0,0,0-1.174,2.355,15.016,15.016,0,0,0-.059,2.217c0,.236-.04.338-.306.321-.394-.025-.792-.014-1.187,0a.773.773,0,0,0-.829.64c.01.612.275.886.885.889,1.046.006,2.091.01,3.136,0,.242,0,.294.068.292.3-.011,1.453-.006,2.907-.005,4.361,0,.754.262,1.018,1.008,1.019s1.479,0,2.219,0c.633,0,.844-.165,1-.768.025-.012.05-.019.074-.029a.924.924,0,0,0-.981-.851c-.421-.016-.843-.011-1.264,0-.294.005-.406-.118-.4-.411.008-1.022.01-2.044,0-3.065,0-.313.117-.429.427-.428q4.368.007,8.735,0c.284,0,.418.1.415.4-.007,1.035-.009,2.069,0,3.1,0,.3-.128.4-.413.4-.485-.005-.971-.024-1.456.01a.935.935,0,0,0-.943.837c.028.011.056.021.083.035.15.589.367.765.964.767q1.226,0,2.453,0c.68,0,.96-.278.962-.952,0-1.457.009-2.913-.006-4.37,0-.282.06-.364.352-.358,1.06.02,2.121.017,3.181,0,.257,0,.313.074.312.319q-.014,3.45,0,6.9c0,.267-.09.305-.325.305q-9.179-.009-18.359,0c-.261,0-.344-.054-.341-.33a19.689,19.689,0,0,0-.037-2.68,4.9,4.9,0,0,0-4.364-4.354c-.528-.089-1.055-.189-1.579-.3a.818.818,0,0,1-.708-.613h0c-.15-.225-.011-.334.164-.451a5.109,5.109,0,0,0,2.385-4.336c.028-1.034.022-2.069,0-3.1a5.2,5.2,0,0,0-10.35-.606,26.929,26.929,0,0,0-.065,3.4,5.172,5.172,0,0,0,2.424,4.662.331.331,0,0,1,.13.479,1.056,1.056,0,0,1-.9.614c-.589.109-1.179.212-1.768.322a4.9,4.9,0,0,0-3.961,4.126.426.426,0,0,1-.066.4v3.68a1.07,1.07,0,0,0,.613.613h38.021a1.069,1.069,0,0,0,.613-.613V119.3A.931.931,0,0,0,2280.543,118.685Zm-16.069-14.823a5.468,5.468,0,0,1,5.387-4.006,5.387,5.387,0,0,1,5.276,4.5,25.358,25.358,0,0,1,.073,3.212c.01.332,0,.664,0,1,0,1.252-.007,2.5.005,3.754,0,.278-.044.338-.339.264-.654-.165-1.322-.276-1.985-.4a1.044,1.044,0,0,1-.425-.158c-.348-.248-.345-.471-.006-.714a4.634,4.634,0,0,0,2.034-3.682c.045-.879.014-1.762.015-2.643a.791.791,0,0,0-.42-.723c-.857-.5-1.71-1.016-2.573-1.51a.741.741,0,0,0-1.036.158,3.874,3.874,0,0,1-3.189,1.279c-.5-.017-1-.011-1.493,0a.707.707,0,0,0-.773.69,16.245,16.245,0,0,0,.123,3.626,4.652,4.652,0,0,0,1.849,2.769c.126.094.375.111.323.358a.62.62,0,0,1-.484.491c-.445.106-.9.182-1.348.271a5.378,5.378,0,0,0-.821.176c-.341.127-.367-.013-.366-.3.009-1.9,0-3.806.008-5.708A10.784,10.784,0,0,1,2264.474,103.862Zm4.6,6.695a3.219,3.219,0,0,1-2.527-3.028c-.017-.5.013-1-.014-1.493-.016-.291.1-.327.35-.32a6.888,6.888,0,0,0,2.422-.254,4.879,4.879,0,0,0,1.693-.939.319.319,0,0,1,.458-.037c.429.274.872.527,1.317.776a.345.345,0,0,1,.211.356c-.015.344,0,.689,0,1.2a3.988,3.988,0,0,1-.381,2.109A3.237,3.237,0,0,1,2269.075,110.557Zm1.79,3.042c-.339.413-.642.856-.951,1.293-.111.156-.185.171-.3.005-.407-.57-.824-1.133-1.238-1.7-.052-.071-.136-.143-.065-.234a3.651,3.651,0,0,0,.481-.819c.04-.095.16-.042.245-.043a3.836,3.836,0,0,0,1.444,0c.158-.03.27,0,.32.174a.59.59,0,0,0,.125.275C2271.365,112.935,2271.153,113.249,2270.865,113.6Zm5.484,5.1c-2.2-.01-4.391-.005-6.587-.005s-4.366-.005-6.548.006c-.279,0-.378-.056-.36-.352.028-.458,0-.919.008-1.378a2.9,2.9,0,0,1,2.378-2.957c.435-.1.882-.145,1.313-.256a.378.378,0,0,1,.468.192c.657.91,1.323,1.814,1.989,2.718.491.666,1.009.667,1.5,0q1-1.356,1.987-2.719a.38.38,0,0,1,.469-.193c.505.129,1.029.185,1.533.319a2.846,2.846,0,0,1,2.154,2.7c.022.535-.007,1.073.014,1.608C2276.675,118.632,2276.6,118.7,2276.349,118.7Zm-28.337-3.865a25.506,25.506,0,0,1,.042-3.673,3.667,3.667,0,0,1,7.293.572c.011.485,0,.97,0,1.582a8.77,8.77,0,0,1-.22,2.567,3.689,3.689,0,0,1-5.729,1.654A3.563,3.563,0,0,1,2248.012,114.83Zm4.672,5.393c-.344.095-.686.192-1.015.285-.384-.108-.752-.21-1.119-.317-.148-.043-.092-.142-.066-.245.039-.153.116-.211.272-.174a4.559,4.559,0,0,0,1.3.067,3.042,3.042,0,0,0,.529-.07c.191-.044.238.063.291.207C2252.941,120.172,2252.811,120.189,2252.684,120.223Zm6.441,7.521c-2.49-.014-4.979-.008-7.469-.008s-4.954,0-7.431.006c-.289,0-.39-.056-.382-.369.021-.864,0-.864.876-.864,1.4,0,2.809,0,4.214,0,.525,0,.844-.235.9-.642.074-.532-.269-.886-.882-.889-1.3-.006-2.6,0-3.907,0h-.689c-.541,0-.553,0-.395-.542a3.369,3.369,0,0,1,2.763-2.5,20.433,20.433,0,0,0,2.393-.5.617.617,0,0,1,.373.042c.613.173,1.227.343,1.838.524a1.166,1.166,0,0,0,.676,0,7.65,7.65,0,0,1,2.134-.541,15.281,15.281,0,0,1,2.13.4,3.959,3.959,0,0,1,2.139.932,3.38,3.38,0,0,1,1.081,2.529c.006.677-.013,1.354.008,2.03C2259.505,127.657,2259.434,127.746,2259.125,127.744Z" transform="translate(0 -17.762)" fill="#133d60"/>
      <path id="Trazado_126868" data-name="Trazado 126868" d="M2245.223,86.656c.215.02.16.153.16.267q0,1.092,0,2.185a.951.951,0,0,0,.146.582c.3.429.837.43,1.282-.011q1.4-1.39,2.787-2.8a.674.674,0,0,1,.533-.221q2.338.014,4.675,0a3.038,3.038,0,0,0,3.147-3.135c.006-.511.008-1.022,0-1.533,0-.176.035-.259.229-.24a2.293,2.293,0,0,0,.5,0,.875.875,0,0,1,.8.322c.588.622,1.208,1.213,1.809,1.822a.818.818,0,0,0,.962.262.8.8,0,0,0,.464-.846c-.008-.4.018-.793-.008-1.187-.019-.287.069-.371.359-.407a2.908,2.908,0,0,0,2.681-2.774c.079-1.285.039-2.579.01-3.869a2.818,2.818,0,0,0-.825-1.886,3.374,3.374,0,0,0-1.835-.94H2252.82a2.817,2.817,0,0,0-2.461,1.67,3.8,3.8,0,0,0-.332,1.865c0,.471-.024.5-.5.5-1.341,0-2.681,0-4.021,0a3.216,3.216,0,0,0-1.554.345,2.819,2.819,0,0,0-1.635,2.444v4.907A3.053,3.053,0,0,0,2245.223,86.656Zm6.443-10.574c.021-.254,0-.511.006-.766a1.491,1.491,0,0,1,1.532-1.525c1.162-.012,2.325,0,3.488,0q2.932,0,5.864,0a1.521,1.521,0,0,1,1.686,1.68q0,1.533,0,3.067a1.523,1.523,0,0,1-1.674,1.693h-.115c-1.1,0-1.237.134-1.278,1.214a1.023,1.023,0,0,1-.036.149c-.337-.339-.657-.644-.958-.968a1.154,1.154,0,0,0-.95-.4c-.395.018-.874.138-1.165-.039s-.077-.7-.129-1.065a3.039,3.039,0,0,0-3.085-2.723q-1.437-.018-2.875,0C2251.721,76.406,2251.646,76.329,2251.666,76.082Zm-7.8,3.294a1.478,1.478,0,0,1,1.6-1.447q4.463-.006,8.927,0c.191,0,.383-.005.574,0a1.471,1.471,0,0,1,1.449,1.446q.031,2.145,0,4.291a1.47,1.47,0,0,1-1.547,1.463c-1.673.008-3.346.015-5.018-.005a1.444,1.444,0,0,0-1.149.485c-.557.591-1.143,1.154-1.783,1.8,0-.541.008-.975,0-1.409a.791.791,0,0,0-.859-.862c-.255-.008-.511.006-.766-.006a1.463,1.463,0,0,1-1.429-1.424Q2243.827,81.542,2243.861,79.376Z" transform="translate(0 0)" fill="#133d60"/>
      <path id="Trazado_126869" data-name="Trazado 126869" d="M2325.556,129.137a.406.406,0,0,1-.483,0,.72.72,0,0,0-1.008.184.761.761,0,0,0,.123,1.03,1.6,1.6,0,0,0,1.1.439,1.663,1.663,0,0,0,1.156-.437.753.753,0,0,0,.123-1.028A.715.715,0,0,0,2325.556,129.137Z" transform="translate(-55.561 -38.644)" fill="#133d60"/>
      <path id="Trazado_126870" data-name="Trazado 126870" d="M2322.033,124.324a.758.758,0,0,0-.724-.776.775.775,0,0,0-.787.757.759.759,0,0,0,.749.753A.745.745,0,0,0,2322.033,124.324Z" transform="translate(-53.25 -34.925)" fill="#133d60"/>
      <path id="Trazado_126871" data-name="Trazado 126871" d="M2332.891,124.294a.782.782,0,0,0-.753-.757.764.764,0,0,0-.756.784.742.742,0,0,0,.766.729A.756.756,0,0,0,2332.891,124.294Z" transform="translate(-60.643 -34.918)" fill="#133d60"/>
    </g>
  </g>
</svg>
