<svg xmlns="http://www.w3.org/2000/svg" width="63" height="63" viewBox="0 0 63 63">
  <g id="icon3" transform="translate(-12050 11173)">
    <path id="Trazado_122756" data-name="Trazado 122756" d="M31.5,0A31.5,31.5,0,1,1,0,31.5,31.5,31.5,0,0,1,31.5,0Z" transform="translate(12050 -11173)" fill="#5bd3a9"/>
    <g id="Grupo_133689" data-name="Grupo 133689" transform="translate(11670.38 -11220.421)">
      <path id="Trazado_126860" data-name="Trazado 126860" d="M422.07,60.534a.956.956,0,0,0-.646-.019c-.307.108-.307.419-.307.7q.007,8.747.01,17.493c0,.15,0,.3,0,.446h-7.173v-.415q0-1.786,0-3.571a2.629,2.629,0,0,0-2.551-2.722c-.769-.008-1.538-.01-2.308-.016-.141,0-.282-.013-.429-.019V69.284h.464q2.723,0,5.446,0c.487,0,.69-.193.691-.668q.006-3.751,0-7.5c0-.5-.18-.681-.669-.686-.721-.007-1.443-.009-2.164,0-.572.008-.769.22-.769.8q0,2.074,0,4.148v.388h-2.882a3.28,3.28,0,1,0-5.058.034c-.564,0-1.087.009-1.61,0a1.976,1.976,0,0,0-1.381.516c-1.519,1.312-3.047,2.615-4.567,3.926a1.791,1.791,0,0,0,.152,3.032l2.551,1.824c.839.6.924.587,1.574-.222q.522-.65,1.046-1.3l.074.036V74c0,3.523-.007,7.045.01,10.568a.74.74,0,0,1-.458.769,3.326,3.326,0,0,0-1.282,4.438c.141.256.31.5.5.793h-.44c-1.31,0-2.621-.014-3.931.007a3.356,3.356,0,0,0-1.53,6.33,8.747,8.747,0,0,0,1.352.452h20.2c.117-.129.286-.239.341-.391.159-.44-.061-.711-.573-.758a2.26,2.26,0,0,1-2.132-2.032,2.236,2.236,0,0,1,1.938-2.447c.92-.07,1.846-.079,2.77-.088,1.334-.014,2.668,0,4,0a2.529,2.529,0,0,0,.359-.02.554.554,0,0,0-.032-1.1,2.446,2.446,0,0,1-1.491-.553,2.259,2.259,0,0,1-.694-2.414,2.128,2.128,0,0,1,1.975-1.529c2.1-.043,4.2-.042,6.308-.046a.823.823,0,0,0,.792-.373v-.361a.874.874,0,0,0-.778-.419,2.225,2.225,0,0,1-2.052-2.241,2.279,2.279,0,0,1,2.074-2.241.788.788,0,0,0,.756-.439v-.289a.756.756,0,0,0-.793-.427c-2.008.009-4.016,0-6.023,0h-.474v-.415c0-3.486,0-6.973-.008-10.459a.518.518,0,0,1,.375-.552q3.172-1.419,6.331-2.868a3.6,3.6,0,0,0,.594-.434v-.361a2.747,2.747,0,0,0-.521-.414Q425.556,62.09,422.07,60.534ZM406.242,61.56a2.141,2.141,0,0,1-.015,4.282,2.115,2.115,0,0,1-2.15-2.139A2.161,2.161,0,0,1,406.242,61.56Zm-4.7,11.238-1.627-1.129,1.627-1.338Zm-2.786-1.651a.617.617,0,0,0,.091,1.055c.483.335.972.663,1.5,1.023l-.7.938c-.949-.675-1.874-1.322-2.786-1.987a.591.591,0,0,1-.082-.863,1.64,1.64,0,0,1,.206-.2c1.495-1.286,2.994-2.566,4.483-3.859a1.3,1.3,0,0,1,.915-.337q4.815.012,9.629,0c.78,0,.9-.121.9-.893q0-2,0-4v-.441h1.2V68.15h-5.753c-.682,0-.86.175-.861.852q0,1.876,0,3.751c0,.655.153.8.809.8.926,0,1.852,0,2.778,0a1.563,1.563,0,0,1,1.722,1.721c0,1.26,0,2.521,0,3.808h-1.167V77.723c0-.673,0-1.347,0-2.02,0-.47-.182-.671-.652-.674q-3.264-.015-6.529,0c-.5,0-.657.214-.657.783q0,4.239,0,8.477v.5h-1.042v-.438q0-7.485,0-14.97a2.726,2.726,0,0,0-.011-.4.593.593,0,0,0-.973-.4Q400.256,69.847,398.758,71.148Zm7.67,13.406c.047.068.1.136.143.2.005.008,0,.022,0,.06h-1.546V76.176h5.46v3.007c-.4,0-.806,0-1.209,0a3.382,3.382,0,0,0-3.366,2.527A3.258,3.258,0,0,0,406.428,84.553Zm6.751,11.594a1.6,1.6,0,0,1-.236.037q-8.4,0-16.8,0a2.257,2.257,0,0,1-2.332-1.976,2.218,2.218,0,0,1,1.944-2.465c.179-.015.36-.016.54-.016h16.888A3.524,3.524,0,0,0,413.179,96.148Zm6.472-5.666q-8.309,0-16.618,0a2.24,2.24,0,0,1-2.417-2.528,2.2,2.2,0,0,1,1.9-1.922c.215-.021.432-.031.647-.031q8.219.008,16.437.021c.115,0,.23.011.408.02a3.426,3.426,0,0,0,.029,4.42C419.872,90.47,419.761,90.482,419.651,90.482Zm6.412-10.161h.328c-1.09,2.01-1.092,2.568-.016,4.488-.144.01-.266.025-.388.025q-8.292,0-16.584,0a2.26,2.26,0,0,1-.428-4.5,3.582,3.582,0,0,1,.36-.013Z" fill="#133d60"/>
      <path id="Trazado_126861" data-name="Trazado 126861" d="M406.217,125.011H405.14V126.1h1.077Z" transform="translate(-9.091 -46.899)" fill="#133d60"/>
      <path id="Trazado_126862" data-name="Trazado 126862" d="M406.214,136.361h-1.079v1.1h1.079Z" transform="translate(-9.087 -55.14)" fill="#133d60"/>
      <path id="Trazado_126863" data-name="Trazado 126863" d="M405.141,148.857h1.067v-1.091h-1.067Z" transform="translate(-9.091 -63.422)" fill="#133d60"/>
      <path id="Trazado_126864" data-name="Trazado 126864" d="M488,88.955h-1.071v1.1H488Z" transform="translate(-68.475 -20.719)" fill="#133d60"/>
      <path id="Trazado_126865" data-name="Trazado 126865" d="M488.01,100.35h-1.05v1.086h1.05Z" transform="translate(-68.5 -28.993)" fill="#133d60"/>
      <path id="Trazado_126866" data-name="Trazado 126866" d="M487.871,111.689c-.3-.022-.609-.01-.907-.01v1.09h1.082c0-.319.012-.595-.008-.868C488.032,111.823,487.934,111.694,487.871,111.689Z" transform="translate(-68.503 -37.217)" fill="#133d60"/>
    </g>
  </g>
</svg>
