<svg xmlns="http://www.w3.org/2000/svg" xmlns:xlink="http://www.w3.org/1999/xlink" width="127" height="112" viewBox="0 0 127 112">
  <defs>
    <clipPath id="clip-path">
      <rect id="Rectángulo_35875" data-name="Rectángulo 35875" width="127" height="112" transform="translate(263.999 7677)" fill="#fff" stroke="#707070" stroke-width="1"/>
    </clipPath>
  </defs>
  <g id="icon1" transform="translate(-263.999 -7677)" clip-path="url(#clip-path)">
    <g id="c3Bdwx" transform="translate(-2036.992 7435.951)">
      <g id="Grupo_133648" data-name="Grupo 133648" transform="translate(2310.764 242.049)">
        <path id="Trazado_126691" data-name="Trazado 126691" d="M2941.7,341.552a136.568,136.568,0,0,1-24.307-14.061c-8.1-5.929-15.388-12.667-20.912-21.137a44.2,44.2,0,0,1-7.491-25.242c.146-11.514.048-23.032.079-34.547a10.412,10.412,0,0,1,8.318-10.523c2.329-.51,4.576.109,6.846.418a58.466,58.466,0,0,0,31.085-3.881,17.681,17.681,0,0,1,14.334-.064,58.673,58.673,0,0,0,33.734,3.539c6.754-1.2,12.589,3.357,12.648,10.237.109,12.631.2,25.266,0,37.893-.14,9.022-3.635,16.992-8.811,24.265a78.9,78.9,0,0,1-14.079,14.835c-.975.811-1.931.837-2.576.1-.674-.765-.489-1.755.519-2.6A72.41,72.41,0,0,0,2986.342,304a40.831,40.831,0,0,0,6.556-22.662c-.124-11.55-.049-23.1-.073-34.655-.008-3.712-1.985-6.524-5.325-7.317a9.612,9.612,0,0,0-3.726-.061,62.353,62.353,0,0,1-35.226-3.755,14.7,14.7,0,0,0-11.918-.018,61.711,61.711,0,0,1-35.323,3.725c-5.1-.9-8.989,2.292-9,7.486-.022,11.264.132,22.531-.091,33.792-.2,10.208,3.073,19.116,9.112,27.158,5.528,7.362,12.4,13.289,19.89,18.546a132.015,132.015,0,0,0,20.459,11.732,1.937,1.937,0,0,0,1.813-.02,132.965,132.965,0,0,0,20.725-11.921c.147-.1.294-.208.446-.3a1.652,1.652,0,0,1,2.46.323,1.6,1.6,0,0,1-.614,2.32c-2.139,1.458-4.285,2.907-6.467,4.3a134.13,134.13,0,0,1-16.612,8.88Z" transform="translate(-2888.989 -231.029)" fill="#5bd3a9"/>
        <path id="Trazado_126692" data-name="Trazado 126692" d="M2913.37,312.076V306c-3.576-1.3-4.578-2.728-4.578-6.446,0-1.008-.012-2.016,0-3.023.019-1.17.644-1.906,1.6-1.918s1.616.723,1.632,1.881c.018,1.3-.009,2.591.009,3.886a2.06,2.06,0,1,0,4.094.013c.012-4.966-.007-9.932.018-14.9,0-.777-.216-1.124-1.04-1.079-.967.053-1.939.013-3.077.013,0,1.28,0,2.523,0,3.766-.006,1.362-.582,2.088-1.634,2.077s-1.614-.73-1.6-2.112a82.328,82.328,0,0,1,.191-9.375c.644-5.135,4.824-8.536,10.013-8.6.285,0,.572,0,.919,0,.18-1.246.243-2.239-.909-3.237a9.675,9.675,0,0,1-.519-13.9,9.8,9.8,0,0,1,13.948-.265,9.65,9.65,0,0,1-.082,13.984,3.216,3.216,0,0,0-1.084,3.394,10.749,10.749,0,0,1,7.535,2.413,8.889,8.889,0,0,1,6.975-1.858,9.093,9.093,0,0,1,6.093,4c1.009-3.77,1.955-7.364,2.935-10.948a9.568,9.568,0,0,1,6.485-6.945,9.792,9.792,0,0,1,12.691,7.687c.88,4.441,1.756,8.884,2.693,13.313a3.9,3.9,0,0,0,.92,1.73,10.282,10.282,0,0,1,2.871,7.018c.03,2.915.012,5.83.006,8.745,0,1.331-.622,2.088-1.658,2.065-1-.023-1.567-.751-1.577-2.032-.008-1.079,0-2.157,0-3.241a4.173,4.173,0,0,0-3.219,4.033c-.057,4.642-.036,9.284-.021,13.926a1.584,1.584,0,0,0,1.6,1.679,1.6,1.6,0,0,0,1.627-1.66c.037-2.087.009-4.174.017-6.261,0-1.276.583-2.017,1.571-2.048,1.025-.031,1.654.745,1.665,2.07.007.994,0,1.989,0,3.329.672-.916,1.161-1.558,1.625-2.217a36.424,36.424,0,0,0,7.045-22.094c-.181-11.225-.068-22.454-.083-33.681,0-2.042-.449-2.422-2.457-2.082a68.052,68.052,0,0,1-38.685-4.295,8.17,8.17,0,0,0-6.7.05,64.019,64.019,0,0,1-13.481,4.1c-1.237.235-2.088-.18-2.3-1.153s.385-1.75,1.6-1.992a66.205,66.205,0,0,0,13.167-4.027,11.053,11.053,0,0,1,9.008.063,64.559,64.559,0,0,0,31.338,4.809c2.146-.184,4.273-.581,6.411-.871a4.543,4.543,0,0,1,5.312,4.222c.035.393.023.791.023,1.186.015,11.371-.069,22.744.075,34.114a38.762,38.762,0,0,1-7.178,22.862c-5.437,7.955-12.537,14.214-20.338,19.737a133.337,133.337,0,0,1-18.87,11.048,2.85,2.85,0,0,1-2.748-.03c-11.045-5.4-21.364-11.886-30.305-20.4-5.7-5.431-10.533-11.509-13.49-18.911a34.716,34.716,0,0,1-2.527-13.045q.025-17.813.044-35.625c.006-3.77,2.309-5.732,6.009-5.065a68.226,68.226,0,0,0,15.8.945c1.277-.067,2.035.469,2.1,1.477s-.6,1.66-1.883,1.739a69.576,69.576,0,0,1-15.913-.845c-.426-.072-.848-.169-1.277-.211a1.3,1.3,0,0,0-1.575,1.236,7.368,7.368,0,0,0-.025,1.078c-.014,11.155.114,22.313-.086,33.465a36.571,36.571,0,0,0,7.671,23.074c1.645,2.212,3.49,4.275,5.244,6.405Zm22.372-30.974a22.037,22.037,0,0,1,.03-3.06,24.282,24.282,0,0,1,.843-3.065,6.948,6.948,0,0,0-5.257-1.528c-.222.017-.5.342-.612.587a5.59,5.59,0,0,1-10.318-.039,1.045,1.045,0,0,0-.644-.555,6.857,6.857,0,0,0-7.635,7.745c1.087,0,2.193-.009,3.3,0a3.718,3.718,0,0,1,3.922,3.929c.018,3.02,0,6.039,0,9.059v3.111h1.269c2.517,0,5.034-.04,7.549.021.913.022,1.358-.217,1.507-1.164a3.668,3.668,0,0,1,.736-1.882c1.623-1.721,1.4-3.8,1.374-5.871-.01-.934,0-1.869,0-2.8C2931.816,282.789,2932.911,281.522,2935.742,281.1Zm13.966,7.565a4.21,4.21,0,0,0,.442.1,10.224,10.224,0,0,1,8.165,5.3,1.49,1.49,0,0,0,1.113.527c3.524.04,7.049.007,10.572.038a1.055,1.055,0,0,0,1.229-.836,7.749,7.749,0,0,1,4.322-4.7c.544-.247,1.118-.429,1.685-.644,0-.674.012-1.285,0-1.895a6.8,6.8,0,0,0-6.733-6.747,1.364,1.364,0,0,0-1.03.606,5.63,5.63,0,0,1-10.311.016,1.364,1.364,0,0,0-1.021-.625,6.742,6.742,0,0,0-5.807,3.338,8.451,8.451,0,0,1-1.662,2.23C2949.474,286.3,2949.59,287.423,2949.708,288.667Zm23.9,26.054c-2.585-2.072-2.856-2.649-2.856-5.938V297.945h-11.24v.839c0,4.136.012,8.272,0,12.407a4.441,4.441,0,0,1-4.965,4.786,5.845,5.845,0,0,0-.591.033v2.964c4.831,0,9.574,0,14.317-.007a.98.98,0,0,0,.594-.174C2970.448,317.452,2972.016,316.092,2973.606,314.721Zm-38.713,1.243c-.246,0-.385-.005-.525,0-3.2.14-5.065-1.645-5.073-4.865,0-1.763,0-3.526,0-5.289V300.6h-9.879a5.728,5.728,0,0,1-2.4,4.456,1.414,1.414,0,0,0-.393,1.01c-.03,2.914-.038,5.829.007,8.742a1.8,1.8,0,0,0,.532,1.184c1.475,1.316,3,2.578,4.527,3.834.673.552,1.4,1.045,2.262,1.688v-1.425q0-6.746.006-13.491a4.062,4.062,0,0,1,.153-1.273,1.315,1.315,0,0,1,1.676-.98,3.364,3.364,0,0,1,1.347,1.306c.172.245.057.7.057,1.059,0,5.4.015,10.793-.015,16.189a1.576,1.576,0,0,0,.841,1.558c2.056,1.253,4.07,2.574,6.106,3.861a7.4,7.4,0,0,0,.767.369Zm-2.251-17.063h2.017c3.5,0,3.51.015,3.51,3.453,0,1.906,0,3.811,0,5.717,0,.307.046.612.068.892h12.332c.02-.409.051-.761.052-1.113.005-1.8,0-3.6,0-5.394,0-3.555,0-3.555,3.511-3.555h2.094a6.889,6.889,0,0,0-5.781-6.841.906.906,0,0,0-1.195.666,5.137,5.137,0,0,1-7.866,2.31,18.828,18.828,0,0,1-2.521-2.984C2935.618,291.947,2932.292,295.364,2932.642,298.9Zm5.67,13.413c-.076.123-.111.152-.111.181q-.018,8.8-.022,17.59c0,.226.072.574.225.659,1.387.777,2.8,1.507,4.353,2.331,0-4.985,0-9.731,0-14.476a6.174,6.174,0,0,1,.081-1.287,1.584,1.584,0,0,1,3.126.166,10.3,10.3,0,0,1,.029,1.078q0,6.745,0,13.49v1.3c1.4-.726,2.552-1.376,3.752-1.931a1.4,1.4,0,0,0,.893-1.5c-.032-5.5-.016-11.008-.019-16.512,0-.35-.03-.7-.048-1.093Zm-12.687-46.006a6.542,6.542,0,1,0-6.583-6.558A6.506,6.506,0,0,0,2925.625,266.308Zm18.748,18.568a5.516,5.516,0,1,0,.034-11.032,5.516,5.516,0,1,0-.034,11.032Zm13.522-17.748a6.52,6.52,0,0,0,6.445,5.557,6.453,6.453,0,0,0,6.369-5.564,7.828,7.828,0,0,1-5.87-1.563,1.285,1.285,0,0,0-1.19.081A7.736,7.736,0,0,1,2957.9,267.128Zm12.4-3.283c-.489-2.377-3.219-4.282-6.061-4.263-2.763.018-5.48,1.978-5.91,4.276a3.926,3.926,0,0,0,3.161-.687,4.352,4.352,0,0,1,5.667.008A3.806,3.806,0,0,0,2970.3,263.845ZM2953.878,302.2c0,3.191-.012,6.309.01,9.427a1.054,1.054,0,0,0,1.179,1.121,1.094,1.094,0,0,0,1.18-1.147c.037-3.115.016-6.231.016-9.4Zm-21.339-.013c0,3.187-.011,6.274.008,9.36a1.092,1.092,0,0,0,1.225,1.2,1.124,1.124,0,0,0,1.152-1.279c.01-1.689,0-3.379.005-5.068,0-1.39,0-2.779,0-4.21Zm-9.263-32.735c0,.833-.052,1.73.012,2.619a2.319,2.319,0,0,0,2.285,2.166,2.271,2.271,0,0,0,2.284-2.029,26.239,26.239,0,0,0,.019-2.756Zm38.774,6.3a24.11,24.11,0,0,0,.024,2.944,2.275,2.275,0,0,0,4.451.118,21.358,21.358,0,0,0,.031-3.079c-.777.07-1.492.183-2.208.186C2963.6,275.917,2962.856,275.811,2962.05,275.748Zm-19.627,12.292a30.261,30.261,0,0,0,.024,3.119,1.979,1.979,0,0,0,3.886.078c.1-1.083.024-2.182.024-3.2Zm-7.372,1.531,3.873-.931c.852-1.9-.425-2.972-1.575-3.954-.407-.347-1.278-.193-1.934-.173-.128,0-.342.441-.347.683C2935.034,286.628,2935.051,288.062,2935.051,289.57Zm18.886,32.68v6.805c.647-.382,1.177-.662,1.668-1,.307-.211.778-.5.79-.768.073-1.671.037-3.346.037-5.039Zm2.119-50.583-1.442,5.372,4.2-.655A6.457,6.457,0,0,0,2958.4,274,14.337,14.337,0,0,0,2956.057,271.667Zm17.1,5.164c-.327-1.606-.634-3.115-.974-4.784-1.2,1.377-3.123,2.176-2.12,4.415Zm-13.438,48.68,4.648-3.221h-4.648Z" transform="translate(-2891.058 -233.069)" fill="#5bd3a9"/>
      </g>
    </g>
  </g>
</svg>
