<svg xmlns="http://www.w3.org/2000/svg" xmlns:xlink="http://www.w3.org/1999/xlink" width="165" height="130" viewBox="0 0 165 130">
  <defs>
    <clipPath id="clip-path">
      <rect id="Rectángulo_35883" data-name="Rectángulo 35883" width="165" height="130" transform="translate(6440 -8201)" fill="#fff" stroke="#707070" stroke-width="1"/>
    </clipPath>
  </defs>
  <g id="icon1-5" transform="translate(-6440 8201)" clip-path="url(#clip-path)">
    <g id="Grupo_133665" data-name="Grupo 133665" transform="translate(9.479 -0.099)">
      <g id="Grupo_78348" data-name="Grupo 78348" transform="translate(6449.521 -8182.901)">
        <path id="Trazado_113319" data-name="Trazado 113319" d="M1572.434,1094v-8.714h-8.783v-6.015h8.783v-8.714h5.855v8.714h8.806v6.015h-8.806V1094Z" transform="translate(-1563.651 -1070.555)" fill="#ffb840"/>
      </g>
      <g id="Grupo_133664" data-name="Grupo 133664" transform="translate(3769.154 -10337.275)">
        <path id="Trazado_126774" data-name="Trazado 126774" d="M2806.179,2161.186c-.273-3.167-2.129-5-5.3-5.156-2.639-.127-5.275-.286-7.9-.592a88.742,88.742,0,0,1-25.487-6.755c-2.81-1.228-5.368-2.942-8.223-4.063H2757.5a12.767,12.767,0,0,0-1.581.664,78.7,78.7,0,0,1-18.747,7.651c-1.183.329-1.7,1.1-1.465,2.065s1.143,1.411,2.373,1.081a77.672,77.672,0,0,0,18.779-7.57,2.68,2.68,0,0,1,3.043,0,73.039,73.039,0,0,0,14.354,6.273,97.385,97.385,0,0,0,26.463,4.552c1.427.056,2.027.556,2.132,1.831.177,2.157.358,4.316.455,6.478a136.286,136.286,0,0,1-1.281,26.348,96.942,96.942,0,0,1-7.305,25.805c-7.2,15.944-18.65,27.52-35.072,33.955a2.951,2.951,0,0,1-2.319.1,61.826,61.826,0,0,1-33.306-29.992c-7.031-13.5-9.807-28.053-10.573-43.093a135.848,135.848,0,0,1,.427-19.25c.148-1.623.6-2.107,2.255-2.184a99.275,99.275,0,0,0,13.778-1.456,1.634,1.634,0,0,0,1.506-1.916,1.672,1.672,0,0,0-2.073-1.308,114.337,114.337,0,0,1-14,1.416,4.823,4.823,0,0,0-4.553,3.927,34.082,34.082,0,0,0-.414,3.826,144.65,144.65,0,0,0,.179,22.877,109.708,109.708,0,0,0,6.445,29.539c7.257,19.064,19.782,33.087,39.042,40.642a6.083,6.083,0,0,0,4.683.009c17.555-6.881,29.736-19.27,37.294-36.382a103.089,103.089,0,0,0,7.754-29.646A144.515,144.515,0,0,0,2806.179,2161.186Z" transform="translate(0 0)" fill="#fff"/>
        <path id="Trazado_126775" data-name="Trazado 126775" d="M2721.518,2169.713c-.289,3.549-.524,7.1-.471,10.121a119.443,119.443,0,0,0,.647,13.071,87.716,87.716,0,0,0,6.188,25.3c5.958,14.071,15.613,24.46,30.038,30.091a4.921,4.921,0,0,0,3.739.042,52.316,52.316,0,0,0,12.647-6.995c8.682-6.569,14.527-15.221,18.327-25.3,5.677-15.059,6.784-30.686,5.469-46.575a4.227,4.227,0,0,0-4.128-3.969c-2.414-.189-4.833-.271-7.239-.576a64.237,64.237,0,0,1-24.223-7.675,4.922,4.922,0,0,0-5.385.023,53.1,53.1,0,0,1-10.317,4.566,76.427,76.427,0,0,1-21.047,3.667A4.261,4.261,0,0,0,2721.518,2169.713Zm13.274-1.7a67.442,67.442,0,0,0,23.861-7.812,2.077,2.077,0,0,1,2.325-.019,68.06,68.06,0,0,0,25.383,8.025c2.369.3,4.749.437,7.13.552a1.264,1.264,0,0,1,1.369,1.358c.263,3.441.491,6.882.449,10.338-.071,11.774-1.517,23.325-5.741,34.4-4.092,10.731-10.464,19.7-20.275,25.969a48.9,48.9,0,0,1-8.613,4.345,2.142,2.142,0,0,1-1.682,0c-11.787-4.577-20.321-12.705-26.057-23.875a78.025,78.025,0,0,1-7.5-24.91,116.239,116.239,0,0,1-.844-23.831c.049-.769.177-1.535.187-2.3a1.315,1.315,0,0,1,1.459-1.5A81.233,81.233,0,0,0,2734.792,2168.01Z" transform="translate(-1.444 -1.549)" fill="#fff"/>
        <path id="Trazado_126776" data-name="Trazado 126776" d="M2763.532,2226.671c6.181-.159,12.331-3.135,17.028-9.043,1.052-1.323,1.114-2.284.265-2.977-.912-.745-1.768-.44-2.88.974a19.413,19.413,0,0,1-13.509,7.628,19.9,19.9,0,1,1,17.118-24.386,20.569,20.569,0,0,1-.087,9.59,1.608,1.608,0,0,0,.643,1.836,1.578,1.578,0,0,0,1.762.068c.674-.354.778-1.032.928-1.668,3.8-16.122-10.408-31.04-26.735-28.085a23.307,23.307,0,0,0-19,25.264C2740.141,2217.531,2750.356,2226.724,2763.532,2226.671Z" transform="translate(-3.789 -4.661)" fill="#fff"/>
        <path id="Trazado_126777" data-name="Trazado 126777" d="M2774.086,2191.412c-2.707,2.92-5.4,5.854-8.1,8.776-.78.843-1.516,2.241-2.4,2.347-1.028.124-1.768-1.379-2.634-2.172a6.744,6.744,0,1,0-9.427,9.644c2.483,2.469,5.027,4.877,7.546,7.31a6.74,6.74,0,0,0,9.867-.437c5.037-5.469,10.108-10.908,15.125-16.4a6.734,6.734,0,0,0-.226-9.772C2781,2188.133,2776.854,2188.425,2774.086,2191.412Zm6.84,6.11c-2.348,2.6-4.744,5.154-7.119,7.727-2.6,2.82-5.2,5.651-7.809,8.461-1.489,1.6-2.738,1.638-4.3.141q-3.585-3.437-7.143-6.9a2.352,2.352,0,0,1-.641-2.752,2.4,2.4,0,0,1,2.064-1.524,3.028,3.028,0,0,1,2.192.993c1.2,1.171,2.392,2.358,3.613,3.51,1.339,1.264,2.441,1.242,3.708-.119,3.922-4.215,7.815-8.456,11.732-12.675,1.187-1.279,2.384-1.423,3.532-.493A2.29,2.29,0,0,1,2780.926,2197.522Z" transform="translate(-5.155 -5.803)" fill="#fff"/>
      </g>
    </g>
  </g>
</svg>
