<svg xmlns="http://www.w3.org/2000/svg" width="77.806" height="78.92" viewBox="0 0 77.806 78.92">
  <g id="icon11" transform="translate(-1879.74 -253.637)">
    <g id="Grupo_133635" data-name="Grupo 133635" transform="translate(1879.74 253.637)">
      <path id="Trazado_126622" data-name="Trazado 126622" d="M1896.32,253.637a8.2,8.2,0,0,1,5.25,3.663,1.159,1.159,0,0,0,.889.558,6.4,6.4,0,0,1,5.8,4.134.9.9,0,0,0,.635.462,7.527,7.527,0,0,1,6.479,3.928c.09.155.282.354.43.355a6.918,6.918,0,0,1,4.082,1.36,24.982,24.982,0,0,1,1.13-2.628,6.138,6.138,0,0,1,3.085-2.56.972.972,0,0,0,.513-.688,8.739,8.739,0,0,1,16.382-3.8.683.683,0,0,0,.85.384,6.247,6.247,0,0,1,5.976,2.251,1.647,1.647,0,0,0,.848.553,7.63,7.63,0,0,1,6.323,6.575,1.779,1.779,0,0,0,.554.985,5.678,5.678,0,0,1,1.691,6.15,5.553,5.553,0,0,1-5.217,3.746c-1.334.021-2.67.013-4.005,0-.869-.007-1.34-.419-1.34-1.139s.483-1.153,1.334-1.164c1.258-.017,2.516,0,3.774-.007a3.3,3.3,0,0,0,3.326-2.346,3.256,3.256,0,0,0-1.522-3.773,1.682,1.682,0,0,1-.893-1.563,5.158,5.158,0,0,0-4.912-5.231,1.737,1.737,0,0,1-1.484-.9,3.982,3.982,0,0,0-4.679-1.738c-1.511.445-1.74.333-2.372-1.155a6.429,6.429,0,0,0-12.31,2.819c.059,1.433-.114,1.671-1.487,2.049a3.952,3.952,0,0,0-3.1,3.977,1.594,1.594,0,0,1-.967,1.584,3.282,3.282,0,0,0,1.557,6.273q9.4.008,18.8,0a6.981,6.981,0,0,1,.77.012,1.157,1.157,0,0,1,1.114,1.23,1.126,1.126,0,0,1-1.191,1.06c-1.719.018-3.438.006-5.365.006,4.58,5.5,6.441,11.859,6.7,18.846.8,0,1.54-.005,2.276,0a3.64,3.64,0,0,1,3.9,3.894,15.124,15.124,0,0,1-.093,3.071,8.134,8.134,0,0,1-6.094,6.374,1.276,1.276,0,0,0-.943.914c-3.806,10.1-10.639,17.03-21.2,19.919-3.862,1.057-7.582.188-11.17-1.352-.917-.394-1.8-.864-2.686-1.333-.96-.51-1.241-1.155-.851-1.822.375-.64,1.04-.716,1.945-.205a23.451,23.451,0,0,0,6.421,2.515,14.751,14.751,0,0,0,9.8-1.377c7.809-3.744,13.267-9.63,15.8-18a20.617,20.617,0,0,0,.572-4.867c.091-1.767.016-3.542.012-5.314a.955.955,0,0,0-.057-.2c-.548-.111-1.126-.213-1.7-.347a12.75,12.75,0,0,1-6.24-3.616c-.486-.494-.992-.969-1.476-1.465a3.949,3.949,0,0,0-4.1-1.071c-1.885.488-3.792.909-5.653,1.479a14.707,14.707,0,0,1-8.638-.1c-1.746-.51-3.517-.933-5.28-1.384a3.933,3.933,0,0,0-4.033,1.057q-1.057,1.066-2.151,2.1a12.4,12.4,0,0,1-6.686,3.231c-.151.025-.3.054-.452.089a1.1,1.1,0,0,0-.2.107c.049,4.683-.576,9.48,1.913,13.9.411-.537.794-1.1,1.245-1.612,1.143-1.288,2.554-1.344,3.628-.019a19.814,19.814,0,0,1,4.238,8.531,5.742,5.742,0,0,1-2.552,5.938,6.593,6.593,0,0,1-7.131-.112,5.613,5.613,0,0,1-2.332-6.018,18.346,18.346,0,0,1,1.229-3.547,1.434,1.434,0,0,0-.041-1.285c-.572-1.286-1.111-2.589-1.588-3.912a1.134,1.134,0,0,0-.874-.8c-3.188-.957-5.411-2.948-6.1-6.273a13.554,13.554,0,0,1-.06-4.061,3.521,3.521,0,0,1,3.559-3.01c.816-.026,1.635,0,2.536,0a32.4,32.4,0,0,1,3.428-13.95,5.722,5.722,0,0,1-1.532-8.531c-.282-.016-.524-.041-.766-.041-2.747,0-5.495.024-8.242-.009a5.408,5.408,0,0,1-4.885-8.073,2.121,2.121,0,0,1,.48-.69,2.6,2.6,0,0,0,.915-2.45,6.382,6.382,0,0,1,6.164-6.353,1.116,1.116,0,0,0,.776-.417,7.4,7.4,0,0,1,5.171-3.656c.068-.013.126-.076.19-.116Zm-1.607,44.019a2.637,2.637,0,0,0,.385.056,3.444,3.444,0,0,0,.458-.057,10.188,10.188,0,0,0,5.057-2.613c.761-.725,1.5-1.473,2.269-2.193a5.961,5.961,0,0,1,5.7-1.509c1.748.395,3.5.8,5.209,1.341a13.687,13.687,0,0,0,8.538.036c1.56-.5,3.167-.851,4.752-1.268a6.4,6.4,0,0,1,6.642,1.725c.61.623,1.234,1.233,1.866,1.836a9.958,9.958,0,0,0,4.448,2.49c.431.112.876.171,1.467.282-.179-1.575-.283-3-.511-4.413a24.779,24.779,0,0,0-6.69-13.82,1.647,1.647,0,0,0-1.047-.452c-2.669-.038-5.338-.022-8.008-.018-.223,0-.446.028-.66.043-.294,3.732-3.139,5.561-6.305,5.5-6.44-.115-12.884-.024-19.326-.051a1.1,1.1,0,0,0-1.163.724,26.387,26.387,0,0,0-2.393,7.2C1895.109,294.2,1894.938,295.931,1894.713,297.656Zm23.66-27.785a4.155,4.155,0,0,0-2.883-.775c-1.181.128-1.421-.015-1.932-1.138a5.152,5.152,0,0,0-9.513.047c-.469,1.058-.752,1.228-1.885,1.091a4.166,4.166,0,0,0-4.559,4.953,2.119,2.119,0,0,1-.828,2.408,3.185,3.185,0,0,0-1.174,3.751,3.272,3.272,0,0,0,3.355,2.071q5.426,0,10.851,0c3.052,0,6.1.012,9.158,0a3.037,3.037,0,0,0,3.184-3.16A5.708,5.708,0,0,1,1918.373,269.871Zm-12.3-6.883a3.982,3.982,0,0,0-4.2-2.814c-1.232.138-1.489-.009-1.968-1.082a5.036,5.036,0,0,0-9.312-.014c-.481,1.082-.748,1.234-1.961,1.1a4.073,4.073,0,0,0-4.4,4.78,2.154,2.154,0,0,1-.828,2.475,3.065,3.065,0,0,0-1.131,3.621,3.107,3.107,0,0,0,3.2,2.032c3,.009,6,0,9,0,.223,0,.446-.032.616-.045.063-.079.091-.1.092-.119a6.574,6.574,0,0,1,6.486-6.171.665.665,0,0,0,.5-.23A7.707,7.707,0,0,1,1906.071,262.988Zm-6.306,50.838c-1.742,2.472-3.332,4.884-3.753,7.832a3.177,3.177,0,0,0,1.694,3.434,4.078,4.078,0,0,0,4.382-.148,3.262,3.262,0,0,0,1.438-3.565A18.9,18.9,0,0,0,1899.765,313.827Zm-7.256-13.564c-.99,0-1.885-.057-2.77.017a1.2,1.2,0,0,0-1.128,1.324c-.013.872-.03,1.745.009,2.615.084,1.9,2.223,4.333,3.889,4.537Zm51.214,8.615a5.944,5.944,0,0,0,3.83-4.287,13.724,13.724,0,0,0,.043-3.221,1.084,1.084,0,0,0-1.03-1.076c-.911-.063-1.83-.016-2.844-.016Z" transform="translate(-1879.74 -253.637)"/>
      <path id="Trazado_126623" data-name="Trazado 126623" d="M1934.8,350.108a8.021,8.021,0,0,1,5.538,2.131c.631.587.723,1.217.271,1.752s-1.14.533-1.82-.041a5.539,5.539,0,0,0-7.661.007c-.659.557-1.287.585-1.765.08-.5-.531-.418-1.186.235-1.8A7.9,7.9,0,0,1,1934.8,350.108Z" transform="translate(-1896.585 -286.601)"/>
      <path id="Trazado_126624" data-name="Trazado 126624" d="M1951.8,335.905a5.175,5.175,0,0,1-3.515-1.307,1.161,1.161,0,0,1-.29-1.687,1.178,1.178,0,0,1,1.762-.09,3,3,0,0,0,4.064.012,1.161,1.161,0,1,1,1.49,1.756A5.154,5.154,0,0,1,1951.8,335.905Z" transform="translate(-1902.979 -280.576)"/>
      <path id="Trazado_126625" data-name="Trazado 126625" d="M1919.96,335.9a5.033,5.033,0,0,1-3.441-1.363,1.154,1.154,0,0,1-.184-1.7,1.178,1.178,0,0,1,1.656-.07,3,3,0,0,0,4.182.01,1.155,1.155,0,0,1,1.7.118,1.139,1.139,0,0,1-.217,1.638A5.261,5.261,0,0,1,1919.96,335.9Z" transform="translate(-1892.145 -280.575)"/>
      <path id="Trazado_126626" data-name="Trazado 126626" d="M1955.5,273.738c-.342.321-.633.8-1.035.928a2.349,2.349,0,0,0-1.729,1.324,1,1,0,0,1-1.437.461,1.067,1.067,0,0,1-.633-1.324,3.878,3.878,0,0,1,3.546-2.689A1.479,1.479,0,0,1,1955.5,273.738Z" transform="translate(-1903.963 -260.061)"/>
      <path id="Trazado_126627" data-name="Trazado 126627" d="M1913.093,283.972a1.2,1.2,0,0,1-1.311-1.475,4.007,4.007,0,0,1,3.426-2.577,1.09,1.09,0,0,1,1.118.972,1.027,1.027,0,0,1-.771,1.251,2.4,2.4,0,0,0-1.758,1.329C1913.668,283.74,1913.249,283.868,1913.093,283.972Z" transform="translate(-1890.675 -262.617)"/>
      <path id="Trazado_126628" data-name="Trazado 126628" d="M1890.486,269.82a3.827,3.827,0,0,1,2.536-3.314,1.142,1.142,0,0,1,1.471.621,1.04,1.04,0,0,1-.5,1.438,2.16,2.16,0,0,0-1.294,1.658,1,1,0,0,1-1.326.728A1.085,1.085,0,0,1,1890.486,269.82Z" transform="translate(-1883.412 -258.011)"/>
    </g>
  </g>
</svg>
