<svg xmlns="http://www.w3.org/2000/svg" width="60" height="60" viewBox="0 0 60 60">
  <g id="icon1" transform="translate(-597 -4453)">
    <rect id="Rectángulo_35719" data-name="Rectángulo 35719" width="60" height="60" rx="30" transform="translate(597 4453)" fill="#d2f3e8"/>
    <g id="zu2Q2r" transform="translate(601.525 4462.302)">
      <g id="Grupo_133625" data-name="Grupo 133625" transform="translate(0 0)">
        <path id="Trazado_126564" data-name="Trazado 126564" d="M1850.848,1947.034a1.713,1.713,0,0,1,.444,2.109,12.081,12.081,0,0,1-8.151,7.786,2.21,2.21,0,0,0-.677.385,34.052,34.052,0,0,1-9.449,5.388c-.82.293-1.667.511-2.509.74a6.289,6.289,0,0,1-3.542-.347,33,33,0,0,1-10.473-5.641,4.277,4.277,0,0,0-1.2-.633,12.083,12.083,0,0,1-7.893-7.986,1.56,1.56,0,0,1,.529-1.795c-.511-1.575-1.006-3.107-1.507-4.637a1.4,1.4,0,0,0-.2-.339,6.839,6.839,0,0,1-1.334-3.2c-.061-.584-.345-1.154-.347-1.731a13.4,13.4,0,0,1,.253-2.93c.179-.8.485-1.566.62-2.393a2.038,2.038,0,0,1,1.424-1.586,1.253,1.253,0,0,0,.743-.7,12.066,12.066,0,0,1,7.534-6.425c5.267-1.448,9.74.089,13.476,3.977.069.071.131.149.2.223.484.549.735.545,1.227-.016a13.072,13.072,0,0,1,8.648-4.609c5.212-.561,9.151,1.569,11.991,5.886a3.248,3.248,0,0,1,.276.468,2.516,2.516,0,0,0,1.339,1.379,2.277,2.277,0,0,1,1.24,2.206,1.476,1.476,0,0,0,.148.642,3.537,3.537,0,0,1,.425,2,5.389,5.389,0,0,0,.055.58,9.889,9.889,0,0,1,.014,2.054,9.2,9.2,0,0,1-1.678,4.326,1.719,1.719,0,0,0-.2.549C1851.8,1944.168,1851.332,1945.573,1850.848,1947.034Zm1.948-12.746a2.868,2.868,0,0,0-.229.184,9.545,9.545,0,0,1-3.115,1.967.593.593,0,1,1-.52-1.064,7.205,7.205,0,0,0,.712-.34,24.857,24.857,0,0,0,2.24-1.592,1.2,1.2,0,0,0,.11-1.77c-.444-.53-.96-.559-1.665-.113a16.906,16.906,0,0,1-4.206,2.049,2.161,2.161,0,0,1-2.907-1.38,5.054,5.054,0,0,1-.266-.795,12.03,12.03,0,0,1-.259-3.782,2.5,2.5,0,0,0-.105-.967,1.159,1.159,0,0,0-1.251-.763,1.057,1.057,0,0,0-.966.911,66.051,66.051,0,0,1-2.353,8.77,19.537,19.537,0,0,1-8.722,10.386,26.582,26.582,0,0,1-13.267,3.361,16.1,16.1,0,0,1-6.748-1.283,1.949,1.949,0,0,0-.639-.052,1.871,1.871,0,0,0-.032.677,10.855,10.855,0,0,0,7.926,7.244,22.325,22.325,0,0,0,10.147-.056,43.936,43.936,0,0,0,14.894-6.147,45.951,45.951,0,0,0,8.5-6.591c.6-.619,1.136-1.3,1.719-1.977-.1-.046-.121-.062-.134-.059-.722.211-1.017.167-1.136-.217-.182-.585.286-.708.667-.909a3.511,3.511,0,0,0,1.885-2.668,4.691,4.691,0,0,1-.435.372c-.668.417-1.334.839-2.016,1.231a.568.568,0,0,1-.879-.24c-.186-.393.014-.661.377-.829a1.8,1.8,0,0,0,.315-.141,19.186,19.186,0,0,0,1.954-1.477A1.758,1.758,0,0,0,1852.8,1934.288Zm-44.221-4.115a16.161,16.161,0,0,0,4.431,2.3c.783.208,1.123.052,1.451-.681a3.488,3.488,0,0,0,.191-.56,10.32,10.32,0,0,0,.233-3.633,2.527,2.527,0,0,1,2.027-2.848,2.312,2.312,0,0,1,2.705,1.988c.606,2.462,1.141,4.946,1.887,7.366a18.581,18.581,0,0,0,7.411,10.145.7.7,0,0,0,.943.017,18.64,18.64,0,0,0,7.43-10.191c.752-2.452,1.287-4.971,1.9-7.463a2.3,2.3,0,0,1,1.635-1.811,2.5,2.5,0,0,1,3.087,2.734,9.811,9.811,0,0,0-.046,1.825,13.166,13.166,0,0,0,.508,2.5c.222.686.634.823,1.335.62a17.1,17.1,0,0,0,4.556-2.3c-.424-.651-.793-1.313-1.251-1.907a10.716,10.716,0,0,0-10.191-4.439,12.059,12.059,0,0,0-8.023,4.334,1.737,1.737,0,0,1-2.812.017c-.408-.453-.824-.9-1.273-1.314a11.609,11.609,0,0,0-13.879-1.461A11.837,11.837,0,0,0,1808.575,1930.173Zm-1.624,10.869c.295.39.492.674.712.939a34.794,34.794,0,0,0,6.93,6.011,1,1,0,0,0,.508.133,25.314,25.314,0,0,0,10.6-1.733c.848-.331,1.667-.733,2.438-1.075-1.151-1.058-2.316-2.011-3.343-3.094a22.113,22.113,0,0,1-5.1-9.967c-.467-1.8-.854-3.622-1.286-5.432a1.057,1.057,0,0,0-1.172-.9,1.351,1.351,0,0,0-1.179,1.6,15.351,15.351,0,0,1,.053,1.876,6.537,6.537,0,0,1-.887,3.45,1.939,1.939,0,0,1-2.195.855,15.554,15.554,0,0,1-4.63-2.173,1.092,1.092,0,0,0-1.59.118,1.236,1.236,0,0,0-.017,1.707,2.943,2.943,0,0,0,.639.615c.766.476,1.549.926,2.338,1.364.355.2.552.457.379.839s-.506.414-.879.25a9.591,9.591,0,0,1-3.1-1.986.809.809,0,0,0-.2-.107,1.959,1.959,0,0,0,.688,2.206,17.12,17.12,0,0,0,2.059,1.336c.311.189.481.427.344.771a.54.54,0,0,1-.811.312c-.705-.385-1.385-.816-2.07-1.237a5.046,5.046,0,0,1-.474-.392,3.545,3.545,0,0,0,2.112,2.765c.358.161.594.4.424.807a.575.575,0,0,1-.86.3C1807.289,1941.154,1807.2,1941.128,1806.951,1941.042Zm11.8,16.517c.046.077.055.114.079.13a29.639,29.639,0,0,0,8.426,4.254,5.531,5.531,0,0,0,2.9.356,28.367,28.367,0,0,0,9.722-4.576,1.119,1.119,0,0,0,.152-.17c-.341.025-.634.052-.926.066a31.108,31.108,0,0,1-9.245-1.033,1.884,1.884,0,0,0-.906-.015A30.378,30.378,0,0,1,1818.753,1957.559Zm12.928-1.759a24.272,24.272,0,0,0,9.732.33,11,11,0,0,0,8.752-7.411,2.01,2.01,0,0,0-.005-.684,2.031,2.031,0,0,0-.68.037,14.234,14.234,0,0,1-4.229,1.124,3.147,3.147,0,0,0-1.5.535,49.791,49.791,0,0,1-9.141,4.959C1833.679,1955.058,1832.739,1955.4,1831.681,1955.8Zm-23.233-11.132-.082.056c.253.62.5,1.243.763,1.859a.4.4,0,0,0,.194.207c.882.338,1.769.664,2.655.994l.037-.1Zm38.318,3.016.033.092c.737-.268,1.476-.532,2.211-.806.2-.074.487-.125.561-.273.323-.646.583-1.323.865-1.989l-.1-.039Z" transform="translate(-1804.537 -1922.559)" fill="#133d60"/>
      </g>
    </g>
  </g>
</svg>
