<svg xmlns="http://www.w3.org/2000/svg" xmlns:xlink="http://www.w3.org/1999/xlink" width="165" height="130" viewBox="0 0 165 130">
  <defs>
    <clipPath id="clip-path">
      <rect id="Rectángulo_35887" data-name="Rectángulo 35887" width="165" height="130" transform="translate(8574 -9429)" fill="#fff" stroke="#707070" stroke-width="1"/>
    </clipPath>
  </defs>
  <g id="icon2-2" transform="translate(-8574 9429)" clip-path="url(#clip-path)">
    <g id="Grupo_133673" data-name="Grupo 133673" transform="translate(-17.521 -0.099)">
      <g id="Grupo_78348" data-name="Grupo 78348" transform="translate(8611.521 -9409.901)">
        <path id="Trazado_113319" data-name="Trazado 113319" d="M1572.434,1085.285h-8.783v-6.015H1587.1v6.015h-14.661Z" transform="translate(-1563.651 -1070.555)" fill="#5bd3a9"/>
      </g>
      <g id="Grupo_133672" data-name="Grupo 133672" transform="translate(7775.394 -9867.386)">
        <path id="Trazado_126788" data-name="Trazado 126788" d="M891.128,537.061q-2.385,2.4-4.772,4.8c-2.045,2.041-4.36,2.061-6.38.007-2.617-2.661-5.225-5.333-7.782-8.053-.662-.7-1.019-.688-1.672.008-2.552,2.725-5.212,5.348-7.746,8.087a13.936,13.936,0,0,1-7.953,4.516c-.5.089-.99.232-1.484.348-1.21.286-2.762.218-3.53.96-.733.71.471,2.049.511,3.195a8.518,8.518,0,0,1-1.807,5.852c-.79.991-1.59,1.169-2.536.192q-11.74-12.136-23.495-24.257a1.434,1.434,0,0,1,.108-2.331,7.411,7.411,0,0,1,8.346-1.25c1.039.529,1.48.344,2.134-.521,5.9-7.8,11.86-15.556,17.775-23.346a14.471,14.471,0,0,1,10.435-5.914c3.765-.4,7.512-.975,11.272-1.437a3.621,3.621,0,0,0,2.328-1.169c3.867-4.05,7.785-8.05,11.684-12.07.642-.662,1.341-1.486,2.274-.647,1.022.919.23,1.686-.47,2.41Q875.68,499.54,863,512.655a5.841,5.841,0,0,0-.111,7.909c1.948,2.029,1.973,2.053,3.974-.069,1.275-1.351,2.639-2.5,4.587-2.61.755-.042.965-.443.981-1.085a4.68,4.68,0,0,0-1.108-3.3,1.589,1.589,0,0,1,.106-2.5c2.033-2.047,4.029-4.131,6.03-6.208.448-.465.9-.882,1.613-.678s.849.784.987,1.427c1.647,7.7,6.144,12.64,13.956,14.378,1.594.354,1.857,1.322.7,2.547-1.977,2.1-4.021,4.138-6,6.237-.879.932-1.609.909-2.6.1a4.069,4.069,0,0,0-5.577-.076c-1.244,1.054-2.1.819-2.955-.311-.593-.782-.995-.9-1.774-.061-2.646,2.838-2.688,2.795.058,5.618,1.774,1.824,3.537,3.661,5.313,5.485,1.854,1.9,2.1,1.9,3.914.035q21.545-22.251,43.088-44.5c2.046-2.113,4.1-4.218,6.139-6.339,1.385-1.442,1.409-2.041.077-3.422q-10.427-10.808-20.877-21.6c-1.233-1.273-1.827-1.256-3.1.029-.954.966-1.893,1.946-2.829,2.928-.636.667-1.339.906-2.048.18-.662-.677-.357-1.336.215-1.927,1.1-1.139,2.163-2.316,3.3-3.412a3.96,3.96,0,0,1,5.89.068q10.9,11.181,21.719,22.437c1.805,1.88,1.606,4.287-.374,6.337q-6.957,7.2-13.931,14.385c-.349.36-.656.76-.983,1.142-3.847,3.587-7.361,7.5-10.986,11.3l-1.47,1.539c-1.243,1.3-2.823,2.306-3.577,4.042l-.037.033c-.237-.2-.392-.033-.545.127Q897.949,529.951,891.128,537.061ZM870.594,500.7c-3.36.446-6.723.878-10.08,1.344a10.45,10.45,0,0,0-7.034,4.033c-6.326,8.189-12.576,16.435-18.877,24.643-.469.611-.485.961.08,1.537q6.115,6.242,12.148,12.565a1.594,1.594,0,0,0,1.791.449c2.244-.572,4.506-1.079,6.761-1.608a9.621,9.621,0,0,0,4.781-2.755q6.912-7.127,13.8-14.274c1.613-1.677,1.659-3.869.183-5.286-1.459-1.4-3.342-1.22-5.052.525-2.336,2.385-4.643,4.8-6.973,7.187a2.252,2.252,0,0,1-2.769.6,2.367,2.367,0,0,1-1.434-2.461c.011-.226.022-.453.045-.677q.661-6.584,1.325-13.166a4.946,4.946,0,0,1,2.518-4.018C865.527,507.3,867.672,503.655,870.594,500.7Zm7.257,7.474c-1.027,1.02-2,2.1-3.1,3.041a1.629,1.629,0,0,0-.414,2.428,6.323,6.323,0,0,1,.549,3.962c-.057.494-.2.953.341,1.347a6.159,6.159,0,0,1,2.526,5.43,1.676,1.676,0,0,0,2.521,1.467c1.433-.671,3.159-1.211,4.41-.452,2.685,1.63,3.9-.14,5.34-1.726a5.974,5.974,0,0,1,.713-.723c.988-.768.645-1.05-.358-1.42A19.5,19.5,0,0,1,878.5,509.574C878.326,509.117,878.35,508.553,877.851,508.178ZM847.76,551.939a5,5,0,0,0-1.326-3.875q-7.576-7.894-15.223-15.72a4.851,4.851,0,0,0-4.867-1.222c-.993.239-1.389.538-.44,1.492,1.384,1.388,2.641,2.939,4.029,4.294,5.377,5.246,10.458,10.775,15.757,16.092.418.419.807,1.3,1.347,1.082.667-.275.645-1.222.72-1.946A.9.9,0,0,0,847.76,551.939Zm13.268-29.4a16.325,16.325,0,0,0-.378,4.294C863.289,524.354,863.289,524.354,861.028,522.541Z" transform="translate(0)" fill="#fff"/>
        <path id="Trazado_126789" data-name="Trazado 126789" d="M948.8,512.221c2.138-.243,3.8-1.625,5.723-2.387.608-.241.3-.576.118-.931a5.622,5.622,0,0,1-.016-4.747q4.5-12.038,8.954-24.092a12.514,12.514,0,0,1,6.22-7.062c2.208-1.13,4.4-2.283,6.622-3.392a1.363,1.363,0,0,0,.939-1.646c-.389-3.354,3.19-6.916,6.549-6.688a4.189,4.189,0,0,1,2.8,1.7l.432.977q3.134,8.751,6.27,17.5c.648,1.8,1.336,3.6,1.953,5.41a3.437,3.437,0,0,1-1.919,4.63c-2.148,1.08-4.286,2.159-6.69.611-.494-.318-.827.21-1.158.47a12,12,0,0,0-3.971,5.376c-1.211,3.279-2.42,6.559-3.651,9.831a19.516,19.516,0,0,1-11.779,11.862q-10.9,4.177-21.772,8.408c-4.164,1.61-7,.406-8.692-3.7q-.111-1-.222-2.005l.76-2.6a10.1,10.1,0,0,1,3.15-2.757,9.717,9.717,0,0,0,2.572-1.192l5.135-2.483c.331-.112.734-.1.881-.525Zm-10.658,10.573c.009,2.6,2.28,4.042,4.887,3.043q11.381-4.358,22.739-8.773a16.694,16.694,0,0,0,9.818-10.153c1.155-3.063,2.3-6.128,3.4-9.211A14.657,14.657,0,0,1,984,490.617a1.435,1.435,0,0,0,.52-1.982q-2.868-7.964-5.605-15.974c-.32-.932-.581-1.28-1.6-.7-2.005,1.147-4.088,2.161-6.159,3.191a10.35,10.35,0,0,0-5.253,5.933q-4.432,11.988-8.884,23.967c-.651,1.757-.283,3.165.925,3.645,1.776.7,2.783.172,3.559-1.915q2.419-6.5,4.815-13.018c.326-.889.785-1.632,1.829-1.228s.853,1.306.538,2.159c-1.683,4.551-3.334,9.115-5.054,13.653-.924,2.44-2.661,3.377-5.352,2.985a2.109,2.109,0,0,0-1.3.149c-5.64,2.72-11.288,5.424-16.924,8.153A3.325,3.325,0,0,0,938.138,522.794Zm51.288-32.42a12.183,12.183,0,0,0,2.641-1.026c1.018-.38,1.148-1.056.794-2.021q-4.114-11.2-8.194-22.422c-.151-.411-.282-.878-.809-1.012-1.685-.429-4.475,2.378-3.9,4.059,2.378,6.941,4.83,13.856,7.274,20.774A2.35,2.35,0,0,0,989.426,490.374Z" transform="translate(-20.918 -0.205)" fill="#fff"/>
        <path id="Trazado_126790" data-name="Trazado 126790" d="M910.329,524.138a15.742,15.742,0,1,1,15.388-15.62A15.455,15.455,0,0,1,910.329,524.138Zm12.841-15.726a12.757,12.757,0,1,0-12.693,13.219A12.972,12.972,0,0,0,923.17,508.411Z" transform="translate(-13.488 -5.989)" fill="#fff"/>
        <path id="Trazado_126791" data-name="Trazado 126791" d="M941.7,485.91c0,.5-.347.812-.6,1.18-1.477,2.121-1.551,4.089-.011,6.094a1.686,1.686,0,0,1-.188,2.622c-2.392,2.408-4.732,4.868-7.093,7.307-.476.492-.947,1.031-1.741.772s-.832-.96-.982-1.634c-1.678-7.559-6.166-12.388-13.793-14.167-1.737-.405-2.023-1.3-.806-2.577,2.377-2.5,4.8-4.957,7.183-7.456a1.6,1.6,0,0,1,2.483-.263c2.189,1.667,3.831,1.667,5.977.012a1.506,1.506,0,0,1,2.346.111c2.19,2.291,4.4,4.559,6.605,6.834A1.718,1.718,0,0,1,941.7,485.91Zm-8.582,13.746c1.527-1.412,3.019-2.842,4.57-4.206a1.541,1.541,0,0,0,.445-2.259c-.741-1.355-1.171-3.076-.451-4.415,1.49-2.771-.067-4.26-1.869-5.836a20.064,20.064,0,0,1-1.88-1.945,1.07,1.07,0,0,0-1.568-.266,6.638,6.638,0,0,1-6.484-.016c-.493-.259-.844-.427-1.317.077-1.606,1.712-3.258,3.379-5.008,5.183A20.176,20.176,0,0,1,933.12,499.655Z" transform="translate(-17.278 -3.157)" fill="#fff"/>
        <path id="Trazado_126792" data-name="Trazado 126792" d="M916.625,476.5a2.987,2.987,0,0,1-.416.757c-1.161,1.232-2.345,2.443-3.535,3.648a1.176,1.176,0,0,1-1.8.113,1.189,1.189,0,0,1-.061-1.811c1.191-1.281,2.422-2.526,3.661-3.761a1.14,1.14,0,0,1,1.536-.216A1.325,1.325,0,0,1,916.625,476.5Z" transform="translate(-16.298 -2.739)" fill="#fff"/>
        <path id="Trazado_126793" data-name="Trazado 126793" d="M909.694,557.4c.74-.2,1.476-.281,1.9.533s-.122,1.354-.631,1.893c-.913.971-1.813,1.954-2.718,2.931-.715.5-1.479,1.014-2.208.113s-.085-1.544.529-2.177C907.621,559.607,908.653,558.5,909.694,557.4Z" transform="translate(-15.432 -17.887)" fill="#fff"/>
        <path id="Trazado_126794" data-name="Trazado 126794" d="M895.535,487.069a1.243,1.243,0,0,1-1.05-1.993,26.69,26.69,0,0,1,2.82-2.9,1.052,1.052,0,0,1,1.4.046,1.1,1.1,0,0,1,.352,1.5,16.078,16.078,0,0,1-3.007,3.157A1.379,1.379,0,0,1,895.535,487.069Z" transform="translate(-13.313 -4.011)" fill="#fff"/>
        <path id="Trazado_126795" data-name="Trazado 126795" d="M907.613,474.781c-.039.759-2.208,2.963-2.939,2.985a1.19,1.19,0,0,1-1.117-.614,1.158,1.158,0,0,1,.09-1.411c.63-.707,1.29-1.394,1.987-2.035a1.076,1.076,0,0,1,1.4-.059A1.212,1.212,0,0,1,907.613,474.781Z" transform="translate(-14.998 -2.443)" fill="#fff"/>
        <path id="Trazado_126796" data-name="Trazado 126796" d="M887.231,495.722a1.179,1.179,0,0,1-1.1-1.764,10.36,10.36,0,0,1,2.2-2.315,1.189,1.189,0,0,1,1.871.933C890.275,493.431,888.117,495.717,887.231,495.722Z" transform="translate(-11.789 -5.757)" fill="#fff"/>
        <path id="Trazado_126797" data-name="Trazado 126797" d="M919.583,549.819a.855.855,0,0,1-1.053-.541,1.14,1.14,0,0,1,.2-1.251c1.255-1.231,2.486-2.488,3.716-3.745.535-.547.992-.108,1.5.056.8.261.424,1.1.321,1.251a11.772,11.772,0,0,1-4.12,4.221C920.006,549.878,919.807,549.819,919.583,549.819Z" transform="translate(-17.773 -15.446)" fill="#fff"/>
        <path id="Trazado_126798" data-name="Trazado 126798" d="M909.39,512.647a4.945,4.945,0,0,1-4.848-6.509c.232-.78.725-1.5-.122-2.279a1,1,0,0,1,.171-1.384c.441-.457,1.038-.667,1.509-.222.673.637,1.239.423,1.969.153a4.662,4.662,0,0,1,4.639.73c.686.517,1.174,1.184.6,2.016s-1.27.628-2.051.117a2.593,2.593,0,0,0-3.925.8,2.533,2.533,0,0,0,.284,3.409,2.319,2.319,0,0,0,3.37-.085,5.691,5.691,0,0,1,4.575-1.772,4.935,4.935,0,0,1,4.1,6.5c-.232.787-.693,1.51.137,2.292a.979.979,0,0,1-.187,1.379c-.441.436-1.022.668-1.509.209-.655-.617-1.2-.434-1.942-.169a4.705,4.705,0,0,1-4.909-.913,1.267,1.267,0,0,1-.262-1.934c.521-.617,1.135-.512,1.813-.1,1.7,1.027,3.014.822,3.981-.537a2.733,2.733,0,0,0-.169-3.567,2.378,2.378,0,0,0-3.379.074A5.767,5.767,0,0,1,909.39,512.647Z" transform="translate(-15.153 -7.709)" fill="#fff"/>
      </g>
    </g>
  </g>
</svg>
