<svg xmlns="http://www.w3.org/2000/svg" width="58.461" height="60" viewBox="0 0 58.461 60">
  <g id="icon9" transform="translate(5298 7253)">
    <ellipse id="Elipse_4919" data-name="Elipse 4919" cx="29.231" cy="30" rx="29.231" ry="30" transform="translate(-5298 -7253)" fill="#d2f3e8"/>
    <g id="BfK6s8" transform="translate(-9424.283 -7302.144)">
      <g id="Grupo_133633" data-name="Grupo 133633" transform="translate(4140.283 57.144)">
        <path id="Trazado_126610" data-name="Trazado 126610" d="M4148.687,134.258a3.273,3.273,0,0,1-3.638,1.1,3.181,3.181,0,0,1-2.216-3.163q-.018-4.123,0-8.245a.683.683,0,0,0-.551-.8,2.627,2.627,0,0,1-1.946-2.412,27.085,27.085,0,0,1,.186-5.632,8.35,8.35,0,0,1,16.454.667,30.739,30.739,0,0,1,.073,4.841,2.741,2.741,0,0,1-2,2.549c-.435.147-.518.355-.515.764q.023,4.123,0,8.245a3.2,3.2,0,0,1-2.826,3.326A3.287,3.287,0,0,1,4148.687,134.258Zm5.856-12.285a1.724,1.724,0,0,0,1.253-1.691c.013-1.168.016-2.336,0-3.5a7.118,7.118,0,0,0-6.5-6.977,6.951,6.951,0,0,0-7.48,5.455,29.322,29.322,0,0,0-.208,5.309,1.415,1.415,0,0,0,1.22,1.338v-.59q0-2.83,0-5.659c0-.443.11-.8.632-.824.413-.021.641.264.66.8.006.143,0,.287,0,.431v13.474c0,.88,0,1.761,0,2.641a1.89,1.89,0,0,0,.707,1.562,1.961,1.961,0,0,0,3.206-1.546c.007-2.641,0-5.282,0-7.923,0-.144-.008-.289.005-.431a.642.642,0,0,1,1.283.019c.014.143,0,.287,0,.431,0,2.623-.007,5.246,0,7.869a1.954,1.954,0,0,0,2.412,1.98,1.98,1.98,0,0,0,1.5-2.14q0-8.03,0-16.062c0-.214-.048-.479.056-.63.143-.205.416-.452.62-.443s.436.284.582.494c.085.125.032.349.034.528q0,2.722,0,5.444Z" transform="translate(-4140.283 -92.48)" fill="#133d60"/>
        <path id="Trazado_126611" data-name="Trazado 126611" d="M4158.083,62.256c.61-1.058,1.193-2.068,1.778-3.076a3.666,3.666,0,0,1,6.551-.034q4.316,7.454,8.607,14.923a3.641,3.641,0,0,1-2.367,5.487,4.774,4.774,0,0,1-1.016.082q-4.069.009-8.136,0c-.145,0-.332.048-.423-.023-.217-.17-.515-.382-.542-.606-.024-.188.259-.461.466-.611.136-.1.382-.051.578-.052,2.676,0,5.354-.068,8.027.019a2.459,2.459,0,0,0,2.217-3.839c-2.871-4.848-5.649-9.751-8.467-14.631a2.393,2.393,0,0,0-4.4-.025c-.605,1.039-1.2,2.087-1.81,3.12a.678.678,0,0,0-.02.738,5.693,5.693,0,0,1-.582,6.378,5.573,5.573,0,0,1-5.987,2.134,5.688,5.688,0,0,1-4.49-4.573,5.934,5.934,0,0,1,9.557-5.8C4157.76,61.981,4157.894,62.1,4158.083,62.256Zm.419,4.189A4.559,4.559,0,1,0,4153.895,71,4.565,4.565,0,0,0,4158.5,66.445Z" transform="translate(-4145.541 -57.144)" fill="#133d60"/>
        <path id="Trazado_126612" data-name="Trazado 126612" d="M4195.93,87.986v2.1c0,.42-.183.7-.627.713a.609.609,0,0,1-.657-.689q-.02-2.154,0-4.309a.621.621,0,0,1,.662-.693c.424.011.625.3.624.723C4195.926,86.549,4195.93,87.268,4195.93,87.986Z" transform="translate(-4177.691 -76.39)" fill="#133d60"/>
        <path id="Trazado_126613" data-name="Trazado 126613" d="M4195.249,107.132a.689.689,0,0,1-.694-.667.673.673,0,0,1,.688-.719.655.655,0,0,1,.677.683A.686.686,0,0,1,4195.249,107.132Z" transform="translate(-4177.635 -90.593)" fill="#133d60"/>
      </g>
    </g>
  </g>
</svg>
