<svg xmlns="http://www.w3.org/2000/svg" width="60.398" height="79.393" viewBox="0 0 60.398 79.393">
  <g id="icon12" transform="translate(-2045.403 -263.601)">
    <path id="Trazado_126629" data-name="Trazado 126629" d="M2121.891,299.063q0-16.9,0-33.8a1.77,1.77,0,0,0-.089-.792.9.9,0,0,0-1.026-.593.885.885,0,0,0-.813.86c-.008.214,0,.429,0,.643v33.563a3.437,3.437,0,0,0,.012.643.9.9,0,0,0,.93.818.916.916,0,0,0,.973-.778A2.322,2.322,0,0,0,2121.891,299.063Z" transform="translate(-16.348 -0.001)"/>
    <path id="Trazado_126629_-_Contorno" data-name="Trazado 126629 - Contorno" d="M2120.928,300.653h-.031a1.143,1.143,0,0,1-1.171-1.021,2.219,2.219,0,0,1-.021-.511c0-.062,0-.121,0-.179V265.378q0-.08,0-.16c0-.161,0-.327,0-.493a1.132,1.132,0,0,1,1.014-1.1,1.263,1.263,0,0,1,.242-.024,1.166,1.166,0,0,1,1.058.756,1.633,1.633,0,0,1,.115.765c0,.044,0,.089,0,.133q0,16.9,0,33.8c0,.049,0,.1,0,.147a1.639,1.639,0,0,1-.029.476A1.163,1.163,0,0,1,2120.928,300.653Zm.041-36.548a.763.763,0,0,0-.146.015c-.592.116-.606.5-.611.624-.006.156,0,.317,0,.472q0,.081,0,.162v33.563c0,.067,0,.134,0,.2a1.812,1.812,0,0,0,.012.4.647.647,0,0,0,.689.616h.022a.67.67,0,0,0,.7-.59,1.227,1.227,0,0,0,.014-.332c0-.054,0-.111,0-.168q0-16.9,0-33.8c0-.048,0-.1,0-.143a1.189,1.189,0,0,0-.067-.542A.679.679,0,0,0,2120.969,264.105Z" transform="translate(-16.348 -0.001)"/>
    <path id="Trazado_126630" data-name="Trazado 126630" d="M2100.061,263.851c-.62,0-.957.456-.958,1.3q0,5.312,0,10.624a41.722,41.722,0,0,1-2.586-3.713q.005-2.773.011-5.546c0-.536.013-1.072,0-1.607-.021-.622-.338-1.058-.975-1.042a.907.907,0,0,0-.955,1.047,11.67,11.67,0,0,1,0,1.205,13.431,13.431,0,0,1-.128,3.014c-.834-.941-1.461-.927-2.439.055h0c0-1.367,0-2.735-.008-4.1-.006-.779-.374-1.233-.966-1.235s-.96.446-.963,1.214c0,1.476,0,2.951,0,4.426h0a14.7,14.7,0,0,0-2.57-1.48c0-.985.007-1.97-.006-2.955-.01-.764-.39-1.215-.981-1.206s-.906.452-.958,1.217c-.045.673.21,1.374-.164,2.02a14.432,14.432,0,0,0-2.4-.521h0c0-.59.025-1.181-.014-1.768a.908.908,0,0,0-.922-.932c-.527-.01-1.019.268-.972.841.066.828-.037,1.453-.735,1.637h-.034a1.123,1.123,0,0,0-.544.061,4.893,4.893,0,0,0-3.5,2.19c-.322.484-.445.416-.752,0a4.864,4.864,0,0,0-3.781-2.172,54.79,54.79,0,0,0-8.922.144,19.446,19.446,0,0,0-16.05,14.853c-.789,3.611-.388,7.269-.475,10.909-.012.5.331.668.8.692,1.232.063,1.231.074,1.231,1.32a7.5,7.5,0,0,0,.005.8,1.554,1.554,0,0,1-.609,1.456,6.022,6.022,0,0,0-2.071,4.468,6.41,6.41,0,0,0,5.762,6.6,1.135,1.135,0,0,1,1.147.919,18.345,18.345,0,0,0,8.059,10.568,2.757,2.757,0,0,1,1.519,3.009c-.049.512-.212.626-.675.608-.777-.028-1.556-.016-2.334,0a10.42,10.42,0,0,0-9.792,9.126c-.293,3.238-.064,6.489-.115,9.734-.015.947.166,1.106,1.135,1.106q21.174,0,42.348,0c.922,0,1.068-.147,1.069-1.079,0-2.845.01-5.689-.005-8.534a9.593,9.593,0,0,0-1.068-4.493,10.371,10.371,0,0,0-10.091-5.876c-1.731.036-1.7,0-1.749-1.682a1.4,1.4,0,0,1,.817-1.44,19.151,19.151,0,0,0,8.778-11.082,1.086,1.086,0,0,1,1.092-.885,6.424,6.424,0,0,0,3.59-11.221c-.218-.2-.45-.363-.435-.716.047-1.124-.075-2.251.067-3.373a1.044,1.044,0,0,0,1.251.192,1.221,1.221,0,0,0,.5-1.183c-.006-1.864.008-3.727.014-5.592h0a7.521,7.521,0,0,0,2.4-1.976h0c.288.262.156.607.156.911q.014,7.244.008,14.488c0,.817.318,1.2.957,1.2s.972-.391.972-1.194q0-17.024,0-34.047C2101.033,264.314,2100.675,263.849,2100.061,263.851Zm-19.858,4.082a1.716,1.716,0,0,0,.744-.214,2.373,2.373,0,0,0-.139,1.065q0,7.765,0,15.531a3.7,3.7,0,0,0,.08,1.04,1.128,1.128,0,0,0,1.039.87,1.109,1.109,0,0,0,1.157-.7,1.939,1.939,0,0,0,.166-.862c.007-5.564.034-11.129-.014-16.693a4.273,4.273,0,0,0,2.1.538c0,.052,0,.1-.006.157-.033,5.325-.009,10.651-.01,15.978a2.535,2.535,0,0,0,.061.638,1.14,1.14,0,0,0,1.147.939,1.093,1.093,0,0,0,1.123-.859,2,2,0,0,0,.016-1.239,7.846,7.846,0,0,0,2.47,1.878,1.462,1.462,0,0,0-.052.676c-.019,1.439-.022,2.878-.031,4.317-.02-.016-.029-.038-.053-.053a2.729,2.729,0,0,0-1.11-.116c-1.554-.005-3.11.021-4.664-.007a7.6,7.6,0,0,1-7.277-7.378q-.017-5.909,0-11.82A3.42,3.42,0,0,1,2080.2,267.933Zm14.3,23.022a4.922,4.922,0,0,0-2.367-.033c-.009,0-.011.013-.019.018a.834.834,0,0,0,.133-.391c.054-1.168.042-2.335.008-3.5a.962.962,0,0,0-.094-.378,5.3,5.3,0,0,0,2.291-.026,1.377,1.377,0,0,0-.106.561q-.023,1.554,0,3.107A1.266,1.266,0,0,0,2094.5,290.955Zm-46.165.757c-.6.005-.786-.171-.776-.774.034-2.039-.085-4.085.034-6.116a18.213,18.213,0,0,1,12.241-16.224,15.117,15.117,0,0,1,5.343-.9c2.066.044,4.133.006,6.2.011a4,4,0,0,1,3.894,3.9q.005,5.756,0,11.511a8.135,8.135,0,0,1-1.918,5.082,8.971,8.971,0,0,1-7.709,3.505c-2.683-.057-5.368-.012-8.051-.012C2054.506,291.7,2051.42,291.685,2048.334,291.713Zm37.384,32.655a9.08,9.08,0,0,1,6.62,7.409c.385,3.069.074,6.159.161,9.239.009.3-.112.45-.423.438-.215-.009-.429,0-.644,0q-19.964,0-39.926.017c-.78,0-1.064-.139-1.039-1,.069-2.306.013-4.614.026-6.921a9.231,9.231,0,0,1,5.942-8.9,7.957,7.957,0,0,1,2.973-.587c1.154.007,2.308.008,3.461.012h0a.877.877,0,0,0,.544-.967c-.027-.508.02-1.019-.015-1.526-.044-.646.074-.867.786-.572a18.791,18.791,0,0,0,7.677,1.407,18.54,18.54,0,0,0,6.957-1.4c.669-.286.842-.126.789.555-.043.532.012,1.072-.017,1.605a.83.83,0,0,0,.53.892A24.863,24.863,0,0,1,2085.718,324.368Zm10.163-24.453a5.182,5.182,0,0,1-5.216,6.531,1,1,0,0,0-1.191.859c-2.237,7.673-7.317,12.244-15.185,13.544a18.323,18.323,0,0,1-20.749-13.482c-.18-.689-.459-.962-1.217-.92a5.22,5.22,0,0,1-5.384-4.879,5.091,5.091,0,0,1,4.924-5.365c.782-.033,1.085-.328,1.083-1.122-.008-2.067.018-2.067,2.054-2.067q5.394,0,10.788,0a10.385,10.385,0,0,0,9.886-6.088c.059-.116.122-.231.268-.506a9.634,9.634,0,0,0,3.848,4.588,8.9,8.9,0,0,0,4.65,1.345c1.557.011,3.115.049,4.669-.016.8-.033,1.042.256.981,1-.046.56-.007,1.126-.005,1.69,0,.981.128,1.115,1.085,1.161A5.107,5.107,0,0,1,2095.881,299.915Zm2.5-17.655a5.667,5.667,0,0,1-5.018,3.019,5.736,5.736,0,0,1-5.165-3.069,5.152,5.152,0,0,1,.419-5.682c1.427-2.074,2.859-4.144,4.271-6.228.292-.43.448-.565.806-.028,1.412,2.116,2.869,4.2,4.307,6.3A5.174,5.174,0,0,1,2098.378,282.26Z" transform="translate(0 0)"/>
    <path id="Trazado_126630_-_Contorno" data-name="Trazado 126630 - Contorno" d="M2086.541,263.6c.725,0,1.2.57,1.213,1.453.01.706.008,1.422.007,2.115q0,.334,0,.668a8.312,8.312,0,0,1,1.627.918c.145.1.293.2.443.292q0-.531,0-1.062c0-.957,0-1.946,0-2.919,0-.9.467-1.464,1.21-1.464s1.211.57,1.219,1.483c.008.985.008,1.986.008,2.954v.59a1.685,1.685,0,0,1,1.044-.437,1.547,1.547,0,0,1,1,.442,7.45,7.45,0,0,0,.03-1.411,10.651,10.651,0,0,1-.006-1.118,11.592,11.592,0,0,0,0-1.179,1.28,1.28,0,0,1,.308-.95,1.228,1.228,0,0,1,.89-.356h.039a1.178,1.178,0,0,1,1.192,1.284c.013.4.01.806.007,1.2q0,.209,0,.418,0,1.711-.007,3.422,0,1.025,0,2.049l.2.306c.6.921,1.212,1.868,1.888,2.759V273.33q0-4.089,0-8.177c0-1.395.844-1.55,1.207-1.552h.006c.762,0,1.217.583,1.217,1.56,0,11.3,0,22.751,0,34.047,0,1.256-.766,1.444-1.222,1.444-.55,0-1.206-.252-1.207-1.452q0-2.6,0-5.2c0-3.046,0-6.195-.007-9.292a2.455,2.455,0,0,1,.016-.248c.008-.076.014-.141.014-.2a7.828,7.828,0,0,1-2.082,1.66q0,.685-.006,1.37c-.006,1.335-.012,2.715-.008,4.072a1.457,1.457,0,0,1-.627,1.4,1.155,1.155,0,0,1-.6.171,1.27,1.27,0,0,1-.575-.146c-.04.54-.031,1.088-.022,1.622.007.435.015.884,0,1.329-.008.186.084.278.277.451l.078.071a7.094,7.094,0,0,1,2.074,3.19,6.786,6.786,0,0,1-5.8,8.463c-.546.067-.728.213-.884.712a19.442,19.442,0,0,1-8.889,11.222,1.15,1.15,0,0,0-.694,1.217l0,.1a3.02,3.02,0,0,0,.143,1.183c.082.118.3.16.827.16.157,0,.344,0,.521-.007q.161,0,.321,0a10.574,10.574,0,0,1,10,6.013,9.862,9.862,0,0,1,1.1,4.609c.013,2.427.01,4.9.007,7.281v1.254c0,1.068-.26,1.329-1.319,1.329q-21.174,0-42.348,0a1.5,1.5,0,0,1-1.123-.281,1.442,1.442,0,0,1-.262-1.079c.018-1.129,0-2.279-.015-3.391a60.937,60.937,0,0,1,.131-6.362,10.2,10.2,0,0,1,3.313-6.5,10.31,10.31,0,0,1,6.722-2.852c.4-.01.882-.02,1.358-.02.358,0,.682.005.991.017h.073c.236,0,.307,0,.344-.384a2.516,2.516,0,0,0-1.4-2.772,18.564,18.564,0,0,1-8.167-10.708c-.17-.553-.394-.675-.94-.744a6.648,6.648,0,0,1-5.981-6.856,6.237,6.237,0,0,1,2.155-4.647,1.3,1.3,0,0,0,.526-1.241,4.342,4.342,0,0,1-.011-.589c0-.084,0-.163,0-.243a2.177,2.177,0,0,0-.087-.934,2.079,2.079,0,0,0-.907-.136c-.925-.047-1.049-.614-1.041-.948.025-1.054.009-2.13-.007-3.171a33.87,33.87,0,0,1,.488-7.785,19.555,19.555,0,0,1,5.828-10.04,19.875,19.875,0,0,1,4.824-3.307,18.364,18.364,0,0,1,5.609-1.7,33.3,33.3,0,0,1,4.434-.256c1.2,0,2.417.04,3.594.08l.935.03a5.11,5.11,0,0,1,3.974,2.273,1.69,1.69,0,0,0,.181.219,1.28,1.28,0,0,0,.162-.209,5.125,5.125,0,0,1,3.636-2.293.934.934,0,0,1,.393-.073l.111,0,.1,0h.022c.445-.133.586-.508.517-1.367a.951.951,0,0,1,.242-.743,1.3,1.3,0,0,1,.984-.368,1.16,1.16,0,0,1,1.166,1.165c.028.418.023.839.018,1.246,0,.1,0,.206,0,.31a9.435,9.435,0,0,1,1.482.32c.174.048.353.1.531.141a2.387,2.387,0,0,0,.071-1.053,4.88,4.88,0,0,1-.019-.694c.084-1.246.79-1.443,1.2-1.45Zm3.789,6.323-.374-.216c-.292-.168-.573-.357-.846-.539a7.154,7.154,0,0,0-1.679-.92l-.17-.057v-.18q0-.422,0-.845c0-.691,0-1.406-.007-2.107,0-.289-.081-.959-.713-.959h-.014c-.16,0-.646.01-.712.984a4.391,4.391,0,0,0,.019.623,2.473,2.473,0,0,1-.216,1.506l-.092.16-.18-.041c-.252-.057-.5-.126-.745-.192a7.747,7.747,0,0,0-1.615-.323l-.236-.013v-.237c0-.182,0-.367,0-.546,0-.4.01-.809-.017-1.206a.666.666,0,0,0-.677-.7h-.023a.8.8,0,0,0-.584.207.453.453,0,0,0-.111.363c.039.486.129,1.622-.92,1.9l-.031.008h-.086l-.111,0-.1,0a.414.414,0,0,0-.2.036l-.038.02-.043.006a4.649,4.649,0,0,0-3.331,2.081c-.145.218-.321.45-.578.45-.24,0-.406-.2-.584-.439a4.628,4.628,0,0,0-3.587-2.071l-.936-.03c-1.173-.039-2.386-.079-3.577-.079a32.8,32.8,0,0,0-4.368.252,17.864,17.864,0,0,0-5.456,1.655,19.371,19.371,0,0,0-4.7,3.224,19.051,19.051,0,0,0-5.68,9.779,33.488,33.488,0,0,0-.476,7.67c.016,1.046.032,2.127.007,3.191,0,.2.034.409.566.436.659.034,1.022.052,1.248.3s.221.583.221,1.271c0,.089,0,.176,0,.26a3.906,3.906,0,0,0,.009.521,1.8,1.8,0,0,1-.692,1.671,5.755,5.755,0,0,0-1.986,4.288,6.156,6.156,0,0,0,5.544,6.344,1.378,1.378,0,0,1,1.355,1.093,18.076,18.076,0,0,0,7.95,10.429,3,3,0,0,1,1.637,3.246c-.056.594-.3.836-.841.836l-.092,0c-.3-.011-.621-.016-.973-.016-.47,0-.944.01-1.346.02a9.811,9.811,0,0,0-6.394,2.718,9.705,9.705,0,0,0-3.156,6.181,60.664,60.664,0,0,0-.129,6.309c.016,1.116.033,2.27.015,3.406-.006.414.029.629.118.72s.315.132.767.132q21.173,0,42.348,0c.417,0,.621-.034.7-.116a1.28,1.28,0,0,0,.116-.714v-1.254c0-2.386.007-4.852-.007-7.278a9.371,9.371,0,0,0-1.039-4.378,10.077,10.077,0,0,0-9.555-5.746q-.154,0-.311,0c-.187,0-.368.007-.531.007-.554,0-1-.028-1.238-.375a2.855,2.855,0,0,1-.231-1.452l0-.1a1.649,1.649,0,0,1,.939-1.663,18.957,18.957,0,0,0,8.667-10.941,1.323,1.323,0,0,1,1.3-1.059,6.438,6.438,0,0,0,3.35-1.331,6.1,6.1,0,0,0,1.938-3,5.881,5.881,0,0,0-1.837-6.456l-.073-.066a1.023,1.023,0,0,1-.443-.844c.018-.431.01-.873,0-1.3a14.69,14.69,0,0,1,.065-2.094l.056-.44.347.275a1.046,1.046,0,0,0,.628.274.652.652,0,0,0,.34-.1c.277-.164.384-.436.383-.968,0-1.359,0-2.74.008-4.076q0-.759.006-1.517v-.15l.132-.07a7.317,7.317,0,0,0,2.262-1.844v-.478l.418.38a.962.962,0,0,1,.251.9c-.007.071-.014.138-.013.2.006,3.1.006,6.247.007,9.293q0,2.6,0,5.195c0,.837.341.953.707.953s.722-.112.722-.944c0-11.3,0-22.751,0-34.047,0-.483-.125-1.06-.717-1.06-.711,0-.712.793-.712,1.052q0,4.088,0,8.177v3.148l-.443-.543a37.611,37.611,0,0,1-2.364-3.367l-.239-.368-.041-.062v-.074q0-1.062,0-2.124,0-1.711.007-3.422,0-.211,0-.421c0-.387.006-.788-.007-1.178-.013-.365-.143-.8-.692-.8h-.027a.734.734,0,0,0-.538.2.789.789,0,0,0-.173.588,11.967,11.967,0,0,1,0,1.23,10.019,10.019,0,0,0,.006,1.065,6.088,6.088,0,0,1-.144,2l-.127.433-.3-.338c-.369-.416-.673-.61-.958-.61a1.791,1.791,0,0,0-1.117.676l-.427.429v-.606q0-.577,0-1.152c0-.967,0-1.967-.008-2.95,0-.368-.1-.985-.716-.987s-.711.6-.712.965c0,.972,0,1.961,0,2.917q0,.754,0,1.508Zm-8.75-2.93-.408.835a1.842,1.842,0,0,0-.114.822c0,.045,0,.09,0,.134,0,4.929,0,10.154,0,15.53q0,.07,0,.141a2.909,2.909,0,0,0,.071.829.883.883,0,0,0,.822.691c.036,0,.071.005.1.005a.864.864,0,0,0,.8-.566,1.669,1.669,0,0,0,.141-.753q0-1.75.006-3.5c.009-4.323.018-8.793-.02-13.189l0-.41.366.184a4.11,4.11,0,0,0,1.864.514l.119,0,.271-.011-.011.271c0,.016,0,.032,0,.048,0,.034,0,.071,0,.112-.023,3.694-.018,7.45-.014,11.083,0,1.6,0,3.254,0,4.881a2.338,2.338,0,0,0,.053.575.888.888,0,0,0,.911.752h.029a.84.84,0,0,0,.849-.682,1.735,1.735,0,0,0,.018-1.087l.425-.245a7.633,7.633,0,0,0,2.392,1.819l.229.113-.118.227a.731.731,0,0,0-.031.362c0,.065.008.133.007.2-.014,1.091-.02,2.2-.025,3.274q0,.521-.005,1.041l0,.52-.4-.327a.38.38,0,0,1-.037-.035,1.652,1.652,0,0,0-.6-.082c-.116,0-.233,0-.349,0h-.023c-.573,0-1.146,0-1.719,0q-.632,0-1.264,0c-.651,0-1.186,0-1.685-.013a7.849,7.849,0,0,1-7.522-7.627c-.012-4.22-.007-8.344,0-11.821a3.667,3.667,0,0,1,3.466-3.934h.008a1.511,1.511,0,0,0,.63-.172Zm.475,19.488c-.05,0-.1,0-.152-.007a1.377,1.377,0,0,1-1.255-1.049,3.344,3.344,0,0,1-.091-.972q0-.069,0-.137c0-5.376,0-10.6,0-15.531,0-.044,0-.087,0-.131a4.184,4.184,0,0,1,.02-.527c-.111.023-.223.038-.333.053h-.008a3.173,3.173,0,0,0-3.032,3.44c-.007,3.477-.012,7.6,0,11.818a7.349,7.349,0,0,0,7.031,7.128c.5.009,1.028.013,1.676.013q.631,0,1.262,0c.574,0,1.148,0,1.723,0h.021c.115,0,.232,0,.349,0a2.571,2.571,0,0,1,.543.047q0-.333,0-.667c.005-1.074.011-2.185.025-3.278,0-.051,0-.107-.006-.166a1.691,1.691,0,0,1,.007-.379,8.175,8.175,0,0,1-1.833-1.3,2.66,2.66,0,0,1-.113.6,1.341,1.341,0,0,1-1.327,1.036h-.041a1.384,1.384,0,0,1-1.383-1.126,2.764,2.764,0,0,1-.069-.7c0-1.627,0-3.281,0-4.88,0-3.607-.009-7.335.013-11a4.345,4.345,0,0,1-1.594-.393c.034,4.27.025,8.6.017,12.8q0,1.75-.006,3.5a2.185,2.185,0,0,1-.191.972A1.355,1.355,0,0,1,2082.054,286.482Zm-17.167-19.037q.146,0,.293,0c.689.015,1.432.021,2.336.021.579,0,1.168,0,1.738-.005s1.16-.005,1.74-.005h.38a4.246,4.246,0,0,1,4.143,4.154q0,2.842,0,5.684c0,1.91,0,3.885,0,5.828a8.333,8.333,0,0,1-1.971,5.236,9.156,9.156,0,0,1-3.383,2.736,10.2,10.2,0,0,1-4.529.865c-.922-.02-1.908-.029-3.1-.029-.823,0-1.66,0-2.47.009s-1.648.009-2.472.009l-2.412,0-2.411,0c-1.778,0-3.145.005-4.433.016h-.029a1.056,1.056,0,0,1-.772-.237,1.08,1.08,0,0,1-.228-.79c.014-.8,0-1.608-.007-2.393-.016-1.224-.031-2.49.042-3.734a18.463,18.463,0,0,1,12.407-16.445A15.567,15.567,0,0,1,2064.888,267.445Zm2.629.524c-.907,0-1.653-.007-2.346-.021l-.282,0a14.863,14.863,0,0,0-4.973.89,17.963,17.963,0,0,0-12.073,16c-.072,1.226-.056,2.483-.041,3.7.01.789.02,1.6.007,2.408a.656.656,0,0,0,.084.432.631.631,0,0,0,.416.088h.024c1.29-.011,2.658-.016,4.438-.016l2.412,0,2.412,0c.823,0,1.66,0,2.469-.009s1.648-.009,2.473-.009c1.2,0,2.188.009,3.114.029a9.72,9.72,0,0,0,4.309-.819,8.662,8.662,0,0,0,3.2-2.59,7.854,7.854,0,0,0,1.865-4.928c0-1.943,0-3.918,0-5.828q0-2.841,0-5.683a3.753,3.753,0,0,0-3.644-3.655h-.379c-.579,0-1.168,0-1.738.005S2068.1,267.969,2067.517,267.969Zm25.777,1.7c.262,0,.453.234.606.462.972,1.457,1.984,2.925,2.962,4.345.441.64.9,1.3,1.343,1.954a5.921,5.921,0,0,1,1.088,2.923,5.526,5.526,0,0,1-.693,3.024,5.888,5.888,0,0,1-5.225,3.151h-.026a5.985,5.985,0,0,1-5.374-3.2,5.4,5.4,0,0,1-.677-3.03,6.033,6.033,0,0,1,1.11-2.912l.929-1.349c1.1-1.6,2.236-3.246,3.341-4.878C2092.826,269.942,2093.01,269.671,2093.293,269.671Zm.066,15.358a5.414,5.414,0,0,0,4.8-2.887,4.919,4.919,0,0,0-.366-5.429c-.446-.652-.9-1.313-1.343-1.952-.979-1.421-1.992-2.89-2.966-4.351a1,1,0,0,0-.188-.229,1.5,1.5,0,0,0-.2.259c-1.106,1.633-2.244,3.284-3.344,4.881l-.928,1.349a4.9,4.9,0,0,0-.4,5.422,5.322,5.322,0,0,0,2.026,2.15A6.387,6.387,0,0,0,2093.359,285.029Zm-17.395.814.207.476a9.412,9.412,0,0,0,3.749,4.474,8.68,8.68,0,0,0,4.521,1.309l.981.009c.546.006,1.112.012,1.667.012.773,0,1.411-.012,2.009-.037l.128,0a1.13,1.13,0,0,1,.885.3,1.285,1.285,0,0,1,.228.979,11.017,11.017,0,0,0-.013,1.147c0,.171.008.347.009.522a1.386,1.386,0,0,0,.117.761,1.293,1.293,0,0,0,.729.151,5.338,5.338,0,0,1,4.94,3.91,5.435,5.435,0,0,1-5.211,6.852c-.085,0-.172,0-.258-.006l-.111,0c-.488,0-.674.153-.829.682-2.272,7.793-7.448,12.409-15.384,13.721a18.9,18.9,0,0,1-3.069.253,18.562,18.562,0,0,1-15.414-8.243,18.707,18.707,0,0,1-2.549-5.675c-.15-.572-.336-.738-.831-.738-.041,0-.085,0-.13,0-.092.005-.184.008-.276.008a5.377,5.377,0,0,1-.209-10.751c.656-.027.845-.223.843-.871,0-1.06-.006-1.645.331-1.984s.881-.334,1.973-.334h10.8a10.7,10.7,0,0,0,5.734-1.5,11.014,11.014,0,0,0,3.917-4.454c.04-.078.081-.155.148-.281l.121-.228Zm11.125,6.78c-.558,0-1.124-.006-1.672-.012l-.979-.009a9.172,9.172,0,0,1-4.779-1.382,9.727,9.727,0,0,1-3.734-4.236l-.028.055a11.507,11.507,0,0,1-4.1,4.651,11.191,11.191,0,0,1-6,1.574h-.013q-3.6,0-7.192,0H2055c-.893,0-1.433,0-1.619.187s-.189.685-.186,1.629c0,.923-.393,1.333-1.322,1.372a4.842,4.842,0,0,0-4.685,5.1,4.989,4.989,0,0,0,4.873,4.647c.083,0,.166,0,.248-.007.054,0,.107,0,.158,0a1.237,1.237,0,0,1,1.315,1.111,18.1,18.1,0,0,0,11.616,12.565,17.958,17.958,0,0,0,5.863.981,18.4,18.4,0,0,0,2.988-.246,18.632,18.632,0,0,0,9.578-4.322,18.967,18.967,0,0,0,5.407-9.046,1.215,1.215,0,0,1,1.309-1.042c.043,0,.088,0,.134,0,.078,0,.157.005.235.005a4.854,4.854,0,0,0,3.877-1.928,4.906,4.906,0,0,0,.851-4.293,4.84,4.84,0,0,0-4.482-3.541c-1.1-.053-1.319-.29-1.323-1.409,0-.17,0-.344-.009-.512a11.459,11.459,0,0,1,.014-1.2.822.822,0,0,0-.1-.6.708.708,0,0,0-.518-.136l-.107,0C2088.514,292.611,2087.869,292.623,2087.09,292.623Zm7.8-6.335-.211.459a1.118,1.118,0,0,0-.083.46c-.015,1-.015,2.047,0,3.1a1.007,1.007,0,0,0,.12.519l.333.557-.621-.189a3.6,3.6,0,0,0-1.065-.15,6.5,6.5,0,0,0-1.184.124l-.019-.1-.26-.253a.587.587,0,0,0,.1-.274c.047-1,.049-2.073.008-3.483a.711.711,0,0,0-.071-.281l-.209-.453.488.1a4.941,4.941,0,0,0,1.023.107,5.3,5.3,0,0,0,1.161-.132Zm-.771,4.32a2.071,2.071,0,0,1-.024-.292c-.015-1.059-.015-2.107,0-3.115a2.226,2.226,0,0,1,.015-.238,5.522,5.522,0,0,1-1.608.019c0,.019,0,.039,0,.058.042,1.423.039,2.51-.008,3.522q0,.025,0,.049a6.172,6.172,0,0,1,.869-.066A4.349,4.349,0,0,1,2094.117,290.608ZM2063.7,320.631a1.57,1.57,0,0,1,.58.147,18.507,18.507,0,0,0,7.13,1.393c.147,0,.3,0,.446,0a18.164,18.164,0,0,0,6.864-1.379,1.555,1.555,0,0,1,.588-.155.511.511,0,0,1,.39.159,1.066,1.066,0,0,1,.158.8c-.022.274-.017.549-.012.839,0,.248.009.5,0,.76a.579.579,0,0,0,.34.63c.2.006.408.009.643.009.315,0,.637-.005.948-.01s.636-.01.956-.01a12.089,12.089,0,0,1,3.056.317,9.391,9.391,0,0,1,4.542,2.8,8.975,8.975,0,0,1,2.262,4.819,41.324,41.324,0,0,1,.173,5.913c-.021,1.1-.042,2.236-.011,3.35a.683.683,0,0,1-.167.522.631.631,0,0,1-.473.174h-.042c-.058,0-.121,0-.193,0l-.217,0-.225,0h-13.87c-8.238,0-17.1,0-26.055.018h-.007a1.362,1.362,0,0,1-1.026-.282,1.272,1.272,0,0,1-.256-.972c.044-1.487.037-3,.03-4.467,0-.8-.008-1.632,0-2.448a10.131,10.131,0,0,1,1.627-5.593,9.5,9.5,0,0,1,4.473-3.542,8.259,8.259,0,0,1,3.026-.6h.039c.771,0,1.555.007,2.313.008l1.094,0a.634.634,0,0,0,.348-.7c-.013-.249-.009-.5-.005-.739,0-.27.008-.526-.01-.782a1.053,1.053,0,0,1,.16-.811A.515.515,0,0,1,2063.7,320.631Zm7.71,2.04a19,19,0,0,1-7.322-1.431,1.126,1.126,0,0,0-.388-.109.138.138,0,0,0-.029,0,.9.9,0,0,0-.024.432c.019.277.015.555.01.824,0,.233-.007.474,0,.705a1.114,1.114,0,0,1-.7,1.21l-.047.02h-.051l-1.148,0c-.759,0-1.543,0-2.314-.008h-.036a7.764,7.764,0,0,0-2.843.57,9.009,9.009,0,0,0-4.24,3.354,9.632,9.632,0,0,0-1.543,5.318c0,.814,0,1.642,0,2.443.007,1.47.015,2.989-.03,4.485a.9.9,0,0,0,.115.609c.09.093.283.13.667.13h.007c8.959-.016,17.818-.018,26.056-.018h13.87l.217,0,.224,0c.079,0,.148,0,.212,0h.023a.189.189,0,0,0,.114-.022.264.264,0,0,0,.026-.159c-.031-1.126-.01-2.269.011-3.374a40.921,40.921,0,0,0-.169-5.841,8.472,8.472,0,0,0-2.138-4.547,8.884,8.884,0,0,0-4.3-2.651,11.631,11.631,0,0,0-2.93-.3c-.315,0-.637.005-.948.01s-.637.01-.956.01c-.26,0-.493,0-.71-.01l-.049,0-.045-.02a1.079,1.079,0,0,1-.677-1.134c.013-.237.009-.474,0-.724-.005-.29-.011-.589.013-.888a.83.83,0,0,0-.024-.417.131.131,0,0,0-.026,0,1.114,1.114,0,0,0-.392.115,18.654,18.654,0,0,1-7.05,1.419C2071.715,322.67,2071.561,322.672,2071.41,322.672Z" transform="translate(0 0)"/>
    <path id="Trazado_126631" data-name="Trazado 126631" d="M2095.243,304.166c-.214.006-.429-.006-.643,0a15.242,15.242,0,0,1-9.009-2.386c-.39-.25-.842-.525-1.182.023-.379.61.154.846.56,1.1a18.083,18.083,0,0,0,3.8,1.809,2.6,2.6,0,0,0-1.625,2.719c.042,1.1,0,2.2.012,3.295a2.35,2.35,0,0,0,2.276,2.43,2.384,2.384,0,0,0,2.369-2.432c.022-.991-.015-1.983.012-2.973a3.387,3.387,0,0,0-.693-2.462c.383.021.6.012.808.048a22.141,22.141,0,0,0,3.287.112c.457.009.817-.152.8-.672C2096,304.309,2095.677,304.153,2095.243,304.166Z" transform="translate(-8.499 -8.281)"/>
    <path id="Trazado_126631_-_Contorno" data-name="Trazado 126631 - Contorno" d="M2084.893,301.236a1.653,1.653,0,0,1,.834.334,14.948,14.948,0,0,0,8.221,2.358c.212,0,.428,0,.644-.012.114,0,.227,0,.341,0s.2,0,.3,0h.057a.851.851,0,0,1,.973.857.871.871,0,0,1-.227.657,1.085,1.085,0,0,1-.832.272c-.116,0-.24,0-.378,0-.194,0-.393,0-.584,0s-.393,0-.59,0a10.615,10.615,0,0,1-1.772-.121,2.167,2.167,0,0,0-.272-.025,3.86,3.86,0,0,1,.449,2.2c-.014.508-.01,1.027-.007,1.528,0,.473.006.962,0,1.444a2.637,2.637,0,0,1-2.56,2.677h-.065a2.525,2.525,0,0,1-1.79-.792,2.786,2.786,0,0,1-.729-1.885c-.006-.445,0-.9,0-1.331.006-.643.011-1.307-.014-1.957a2.83,2.83,0,0,1,1.273-2.679,18.16,18.16,0,0,1-3.329-1.646l-.114-.07a1.255,1.255,0,0,1-.673-.7.879.879,0,0,1,.148-.673A.8.8,0,0,1,2084.893,301.236Zm9.055,3.192a15.44,15.44,0,0,1-8.491-2.437,1.321,1.321,0,0,0-.564-.255c-.044,0-.147,0-.271.2a.415.415,0,0,0-.087.294c.033.139.253.273.447.391l.121.075a17.866,17.866,0,0,0,3.745,1.784l.582.2-.557.262a2.351,2.351,0,0,0-1.481,2.483c.026.661.02,1.332.014,1.98,0,.433-.008.881,0,1.321a2.1,2.1,0,0,0,2.033,2.183h.052a2.141,2.141,0,0,0,2.06-2.188c.011-.475.008-.96,0-1.429,0-.506-.007-1.029.007-1.545a3.139,3.139,0,0,0-.637-2.3l-.36-.439.567.031c.132.007.244.011.343.014a3.59,3.59,0,0,1,.494.037,10.158,10.158,0,0,0,1.688.113c.194,0,.392,0,.584,0s.393,0,.59,0c.141,0,.268,0,.388,0h.032a.636.636,0,0,0,.432-.122.391.391,0,0,0,.085-.294c-.005-.192-.066-.37-.473-.37h-.042c-.108,0-.217,0-.325,0s-.212,0-.317,0C2094.388,304.424,2094.166,304.428,2093.948,304.428Z" transform="translate(-8.499 -8.281)"/>
    <path id="Trazado_126632" data-name="Trazado 126632" d="M2069.91,301.848c-.272-.492-.69-.4-1.1-.137a15.6,15.6,0,0,1-9.55,2.457c-.478-.022-1-.005-1.006.622s.488.669.977.667a22.913,22.913,0,0,0,3.908-.211,3,3,0,0,0-.733,2.279c.024,1.044,0,2.09.009,3.134a2.354,2.354,0,0,0,2.276,2.5,2.42,2.42,0,0,0,2.367-2.521c.015-.937-.026-1.877.011-2.812.054-1.313-.19-2.46-1.607-3.093a19.266,19.266,0,0,0,4.012-1.912C2069.847,302.59,2070.161,302.3,2069.91,301.848Z" transform="translate(-2.773 -8.283)"/>
    <path id="Trazado_126632_-_Contorno" data-name="Trazado 126632 - Contorno" d="M2069.394,301.245h0a.819.819,0,0,1,.735.483c.4.73-.291,1.163-.518,1.306a19.655,19.655,0,0,1-3.536,1.748,3.149,3.149,0,0,1,1.248,3.056c-.022.539-.017,1.092-.012,1.626,0,.386.007.786,0,1.18a2.677,2.677,0,0,1-2.569,2.767h-.054a2.609,2.609,0,0,1-2.521-2.748c0-.439,0-.884,0-1.316,0-.6.005-1.212-.009-1.815a3.4,3.4,0,0,1,.432-1.953,22.753,22.753,0,0,1-2.869.128h-.517a1.315,1.315,0,0,1-.973-.28.858.858,0,0,1-.224-.641c.01-.58.365-.874,1.055-.874.062,0,.127,0,.212.006.3.014.606.021.9.021a14.976,14.976,0,0,0,8.5-2.437A1.323,1.323,0,0,1,2069.394,301.245Zm-4.651,11.666a2.182,2.182,0,0,0,2.069-2.275c.006-.388,0-.785,0-1.168,0-.54-.01-1.1.012-1.651.078-1.9-.656-2.5-1.46-2.855l-.579-.259.6-.206a19.117,19.117,0,0,0,3.961-1.888c.481-.3.444-.461.345-.64-.11-.2-.216-.224-.3-.224h0a.886.886,0,0,0-.443.176,15.46,15.46,0,0,1-8.774,2.519c-.3,0-.615-.007-.925-.021-.077,0-.135-.005-.189-.005-.467,0-.551.123-.555.382a.351.351,0,0,0,.081.282.963.963,0,0,0,.616.131h.028A22.769,22.769,0,0,0,2063.1,305l.687-.115-.458.525a2.746,2.746,0,0,0-.671,2.109c.014.61.011,1.23.009,1.829,0,.429,0,.873,0,1.309a2.1,2.1,0,0,0,2.032,2.253Z" transform="translate(-2.773 -8.283)"/>
    <path id="Trazado_126633" data-name="Trazado 126633" d="M2069,313.462c-.417-.073-.6.25-.646.645a4,4,0,0,1-.089.471,3.018,3.018,0,0,1-2.989,2.517,3.084,3.084,0,0,1-2.869-2.832c-.055-.451-.222-.83-.715-.785a.646.646,0,0,0-.576.839,4.3,4.3,0,0,0,4.32,4.053,4.351,4.351,0,0,0,4.195-4.093A.74.74,0,0,0,2069,313.462Z" transform="translate(-3.399 -10.914)"/>
    <path id="Trazado_126634" data-name="Trazado 126634" d="M2093.408,313.485c-.474-.043-.644.295-.7.777a2.952,2.952,0,0,1-3.975,2.618,2.885,2.885,0,0,1-1.963-2.6c-.026-.454-.205-.835-.7-.8s-.641.42-.59.884c.015.133,0,.27.021.4a4.28,4.28,0,0,0,8.5-.382C2094.028,313.935,2093.883,313.528,2093.408,313.485Z" transform="translate(-8.761 -10.92)"/>
    <path id="Trazado_126635" data-name="Trazado 126635" d="M2077.556,322.5c-.479.046-.962.065-1.436.141a3.56,3.56,0,0,0-3.054,2.971c-.016.421.076.778.534.846s.689-.247.743-.661a2.178,2.178,0,0,1,2.012-1.871,5.983,5.983,0,0,1,1.918-.062c1.285.143,2.26.629,2.505,2.043a.584.584,0,0,0,.74.545.662.662,0,0,0,.512-.8,3,3,0,0,0-.762-1.732A4.759,4.759,0,0,0,2077.556,322.5Z" transform="translate(-6.031 -12.906)"/>
    <path id="Trazado_126635_-_Contorno" data-name="Trazado 126635 - Contorno" d="M2077.545,322.252h.014a6.633,6.633,0,0,1,2.091.319,4.249,4.249,0,0,1,1.8,1.185,3.264,3.264,0,0,1,.825,1.873.907.907,0,0,1-.705,1.069,1.021,1.021,0,0,1-.223.026.836.836,0,0,1-.818-.772c-.2-1.131-.88-1.68-2.287-1.837a7.03,7.03,0,0,0-.79-.047,4.987,4.987,0,0,0-1.049.1c-1.153.246-1.7.743-1.816,1.659a.88.88,0,0,1-1.028.875c-.52-.077-.771-.448-.747-1.1a3.793,3.793,0,0,1,3.264-3.208c.332-.054.669-.08.995-.1.15-.012.306-.024.457-.038Zm3.8,3.973a.52.52,0,0,0,.114-.014c.244-.055.351-.232.318-.526a2.736,2.736,0,0,0-.7-1.592,4.455,4.455,0,0,0-3.517-1.34c-.151.014-.3.026-.453.038-.316.024-.642.05-.954.1a3.324,3.324,0,0,0-2.844,2.734c-.018.5.141.563.321.589a.586.586,0,0,0,.086.007c.208,0,.333-.152.373-.453a2.437,2.437,0,0,1,2.208-2.083,5.556,5.556,0,0,1,1.153-.115,7.518,7.518,0,0,1,.845.05,2.7,2.7,0,0,1,2.724,2.248C2081.053,326.03,2081.133,326.225,2081.35,326.225Z" transform="translate(-6.031 -12.906)"/>
  </g>
</svg>
