<svg xmlns="http://www.w3.org/2000/svg" xmlns:xlink="http://www.w3.org/1999/xlink" width="127" height="112" viewBox="0 0 127 112">
  <defs>
    <clipPath id="clip-path">
      <rect id="Rectángulo_35876" data-name="Rectángulo 35876" width="127" height="112" transform="translate(578.999 7677)" fill="#fff" stroke="#707070" stroke-width="1"/>
    </clipPath>
  </defs>
  <g id="icon2" transform="translate(-578.999 -7677)" clip-path="url(#clip-path)">
    <g id="QimBqA" transform="translate(-549.007 5772.106)">
      <g id="Grupo_133649" data-name="Grupo 133649" transform="translate(1131.57 1924.712)">
        <path id="Trazado_126693" data-name="Trazado 126693" d="M1251.583,1946.462c-.5,2.566-2.116,4.437-3.818,6.3-4.8,5.238-9.545,10.527-14.444,15.942,2.81,2.265,4.987,4.927,3.935,8.792a9.231,9.231,0,0,1-7.071,6.739c1.019,5.863-5.056,11.242-10.083,9.845-1.023,3.542-3.056,6.221-6.748,7.212-3.886,1.042-6.521-1.24-8.836-3.65a44.151,44.151,0,0,1-3.039,3.9,7.375,7.375,0,0,1-10.442.28c-2-1.793-3.95-3.634-5.707-5.255a49.987,49.987,0,0,0-4.036,3.7c-4.235,4.813-10.746,3.475-13.84-2.4-.125-.237-.218-.492-.324-.736-5.921,2.214-9.991.453-12.452-5.433-3.439,1.163-6.361.274-8.881-2.323-2.585-2.666-3.138-5.635-1.74-8.755a44.729,44.729,0,0,1-4.094-3.13,7.281,7.281,0,0,1-.236-10.5c1.59-1.716,3.228-3.389,4.932-5.174-.579-.506-1.118-.989-1.668-1.459q-4.232-3.613-8.467-7.221c-3.652-3.115-3.942-7.533-.734-11.128q5.265-5.9,10.528-11.8a10.09,10.09,0,0,1,11.809-2.686c1.724.727,3.432,1.491,5.163,2.2a12.075,12.075,0,0,0,9.558-.023c1.621-.672,3.231-1.368,4.846-2.054a14.671,14.671,0,0,1,12.986.35.976.976,0,0,1,.1.052,3.787,3.787,0,0,0,4.673.055,11.008,11.008,0,0,1,10.574-.322c2.8,1.283,5.539,2.7,8.324,4.013a8.573,8.573,0,0,0,8.6-.441c2.861-1.752,5.7-3.548,8.552-5.309a8.09,8.09,0,0,1,10.84,1.773c3.231,4.013,6.412,8.071,9.5,12.191a19.738,19.738,0,0,1,1.735,3.642Zm-56.5,36.991c.36.316.654.562.935.822,4.276,3.947,8.541,7.906,12.84,11.828a5.345,5.345,0,0,0,1.958,1.2c1.771.53,3.6-.543,4.744-2.613a3.39,3.39,0,0,0-.893-4.325q-6.53-6.054-13.078-12.087c-.279-.257-.6-.476-.956-.761l2.831-3.023c.4.363.7.619.98.881q7.315,6.758,14.64,13.505a5.2,5.2,0,0,0,1.848,1.165c2.091.653,3.447-.584,4.77-2.527a3.257,3.257,0,0,0-.772-4.328q-7.977-7.422-15.986-14.81c-.333-.308-.725-.55-1.127-.85l2.884-3.08c.508.468.966.886,1.421,1.307,4.815,4.456,9.616,8.929,14.455,13.36,1.845,1.689,3.67,1.443,5.573-.627,1.684-1.831,1.685-3.731,0-5.352-9.42-9.042-19.185-17.667-30.121-24.877a6.782,6.782,0,0,0-7.6-.314c-1.053.594-2.073,1.246-3.114,1.861-4.343,2.568-8.891,1.251-11.943-3.389a7.448,7.448,0,0,1,2.681-10.534c1.588-.989,3.076-2.14,4.6-3.223.266-.189.509-.408.84-.675a10.672,10.672,0,0,0-9.657-.815c-1.784.68-3.519,1.487-5.281,2.227a16.113,16.113,0,0,1-13.067-.027q-2.527-1.081-5.062-2.144a5.929,5.929,0,0,0-6.926,1.546q-5.366,5.967-10.692,11.97c-1.65,1.861-1.527,3.674.342,5.285,2.958,2.549,5.937,5.074,8.909,7.607.464.4.939.778,1.493,1.236,2.483-2.961,5.14-5.689,9.353-4.606,3.929,1.011,6.273,3.729,6.969,7.893,2.916-.188,5.109,1.23,7,3.3a7.768,7.768,0,0,1,1.688,7.544c4.318,1.162,6.063,4.434,7.114,8.32.145.016.3.041.452.049a8.512,8.512,0,0,1,7.767,11.172,1.389,1.389,0,0,0,.372,1.138c1.566,1.526,3.187,3,4.791,4.481,2.433,2.254,4.14,2.165,6.349-.326a3.351,3.351,0,0,0-.2-5.075c-1.191-1.129-2.411-2.225-3.616-3.338-1.076-.994-2.148-1.992-3.26-3.023Zm35.282-17.579c.234-.245.428-.437.609-.639q7.5-8.3,15-16.591a4.738,4.738,0,0,0,.234-6.74q-4.359-5.584-8.723-11.165a4.2,4.2,0,0,0-6.066-1.109c-2.82,1.744-5.6,3.55-8.451,5.246a12.5,12.5,0,0,1-12.3.613c-2.826-1.318-5.6-2.742-8.434-4.047a7.244,7.244,0,0,0-7.28.416c-3.849,2.521-7.564,5.25-11.324,7.908a3.084,3.084,0,0,0-1.381,2.817,4.692,4.692,0,0,0,6.937,3.75c1.216-.7,2.374-1.51,3.621-2.149,3.69-1.891,7.5-1.975,10.9.378q8.509,5.9,16.638,12.335C1223.833,1959.647,1226.985,1962.818,1230.367,1965.874Zm-66.381.274a8.9,8.9,0,0,0-2.137,1.3c-4.447,4.54-8.837,9.136-13.223,13.735-1.771,1.857-1.625,3.687.368,5.579,1.953,1.856,3.814,1.877,5.6.022q6.524-6.79,13.028-13.6c1.135-1.182,1.657-2.554.859-4.034A5.294,5.294,0,0,0,1163.985,1966.147Zm-9.141-8.081a7.806,7.806,0,0,0-2.028,1.178q-5.1,5.16-10.056,10.46c-1.635,1.738-1.374,3.623.629,5.479,1.863,1.727,3.667,1.739,5.315.025,3.244-3.375,6.472-6.765,9.732-10.123,1.065-1.1,1.684-2.26.958-3.771A5.074,5.074,0,0,0,1154.844,1958.067Zm20.82,23.341c-.138-1.689-1.2-2.6-2.231-3.5a3.31,3.31,0,0,0-4.827.135q-4.613,4.742-9.146,9.561a3.228,3.228,0,0,0,.052,4.551,13.651,13.651,0,0,0,1.1,1.053,3.368,3.368,0,0,0,4.838-.12c3.027-3.1,6.032-6.221,8.978-9.4A10.355,10.355,0,0,0,1175.664,1981.407Zm8.905,8.428c-.168-1.785-1.322-2.718-2.443-3.629a3.283,3.283,0,0,0-4.568.223q-2.934,2.948-5.755,6.006a3.35,3.35,0,0,0,.12,4.833,13.822,13.822,0,0,0,1.02.965,3.337,3.337,0,0,0,4.751-.166c1.927-1.939,3.833-3.9,5.656-5.935A10.637,10.637,0,0,0,1184.569,1989.836Z" transform="translate(-1131.57 -1924.712)" fill="#5bd3a9"/>
      </g>
    </g>
  </g>
</svg>
