<svg xmlns="http://www.w3.org/2000/svg" width="231.55" height="190.401" viewBox="0 0 231.55 190.401">
  <g id="img1" transform="translate(0 0)">
    <g id="Grupo_132759" data-name="Grupo 132759" transform="translate(146.476 53.391)">
      <path id="Trazado_126028" data-name="Trazado 126028" d="M1379.855,366a.493.493,0,0,1,.2-.272c1.514-1.643,4.191-4.367,6.679-3.228,2.121.971,2.851,3.99,2.291,6.069-.682,2.531-2.791,2.883-5.076,2.257a8.822,8.822,0,0,1-3.729-1.9C1379.363,368.09,1379.522,367.064,1379.855,366Z" transform="translate(-1318.977 -359.879)" fill="#522727"/>
      <path id="Trazado_126029" data-name="Trazado 126029" d="M1389.263,406.971c.935-2.163,2.579-3.6,2.932-6.047.327-2.259.142-4.506,1.092-6.644a.481.481,0,0,1,.18-.319,59.164,59.164,0,0,1,4.944-4.019,17.4,17.4,0,0,1,5.99-2.272c4.093-.909,8.413-.923,12,1.5.2.019.789-1.16.827-.9a59.687,59.687,0,0,0,3.063,10.818,15.033,15.033,0,0,1,.685,8.848,48.849,48.849,0,0,0-1.424,5.318,17.958,17.958,0,0,0,.174,5.68c.538,3.076,1.286,6.174-.15,9.123a.577.577,0,0,1-1.052-.04.567.567,0,0,1-.116-.013c-5.252-1.1-10.676-1.924-15.816-3.479-2.563-.776-5.059-1.795-7.567-2.727-1.291-.48-2.654-.877-3.905-1.452a2.039,2.039,0,0,1-1.258-1.08,14.022,14.022,0,0,1-.35-2.921c-.2-1.162-.561-2.29-.778-3.448A10.036,10.036,0,0,1,1389.263,406.971Z" transform="translate(-1354.858 -374.419)" fill="#522727"/>
      <path id="Trazado_126030" data-name="Trazado 126030" d="M1416.522,415.042a.548.548,0,0,1,.253-.5c1.188-.775,2.648-.94,3.789-1.8a12.251,12.251,0,0,0,2.663-3.164,55.519,55.519,0,0,0,4.2-8.224.536.536,0,0,1,.035-.062.547.547,0,0,1,.081-.218c1.571-2.537,4.553-3.325,7.208-4.261,1.809-.638,4.853-1.487,4.674,1.532a12.919,12.919,0,0,1-1.621,4.5q-1.325,2.789-2.654,5.576a27.127,27.127,0,0,0-2.293,5.44c-.518,2.275,1.376,3.371,1.854,5.611.179.073-1.1,1.458-1.145,1.713-.688,4-6.673,4.154-9.689,3.263a10.806,10.806,0,0,1-7.5-8.954A.521.521,0,0,1,1416.522,415.042Z" transform="translate(-1384.481 -379.738)" fill="#944b3c"/>
      <path id="Trazado_126031" data-name="Trazado 126031" d="M1372.59,457.205c.881-4.105,2.128-8.311,4.759-11.664,2.975-3.791,7.372-5.573,11.832-7.008q4.8-1.546,9.674-2.88,2.485-.683,4.985-1.313c1.124-.283,1.207-.41,1.357.751.522,4.038,2.123,9.332,6.892,9.881,3.413.393,5.478-2.057,6.341-4.953a.946.946,0,0,1,1.519-.452c6.245,5.27,13.64,9.3,18.59,15.939,5.417,7.266,5.272,16.077,4.734,24.717a1.089,1.089,0,0,1-.439.6c-2.947,1.333-.662,2.835-2.647,5.506-2.058,2.771-9.8,16.992-11.15,20.083-1.189,2.715-23.941,9.293-27.893,9.019-8.464-.585-24.978-14.614-31.779-22.993C1367.323,489.928,1371.685,461.423,1372.59,457.205Z" transform="translate(-1368.826 -401.922)" fill="#95c0d9"/>
      <path id="Trazado_126032" data-name="Trazado 126032" d="M1398.607,379.459c3.8-.127,9.716.343,11.451,4.389s.608,9.221.324,13.442a24.647,24.647,0,0,0,.447,7.8c.611,2.386,1.773,4.632,1.92,7.124.15,2.543-.849,4.807-.235,7.371.493,2.059,1.185,3.926.372,6a.543.543,0,0,1-.8.27,6.527,6.527,0,0,0-3.031-.484c-1.56,0-2.794.62-3.98-.7-2.012-2.245-3.989-5.052-3.834-8.205.1-2.1.447-3.222-.1-5.344-.471-1.83-2.184-3.008-2.792-4.792-1.328-3.9.771-8.722,1.391-12.652a26.6,26.6,0,0,0-1.612-13.033.445.445,0,0,1,0-.328A.578.578,0,0,1,1398.607,379.459Z" transform="translate(-1350.649 -369.939)" fill="#522727"/>
      <path id="Trazado_126033" data-name="Trazado 126033" d="M1413.217,371.343a2.389,2.389,0,0,0,1.382,1.2c-.178.7-.334,1.409-.472,2.1-.071.362-.14.724-.2,1.076-.118.662-.221,1.3-.315,1.912-.717,4.793,1.749,4.01,4.673,4.749a8.646,8.646,0,0,0,4.707.275,7.1,7.1,0,0,0,3.168-2.76.48.48,0,0,0,.1-.243c2.163-.783,4.537-1.162,6.04-3.02,3.763-4.652.5-11.947-4.082-14.878a6.44,6.44,0,0,0-7.805.4c-2.359,1.731-3.909,4.529-4.959,7.538-.666.312-1.332.627-1.995.939A.543.543,0,0,0,1413.217,371.343Z" transform="translate(-1377.659 -358.933)" fill="#944b3c"/>
      <path id="Trazado_126034" data-name="Trazado 126034" d="M1441.693,375.728a6.3,6.3,0,0,1,2.343-.03c.253.052,1.269.375.923.874a.449.449,0,0,1-.148.12,5.185,5.185,0,0,1-2.362.683c-.511.024-1.408.121-1.612-.514S1441.071,375.887,1441.693,375.728Z" transform="translate(-1400.225 -367.694)" fill="#522727"/>
      <path id="Trazado_126035" data-name="Trazado 126035" d="M1395.876,356.934a10.555,10.555,0,0,1,3.19-.216c4.749.308,9.732,1.772,12.528,5.865,2.538,3.715,3.988,9.812,1.615,13.952-.18.314-3.05-.694-3.277-.5a5.378,5.378,0,0,1-3.118,1.314c-2.975.2-5.324-1.268-7.46-3.04a20.448,20.448,0,0,1-6.121-7.385c-1.161-2.679-1.948-6.28.266-8.667A4.73,4.73,0,0,1,1395.876,356.934Z" transform="translate(-1349.384 -356.635)" fill="#522727"/>
      <path id="Trazado_126036" data-name="Trazado 126036" d="M1397.025,399.921a28.753,28.753,0,0,0,4.61,1.731c1.461.364,3.472.741,4.647-.467.159-.164.394.1.235.265-1.04,1.068-2.633.982-3.993.75a24.112,24.112,0,0,1-5.614-1.944C1396.7,400.165,1396.815,399.828,1397.025,399.921Z" transform="translate(-1343.494 -381.903)" fill="#0a0405"/>
      <path id="Trazado_126037" data-name="Trazado 126037" d="M1418.779,395.622c.958-1.108,2.895-2.283,4.475-1.612,3.274,1.391-1.936,6.752-4.625,4.53A1.946,1.946,0,0,1,1418.779,395.622Z" transform="translate(-1370.043 -378.341)" fill="#944b3c"/>
      <path id="Trazado_126038" data-name="Trazado 126038" d="M1426.387,361.463c1.925-3.757,5.21-5.286,9.972-4.817a2.619,2.619,0,0,1,.662.376c.535-.011.669.883.071,1.065-1.554.472-2.175,2.386-3.89,2.718-2.483.479-4.016-.534-6.017,1.18C1426.782,362.331,1426.143,361.94,1426.387,361.463Z" transform="translate(-1386.677 -356.564)" fill="#522727"/>
      <path id="Trazado_126039" data-name="Trazado 126039" d="M1421.122,397.658c.847-.7,2.525-2.165,3.58-1.069.159.165-.108.4-.266.236-.842-.874-2.422.556-3.079,1.1C1421.182,398.069,1420.946,397.8,1421.122,397.658Z" transform="translate(-1371.752 -379.734)" fill="#6f2e17"/>
      <path id="Trazado_126040" data-name="Trazado 126040" d="M1456.575,387.154a3.267,3.267,0,0,1,.955.666c.162.162-.1.4-.265.235a2.788,2.788,0,0,0-.8-.565C1456.255,387.395,1456.367,387.058,1456.575,387.154Z" transform="translate(-1419.239 -374.438)" fill="#6f2e17"/>
      <path id="Trazado_126041" data-name="Trazado 126041" d="M1455.218,394.09c.655-.188,2.106.931,2.363,1.207a.187.187,0,0,1-.086.307,7.729,7.729,0,0,1-2.176-.192.831.831,0,0,1-.272-.1.3.3,0,0,1-.054-.042,3.18,3.18,0,0,1,.2-1.117Z" transform="translate(-1418.73 -378.491)" fill="#58291e"/>
      <path id="Trazado_126042" data-name="Trazado 126042" d="M1446.254,380.862c.115-.348.432-.954.858-.68.624.4.068,1.746-.565,1.806C1445.971,382.043,1446.147,381.186,1446.254,380.862Z" transform="translate(-1404.804 -370.332)" fill="#0a0405"/>
      <path id="Trazado_126043" data-name="Trazado 126043" d="M1396.212,423.6c-.074-.216.274-.287.348-.074,1.933,5.625-1.881,11.1-1.627,16.737.01.228-.344.2-.354-.022C1394.326,434.629,1398.131,429.183,1396.212,423.6Z" transform="translate(-1333.105 -395.638)" fill="#0a0405"/>
      <path id="Trazado_126044" data-name="Trazado 126044" d="M1385.015,369.874a11.05,11.05,0,0,1,.642.95,6.862,6.862,0,0,1,2.774-1.39c.805-.231,1.771-.628,2.249.3.889,1.727-.373,4.146-2.463,3.561-.22-.061-.1-.4.115-.336a1.786,1.786,0,0,0,2.18-1.2c.316-.959,0-2.494-1.338-2.159a7.366,7.366,0,0,0-3.335,1.538,10.838,10.838,0,0,1,1.071,2.718c.054.222-.293.295-.347.074a10.431,10.431,0,0,0-1.06-2.67.2.2,0,0,1-.075-.132,10.559,10.559,0,0,0-.677-1.02C1384.612,369.928,1384.877,369.691,1385.015,369.874Z" transform="translate(-1322.871 -363.921)" fill="#0a0405"/>
      <path id="Trazado_126045" data-name="Trazado 126045" d="M1368.608,540.732c1.009-3.1,3.576-2.348,4.983-5.234a90.056,90.056,0,0,0,3.843-9.833l1.78-5.085a22.168,22.168,0,0,1,1.612-3.894c.911-1.566,3.719-4.2,5.288-1.918a3.111,3.111,0,0,1,.739.376c.5,6.044.361,11.85.369,17.919q0,2.264-.092,4.527a21.793,21.793,0,0,1-.326,4.3c-.228.886-1.018,1.089-1.828,1.242-1.52.286-.974.736-2.449,1.2-3.237,1.019-9.669.822-12.791.542C1369.593,544.86,1368.063,542.41,1368.608,540.732Z" transform="translate(-1312.399 -448.535)" fill="#95c0d9"/>
      <path id="Trazado_126046" data-name="Trazado 126046" d="M1355.109,474.519c.689-.508,1.676,1.561,1.859,1.953a12.077,12.077,0,0,1,.969,4.128c.067-1.113.123-2.223.242-3.333a.183.183,0,0,1-.027-.055c-.555-2.061-1.016-4.147-1.365-6.253-.162-.978-.333-1.966-.415-2.954a1.823,1.823,0,0,1,.416-1.55.193.193,0,0,1,.267.016,4.352,4.352,0,0,1,1.09,2.241c.02-.319.047-.636.086-.952a4.326,4.326,0,0,1,.924-2.5.6.6,0,0,1,1.065.14,3.85,3.85,0,0,1,.383,1.156c.376-.621.591-3.363,1.716-3.248.852.086.389,1.678.291,2.107a39.116,39.116,0,0,1-3.6,8.815.17.17,0,0,1-.032.041c-.263,1.509-.442,3.03-.555,4.557a18.447,18.447,0,0,1,1.423-3.686,12.223,12.223,0,0,1,1.545-2.283c.252-.292.6-.789,1.051-.645,2.03.65-3.553,8.259-4.1,9.1a.18.18,0,0,1-.039.04,45.859,45.859,0,0,0,.644,8.614c.041.24-.329.319-.371.078a46.031,46.031,0,0,1-.651-7.053.176.176,0,0,1-.077-.076,42.71,42.71,0,0,1-2.422-4.625,8,8,0,0,1-.488-2.108C1354.908,475.808,1354.723,474.8,1355.109,474.519Z" transform="translate(-1282.388 -418.97)" fill="#7d4851"/>
      <path id="Trazado_126047" data-name="Trazado 126047" d="M1417.193,412.219c-.065-.219.283-.291.347-.074a23.43,23.43,0,0,1,1.154,5.444,16.005,16.005,0,0,1-1.075,5.472c-1.2,4.052-.422,8.3.459,12.332a.178.178,0,0,1-.347.074c-.8-3.664-1.526-7.5-.768-11.239.4-1.982,1.341-3.806,1.388-5.859A20.222,20.222,0,0,0,1417.193,412.219Z" transform="translate(-1363.87 -388.982)" fill="#0a0405"/>
      <path id="Trazado_126048" data-name="Trazado 126048" d="M1429.271,438.415c.045-.223.381-.106.336.115a10.222,10.222,0,0,0,.112,4.534c.055.222-.292.295-.348.074A10.628,10.628,0,0,1,1429.271,438.415Z" transform="translate(-1380.047 -404.347)" fill="#0a0405"/>
      <path id="Trazado_126049" data-name="Trazado 126049" d="M1343.858,525.084c.321-5.3,7.292-12.619,8.1-13.475.373-.395,1.33-1.62,1.954-1.507a.835.835,0,0,1,.461.326,3.548,3.548,0,0,1,.422,2.416,5.718,5.718,0,0,1-.663,2.778,17.289,17.289,0,0,1-1.146,1.773.642.642,0,0,0,.7,1l1.35-.408a3,3,0,0,0,2.437-2.431,3.8,3.8,0,0,0,.219-.812c.268-1.984-1.432-2.53-2.332-3.672-.674-.857-1.362-3.578.438-3.574,1.045,0,2.327,1.619,3.069,2.225a13.547,13.547,0,0,1,2.728,2.483,3.957,3.957,0,0,1,.146,4.029c.014.045.025.091.038.137a3.248,3.248,0,0,1,1.418,2.336,3.56,3.56,0,0,1-.6,2.178c0,.02,0,.039.005.059a3.347,3.347,0,0,1,.457,3.655,2.5,2.5,0,0,1,.92,2.949c-.442,1.052-1.675,4.534-8.275,5.629-.633.1,1.008,15.9,1.1,17.157.034.454.3,1.5.072,1.931-.606,1.132-10.464.237-10.573.014-.877-1.789-1.73-19.279-1.541-21.167C1344.845,530.361,1343.664,528.29,1343.858,525.084Z" transform="translate(-1279.091 -444.804)" fill="#944b3c"/>
      <path id="Trazado_126050" data-name="Trazado 126050" d="M1371.839,537.345c-.219-1.427,1.477-2.513,2.444-3.286.19-.152.442.131.251.284a10.113,10.113,0,0,0-1.869,1.708c-.893,1.219-.06,2.195.246,3.394a4.789,4.789,0,0,1-.692,3.884.19.19,0,0,1-.315-.211,4.426,4.426,0,0,0,.734-3.128C1372.5,539.072,1371.979,538.257,1371.839,537.345Z" transform="translate(-1301.151 -460.309)" fill="#6f2e17"/>
      <path id="Trazado_126051" data-name="Trazado 126051" d="M1348.633,531.4c1.276-1.924,3.184-3.6,5.642-3.334.242.027.22.4-.023.378-2.074-.228-3.764,1.042-4.937,2.638a6.85,6.85,0,0,0-1.358,2.677,2.138,2.138,0,0,0,.142,1.349,2.784,2.784,0,0,0,1.04,1c.326.218.321.123.53-.189.159-.239.325-.474.489-.71,1.138-1.644,2.932-2.959,5.013-2.414.236.062.113.42-.123.359-1.919-.5-3.542.778-4.575,2.266a17.667,17.667,0,0,0-1.085,1.818,1.853,1.853,0,0,0,.249,2.251.288.288,0,0,0,.451,0c.154-.2.316-.385.462-.555,1.208-1.412,3.1-3.144,5.1-2.353.226.089.1.449-.123.358-1.671-.662-3.235.682-4.316,1.827a10.9,10.9,0,0,0-.755.888,1.839,1.839,0,0,0-.51,1.446c.081.461.939,1.462,1.465,1.31a6.088,6.088,0,0,0,2.423-1.364.547.547,0,0,1,.192-.133.177.177,0,0,1,.208.064c.054.1-.039.215-.127.288a11.206,11.206,0,0,1-1.266.942,3.954,3.954,0,0,1-1.468.665.784.784,0,0,1-.331-.059,2.794,2.794,0,0,1-1.532-1.731,1.232,1.232,0,0,1,.177-.967,2.5,2.5,0,0,1-.979-2.245,4.575,4.575,0,0,1,.524-1.244,7.094,7.094,0,0,1-1.152-.9,2.513,2.513,0,0,1-.6-1.434A4.9,4.9,0,0,1,1348.633,531.4Z" transform="translate(-1272.2 -456.814)" fill="#6f2e17"/>
      <path id="Trazado_126052" data-name="Trazado 126052" d="M1443.749,361.464a.178.178,0,0,1,.3.2,4.457,4.457,0,0,0-.675,1.733c-.037.223-.391.2-.354-.022A4.9,4.9,0,0,1,1443.749,361.464Z" transform="translate(-1400.194 -359.383)" fill="#0a0405"/>
      <path id="Trazado_126053" data-name="Trazado 126053" d="M1399.217,372.807a21.489,21.489,0,0,0,3.924,5.209c1.707,1.594,4.292,3.355,6.729,2.654.22-.064.292.285.073.347-2.381.685-4.885-.863-6.622-2.365a21.1,21.1,0,0,1-4.421-5.685C1398.788,372.768,1399.1,372.609,1399.217,372.807Z" transform="translate(-1347.862 -366.007)" fill="#0a0405"/>
      <path id="Trazado_126054" data-name="Trazado 126054" d="M1426.066,368.729a12.641,12.641,0,0,0,2.138,6.171c.128.19-.191.348-.317.16a12.969,12.969,0,0,1-2.176-6.353C1425.7,368.481,1426.049,368.5,1426.066,368.729Z" transform="translate(-1377.166 -363.571)" fill="#0a0405"/>
      <path id="Trazado_126055" data-name="Trazado 126055" d="M1434.375,410.293a3.993,3.993,0,0,0,2.28-.65c.573-.38.938-.96,1.487-1.36.184-.133.421.131.235.266a17.892,17.892,0,0,1-1.836,1.58,4.417,4.417,0,0,1-2.188.519C1434.126,410.645,1434.148,410.291,1434.375,410.293Z" transform="translate(-1390.901 -386.779)" fill="#6f2e17"/>
    </g>
    <g id="Grupo_132766" data-name="Grupo 132766" transform="translate(73.219 0)">
      <path id="Trazado_126056" data-name="Trazado 126056" d="M1601.973,310.488a.186.186,0,0,1,.2-.226l12.022.652c.854.046,2.2-.049,2.246,1.116a5.434,5.434,0,0,1-1.48,3.239,8.081,8.081,0,0,1-3.507,2.189c-1.713.643-2.857,1.8-4.364,2.755a7.9,7.9,0,0,1-1.86.788,5.964,5.964,0,0,0-1.409.653c-.206.132-.368.321-.641.312-.817-.028-1.463-1.738-1.719-2.329A10.288,10.288,0,0,1,1601.973,310.488Z" transform="translate(-1564.766 -276.103)" fill="#c44c65"/>
      <path id="Trazado_126057" data-name="Trazado 126057" d="M1675.471,296.785a.8.8,0,0,1,1.289-.2c.63.559.578,1.865.8,2.616.639,2.191,1.738,4.213,2.334,6.416a2.92,2.92,0,0,1,.137-.832c.244-.746.865-1.949,1.761-2.044.964-.1.876,1.1.732,1.729a23.4,23.4,0,0,1-.862,2.356c-.277.8-.5,1.619-.7,2.442a.174.174,0,0,1-.339-.024.129.129,0,0,1-.012-.019c-.991-2.464-3-4.254-4.348-6.5C1675.305,301.135,1674.371,298.551,1675.471,296.785Z" transform="translate(-1661.819 -267.967)" fill="#3f8869"/>
      <path id="Trazado_126058" data-name="Trazado 126058" d="M1631.466,263.7a.546.546,0,0,1,.208-.075c1.483-.224,2.385,1.045,3.175,2.123a21.074,21.074,0,0,1,3.959,10.7c.111,1.382.2,2.885-.911,3.881-.26.233-.2-3.532-.6-3.626-2.157-.512-3.384-3.029-4.442-5.593-1.1-2.655-1.392-5.141-2.147-7.491C1630.557,263.138,1631.1,263.523,1631.466,263.7Z" transform="translate(-1599.684 -248.697)" fill="#7d4851"/>
      <path id="Trazado_126059" data-name="Trazado 126059" d="M1591.233,240.462c-.864.186-1.715.39-2.584.512a2.864,2.864,0,0,1-2.916-2.275c-.476-1.63.8-2.587,2.2-3.42,1.706-1.019,2.218-3.337,3.724-4.683a10.266,10.266,0,0,1,5.017-2.391c3.3-.6,7.023.244,9.012,2.741,1.463-.032,3.039-.579,4.491-.458a5.408,5.408,0,0,1,3.806,1.834c1.234,1.481,1.406,3.9-.494,4.814,1.277,2.2-.489,4.655-3.169,4.7-1.012.609-2.21-.69-2.745-1.4a13.334,13.334,0,0,1-1.8-4.359,4.053,4.053,0,0,1-.727.156,7.462,7.462,0,0,1-4.987-1.63c-1.008,1.91-3.6,1.688-5.669,1.086a3.994,3.994,0,0,1-.429,2.563,4.963,4.963,0,0,1-2.647,2.213A.191.191,0,0,0,1591.233,240.462Z" transform="translate(-1557.013 -228.021)" fill="#7d4851"/>
      <path id="Trazado_126060" data-name="Trazado 126060" d="M1601.662,282.1c.017.025.041.042.06.065a.485.485,0,0,1,.388.325,6,6,0,0,0,2.191.42q1.561.181,3.127.3c.8.058,1.609.066,2.4.167.845.107,2.416.363,3.262.46a.546.546,0,0,1,.287.962c.552,4.375,1.24,10.139,4.535,13.274.032.03-.731.15-.709.183a.383.383,0,0,1,.065.341.474.474,0,0,1-.014.053.4.4,0,0,1-.014.038l-.013.03a8.348,8.348,0,0,1-3.684,3.557c-1.531.845-5.121,3.831-6.846,3.767-2.966-.109-8.372-3.548-7.4-6.975.029-.1,3.812-1.5,3.875-1.561a.75.75,0,0,1,.057-.1c1.83-2.965-1.046-12.458-1.822-14.7-.169-.138-.483.12-.616-.071C1600.425,282.089,1601.292,281.568,1601.662,282.1Z" transform="translate(-1565.649 -259.508)" fill="#faa985"/>
      <path id="Trazado_126061" data-name="Trazado 126061" d="M1598.575,245.558a11.507,11.507,0,0,1,7.4-6.59,12.417,12.417,0,0,1,5.161-.449c1.919.244,3.83.654,5.051,2.285,2.947,3.938,2.573,9.725,2.024,14.323-.258,2.157-1.026,5.155-2.771,6.708-3.185,2.834-7.682.942-10.989-.753a7.83,7.83,0,0,1-4.013-3.929,62.858,62.858,0,0,1-1.885-6.378A8.248,8.248,0,0,1,1598.575,245.558Z" transform="translate(-1565.883 -234.103)" fill="#faa985"/>
      <path id="Trazado_126062" data-name="Trazado 126062" d="M1622.861,254.13a.641.641,0,0,1,.328-.5c.356-.181.842.048,1.2.106a4.354,4.354,0,0,1,1.642.51c.552.345.946,1,.36,1.53-.537.482-1.415.254-2.014.017a2.5,2.5,0,0,1-1.5-1.319A.834.834,0,0,1,1622.861,254.13Z" transform="translate(-1584.246 -242.952)" fill="#7d4851"/>
      <path id="Trazado_126063" data-name="Trazado 126063" d="M1601.8,254.416c.131-.6.823-.7,1.346-.455.734.346,1.4.824,2.143,1.16a.524.524,0,0,1,.049.911c-.772.59-2.136.192-2.849-.307a1.422,1.422,0,0,1-.709-1.147A.971.971,0,0,1,1601.8,254.416Z" transform="translate(-1554.39 -243.114)" fill="#7d4851"/>
      <path id="Trazado_126064" data-name="Trazado 126064" d="M1639.546,247.654c-.1-2.233,2.58-3.2,4.421-4.407l0-.223a.465.465,0,1,1,.929-.015c0,.1.007.209.009.313.065.135-.3.412-.363.545.1,3.243,1.246,8.679-1.346,9.9-1.511.714-.814,4.76-1.573,2.488C1639.929,251.2,1639.64,249.813,1639.546,247.654Z" transform="translate(-1609.402 -236.502)" fill="#7d4851"/>
      <g id="Grupo_132760" data-name="Grupo 132760" transform="translate(47.165 12.869)">
        <path id="Trazado_126065" data-name="Trazado 126065" d="M1599.911,264.2a2.548,2.548,0,0,0,.754-.095c1.077-.411,1.64-2.882,1.744-4.014a.552.552,0,0,0-.162-.438c-.677-.711-3.763-.692-5.542-.618a.7.7,0,0,0-.662.606c-.1.752-.2,2.883.534,3.708C1597.126,263.969,1598.846,264.223,1599.911,264.2Zm-2.215-4.769c2.274-.038,3.9.153,4.242.515a.126.126,0,0,1,.046.105c-.123,1.339-.741,3.377-1.471,3.656-.511.2-3.036.01-3.62-.642s-.54-2.549-.43-3.367a.275.275,0,0,1,.259-.238Q1597.225,259.444,1597.7,259.436Z" transform="translate(-1595.971 -259.005)" fill="#0a0405"/>
      </g>
      <path id="Trazado_126066" data-name="Trazado 126066" d="M1591.959,240.6a18.843,18.843,0,0,1,1.549-2.129c2.61-3.068,6.172-3.85,10.041-4.034,2.158-.1,4.079.66,6.2.675,1.375.01,2.828-.135,3.343,1.4a.481.481,0,0,1-.006.351,5.286,5.286,0,0,1,2.154,2.291c.712,1.441,2.755,4.672,1.427,5.688-.672.514-2.281,2.041-3.742-2.471a4.682,4.682,0,0,0-1.338-1.846,1.226,1.226,0,0,0-1.157-.265,5.425,5.425,0,0,1-3.251-.162c-1.294-.488-1.866-1.039-3.334-.019a18.981,18.981,0,0,1-2.251,1.534,10.562,10.562,0,0,1-3.707,1.064.557.557,0,0,0-.493.429c-.072.328-.187.75-.206.8a3.349,3.349,0,0,1-.81,1.153,3.607,3.607,0,0,1-3.832.507,3.7,3.7,0,0,1-2.387-2.284C1589.925,242.673,1591.638,241.107,1591.959,240.6Z" transform="translate(-1561.08 -231.767)" fill="#7d4851"/>
      <path id="Trazado_126067" data-name="Trazado 126067" d="M1641.828,263.963a3.6,3.6,0,0,1,2.251,1.766,7.757,7.757,0,0,1,.482,4.848c-.748.751-1.881-.586-2.393-1.139a6.979,6.979,0,0,1-2.032-3.453C1640,264.889,1640.593,263.766,1641.828,263.963Z" transform="translate(-1609.501 -249.021)" fill="#faa985"/>
      <path id="Trazado_126068" data-name="Trazado 126068" d="M1610.97,264.62a3.431,3.431,0,0,0,1.285-1.552,2.693,2.693,0,0,0-.661-2.253c-.127-.176.162-.349.288-.175a3.153,3.153,0,0,1,.751,2.264,3.351,3.351,0,0,1-1.422,1.951C1611.046,264.991,1610.8,264.758,1610.97,264.62Z" transform="translate(-1565.259 -247.049)" fill="#bf5b46"/>
      <path id="Trazado_126069" data-name="Trazado 126069" d="M1616,267.014a3.452,3.452,0,0,1,1.25-.571c.209-.025.576.082.44.359a.164.164,0,0,1-.3-.038c-.182-.1-1.089.461-1.212.538A.169.169,0,0,1,1616,267.014Z" transform="translate(-1572.396 -250.482)" fill="#bf5b46"/>
      <path id="Trazado_126070" data-name="Trazado 126070" d="M1544.456,496.069c-.208,5.2,2.347,32.224,4.174,43.613,3.929.8,8.124.8,12.033,1.429,3.364.2,6.733.386,10.1.527.125,0,.245.013.37.017,4.677.187,9.358.274,14.039.12,4.777-.154,11.721,0,16.81-2.251a54.946,54.946,0,0,0-1.354-8.818,13.884,13.884,0,0,1-.341-4.058c.478-7.406-2.833-41.021-5.412-47.272-.341-.818-14.421,6.164-17.744,6.3-11.373.482-24,2.085-33.328,9.163C1543.119,495.355,1543.762,496.489,1544.456,496.069Z" transform="translate(-1526.584 -374.935)" fill="#f2d0b8"/>
      <path id="Trazado_126071" data-name="Trazado 126071" d="M1643.022,266.7c.541-.2,1.15.352,1.495.714a7.325,7.325,0,0,1,1.224,2c.091.195-.2.371-.288.175a10.265,10.265,0,0,0-.763-1.426c-.255-.375-1.01-1.352-1.572-1.143C1642.913,267.1,1642.82,266.775,1643.022,266.7Z" transform="translate(-1611.649 -250.609)" fill="#bf5b46"/>
      <path id="Trazado_126072" data-name="Trazado 126072" d="M1539.522,454.719c.578-5.347,3.742-9.576,6.87-13.488q6.07-7.592,12.168-15.158a.594.594,0,0,1,.979.023c.39-.1,2.358-7.8,2.377-7.235.169,5.068-.272,10.074-.545,15.119-.288,5.3-.224,10.554-1.074,15.814a11.01,11.01,0,0,1-1.273,4.074c-1.876,3.047-6.059,2.659-9.114,2.255a51.471,51.471,0,0,0-9.7-.452C1539.709,455.7,1539.472,455.184,1539.522,454.719Z" transform="translate(-1484.901 -339.577)" fill="#5993bc"/>
      <path id="Trazado_126073" data-name="Trazado 126073" d="M1611.284,275.4c.093-.318.395-.378.685-.349a8.558,8.558,0,0,1,1.143.353,7.421,7.421,0,0,0,1.669.225c.67.013,1.652-.388,2.277-.087,1.013.488-.1,1.512-.77,1.61a.146.146,0,0,1-.075-.007,5.366,5.366,0,0,1-3.769-.585C1612.072,276.377,1611.113,275.98,1611.284,275.4Z" transform="translate(-1570.212 -255.512)" fill="#fff"/>
      <path id="Trazado_126074" data-name="Trazado 126074" d="M1627.292,259.8a.68.68,0,0,1,.336-.042c.761.078.592,1.042.25,1.471a.513.513,0,0,1-.93-.236C1626.83,260.576,1626.885,259.973,1627.292,259.8Z" transform="translate(-1587.407 -246.575)" fill="#0a0405"/>
      <path id="Trazado_126075" data-name="Trazado 126075" d="M1617.838,536.617q2.5,2,5,4a48.009,48.009,0,0,1,4.49,3.759c2.5,2.571,2.953,6.172,3.709,9.528q1.215,5.389,2.675,10.729,1.421,5.209,3.082,10.338c.125,0,.245.013.37.017-.141-.432-.278-.864-.415-1.3q-3.458-10.922-5.873-22.143a22.728,22.728,0,0,0-1.333-4.544,10.825,10.825,0,0,0-2.808-3.668c-2.758-2.451-5.769-4.664-8.652-6.974C1617.909,536.227,1617.668,536.476,1617.838,536.617Z" transform="translate(-1592.619 -408.268)" fill="#0a0405"/>
      <g id="Grupo_132761" data-name="Grupo 132761" transform="translate(33.656 13.471)">
        <path id="Trazado_126076" data-name="Trazado 126076" d="M1637.225,262.889a30.16,30.16,0,0,1,2.65-2.083l-.238-.353a30.643,30.643,0,0,0-2.692,2.115Z" transform="translate(-1636.945 -260.453)" fill="#0a0405"/>
      </g>
      <path id="Trazado_126077" data-name="Trazado 126077" d="M1531.765,349.43q.173-2.413.533-4.809a37.278,37.278,0,0,1,3.49-11.883c2.317-4.379,7.583-6.865,11.847-9.01a55.88,55.88,0,0,1,15.106-5.054c.712,3.022.11,8.288,2.974,8.2,2.162-.068,6.236-3.166,8.048-4.153a29.724,29.724,0,0,0,6.316-4.067c.451.092.858.169,1.087.241,1.165.363,2.326.739,3.478,1.143a54.918,54.918,0,0,1,6.762,2.824c7.21,3.667,14.152,8.553,16.118,17.782.713,3.347-1.938,6.589-2.169,9.96-.133,1.952-.4,3.891-.711,5.822a55.286,55.286,0,0,1-6.389,17.975c-3.346,5.97-4.478,10.914-7.935,16.82-.594,5.1-5.053,20.083-9.262,21.037a68.761,68.761,0,0,1-10.1,1.344c-9.431.7-18.88.03-28.292-.636a4.612,4.612,0,0,1-2.063-.474c-2.861-1.7-.421-12.566-.078-15.169q.584-4.427,1.4-8.821c.345-1.852,1.788-5.08,1.527-6.907a103.249,103.249,0,0,1-.9-19.984s-9.767-7.9-10.889-10.347A5.3,5.3,0,0,1,1531.765,349.43Z" transform="translate(-1527.305 -281.007)" fill="#5bd3a9"/>
      <path id="Trazado_126078" data-name="Trazado 126078" d="M1683.661,367.365c4.345,2.373,12.848,12.236,12.848,16.221,0,7.3-.338,14.96.631,22.1.014.1,0,0-.019.086.491,3.114-.618,3.973-.166,7.084A16.789,16.789,0,0,1,1696,421.2a.741.741,0,0,1-.716.511.613.613,0,0,1-.591.389c-5.128-.174-3.087.842-7.81-1.038a14.633,14.633,0,0,1-9.23-12.385c-.694-7.182,1.451-19.937,2.231-25.4A85.434,85.434,0,0,1,1683.661,367.365Z" transform="translate(-1677.515 -309.487)" fill="#0a0405"/>
      <path id="Trazado_126079" data-name="Trazado 126079" d="M1604.541,261.464a.687.687,0,0,1,.336-.042c.761.079.592,1.042.25,1.471-.319.4-.8.23-.93-.236C1604.08,262.238,1604.134,261.634,1604.541,261.464Z" transform="translate(-1555.206 -247.546)" fill="#0a0405"/>
      <path id="Trazado_126080" data-name="Trazado 126080" d="M1610.085,296.951a6.711,6.711,0,0,0,3.062.071c.211-.044.307.28.095.324a7.129,7.129,0,0,1-3.241-.068A.169.169,0,0,1,1610.085,296.951Z" transform="translate(-1565.532 -268.317)" fill="#bf5b46"/>
      <path id="Trazado_126081" data-name="Trazado 126081" d="M1678.947,285.8c.1-.2.4-.031.3.17-1.62,3.353-3.026,6.674-2.339,10.466.654,3.608,1.494,7.192,2.245,10.781.046.218-.288.317-.333.1-.8-3.806-1.8-7.631-2.361-11.479C1675.937,292.251,1677.423,288.96,1678.947,285.8Z" transform="translate(-1659.052 -261.751)" fill="#3f8869"/>
      <path id="Trazado_126082" data-name="Trazado 126082" d="M1545.173,356.25a54.838,54.838,0,0,0-11.5,8.094,28.265,28.265,0,0,1,4.486-5.752c4.563-4.57,12.615-16.9,12.876-16.7a21.748,21.748,0,0,1,7.108,9.87C1553.57,352.221,1548.945,354.2,1545.173,356.25Z" transform="translate(-1478.656 -294.596)" fill="#5bd3a9"/>
      <path id="Trazado_126083" data-name="Trazado 126083" d="M1530.719,414.465l1.021-8.383c.423-3.478,2.382-7.148,3.727-10.334,2.92-6.914,6.452-15.183,13.265-19.172,3.7-2.165,8.836-4.635,13.676-4.981a35.425,35.425,0,0,1-.038,15.132,188.253,188.253,0,0,1-5.462,19.175c-1.608,4.781-3.357,9.916-6.254,14.089-2.313,3.331-5.835,6.148-10.035,6.358a16.853,16.853,0,0,1-7.149-1.7c-1.424-.592-2.846-1.393-3.287-2.976C1529.583,419.525,1530.455,416.632,1530.719,414.465Z" transform="translate(-1482.188 -311.96)" fill="#0a0405"/>
      <path id="Trazado_126084" data-name="Trazado 126084" d="M1618.43,340.1a6.309,6.309,0,0,1,.269-4.29,3.651,3.651,0,0,1,2.294-4.068c1.373-.468,3.037.025,4.4.277a30.035,30.035,0,0,1,5.43,1.3c2.7,1.052,2.729,4.213,3.161,6.694a57.012,57.012,0,0,0,3.936,14.089,99.384,99.384,0,0,0,6.563,11.078c.38.607-2.108,1.286-2.616,1.01a66.87,66.87,0,0,0-5.141,6.922.686.686,0,0,1-1.241-.249.576.576,0,0,1-.638-.3c-3.555-6.2-5.286-11.572-7.218-18.45a12.006,12.006,0,0,1-3.746-5.073.944.944,0,0,0-.677-.605c-1.965-.475-3.884-1.184-4.012-3.575,0-.044,0-.089,0-.133a.563.563,0,0,1-.255-.281C1618.334,343.121,1617.727,341.437,1618.43,340.1Z" transform="translate(-1600.119 -288.548)" fill="#faa985"/>
      <path id="Trazado_126085" data-name="Trazado 126085" d="M1541.3,458.509c6.134,2.453,11.62-2.573,15.312-6.868a56.47,56.47,0,0,0,9.239-15.01c.086-.206.389-.034.3.171a56.718,56.718,0,0,1-9.891,15.766c-3.686,4.148-9.133,8.644-15.05,6.278C1541.008,458.764,1541.091,458.425,1541.3,458.509Z" transform="translate(-1489.77 -349.929)" fill="#0a0405"/>
      <g id="Grupo_132762" data-name="Grupo 132762" transform="translate(36.247 12.008)">
        <path id="Trazado_126086" data-name="Trazado 126086" d="M1623.747,262.423a4.3,4.3,0,0,0,2.7-.912c.9-.82.922-2.539.888-3.241a.9.9,0,0,0-.665-.826,14.28,14.28,0,0,0-6.11-.305.7.7,0,0,0-.514.4c-.458.966.81,3.382.956,3.654a2.494,2.494,0,0,0,1.862,1.168A4.729,4.729,0,0,0,1623.747,262.423Zm-1.151-5.064a14.923,14.923,0,0,1,3.968.5.473.473,0,0,1,.35.436c.025.5.042,2.188-.749,2.9a4.185,4.185,0,0,1-3.223.742,2.109,2.109,0,0,1-1.56-.95c-.643-1.2-1.192-2.75-.946-3.27a.269.269,0,0,1,.211-.161A11.08,11.08,0,0,1,1622.6,257.358Z" transform="translate(-1619.952 -256.93)" fill="#0a0405"/>
      </g>
      <path id="Trazado_126087" data-name="Trazado 126087" d="M1633.861,485.081l3.621-9.452c.843-2.2,1.5-4.6,3.482-6.049a.668.668,0,0,1,.271-.123c.142-.105.169-.495.393-.44,1.75.426,2.336,1.686,2.126,3.41a32.951,32.951,0,0,1-1.7,7.194,20.77,20.77,0,0,1-2.783,5.827,4.379,4.379,0,0,1-4.649,1.268c-.186-.053-.121-.689-.2-.817A.591.591,0,0,1,1633.861,485.081Z" transform="translate(-1605.908 -368.915)" fill="#0a0405"/>
      <g id="Grupo_132763" data-name="Grupo 132763" transform="translate(43.4 13.28)">
        <path id="Trazado_126088" data-name="Trazado 126088" d="M1614.3,261.039l.38-.192c-.034-.067-.868-1.627-4.16-.358l.153.4C1613.614,259.754,1614.3,261.026,1614.3,261.039Z" transform="translate(-1610.524 -259.993)" fill="#0a0405"/>
      </g>
      <path id="Trazado_126089" data-name="Trazado 126089" d="M1553.245,418.317a9.536,9.536,0,0,1,.535-2.95,25.953,25.953,0,0,1,9.174-13.552c.179-.137.358-.273.541-.4.959-.692,3.942,2.7,4.535,3.282a59.53,59.53,0,0,1,6.471,7.394c.165.228,9.61,1.169,13.988,1.74,4.907.639,5.23,4.9,4.18,8.172-1.6,4.979-5.556,10.434-9.665,13.974-2.505,2.158-6.855,7.2-9.919,6.058C1565.256,439.117,1553.59,424.976,1553.245,418.317Z" transform="translate(-1521.803 -329.338)" fill="#0a0405"/>
      <path id="Trazado_126090" data-name="Trazado 126090" d="M1562.743,463.341c1.136-1.9,6.2-3.317,6.275-3.042,1.728.262,3.458.512,5.19.739,2.462.323,4.083.268,6.249-1.035,3.059-1.841,5.18-4.855,8.214-6.739,2.647-1.643,8.808-1.077,11.885.017,3.135,1.116,3.009,2.374,5.613,4.476a.611.611,0,0,1,.049.931.837.837,0,0,1-.038.08c-1.109,1.848-3.884.07-5.124-.779a9.994,9.994,0,0,0-5.87-2.021c-.021.278-.014.187-.035.465a3.928,3.928,0,0,1,2.925,2.33c.924,2.283-.476,4.2-2.341,5.075.01,1.668-1.4,2.954-3.011,3.724-.16,1.746-2.169,3.111-3.691,3.523a.625.625,0,0,1-.447-.038,1.307,1.307,0,0,1-1.2-1.7,1,1,0,0,0-.413-1.118c-.465-.287-1.076.855-1.349,1.141a10.032,10.032,0,0,1-1.725,1.435,8.63,8.63,0,0,1-7.113,1.349,4.081,4.081,0,0,0-1.583-.325c-5.052.417-15.057-1.534-15.1-1.973C1559.847,467.3,1561.382,465.622,1562.743,463.341Z" transform="translate(-1537.894 -359.106)" fill="#faa985"/>
      <path id="Trazado_126091" data-name="Trazado 126091" d="M1640.041,455.1a.669.669,0,0,1,.185-.355c1.945-2.015,4.679-1.758,7.087-.78a135.1,135.1,0,0,0,13.952,4.6c1.4.277,5.922,1.008,6.451,2.346.177.182-1.786,1.808-2.172,2.5a43.7,43.7,0,0,0-2.44,5.953,13.7,13.7,0,0,0-.533,4.2c-.015,1.164.681,3.138-.543,3.838-1.315.752-8.26.725-11.8-.845-1.153-.512-.947-1.786-1.042-1.811a43.655,43.655,0,0,1-6.79-2.225c-2.149-.931-5.013-2.367-6.336-4.385C1633.438,464.125,1637.768,458.531,1640.041,455.1Z" transform="translate(-1630.436 -359.682)" fill="#0a0405"/>
      <path id="Trazado_126092" data-name="Trazado 126092" d="M1652.235,272.071c.142-1.244.569-2.242,1.893-2.451a3.64,3.64,0,0,1,1.351.044.084.084,0,0,0,.088-.132,6.455,6.455,0,0,1-.834-1.579,6.226,6.226,0,0,1-.373-2.3,2.477,2.477,0,0,1,.442-1.682c.966-.872,2.725.4,3.323,1.154a5.109,5.109,0,0,1,1.01,3.038.084.084,0,0,0,.165.023,6.6,6.6,0,0,1,1.847-3.266c.788-.61,2.853-1.25,3.759-.555.521.4.391,1.126.328,1.7a7.12,7.12,0,0,1-.64,2.415,3.964,3.964,0,0,1-1.87,1.805.36.36,0,0,0,.044.673q.228.07.456.143a9.486,9.486,0,0,1,2.583,1.059,3.268,3.268,0,0,1,.912,3.5c-.344,1.477-1.76,1.228-2.921.844a7.513,7.513,0,0,1-2.164-1.14.085.085,0,0,0-.133.095,5.221,5.221,0,0,1,.243.856c.245,1.274-.121,2.333-1.424,2.7a6.066,6.066,0,0,1-2.2.461c-.578-.1-.851-.792-1.075-1.249a5.656,5.656,0,0,1-.284-3.9c-.013.066-.488.157-.568.172a5.37,5.37,0,0,1-2.428-.081A2.055,2.055,0,0,1,1652.235,272.071Z" transform="translate(-1636.615 -248.869)" fill="#f2ecdb"/>
      <path id="Trazado_126093" data-name="Trazado 126093" d="M1639.861,500.181c.85.35,1.71.679,2.586.96.43.138.864.265,1.3.375.188.048,1.019.107,1.055.275a6.691,6.691,0,0,0,.238,1.129c.269.65.8.741,1.4.91a13.743,13.743,0,0,0,2.656.434c1.543.121,3.093.105,4.634.258,1.735.172,3.654.45,5.01-.914a10.149,10.149,0,0,0,2.245-4.048,3.293,3.293,0,0,0,.375-.037,10.378,10.378,0,0,1-2.476,4.429c-1.4,1.34-3.378,1.094-5.147.917-1.961-.2-3.944-.11-5.9-.4a6.914,6.914,0,0,1-2.68-.756c-.515-.339-.559-1.084-.658-1.666a33.634,33.634,0,0,1-4.808-1.569C1639.484,500.4,1639.656,500.1,1639.861,500.181Z" transform="translate(-1625.871 -386.753)" fill="#0a0405"/>
      <path id="Trazado_126094" data-name="Trazado 126094" d="M1662.508,277.914a2.46,2.46,0,0,1,.255-.489,7.747,7.747,0,0,0,.423-1.15c.185-.586.558-1.037,1.157-.764.279-.491.636-.935,1.056-.95,1.026-.037,1.067,1.391,1.754,1.718.645.307,1.257.532,1.16,1.421-.051.472-.335.608-.585.966-.373.532-.147,1.2-.544,1.678-.621.751-1.466.264-2.152-.046-1-.451-1.869.1-2.387-1.114A1.972,1.972,0,0,1,1662.508,277.914Z" transform="translate(-1642.333 -255.229)" fill="#e1a557"/>
      <path id="Trazado_126095" data-name="Trazado 126095" d="M1668.369,281.741a.94.94,0,0,0,.785-.792c.034-.206.325-.142.335.046a.158.158,0,0,1,.036.108,4.545,4.545,0,0,0,.083.976.176.176,0,0,1-.252.2,1.927,1.927,0,0,0-.979-.133.149.149,0,0,1-.165-.181A.188.188,0,0,1,1668.369,281.741Z" transform="translate(-1646.013 -258.89)" fill="#423f21"/>
      <path id="Trazado_126096" data-name="Trazado 126096" d="M1590.021,247.948a2.209,2.209,0,0,1,2.063.557.169.169,0,0,1-.234.243,1.852,1.852,0,0,0-1.733-.476C1589.905,248.321,1589.809,248,1590.021,247.948Z" transform="translate(-1536.01 -239.635)" fill="#0a0405"/>
      <path id="Trazado_126097" data-name="Trazado 126097" d="M1619.793,238.139a5.2,5.2,0,0,1,4.8-.56c.987.39,2.686,1.425,2.244,2.714-.07.2-.4.122-.327-.084.453-1.322-1.792-2.323-2.76-2.539a4.9,4.9,0,0,0-3.785.758C1619.786,238.547,1619.612,238.258,1619.793,238.139Z" transform="translate(-1583.169 -233.404)" fill="#0a0405"/>
      <path id="Trazado_126098" data-name="Trazado 126098" d="M1637.386,251.3a3.6,3.6,0,0,0,.2-1.934c-.036-.212.286-.309.324-.1a3.924,3.924,0,0,1-.2,2.113C1637.635,251.581,1637.308,251.5,1637.386,251.3Z" transform="translate(-1601.567 -240.373)" fill="#0a0405"/>
      <path id="Trazado_126099" data-name="Trazado 126099" d="M1600.771,235.607a1.111,1.111,0,0,1,.152.568,3.833,3.833,0,0,1,2,1.47,2.689,2.689,0,0,1,.145,2.839c-.078.2-.406.118-.326-.084a2.446,2.446,0,0,0-.168-2.657,3.447,3.447,0,0,0-1.827-1.272.159.159,0,0,1-.119-.153.147.147,0,0,1-.044-.114.769.769,0,0,0-.1-.423C1600.375,235.593,1600.664,235.418,1600.771,235.607Z" transform="translate(-1551.664 -232.409)" fill="#0a0405"/>
      <path id="Trazado_126100" data-name="Trazado 126100" d="M1661.856,339.4c2.032-1.967,4.922-1.478,7.425-.928.219.048.132.385-.087.337-2.37-.521-5.155-1.04-7.088.832C1661.945,339.8,1661.694,339.56,1661.856,339.4Z" transform="translate(-1643.147 -292.313)" fill="#bf5b46"/>
      <path id="Trazado_126101" data-name="Trazado 126101" d="M1664.767,349.675c.8-2.617,4.565-3,6.659-1.966.2.1.03.4-.171.3-1.879-.932-5.422-.645-6.151,1.75C1665.039,349.975,1664.7,349.891,1664.767,349.675Z" transform="translate(-1646.483 -297.684)" fill="#bf5b46"/>
      <path id="Trazado_126102" data-name="Trazado 126102" d="M1668.353,358.879c.434-1.637,2.645-2.05,4.1-1.995.223.008.23.356.006.348-1.269-.048-3.39.3-3.771,1.734A.174.174,0,0,1,1668.353,358.879Z" transform="translate(-1649.083 -303.357)" fill="#bf5b46"/>
      <path id="Trazado_126103" data-name="Trazado 126103" d="M1667.486,365.879a2.941,2.941,0,0,0,1.89-.517c.115-.123.369-.037.3.148a3.673,3.673,0,0,0-.1,2.428.174.174,0,0,1-.334.1,4,4,0,0,1-.047-2.165,3.243,3.243,0,0,1-1.706.356C1667.27,366.212,1667.262,365.865,1667.486,365.879Z" transform="translate(-1645.718 -308.283)" fill="#bf5b46"/>
      <g id="Grupo_132764" data-name="Grupo 132764" transform="translate(40.749 84.885)">
        <path id="Trazado_126104" data-name="Trazado 126104" d="M1599.884,446.776a.213.213,0,0,0,.188-.119,41.842,41.842,0,0,1,10.831-13.888.213.213,0,1,0-.255-.341,42.277,42.277,0,0,0-10.958,14.04.213.213,0,0,0,.1.285A.209.209,0,0,0,1599.884,446.776Z" transform="translate(-1599.668 -432.386)" fill="#0a0405"/>
      </g>
      <path id="Trazado_126105" data-name="Trazado 126105" d="M1647.032,499.631c.039-.22.376-.133.337.087a5.652,5.652,0,0,0,.153,3.289c.088.206-.247.3-.333.1A6.012,6.012,0,0,1,1647.032,499.631Z" transform="translate(-1615.067 -386.741)" fill="#0a0405"/>
      <path id="Trazado_126106" data-name="Trazado 126106" d="M1671.53,467.884c.162-.154.413.088.25.242a16.852,16.852,0,0,0-5.181,14.262c.026.222-.322.227-.348.006A17.179,17.179,0,0,1,1671.53,467.884Z" transform="translate(-1647.372 -368.226)" fill="#0a0405"/>
      <g id="Grupo_132765" data-name="Grupo 132765" transform="translate(61.67 109.779)">
        <path id="Trazado_126107" data-name="Trazado 126107" d="M1570.487,498.373a.213.213,0,0,0,.188-.119l.278-.564c1.127-2.28,1.748-3.536,1.926-5.135a.213.213,0,0,0-.188-.235.215.215,0,0,0-.235.188c-.17,1.525-.779,2.757-1.884,4.993l-.279.564a.213.213,0,0,0,.1.285A.21.21,0,0,0,1570.487,498.373Z" transform="translate(-1570.271 -492.319)" fill="#0a0405"/>
      </g>
      <path id="Trazado_126108" data-name="Trazado 126108" d="M1603.116,488.646a13.625,13.625,0,0,1,.79-2.029c.1-.2.4-.031.3.17a13.069,13.069,0,0,0-.756,1.946C1603.389,488.946,1603.052,488.862,1603.116,488.646Z" transform="translate(-1553.588 -379.154)" fill="#bf5b46"/>
      <path id="Trazado_126109" data-name="Trazado 126109" d="M1586.724,469.309a4.562,4.562,0,0,1,5.665,3.7c.026.222-.322.226-.348.006a4.665,4.665,0,0,0-2.137-3.026,3.742,3.742,0,0,0-3.082-.341A.174.174,0,0,1,1586.724,469.309Z" transform="translate(-1534.895 -368.989)" fill="#bf5b46"/>
      <path id="Trazado_126110" data-name="Trazado 126110" d="M1594.764,478.792c2.266-.231,3.769,1.712,3.939,3.8.018.223-.329.228-.348.006-.156-1.907-1.517-3.668-3.586-3.456C1594.547,479.162,1594.542,478.814,1594.764,478.792Z" transform="translate(-1544.53 -374.621)" fill="#bf5b46"/>
      <path id="Trazado_126111" data-name="Trazado 126111" d="M1588.889,461.356a1.9,1.9,0,0,1,1.252.355c.179.129.011.434-.17.3a1.6,1.6,0,0,0-1.076-.31C1588.671,461.719,1588.666,461.372,1588.889,461.356Z" transform="translate(-1533.603 -364.436)" fill="#bf5b46"/>
      <path id="Trazado_126112" data-name="Trazado 126112" d="M1688.7,449.816c3.745-1.966,8.28-2.444,11.917.028.22.149.012.509-.21.358-3.52-2.393-7.875-1.93-11.5-.028C1688.669,450.3,1688.459,449.94,1688.7,449.816Z" transform="translate(-1685.573 -356.724)" fill="#7d4851"/>
      <path id="Trazado_126113" data-name="Trazado 126113" d="M1582.589,314.521a.9.9,0,0,1,.112-.141,25.41,25.41,0,0,1,4.284-3.706,8.439,8.439,0,0,1,3.984-1.68c.372-.03.832.037.969.384a.988.988,0,0,1,0,.531,29.1,29.1,0,0,0-.056,9.808,1.289,1.289,0,0,0,1.845.939c.559-.276,1.089-.643,1.584-.947a34.562,34.562,0,0,0,3.093-2.117,16.049,16.049,0,0,0,4.154-4.039,4.618,4.618,0,0,0,.683-2.908c-.175-1.4.38-1.595,1.8-1.085,5.349,1.924,7.762,4.435,7.972,4.907.4.9-1.323,1.406-1.816,1.635a63.218,63.218,0,0,1-9.307,3.457q-2.469.7-4.989,1.2-1.305.258-2.62.461a6.868,6.868,0,0,0-1.707.674.543.543,0,0,1-.2.061.57.57,0,0,1-.257-.076c-.87-.41-1.868-.425-2.731-.819a11.905,11.905,0,0,1-3.2-2.4q-1.828-1.767-3.492-3.695a.47.47,0,0,1-.148-.288A.3.3,0,0,1,1582.589,314.521Z" transform="translate(-1553.889 -275.357)" fill="#5bd3a9"/>
      <path id="Trazado_126114" data-name="Trazado 126114" d="M1584.91,333.6l8.892-3.5a31.556,31.556,0,0,0,4.147-1.8,10.076,10.076,0,0,0,3.4-3.513c.146-.223.505-.015.359.21a11.17,11.17,0,0,1-2.673,3.1,17.681,17.681,0,0,1-3.987,1.951q-5.013,1.977-10.027,3.952C1584.772,334.1,1584.664,333.695,1584.91,333.6Z" transform="translate(-1543.485 -284.537)" fill="#0a0405"/>
      <path id="Trazado_126115" data-name="Trazado 126115" d="M1636.164,323.326a16.7,16.7,0,0,0,7.226,9.149.208.208,0,0,1-.21.359,17.143,17.143,0,0,1-7.417-9.4C1635.681,323.182,1636.082,323.072,1636.164,323.326Z" transform="translate(-1606.407 -283.656)" fill="#0a0405"/>
      <path id="Trazado_126116" data-name="Trazado 126116" d="M1634.393,311.59c.109-.243.467-.032.359.21a3.531,3.531,0,0,0-.3,1.609c.01.267-.405.267-.415,0A4,4,0,0,1,1634.393,311.59Z" transform="translate(-1596.976 -276.816)" fill="#0a0405"/>
      <path id="Trazado_126117" data-name="Trazado 126117" d="M1571.065,428.1a50.714,50.714,0,0,1,10.269,7.93.208.208,0,0,1-.294.294,50.283,50.283,0,0,0-10.185-7.865A.208.208,0,0,1,1571.065,428.1Z" transform="translate(-1517.316 -344.979)" fill="#7d4851"/>
    </g>
    <g id="Grupo_132767" data-name="Grupo 132767" transform="translate(115.695 80.158)">
      <path id="Trazado_126118" data-name="Trazado 126118" d="M1464.656,547.167a143.354,143.354,0,0,1,5.6-14.4c1.141-2.7,2.2-5.455,3.429-8.113a25.064,25.064,0,0,1,1.144-2.374c.118-.274.956-1.544,1.306-1.379,6.315,2.976,8.4,14.252,8.849,18.76a122.265,122.265,0,0,1,.445,18.224c-.386,4.06-.88,8.414-2.376,12.236a8.736,8.736,0,0,1-6.9,5.9c-1.453.275-3.739,1.038-5.19.537-1.491-.515-2.4-2.816-3.09-4.067a40.913,40.913,0,0,1-4.43-12.118C1462.61,555.86,1463.349,551.517,1464.656,547.167Z" transform="translate(-1419.3 -479.4)" fill="#f2ecdb"/>
      <path id="Trazado_126119" data-name="Trazado 126119" d="M1490.593,452.1c.452-3.094,2.052-6.038,1.61-9.191-.587-4.187-1.581-8.048-.4-12.252a12.814,12.814,0,0,1,7.412-8.507c8.907-3.819,17.849,2.57,22.429,10.093a15.142,15.142,0,0,1,2.139,6.615c.214,2.362-.971,4.171-1.3,6.442-.447,3.074,1.475,5.751,2.02,8.672a11.845,11.845,0,0,1-.434,6.622c-.594,1.475-1.82,3.451-3.584,3.625a1.831,1.831,0,0,1-1.795-.967,15.744,15.744,0,0,1-.668-1.526c-1.712-3.736-7.746-4.168-11.273-4.724a8.553,8.553,0,0,0-4.076.032c-1.209.427-1.953,1.5-2.922,2.275-2.125,1.7-5.711,1.033-7.518-.828a6.854,6.854,0,0,1-1.747-4.493A10.01,10.01,0,0,1,1490.593,452.1Z" transform="translate(-1469.825 -421.006)" fill="#944846"/>
      <path id="Trazado_126120" data-name="Trazado 126120" d="M1472.131,522.656a16.114,16.114,0,0,1,6.157-11.913,60.635,60.635,0,0,1,13.891-9.29c4.525-2.029,9.88-3.4,14.476-.841a.522.522,0,0,1,.057.04.559.559,0,0,1,.183.02c4.611,1.294,9.243,2.532,13.835,3.891,3.552,1.052,7.188,2.412,9.839,5.109,2.944,2.994,3.96,7.228,4.06,11.311.086,3.483.125,9.122-2.188,11.851-1.251,1.475-1.748,3.384-2.6,5.077a67.59,67.59,0,0,1-3.717,6.069q-3.913,6.075-8.334,11.8c-3.444,4.462-5.558,9.76-11.222,9.649-7.421-.145-14.943.57-17.824-1.577-3.656-2.724-5.857-7.09-7.848-11.016a116.936,116.936,0,0,1-6.086-14.726C1473.105,533.168,1471.743,527.932,1472.131,522.656Z" transform="translate(-1472.065 -466.731)" fill="#f2ecdb"/>
      <path id="Trazado_126121" data-name="Trazado 126121" d="M1535.575,483.14a10.006,10.006,0,0,1-3.743-5.485,51.412,51.412,0,0,0,5-14.388c-.192-.5-.378-1.006-.55-1.517-.227-.675.838-.964,1.064-.293.015.044.031.087.046.13a.608.608,0,0,1,.732.677c-.049.3-.1.595-.157.891a37.536,37.536,0,0,0,7.6,12.031.525.525,0,0,1,.063.664.559.559,0,0,1-.029.063,67.789,67.789,0,0,0-4.485,9.079C1539.211,485.188,1537.011,484.094,1535.575,483.14Z" transform="translate(-1507.947 -444.433)" fill="#faa985"/>
      <path id="Trazado_126122" data-name="Trazado 126122" d="M1507.639,430.027c4.709-4.786,13.778-3.067,17.719,1.7.136.021-.439-.515-.338-.387,4.339,5.482,3.953,13.17,1.507,19.054-.93,2.235-2.379,5.154-4.891,6.2-2.842,1.186-6.857-.56-9.179-2.354a5.351,5.351,0,0,1-2.371-3.38,18.012,18.012,0,0,1-.452-3.1c-.039-.526.2-2.54-.137-2.9C1505.627,440.76,1503.133,434.605,1507.639,430.027Z" transform="translate(-1479.514 -424.617)" fill="#faa985"/>
      <path id="Trazado_126123" data-name="Trazado 126123" d="M1501.287,455.512c.2-2.131,2.341-3.312,2.558-5.438.261-2.564-.434-5.087-.738-7.615-.88-7.341,1.839-15.865,9.582-18.22a11.386,11.386,0,0,1,8.426.945.43.43,0,0,1,.321.164c4.443,2.365,7.869,7.132,7.839,11.98a.55.55,0,0,1-.06.252,13.1,13.1,0,0,1,.6,3.3c.038.71-1.51,1.568-1.547.861-.218-4.123-2.062-8.488-5.457-10.343a1.809,1.809,0,0,0-2.423.686,15.264,15.264,0,0,1-6.035,5.458,1,1,0,0,0-.51.927,28.527,28.527,0,0,0,.388,3.343,29.466,29.466,0,0,0,2.128,6.629,13.656,13.656,0,0,1,1.562,5.7c-.057,2.154-1.237,4.065-1.432,6.2a13.6,13.6,0,0,0,.295,3.555,3.423,3.423,0,0,1-.139,2.23c-1.747,3.241-6.745-.471-8.616-1.587C1504.881,462.658,1500.922,459.489,1501.287,455.512Z" transform="translate(-1479.349 -422.645)" fill="#944846"/>
      <path id="Trazado_126124" data-name="Trazado 126124" d="M1491.535,501.93c1.569-.753,3.917-.606,5.589-.511,1.649.093,1.917-.989,3.335-.078.317-.068,2.06.837,2.064,1.251.031,3.173-.245,7.906-3.113,9.234-3.352,1.553-4.078-1.756-4.928-4.215a5.49,5.49,0,0,0-2.056-2.937c-.451-.313-1.433-.606-1.727-1.1C1490.253,502.817,1490.864,502.252,1491.535,501.93Z" transform="translate(-1447.607 -467.759)" fill="#944846"/>
      <path id="Trazado_126125" data-name="Trazado 126125" d="M1551.754,465.419a1.377,1.377,0,0,1,1.295-1.182,1.841,1.841,0,0,1,1.7,1.734c.073.749.541,3.537-.11,4.036C1552.891,471.344,1551.514,466.492,1551.754,465.419Z" transform="translate(-1525.469 -446.281)" fill="#faa985"/>
      <path id="Trazado_126126" data-name="Trazado 126126" d="M1529.837,471.046c.071-.459.551-1.381,1.147-.826a.563.563,0,0,1,.149.293,2.116,2.116,0,0,1-.235,1.282.887.887,0,0,1-.284.368C1529.912,472.632,1529.775,471.447,1529.837,471.046Z" transform="translate(-1492.558 -449.678)" fill="#0a0405"/>
      <path id="Trazado_126127" data-name="Trazado 126127" d="M1443.168,578.461c.127-.185.438-.5.482-.714.059-.292-.049-.345-.232-.631a10.2,10.2,0,0,1-1.668-5.379c.057-2.054.984-4.048,1.656-5.961.005-.015.014-.028.02-.042a1.264,1.264,0,0,1-.44-.949c.068-.582.92-1.423,1.287-1.847.949-1.1,2.318-2.3,3.874-2.184,1.929.143,3.369,1.976,4.486,3.55a3.535,3.535,0,0,1,1.252.541,4.975,4.975,0,0,1,1.452,2.031,3.294,3.294,0,0,1,2.284,3.365c4.05,2.687-.768,9.409-4.769,12.26-1.879,3.054-3.526,6.266-5.262,9.4-1.9,3.434-3.706,8.2-7.919,9.23a26.441,26.441,0,0,1-9.517-.372c-1.169-.316-3.111-.159-.876-3.31C1432.726,592.588,1442.584,579.309,1443.168,578.461Zm4.788-11.027a3.582,3.582,0,0,0,.145-1.852.611.611,0,0,0-.16-.333c-.385-.346-1.415.685-1.772.844-.147.066-.3.126-.459.179a2.779,2.779,0,0,1,.23,1.322,11.793,11.793,0,0,1-.447,1.91,3.862,3.862,0,0,0-.071.459c.1-.086.191-.176.294-.258C1446.614,568.983,1447.546,568.619,1447.956,567.434Z" transform="translate(-1378.36 -502.704)" fill="#faa985"/>
      <path id="Trazado_126128" data-name="Trazado 126128" d="M1511.406,471.791c.06-.444.49-1.335,1.04-.789a.562.562,0,0,1,.139.286,2.131,2.131,0,0,1-.2,1.241.829.829,0,0,1-.255.353C1511.491,473.33,1511.354,472.178,1511.406,471.791Z" transform="translate(-1466.357 -450.135)" fill="#0a0405"/>
      <path id="Trazado_126129" data-name="Trazado 126129" d="M1508.363,463.067a1.471,1.471,0,0,1,.162.041,4.2,4.2,0,0,1,1.77,1.2c.293.331.678.9.1,1.17-.737.351-1.521-.048-2.245-.233a1.476,1.476,0,0,1-1.134-1.3C1507.008,463.21,1507.75,462.949,1508.363,463.067Z" transform="translate(-1462.62 -445.581)" fill="#944846"/>
      <path id="Trazado_126130" data-name="Trazado 126130" d="M1526.359,463.868c.053-.431.736-.787,1.056-.987a7.242,7.242,0,0,1,1.809-.824.971.971,0,0,1,1.3,1.225,2.313,2.313,0,0,1-1.882,1.362,3.881,3.881,0,0,1-1.522.078A.831.831,0,0,1,1526.359,463.868Z" transform="translate(-1490.531 -444.974)" fill="#944846"/>
      <path id="Trazado_126131" data-name="Trazado 126131" d="M1517.273,476.147c.69-.234,1.155-.607,1.106-1.4a5.769,5.769,0,0,0-.42-1.577c-.082-.222.273-.319.354-.1a4,4,0,0,1,.38,2.316,1.789,1.789,0,0,1-1.323,1.109C1517.146,476.578,1517.049,476.223,1517.273,476.147Z" transform="translate(-1474.891 -451.375)" fill="#bf5b46"/>
      <path id="Trazado_126132" data-name="Trazado 126132" d="M1521.237,478.5a1.432,1.432,0,0,1,1.034.116c.211.108.025.425-.186.318a1.035,1.035,0,0,0-.751-.079A.184.184,0,0,1,1521.237,478.5Z" transform="translate(-1480.14 -454.59)" fill="#bf5b46"/>
      <path id="Trazado_126133" data-name="Trazado 126133" d="M1479.225,583.678a.168.168,0,0,1,.206-.031c.736-.866,1.507-1.7,2.318-2.5.681-.668,1.453-1.529,2.481-1.548,2.439-.045,1.257,3.11.637,4.29-1.006,1.916-2.583,3.116-4.821,2.866-.54-.06-1.809-.043-2.045-.634C1477.707,585.387,1478.77,584.129,1479.225,583.678Z" transform="translate(-1425.555 -513.727)" fill="#faa985"/>
      <path id="Trazado_126134" data-name="Trazado 126134" d="M1488.463,574.407c1.928-3.289,2.174-7.139,1.988-10.865-.012-.236.356-.236.368,0,.189,3.79-.078,7.707-2.038,11.05A.184.184,0,0,1,1488.463,574.407Z" transform="translate(-1435.075 -504.235)" fill="#0a0405"/>
      <path id="Trazado_126135" data-name="Trazado 126135" d="M1448.29,569.811c.065-.124.133-.247.2-.37.015-.071.03-.142.045-.214a.172.172,0,0,1,.01-.106l.025-.059a69.66,69.66,0,0,0,1.128-7.012,8.019,8.019,0,0,1,.768-3.191c.287-.5.969-1.406,1.642-1.416,1.632-.025.331,3.569.054,4.233-.624,1.5-1.272,2.986-1.922,4.473l.025-.021c2.38-4.7,5.052-9.34,8.951-12.895a5.527,5.527,0,0,1,2.912-1.65.736.736,0,0,1,.39.055.645.645,0,0,1,.237.746,4.836,4.836,0,0,1-1.432,2.117,68.065,68.065,0,0,0-6.138,5.758q-.807.936-1.563,1.913a.068.068,0,0,0,.094.1,9.273,9.273,0,0,1,2.21-1.222c.643-.235,3.01-.4,2.788.886-.082.473-.7.78-1.093.936-.827.329-1.724.466-2.559.783a14.885,14.885,0,0,0-4.055,2.329,1.193,1.193,0,0,0-.257.289c-.271.428-.536.859-.8,1.3-.365.73-1.2,2.407-1.219,2.473-.048.212-.36.184-.365,0A.157.157,0,0,1,1448.29,569.811Z" transform="translate(-1390.308 -497.344)" fill="#7d4851"/>
      <path id="Trazado_126136" data-name="Trazado 126136" d="M1519.777,484.908c.724-.221,1.561-.625,2.29-.228.208.113.022.431-.186.318-.6-.326-1.411.083-2.007.265C1519.648,485.332,1519.551,484.977,1519.777,484.908Z" transform="translate(-1479.329 -458.135)" fill="#bf5b46"/>
      <path id="Trazado_126137" data-name="Trazado 126137" d="M1553.127,466.162a4.234,4.234,0,0,1,1.57,2.515.184.184,0,0,1-.355.1,3.952,3.952,0,0,0-1.4-2.3C1552.735,466.364,1552.92,466.046,1553.127,466.162Z" transform="translate(-1525.666 -447.392)" fill="#bf5b46"/>
      <path id="Trazado_126138" data-name="Trazado 126138" d="M1476.381,589.453a47.7,47.7,0,0,1,7.614-7.13,22.689,22.689,0,0,1,7.421-4.15,4.763,4.763,0,0,1,3.388.719,15,15,0,0,1,3.2,2.337.828.828,0,0,1-.257,1.426c-.872.319-2-.388-2.656-.887a3.5,3.5,0,0,0-2.5-.857,4.044,4.044,0,0,0-2.165,1.381c-.3.329-.582.682-.855,1.037-.017.022-.767,1.067-.387,1.013l4.08-.574a6.608,6.608,0,0,1,3.391,0c1.612.649,1.743,2.188,1.458,3.647.021.007.043.013.063.021,1.775.716,1.387,2.678.648,4.036.078-.145.613.776.632.92.234,1.811-2.288,3.328-3.852,3.229-1.032-.065-.971-.662-1.506-1.48a10.621,10.621,0,0,1-8.252,2.89c-2.315-.207-7.37,14.768-9.043,15.02-2.607.394-11.487,1.182-13.743-.517-.2-.154-.562-.022,0-1.068C1463.375,609.877,1474.078,592.215,1476.381,589.453Z" transform="translate(-1433.007 -512.832)" fill="#faa985"/>
      <path id="Trazado_126139" data-name="Trazado 126139" d="M1481.181,588.432a.183.183,0,0,1,.017-.047,8.071,8.071,0,0,1,2.445-2.889c.2-.127.385.191.186.318a7.174,7.174,0,0,0-2.174,2.525c.446-.076.893-.137,1.344-.172.236-.018.235.35,0,.368a14.221,14.221,0,0,0-1.665.229A.187.187,0,0,1,1481.181,588.432Z" transform="translate(-1425.075 -517.156)" fill="#bf5b46"/>
      <path id="Trazado_126140" data-name="Trazado 126140" d="M1466.846,598.965a16.31,16.31,0,0,1,3.658-.8,2.156,2.156,0,0,1,2.159.61c.143.189-.177.372-.318.186-.624-.822-2.272-.406-3.126-.247a16.761,16.761,0,0,0-2.277.6C1466.718,599.4,1466.622,599.04,1466.846,598.965Z" transform="translate(-1407.885 -524.56)" fill="#bf5b46"/>
      <path id="Trazado_126141" data-name="Trazado 126141" d="M1465.129,608.6a7.05,7.05,0,0,1,2.052-.479,9.307,9.307,0,0,1,2.254.454.184.184,0,0,1-.1.355,8.349,8.349,0,0,0-2.156-.441,7.388,7.388,0,0,0-1.954.465A.184.184,0,0,1,1465.129,608.6Z" transform="translate(-1404.035 -530.401)" fill="#bf5b46"/>
      <path id="Trazado_126142" data-name="Trazado 126142" d="M1468.235,615.386a6.517,6.517,0,0,1,2.579-.12c.233.035.134.39-.1.355a6.032,6.032,0,0,0-2.383.12A.184.184,0,0,1,1468.235,615.386Z" transform="translate(-1406.708 -534.534)" fill="#bf5b46"/>
      <path id="Trazado_126143" data-name="Trazado 126143" d="M1433.824,575.222c.278-1.965,1.685-3.456,3.128-4.7.179-.154.44.105.26.26a8.3,8.3,0,0,0-2.9,3.907,3.733,3.733,0,0,0,1.847,4.405.214.214,0,0,1,.03.025,4.815,4.815,0,0,1,.236-.854,11.877,11.877,0,0,1,3.538-5.12c.184-.144.447.114.26.26a10.721,10.721,0,0,0-2.809,3.607c-.742,1.42-1.854,4.128.36,4.921a.2.2,0,0,1,.02.012l.3.107a2.022,2.022,0,0,1,.125-.419,16.387,16.387,0,0,1,3.9-5.172c.172-.163.433.1.26.26a18.958,18.958,0,0,0-2.73,3.188,13.692,13.692,0,0,0-.974,1.622,2.2,2.2,0,0,0,.252,2.256,1.354,1.354,0,0,0,1.041.52c.527-.018.917-.505,1.236-.869a5.272,5.272,0,0,0,.761-1.155c.1-.212.422-.026.318.186a5.521,5.521,0,0,1-1.013,1.439c-.6.61-1.229,1.008-2.054.546a2.339,2.339,0,0,1-1.163-2.026c0-.015-.738-.31-.82-.36a2.152,2.152,0,0,1-.675-.627,3.022,3.022,0,0,1-.41-2.029.171.171,0,0,1-.174,0A4.046,4.046,0,0,1,1433.824,575.222Z" transform="translate(-1363.937 -508.394)" fill="#bf5b46"/>
      <path id="Trazado_126144" data-name="Trazado 126144" d="M1455.415,587.188c-.136-.194.183-.378.318-.186a8.046,8.046,0,0,1,1.715,3.662,7.376,7.376,0,0,1-.893,3.868c-.1.214-.418.027-.318-.186a6.533,6.533,0,0,0,.775-4.08A8.671,8.671,0,0,0,1455.415,587.188Z" transform="translate(-1387.95 -518.007)" fill="#bf5b46"/>
      <path id="Trazado_126145" data-name="Trazado 126145" d="M1465.511,585.158c.595.4,1.725.114,1.2-.743a4.394,4.394,0,0,0-1.206-1.165c-.192-.136-.008-.455.186-.318.568.4,1.729,1.239,1.536,2.068-.2.85-1.3.877-1.9.475C1465.13,585.343,1465.314,585.024,1465.511,585.158Z" transform="translate(-1401.815 -515.655)" fill="#bf5b46"/>
      <path id="Trazado_126146" data-name="Trazado 126146" d="M1462.86,602.189c.268.338.344.638.741.852.667.361,1.416-.081,2.015-.442,1.086-.656,2.574-1.712,1.471-3.1a.2.2,0,0,1-.037-.08.185.185,0,0,1-.021-.193c.575-1.261,1.03-3.357-.731-3.909a.172.172,0,0,1-.081-.053.194.194,0,0,1-.019-.224,4.775,4.775,0,0,0-.025-1.931,2.419,2.419,0,0,0-1.421-1.467c-.21-.11-.024-.427.186-.318a2.876,2.876,0,0,1,1.473,1.352,4.493,4.493,0,0,1,.156,2.355c1.766.693,1.455,2.826.826,4.273.925,1.234.207,2.409-.928,3.184a5.35,5.35,0,0,1-2.284,1.084c-.977.1-1.059-.466-1.58-1.122C1462.454,602.266,1462.712,602,1462.86,602.189Z" transform="translate(-1401.344 -520.568)" fill="#bf5b46"/>
      <path id="Trazado_126147" data-name="Trazado 126147" d="M1553.156,568.661c1.425,2.406,1.7,5.177,2.165,7.88a18.872,18.872,0,0,0,1.2,4.408,36.317,36.317,0,0,0,2.083,3.827,62.934,62.934,0,0,1,6.8,16.634.184.184,0,0,1-.355.1,63.244,63.244,0,0,0-6.927-16.825,22.519,22.519,0,0,1-3.081-7.591c-.509-2.812-.719-5.732-2.207-8.245A.184.184,0,0,1,1553.156,568.661Z" transform="translate(-1536.358 -507.28)" fill="#0a0405"/>
      <path id="Trazado_126148" data-name="Trazado 126148" d="M1536.584,441.5c.179-.154.44.105.26.26a8,8,0,0,0-2.777,5.481c-.018.235-.386.237-.368,0A8.365,8.365,0,0,1,1536.584,441.5Z" transform="translate(-1499.91 -432.961)" fill="#0a0405"/>
      <path id="Trazado_126149" data-name="Trazado 126149" d="M1553.761,453.365c.021-.234.389-.236.368,0a14.227,14.227,0,0,0,.168,3.82c.042.231-.313.331-.355.1A14.605,14.605,0,0,1,1553.761,453.365Z" transform="translate(-1525.616 -439.821)" fill="#0a0405"/>
      <path id="Trazado_126150" data-name="Trazado 126150" d="M1551.749,487.224c.4-2.461,2.373-4.5,2.2-7.064-.016-.236.352-.235.368,0,.154,2.234-1.284,4.014-1.941,6.047a7.8,7.8,0,0,0,1.173,6.947c.14.192-.179.375-.317.186A8.192,8.192,0,0,1,1551.749,487.224Z" transform="translate(-1524.786 -455.486)" fill="#0a0405"/>
      <path id="Trazado_126151" data-name="Trazado 126151" d="M1502.939,466.386a10.3,10.3,0,0,1,.506,3.972c-.016.235-.383.236-.368,0a10.065,10.065,0,0,0-.493-3.874C1502.509,466.258,1502.864,466.162,1502.939,466.386Z" transform="translate(-1453.547 -447.463)" fill="#0a0405"/>
      <path id="Trazado_126152" data-name="Trazado 126152" d="M1510.419,498.29c.022-.233.39-.236.368,0-.153,1.61-1.3,2.929-1.334,4.554a.184.184,0,0,1-.368,0C1509.12,501.206,1510.266,499.9,1510.419,498.29Z" transform="translate(-1463.571 -466.087)" fill="#0a0405"/>
      <path id="Trazado_126153" data-name="Trazado 126153" d="M1557.413,447.018a.184.184,0,0,1,.355.1,7.413,7.413,0,0,0,.576,5.627c.111.209-.207.4-.318.186A7.792,7.792,0,0,1,1557.413,447.018Z" transform="translate(-1531.089 -436.138)" fill="#0a0405"/>
    </g>
    <g id="Grupo_132773" data-name="Grupo 132773" transform="translate(0 49.287)">
      <path id="Trazado_126154" data-name="Trazado 126154" d="M1749.045,579.925c-.127-.031-.224-8.568-.351-8.6-.631-.151-.512-1.166.128-1.013.215.051.428.105.643.157a.565.565,0,0,1,.554.135q20.434,4.935,40.489,11.273a.461.461,0,0,1,.221.143.477.477,0,0,1,.22.344c.417,2.557,4.687,16.637,3.008,17.942-2.105,1.636-7.528,2.409-14.644,2.579-13.644-.016-26.391-2.579-30.275-5.41C1748.56,597.129,1748.944,579.9,1749.045,579.925Z" transform="translate(-1730.783 -477.418)" fill="#0a0405"/>
      <path id="Trazado_126155" data-name="Trazado 126155" d="M1793.711,371.657c-.179-3.775,2.064-7.191.789-10.889-.932-2.7-2.143-5.316-.731-8.1a7.034,7.034,0,0,1,2.5-2.7,10.6,10.6,0,0,1,1.644-.854,16.921,16.921,0,0,0,1.889-.685,2.883,2.883,0,0,0,.4-.3c2.214-1.842,5.394-1.638,8.014-.952,5.637,1.475,11.161,3.659,12.466,9.917a16.108,16.108,0,0,0,1.042,4.067c.581,1.125,1.844,1.591,2.8,2.381a6.551,6.551,0,0,1,1.38,8.517.549.549,0,0,1-.465.3c-4.875,3.238-10.729,3.21-16.315,4.207-2.67.477-4.716,2.322-7.42,2.774a6.182,6.182,0,0,1-4.225-.555.673.673,0,0,1-.288-.13A9.129,9.129,0,0,1,1793.711,371.657Z" transform="translate(-1781.947 -346.684)" fill="#133d60"/>
      <path id="Trazado_126156" data-name="Trazado 126156" d="M1851.758,482c.236-5.481,1.975-10.955,2.944-16.339a92.033,92.033,0,0,0,.748-9.253,54.73,54.73,0,0,1,1.317-10.435,14.729,14.729,0,0,1,2.21-4.789,11.018,11.018,0,0,1,1.823-1.946,29.957,29.957,0,0,1,4.335-3.341c.183-.075,1.553,2.427,2.1,3.59a27.089,27.089,0,0,1,2.089,6.6c.881,4.756.942,9.741,1.283,14.56a58.458,58.458,0,0,1-.211,13.56c-.368,2.255-.5,15.855-1.065,16.321a13.2,13.2,0,0,1-12.718,2.014C1852.5,490.862,1851.587,485.975,1851.758,482Z" transform="translate(-1850.311 -398.84)" fill="#e2f1ff"/>
      <path id="Trazado_126157" data-name="Trazado 126157" d="M1815.353,407.567a11.762,11.762,0,0,1,.82-1.84c1.4-2.434,9.181-5.263,11.839-2.5.724.751,1.507,3.869,1.679,5.418.348,1.577-2.044-.875-2.915.041a18.744,18.744,0,0,1-5.2,4.181c-1.433.729-3.233,1.3-4.582.08C1815.326,411.442,1815.15,409.6,1815.353,407.567Z" transform="translate(-1793.995 -379.074)" fill="#7d4851"/>
      <path id="Trazado_126158" data-name="Trazado 126158" d="M1814.635,383.911a.436.436,0,0,1,.244.081c4.644,1.635,9.949,3.643,13.686,6.756.316.263,2.042,5.373,4.635,9.73.463.778-1.034,1.914-1.7,2.371a8.052,8.052,0,0,1-2.991,1.2,8.961,8.961,0,0,1-6.223-.833.418.418,0,0,1-.161-.6.512.512,0,0,1,.173-.311c1.3-1.166-5.85-14.841-7.7-17.379C1814.024,384.683,1814.024,383.741,1814.635,383.911Z" transform="translate(-1797.094 -368.437)" fill="#faa985"/>
      <path id="Trazado_126159" data-name="Trazado 126159" d="M1750.446,470.906c-.626-4.711,2.809-8.422,1.968-13.2a12.794,12.794,0,0,0-.729-2.695,10.217,10.217,0,0,0-1.118-1.982c-1.386-1.959-3.31-3.587-4.632-5.587-2.422-3.663-2.278-8.547-2.368-12.782-.087-4.111.033-8.651,2.736-12a21.654,21.654,0,0,1,5.657-4.581c.871-.539,5.057-3.858,5.979-3.474.176.074.3.231.474.319a1.336,1.336,0,0,0,.779.067c4.845-.58,8.8-2.754,12.967-5.1,12.358-6.949,19.761,9.018,22.757,18.584a111.262,111.262,0,0,1,4.855,31.921c.226,11.061,1.175,20.127-.675,33.223a6.166,6.166,0,0,1-.474,2.289c-1.534,2.653-32.188,3.7-43.215-2.073C1747.189,489.546,1753.23,491.845,1750.446,470.906Z" transform="translate(-1734.69 -382.649)" fill="#e2f1ff"/>
      <path id="Trazado_126160" data-name="Trazado 126160" d="M1817.54,357.453a8.2,8.2,0,0,1,8.61-5.213c7.184.814,10.73,8.094,11.582,14.471.311,2.328.589,4.578-1.219,6.361a9.8,9.8,0,0,1-7.9,2.129c-2.157-.513-3.385-2.731-4.567-4.4-.386-.544-1.208-2.327-1.8-2.571a9.357,9.357,0,0,1-3.813-2.569C1816.742,363.559,1816.635,359.9,1817.54,357.453Z" transform="translate(-1802.932 -349.901)" fill="#faa985"/>
      <g id="Grupo_132768" data-name="Grupo 132768" transform="translate(12.54 55.748)">
        <path id="Trazado_126161" data-name="Trazado 126161" d="M1867.27,492.635a.213.213,0,0,0,.18-.3c-3.171-6.651-1.868-11.112-1.854-11.156a.213.213,0,1,0-.407-.125c-.057.187-1.364,4.665,1.877,11.464A.214.214,0,0,0,1867.27,492.635Z" transform="translate(-1864.88 -480.9)" fill="#0a0405"/>
      </g>
      <path id="Trazado_126162" data-name="Trazado 126162" d="M1872.938,502.808a5.147,5.147,0,0,1-.612-2.315,5.985,5.985,0,0,1,.469-1.734,1.055,1.055,0,0,0,.013-.4,6.768,6.768,0,0,1,.05-2.819,2.537,2.537,0,0,1,.759-1.254,2.776,2.776,0,0,1,1.868-.573,5.506,5.506,0,0,1,1.909.472,12.651,12.651,0,0,1,1.416.747.263.263,0,0,0,.393-.186,1.943,1.943,0,0,1,.636-1.194c1.139-.957,1.768.378,2.026,1.35a12.916,12.916,0,0,0,.884,3.278,13.189,13.189,0,0,1,1.333,2.249c.554,1.7-.638,2.849-1.4,4.239a.68.68,0,0,1-.211.235,6.849,6.849,0,0,0,.716,1.632.714.714,0,0,1-.251.976c-.923,1.025-3.455,2.763-4.864,2.751-.769-.006-4.534-4.38-4.885-6.139-.065-.326-.041-.638-.108-.942A1.287,1.287,0,0,0,1872.938,502.808Z" transform="translate(-1872.186 -432.354)" fill="#faa985"/>
      <path id="Trazado_126163" data-name="Trazado 126163" d="M1871.187,533.844a31.771,31.771,0,0,1,1.064-7.28c.076-.374.229-.96.793-.665.221.115.778,1.642,4.369,1.239,1.037-.116,3.05-1.29,3.234-2.5a.512.512,0,0,1,.959-.158.4.4,0,0,1,.084.236,14.188,14.188,0,0,1,.4,4.548q.027,2.324-.052,4.647c-.09,2.574.022,5.41-2.52,6.836a5.172,5.172,0,0,1-5.745-.6C1871.959,538.712,1871.193,534.049,1871.187,533.844Z" transform="translate(-1869.587 -450.468)" fill="#e2f1ff"/>
      <path id="Trazado_126164" data-name="Trazado 126164" d="M1853.115,504.824a9.909,9.909,0,0,0-.141-2.541c-.079-.642-.2-1.08.3-1.559a.7.7,0,0,1,.707-.1,2.446,2.446,0,0,1,1.1,1.04,1.822,1.822,0,0,1,.309-.327.7.7,0,0,1,.707-.1c1.163.562,1.468,1.931,2.684,2.523,1.055.513,2.311.375,3.3,1.026,1.9,1.249,1.6,3.608,1.114,5.52a.679.679,0,0,1,.037.547,42.469,42.469,0,0,0-1.793,7.6.7.7,0,0,1-.962.543.637.637,0,0,1-.812,0,20.4,20.4,0,0,1-5.539-5.539,10.862,10.862,0,0,1-1.311-5.581,17.171,17.171,0,0,1,.265-2.833C1853.1,504.963,1853.106,504.893,1853.115,504.824Z" transform="translate(-1843.421 -436.651)" fill="#faa985"/>
      <path id="Trazado_126165" data-name="Trazado 126165" d="M1838.682,378.555c.374-.2,4.536-1.06,4.2.612-.126.622-.711.652-1.215.662a7.107,7.107,0,0,1-2.012-.114,2.462,2.462,0,0,1-.777-.367c-.154-.112-.468-.4-.371-.622A.373.373,0,0,1,1838.682,378.555Z" transform="translate(-1816.806 -365.084)" fill="#133d60"/>
      <path id="Trazado_126166" data-name="Trazado 126166" d="M1823.75,372.706c.208-.153.413-.285.584-.391a2.234,2.234,0,0,1,1.458-.408c.14.021.517.106.524.312a1.073,1.073,0,0,1-.352.785,16.163,16.163,0,0,1-1.441,1.386c-.357.3-1.337,1.123-1.728.515C1822.243,374.048,1823.015,373.247,1823.75,372.706Z" transform="translate(-1793.626 -361.421)" fill="#133d60"/>
      <path id="Trazado_126167" data-name="Trazado 126167" d="M1780.1,525.205c.609-3.275,1.5-7.553,3.7-7.87,2.061-.3,15.73,1.776,16.119-.805.369-2.452,14.641,2.371,14.622,2.409.12.305.82,8.929.594,9.287-5.4,8.586-23.443,7.168-33.9.614C1779.844,527.969,1779.819,526.72,1780.1,525.205Z" transform="translate(-1764.775 -445.576)" fill="#e2f1ff"/>
      <path id="Trazado_126168" data-name="Trazado 126168" d="M1816.342,407.265c.22-.361.631-.222.828.074a2.177,2.177,0,0,1,0,1.441,2.733,2.733,0,0,0-.069,1.2c.26,1.21,1.517,1.124,2.471.954a8.515,8.515,0,0,0,3.047-1.235,9.049,9.049,0,0,0,2.474-2.368,10.165,10.165,0,0,1,1.778-2.384c1.569-1.024,2.049,1.589,2.419,2.762a18.112,18.112,0,0,1,.6,2.664c.055.351.1.7.141,1.055.073.69-.175.928-.642,1.467a12.5,12.5,0,0,1-11.877,3.658C1813.6,415.758,1814.909,409.617,1816.342,407.265Z" transform="translate(-1794.165 -380.613)" fill="#e2f1ff"/>
      <path id="Trazado_126169" data-name="Trazado 126169" d="M1763.617,446.375c.643-5.33.851-10.628,1.056-15.976a76.2,76.2,0,0,1,.663-8.161,22.568,22.568,0,0,1,1.719-6.756,8.544,8.544,0,0,1,5.759-4.3,8.849,8.849,0,0,1,9.627,3.47c5.123,7.024,5.318,14.84,5.316,23.2a70.322,70.322,0,0,1-1.536,14.9c-.958,4.416-2.18,9.194-4.821,13.058-2.458,3.6-6.9,6.213-11.44,5.143a.673.673,0,0,1-.08-.008c-4.318-.866-5.93-4.108-6.594-7.777C1762.36,458.041,1763,451.518,1763.617,446.375Z" transform="translate(-1730.236 -384.217)" fill="#e2f1ff"/>
      <path id="Trazado_126170" data-name="Trazado 126170" d="M1806.958,355.78c.573-3.886,5.349-5.494,8.794-4.886a.658.658,0,0,1,.429.259.681.681,0,0,1,.624.2,20.341,20.341,0,0,1,9.426,2.667c3.442,2.147,4.116,6.533,6.634,9.509.425.5-.069,1.1-.618,1.1a8.817,8.817,0,0,1-4.842-.947c-1.521-.967-1.808-2.424-2.359-4.031-1.131-3.3-5.913-4.419-9.326-3.406a.9.9,0,0,0-.632,1.079c.492,1.946,1.352,4.015,1.245,5.391a5.656,5.656,0,0,1-1.618,3.405c-.929,1-3.3,2.142-3.264,3.683a.753.753,0,0,1-.848.751.708.708,0,0,1-1.319-.171q-.838-4.136-1.629-8.282C1807.269,360.071,1806.65,357.869,1806.958,355.78Z" transform="translate(-1793.802 -349.072)" fill="#133d60"/>
      <path id="Trazado_126171" data-name="Trazado 126171" d="M1857.584,377.085c0-.218.342-.174.338.043a6.856,6.856,0,0,0,.79,3.342c.1.195-.211.33-.312.137A7.2,7.2,0,0,1,1857.584,377.085Z" transform="translate(-1840.569 -364.373)" fill="#bfb59b"/>
      <path id="Trazado_126172" data-name="Trazado 126172" d="M1858.2,391.3c.091-.2.407-.072.315.128a5.392,5.392,0,0,0-.037,4.517.17.17,0,0,1-.312.137A5.745,5.745,0,0,1,1858.2,391.3Z" transform="translate(-1840.397 -372.707)" fill="#bfb59b"/>
      <path id="Trazado_126173" data-name="Trazado 126173" d="M1851.563,385.119c2.08.2,3.588,2.62,3.325,4.582a1.009,1.009,0,0,1-.956.992c-.613.022-1.161-.616-1.572-.991a7.983,7.983,0,0,1-1.545-1.766C1850.248,386.983,1849.846,384.951,1851.563,385.119Z" transform="translate(-1833.742 -369.149)" fill="#faa985"/>
      <path id="Trazado_126174" data-name="Trazado 126174" d="M1828.41,382.421c-.21-.058-.081-.373.128-.315a1.8,1.8,0,0,1,1.338,1.3,1.51,1.51,0,0,1-.935,1.439c-.193.105-.327-.207-.137-.312.48-.263.9-.729.657-1.3A1.622,1.622,0,0,0,1828.41,382.421Z" transform="translate(-1799.562 -367.389)" fill="#bf5b46"/>
      <path id="Trazado_126175" data-name="Trazado 126175" d="M1831.228,387.3a1.708,1.708,0,0,1,1.078-.483c.217-.016.268.321.049.336a1.416,1.416,0,0,0-.914.412C1831.283,387.718,1831.073,387.45,1831.228,387.3Z" transform="translate(-1803.365 -370.146)" fill="#bf5b46"/>
      <path id="Trazado_126176" data-name="Trazado 126176" d="M1825.841,391.7c.43-.65,1.226-1.455,2.083-1.278.213.044.173.382-.042.338-.726-.15-1.407.6-1.768,1.144C1825.992,392.083,1825.721,391.878,1825.841,391.7Z" transform="translate(-1796.706 -372.238)" fill="#bf5b46"/>
      <path id="Trazado_126177" data-name="Trazado 126177" d="M1840.42,382.276c.017-.888,1.04-.738,1.232,0,.093.357.012.922-.332,1.044C1840.783,383.509,1840.41,382.789,1840.42,382.276Z" transform="translate(-1816.396 -367.135)" fill="#0a0405"/>
      <path id="Trazado_126178" data-name="Trazado 126178" d="M1824.053,377.814c.01-.888.978-.73,1.165.01.09.357.019.921-.306,1.04C1824.406,379.049,1824.047,378.326,1824.053,377.814Z" transform="translate(-1793.165 -364.529)" fill="#0a0405"/>
      <path id="Trazado_126179" data-name="Trazado 126179" d="M1853.91,386.81c1.283.03,1.978,1.18,2.509,2.193.1.194-.211.329-.312.136-.478-.911-1.081-1.965-2.24-1.992C1853.649,387.142,1853.693,386.8,1853.91,386.81Z" transform="translate(-1836.675 -370.143)" fill="#bf5b46"/>
      <path id="Trazado_126180" data-name="Trazado 126180" d="M1825.055,405.008a5.109,5.109,0,0,0,3.037.8,13.271,13.271,0,0,0,3.186-.724c.206-.073.343.238.137.312a12.894,12.894,0,0,1-3.553.773,5.362,5.362,0,0,1-2.934-.846C1824.737,405.22,1824.863,404.9,1825.055,405.008Z" transform="translate(-1799.752 -380.77)" fill="#bf5b46"/>
      <path id="Trazado_126181" data-name="Trazado 126181" d="M1804.83,384.73a8.9,8.9,0,0,1,3.992,2.63c.973,1.326.429,2.958-.2,4.3-.093.2-.409.071-.315-.128.7-1.484,1.168-3.131-.167-4.418a10.105,10.105,0,0,0-3.438-2.069A.17.17,0,0,1,1804.83,384.73Z" transform="translate(-1769.184 -368.92)" fill="#bfb59b"/>
      <path id="Trazado_126182" data-name="Trazado 126182" d="M1847.78,353.549c.213-.049.261.289.049.337a1.971,1.971,0,0,0-1.231,3.04c.118.183-.147.4-.266.212A2.317,2.317,0,0,1,1847.78,353.549Z" transform="translate(-1824.962 -350.695)" fill="#bfb59b"/>
      <path id="Trazado_126183" data-name="Trazado 126183" d="M1852.064,354.908c.054-.209.392-.169.337.043a1.383,1.383,0,0,0,.225,1.2c.131.176-.135.388-.266.212A1.706,1.706,0,0,1,1852.064,354.908Z" transform="translate(-1832.185 -351.411)" fill="#bfb59b"/>
      <path id="Trazado_126184" data-name="Trazado 126184" d="M1808.23,360.4a5.7,5.7,0,0,1,2.787,4.18,11.724,11.724,0,0,1,.063,1.332,2.04,2.04,0,0,0,1.055,1.9,6.907,6.907,0,0,1,2.007,1.9c.124.18-.142.393-.266.212a8.77,8.77,0,0,0-2.268-2.052,1.987,1.987,0,0,1-.868-1.7,7.724,7.724,0,0,0-.521-3.149,5.444,5.444,0,0,0-2.193-2.354C1807.838,360.561,1808.043,360.289,1808.23,360.4Z" transform="translate(-1775.399 -354.687)" fill="#bfb59b"/>
      <path id="Trazado_126185" data-name="Trazado 126185" d="M1819.478,423.651c.639,1.1,2.109,2.6,3.533,2.437.688-.08,1.239-.8,1.7-1.249q.792-.778,1.55-1.59a53.429,53.429,0,0,0,4.822-5.992c.125-.18.4.024.272.2a53.4,53.4,0,0,1-6.325,7.539c-.938.927-1.664,1.747-3.049,1.242a5.468,5.468,0,0,1-2.814-2.454C1819.057,423.6,1819.37,423.463,1819.478,423.651Z" transform="translate(-1797.259 -387.902)" fill="#0a0405"/>
      <path id="Trazado_126186" data-name="Trazado 126186" d="M1842.709,417.271a1.133,1.133,0,0,0,1.265.909.17.17,0,0,1,.049.336,1.48,1.48,0,0,1-1.65-1.2C1842.334,417.1,1842.671,417.055,1842.709,417.271Z" transform="translate(-1819.682 -387.87)" fill="#0a0405"/>
      <path id="Trazado_126187" data-name="Trazado 126187" d="M1863.443,503.944a3.472,3.472,0,0,0,1.079,1.6c.166.127.341.24.515.353a.154.154,0,0,1,.1-.02q.553.077,1.1.208c.21.051.17.389-.043.338-.194-.047-.39-.088-.586-.125l.035.027a4.807,4.807,0,0,1,1.386,1.991c.078.2-.233.341-.312.137a5.025,5.025,0,0,0-2.1-2.427,3.859,3.859,0,0,1-1.488-1.951C1863.05,503.877,1863.361,503.74,1863.443,503.944Z" transform="translate(-1851.177 -438.566)" fill="#bf5b46"/>
      <path id="Trazado_126188" data-name="Trazado 126188" d="M1873.543,480.431c-.357-.252-.919-.675-.843-.981.2-.785,1.561-.209,2.019-.082a8.548,8.548,0,0,1,2.8,1.432,15.915,15.915,0,0,1,1.519,1.311c.291.281.574.569.855.86a.134.134,0,0,0,.224-.136c-.557-1.622-1.091-3.84.083-3.836.877,0,.868,1.589.893,2.1a8.478,8.478,0,0,0,.559,3.772,24.077,24.077,0,0,1,2.895,4.15.219.219,0,0,1,.036.1c0,.1-.133.151-.224.112a.461.461,0,0,1-.194-.217,23.159,23.159,0,0,0-3.014-4.168c-.294-.324-.622-.287-1.025-.371-.483-.1-.95-.269-1.44-.342-.816-.121-1.639-.187-2.45-.341-.5-.1-1.714-.34-1.466-1.123.279-.88,1.982-.312,2.525-.185.255.059.3-.049.077-.15-.254-.115-.51-.224-.768-.331-.5-.209-1.009-.412-1.5-.645a8.261,8.261,0,0,1-1.345-.788C1873.7,480.541,1873.629,480.491,1873.543,480.431Z" transform="translate(-1872.693 -424.04)" fill="#0a0405"/>
      <path id="Trazado_126189" data-name="Trazado 126189" d="M1875.343,508.028a.153.153,0,0,1,.057-.106,7.839,7.839,0,0,1,.089-3.722.137.137,0,0,1,.066-.088,5,5,0,0,1,.153-3.462c.09-.2.405-.072.316.128-.874,1.946-.008,3.923.836,5.709.093.2-.219.334-.312.137a18.789,18.789,0,0,1-.82-1.953,7.426,7.426,0,0,0,.3,4.2c.076.2-.236.342-.312.136-.028-.076-.05-.152-.075-.229a14.427,14.427,0,0,0,.515,3.392c.048.214-.289.261-.337.049A12.163,12.163,0,0,1,1875.343,508.028Z" transform="translate(-1866.039 -436.641)" fill="#bf5b46"/>
      <path id="Trazado_126190" data-name="Trazado 126190" d="M1881.2,505.016a7.068,7.068,0,0,1,2.406-.9,4.6,4.6,0,0,1,.963-.126.156.156,0,0,1,.091-.046c.745-.1,1.953-.325,2.116-1.235a1.64,1.64,0,0,0-1.182-1.663,6.771,6.771,0,0,0-3.812-.042c-.214.047-.262-.29-.049-.337,1.418-.313,3.895-.6,4.96.716a.168.168,0,0,1,.043-.017c.512-.085,1.054-.187,1.226-.782a1.717,1.717,0,0,0-.031-.742,3,3,0,0,0-.9-1.631c-.156-.149.045-.423.2-.272a3.3,3.3,0,0,1,1.081,2.3c.026.955-.571,1.281-1.418,1.439.751,1.341-.387,2.154-1.57,2.474a1.164,1.164,0,0,1,.355.277c.687.81.169,1.572-.558,2.041a1.065,1.065,0,0,1,.484.417,3.366,3.366,0,0,1,3.139,1.212c.15.16-.118.371-.266.212a3.078,3.078,0,0,0-2.708-1.115,1.818,1.818,0,0,1,.162.736c-.03.954-.82,1.382-1.622,1.657-.206.071-.344-.241-.136-.312a2.011,2.011,0,0,0,1.308-.876,1.242,1.242,0,0,0,.025-.982c-.015-.039-.036-.083-.059-.129a.178.178,0,0,1-.145-.235.546.546,0,0,0-.5-.281.144.144,0,0,1-.147-.053,2.921,2.921,0,0,1-.6.192c-.215.042-.263-.295-.049-.337.58-.113,1.329-.336,1.534-.986.444-1.4-.965-1.314-1.633-1.2a6.654,6.654,0,0,0-2.5.881C1881.232,505.4,1881.019,505.135,1881.2,505.016Z" transform="translate(-1880.412 -435.091)" fill="#bf5b46"/>
      <path id="Trazado_126191" data-name="Trazado 126191" d="M1865.589,393.946c.134-1.139.391-2.256.445-3.4a13.85,13.85,0,0,0-.329-3.613c-.047-.214.29-.262.337-.049a15.448,15.448,0,0,1,.071,5.866c-.364,2.262-.435,4.392,1.286,6.134.154.156-.114.366-.266.212A5.957,5.957,0,0,1,1865.589,393.946Z" transform="translate(-1852.584 -370.103)" fill="#bfb59b"/>
      <g id="Grupo_132769" data-name="Grupo 132769" transform="translate(15.025 61.201)">
        <path id="Trazado_126192" data-name="Trazado 126192" d="M1781.459,522.25a19.089,19.089,0,0,0,13.412-6.05c7.436-8.121,8.724-21.8,8.736-21.94a.213.213,0,1,0-.424-.038c-.012.136-1.288,13.677-8.626,21.69-8.649,9.444-23.336,5.885-30.562,1.423a28.667,28.667,0,0,1-3.078-1.942,1.606,1.606,0,0,1-.6-1.041.213.213,0,0,0-.422.059,2.031,2.031,0,0,0,.754,1.316,28.476,28.476,0,0,0,3.129,1.976A32.228,32.228,0,0,0,1781.459,522.25Z" transform="translate(-1759.896 -494.028)" fill="#0a0405"/>
      </g>
      <g id="Grupo_132770" data-name="Grupo 132770" transform="translate(20.064 71.429)">
        <path id="Trazado_126193" data-name="Trazado 126193" d="M1820.654,519.718a.213.213,0,0,0,.044-.418,19.27,19.27,0,0,0-2.732-.547,25.462,25.462,0,0,0-5.928.212c-1.246.142-2.535.289-3.8.31-2.353.038-4.792-.145-7.151-.321-.953-.071-1.9-.142-2.843-.2a.213.213,0,0,0-.025.425c.938.057,1.885.128,2.836.2,2.369.177,4.818.361,7.19.323,1.289-.021,2.587-.169,3.845-.313a25.212,25.212,0,0,1,5.828-.213,18.915,18.915,0,0,1,2.672.535A.21.21,0,0,0,1820.654,519.718Z" transform="translate(-1798.016 -518.652)" fill="#0a0405"/>
      </g>
      <g id="Grupo_132771" data-name="Grupo 132771" transform="translate(32.3 34.814)">
        <path id="Trazado_126194" data-name="Trazado 126194" d="M1815.315,468.074a.213.213,0,0,0,.2-.221,15.061,15.061,0,0,1,.178-2.451c.044-.343.088-.685.121-1.023.571-5.765.847-11.632,1.115-17.306l.094-1.989c.042-.868.07-1.759.1-2.662.128-3.958.26-8.05,1.463-11.643a.213.213,0,0,0-.4-.135c-1.223,3.651-1.356,7.775-1.485,11.764-.029.9-.058,1.789-.1,2.655l-.094,1.99c-.267,5.668-.543,11.53-1.114,17.284-.033.334-.076.672-.119,1.011a15.36,15.36,0,0,0-.182,2.522.213.213,0,0,0,.221.2Z" transform="translate(-1815.084 -430.499)" fill="#0a0405"/>
      </g>
      <g id="Grupo_132772" data-name="Grupo 132772" transform="translate(14.129 82.769)">
        <path id="Trazado_126195" data-name="Trazado 126195" d="M1864.566,555.533a.21.21,0,0,0,.048-.009.212.212,0,0,0,.144-.264,37.731,37.731,0,0,1-1.357-9.094.213.213,0,0,0-.426,0,38.254,38.254,0,0,0,1.375,9.211A.213.213,0,0,0,1864.566,555.533Z" transform="translate(-1862.975 -545.955)" fill="#0a0405"/>
      </g>
    </g>
    <g id="Grupo_132774" data-name="Grupo 132774" transform="translate(124.994 111.775)">
      <path id="Trazado_126196" data-name="Trazado 126196" d="M1561.8,504.86a3.994,3.994,0,0,1,.762-1.417,1.807,1.807,0,0,1,.685-.493,4.293,4.293,0,0,1,.847-.09c.934-2.211,1.773-2.726,2.969-2.109-.208-1.683,1.652-2.344,2.68-1.947.6-.834.842-1.535,2-1.668s2.31.94,2.967,1.71a6.645,6.645,0,0,1,.843,1.272c1.123.554,2.3,1.388,2.163,2.51a2.039,2.039,0,0,1-1.155,1.583,5.576,5.576,0,0,1-.724,3.879.575.575,0,0,1-.128.12,1.543,1.543,0,0,1-.43.343,1.462,1.462,0,0,1-1.733-.34,1.478,1.478,0,0,1-1.476.234,3.038,3.038,0,0,1-1.462-.683,1.457,1.457,0,0,1-1.42,1.115c-.283-.02-.55-.046-.8-.075a1.213,1.213,0,0,1-.388.57c-.78.647-1.983.17-2.678-.427a.539.539,0,0,1-.21-.184,3.585,3.585,0,0,0-1.428-1.247c-.455-.218-1.031-.209-1.448-.464C1561.536,506.625,1561.535,505.7,1561.8,504.86Z" transform="translate(-1561.636 -497.126)" fill="#944b3c"/>
      <path id="Trazado_126197" data-name="Trazado 126197" d="M1571.6,502.172c2.63,1.811,3.449,4.847,3.214,7.8-.018.222-.385.223-.368,0,.224-2.812-.509-5.759-3.032-7.5C1571.228,502.342,1571.411,502.04,1571.6,502.172Z" transform="translate(-1562.794 -500.057)" fill="#6f2e17"/>
      <path id="Trazado_126198" data-name="Trazado 126198" d="M1578.935,507.224a11.21,11.21,0,0,1,3.162,5.631c.048.219-.306.312-.355.092a10.869,10.869,0,0,0-3.067-5.477C1578.51,507.309,1578.77,507.063,1578.935,507.224Z" transform="translate(-1573.065 -502.999)" fill="#6f2e17"/>
      <path id="Trazado_126199" data-name="Trazado 126199" d="M1583.847,512.346a8.315,8.315,0,0,1,3.943,4.688c.071.214-.284.306-.354.093a7.943,7.943,0,0,0-3.774-4.48C1583.457,512.533,1583.642,512.233,1583.847,512.346Z" transform="translate(-1580.819 -506.01)" fill="#6f2e17"/>
      <path id="Trazado_126200" data-name="Trazado 126200" d="M1564.846,505.516a12.1,12.1,0,0,1,.616,3.047c.016.223-.351.223-.368,0a11.73,11.73,0,0,0-.6-2.955C1564.419,505.395,1564.774,505.3,1564.846,505.516Z" transform="translate(-1550.553 -501.96)" fill="#6f2e17"/>
    </g>
    <g id="Grupo_132785" data-name="Grupo 132785" transform="translate(45.656 70.881)">
      <path id="Trazado_126201" data-name="Trazado 126201" d="M1673.622,412.38a3.463,3.463,0,0,1,.462-1.7c.3-.524.763-.981.645-1.608-.107-.567-.542-1.038-.66-1.6a3.618,3.618,0,0,1,2.934-4.4,19.936,19.936,0,0,1,2.167-.488c.958-.183.826-.807,1.36-1.475a4.992,4.992,0,0,1,1.642-1.288,13.672,13.672,0,0,1,7.013-1.087,7.715,7.715,0,0,1,5.377,2.21,1.093,1.093,0,0,0,.635.338,12.22,12.22,0,0,1,5.032,1.97,4.005,4.005,0,0,1,1.311,1.634,2.126,2.126,0,0,0,.827,1.056,4.183,4.183,0,0,1,1.415,4.829c-.7,2.2-2.977,1.906-4.512,3.219a.335.335,0,0,1-.233.422c-4.822,1.583-13.553,4.827-13.188,10.862.019.319,1.324,4,1.068,3.788-2.544-2.115-7.8-6.276-9.557-9.248-.708-1.2-1.031-2.593-1.9-3.7C1674.555,414.943,1673.61,413.933,1673.622,412.38Z" transform="translate(-1655.119 -398.671)" fill="#b27a54"/>
      <path id="Trazado_126202" data-name="Trazado 126202" d="M1672.847,474.91c.748-1.678,2.411-2.694,3.791-3.674a8.567,8.567,0,0,0,1.553-1.319c.78-.9.475-2.053.208-3.141-.364-1.483-.966-2.958-1.474-4.392-.955-2.7-2.723-6.441-3.832-9.082-.175-.417,2.034.535,2.21.945a.341.341,0,0,1,.354-.075c4.118,1.473,9.084,3.038,12.987,5.055.307.159-.074.577-.327.655a38.365,38.365,0,0,0,2.2,5.967,8.2,8.2,0,0,0,1.914,2.955,16.417,16.417,0,0,0,2.78,2.169c.382.208.1.825-.281.638-1.427,1.793-2.256,3.962-3.85,5.638a13.483,13.483,0,0,1-4.925,3.3c-3.677,1.408-8.91,1.243-11.964-1.651C1673.219,477.978,1672.225,476.3,1672.847,474.91Z" transform="translate(-1646.073 -430.551)" fill="#faa985"/>
      <path id="Trazado_126203" data-name="Trazado 126203" d="M1681.833,416.427c3.238-6.346,12.648-6.041,17.431-1.822,3.729,3.29,4.8,8.863,5.039,13.621.123,2.43.016,5.4-1.7,7.311-2.144,2.4-6.165,2.547-8.71,2.13-3.512-.574-5.661-3.949-7.254-6.971l-.108-.208c-.5-.962-1.1-1.128-1.953-1.69a7.32,7.32,0,0,1-2.33-3.064C1680.838,422.86,1680.329,419.375,1681.833,416.427Z" transform="translate(-1658.456 -406.191)" fill="#faa985"/>
      <path id="Trazado_126204" data-name="Trazado 126204" d="M1726.368,438.421a.635.635,0,0,1,.763.444c.636,1.943,1.714,4.444,1.339,6.523a.72.72,0,0,1-1.16.4c-2.085-1.381-4.716-3.764-5.253-6.347C1721.481,436.67,1724.914,437.91,1726.368,438.421Z" transform="translate(-1699.723 -421.488)" fill="#b27a54"/>
      <path id="Trazado_126205" data-name="Trazado 126205" d="M1687.475,409.922c.3-.552,5.11-2.058,6.4-2.693a13.306,13.306,0,0,1,8.961-.731.3.3,0,0,1,.246.07,10.031,10.031,0,0,1,1.386.525c1.974.934,5.531,3.882,3.408,6.225a.359.359,0,0,1-.5.037,9.109,9.109,0,0,0-2.26-1.645.521.521,0,0,0-.746.393,5.587,5.587,0,0,1-4.337,4.722c-1.308.313-2.911-.426-3.951.618-.878.881-1.27,2.188-2.235,3.077a6.052,6.052,0,0,1-4.6,1.28c-2.126-.265-4.018-2.806-4.086-4.894C1685.1,415.02,1687.112,410.582,1687.475,409.922Z" transform="translate(-1664.406 -402.981)" fill="#b27a54"/>
      <path id="Trazado_126206" data-name="Trazado 126206" d="M1690.185,469.238a10.1,10.1,0,0,0,4.015,1.727,12.643,12.643,0,0,0,4.683-.551c.223-.067.367.266.142.334a12.759,12.759,0,0,1-4.875.576,10.641,10.641,0,0,1-4.187-1.8C1689.761,469.4,1689.986,469.117,1690.185,469.238Z" transform="translate(-1656.977 -439.91)" fill="#bf5b46"/>
      <path id="Trazado_126207" data-name="Trazado 126207" d="M1693.565,449.136c.414-.263.871-.564.767-1.128a2.293,2.293,0,0,0-.739-1.068c-.165-.157.066-.427.231-.269a2.325,2.325,0,0,1,.89,1.509c0,.591-.5.96-.948,1.248C1693.574,449.551,1693.372,449.259,1693.565,449.136Z" transform="translate(-1654.051 -426.706)" fill="#bf5b46"/>
      <path id="Trazado_126208" data-name="Trazado 126208" d="M1697.158,451.677a4.119,4.119,0,0,1,1.364-.09c.227.022.158.371-.068.348a3.6,3.6,0,0,0-1.176.076C1697.057,452.063,1696.935,451.729,1697.158,451.677Z" transform="translate(-1659.473 -429.596)" fill="#bf5b46"/>
      <path id="Trazado_126209" data-name="Trazado 126209" d="M1707.236,446.324a1.276,1.276,0,0,1,.72.9.7.7,0,0,1-.133.6c-.4.467-.945-.08-1.142-.423-.17-.295-.226-.863.181-1.045A.54.54,0,0,1,1707.236,446.324Z" transform="translate(-1672.737 -426.519)" fill="#0a0405"/>
      <path id="Trazado_126210" data-name="Trazado 126210" d="M1688.508,440.4a1.387,1.387,0,0,1,.6.972.7.7,0,0,1-.149.574c-.38.41-.844-.195-1-.556-.137-.31-.159-.876.215-1A.446.446,0,0,1,1688.508,440.4Z" transform="translate(-1646.118 -423.043)" fill="#0a0405"/>
      <path id="Trazado_126211" data-name="Trazado 126211" d="M1708.472,443.076a4.163,4.163,0,0,1,1.366-.022.922.922,0,0,1,.552,1.3c-.434.828-4.094.577-4.346-.138-.135-.381.106-.648.453-.8A7.4,7.4,0,0,1,1708.472,443.076Z" transform="translate(-1675.031 -424.592)" fill="#b27a54"/>
      <path id="Trazado_126212" data-name="Trazado 126212" d="M1687.307,436.594a3.644,3.644,0,0,1,1.144-1.093c.374-.243,1.354-1.06,1.779-.656.38.36.195,1.117-.058,1.484a5.031,5.031,0,0,1-1.132,1.076,2.44,2.44,0,0,1-1.232.654C1687.068,438.054,1686.982,437.117,1687.307,436.594Z" transform="translate(-1647.142 -419.755)" fill="#b27a54"/>
      <path id="Trazado_126213" data-name="Trazado 126213" d="M1692.722,459.275a5.265,5.265,0,0,1,2.591-.673c.226.037.157.385-.068.348a5.1,5.1,0,0,0-2.4.659A.178.178,0,0,1,1692.722,459.275Z" transform="translate(-1654.423 -433.694)" fill="#bf5b46"/>
      <path id="Trazado_126214" data-name="Trazado 126214" d="M1721.169,448.4c.88-1.774,2.764.123,3.355,1.054a3.909,3.909,0,0,1,.875,2.68,1.072,1.072,0,0,1-1.128.9,3.188,3.188,0,0,1-1.674-1.1C1721.8,451.142,1720.581,449.585,1721.169,448.4Z" transform="translate(-1696.203 -427.317)" fill="#faa985"/>
      <path id="Trazado_126215" data-name="Trazado 126215" d="M1685.33,409.778a6.49,6.49,0,0,1,2.607,3.31,1.706,1.706,0,0,1-1.183,2.3c-.224.046-.248-.309-.026-.354,1.768-.36.7-2.478.111-3.3a7.11,7.11,0,0,0-1.74-1.686C1684.911,409.916,1685.144,409.648,1685.33,409.778Z" transform="translate(-1643.849 -405.145)" fill="#8f573a"/>
      <path id="Trazado_126216" data-name="Trazado 126216" d="M1679.55,411.916a9.218,9.218,0,0,1,1.944,1.281.177.177,0,0,1-.231.269,8.887,8.887,0,0,0-1.868-1.231A.178.178,0,0,1,1679.55,411.916Z" transform="translate(-1634.998 -406.403)" fill="#8f573a"/>
      <path id="Trazado_126217" data-name="Trazado 126217" d="M1725.757,437.027c.906.842,2.093.449,2.938,1.306.862.875,3.02,2.547,4.182,1.224.151-.172.42.059.269.231-.909,1.035-2.561.437-3.541-.19-.8-.515-1.226-1.337-2.21-1.512a3.217,3.217,0,0,1-1.87-.791C1725.358,437.141,1725.589,436.871,1725.757,437.027Z" transform="translate(-1705.811 -421.068)" fill="#8f573a"/>
      <path id="Trazado_126218" data-name="Trazado 126218" d="M1697.848,411.649a1.39,1.39,0,0,1,1.423-.552.185.185,0,0,1,.033-.076c.787-1.075,1.722-2.294,3.1-2.6a4.179,4.179,0,0,1,3.477,1.172c.427.35.644.586,1.236.387.33-.11.628-.333.97-.44a4.6,4.6,0,0,1,5.3,1.935.178.178,0,0,1-.292.2,4.247,4.247,0,0,0-5.162-1.705c-.339.133-.636.411-.976.513a.7.7,0,0,1-.626-.036c-.494-.239-.942-.832-1.42-1.128a3.462,3.462,0,0,0-2.037-.608c-1.447.1-2.423,1.354-3.221,2.44a2.816,2.816,0,0,1,1.8,1.229c.126.191-.166.393-.292.2a2.455,2.455,0,0,0-1.148-.957c-.471-.188-1.553-.4-1.84.184A.178.178,0,0,1,1697.848,411.649Z" transform="translate(-1674.555 -404.329)" fill="#8f573a"/>
      <path id="Trazado_126219" data-name="Trazado 126219" d="M1748.146,621.595c-.432-6.772.723-16.346,2.113-23.449.045-.231.181,1.588.361,1.541a.585.585,0,0,1,.279-.138c.733-.143,1.25-.891,2.1-1a17.618,17.618,0,0,1,3.938.161,25.224,25.224,0,0,1,7.889,1.862c1.7.806,1.291,2.377.775,3.929-.918,2.763-1.781,5.439-2.481,8.269-1.22,4.935-3.274,8.986-7.566,11.925-1.365.935-3.772,2.425-5.425,1.343C1748.4,624.907,1748.264,623.444,1748.146,621.595Z" transform="translate(-1748.054 -515.28)" fill="#faa985"/>
      <path id="Trazado_126220" data-name="Trazado 126220" d="M1724.384,449.748a3.687,3.687,0,0,1,1.763,2.553.163.163,0,0,1-.322.049,3.378,3.378,0,0,0-1.637-2.342C1724.007,449.9,1724.2,449.643,1724.384,449.748Z" transform="translate(-1698.208 -428.518)" fill="#bf5b46"/>
      <path id="Trazado_126221" data-name="Trazado 126221" d="M1587.987,517.214c.589-2.908.737-5.87,1.926-8.364,2.355-4.939,8.51-9.424,14.162-11.833,1.037-.442,9.086-4.153,9.786-2.7a1.255,1.255,0,0,1-.06.864c-.7,2.532.124,6.108,2.344,7a12.136,12.136,0,0,0,7.736.109,11.4,11.4,0,0,0,6.251-4.289,6.719,6.719,0,0,0,1.219-3.535c.023-.673-.244-.715-.432-1.361-.056-.193.109-1.4.847-1.06,5.861,2.7,11.348,4.262,16.975,7.437,4.708,2.657,9.214,6,12.1,10.667,3.334,5.393,4.9,12.157,6.2,18.292a85.842,85.842,0,0,1,1.667,10.637c.217,2.6-.741,3.689-2.843,5.081q-1.981,1.313-3.967,2.62a107.548,107.548,0,0,1,.6,13.137,59.188,59.188,0,0,1-.524,8.968c-.7,4.1-31.9,5.192-47.5,2.036-1.6-.323-2.945-3.877-3.408-5.439-2.662-8.994-5.151-21.067-7.909-28.779-4.579-2.68-11.463-5.953-14.887-9.827C1586.193,524.521,1587.439,519.92,1587.987,517.214Z" transform="translate(-1583.89 -453.224)" fill="#f2d0b8"/>
      <path id="Trazado_126222" data-name="Trazado 126222" d="M1595.413,610.847q.644-6.2,1.288-12.391a.492.492,0,0,1,.722-.391,121.086,121.086,0,0,0,15.69-.881.519.519,0,0,1,.569.641c.223.039.883-.077.92.21a68.005,68.005,0,0,1-.006,13.144c-.211,3.2-1.141,8.247-3.021,11.029.085.21-4.731,1.227-7.57.656a30.413,30.413,0,0,1-4.764-1.477c-1.221-.464-2.677-.867-3.547-1.912C1593.937,617.364,1595.165,613.233,1595.413,610.847Z" transform="translate(-1533.257 -514.727)" fill="#faa985"/>
      <path id="Trazado_126223" data-name="Trazado 126223" d="M1735.914,538.39c.99-5.216,2.371-12.209,6.768-15.831.088-.3,2.552,1.378,2.926,1.534,5.243,2.179,6.89,5.533,9.513,10.523,2.66,5.061,2.162,16.815,2.1,16.849-1,3.968-2.929,9.181-7.388,9.084-2.671-.058-13.719.384-15.961-4.233C1733.456,555.459,1735.31,541.573,1735.914,538.39Z" transform="translate(-1733.383 -471.08)" fill="#f2d0b8"/>
      <path id="Trazado_126224" data-name="Trazado 126224" d="M1720.576,589.265c3.385-3.215,7.047-6.779,9.08-11.2.065-.14-.51-1.1-.391-1.141,2.075-1.577,10.457-9.743,10.621-9.231,1.563,4.887,3.349,10,1.892,15.11a26.382,26.382,0,0,1-2.621,5.528c-1.57,2.78-3.3,5.47-5.142,8.08-3.658,5.19-7.935,11-13.523,14.236a19.8,19.8,0,0,1-2.967,1.559c-4.311,1.6-8.579-1.811-9.6-6a10.975,10.975,0,0,1,1.086-8.083,13.8,13.8,0,0,1,5.3-4.508A30.829,30.829,0,0,0,1720.576,589.265Z" transform="translate(-1707.515 -497.474)" fill="#faa985"/>
      <path id="Trazado_126225" data-name="Trazado 126225" d="M1709.939,539.1c-.2-.584-.606-1.856-.11-2.373a1.611,1.611,0,0,1,1.583-.14,4.2,4.2,0,0,1,1.475,1.673.974.974,0,0,0,.252.3,1.157,1.157,0,0,0,.571.133c1.739.148,3.124,1.535,4.036,3.022a41,41,0,0,0,2.623,4.522,1.861,1.861,0,0,0,1.322.838,1.361,1.361,0,0,0,1.23-1.16,2.929,2.929,0,0,0-.355-1.77,14.194,14.194,0,0,1-.8-1.653,3.628,3.628,0,0,1,.076-2.468,1.182,1.182,0,0,1,.368-.537c.514-.371,1.215.079,1.638.551a17.779,17.779,0,0,1,2.439,3.88,40.868,40.868,0,0,1,4.176,10.662c.4,2.093.456,4.415-.73,6.186A6.338,6.338,0,0,1,1726.9,563a7.469,7.469,0,0,1-4.215.509c-2.662-.487-4.751-2.511-6.532-4.549a33.927,33.927,0,0,1-5.921-8.954,5.531,5.531,0,0,1-.513-3.759,5.443,5.443,0,0,0,.315-1.008,3.063,3.063,0,0,0-.352-1.5,6.98,6.98,0,0,1-.643-2.4A2.731,2.731,0,0,1,1709.939,539.1Z" transform="translate(-1696.522 -479.221)" fill="#faa985"/>
      <path id="Trazado_126226" data-name="Trazado 126226" d="M1599.49,583.381a6.4,6.4,0,0,1,.53-2.138.574.574,0,0,0,.161-.4c0-.146.007-.285.007-.3a5.862,5.862,0,0,1,.3-1.94,15.562,15.562,0,0,1,.968-1.916c.594-1.16.879-2.557,1.956-3.34a1.319,1.319,0,0,0,.318-.281c.237-.334.182-1.193.336-1.62a3.032,3.032,0,0,1,.868-1.427c1.526-1.125,2.81,2.235,2.859,3.4.051,1.227-.722,2.342-.565,3.583a3.665,3.665,0,0,0,2.992,3.121.551.551,0,0,1,.187-.041c.782-.029,3,.164,2.592-1.364-.109-.406-1.084-1.072-1.444-1.342a16.568,16.568,0,0,1-2.627-2.075c-.9-1.013-1.778-2.776-.444-3.786a.535.535,0,0,1,.52-.064c.043.012.086.025.128.039a7.048,7.048,0,0,1,1.192.66l1.308.758,2.309,1.339.253.147a20.821,20.821,0,0,1,3.363,2.088c1.6,1.4,2.231,3.644,2.683,5.761a2.339,2.339,0,0,0,1.117,1.552,66.067,66.067,0,0,0,25.169,7.854c2.549.3,5.106.584,7.619,1.118a6.064,6.064,0,0,1,4.715,5.084c.522,2.635.689,6.482-1.262,8.6-2.215,2.4-6.32,2.012-9.263,1.7a55.073,55.073,0,0,1-16.538-4.823,81.789,81.789,0,0,1-15.821-9.378,1.815,1.815,0,0,0-.377-.036c-4.093.077-8.639-.727-11.554-3.68-.5-.51-1.14-.907-1.659-1.41a12.3,12.3,0,0,1-1.747-1.58A16.808,16.808,0,0,1,1599.49,583.381Z" transform="translate(-1579.5 -498.715)" fill="#faa985"/>
      <g id="Grupo_132775" data-name="Grupo 132775" transform="translate(16.647 59.677)">
        <path id="Trazado_126227" data-name="Trazado 126227" d="M1741.625,553.693a.211.211,0,0,0,.086-.018.213.213,0,0,0,.108-.281,19.911,19.911,0,0,0-2-3.283c-.213-.3-.425-.606-.632-.911a20.932,20.932,0,0,1-1.694-3.237c-.185-.41-.372-.822-.57-1.236-.06-.125-.118-.253-.178-.383a5.077,5.077,0,0,0-1.29-1.95.213.213,0,1,0-.268.331,4.767,4.767,0,0,1,1.17,1.8c.061.131.12.262.182.389.2.41.381.82.565,1.227a21.591,21.591,0,0,0,1.729,3.3c.208.308.422.612.636.917a19.572,19.572,0,0,1,1.96,3.212A.213.213,0,0,0,1741.625,553.693Z" transform="translate(-1735.109 -542.346)" fill="#bf5b46"/>
      </g>
      <path id="Trazado_126228" data-name="Trazado 126228" d="M1586.193,572.225q.086-5.255.172-10.511c.042-2.584-.409-5.916,1.168-8.162,1.39-1.98,3.932-2.814,6.242-3.03a33.811,33.811,0,0,1,9.414.785c2.871.567,4.635-1.644,6.516.67.327.4,3.881,10.971,4.872,24.389.146,1.978-1.115,2.4-2.864,2.636a48.643,48.643,0,0,1-5.428.318c-3.556.078-7.116.15-10.672.026-1.47-.051-2.939-.133-4.4-.263a11.741,11.741,0,0,1-3.974-.618,1.829,1.829,0,0,1-1.09-1.421A23.494,23.494,0,0,1,1586.193,572.225Z" transform="translate(-1529.285 -487.399)" fill="#f2d0b8"/>
      <path id="Trazado_126229" data-name="Trazado 126229" d="M1719.963,533.337c.359-.768,2.051.459,2.422.722a13.53,13.53,0,0,1,3.391,4.02,39.34,39.34,0,0,1,3.394,5.579,14,14,0,0,1-.366-2.291c-.03-.469-.179-2.568.7-2.5.354.027.489.46.6.722a10.666,10.666,0,0,1,.673,2.248,11.159,11.159,0,0,1-.19,4.837c1.1,2.5,2.052,5.075,2.992,7.629a.186.186,0,0,1-.351.125c-.235-.639-.618-1.605-1.063-2.7a8.474,8.474,0,0,0-1.073-2.6c-1.071-2.57-2.132-5.043-2.29-5.354a.165.165,0,0,1-.041,0,9.521,9.521,0,0,1-2.532-.607,4.725,4.725,0,0,1-1.934-1.134.191.191,0,0,1,.013-.227c.334-.507,1.54-.171,2.008-.052a5.584,5.584,0,0,1,1.9.907c-.434-.8-.889-1.583-1.375-2.35a.188.188,0,0,1-.1.02c-1.553-.136-4.191-.465-5.025-2.015a.189.189,0,0,1,.14-.292,7.108,7.108,0,0,1,2.532.406c-.861-.688-1.713-1.386-2.52-2.13a8.463,8.463,0,0,1-1.45-1.667C1720.236,534.34,1719.783,533.723,1719.963,533.337Z" transform="translate(-1703.908 -477.257)" fill="#fff"/>
      <path id="Trazado_126230" data-name="Trazado 126230" d="M1643.494,576.215a44.844,44.844,0,0,0,2.707,15.262c.077.211-.259.3-.335.092a45.133,45.133,0,0,1-2.719-15.354A.174.174,0,0,1,1643.494,576.215Z" transform="translate(-1584.64 -502.372)" fill="#0a0405"/>
      <g id="Grupo_132776" data-name="Grupo 132776" transform="translate(19.854 82.097)">
        <path id="Trazado_126231" data-name="Trazado 126231" d="M1720.479,597.774l.01-.1c.045-.454.114-1.141.676-1.342a.213.213,0,1,1,.143.4c-.309.11-.359.615-.4.984l-.01.1a7.438,7.438,0,0,0-.031.984,9.229,9.229,0,0,0,4.09,7.292,15.078,15.078,0,0,0,3.7,1.858c.389.136.772.258,1.148.369.364.265.317.518-.109.412-.386-.114-.78-.239-1.179-.379a15.472,15.472,0,0,1-3.806-1.912,9.646,9.646,0,0,1-4.271-7.629A7.839,7.839,0,0,1,1720.479,597.774Z" transform="translate(-1720.442 -596.324)" fill="#bf5b46"/>
      </g>
      <g id="Grupo_132777" data-name="Grupo 132777" transform="translate(62.332 92.451)">
        <path id="Trazado_126232" data-name="Trazado 126232" d="M1622.033,623.464a.213.213,0,0,0,.075-.412c-3.555-1.335-12.8-1.78-13.188-1.8a.213.213,0,1,0-.02.425c.1,0,9.567.461,13.059,1.772A.214.214,0,0,0,1622.033,623.464Z" transform="translate(-1608.696 -621.253)" fill="#bf5b46"/>
      </g>
      <g id="Grupo_132778" data-name="Grupo 132778" transform="translate(21.515 74.137)">
        <path id="Trazado_126233" data-name="Trazado 126233" d="M1735.166,588.77a.213.213,0,0,0,.112-.394c-2.167-1.329-2.661-4.048-2.4-6.149a9.983,9.983,0,0,1,.767-2.75l.031-.071c.319-.734.715-1.648,1.481-1.825a.213.213,0,0,0-.1-.415c-.976.226-1.438,1.292-1.776,2.071l-.031.071a10.4,10.4,0,0,0-.8,2.868c-.276,2.233.263,5.13,2.6,6.565A.213.213,0,0,0,1735.166,588.77Z" transform="translate(-1732.389 -577.159)" fill="#bf5b46"/>
      </g>
      <g id="Grupo_132779" data-name="Grupo 132779" transform="translate(20.432 77.98)">
        <path id="Trazado_126234" data-name="Trazado 126234" d="M1738.574,595.788a.213.213,0,0,0,.132-.38c-1.784-1.411-2.216-4.446-1.721-6.714a4.065,4.065,0,0,1,.948-1.926.213.213,0,0,0-.313-.289,4.48,4.48,0,0,0-1.05,2.123c-.508,2.324-.138,5.55,1.872,7.139A.214.214,0,0,0,1738.574,595.788Z" transform="translate(-1736.365 -586.411)" fill="#bf5b46"/>
      </g>
      <g id="Grupo_132780" data-name="Grupo 132780" transform="translate(23.675 70.92)">
        <path id="Trazado_126235" data-name="Trazado 126235" d="M1712.822,583.1a.213.213,0,0,0,.145-.369,9.2,9.2,0,0,1-2.486-5.3,24.8,24.8,0,0,1,1.037-7,.926.926,0,0,1,.735-.586,1.379,1.379,0,0,1,1.176.574,3.98,3.98,0,0,1,.6,1.147,4.022,4.022,0,0,1,.145,2.077c-.36,1.94-.42,3.188-.178,3.707.92,1.978,3.2,3.408,5.432,2.378a1.128,1.128,0,0,0,.7-.743,1.184,1.184,0,0,0-.359-1.007,9.775,9.775,0,0,0-2.139-1.747,17.85,17.85,0,0,1-1.456-1.05.213.213,0,1,0-.271.329,18.044,18.044,0,0,0,1.49,1.074,9.467,9.467,0,0,1,2.052,1.67.8.8,0,0,1,.266.641c-.049.225-.31.376-.462.446-1.987.919-4.036-.383-4.868-2.171a8.33,8.33,0,0,1,.211-3.45,4.536,4.536,0,0,0-.832-3.565,1.788,1.788,0,0,0-1.56-.734,1.349,1.349,0,0,0-1.072.829,24.941,24.941,0,0,0-1.071,7.249,9.6,9.6,0,0,0,2.617,5.544A.213.213,0,0,0,1712.822,583.1Z" transform="translate(-1710.031 -569.415)" fill="#bf5b46"/>
      </g>
      <g id="Grupo_132781" data-name="Grupo 132781" transform="translate(28.254 72.617)">
        <path id="Trazado_126236" data-name="Trazado 126236" d="M1715.61,576.024a.213.213,0,0,0,.108-.4q-.657-.383-1.316-.762l-.352-.2a16.478,16.478,0,0,0-1.895-.991,1.642,1.642,0,0,0-1.384-.022.726.726,0,0,0-.3.656.209.209,0,0,0,.217.209.213.213,0,0,0,.209-.217.308.308,0,0,1,.118-.3,1.27,1.27,0,0,1,.981.063,16.035,16.035,0,0,1,1.845.967l.353.2q.659.378,1.314.761A.213.213,0,0,0,1715.61,576.024Z" transform="translate(-1710.466 -573.5)" fill="#bf5b46"/>
      </g>
      <g id="Grupo_132782" data-name="Grupo 132782" transform="translate(3.484 89.731)">
        <path id="Trazado_126237" data-name="Trazado 126237" d="M1755.023,623.783a.211.211,0,0,0,.165-.078,17.281,17.281,0,0,1,5.561-4.266,18.188,18.188,0,0,0,5.721-4.387.213.213,0,0,0-.329-.27,17.837,17.837,0,0,1-5.6,4.285,17.875,17.875,0,0,0-5.684,4.37.213.213,0,0,0,.165.347Z" transform="translate(-1754.811 -614.704)" fill="#bf5b46"/>
      </g>
      <g id="Grupo_132783" data-name="Grupo 132783" transform="translate(13.691 66.153)">
        <path id="Trazado_126238" data-name="Trazado 126238" d="M1748.129,566.759a.213.213,0,0,0,.17-.34,7.041,7.041,0,0,0-1.751-1.688l-.294-.191a3.574,3.574,0,0,1-1.582-1.567c-.16-.356-.309-.728-.458-1.1-.6-1.5-1.217-3.057-2.72-3.9a.213.213,0,1,0-.209.371c1.372.773,1.962,2.255,2.533,3.69.152.382.3.76.466,1.121a3.951,3.951,0,0,0,1.74,1.75l.29.188a6.612,6.612,0,0,1,1.644,1.587A.214.214,0,0,0,1748.129,566.759Z" transform="translate(-1741.178 -557.939)" fill="#bf5b46"/>
      </g>
      <g id="Grupo_132784" data-name="Grupo 132784" transform="translate(13.699 60.064)">
        <path id="Trazado_126239" data-name="Trazado 126239" d="M1747.177,555.922a.213.213,0,0,0,.188-.313,44.157,44.157,0,0,0-3.086-4.784c-.325-.46-.65-.919-.969-1.38a15.521,15.521,0,0,1-1.776-3.817c-.086-.249-.87-2.439-1.778-2.348a.213.213,0,0,0,.042.424c.365-.037,1.026,1.178,1.334,2.064a15.9,15.9,0,0,0,1.828,3.919c.319.463.646.923.971,1.384a43.9,43.9,0,0,1,3.057,4.738A.212.212,0,0,0,1747.177,555.922Z" transform="translate(-1739.564 -543.277)" fill="#bf5b46"/>
      </g>
    </g>
  </g>
</svg>
