<svg xmlns="http://www.w3.org/2000/svg" xmlns:xlink="http://www.w3.org/1999/xlink" width="400" height="498" viewBox="0 0 400 498">
  <defs>
    <clipPath id="clip-path">
      <rect id="Rectángulo_35874" data-name="Rectángulo 35874" width="400" height="498" transform="translate(179.999 1064)" fill="#f6f6f6"/>
    </clipPath>
  </defs>
  <g id="img2" transform="translate(-179.999 -1064)" clip-path="url(#clip-path)">
    <path id="Trazado_126309" data-name="Trazado 126309" d="M3629.02-10137.546c19.141-28.282,23.281-21.048,16.453-48.411s-14.258-16.539-6.492-33.809,2.438-24.359,20.828-56.984,51.8-15.109,26.41-62.309-39.141-38.508-47.238-78.113-23.551-27.4-35.566-55.332-6.07-30.773,0-45.254,32.309-39.816,0-44.121-7.367,30.414-28.344,44.121-84.172-.57-88.617-13.367,2.484-24.395-19.9-39.879-30.625-39.961-56.551-17.629-42.887,35.52-21.055,66.516-44.289,24.016-40.43,56.523-72.621,50.461-8.453,84.777,104.887,47.211,85.418,104.066-13.684,62.547,0,75.508,6.605,13.09,8.84,39.953,2.762,20.932,6.078,23.743S3629.02-10137.546,3629.02-10137.546Z" transform="translate(-3134.001 11700)" fill="#ddd"/>
    <g id="Grupo_133053" data-name="Grupo 133053" transform="translate(363.014 1074.089)">
      <path id="Trazado_125741" data-name="Trazado 125741" d="M774.719,45H570.284a.571.571,0,0,1,0-1.141H774.719a.571.571,0,0,1,0,1.141Z" transform="translate(-569.713 -15.891)" fill="#133d60"/>
      <path id="Trazado_125742" data-name="Trazado 125742" d="M768.427,69.768H616.24a.571.571,0,0,1,0-1.141H768.427a.571.571,0,0,1,0,1.141Z" transform="translate(-563.226 -12.396)" fill="#133d60"/>
      <path id="Trazado_125743" data-name="Trazado 125743" d="M678.027,72.974a.571.571,0,0,1-.57-.571V44.433a.571.571,0,1,1,1.141,0V72.4A.571.571,0,0,1,678.027,72.974Z" transform="translate(-554.505 -15.891)" fill="#133d60"/>
      <path id="Trazado_125744" data-name="Trazado 125744" d="M623.645,48.463a.571.571,0,0,1-.571-.571V19.922a.57.57,0,1,1,1.141,0V47.892A.57.57,0,0,1,623.645,48.463Z" transform="translate(-562.181 -19.351)" fill="#133d60"/>
      <path id="Trazado_125745" data-name="Trazado 125745" d="M718.88,48.463a.57.57,0,0,1-.571-.571V19.922a.571.571,0,1,1,1.141,0V47.892A.571.571,0,0,1,718.88,48.463Z" transform="translate(-548.738 -19.351)" fill="#133d60"/>
      <path id="Trazado_125746" data-name="Trazado 125746" d="M718.88,98.25a.57.57,0,0,1-.571-.571V69.709a.571.571,0,1,1,1.141,0V97.679A.571.571,0,0,1,718.88,98.25Z" transform="translate(-548.738 -12.323)" fill="#133d60"/>
    </g>
    <g id="Grupo_133054" data-name="Grupo 133054" transform="translate(368.412 1336.101)">
      <path id="Trazado_125741-2" data-name="Trazado 125741" d="M774.719,43.862H570.284a.571.571,0,0,0,0,1.141H774.719a.571.571,0,0,0,0-1.141Z" transform="translate(-569.713 12.953)" fill="#133d60"/>
      <path id="Trazado_125742-2" data-name="Trazado 125742" d="M768.427,68.627H616.24a.571.571,0,0,0,0,1.141H768.427a.571.571,0,0,0,0-1.141Z" transform="translate(-563.226 -40.073)" fill="#133d60"/>
      <path id="Trazado_125743-2" data-name="Trazado 125743" d="M678.028,43.862a.571.571,0,0,0-.57.571V72.4a.571.571,0,1,0,1.141,0V44.433A.571.571,0,0,0,678.028,43.862Z" transform="translate(-554.505 -15.018)" fill="#133d60"/>
      <path id="Trazado_125744-2" data-name="Trazado 125744" d="M623.645,19.351a.571.571,0,0,0-.571.571V47.892a.57.57,0,1,0,1.141,0V19.922A.57.57,0,0,0,623.645,19.351Z" transform="translate(-562.181 37.464)" fill="#133d60"/>
      <path id="Trazado_125745-2" data-name="Trazado 125745" d="M718.88,19.351a.57.57,0,0,0-.571.571V47.892a.571.571,0,1,0,1.141,0V19.922A.571.571,0,0,0,718.88,19.351Z" transform="translate(-548.738 37.464)" fill="#133d60"/>
      <path id="Trazado_125746-2" data-name="Trazado 125746" d="M718.88,69.138a.57.57,0,0,0-.571.571V97.679a.571.571,0,1,0,1.141,0V69.709A.571.571,0,0,0,718.88,69.138Z" transform="translate(-548.738 -69.138)" fill="#133d60"/>
    </g>
    <g id="Grupo_133055" data-name="Grupo 133055" transform="translate(199.014 1465.491)">
      <path id="Trazado_125747" data-name="Trazado 125747" d="M570.284,323.811H774.719a.571.571,0,0,0,0-1.141H570.284a.571.571,0,0,0,0,1.141Z" transform="translate(-569.518 -294.699)" fill="#133d60"/>
      <path id="Trazado_125748" data-name="Trazado 125748" d="M616.241,348.577H768.427a.571.571,0,0,0,0-1.141H616.241a.571.571,0,0,0,0,1.141Z" transform="translate(-615.67 -291.204)" fill="#133d60"/>
      <path id="Trazado_125749" data-name="Trazado 125749" d="M678.028,351.782a.571.571,0,0,0,.57-.571V323.241a.571.571,0,1,0-1.141,0v27.971A.571.571,0,0,0,678.028,351.782Z" transform="translate(-595.779 -294.699)" fill="#133d60"/>
      <path id="Trazado_125750" data-name="Trazado 125750" d="M623.644,327.271a.571.571,0,0,0,.571-.571V298.73a.57.57,0,1,0-1.141,0V326.7A.57.57,0,0,0,623.644,327.271Z" transform="translate(-479.337 -298.159)" fill="#133d60"/>
      <path id="Trazado_125751" data-name="Trazado 125751" d="M718.88,327.271a.57.57,0,0,0,.571-.571V298.73a.571.571,0,1,0-1.141,0V326.7A.571.571,0,0,0,718.88,327.271Z" transform="translate(-683.25 -298.159)" fill="#133d60"/>
      <path id="Trazado_125752" data-name="Trazado 125752" d="M718.88,377.058a.57.57,0,0,0,.571-.571v-27.97a.571.571,0,1,0-1.141,0v27.97A.571.571,0,0,0,718.88,377.058Z" transform="translate(-683.25 -291.131)" fill="#133d60"/>
    </g>
    <g id="Grupo_133056" data-name="Grupo 133056" transform="translate(199.014 1214.491)">
      <path id="Trazado_125747-2" data-name="Trazado 125747" d="M570.284,322.67H774.719a.571.571,0,0,1,0,1.141H570.284a.571.571,0,0,1,0-1.141Z" transform="translate(-569.518 -265.855)" fill="#133d60"/>
      <path id="Trazado_125748-2" data-name="Trazado 125748" d="M616.241,347.436H768.427a.571.571,0,0,1,0,1.141H616.241a.571.571,0,0,1,0-1.141Z" transform="translate(-615.67 -318.883)" fill="#133d60"/>
      <path id="Trazado_125749-2" data-name="Trazado 125749" d="M678.028,322.67a.571.571,0,0,1,.57.571v27.971a.571.571,0,1,1-1.141,0V323.241A.571.571,0,0,1,678.028,322.67Z" transform="translate(-595.779 -293.826)" fill="#133d60"/>
      <path id="Trazado_125750-2" data-name="Trazado 125750" d="M623.644,298.159a.571.571,0,0,1,.571.571V326.7a.57.57,0,1,1-1.141,0V298.73A.57.57,0,0,1,623.644,298.159Z" transform="translate(-479.337 -241.344)" fill="#133d60"/>
      <path id="Trazado_125751-2" data-name="Trazado 125751" d="M718.88,298.159a.57.57,0,0,1,.571.571V326.7a.571.571,0,1,1-1.141,0V298.73A.571.571,0,0,1,718.88,298.159Z" transform="translate(-683.25 -241.344)" fill="#133d60"/>
      <path id="Trazado_125752-2" data-name="Trazado 125752" d="M718.88,347.947a.57.57,0,0,1,.571.571v27.97a.571.571,0,1,1-1.141,0v-27.97A.571.571,0,0,1,718.88,347.947Z" transform="translate(-683.25 -347.947)" fill="#133d60"/>
    </g>
    <g id="Grupo_133052" data-name="Grupo 133052" transform="translate(45.06 1019.636)">
      <g id="Grupo_132787" data-name="Grupo 132787" transform="translate(188.834 58.365)">
        <path id="Trazado_126240" data-name="Trazado 126240" d="M383.54,75.165C349.72,49.549,301.187,52.109,283.3,90.58a51.7,51.7,0,0,0-3.237,9c-7.47,29.218,14.44,31.179-10.388,48.407s-37,23.7-39.635,39.7c-4.644,28.269,29.035,21.244-5.572,45.588s-41.562,47.983-31.449,67.836c17.8,34.939,41.567-3.428,53.445,40.432.073.264.144.526.217.787,6.625,23.783,38.6,27.919,51.055,6.6,10.053-17.2,20.242-33.514,40.087-22.2,36.67,20.912,47.126,58.763,73.779,30.748s3.483-46.616,23.78-63.112,4.079-49.591-17.364-62.275-48.972-14.817-36.2-30.434,18.075-25.843,11.227-38.043,1.14-10.966,4-29.493C398.72,123.341,404.146,90.771,383.54,75.165Z" transform="translate(-188.772 -58.365)" fill="#181709"/>
      </g>
      <g id="Grupo_132794" data-name="Grupo 132794" transform="translate(365.92 219.902)">
        <g id="Grupo_132789" data-name="Grupo 132789">
          <g id="Grupo_132788" data-name="Grupo 132788">
            <path id="Trazado_126241" data-name="Trazado 126241" d="M281.834,328.733q7.507-8.354,14.537-17.063,8.369-10.362,16-21.191c5.08-7.211,9.915-14.556,14.417-22,2.254-3.723,4.419-7.478,6.471-11.225.128-.235.262-.478.392-.716-.533-1.122-1.111-2.3-1.728-3.485-2.217-4.267-4.91-8.772-7.752-13.274-5.747-9.031-12.21-18.117-18.914-27.1s-13.724-17.9-20.883-26.716q-5.369-6.62-10.856-13.151l-5.5-6.508-2.764-3.216-2.709-3.117-.191-.23a23.912,23.912,0,0,1,36.11-31.354l3.015,3.47,2.915,3.4,5.76,6.811q5.73,6.828,11.35,13.745c7.493,9.23,14.859,18.6,22.067,28.235,7.2,9.651,14.242,19.515,20.982,30.1,3.365,5.331,6.657,10.8,9.81,16.854,1.571,3.033,3.114,6.207,4.583,9.737a73.156,73.156,0,0,1,4.008,12.464,23.276,23.276,0,0,1-2.4,16.446l-.1.17c-.188.322-.261.421-.382.612l-.314.468-.591.873-1.143,1.642c-.758,1.069-1.511,2.107-2.27,3.13-1.5,2.052-3.022,4.042-4.552,6q-4.592,5.879-9.35,11.455c-6.343,7.452-12.916,14.6-19.678,21.51q-10.166,10.35-20.9,19.973-10.718,9.6-21.952,18.464Z" transform="translate(-256.501 -120.147)" fill="#c9614d"/>
          </g>
        </g>
        <g id="Grupo_132791" data-name="Grupo 132791" transform="translate(76.229 127.598)">
          <g id="Grupo_132790" data-name="Grupo 132790">
            <path id="Trazado_126242" data-name="Trazado 126242" d="M304.348,170.758a27.606,27.606,0,0,0-17.136,7.509c-.847.795-2.126-.479-1.276-1.279a29.6,29.6,0,0,1,18.412-8.037c1.158-.081,1.156,1.726,0,1.807Z" transform="translate(-285.656 -168.949)" fill="#722324"/>
          </g>
        </g>
        <g id="Grupo_132793" data-name="Grupo 132793" transform="translate(80.311 121.693)">
          <g id="Grupo_132792" data-name="Grupo 132792">
            <path id="Trazado_126243" data-name="Trazado 126243" d="M295.392,168.012q-3.232,4.8-6.461,9.609c-.646.957-2.209.055-1.558-.913q3.228-4.8,6.458-9.609c.646-.96,2.212-.058,1.561.912Z" transform="translate(-287.218 -166.69)" fill="#722324"/>
          </g>
        </g>
      </g>
      <g id="Grupo_132830" data-name="Grupo 132830" transform="translate(246.061 202.148)">
        <g id="Grupo_132801" data-name="Grupo 132801">
          <g id="Grupo_132800" data-name="Grupo 132800">
            <g id="Grupo_132799" data-name="Grupo 132799">
              <g id="Grupo_132798" data-name="Grupo 132798">
                <g id="Grupo_132797" data-name="Grupo 132797">
                  <g id="Grupo_132796" data-name="Grupo 132796">
                    <g id="Grupo_132795" data-name="Grupo 132795">
                      <path id="Trazado_126244" data-name="Trazado 126244" d="M406.8,410.9s-26.083,1.336-65.676-9.87c-.544-.152-1.09-.306-1.642-.468a322.843,322.843,0,0,1-44.642-16.629c-.5-.233-1.007-.465-1.514-.7a355.119,355.119,0,0,1-37.439-20.2,119.179,119.179,0,0,0,6.754-15.774q.31-.859.612-1.762a124.479,124.479,0,0,0,6.3-29.451c.042-.541.081-1.082.112-1.621a89.03,89.03,0,0,0-.146-13.954,65.852,65.852,0,0,0-1.4-8.487c-.118-.531-.243-1.064-.376-1.605q-.514-2.122-1.158-4.332c-3.072-10.615-8.15-22.737-14.017-35.028-.243-.5-.486-1.009-.729-1.516-4.706-9.747-9.875-19.563-14.9-28.763-.269-.486-.533-.973-.792-1.454-3.836-6.978-7.564-13.58-10.924-19.5-.358-.62-.709-1.237-1.054-1.841-.774-1.362-1.524-2.69-2.254-3.972-.766-1.349-1.516-2.646-2.241-3.888-.288-.492-.573-.978-.85-1.449-3.846-6.552-6.832-11.415-7.266-14.111-.35-2.225-.664-4.526-.808-6.866-.039-.567-.065-1.14-.081-1.707a35.586,35.586,0,0,1,.133-4.217c.065-.714.157-1.422.282-2.136a24.716,24.716,0,0,1,1.106-4.262,19.55,19.55,0,0,1,.881-2.128c2.128-4.544,5.943-8.908,12.453-12.793.463-.28.949-.554,1.446-.831.659-.366,1.352-.729,2.066-1.085.74-.374,1.511-.735,2.311-1.1,1.82-.813,3.786-1.608,5.919-2.358a105.377,105.377,0,0,0,18.535-8.419c.648-.371,1.26-.75,1.849-1.127a54.439,54.439,0,0,0,5.742-4.139c.439-.356.85-.714,1.237-1.059,4.594-4.1,5.663-6.942,5.663-6.942l31.381,3.658,2.042.238,17.86,2.079a85.853,85.853,0,0,0,15.369,7.347q1.275.439,2.562.811c1.075.309,2.149.583,3.219.8.638.133,1.271.248,1.9.335.729.112,1.454.193,2.167.238,7.475.476,13.855.512,18.227,4.306a12.561,12.561,0,0,1,1.556,1.618,18.634,18.634,0,0,1,3.313,7.083c.172.654.311,1.307.431,1.971.037.2.071.39.1.583.06.343.107.688.157,1.028.05.374.092.745.131,1.119.567,5.6-.146,11.421-.465,16.6a43.924,43.924,0,0,0-.01,6.866c.055.557.123,1.1.222,1.621a10.8,10.8,0,0,0,1.89,4.667c2.782,3.689,7.88,8.192,11.97,14.252.167.248.335.5.5.756.277.426.541.858.8,1.3.11.173.212.345.319.528a33.09,33.09,0,0,1,4.23,12.171c.037.277.071.552.1.834.044.382.076.766.1,1.161.013.157.024.314.024.476a29.422,29.422,0,0,1,.016,3.224,46.1,46.1,0,0,1-1.747,10.325c-.172.675-.376,1.339-.578,2.018-.659,2.128-1.415,4.246-2.225,6.364-.308.805-.62,1.616-.939,2.421-.967,2.411-1.979,4.813-2.968,7.206q-.322.78-.638,1.556c-.254.612-.5,1.221-.745,1.833v.005q-.518,1.278-1,2.56v.005c-1.009,2.654-1.917,5.295-2.641,7.93-.191.682-.358,1.362-.52,2.047a42.9,42.9,0,0,0-.858,4.787c-.654,5.436-.157,12.814,1.048,21l.193,1.281c.016.112.039.228.055.34.594,3.765,1.323,7.692,2.154,11.669.183.9.379,1.788.573,2.69v.005c1.271,5.786,2.722,11.625,4.241,17.2.173.62.34,1.232.507,1.841,1.388,5.01,2.826,9.773,4.2,14.051q1.369,4.255,2.6,8.294v.021c.594,1.945,1.166,3.825,1.718,5.689q.063.212.118.416v.026c.131.418.254.816.369,1.226C405.878,388.812,406.8,410.9,406.8,410.9Z" transform="translate(-210.659 -113.357)" fill="#fff"/>
                    </g>
                  </g>
                </g>
              </g>
            </g>
          </g>
        </g>
        <g id="Grupo_132827" data-name="Grupo 132827" transform="translate(0.012 3.658)">
          <g id="Grupo_132803" data-name="Grupo 132803" transform="translate(8.155 52.313)">
            <g id="Grupo_132802" data-name="Grupo 132802">
              <path id="Trazado_126245" data-name="Trazado 126245" d="M365.41,137.093q-4.643-.274-9.287-.442c-.039,0-.076-.005-.115-.005-.539-.018-1.075-.039-1.613-.05q-14.605-.478-29.216.071-.859.031-1.718.065h-.005q-15.5.639-30.923,2.4c-.567.06-1.14.125-1.713.193h-.005q-18.378,2.173-36.513,5.938c-.811.167-1.621.34-2.432.512-.562.12-1.119.238-1.676.363q-17.978,3.914-35.561,9.379c-.288-.492-.573-.978-.85-1.449q17.547-5.463,35.509-9.389c.562-.131,1.119-.248,1.681-.369q19.382-4.165,39.1-6.513h.005c.573-.076,1.14-.141,1.713-.207q9.852-1.141,19.756-1.825,5.64-.388,11.285-.622c.578-.031,1.15-.052,1.723-.071q14.637-.565,29.281-.107c.539.016,1.08.031,1.626.055q4.867.161,9.729.447C365.242,136.029,365.31,136.57,365.41,137.093Z" transform="translate(-213.783 -134.764)" fill="#e2cec3"/>
            </g>
          </g>
          <g id="Grupo_132805" data-name="Grupo 132805" transform="translate(25.477 84.355)">
            <g id="Grupo_132804" data-name="Grupo 132804">
              <path id="Trazado_126246" data-name="Trazado 126246" d="M374.641,153.454q-9.311-1.734-18.726-2.847c-.081-.011-.167-.021-.248-.026-.523-.065-1.054-.126-1.577-.186q-14.229-1.581-28.562-1.749c-.562-.01-1.129-.016-1.692-.021q-14.6-.09-29.171,1.258c-.552.05-1.1.1-1.652.157a294.777,294.777,0,0,0-35.935,5.8c-.536.118-1.064.243-1.6.361A292.527,292.527,0,0,0,221.2,166.391c-.269-.486-.533-.973-.792-1.454q4.593-1.7,9.248-3.224,12.4-4.083,25.113-7.033c.536-.126,1.067-.243,1.6-.363a294.56,294.56,0,0,1,36.061-5.849c.549-.055,1.1-.11,1.652-.157q14.586-1.369,29.257-1.286c.567,0,1.13.005,1.7.016,9.551.11,19.1.675,28.6,1.718.526.055,1.048.115,1.574.178q9.7,1.11,19.306,2.881c.044.382.076.766.1,1.161C374.631,153.135,374.641,153.292,374.641,153.454Z" transform="translate(-220.408 -147.019)" fill="#e2cec3"/>
            </g>
          </g>
          <g id="Grupo_132807" data-name="Grupo 132807" transform="translate(41.17 120.481)">
            <g id="Grupo_132806" data-name="Grupo 132806">
              <path id="Trazado_126247" data-name="Trazado 126247" d="M356.51,162.7q-.322.78-.638,1.556c-.387-.042-.771-.081-1.161-.118-.518-.055-1.035-.1-1.556-.146q-13.817-1.286-27.7-1.519h-.039c-.549-.01-1.106-.016-1.658-.021q-13.848-.161-27.676.74c-.546.034-1.1.071-1.642.11q-17.072,1.188-33.979,3.969c-.546.091-1.09.178-1.637.277q-15.982,2.7-31.684,6.811c-.243-.5-.486-1.009-.729-1.516.052-.018.112-.029.167-.044q15.711-4.118,31.744-6.824.816-.145,1.637-.274,16.927-2.789,34.066-3.977l1.642-.112q13.841-.9,27.725-.756c.549.005,1.106.01,1.658.021h.005q13.9.2,27.752,1.464c.518.047,1.038.1,1.556.152C355.08,162.556,355.794,162.627,356.51,162.7Z" transform="translate(-226.41 -160.836)" fill="#e2cec3"/>
            </g>
          </g>
          <g id="Grupo_132809" data-name="Grupo 132809" transform="translate(57.074 162.189)">
            <g id="Grupo_132808" data-name="Grupo 132808">
              <path id="Trazado_126248" data-name="Trazado 126248" d="M341.525,179.954c.016.112.039.228.055.34-1.394-.173-2.8-.329-4.194-.476q-6.855-.71-13.742-1.075-.82-.039-1.647-.081a268.639,268.639,0,0,0-26.876.115c-.546.031-1.088.058-1.631.1a268.668,268.668,0,0,0-33.036,4.05c-.533.094-1.064.2-1.592.3a267.236,267.236,0,0,0-25.992,6.348c-.118-.531-.243-1.064-.376-1.605a266.936,266.936,0,0,1,26.1-6.359c.531-.1,1.064-.2,1.595-.3a269.169,269.169,0,0,1,33.023-4.027c.547-.037,1.088-.068,1.626-.1q13.437-.737,26.9-.123c.549.026,1.1.052,1.647.081q8.993.459,17.947,1.527Z" transform="translate(-232.493 -176.788)" fill="#e2cec3"/>
            </g>
          </g>
          <g id="Grupo_132811" data-name="Grupo 132811" transform="translate(58.889 192.865)">
            <g id="Grupo_132810" data-name="Grupo 132810">
              <path id="Trazado_126249" data-name="Trazado 126249" d="M347.427,192.917c.173.62.34,1.232.507,1.841q-10.37-1.522-20.9-2.609-.816-.086-1.637-.167-13.452-1.326-27.022-1.788l-1.637-.047a334.264,334.264,0,0,0-34.346.771c-.531.044-1.059.081-1.59.131a272.74,272.74,0,0,0-27.621,3.642c.042-.541.081-1.082.112-1.621,6.824-1.226,13.69-2.162,20.587-2.853q3.4-.341,6.819-.612l1.587-.123q17.068-1.275,34.262-.871c.546.005,1.09.016,1.637.034q13.507.337,27,1.613c.549.05,1.1.1,1.642.157Q337.16,191.419,347.427,192.917Z" transform="translate(-233.187 -188.52)" fill="#e2cec3"/>
            </g>
          </g>
          <g id="Grupo_132813" data-name="Grupo 132813" transform="translate(51.973 223.347)">
            <g id="Grupo_132812" data-name="Grupo 132812">
              <path id="Trazado_126250" data-name="Trazado 126250" d="M361.218,205.657l-.33-.031c-.541-.05-1.088-.1-1.626-.152-8.213-.745-16.43-1.435-24.656-2.021-.546-.037-1.088-.073-1.631-.112-9.088-.628-18.179-1.106-27.276-1.357-.547-.021-1.088-.031-1.632-.042-9.394-.233-18.789-.217-28.191.152q-4.365.169-8.728.447c-.536.034-1.067.065-1.6.1a289.687,289.687,0,0,0-35.007,4.434q.31-.859.612-1.762A293.12,293.12,0,0,1,265.6,201.03c.536-.039,1.072-.076,1.6-.11,12.221-.766,24.488-.889,36.741-.594.541.01,1.085.029,1.626.044,6.6.183,13.2.486,19.777.873q3.745.22,7.478.481c.544.034,1.085.071,1.632.11,8.265.578,16.514,1.268,24.763,2.013.507.05,1.009.092,1.519.141a.678.678,0,0,1,.107.01c.005.136.01.269.01.405v.026C360.98,204.85,361.1,205.247,361.218,205.657Z" transform="translate(-230.542 -200.178)" fill="#e2cec3"/>
            </g>
          </g>
          <g id="Grupo_132815" data-name="Grupo 132815" transform="translate(0 25.771)">
            <g id="Grupo_132814" data-name="Grupo 132814">
              <path id="Trazado_126251" data-name="Trazado 126251" d="M370.568,127.278q-4.636-.357-9.287-.588-5.032-.251-10.069-.379l-1.713-.031q-15.354-.31-30.7.638-.883.047-1.767.112-16.488,1.078-32.834,3.587c-.588.086-1.177.178-1.76.269a382.158,382.158,0,0,0-40.754,8.735c-.562.152-1.124.3-1.686.46H240q-14.813,4.106-29.252,9.4c-.039-.567-.065-1.14-.081-1.707q9.64-3.542,19.474-6.542,4.385-1.337,8.8-2.56h.005c.567-.167,1.129-.319,1.692-.476a382.265,382.265,0,0,1,40.906-8.822c.583-.092,1.171-.186,1.76-.269q16.4-2.537,32.976-3.642c.594-.044,1.184-.081,1.773-.115q15.378-.953,30.808-.68c.573.01,1.145.021,1.723.039q9.879.216,19.735.954c.037.2.071.39.1.583C370.472,126.593,370.519,126.938,370.568,127.278Z" transform="translate(-210.664 -124.613)" fill="#e2cec3"/>
            </g>
          </g>
          <g id="Grupo_132817" data-name="Grupo 132817" transform="translate(14.856 22.569)">
            <g id="Grupo_132816" data-name="Grupo 132816">
              <path id="Trazado_126252" data-name="Trazado 126252" d="M290.117,324.907c-.01.541-.031,1.082-.047,1.621a293.162,293.162,0,0,1-4.408,41.209c-.5-.233-1.007-.465-1.514-.7a291.709,291.709,0,0,0,4.322-40.406c.016-.541.037-1.077.047-1.616q.384-12-.23-24.007c-.081-1.6-.18-3.2-.288-4.8q-.047-.722-.1-1.443-.926-12.731-2.965-25.325c-.086-.541-.175-1.075-.267-1.616a290.155,290.155,0,0,0-9.593-39.813c-.162-.526-.329-1.048-.5-1.574a286.142,286.142,0,0,0-12.534-32.084c-.233-.507-.471-1.014-.709-1.522q-2.145-4.589-4.461-9.1-5.04-9.82-10.811-19.225c-.3-.486-.594-.973-.9-1.459q-6.7-10.809-14.325-20.993h-.005c-.345-.471-.7-.941-1.059-1.4h-.005q-6.393-8.46-13.413-16.435c.463-.28.949-.554,1.446-.831q7.142,8.138,13.664,16.791c.243.319.479.638.716.957.115.154.233.306.343.463q7.624,10.228,14.32,21.084c.3.486.6.973.9,1.464a291.8,291.8,0,0,1,15.2,28.324c.238.51.476,1.017.709,1.524a289.36,289.36,0,0,1,12.571,32.17l.5,1.571q2.934,9.24,5.229,18.666,2.553,10.483,4.322,21.129c.091.533.178,1.075.264,1.613q2.043,12.684,2.96,25.5c.039.476.076.954.1,1.435Q290.562,310.474,290.117,324.907Z" transform="translate(-216.346 -123.388)" fill="#e2cec3"/>
            </g>
          </g>
          <g id="Grupo_132819" data-name="Grupo 132819" transform="translate(52.724 3.284)">
            <g id="Grupo_132818" data-name="Grupo 132818">
              <path id="Trazado_126253" data-name="Trazado 126253" d="M308.561,396.743c-.544-.152-1.09-.306-1.642-.468-.756-19.5-1.728-38.989-3.315-58.437-.039-.541-.081-1.075-.131-1.616q-.47-5.73-1.02-11.457-.843-8.777-1.9-17.547c-.057-.507-.118-1.022-.188-1.535Q298.6,291.3,296.176,277c-.092-.531-.178-1.059-.277-1.59-2.327-13.363-5.148-26.632-8.594-39.737-.136-.526-.274-1.048-.416-1.579-3.064-11.473-6.6-22.818-10.7-34-.194-.523-.39-1.048-.583-1.571l-.358-.957c-3.564-9.486-7.541-18.833-11.949-27.969h-.005c-.243-.512-.486-1.02-.74-1.527h-.005q-5.82-11.93-12.663-23.307-.447-.753-.907-1.506a271.742,271.742,0,0,0-18.148-26.2c.439-.356.85-.714,1.237-1.059A270.089,270.089,0,0,1,250.737,143q.463.753.907,1.506,1.306,2.173,2.573,4.377,5.365,9.326,10.048,18.993c.254.512.5,1.028.745,1.54q6.8,14.189,12.247,28.962l.583,1.571q6.126,16.758,10.691,34.04c.141.528.282,1.054.416,1.582q3.745,14.233,6.542,28.664,1.079,5.538,2.037,11.086c.1.531.191,1.059.282,1.59q2.447,14.358,4.191,28.81c.065.518.125,1.03.188,1.548q1.733,14.468,2.913,29c.05.533.092,1.075.136,1.613C306.823,357.469,307.8,377.118,308.561,396.743Z" transform="translate(-230.829 -116.012)" fill="#e2cec3"/>
            </g>
          </g>
          <g id="Grupo_132821" data-name="Grupo 132821" transform="translate(90.524 0.69)">
            <g id="Grupo_132820" data-name="Grupo 132820">
              <path id="Trazado_126254" data-name="Trazado 126254" d="M246.07,116.641a.811.811,0,0,0,0-1.621.811.811,0,0,0,0,1.621Z" transform="translate(-245.286 -115.02)" fill="#e2cec3"/>
            </g>
          </g>
          <g id="Grupo_132823" data-name="Grupo 132823" transform="translate(91.004)">
            <g id="Grupo_132822" data-name="Grupo 132822">
              <path id="Trazado_126255" data-name="Trazado 126255" d="M315.068,393.963c.086,1.043-1.535,1.033-1.621,0-1.409-17.573-2.847-35.151-4.576-52.7-.05-.541-.1-1.075-.157-1.616q-.761-7.687-1.611-15.363-.729-6.6-1.535-13.2c-.071-.573-.139-1.145-.214-1.723q-1.9-15.3-4.311-30.539c-.081-.533-.167-1.069-.259-1.6-2.194-13.533-4.756-27.006-7.8-40.367-.118-.533-.243-1.064-.366-1.6q-3.51-15.178-7.914-30.144c-.439-1.472-.876-2.934-1.331-4.4-.162-.536-.329-1.064-.5-1.6q-4.73-15.225-10.576-30.079h-.005c-.207-.531-.41-1.059-.627-1.584q-4.985-12.444-10.827-24.509c-.254-.523-.507-1.043-.766-1.561q-6.248-12.715-13.549-24.883c-.2-.345-.416-.7-.633-1.043-.133-.233-.28-.468-.421-.7l2.042.238q7.765,12.8,14.333,26.274c.259.52.512,1.038.761,1.564q3.695,7.632,7.028,15.439,1.937,4.538,3.755,9.112c.217.531.426,1.059.627,1.59q5.859,14.876,10.555,30.159c.167.536.329,1.069.492,1.605q5.228,17.088,9.211,34.542h.005c.118.533.243,1.069.361,1.6h.008q3.679,16.186,6.471,32.544.678,3.938,1.313,7.883c.091.533.173,1.064.259,1.6q2.432,15.268,4.306,30.615.114.867.209,1.733,1.745,14.24,3.14,28.51c.052.539.1,1.08.157,1.618C312.226,358.893,313.662,376.434,315.068,393.963Z" transform="translate(-245.47 -114.756)" fill="#e2cec3"/>
            </g>
          </g>
          <g id="Grupo_132826" data-name="Grupo 132826" transform="translate(132.056 11.274)">
            <g id="Grupo_132824" data-name="Grupo 132824">
              <path id="Trazado_126256" data-name="Trazado 126256" d="M299,233.53v.005q-.518,1.278-1,2.56-.471-2.333-.968-4.662c-.112-.552-.233-1.1-.35-1.652q-3.695-17.237-8.406-34.257-.22-.816-.455-1.637-4.51-16.115-9.938-31.948c-.186-.541-.374-1.08-.562-1.626q-4.385-12.656-9.368-25.082c-.212-.536-.426-1.069-.649-1.605q-2.957-7.326-6.131-14.558c.638.133,1.271.248,1.9.335q3.087,7.083,5.959,14.263c.217.533.426,1.069.638,1.6q4.546,11.444,8.579,23.074c.233.675.471,1.354.7,2.032q.275.808.549,1.621,5.4,15.9,9.9,32.076c.157.546.306,1.1.458,1.645q4.687,16.982,8.385,34.223c.118.552.238,1.1.35,1.647C298.727,232.228,298.868,232.882,299,233.53Z" transform="translate(-261.171 -119.068)" fill="#e2cec3"/>
            </g>
            <g id="Grupo_132825" data-name="Grupo 132825" transform="translate(48.389 210.194)">
              <path id="Trazado_126257" data-name="Trazado 126257" d="M281.7,214.253a.81.81,0,0,1-1.618,0q-.051-3.812-.157-7.619c-.01-.539-.029-1.085-.05-1.626-.055-1.846-.118-3.7-.2-5.548.594,1.945,1.166,3.825,1.718,5.689a.681.681,0,0,1,.107.01c.005.136.011.269.011.405v.026c.016.395.026.795.039,1.195Q281.655,210.512,281.7,214.253Z" transform="translate(-279.678 -199.46)" fill="#e2cec3"/>
            </g>
          </g>
        </g>
        <g id="Grupo_132829" data-name="Grupo 132829" transform="translate(20.238 74.216)">
          <g id="Grupo_132828" data-name="Grupo 132828">
            <path id="Trazado_126258" data-name="Trazado 126258" d="M218.62,143.457c29.731,38.471,53.317,84.713,50.135,134.626a125.048,125.048,0,0,1-9.386,40.537c-.486,1.153,1.4,1.655,1.875.518,19.816-47.136,7.046-100.09-17.8-142.656A321.991,321.991,0,0,0,220,142.082c-.763-.988-2.131.4-1.375,1.375Z" transform="translate(-218.4 -141.742)" fill="#110e0a"/>
          </g>
        </g>
      </g>
      <g id="Grupo_132872" data-name="Grupo 132872" transform="translate(254.981 426.783)">
        <g id="Grupo_132844" data-name="Grupo 132844" transform="translate(8.879 4.908)">
          <path id="Trazado_126263" data-name="Trazado 126263" d="M217.467,301.686s7.891-60.756,36.291-100.537c0,0,73.5,32.173,131.87,14.71,0,0,20.219,64.027,15.06,158.019C400.689,373.878,239.527,405.988,217.467,301.686Z" transform="translate(-217.467 -201.149)" fill="#009580"/>
        </g>
        <g id="Grupo_132869" data-name="Grupo 132869" transform="translate(36.239)">
          <path id="Trazado_126273" data-name="Trazado 126273" d="M237.681,199.272s-10.751,8.291-9.674,25.045c-.873,1.571,59,35.9,146.374,12.4,0,0,1.943-13.593-8.239-28.355C366.142,208.36,289.168,228.176,237.681,199.272Z" transform="translate(-227.931 -199.272)" fill="#005f53"/>
        </g>
        <g id="Grupo_132871" data-name="Grupo 132871" transform="translate(31.739 58.236)">
          <g id="Grupo_132870" data-name="Grupo 132870">
            <path id="Trazado_126274" data-name="Trazado 126274" d="M254.751,222.206a104.338,104.338,0,0,1-28.23,41.473c-.933.837.444,2.209,1.375,1.375a106.423,106.423,0,0,0,28.732-42.331c.434-1.177-1.446-1.684-1.877-.518Z" transform="translate(-226.21 -221.545)" fill="#110e0a"/>
          </g>
        </g>
      </g>
      <g id="Grupo_132987" data-name="Grupo 132987" transform="translate(292.184 73.783)">
        <g id="Grupo_132986" data-name="Grupo 132986">
          <g id="Grupo_132985" data-name="Grupo 132985">
            <g id="Grupo_132984" data-name="Grupo 132984">
              <g id="Grupo_132879" data-name="Grupo 132879" transform="translate(84.263 57.486)">
                <g id="Grupo_132878" data-name="Grupo 132878">
                  <g id="Grupo_132877" data-name="Grupo 132877">
                    <g id="Grupo_132876" data-name="Grupo 132876">
                      <g id="Grupo_132875" data-name="Grupo 132875">
                        <g id="Grupo_132874" data-name="Grupo 132874">
                          <path id="Trazado_126276" data-name="Trazado 126276" d="M266.223,86.248s5.561.51,6.6,7.616-2.581,18.938-9.758,17.453S266.223,86.248,266.223,86.248Z" transform="translate(-260.528 -86.248)" fill="#722324"/>
                        </g>
                      </g>
                    </g>
                  </g>
                </g>
              </g>
              <g id="Grupo_132892" data-name="Grupo 132892" transform="translate(7.03 83.601)">
                <g id="Grupo_132884" data-name="Grupo 132884" transform="translate(63.035 28.938)">
                  <g id="Grupo_132883" data-name="Grupo 132883">
                    <g id="Grupo_132882" data-name="Grupo 132882">
                      <g id="Grupo_132881" data-name="Grupo 132881">
                        <g id="Grupo_132880" data-name="Grupo 132880">
                          <line id="Línea_181" data-name="Línea 181" x1="0.001" y2="0.006" fill="#c9614d"/>
                        </g>
                      </g>
                    </g>
                  </g>
                </g>
                <g id="Grupo_132889" data-name="Grupo 132889" transform="translate(4.106)">
                  <g id="Grupo_132888" data-name="Grupo 132888">
                    <g id="Grupo_132887" data-name="Grupo 132887">
                      <g id="Grupo_132886" data-name="Grupo 132886">
                        <g id="Grupo_132885" data-name="Grupo 132885">
                          <path id="Trazado_126277" data-name="Trazado 126277" d="M232.559,144.588a57.856,57.856,0,0,0,30.384,21.448c26.07,7.486,29.462-7.412,29.462-7.412a50.048,50.048,0,0,1-2.042-10.953c-.11-1.443-.173-2.926-.183-4.458a121.057,121.057,0,0,1,.844-14.03c.133-1.237.282-2.52.447-3.843l.016-.157C273.224,120.751,258.3,112.556,248.134,99l-2.735-1.65-1.841-1.119-.348,1.064.332,3.4C245.146,116.69,241.47,129.907,232.559,144.588Z" transform="translate(-232.559 -96.236)" fill="#c9614d"/>
                        </g>
                      </g>
                    </g>
                  </g>
                </g>
                <g id="Grupo_132891" data-name="Grupo 132891" transform="translate(0 44.236)">
                  <g id="Grupo_132890" data-name="Grupo 132890">
                    <path id="Trazado_126278" data-name="Trazado 126278" d="M231.081,114.643c7.635,17.29,15.9,35.859,32.1,46.825,6.931,4.688,16.483,8.749,24.862,5.849,7.018-2.429,11.3-9.481,12.814-16.428,2.351-10.762-1.676-21.581-5.444-31.511-.439-1.158-2.322-.656-1.875.518,3.2,8.445,6.615,17.348,6,26.546-.484,7.224-3.979,15.377-10.906,18.553-8.262,3.789-18.328-.886-25.16-5.684-6.876-4.824-12.427-11.355-16.948-18.381-5.527-8.581-9.656-17.957-13.769-27.268-.5-1.143-2.181-.154-1.679.98Z" transform="translate(-230.989 -113.155)" fill="#110e0a"/>
                  </g>
                </g>
              </g>
              <g id="Grupo_132898" data-name="Grupo 132898" transform="translate(39.306 100.497)">
                <g id="Grupo_132897" data-name="Grupo 132897">
                  <g id="Grupo_132896" data-name="Grupo 132896">
                    <g id="Grupo_132895" data-name="Grupo 132895">
                      <g id="Grupo_132894" data-name="Grupo 132894">
                        <g id="Grupo_132893" data-name="Grupo 132893">
                          <path id="Trazado_126279" data-name="Trazado 126279" d="M243.333,102.7c3.815,8.751,12.694,24.237,29.451,30.081a121.064,121.064,0,0,1,.844-14.03c.133-1.237.282-2.52.447-3.843-.361.039-.732.068-1.1.092C263.008,115.6,252.21,110.4,243.333,102.7Z" transform="translate(-243.333 -102.698)" fill="#181709"/>
                        </g>
                      </g>
                    </g>
                  </g>
                </g>
              </g>
              <g id="Grupo_132900" data-name="Grupo 132900" transform="translate(0 2.786)">
                <g id="Grupo_132899" data-name="Grupo 132899">
                  <path id="Trazado_126280" data-name="Trazado 126280" d="M228.342,119.674c-.68,9.907,6.874,22.616,19.808,23.864l.068.008h.005l.275.029c.17.583.374,1.161.588,1.749.089.254.186.512.285.766a.28.28,0,0,0,.031.071c6.916,17.385,30.22,28.936,43.167,30.175a29.552,29.552,0,0,0,8.822-.533c13.954-2.042,17.8-20.444,16.621-34.793a54.6,54.6,0,0,0-.821-5.925l-.078-.382s5.972-19.547,7.645-28.138C328,89.912,319.532,72.188,282.93,66.3s-47,16.373-50.423,28.321c-.575,1.992-1,14.059.886,16.137C229.778,112.3,228.57,116.343,228.342,119.674Z" transform="translate(-228.3 -65.327)" fill="#c9614d"/>
                </g>
              </g>
              <g id="Grupo_132912" data-name="Grupo 132912" transform="translate(75.893 58.89)">
                <g id="Grupo_132905" data-name="Grupo 132905" transform="translate(2.328 0.687)">
                  <g id="Grupo_132904" data-name="Grupo 132904">
                    <g id="Grupo_132903" data-name="Grupo 132903">
                      <g id="Grupo_132902" data-name="Grupo 132902">
                        <g id="Grupo_132901" data-name="Grupo 132901">
                          <path id="Trazado_126281" data-name="Trazado 126281" d="M262.877,91.8c-.371,2.424-1.694,4.236-2.952,4.042s-1.982-2.314-1.611-4.74,1.692-4.236,2.952-4.042S263.248,89.376,262.877,91.8Z" transform="translate(-258.217 -87.048)" fill="#181709"/>
                        </g>
                      </g>
                    </g>
                  </g>
                </g>
                <g id="Grupo_132911" data-name="Grupo 132911">
                  <g id="Grupo_132910" data-name="Grupo 132910">
                    <g id="Grupo_132909" data-name="Grupo 132909">
                      <g id="Grupo_132908" data-name="Grupo 132908">
                        <g id="Grupo_132907" data-name="Grupo 132907">
                          <g id="Grupo_132906" data-name="Grupo 132906">
                            <path id="Trazado_126282" data-name="Trazado 126282" d="M257.717,89.52a.657.657,0,0,1-.3-.267.649.649,0,0,1,.23-.889c.259-.152,6.387-3.681,11.3.332a.649.649,0,0,1-.824,1c-4.212-3.446-9.76-.248-9.815-.217A.652.652,0,0,1,257.717,89.52Z" transform="translate(-257.326 -86.785)" fill="#181709"/>
                          </g>
                        </g>
                      </g>
                    </g>
                  </g>
                </g>
              </g>
              <g id="Grupo_132923" data-name="Grupo 132923" transform="translate(53.527 55.978)">
                <g id="Grupo_132916" data-name="Grupo 132916" transform="translate(3.503 0.726)">
                  <g id="Grupo_132915" data-name="Grupo 132915">
                    <g id="Grupo_132914" data-name="Grupo 132914">
                      <g id="Grupo_132913" data-name="Grupo 132913">
                        <path id="Trazado_126283" data-name="Trazado 126283" d="M254.772,90.7c-.371,2.426-1.692,4.236-2.952,4.045s-1.982-2.317-1.611-4.743,1.694-4.233,2.952-4.042S255.143,88.279,254.772,90.7Z" transform="translate(-250.112 -85.949)" fill="#181709"/>
                      </g>
                    </g>
                  </g>
                </g>
                <g id="Grupo_132922" data-name="Grupo 132922">
                  <g id="Grupo_132921" data-name="Grupo 132921">
                    <g id="Grupo_132920" data-name="Grupo 132920">
                      <g id="Grupo_132919" data-name="Grupo 132919">
                        <g id="Grupo_132918" data-name="Grupo 132918">
                          <g id="Grupo_132917" data-name="Grupo 132917">
                            <path id="Trazado_126284" data-name="Trazado 126284" d="M249.24,89.19a.637.637,0,0,1-.332-.225.649.649,0,0,1,.115-.91c.238-.186,5.87-4.461,11.248-1.1a.649.649,0,0,1-.688,1.1c-4.62-2.887-9.713.986-9.763,1.028A.65.65,0,0,1,249.24,89.19Z" transform="translate(-248.772 -85.671)" fill="#181709"/>
                          </g>
                        </g>
                      </g>
                    </g>
                  </g>
                </g>
              </g>
              <g id="Grupo_132934" data-name="Grupo 132934" transform="translate(64.517 94.576)">
                <g id="Grupo_132933" data-name="Grupo 132933">
                  <g id="Grupo_132932" data-name="Grupo 132932">
                    <g id="Grupo_132931" data-name="Grupo 132931">
                      <g id="Grupo_132930" data-name="Grupo 132930">
                        <g id="Grupo_132929" data-name="Grupo 132929">
                          <path id="Trazado_126286" data-name="Trazado 126286" d="M256,103.753a5.2,5.2,0,0,1-2.873-1.953.879.879,0,0,1,1.459-.98,3.558,3.558,0,0,0,3.789,1.224.878.878,0,0,1,.4,1.71A5.706,5.706,0,0,1,256,103.753Z" transform="translate(-252.976 -100.434)" fill="#722324"/>
                        </g>
                      </g>
                    </g>
                  </g>
                </g>
              </g>
              <g id="Grupo_132938" data-name="Grupo 132938" transform="translate(0.276)">
                <g id="Grupo_132937" data-name="Grupo 132937">
                  <g id="Grupo_132936" data-name="Grupo 132936">
                    <g id="Grupo_132935" data-name="Grupo 132935">
                      <path id="Trazado_126287" data-name="Trazado 126287" d="M233.226,112.484a21.512,21.512,0,0,1,2.957.552c6.155,1.605,9.779,5.655,12.563,9.632.52-3.368,4.126-18.812,26.677-21.348.324-.037.669-.071,1.033-.1a19.235,19.235,0,0,0,2.484-9.677c-2.249-9.167,41.894-4.513,43.374,9.559.622,5.9.952,9.737,1.13,12.229v.005a23.873,23.873,0,0,1,.154,4.578s3.9,4.055,4.225-15.322c.1-6.3-2.3-12.14-6.547-17.288-8.809-10.707-25.534-18.386-44.027-20.752-27.385-3.506-47.34,25.268-48.653,35.765S233.226,112.484,233.226,112.484Z" transform="translate(-228.405 -64.261)" fill="#181709"/>
                    </g>
                  </g>
                </g>
              </g>
              <g id="Grupo_132944" data-name="Grupo 132944" transform="translate(82.373 72.544)" opacity="0.5">
                <g id="Grupo_132943" data-name="Grupo 132943">
                  <g id="Grupo_132942" data-name="Grupo 132942">
                    <g id="Grupo_132941" data-name="Grupo 132941">
                      <g id="Grupo_132940" data-name="Grupo 132940">
                        <g id="Grupo_132939" data-name="Grupo 132939">
                          <path id="Trazado_126288" data-name="Trazado 126288" d="M259.806,94.572c-.073,1.472,3.08,2.863,7.339,3.36a54.61,54.61,0,0,0-.821-5.925C262.6,92.224,259.869,93.228,259.806,94.572Z" transform="translate(-259.805 -92.007)" fill="#722324"/>
                        </g>
                      </g>
                    </g>
                  </g>
                </g>
              </g>
              <g id="Grupo_132946" data-name="Grupo 132946" transform="translate(70.381 61.657)">
                <g id="Grupo_132945" data-name="Grupo 132945">
                  <path id="Trazado_126289" data-name="Trazado 126289" d="M258.224,105.353a1.148,1.148,0,0,0,.62-.11l5.253-2.609a1.125,1.125,0,0,0,.136-1.932c-3.817-2.622-5.969-6.4-6.777-11.9a1.125,1.125,0,1,0-2.225.329c.8,5.42,2.795,9.373,6.244,12.291l-3.632,1.8a1.126,1.126,0,0,0,.382,2.126Z" transform="translate(-255.218 -87.843)" fill="#722324"/>
                </g>
              </g>
              <g id="Grupo_132951" data-name="Grupo 132951" transform="translate(45.892 43.674)">
                <g id="Grupo_132950" data-name="Grupo 132950">
                  <g id="Grupo_132949" data-name="Grupo 132949">
                    <g id="Grupo_132948" data-name="Grupo 132948">
                      <g id="Grupo_132947" data-name="Grupo 132947">
                        <path id="Trazado_126290" data-name="Trazado 126290" d="M263.684,88.887a2.732,2.732,0,0,0,4.034-3.535,7.933,7.933,0,0,0-4.419-3.373,19.83,19.83,0,0,0-17.447,2.586s10.521.35,15.235,2.7A15.5,15.5,0,0,1,263.684,88.887Z" transform="translate(-245.852 -80.965)" fill="#181709"/>
                      </g>
                    </g>
                  </g>
                </g>
              </g>
              <g id="Grupo_132956" data-name="Grupo 132956" transform="translate(76.622 46.912)">
                <g id="Grupo_132955" data-name="Grupo 132955">
                  <g id="Grupo_132954" data-name="Grupo 132954">
                    <g id="Grupo_132953" data-name="Grupo 132953">
                      <g id="Grupo_132952" data-name="Grupo 132952">
                        <path id="Trazado_126291" data-name="Trazado 126291" d="M261.438,88.832a2.732,2.732,0,0,1-3-4.45,7.92,7.92,0,0,1,5.138-2.126c10.281-.714,12.866,6.042,12.866,6.042s-6.926-1.43-12.082-.371A15.45,15.45,0,0,0,261.438,88.832Z" transform="translate(-257.605 -82.204)" fill="#181709"/>
                      </g>
                    </g>
                  </g>
                </g>
              </g>
              <g id="Grupo_132962" data-name="Grupo 132962" transform="translate(40.774 70.172)" opacity="0.5">
                <g id="Grupo_132961" data-name="Grupo 132961">
                  <g id="Grupo_132960" data-name="Grupo 132960">
                    <g id="Grupo_132959" data-name="Grupo 132959">
                      <g id="Grupo_132958" data-name="Grupo 132958">
                        <g id="Grupo_132957" data-name="Grupo 132957">
                          <path id="Trazado_126292" data-name="Trazado 126292" d="M262.593,94.656c-.086,1.679-4.34,2.829-9.5,2.568s-9.279-1.835-9.2-3.517,4.34-2.832,9.5-2.57S262.679,92.975,262.593,94.656Z" transform="translate(-243.895 -91.1)" fill="#722324"/>
                        </g>
                      </g>
                    </g>
                  </g>
                </g>
              </g>
              <g id="Grupo_132969" data-name="Grupo 132969" transform="translate(19.853 77.191)">
                <g id="Grupo_132968" data-name="Grupo 132968">
                  <g id="Grupo_132967" data-name="Grupo 132967">
                    <g id="Grupo_132966" data-name="Grupo 132966">
                      <g id="Grupo_132965" data-name="Grupo 132965">
                        <g id="Grupo_132964" data-name="Grupo 132964">
                          <g id="Grupo_132963" data-name="Grupo 132963">
                            <path id="Trazado_126293" data-name="Trazado 126293" d="M235.893,97.59l.065.008h.008l.272.029c.17.583.374,1.161.588,1.749.092.254.188.512.285.766a.418.418,0,0,0,.031.071,11.93,11.93,0,0,0,5.14-1.637,9.509,9.509,0,0,0,2.839-2.68,1.342,1.342,0,0,0-2.2-1.537,7.214,7.214,0,0,1-3.381,2.573,9.812,9.812,0,0,1-2.385.57A11.519,11.519,0,0,1,235.893,97.59Z" transform="translate(-235.893 -93.785)" fill="#722324"/>
                          </g>
                        </g>
                      </g>
                    </g>
                  </g>
                </g>
              </g>
              <g id="Grupo_132976" data-name="Grupo 132976" transform="translate(7.678 55.345)">
                <g id="Grupo_132975" data-name="Grupo 132975">
                  <g id="Grupo_132974" data-name="Grupo 132974">
                    <g id="Grupo_132973" data-name="Grupo 132973">
                      <g id="Grupo_132972" data-name="Grupo 132972">
                        <g id="Grupo_132971" data-name="Grupo 132971">
                          <g id="Grupo_132970" data-name="Grupo 132970">
                            <path id="Trazado_126294" data-name="Trazado 126294" d="M245.166,103.433a1.336,1.336,0,0,1-1.022-1.143C243,92.847,232.156,88.046,232.046,88a1.34,1.34,0,0,1,1.061-2.46c.5.217,12.367,5.441,13.7,16.43a1.339,1.339,0,0,1-1.171,1.49A1.274,1.274,0,0,1,245.166,103.433Z" transform="translate(-231.236 -85.429)" fill="#722324"/>
                          </g>
                        </g>
                      </g>
                    </g>
                  </g>
                </g>
              </g>
              <g id="Grupo_132983" data-name="Grupo 132983" transform="translate(9.304 61.767)">
                <g id="Grupo_132982" data-name="Grupo 132982">
                  <g id="Grupo_132981" data-name="Grupo 132981">
                    <g id="Grupo_132980" data-name="Grupo 132980">
                      <g id="Grupo_132979" data-name="Grupo 132979">
                        <g id="Grupo_132978" data-name="Grupo 132978">
                          <g id="Grupo_132977" data-name="Grupo 132977">
                            <path id="Trazado_126295" data-name="Trazado 126295" d="M232.891,93.464a1.3,1.3,0,0,1-.468-.212,1.338,1.338,0,0,1-.316-1.867,9.193,9.193,0,0,1,8.348-3.438,1.34,1.34,0,1,1-.293,2.664,6.521,6.521,0,0,0-5.87,2.324A1.335,1.335,0,0,1,232.891,93.464Z" transform="translate(-231.858 -87.885)" fill="#722324"/>
                          </g>
                        </g>
                      </g>
                    </g>
                  </g>
                </g>
              </g>
              <path id="Trazado_126311" data-name="Trazado 126311" d="M55.716,68.034c-1.448,0-1.88-.328-2.261-1.03-.165-.3-.321-.59-1.174-.934a3.2,3.2,0,0,0-1.7-.378.648.648,0,0,1-1.254-.271,1.092,1.092,0,0,1,.53-.816c.6-.371,1.551-.285,2.913.265a3.1,3.1,0,0,1,1.827,1.517c.115.211.127.222.208.254a4.3,4.3,0,0,0,1.471.084c3.274-.16,5.895-.006,6,0a.647.647,0,0,1-.078,1.293c-.026,0-2.665-.156-5.863,0C56.111,68.028,55.9,68.034,55.716,68.034Z" transform="translate(15.362 23.062)" fill="#181709"/>
            </g>
          </g>
        </g>
      </g>
      <g id="Grupo_132989" data-name="Grupo 132989" transform="translate(303.179 113.939)">
        <g id="Grupo_132988" data-name="Grupo 132988">
          <path id="Trazado_126296" data-name="Trazado 126296" d="M232.505,139.165c7.3,5.394,14.759,8.241,22.818,1.169.85-11.648-1.8-24.928-5.71-32.591C243.186,95.148,254.4,79.62,254.4,79.62c-7.146,2.957-15.058,2.876-19.3,11.232C242.182,99.031,237.758,121.237,232.505,139.165Z" transform="translate(-232.505 -79.62)" fill="#181709"/>
        </g>
      </g>
      <g id="Grupo_132997" data-name="Grupo 132997" transform="translate(188.733 228.099)">
        <g id="Grupo_132992" data-name="Grupo 132992">
          <g id="Grupo_132991" data-name="Grupo 132991">
            <path id="Trazado_126298" data-name="Trazado 126298" d="M293.772,341.079c1.843-4.254.5-12.37,3.535-16.394-5.156-3.938-7.378-5.791-12.333-9.943q-10.209-8.554-19.787-17.709c-6.372-6.1-12.532-12.375-18.386-18.815q-4.393-4.832-8.513-9.768c-.17-.207-.348-.418-.52-.628.306-1.205.646-2.468,1.022-3.752,1.354-4.615,3.127-9.554,5.049-14.522,3.9-9.967,8.492-20.127,13.34-30.233s10.019-20.208,15.345-30.241q3.993-7.53,8.118-15l4.144-7.444,2.092-3.689,2.058-3.579.144-.261A23.912,23.912,0,0,0,247.6,135.293l-2.29,3.985-2.207,3.9-4.338,7.792q-4.306,7.8-8.49,15.677c-5.574,10.5-11,21.116-16.216,31.956-5.2,10.858-10.213,21.895-14.788,33.582-2.275,5.878-4.45,11.881-6.377,18.425-.96,3.281-1.862,6.693-2.622,10.438a73.262,73.262,0,0,0-1.535,13.005,23.275,23.275,0,0,0,5.527,15.675l.125.149c.246.28.337.361.494.528l.4.4.748.743,1.438,1.391q1.424,1.353,2.829,2.633c1.872,1.726,3.744,3.386,5.624,5.012q5.64,4.883,11.381,9.439c7.658,6.089,15.486,11.836,23.453,17.317q11.966,8.2,24.353,15.573,10.95,6.51,22.19,12.37C289.573,350.6,291.7,345.853,293.772,341.079Z" transform="translate(-188.733 -123.282)" fill="#c9614d"/>
          </g>
        </g>
        <g id="Grupo_132994" data-name="Grupo 132994" transform="translate(29.197 139.106)">
          <g id="Grupo_132993" data-name="Grupo 132993">
            <path id="Trazado_126299" data-name="Trazado 126299" d="M200.956,178.5a27.61,27.61,0,0,1,18.263,4.068c.983.617,1.992-.881,1.007-1.5a29.605,29.605,0,0,0-19.617-4.34c-1.153.144-.8,1.917.348,1.773Z" transform="translate(-199.9 -176.485)" fill="#722324"/>
          </g>
        </g>
        <g id="Grupo_132996" data-name="Grupo 132996" transform="translate(35.081 132.132)">
          <g id="Grupo_132995" data-name="Grupo 132995">
            <path id="Trazado_126300" data-name="Trazado 126300" d="M202.406,175.287q4.094,4.094,8.192,8.184c.816.818,2.178-.369,1.354-1.195l-8.192-8.184c-.816-.816-2.178.371-1.354,1.195Z" transform="translate(-202.15 -173.818)" fill="#722324"/>
          </g>
        </g>
      </g>
      <g id="Grupo_133022" data-name="Grupo 133022" transform="translate(418.191 419.118)">
        <g id="Grupo_133003" data-name="Grupo 133003">
          <g id="Grupo_133002" data-name="Grupo 133002">
            <g id="Grupo_133001" data-name="Grupo 133001">
              <g id="Grupo_133000" data-name="Grupo 133000">
                <g id="Grupo_132999" data-name="Grupo 132999">
                  <g id="Grupo_132998" data-name="Grupo 132998">
                    <path id="Trazado_126301" data-name="Trazado 126301" d="M282.554,196.345s10.628-.421,12.15,7.24S284,225.056,279.374,229.61s-3.172-10.66.735-16.211,3.253-9.692,3.253-9.692Z" transform="translate(-276.493 -196.34)" fill="#c9614d"/>
                  </g>
                </g>
              </g>
            </g>
          </g>
        </g>
        <g id="Grupo_133009" data-name="Grupo 133009" transform="translate(6.963 25.061)">
          <g id="Grupo_133008" data-name="Grupo 133008">
            <g id="Grupo_133007" data-name="Grupo 133007">
              <g id="Grupo_133006" data-name="Grupo 133006">
                <g id="Grupo_133005" data-name="Grupo 133005">
                  <g id="Grupo_133004" data-name="Grupo 133004">
                    <path id="Trazado_126302" data-name="Trazado 126302" d="M284.411,205.943s11.434-.709,12.958,6.955-10.709,21.471-15.329,26.026-3.174-10.662.735-16.213,2.735-9.018,2.735-9.018Z" transform="translate(-279.156 -205.925)" fill="#c9614d"/>
                  </g>
                </g>
              </g>
            </g>
          </g>
        </g>
        <g id="Grupo_133015" data-name="Grupo 133015" transform="translate(12.853 36.57)">
          <g id="Grupo_133014" data-name="Grupo 133014">
            <g id="Grupo_133013" data-name="Grupo 133013">
              <g id="Grupo_133012" data-name="Grupo 133012">
                <g id="Grupo_133011" data-name="Grupo 133011">
                  <g id="Grupo_133010" data-name="Grupo 133010">
                    <path id="Trazado_126303" data-name="Trazado 126303" d="M286.05,210.342s10.1-.627,11.447,6.142-9.46,18.966-13.541,22.99-2.8-9.418.648-14.32,2.416-7.967,2.416-7.967Z" transform="translate(-281.409 -210.327)" fill="#c9614d"/>
                  </g>
                </g>
              </g>
            </g>
          </g>
        </g>
        <g id="Grupo_133021" data-name="Grupo 133021" transform="translate(2.526 12.812)">
          <g id="Grupo_133020" data-name="Grupo 133020">
            <g id="Grupo_133019" data-name="Grupo 133019">
              <g id="Grupo_133018" data-name="Grupo 133018">
                <g id="Grupo_133017" data-name="Grupo 133017">
                  <g id="Grupo_133016" data-name="Grupo 133016">
                    <path id="Trazado_126304" data-name="Trazado 126304" d="M282.717,201.258s11.431-.709,12.955,6.952-10.707,21.471-15.329,26.026-3.174-10.662.735-16.211,2.735-9.018,2.735-9.018Z" transform="translate(-277.459 -201.24)" fill="#c9614d"/>
                  </g>
                </g>
              </g>
            </g>
          </g>
        </g>
      </g>
      <g id="Grupo_133047" data-name="Grupo 133047" transform="translate(271.753 427.954)">
        <g id="Grupo_133028" data-name="Grupo 133028" transform="translate(13.676)">
          <g id="Grupo_133027" data-name="Grupo 133027">
            <g id="Grupo_133026" data-name="Grupo 133026">
              <g id="Grupo_133025" data-name="Grupo 133025">
                <g id="Grupo_133024" data-name="Grupo 133024">
                  <g id="Grupo_133023" data-name="Grupo 133023">
                    <path id="Trazado_126305" data-name="Trazado 126305" d="M239.9,199.8s-11.729-1.234-13.9,6.272,8.843,22.3,13.06,27.234,4.068-10.351.646-16.216-2.413-9.933-2.413-9.933Z" transform="translate(-225.716 -199.72)" fill="#c9614d"/>
                  </g>
                </g>
              </g>
            </g>
          </g>
        </g>
        <g id="Grupo_133034" data-name="Grupo 133034" transform="translate(4.629 24.466)">
          <g id="Grupo_133033" data-name="Grupo 133033">
            <g id="Grupo_133032" data-name="Grupo 133032">
              <g id="Grupo_133031" data-name="Grupo 133031">
                <g id="Grupo_133030" data-name="Grupo 133030">
                  <g id="Grupo_133029" data-name="Grupo 133029">
                    <path id="Trazado_126306" data-name="Trazado 126306" d="M236.038,209.238s-11.332-1.679-13.5,5.825,8.843,22.305,13.06,27.236,4.068-10.354.646-16.216-1.958-9.219-1.958-9.219Z" transform="translate(-222.256 -209.078)" fill="#c9614d"/>
                  </g>
                </g>
              </g>
            </g>
          </g>
        </g>
        <g id="Grupo_133040" data-name="Grupo 133040" transform="translate(0 35.5)">
          <g id="Grupo_133039" data-name="Grupo 133039">
            <g id="Grupo_133038" data-name="Grupo 133038">
              <g id="Grupo_133037" data-name="Grupo 133037">
                <g id="Grupo_133036" data-name="Grupo 133036">
                  <g id="Grupo_133035" data-name="Grupo 133035">
                    <path id="Trazado_126307" data-name="Trazado 126307" d="M232.658,213.44s-10.009-1.485-11.925,5.146,7.81,19.7,11.536,24.057,3.6-9.143.573-14.323-1.731-8.142-1.731-8.142Z" transform="translate(-220.485 -213.298)" fill="#c9614d"/>
                  </g>
                </g>
              </g>
            </g>
          </g>
        </g>
        <g id="Grupo_133046" data-name="Grupo 133046" transform="translate(10.091 12.637)">
          <g id="Grupo_133045" data-name="Grupo 133045">
            <g id="Grupo_133044" data-name="Grupo 133044">
              <g id="Grupo_133043" data-name="Grupo 133043">
                <g id="Grupo_133042" data-name="Grupo 133042">
                  <g id="Grupo_133041" data-name="Grupo 133041">
                    <path id="Trazado_126308" data-name="Trazado 126308" d="M238.124,204.714s-11.329-1.681-13.5,5.825,8.843,22.3,13.06,27.236,4.068-10.354.648-16.216-1.961-9.219-1.961-9.219Z" transform="translate(-224.345 -204.553)" fill="#c9614d"/>
                  </g>
                </g>
              </g>
            </g>
          </g>
        </g>
      </g>
    </g>
  </g>
</svg>
