<svg xmlns="http://www.w3.org/2000/svg" xmlns:xlink="http://www.w3.org/1999/xlink" width="400" height="346" viewBox="0 0 400 346">
  <defs>
    <clipPath id="clip-path">
      <rect id="Rect치ngulo_35728" data-name="Rect치ngulo 35728" width="400" height="346" transform="translate(600.333 3750)" fill="#95c0d9"/>
    </clipPath>
  </defs>
  <g id="img2" transform="translate(-600.333 -3750)" clip-path="url(#clip-path)">
    <g id="Grupo_131447" data-name="Grupo 131447">
      <rect id="Rect치ngulo_35667" data-name="Rect치ngulo 35667" width="400" height="346" transform="translate(600.333 3750)" fill="#95c0d9"/>
      <path id="Trazado_124211" data-name="Trazado 124211" d="M496.41,53.945c-6.537-3.583-11.774-9.095-17.73-13.582-23.228-17.5-58.295-16.985-79.942,1.171-9.549,8.008-16.633,18.925-27.491,25.144-19,10.88-43.741,9.513-61.55,22.694-10.62,7.859-12.665,16.5-13.149,28.755a84.006,84.006,0,0,1-15.124,44.762c-9.742,13.838-23.867,24.987-29.663,40.915-3.56,9.788-3.619,20.573-2.589,31.047,3.137,31.942,22.157,62.587,54.546,73.028,14.567,4.7,30.311,4.958,44.517,10.7,8.618,3.481,16.337,8.849,24.547,13.223,33.217,17.7,75.011,17.831,107.312.346,9.519-5.153,18.337-11.754,28.711-15.05,9.441-3,19.653-3.087,29.327-5.332,15.638-3.63,27.763-12.733,37.708-24.7,10.251-12.337,11.609-29.174,18.461-43.648,4.465-9.43,11.456-17.431,16.425-26.6,12.091-22.324,14.488-54.911-1.046-77.236-11.354-16.319-32.358-24.479-42.87-41.323-2.659-4.263-4.544-8.942-7.122-13.252a49.592,49.592,0,0,0-25.772-21.047c-12.2-4.307-25.927-3.743-37.323-9.906Z" transform="translate(365.42 3734.838)" fill="#b3dcf5"/>
      <path id="Trazado_124212" data-name="Trazado 124212" d="M451.908,91.9c4.534-1.972,7.284-8.162,4.376-12.159-3.083-4.24-9.782-3.537-13.945-6.719-4.362-3.337-4.974-11.223-10.07-13.524-6.168-2.786-11.054,1.623-11.752,7.445C418.932,80.14,439.807,97.168,451.908,91.9Z" transform="translate(515.938 3729.958)" fill="#b3dcf5"/>
      <path id="Trazado_124213" data-name="Trazado 124213" d="M258.24,127.747a4.316,4.316,0,0,1-2.5-.058,3.675,3.675,0,0,1-1.666-1.77c-2.26-4.323-.575-9.7,2.068-13.8s6.214-7.637,8.168-12.105c1.649-3.775,2.049-8.02,3.848-11.724s5.84-6.934,9.78-5.729c8.837,2.7,6.071,21.085,3.552,27.488C277.949,119.065,267.444,126,258.24,127.747Z" transform="translate(367.699 3740.786)" fill="#b3dcf5"/>
      <g id="Grupo_131446" data-name="Grupo 131446" transform="translate(-52.778 2951.711)">
        <path id="Trazado_124112" data-name="Trazado 124112" d="M1039.038,914.585c-.631-5.719-1.187-13.1-7.523-15.211-3.8-1.267-8.271-.955-12.205-1.129-3.413-.152-7.458-.54-10.472,1.469-2.934,1.957-3.639,5.327-4.286,8.564q-.846,4.236-1.67,8.477a1.862,1.862,0,0,1-3.265.826c-1.988-2.417-4.926-11.077-7.111-14.755-2.108-3.548,1.18-16.384,1.328-18.864.827-13.9-17.2-32.592-39.5-47.23-7.866-5.161-19.251-10.932-28.864-10.637a12.088,12.088,0,0,0-8.4,3.457c-3.248,3.5-.048,10.291-.373,14.567a23.33,23.33,0,0,1-3.767,11.043c-2.187,3.308-5.843,5.785-6.909,9.77-.746,2.787.209,5.65.107,8.468a28.934,28.934,0,0,1-1.827,8.106c-1.9,5.627-4.623,11.471-2.691,17.484,2.91,9.061,12.678,10.43,18.774,16.532,12.469,12.477,14.107,33.507,9.7,50.566-2.042,7.9-5.209,15.129-1.739,23.119,1.993,4.587,4.7,8.459,5.029,13.629a22.091,22.091,0,0,1-3.6,13.328,1.49,1.49,0,0,0-.18.413c-.662.534-.907,1.553.239,2.5l2.813,4.814a1.723,1.723,0,0,0,.319.839l.576.979a1.5,1.5,0,0,0,2.721-1.165,24.028,24.028,0,0,0,11.661-14.615c1.073-3.884,1.072-8.007,2.247-11.861,1.779-5.838,6.089-9.3,11.881-10.851,10.022-2.678,21.165-.133,31.474-1.439,8.2-1.038,16.864-2.293,24.657-5.157,6.89-2.532,12.839-6.812,16.331-13.392,3.875-7.3,3.586-14.581,3.036-22.563-.348-5.056.77-9.9,1.393-14.884A64.963,64.963,0,0,0,1039.038,914.585Z" fill="#133d60"/>
        <path id="Trazado_124113" data-name="Trazado 124113" d="M894.922,823.936c-8.29-6.4-18.42-9.1-28.98-9.53-.64-.03-1.29-.05-1.94-.06-13.84-.21-28.28,3.3-40.15,7.34-1.63.55-3.25,1.13-4.88,1.74-.72.27-1.44.55-2.17.83q-3.885,1.515-7.71,3.22c-.48.21-.95.43-1.42.65a163.363,163.363,0,0,0-22.17,12.2q-1.83,1.17-3.61,2.44a131.01,131.01,0,0,0-30.72,29.37,89.066,89.066,0,0,0-5.59,8.54l-.91,1.61c-5.36,9.79-9,20.86-9.26,31.76-.17,7.14,2.74,12.44,6.9,17.07.2.22.41.45.62.67,3.91,4.17,8.78,7.82,13.2,11.83.57.52,1.14,1.05,1.7,1.59.63.61,1.27,1.24,1.87,1.88,4.83,5.08,7.23,11.77,9.82,18.24.12.32.25.64.38.96,2.94,7.24,6.27,14.07,13.71,17.84,10.73,5.46,23.39-.99,34.11,8.18,3.54,3.02.18,4.51-4.42,8.29-.64.51,9.38,10.05,10,10.18.12,1.26,2.01,2.05,2.76.66.52-.95,1.01-1.91,1.47-2.87.64.32,19.6-17.54,18.7-17.53-11.95.15,2.08-12.63-7.49-28.8-5.44-9.17-9.92-18.27-6.1-28.86q.165-.465.36-.93a.7.7,0,0,1,.05-.13c2.94-7.15,8.65-12.89,15.09-17.16,9.21-6.07,19.84-9.08,28.96-15.3a48.766,48.766,0,0,0,5.23-4.06,27.2,27.2,0,0,0,3.61-3.92,28.685,28.685,0,0,0,2.35-3.65,31.761,31.761,0,0,0,3.22-9.19,48.754,48.754,0,0,0,.94-9.16c-.03-3.8-.81-6.44-.17-9.38a8.843,8.843,0,0,1,.29-1.06,12.114,12.114,0,0,1,1.26-2.65C899.622,847.386,904.632,831.426,894.922,823.936Z" fill="#133d60"/>
        <path id="Trazado_124114" data-name="Trazado 124114" d="M807.654,1067.259c-1.006-.112-2.137-2.685-2.563-3.4-1.586-2.644-3.024-5.379-4.465-8.1-3.015-5.7-5.924-11.459-8.993-17.131,6.8-6.739,14.47-15.554,15.211-21.2.143-1.085,2.025-1.675,2.677-1.8.634-.121,5.118-16.02,4.447-15.569-10.951,7.349-9.962-6.554-21.057-7.894-7.846-.947-16.819,1.728-23.156-4.3-5.394-5.129-7.651-13.008-11.071-19.441-5.855-11.011-14.358-20.37-27.238-22.31-12.386-1.864-24.615,3.08-33.221,11.96a47.044,47.044,0,0,0-10.8,17.091c-1.855,5.508.208,9.213,4.221,12.3a1.194,1.194,0,0,1,.214,1.669c-.832,1.088-6.336,6.418-6.72,7.778-1.087,3.857,3.911,4.211,7.8,5.913a6.52,6.52,0,0,0,.7,3.754c1.2,1.864,3.183,1.286,4.713.143,2.827-2.111,9.105-10.009,11.54-2.648a10.244,10.244,0,0,1,.674,3.357c-.444,1.57-2.665,2.59-4.068,2.892-2.317.5-7.357.238-8.5,2.677-.867,1.85-.435,3.786.024,5.675.737,3.038,1.194,7.654,4.084,9.446,3.292,2.041,8.284.27,11.56-.881,2.759-.969,5.469-2.337,8.412-2.66,4.632-.51,4.5,3.571,1.857,6.5-7.786,8.637-22.346,6.826-29.272-1.813a44.31,44.31,0,0,1-5.444-8.934c-2.163-4.631-3.779-9.493-5.7-14.224-1.283-3.156-2.327-6.383-5.455-8.068a1.417,1.417,0,0,0-1.737.251c-4.519,2.453.807,12.833,1.853,16.008,1.006,3.052,1.91,6.23,2.9,9.39a9.636,9.636,0,0,0-4.8-.82c-2.6.409-3.808,2.94-3.775,5.356a10.678,10.678,0,0,0,.981,4.335c-3.251.811-6.136,2.376-6.636,5.952a5.838,5.838,0,0,0,1.725,4.951,7.879,7.879,0,0,0-1.031,4.962c.767,6.381,9.676,9.076,14.81,10.075,18.569,3.614,38.689.637,54.2-10.635,6.639-4.825,11.492-11.928,18.7-16.035,3.254-1.855,7.466-3.6,11.269-2.362,4.261,1.383,5.486,4.317,1.326,7.241-9.577,6.729-17.1,11.741-17.814,24.836-.6,11.072,7.175,20.812,17.988,12.9,4.218-3.087,8.11-4.729,13.475-3.788,4.16.73,8.008,2.524,12.027,3.721,3.8,1.131,8.3,1.868,12.329.835,2.156-.553,6.837-3.219,6.933-6.027a2.436,2.436,0,0,0-.045-.569C812.266,1066.237,809.185,1067.429,807.654,1067.259Z" fill="#133d60"/>
        <path id="Trazado_124118" data-name="Trazado 124118" d="M963.216,1116.307c-.756-14.468-2.386-28.924-4.3-43.277-1.64-12.284-3.067-23.846-8.632-34.926-3.761-6.072-2.709-3.079-3.1-2.942-3.547-1.378-7.391-1.976-10.963-.2-3.879,1.929-6.532,6.26-9.032,9.694-7.163,9.835-8.847,20.573-9.883,32.507a255.724,255.724,0,0,0,6.079,81.016.946.946,0,0,0,1.577.463c10.336.534,24.491,1.537,32.1-7.19C965.047,1142.281,963.8,1127.581,963.216,1116.307Z" fill="#5993bc"/>
        <path id="Trazado_124119" data-name="Trazado 124119" d="M916.651,928.32a17.563,17.563,0,0,0-6.273-9.526c-3.23-2.533-6.4-2.76-9.968-4.257-2.878-1.206-3.93-4.416-6.8-5.881a19.325,19.325,0,0,0-10.809-1.835,23.346,23.346,0,0,0-14.621,7.937,1.348,1.348,0,0,1-1.493.376c-5.078-2.064-9.875-.028-12.6,5.8a16.871,16.871,0,0,0-.867,12.185,2.266,2.266,0,0,1-.472,2.106,7.8,7.8,0,0,0-1.8,4.825c-.147,4.876,4.37,8.282,7.738,11.075,2.773,2.3,1.329.938-.221,3.411a8.176,8.176,0,0,0-1.079,5.337c.568,4.022,3.758,6.505,7.319,7.872a.788.788,0,0,0,.83-.117c7.536,2.242,15.252,1.606,20.023-5.165,3.12-4.429,5.126-8.77,10.575-10.834,3.958-1.5,8.085-2.155,11.869-4.068a.917.917,0,0,0,.956-.213C914.27,942.338,918.54,935.917,916.651,928.32Z" fill="#522727"/>
        <path id="Trazado_124120" data-name="Trazado 124120" d="M957.554,1076.628c0-.636,1.549-2.62,1.359-3.6-3.331-17.183-6.119-42.527-19.947-54.637-18.59-16.281-46.093-26.441-57.02-29.518a18.641,18.641,0,0,1,1.306,2.917,103.2,103.2,0,0,1-17.212-3.755c-2.285-.78-4.554-1.863-7.03-1.632A15.268,15.268,0,0,0,853,988.789a.484.484,0,0,0-.359.029c-15.965,7.728-34.573,11.122-47.937,23.52-4.528,4.2-9.207,8.493-12.171,13.938-18.1,33.254-12.014,70.2-12.112,73.359-.048,1.567.3-8.4.96-6.981,1.111,2.379,5.6,3.458,7.848,4.59a80.32,80.32,0,0,1,8.643,4.769c2.611,1.749,5.215,3.535,7.7,5.456,2.841,2.192,4.037,4.8,4.582,8.3a317.272,317.272,0,0,0,6.972,32.455c.357,1.343-9.946-7.359-10.062.416-.266,17.8,4.853,55.515,8.7,54.7,5.637-1.2,4.721-17.242,5.51-22.831.455-3.226.9-6.435,1.393-9.63a.563.563,0,0,1,1.091-.089c3.466,10.537,8.181,21.075,18.283,26.539a65.059,65.059,0,0,0,8.291,3.446,112.736,112.736,0,0,0,21.935,5.726,114.744,114.744,0,0,0,43.218-1.443,80.042,80.042,0,0,0,12.244-3.629,41.218,41.218,0,0,0,6.153-3.068c4.9-3.016-.038-43.93-.247-57.862-.24-14.344-.718-28.677-1.283-43.01a7.788,7.788,0,0,1,4.193-7.26c3.869-2.007,7.666-4.158,11.439-6.341,2.177-1.259,4.563-2.135,6.683-3.5C956.819,1079,957.55,1078.2,957.554,1076.628Z" fill="#5993bc"/>
        <path id="Trazado_124121" data-name="Trazado 124121" d="M884.418,994.666c3.941,3.252-.035,5.72,3.074,9.763,2.6,3.382,10.922,15.8,28.876,17.5a39.42,39.42,0,0,1,27,13.9c2.407,2.812,4.527,5.807,6.868,8.513,1,1.156,3.987-.541,3.595-2.019-2.611-9.842-7.924-17.735-13.821-24.489a79.435,79.435,0,0,0-25.987-19.448c-8.9-4.209-21.694-9.572-31.661-9.162C883.489,990.732,883.01,993.505,884.418,994.666Z" fill="#133d60"/>
        <path id="Trazado_124122" data-name="Trazado 124122" d="M829.5,1061.342a1.022,1.022,0,0,0-1.85-.522c-6.923.284-41.41-10.091-43.507.371-6.569,32.766-3.336,54.843,1.2,75.671,1.755,8.059,4.6,18.215,11.383,23.593,5.173,4.1,14.8,7.675,21.189,8.5a11.331,11.331,0,0,0,8.432-2.7c3.342-2.659,5.424-31.88,5.383-41.5C831.643,1103.617,830.571,1082.448,829.5,1061.342Z" fill="#5993bc"/>
        <path id="Trazado_124123" data-name="Trazado 124123" d="M888.916,973.565c-3.482-11.61-11.389-21.5-22.775-28.667a1.064,1.064,0,0,0-1.231.007c-.684-.123-1.445.169-1.354.91,1.8,14.685-3.237,28.718-9.324,42.311-.3.66.269,1.1.922,1.174,3.957,8.655,18.576,8.95,27.7,7.172a.917.917,0,0,0,.38-1.712.809.809,0,0,0-.094-.759c-2.149-3.334-.056-7.886,1.087-11.234a82.185,82.185,0,0,1,3.254-8C888.237,974.888,889.164,974.393,888.916,973.565Z" fill="#944b3c"/>
        <path id="Trazado_124124" data-name="Trazado 124124" d="M788.424,1075.327c3.118-5.96,2.358-13.237,3.508-19.693a41.949,41.949,0,0,1,16.6-26.031c10.274-7.1,24.015-6.25,33.569-14.723,7.341-6.51,14.115-17.294,13.757-27.6A29.915,29.915,0,0,0,853,988.789a.487.487,0,0,0-.36.029c-9.1,4.407-19.173,2.93-28.538,5.881-8.726,2.749-15.294,9.1-20.383,16.514-4.164,6.069-11.809,8.633-16.131,15.054-8.91,13.239-8.518,31.012-9.268,46.335-.239,4.885,7.743,7.153,10.043,2.837Z" fill="#133d60"/>
        <path id="Trazado_124125" data-name="Trazado 124125" d="M904.463,929.385c-6.986-10.467-22.649-11.771-33.124-4.993a20.561,20.561,0,0,0-3.645,2.97,21.4,21.4,0,0,0-6.021,16.842,18.754,18.754,0,0,0,3.261,8.518c1.626,2.385,3.743,3.915,4.464,6.853.726,2.956.683,5.958,1.465,8.933a6.48,6.48,0,0,1,.342,2.747,2.183,2.183,0,0,0-.079.935,1.573,1.573,0,0,0,.459.662c4.5,4.494,10.822,6.373,17.132,6.41,7.725.046,10.82-4.307,13.605-10.846,4.6-10.808,8.924-25.041,3.6-36.428A19.59,19.59,0,0,0,904.463,929.385Z" fill="#944b3c"/>
        <path id="Trazado_124126" data-name="Trazado 124126" d="M909.118,927.9c-2.368-1.36-4.742-1.858-6.751-3.909a37.806,37.806,0,0,0-4.248-4.183,21.165,21.165,0,0,0-11.883-4.281c-12.019-.4-36.191,14.227-25.1,28.284.527.668,1.811,1.5,1.907,2.359a2.334,2.334,0,0,0,.291,1.281,1.464,1.464,0,0,0,.7.406,7.025,7.025,0,0,0,4.507-.033c2.947-1.049,3.587-2.5,4.39-4.28.6-1.325.825-3.614,1.883-4.606.788-.739,2.725-.874,3.726-1.263a16.186,16.186,0,0,0,7.306-5.62,1.536,1.536,0,0,1,2.572.077,9.505,9.505,0,0,0,2.361,2.6,9.322,9.322,0,0,0,6.151,1.829,7.37,7.37,0,0,1,6.979,3.488c.851,1.281,2.676,8.3,4.547,7.616a1.678,1.678,0,0,0,.577-.43C913.875,942.407,916.057,931.885,909.118,927.9Z" fill="#522727"/>
        <path id="Trazado_124127" data-name="Trazado 124127" d="M868.56,949.249c-1.489-4.361-4.485-8.026-7.765-6.37-4.347,2.2-1.929,8.332-.229,11.617,1.3,2.508,4.79,7.962,7.794,4.512C870,957.125,869.819,952.938,868.56,949.249Z" fill="#944b3c"/>
        <path id="Trazado_124128" data-name="Trazado 124128" d="M897.647,952.915c-.228-.595-1.1-.127-.877.464a6.035,6.035,0,0,1,.606,3.11c-.222,1.3-1.2,1.811-2.357,2.183-.6.2-.386,1.165.223.968a4.08,4.08,0,0,0,2.979-2.4A6.42,6.42,0,0,0,897.647,952.915Z" fill="#6f2e17"/>
        <path id="Trazado_124129" data-name="Trazado 124129" d="M893.446,957.541a4.085,4.085,0,0,0-1.876-.029.5.5,0,0,0,.223.968,2.928,2.928,0,0,1,1.349.006C893.761,958.635,894.068,957.691,893.446,957.541Z" fill="#6f2e17"/>
        <path id="Trazado_124130" data-name="Trazado 124130" d="M867.038,952.963c-.623-2.774-2.467-7.334-6.055-6.617-.625.125-.36,1.082.264.957,2.892-.578,4.36,3.817,4.834,5.924C866.22,953.85,867.178,953.586,867.038,952.963Z" fill="#6f2e17"/>
        <path id="Trazado_124131" data-name="Trazado 124131" d="M901.447,952.273c-.811.347-1.088,1.648-.951,2.438a1.1,1.1,0,0,0,1.773.756,2.249,2.249,0,0,0,.723-2.084C902.856,952.391,902.088,952,901.447,952.273Z" fill="#301212"/>
        <path id="Trazado_124132" data-name="Trazado 124132" d="M884.676,950.156a1.343,1.343,0,0,0-.724.754,3.245,3.245,0,0,0-.015,2.5c1.011,1.362,2.674-.175,2.645-1.436C886.554,950.8,885.8,949.657,884.676,950.156Z" fill="#301212"/>
        <path id="Trazado_124133" data-name="Trazado 124133" d="M895.635,963.964a6.94,6.94,0,0,0-6.335-.972c-.6.2-.345,1.16.264.957a6,6,0,0,1,5.57.872C895.652,965.2,896.148,964.336,895.635,963.964Z" fill="#6f2e17"/>
        <path id="Trazado_124134" data-name="Trazado 124134" d="M906.266,949.773a1.127,1.127,0,0,0-.439-1.307,14.2,14.2,0,0,0-1.564-.881,9.319,9.319,0,0,0-3.091-1.306c-1.531-.14-1.689,1.393-1.547,2.373.192,1.321,1.207,1.879,2.676,2.379a3.9,3.9,0,0,0,2.972-.085A1.992,1.992,0,0,0,906.266,949.773Z" fill="#522727"/>
        <path id="Trazado_124135" data-name="Trazado 124135" d="M883.309,949.257c1.193.458,2.677.079,3.961-.163,2.156-.406,3.12-.81,3.368-2.131.184-.979-.02-2.513-2.007-2.372a14.2,14.2,0,0,0-4.011,1.306,20.241,20.241,0,0,0-2.031.881,1,1,0,0,0-.569,1.307A2.229,2.229,0,0,0,883.309,949.257Z" fill="#522727"/>
        <path id="Trazado_124136" data-name="Trazado 124136" d="M859.616,1096.9a.74.74,0,0,0-.655-.451.876.876,0,0,0-.37-.177c-7.611-1.7-23.7-3.919-24.174-3.649-3.757,2.139-9.663,5.409-11.941,9.251-2.19,3.694,1.062,7.693,3.739,10.358,3.486,3.471,6.852,4.237,11.64,4.7a103.627,103.627,0,0,1,21.35,4.451.926.926,0,0,0,1.156-.881C861.226,1113.266,862.9,1103.726,859.616,1096.9Z" fill="#944b3c"/>
        <path id="Trazado_124137" data-name="Trazado 124137" d="M889.783,930.5c-2.576-2.073-1.922-5.358-.274-7.786.36-.53-.5-1.027-.857-.5-1.883,2.775-2.466,6.66.429,8.989C889.575,931.594,890.281,930.9,889.783,930.5Z" fill="#301616"/>
        <path id="Trazado_124138" data-name="Trazado 124138" d="M933.079,1062.541c0-.633-.985-.74-.988-.1a196.027,196.027,0,0,1-3.075,33.632c-.113.629.876.727.988.1A196.142,196.142,0,0,0,933.079,1062.541Z" fill="#080405"/>
        <g id="Grupo_131426" data-name="Grupo 131426">
          <path id="Trazado_124139" data-name="Trazado 124139" d="M894.7,1208.3a.5.5,0,0,1-.5-.5c.021-11.411-.126-22.664-.437-33.445-.356-12.335-1.752-24.6-3.1-36.466-.768-6.742-1.561-13.713-2.164-20.677-.9-10.346-1.2-21.057-1.5-31.416-.428-15.021-.87-30.554-3.115-45.388a302.768,302.768,0,0,0-9.208-41.282.5.5,0,1,1,.958-.287,303.7,303.7,0,0,1,9.238,41.419c2.255,14.894,2.7,30.459,3.127,45.509.295,10.345.6,21.041,1.493,31.359.6,6.95,1.4,13.915,2.161,20.65,1.353,11.884,2.752,24.173,3.109,36.55.311,10.792.458,22.055.437,33.476A.5.5,0,0,1,894.7,1208.3Z" fill="#080405"/>
        </g>
        <path id="Trazado_124140" data-name="Trazado 124140" d="M946.878,1113.759a.96.96,0,0,0-1.162-.121c-20.559-5.075-41.135-10.524-61.986-14.345.905-5.676-25.627-8.981-30.634-8.2-2.447.381-4.012.834-4.416,3.363-.1.1,4.378.8,5.927,1.906.114.773,0,.143.017.212,1.535,8.195-.113,26.26-2.06,34.37-.176.733,24.141,20.7,67.978,28.036,6.234,1.044,21.572.727,27.682-1.852C953.369,1154.953,955.615,1121.648,946.878,1113.759Z" fill="#5993bc"/>
        <path id="Trazado_124141" data-name="Trazado 124141" d="M909.3,931.437a8.191,8.191,0,0,0-3.475-2.838,15.382,15.382,0,0,1-1.482-.476c-1.309-.77-.823-1.967-.941-3.256-.551-5.986-5.177-11.984-11.776-10.351a.5.5,0,0,0,.264.958,8.079,8.079,0,0,1,8.563,3.539,12,12,0,0,1,1.741,4.366c.271,1.361-.149,3.349.349,4.618.441,1.128,1.831,1.1,2.827,1.515a7.114,7.114,0,0,1,3.363,10.048c-.295.567.562,1.069.857.5A8.25,8.25,0,0,0,909.3,931.437Z" fill="#301616"/>
        <path id="Trazado_124142" data-name="Trazado 124142" d="M869.076,925.455a9.1,9.1,0,0,0-2.038,3.048.426.426,0,0,0-.1-.009c-3.756.434-7.457,2.275-9.189,5.8a8.624,8.624,0,0,0,1.2,9.439c.417.485,1.117-.22.7-.7-5.069-5.884.985-12.816,7.288-13.544a.5.5,0,0,0,.409-.3.525.525,0,0,0,.6-.316,7.908,7.908,0,0,1,1.829-2.712C870.236,925.709,869.533,925.007,869.076,925.455Z" fill="#301616"/>
        <path id="Trazado_124143" data-name="Trazado 124143" d="M867.167,915.539a6.472,6.472,0,0,0-3.192,3.42c-.245.589.716.846.957.263a5.475,5.475,0,0,1,2.736-2.826C868.245,916.121,867.742,915.265,867.167,915.539Z" fill="#301616"/>
        <path id="Trazado_124144" data-name="Trazado 124144" d="M958.792,1092.845c.2.224,1.443-3.013,1.461-3.392.09-1.975-1.524-3.286-2.94-4.342-.642-.478-2.9-1.608-3.011-2.457a.787.787,0,0,0-.052-.24c-1.663-3.762-3.886-11.3-8.983-11.211-2.768.051-5.463,1.8-7.8,3.114-1.1.62-2.2,1.254-3.295,1.886a.228.228,0,0,1-.331-.265c.675-2.366.48-4.688-1.8-5.633a.97.97,0,0,0-1.01.148c-1.97,1.737-3.477,3.993-5.46,5.773-2.4,2.151-11.139,7.1-10.325,18.327-2.75.974-4.586,1.856-3.206,5.156,2.291,5.476,5.908,10.358,8.18,15.925-1.06.587.277,2.323,1.358,1.109l5.948-3c5.928-.068,13.411-1.483,17.889-5.48a5.712,5.712,0,0,1,2.685-1.365c3.263-.652,6.716-1.482,9.167-3.207s2.363-4.189,1.339-6.608A3.041,3.041,0,0,0,958.792,1092.845Z" fill="#944b3c"/>
        <path id="Trazado_124145" data-name="Trazado 124145" d="M887.013,992.456c-.241-1.024-1.893-9.815-2.787-9.689s-1.249,3.606-4.209,7.786c-1.309,1.849-4.19,5.329-7.066,4.7a5.632,5.632,0,0,1-1.989-1.046,33.528,33.528,0,0,1-9.338-9.337q-1.4-2.283-2.627-4.663c-.029-.056-.212-.383-.423-.771-.387-.713-1.489.346-2.069.913-2.725,2.664-6.078,7.2-5.559,10.342.743,4.51,8.7,18.863,18.016,23.571,1.674.846,3.162-1.662,3.459-3.141.777-3.878,1.121-7.906,1.533-11.877a.653.653,0,0,1,1.205-.271c2.679,4.365,5.5,9.193,7.966,13.684,1.293,2.358,3.79-7.8,4.008-9.987C887.465,999.36,887.79,995.752,887.013,992.456Z" fill="#080405"/>
        <g id="Grupo_131427" data-name="Grupo 131427">
          <path id="Trazado_124146" data-name="Trazado 124146" d="M830.839,1088.534a.5.5,0,0,1-.486-.386l-6.105-26.023a.5.5,0,0,1,.974-.229l6.105,26.024a.5.5,0,0,1-.373.6A.457.457,0,0,1,830.839,1088.534Z" fill="#080405"/>
        </g>
        <path id="Trazado_124147" data-name="Trazado 124147" d="M922.342,1130.268c.365-6.55-.16-17.678-1.363-22.583-.8-3.247-2.167-8.69-4.768-12.236-.96-2.013-2.406-4.937-4.626-5.249a13.612,13.612,0,0,0-3.836.456c-1.744.288-3.486.577-5.215.947-4.019.86-8.509,1.511-12.4,3.023-2.157.84-2.277,2.063-2.535,3.558a1.9,1.9,0,0,1-1.231,1.455c-.575.209-1.078.391-1.491.538a500.493,500.493,0,0,1-65.233,17.888c-.254-.416-.31,1.879-.829,2.238-4.927,3.407-6,9.091-7.323,14.6-1.61,6.685-4.777,14.662-4.941,21.847-.746-.435-5.954,6.222-5.019,6.773,16.113,9.493,42.031,11.6,98.757-16.96a8.378,8.378,0,0,0,.631,1.147.506.506,0,0,0,.561.228c5.359-2.194,10.686-4.469,15.956-6.868,1.707-.778,2.99-1.419,3.754-3.207a20.867,20.867,0,0,0,1.39-7.173A.418.418,0,0,0,922.342,1130.268Z" fill="#5993bc"/>
        <path id="Trazado_124148" data-name="Trazado 124148" d="M852.412,1095.372c-5.791-2.174-17.133-11.754-20.982-13.853-3.239-1.766-6.44-4.032-10.116-4.782a8.751,8.751,0,0,0-5.133.393c-3.553,1.417-7.2,5.249-9.481,8.242-1.943,2.551-7.391,10.713-4.71,13.951a3.286,3.286,0,0,0,2.176,1.05c-1.161,1.792-1.467,3.568.453,4.848a4.55,4.55,0,0,0,2.9.63c1.519,2.781,4.55,2.985,7.618,1.734,2.545-1.037,4.891-2.977,7.489-3.774a12.786,12.786,0,0,1,2.022-.426c1.134.325-6.4,3.826-8.938,6.32a3.118,3.118,0,0,0-.779,3.771,3.579,3.579,0,0,0,3.955,1.772c1.894-.3,3.683-1.4,5.515-2.066,2.11-.762,3.9-.289,6.014.125,1.016.2,2.135,1.406,4.618.621,4.8-1.519,13.241-3.313,13.241-3.313.733-1.451,3.8-6.776,4.279-8.33a10.045,10.045,0,0,1,1.295-3.226C854.446,1098.35,854.879,1098.15,852.412,1095.372Z" fill="#944b3c"/>
        <path id="Trazado_124149" data-name="Trazado 124149" d="M835.96,1101.718a12.322,12.322,0,0,0-8.491,1.078c-.569.291-.067,1.148.5.857a11.22,11.22,0,0,1,7.726-.978C836.318,1102.815,836.584,1101.858,835.96,1101.718Z" fill="#6f2e17"/>
        <path id="Trazado_124150" data-name="Trazado 124150" d="M832.933,1095c-3.8-1.848-7.745-.965-11.477.646-4.188,1.808-8.257,4.059-11.188,7.63-.4.49.3,1.2.7.7a25.024,25.024,0,0,1,8.634-6.385c3.984-1.954,8.514-3.832,12.828-1.736C833.005,1096.139,833.508,1095.283,832.933,1095Z" fill="#6f2e17"/>
        <path id="Trazado_124151" data-name="Trazado 124151" d="M830.84,1088.033a13.4,13.4,0,0,0-12.4-1.208c-4.882,2.029-8.325,7.285-11.746,11.094-.426.474.274,1.178.7.7,3.033-3.377,6.111-7.921,10.1-10.229a12.347,12.347,0,0,1,12.834.5C830.877,1089.239,831.375,1088.38,830.84,1088.033Z" fill="#6f2e17"/>
        <path id="Trazado_124152" data-name="Trazado 124152" d="M932.718,1076.67a30.34,30.34,0,0,0-5.765,4.495.5.5,0,0,0,.7.7,29.268,29.268,0,0,1,5.564-4.34A.5.5,0,0,0,932.718,1076.67Z" fill="#6f2e17"/>
        <path id="Trazado_124153" data-name="Trazado 124153" d="M953.66,1083.17c-3.5-2.715-9.829-4.686-13.557-1.436-.482.421.222,1.12.7.7,3.2-2.792,9.155-.886,12.153,1.436C953.457,1084.258,954.165,1083.56,953.66,1083.17Z" fill="#6f2e17"/>
        <path id="Trazado_124154" data-name="Trazado 124154" d="M958.132,1092c-4.039-2.779-8.394-4.952-13.413-4.094-.628.108-.362,1.065.264.958,4.733-.81,8.872,1.4,12.648,3.994C958.159,1093.223,958.656,1092.363,958.132,1092Z" fill="#6f2e17"/>
        <path id="Trazado_124155" data-name="Trazado 124155" d="M958,1097.177c-4.026-1.828-7.888-4.237-12.441-3.194-.622.143-.359,1.1.264.958,4.237-.971,7.947,1.4,11.676,3.093C958.078,1098.3,958.583,1097.441,958,1097.177Z" fill="#6f2e17"/>
        <g id="Grupo_131428" data-name="Grupo 131428">
          <path id="Trazado_124156" data-name="Trazado 124156" d="M828.1,1170.293a57.912,57.912,0,0,1-19.664-3.151.5.5,0,0,1,.338-.941c34.594,12.467,85.146-16.452,90.8-19.791a1.16,1.16,0,0,1,1.464.241l.605.7c5.29-1.916,18.207-7.233,19.478-10.7,1.61-4.388.976-19.746.969-19.9a.5.5,0,0,1,.478-.522.5.5,0,0,1,.521.479c.028.639.648,15.714-1.03,20.287-1.723,4.7-19.639,11.139-20.4,11.411a.5.5,0,0,1-.546-.144l-.83-.957a.157.157,0,0,0-.2-.034C895.388,1150.041,860,1170.292,828.1,1170.293Z" fill="#080405"/>
        </g>
        <g id="Grupo_131429" data-name="Grupo 131429">
          <path id="Trazado_124157" data-name="Trazado 124157" d="M801.423,1127.707a.5.5,0,0,1-.362-.845c8.413-8.837,28.4-11.521,29.248-11.632a.5.5,0,0,1,.128.992c-.2.027-20.483,2.749-28.651,11.329A.5.5,0,0,1,801.423,1127.707Z" fill="#080405"/>
        </g>
        <g id="Grupo_131430" data-name="Grupo 131430">
          <path id="Trazado_124158" data-name="Trazado 124158" d="M854.891,1095.813a.5.5,0,0,1-.489-.4c-.417-1.982-1.28-2.34-1.289-2.343a.507.507,0,0,1-.3-.635.493.493,0,0,1,.614-.313c.143.045,1.411.515,1.952,3.086a.5.5,0,0,1-.386.591A.462.462,0,0,1,854.891,1095.813Z" fill="#080405"/>
        </g>
        <g id="Grupo_131431" data-name="Grupo 131431">
          <path id="Trazado_124159" data-name="Trazado 124159" d="M900.721,1144.254a.509.509,0,0,1-.5-.544c2.628-29.992-10.351-43.487-10.483-43.619a.5.5,0,0,1,.71-.7c.135.136,13.441,13.921,10.769,44.412A.5.5,0,0,1,900.721,1144.254Z" fill="#080405"/>
        </g>
        <g id="Grupo_131432" data-name="Grupo 131432">
          <path id="Trazado_124160" data-name="Trazado 124160" d="M951.357,1116.226a.5.5,0,0,1-.335-.13c-3.349-3.032-8.582-3.3-10.552-3.4a6.061,6.061,0,0,1-.936-.081.5.5,0,0,1,.238-.971c.084.02.422.036.748.053,2.068.105,7.561.384,11.173,3.656a.5.5,0,0,1-.336.87Z" fill="#080405"/>
        </g>
        <g id="Grupo_131433" data-name="Grupo 131433">
          <path id="Trazado_124161" data-name="Trazado 124161" d="M883.73,1099.793a.5.5,0,0,1-.5-.5c0-1.75-1.638-2.429-3.221-3.085a48.431,48.431,0,0,0-5.848-1.923q-1.3-.352-2.618-.642a104.472,104.472,0,0,0-14.717-1.829c-.359-.027-.768-.076-1.208-.128-2.845-.339-5.259-.464-5.97,1.436a.5.5,0,1,1-.937-.35c1.043-2.792,4.643-2.364,7.026-2.079.423.051.817.1,1.163.123a105.51,105.51,0,0,1,14.859,1.851q1.34.3,2.663.653a49.431,49.431,0,0,1,5.949,1.955c1.731.718,3.859,1.6,3.859,4.018A.5.5,0,0,1,883.73,1099.793Z" fill="#080405"/>
        </g>
        <g id="Grupo_131434" data-name="Grupo 131434">
          <path id="Trazado_124162" data-name="Trazado 124162" d="M856.486,1109.645a.5.5,0,0,1-.143-.978c11.286-3.385,28.328-8.7,30.392-9.9.136-.79.648-3.2,1.909-3.892,6.613-3.627,14.587-4.678,21.517-5.228,3.044-.244,4.274,1.481,5.468,3.583a.5.5,0,1,1-.869.494c-1.293-2.275-2.254-3.259-4.52-3.081-6.824.542-14.668,1.573-21.115,5.109-.752.412-1.28,2.291-1.436,3.378a.506.506,0,0,1-.178.317c-1.729,1.41-27.9,9.284-30.881,10.177A.515.515,0,0,1,856.486,1109.645Z" fill="#080405"/>
        </g>
        <g id="Grupo_131435" data-name="Grupo 131435">
          <path id="Trazado_124163" data-name="Trazado 124163" d="M932.461,1159.505c-17.551,0-39.717-7.33-39.946-7.407a.5.5,0,0,1,.316-.949c.236.078,23.8,7.882,41.438,7.328a.514.514,0,0,1,.515.485.5.5,0,0,1-.484.515Q933.389,1159.505,932.461,1159.505Z" fill="#080405"/>
        </g>
        <path id="Trazado_124164" data-name="Trazado 124164" d="M717.446,879.652c-1.623.839-5.589,3.287-6.486.721-.522-1.494,4.723-21.422,3.026-24.073a1.059,1.059,0,0,0-1.866.3c-.341.029-10.316,11.866-12.476,34.322-.167,1.733-.872,4.312,1.33,4.813,1.057.241,4.748-1,7.132-1.887a.738.738,0,0,1,.925,1.025c-4.749,9.683-4.432,21.151,3.858,28.923a1.114,1.114,0,0,0,1.77-.954c-.829-7.908,1.375-15.562,4.493-22.872,1.544-3.621,8.8-17.192,8.644-19.93C727.533,875.39,719.64,878.517,717.446,879.652Z" fill="#e1a557"/>
        <path id="Trazado_124165" data-name="Trazado 124165" d="M997.164,859.244c-.205,1.761,3.909,10.671,4.757,13.04,1.711,4.782,2.824,9.765,1.987,14.843a.7.7,0,0,0,1.095.655c5.606-4.823,6.254-12.207,3.592-18.555a.485.485,0,0,1,.631-.64c1.491.623,3.8,1.509,4.49,1.377,1.428-.274,1.077-1.952,1.038-3.072-.511-14.523-6.433-22.377-6.65-22.4a.67.67,0,0,0-1.182-.238c-1.189,1.67,1.393,14.632,1,15.583-.673,1.634-3.116-.033-4.122-.61C1002.442,858.443,997.513,856.25,997.164,859.244Z" fill="#e1a557"/>
        <path id="Trazado_124166" data-name="Trazado 124166" d="M1002.747,1017.247a75.957,75.957,0,0,0,12.762-7.377c1.07-.775,11.185-10,4.07-10.311a5.557,5.557,0,0,0-2.505.689,110.326,110.326,0,0,1-29.047,8.281c-4.192.568-19.095,3.3-16.989,5.938,2.008,2.516,5.923,4.6,8.781,6.3,2.439,1.459,5.521,3.065,7.2,5.211,2.463,3.144-.346,3.95-3.051,5.769a36.891,36.891,0,0,0-10.5,10.507c-2.3,3.566-3.611,7.58-4.893,11.519a2.071,2.071,0,0,0-.078,1.549c1.3,2.74,6.136-2.867,6.9-3.562a43.4,43.4,0,0,1,5.28-4.075,73.378,73.378,0,0,1,12.616-6.479c4.12-1.692,8.664-2.836,12.7-4.626,2.263-1,3.961-2.423,3.881-4.782-.115-3.4-3.519-6.327-6.8-8.2a10.669,10.669,0,0,1-3.029-2.121C998.2,1019.248,1000.875,1018.107,1002.747,1017.247Z" fill="#e1a557"/>
        <g id="Grupo_131436" data-name="Grupo 131436">
          <path id="Trazado_124167" data-name="Trazado 124167" d="M929.181,903.675a1.263,1.263,0,0,1-.54-.122,74.7,74.7,0,0,1-8.134-5.3c-5.272-3.7-11.832-8.3-17.23-10.685a.5.5,0,1,1,.405-.914c5.486,2.425,12.092,7.058,17.4,10.78a74.553,74.553,0,0,0,7.984,5.215c.333.162.995-.49,1.393-.876l.235-.225a.5.5,0,1,1,.684.73l-.222.213A3.287,3.287,0,0,1,929.181,903.675Z" fill="#080405"/>
        </g>
        <g id="Grupo_131437" data-name="Grupo 131437">
          <path id="Trazado_124168" data-name="Trazado 124168" d="M983.857,947.635c-.087,0-.174,0-.262-.007-1.662-.1-3.561-1.982-5.087-3.49-.437-.431-.835-.825-1.17-1.117l-7.511-6.528a69.359,69.359,0,0,0-6.355-4.9,69.826,69.826,0,0,1-6.438-4.963l-4.173-3.626a4.477,4.477,0,0,1-1.042-2.829.5.5,0,0,1,.483-.515.518.518,0,0,1,.516.484,3.631,3.631,0,0,0,.7,2.1l4.173,3.628a69.127,69.127,0,0,0,6.356,4.9,70.193,70.193,0,0,1,6.437,4.963l7.512,6.528c.348.3.762.711,1.216,1.16,1.333,1.318,3.159,3.122,4.446,3.2a6.813,6.813,0,0,0,2.049-.314c.31-.08.671-.146,1.056-.217,1.335-.244,2.848-.52,3.186-1.576l3.614-11.294a4.672,4.672,0,0,1,1.427-2.137l6.309-5.354c.491-.417.58-1.071.3-2.188-.789-3.125-1.1-4.1-1.466-4.538a.5.5,0,1,1,.771-.636c.491.594.8,1.515,1.664,4.929a3,3,0,0,1-.621,3.2l-6.309,5.354a3.673,3.673,0,0,0-1.121,1.68L990.9,944.828c-.521,1.627-2.427,1.975-3.959,2.255-.358.065-.7.127-.984.2A8.488,8.488,0,0,1,983.857,947.635Z" fill="#080405"/>
        </g>
        <g id="Grupo_131438" data-name="Grupo 131438">
          <path id="Trazado_124169" data-name="Trazado 124169" d="M941.631,926.211A14.944,14.944,0,0,1,926.7,911.284c0-7.957,6.875-14.43,15.325-14.43,7.955,0,13.3,5.8,13.3,14.43C955.329,919.933,949.568,926.211,941.631,926.211Zm.4-28.357c-7.9,0-14.325,6.025-14.325,13.43a13.943,13.943,0,0,0,13.927,13.927c7.358,0,12.7-5.858,12.7-13.927C954.329,903.252,949.386,897.854,942.029,897.854Z" fill="#080405"/>
        </g>
        <g id="Grupo_131439" data-name="Grupo 131439">
          <path id="Trazado_124170" data-name="Trazado 124170" d="M941.265,917.755a6.226,6.226,0,1,1,.16-12.446c3.389,0,5.667,2.46,5.667,6.122S944.641,917.755,941.265,917.755Z" fill="#fff"/>
        </g>
        <g id="Grupo_131440" data-name="Grupo 131440">
          <path id="Trazado_124171" data-name="Trazado 124171" d="M1002.256,925.421a.492.492,0,0,1-.155-.025.5.5,0,0,1-.32-.631,38.76,38.76,0,0,0,1.285-7.334.491.491,0,0,1,.5-.5.5.5,0,0,1,.5.5,38.976,38.976,0,0,1-1.335,7.643A.5.5,0,0,1,1002.256,925.421Z" fill="#080405"/>
        </g>
        <g id="Grupo_131441" data-name="Grupo 131441">
          <path id="Trazado_124172" data-name="Trazado 124172" d="M993.844,972.693a.5.5,0,0,1-.213-.048c-2.748-1.3-3.366-5.265-3.965-9.1-.468-3-.952-6.11-2.411-7.86-2.678-3.214.972-9.431,1.129-9.693a.5.5,0,0,1,.86.511c-.035.059-3.447,5.871-1.22,8.542,1.635,1.962,2.141,5.208,2.631,8.346.583,3.74,1.135,7.274,3.4,8.348a.5.5,0,0,1-.215.952Z" fill="#080405"/>
        </g>
        <g id="Grupo_131442" data-name="Grupo 131442">
          <path id="Trazado_124173" data-name="Trazado 124173" d="M978.919,893.956a1.309,1.309,0,0,1-.84-.307L958.4,877.329a1.254,1.254,0,0,1-.312-1.528l8.249-16.151a1.46,1.46,0,0,1,.911-.745,1.439,1.439,0,0,1,1.152.174c.133.085,13.258,8.549,13.978,17.4.288,3.542-1.417,12.653-2.164,16.4a1.323,1.323,0,0,1-1.3,1.07Z" fill="#fff"/>
        </g>
        <g id="Grupo_131443" data-name="Grupo 131443">
          <path id="Trazado_124174" data-name="Trazado 124174" d="M951.523,873a.709.709,0,0,1-.4-.122,211.632,211.632,0,0,0-20.568-12.332c-1.648-.882-2.95-1.579-3.834-2.121-.277-.17-.494-.3.294-2.858,1.03-3.336,6.032-16.824,9.915-16.869H937c6.173,0,19.462,8.624,24.353,13.33a2.649,2.649,0,0,1,.654,3.079c-7.375,15.322-9.339,17.631-10.289,17.867A.8.8,0,0,1,951.523,873Z" fill="#fff"/>
        </g>
        <g id="Grupo_131444" data-name="Grupo 131444">
          <path id="Trazado_124175" data-name="Trazado 124175" d="M879.522,859.078a1.158,1.158,0,0,0-.485.844,5.2,5.2,0,0,0,.253,2.566c.41,1.1,1.376,2.028,2.62,1.612a4.08,4.08,0,0,0,2.472-2.085,4.414,4.414,0,0,0,.338-2.685.5.5,0,0,0-.569-.343C883.325,859.1,880.05,858.752,879.522,859.078Z" fill="#fff"/>
        </g>
        <g id="Grupo_131445" data-name="Grupo 131445">
          <path id="Trazado_124176" data-name="Trazado 124176" d="M863.594,854.976c-1.579.886-2.637,3.153-1.643,4.614a3.321,3.321,0,0,0,5.449-.341,4.424,4.424,0,0,0,.623-2.194.632.632,0,0,0-.42-.545,18.472,18.472,0,0,1-2.679-1.571c-.505-.322-.449-.359-1.015-.119A3.3,3.3,0,0,0,863.594,854.976Z" fill="#fff"/>
        </g>
        <path id="Trazado_124177" data-name="Trazado 124177" d="M855.64,877.221c-2.592-2.295-6.722.563-7.565,3.056a8.2,8.2,0,0,0-.128,4.135,6.14,6.14,0,0,0,1.181,2.864C853.828,892.918,860.313,881.359,855.64,877.221Z" fill="#fff"/>
        <path id="Trazado_124178" data-name="Trazado 124178" d="M820.322,874.434c-2.556-2.353-6.628.577-7.459,3.133a8.728,8.728,0,0,0-.127,4.241,6.438,6.438,0,0,0,1.165,2.937C818.535,890.531,824.93,878.677,820.322,874.434Z" fill="#fff"/>
        <path id="Trazado_124179" data-name="Trazado 124179" d="M776.776,890.1c-.569.384-1.137.773-1.71,1.153a.978.978,0,0,0-.36,1.214c1.433,2.954,7.719,3.669,5.793-.613a5.739,5.739,0,0,0-.893-1.4A2.14,2.14,0,0,0,776.776,890.1Z" fill="#fff"/>
        <path id="Trazado_124180" data-name="Trazado 124180" d="M790.961,882.075a4.812,4.812,0,0,0-2.65-1.426.862.862,0,0,0-.918.5c-.273.589-.537,1.181-.766,1.782a1.176,1.176,0,0,0,.231,1.206,7.483,7.483,0,0,0,2.672,1.8C792.238,886.935,792.24,883.7,790.961,882.075Z" fill="#fff"/>
        <path id="Trazado_124181" data-name="Trazado 124181" d="M797.213,891.683a3.111,3.111,0,0,0-.98-.757,7.2,7.2,0,0,0-8.185.419,8.176,8.176,0,0,0-3.113,5.622,10.033,10.033,0,0,0,.205,3.41c.176.748.935,2.6,1.942,1.634.748-.717.9-2.026,1.418-2.893a13.619,13.619,0,0,1,3.505-3.935c1.4-1.048,3.377-1.5,4.672-2.582C797.187,892.175,797.35,891.93,797.213,891.683Z" fill="#fff"/>
        <path id="Trazado_124182" data-name="Trazado 124182" d="M812.481,843.516c-1.707-2.2-4.887.294-6.1,1.747a35.251,35.251,0,0,0-5.442,8.856.72.72,0,0,0,.881.882c2.453-.967,4.995-1.819,7.381-2.942a5.827,5.827,0,0,0,3.6-4.028C813.109,846.687,813.4,844.7,812.481,843.516Z" fill="#fff"/>
        <path id="Trazado_124183" data-name="Trazado 124183" d="M788.115,857.611c-.567-1.042-8.944-5.238-9.867-4.881-1.7.659-1.677,4.6-.968,5.9,1.211,2.228,5.182,1.6,7.369,1.132C786.527,859.36,789.212,859.63,788.115,857.611Z" fill="#fff"/>
        <path id="Trazado_124184" data-name="Trazado 124184" d="M872.467,822.334c-2.916-3.855-9.017,4.043-5.45,5.857,1.069.544,2.306-.161,3.16-.791C871.428,826.478,873.757,824.041,872.467,822.334Z" fill="#fff"/>
        <path id="Trazado_124185" data-name="Trazado 124185" d="M891.589,828.921c-1.879-1.57-4.3.859-4.932,2.545-1.3,3.478,2.558,4.741,4.778,2.2C892.532,832.406,893.046,830.14,891.589,828.921Z" fill="#fff"/>
        <path id="Trazado_124186" data-name="Trazado 124186" d="M782.275,940.556c-.421-3.145-3.542-5.774-6.2-5.792-4.953-.033-2.5,6.764-.632,9.261a3.7,3.7,0,0,0,6.575-.995A5.246,5.246,0,0,0,782.275,940.556Z" fill="#fff"/>
        <path id="Trazado_124187" data-name="Trazado 124187" d="M808.244,923.024c-.961-2.363-3.324-5.758-6.105-6.1a2.734,2.734,0,0,0-2.859,1.825c-.591,1.517.107,3.023.854,4.343a1.118,1.118,0,0,0,.277.319c1.037,2.191,2.816,4.365,5.268,4.7a2.815,2.815,0,0,0,2.839-1.077C809.3,925.817,808.735,924.231,808.244,923.024Z" fill="#fff"/>
        <path id="Trazado_124188" data-name="Trazado 124188" d="M825.535,947.069a1.5,1.5,0,0,0-2.17-.58c-1.548.675-1.551,2.617-1.176,3.788a1.793,1.793,0,0,0,.839,1.11C825.576,952.715,826.068,948.051,825.535,947.069Z" fill="#fff"/>
        <path id="Trazado_124189" data-name="Trazado 124189" d="M829.595,956.026a5.023,5.023,0,0,0-3.826,1.961c-.441.522-2.017,3.241-.386,3.214a2.08,2.08,0,0,0,.788-.245,7.958,7.958,0,0,1,7.142.325.5.5,0,0,0,.729-.56C833.445,958.576,832.158,956.072,829.595,956.026Z" fill="#fff"/>
        <path id="Trazado_124190" data-name="Trazado 124190" d="M760.72,924.723a1.269,1.269,0,0,0-1.6.668c-.566,1.328.71,3.526,1.664,4.173.9.611,1.785-.091,1.964-1.243A3.353,3.353,0,0,0,760.72,924.723Z" fill="#fff"/>
        <path id="Trazado_124191" data-name="Trazado 124191" d="M766.348,941.739a1.978,1.978,0,0,0-.8-.814,9.18,9.18,0,0,0-7.515.139,3.413,3.413,0,0,0-1.9,2.552c.576.526,1.142,1.052,1.7,1.588,1.36-2.541,5.61-2.76,8.082-2.869C766.437,942.315,766.487,942.037,766.348,941.739Z" fill="#fff"/>
        <path id="Trazado_124192" data-name="Trazado 124192" d="M756.22,889.758a1.935,1.935,0,0,0-.426-.64,1.16,1.16,0,0,0-1.568-.062,1.446,1.446,0,0,0-.3.7,4.985,4.985,0,0,0,.4,3.166,2.349,2.349,0,0,0,.78.972C757.02,895.136,756.987,891.455,756.22,889.758Z" fill="#fff"/>
        <path id="Trazado_124193" data-name="Trazado 124193" d="M744.535,895.455c-.481-1.1-1.376-1.987-2.479-1.724-1.683.4-.461,3.239.032,3.987a2.138,2.138,0,0,0,1.221.97C745.05,899.136,745.239,897.068,744.535,895.455Z" fill="#fff"/>
        <path id="Trazado_124194" data-name="Trazado 124194" d="M832.565,844.274c-.556-1.167-1.708-.4-2.224.4-.471.729-.746,2.544-.148,3.288a.93.93,0,0,0,1.265.1A3.4,3.4,0,0,0,832.565,844.274Z" fill="#fff"/>
        <path id="Trazado_124195" data-name="Trazado 124195" d="M846.032,842.755c-.263-.911-1.181-1.9-1.988-1.133-.762.725-.344,2.246.068,3.075a1.543,1.543,0,0,0,1.05.915C846.506,845.81,846.3,843.68,846.032,842.755Z" fill="#fff"/>
        <path id="Trazado_124196" data-name="Trazado 124196" d="M901.677,970.466c-.07-.06-1.232-4.379-1.75-6.7a5.912,5.912,0,0,0-4.228-4.2c-3.163-1.039-7.214-.654-9.053,1.451-.244.279-2.812,3.662-4.414,5.879a1.715,1.715,0,0,1-2.113.563,10.2,10.2,0,0,1-4.821-4.295c-1.441-3.036-1.8-6.444-2.3-9.728-.517-3.4-1.058-6.4-4.428-7.913a.992.992,0,0,0-.6-.065c-.62-.322-1.517-.068-1.427.8.7,6.8,1.331,13.842,2.929,20.5,1.207,5.035,3.537,9.243,7.877,11.894,3.932,2.4,13.7,5.8,18.5,4.49C898.373,982.46,903.107,971.708,901.677,970.466Zm-14.684-3.392c-1.059.536-1.3-.4-.674-1.324a12.642,12.642,0,0,1,2.638-2.937,5.8,5.8,0,0,1,6.689.346c1.173.941,1.951,3.758,1.968,5.312a.307.307,0,0,1-.495.249,9.174,9.174,0,0,0-5.323-2.225A22.1,22.1,0,0,0,886.993,967.074Z" fill="#522727"/>
        <path id="Trazado_124197" data-name="Trazado 124197" d="M699.355,980.234a15.9,15.9,0,0,1-3.5,4.808c-.47.442.239,1.148.708.707a16.633,16.633,0,0,0,3.656-5.011C700.493,980.16,699.631,979.652,699.355,980.234Z" fill="#080405"/>
        <path id="Trazado_124198" data-name="Trazado 124198" d="M704.194,1048.206a7.5,7.5,0,0,1-9.488-9.418.513.513,0,0,0-.349-.615c-1.239-.492-2.512-1.005-3.745-1.6a.521.521,0,0,0-.689-.346,15.507,15.507,0,0,1-4.4-3.2,6.668,6.668,0,0,1-1.626-2.442c-.557-2.033,1.634-2.741,3.2-2.191,2.014.708,4.013,1.462,6.018,2.193.606.221.867-.745.266-.964-2.066-.753-12.481-5.829-10.693.671.871,3.166,3.683,5.256,6.692,6.788a4.1,4.1,0,0,1-2.28,2.292,6.674,6.674,0,0,1-3.581-.551,14.272,14.272,0,0,1-5.87-3.989c-.435-.477-1.14.232-.707.707a14.635,14.635,0,0,0,8.525,4.812,4.612,4.612,0,0,0,1.632-.032,6.854,6.854,0,0,1-6.067,6.29c-2.828.2-5.66-1.362-7.915-2.93-.53-.368-1.03.5-.505.863,2.892,2.011,6.849,4.02,10.4,2.644a7.878,7.878,0,0,0,5.1-7.039.514.514,0,0,0-.042-.2,5.963,5.963,0,0,0,2.2-2.431c1.157.545,2.317,1.017,3.385,1.442a8.485,8.485,0,0,0,10.814,10.212A.5.5,0,0,0,704.194,1048.206Z" fill="#080405"/>
        <path id="Trazado_124199" data-name="Trazado 124199" d="M791.647,1019.506a70.017,70.017,0,0,0-14.823,40.538c-.024.644.976.643,1,0a68.881,68.881,0,0,1,14.531-39.831C792.746,1019.712,792.044,1019,791.647,1019.506Z" fill="#080405"/>
        <path id="Trazado_124200" data-name="Trazado 124200" d="M939.974,1016.763a19.132,19.132,0,0,0-4.472-5.062c-.5-.395-1.212.308-.707.707a18.4,18.4,0,0,1,4.316,4.859C939.446,1017.816,940.311,1017.314,939.974,1016.763Z" fill="#080405"/>
        <path id="Trazado_124201" data-name="Trazado 124201" d="M832.995,992.877A65.732,65.732,0,0,0,821.41,996.8c-.587.262-.079,1.124.5.864a64.409,64.409,0,0,1,11.347-3.828C833.887,993.692,833.622,992.728,832.995,992.877Z" fill="#080405"/>
        <path id="Trazado_124202" data-name="Trazado 124202" d="M838.427,848.4c-1.029.453-5.16,4.56-2.827,5.326a.463.463,0,0,0,.236.016.488.488,0,0,0,.4-.119c2.043-1.756,4.819-3.2,7.317-1.418a.5.5,0,0,0,.753-.432C844.21,848.748,841.078,847.236,838.427,848.4Z" fill="#fff"/>
        <path id="Trazado_124203" data-name="Trazado 124203" d="M844.03,896.471c-1.805-3.89-4.156-7.859-8.942-7.985-4.557-.12-8.021,3.142-10.014,6.945-.3.57.564,1.076.864.5,1.825-3.484,4.921-6.583,9.15-6.45,4.421.139,6.443,3.963,8.078,7.489C843.437,897.559,844.3,897.051,844.03,896.471Z" fill="#fff"/>
        <path id="Trazado_124204" data-name="Trazado 124204" d="M805.394,863.783c-2.771-1.953-5.908-3.666-9.2-1.839-2.415,1.34-5.07,4.47-5.3,7.276-.053.641.947.638,1,0,.2-2.389,2.779-5.313,4.8-6.413,2.975-1.614,5.76.126,8.191,1.84C805.417,865.019,805.917,864.152,805.394,863.783Z" fill="#fff"/>
        <path id="Trazado_124205" data-name="Trazado 124205" d="M876.293,867.483a5.5,5.5,0,0,0-8.173-1.987c-.521.368-.022,1.235.505.863a4.512,4.512,0,0,1,6.8,1.628C875.728,868.558,876.591,868.053,876.293,867.483Z" fill="#fff"/>
        <path id="Trazado_124206" data-name="Trazado 124206" d="M808.2,938.409c-8.023.358-16.642,4.832-16.86,13.826a.5.5,0,0,0,1,0c.2-8.424,8.408-12.494,15.86-12.826C808.837,939.38,808.841,938.38,808.2,938.409Z" fill="#fff"/>
        <path id="Trazado_124207" data-name="Trazado 124207" d="M891.964,865.707c-.041-.639-1.042-.644-1,0,.419,6.531-3.416,12.036-8.667,15.563-4.467,3-11.492,5.787-16.824,3.587a53.922,53.922,0,0,0-1.061-6.931c-1.4-6.33-4.16-12.05-9.54-15.9-.64-.46-1.3-.88-1.97-1.27a23.154,23.154,0,0,0,2.937-13.874C865.205,834,888.3,844,890.98,857.728c.123.631,1.087.364.964-.266-1.544-7.9-9.252-13.694-16.461-16.256-6.914-2.457-15.044-1.421-19.855,4.368a19.013,19.013,0,0,0-6.945-11.4c.115-8.81,5.427-15.134,13.036-18.965.574-.29.069-1.153-.505-.864-7.709,3.882-13.1,10.32-13.5,19.1-8.283-6.029-19.681-7.112-28.164-.8a.526.526,0,0,0-.12.14,30.426,30.426,0,0,0-10.34-5.31c-.48.21-.95.43-1.42.65,6.12,1.66,12.53,5.02,15.43,10.67,3.19,6.22,2.96,13.92.65,20.42a25.522,25.522,0,0,0-6.53,3.19,32.66,32.66,0,0,0-11.07,13.39,31.034,31.034,0,0,0-2.38,14.34,24.487,24.487,0,0,0-8.04-14.45,17.267,17.267,0,0,0-14.56-3.72,20.589,20.589,0,0,1-9.51-19.91c.08-.64-.92-.64-1,0a21.563,21.563,0,0,0,9.22,20.26,13.645,13.645,0,0,0-6.78,4.71,16.166,16.166,0,0,0-.69-1.87c-2.42-5.39-7.43-9.52-13.47-9.64a.5.5,0,0,0,0,1c5.99.12,10.91,4.54,12.96,10,2.4,6.44.58,13.66-2.43,19.56-5.5,10.78-17.58,21.91-30.47,15.88-.58-.27-1.09.59-.5.86,14.01,6.55,27.14-5.85,32.6-17.82,2.39-5.24,3.72-11.34,2.29-16.98a.5.5,0,0,0,.35-.21,12.342,12.342,0,0,1,7.16-4.83.444.444,0,0,0,.63-.14,17.248,17.248,0,0,1,15.58,5.59c6.96,7.82,7.09,18.73,5.94,28.59-5.9-1.97-13.24-.19-18.49,2.66-5.61,3.05-10.47,7.87-12.68,13.91a10.121,10.121,0,0,0-3.2-4.99c-4.49-3.7-10.74-3.01-15.61-.51-4.81,2.47-10.36,7.29-10.76,13.03.2.22.41.45.62.67a.476.476,0,0,0,.36-.45c.25-5.17,5.3-9.6,9.53-11.98,4.66-2.61,10.82-3.62,15.23.04s3.81,10.62,2.74,15.67a56.145,56.145,0,0,1-2.09,7.1c-.74,2.09-1.75,7.04-4.03,7.9-.59.22-.33,1.19.27.96,2.12-.79,2.66-3.18,3.42-5.1.47-1.23.93-2.46,1.37-3.7A22.3,22.3,0,0,0,784.8,958.8c9.16,2.84,21.01,3.56,27.9-4.33a.491.491,0,0,0,.12-.28c10.92-11.84,9.67-30.21-1.24-41.69a18.491,18.491,0,0,0-6.69-4.56.457.457,0,0,0-.25-.3c-.21-.09-.42-.17-.63-.26a63.706,63.706,0,0,0,.35-13.19,31.907,31.907,0,0,0,2.09,6.45c2.84,6.35,7.08,11.81,13.39,14.96a27.11,27.11,0,0,0,18.1,2.19c.62-.14.36-1.1-.27-.96a26.047,26.047,0,0,1-17.66-2.26c-6-3.1-9.99-8.35-12.69-14.43a30.045,30.045,0,0,1-.7-22.81c3.04-8.04,9.37-15.01,17.82-17.32a55.367,55.367,0,0,1,10.85-1.95c6.44-.44,13.01.76,18.44,4.39,5.53,3.7,8.31,9.4,9.71,15.74,1.61,7.25,1.66,13.79-.59,20.9-.19.62.77.88.96.27a37.1,37.1,0,0,0,1.727-13.42c5.759,2.147,13.25-.923,17.909-4.251C888.671,877.955,892.387,872.309,891.964,865.707Zm-80.012,48.679c9.72,11.31,10.31,28.55-.24,39.53a.5.5,0,0,0-.13.26c-6.56,6.99-17.19,6.29-25.73,3.89a21.347,21.347,0,0,1-15.46-17.75,47.9,47.9,0,0,0,1.46-5.44,27.281,27.281,0,0,0,.42-9.69.455.455,0,0,0,.21-.27c1.85-6.04,6.44-10.78,11.81-13.94,2.65-1.56,11.44-5.26,18.52-2.84a.5.5,0,0,0,.13.04C804.462,908.546,809.7,911.776,811.952,914.386Zm23.8-57.36a48.722,48.722,0,0,0-10.83,1.84c2.19-6.62,2.26-14.33-.95-20.58a17.191,17.191,0,0,0-3.81-4.85c8.26-6.06,19.28-4.98,27.27,1.02,3.984,2.985,6.86,6.978,7.526,12a.382.382,0,0,0,.035.39,22.8,22.8,0,0,1-2.961,13.433A31.218,31.218,0,0,0,835.752,857.026Z" fill="#080405"/>
        <path id="Trazado_124208" data-name="Trazado 124208" d="M760.3,1016.862c-11.29,3.495-24.935.533-30.754-10.492-4.231-8.018-5.032-17.5-10.811-24.744-.4-.5-1.105.209-.707.707,6.556,8.217,6.526,19.648,12.826,27.988,6.7,8.874,19.64,10.624,29.712,7.506C761.175,1017.637,760.914,1016.671,760.3,1016.862Z" fill="#080405"/>
      </g>
    </g>
  </g>
</svg>
