<svg xmlns="http://www.w3.org/2000/svg" width="400" height="238" viewBox="0 0 400 238">
  <g id="img3" transform="translate(-599.999 -1638)">
    <rect id="Rectángulo_35648" data-name="Rectángulo 35648" width="400" height="238" transform="translate(599.999 1638)" fill="#95c0d9"/>
    <path id="Trazado_126310" data-name="Trazado 126310" d="M90.787,291.92s20.243-27.95,73.728-22.6,47.6,29.733,84.628,28.544,77.343-18.435,110.233,15.434c38.156,39.293-27.046,72.711-1.15,96.723,46.4,43.021,0,93.729-103.619,84.1-85.934-7.981-86.7-19.181-136.586-5.616s-95.237-36.527-77.116-75.745,64.175-24.263,42.6-56.289S90.787,291.92,90.787,291.92Z" transform="translate(582.715 1374.25)" fill="#b3dcf5"/>
    <g id="Grupo_133057" data-name="Grupo 133057" transform="translate(652.094 1656.004)">
      <path id="Trazado_126311" data-name="Trazado 126311" d="M26.5,411s19.123,10.934,30.6,9.453,33.417-61.282,24.985-62.573S34.148,360.434,26.5,411Z" transform="translate(-24.789 -250.509)" fill="#2d3339"/>
      <path id="Trazado_126312" data-name="Trazado 126312" d="M100.731,306.981s11.135,1.759,16.727,14.167c4.244,9.417-1.137,17.476,8.725,28.062s10.476,26.536-8.887,28.469c-12.016,1.2-17.458,10.375-28.165,8.242s-10.8-3.6-20.993-2.883c-11.917.843-17.8-1.543-21.874-9.336-6.787-12.972,4.357-19.9,3.82-31.694C49.523,329.667,56.612,294.458,100.731,306.981Z" transform="translate(-13.337 -285.305)" fill="#352b4c"/>
      <path id="Trazado_126313" data-name="Trazado 126313" d="M94.875,334.6s-.753,29.554-.084,33.929,35.394,8.267,44.332,15.919-27.235,23.7-44.316,34.681c-13.091,8.416-49.531-42.739-38.573-43.594s13.123-4.114,16.422-11.413c3.324-7.353-1.454-15.335-1.454-15.335S93.333,335.891,94.875,334.6Z" transform="translate(-6.724 -265.568)" fill="#eaac90"/>
      <path id="Trazado_126314" data-name="Trazado 126314" d="M98.661,321.008s9.333,48.4-18.206,51.367C61.512,374.419,50.41,343.1,54.263,327.653S86.423,310.088,98.661,321.008Z" transform="translate(-7.184 -278.888)" fill="#eaac90"/>
      <ellipse id="Elipse_4902" data-name="Elipse 4902" cx="1.688" cy="2.162" rx="1.688" ry="2.162" transform="translate(54.703 64.878) rotate(-6.188)" fill="#2e1f35"/>
      <ellipse id="Elipse_4903" data-name="Elipse 4903" cx="1.688" cy="2.162" rx="1.688" ry="2.162" transform="translate(77.869 64.878) rotate(-6.188)" fill="#2e1f35"/>
      <path id="Trazado_126315" data-name="Trazado 126315" d="M59.264,335.866s-4.081-8.776-7.722-4.38,2.025,14.851,5.918,14.388S61.5,339.387,59.264,335.866Z" transform="translate(-9.225 -268.4)" fill="#eaac90"/>
      <path id="Trazado_126316" data-name="Trazado 126316" d="M89.453,336.7s1.649-9.537-3.848-8-6.8,13.357-3.341,15.2S89.279,340.862,89.453,336.7Z" transform="translate(10.324 -269.525)" fill="#eaac90"/>
      <path id="Trazado_126317" data-name="Trazado 126317" d="M93.79,309.615s14.226,6.405,14.623,22.371c.154,6.215-21.6,8.639-25.573,3.846s-4.831-18.5-4.831-18.5.742,16.387-5.341,20.9-23.106,3.175-21.694,1.143S53.656,313.02,68.5,307.386,93.79,309.615,93.79,309.615Z" transform="translate(-8.886 -284.637)" fill="#352b4c"/>
      <path id="Trazado_126318" data-name="Trazado 126318" d="M70.847,352.7a13.108,13.108,0,0,1-6.078-1.484l.975-1.646c.283.165,6.978,3.973,13.37-2.559l1.366,1.337A13.2,13.2,0,0,1,70.847,352.7Z" transform="translate(0.163 -257.473)" fill="#e1916e"/>
      <ellipse id="Elipse_4904" data-name="Elipse 4904" cx="4.972" cy="4.972" rx="4.972" ry="4.972" transform="translate(78.206 68.808)" fill="#e1916e"/>
      <ellipse id="Elipse_4905" data-name="Elipse 4905" cx="4.972" cy="4.972" rx="4.972" ry="4.972" transform="translate(51.693 69.401)" fill="#e1916e"/>
      <path id="Trazado_126319" data-name="Trazado 126319" d="M74.7,357.933s.58,14.21,7.985,16.119c9.736,2.511,29.187-16.855,29.187-16.855,10.887-.195,39.285.441,48.53,13.914,7.677,11.185,4.649,37.492-1.475,39.255-7.03,2.024-116.441,6.757-120.255,4.087s6.066-43.625,15.008-49.79C65.511,356.506,74.7,357.933,74.7,357.933Z" transform="translate(-17.404 -250.846)" fill="#2d3339"/>
      <ellipse id="Elipse_4906" data-name="Elipse 4906" cx="14.514" cy="14.514" rx="14.514" ry="14.514" transform="translate(78.487 0)" fill="#352b4c"/>
      <path id="Trazado_126320" data-name="Trazado 126320" d="M32.586,378.312h0c7.112.439,24,5.961,25.873,13.241s13.7,53.4-15.234,42.673C10.9,422.241,32.586,378.312,32.586,378.312Z" transform="translate(-25.466 -237.062)" fill="#eaac90"/>
      <path id="Trazado_126321" data-name="Trazado 126321" d="M53.82,370.443s-6.387,20.332-7.106,36.134-12.762,46.331-7.923,45.578,110.2,6.03,112.529.013C186.382,361.633,72.015,366.382,53.82,370.443Z" transform="translate(-17.522 -243.341)" fill="#2d3339"/>
      <path id="Trazado_126322" data-name="Trazado 126322" d="M78.761,334.281c-5.344-5.174-4.77-26.372-4.741-27.273l1.913.058c-.178,5.9.223,22.031,4.158,25.84Z" transform="translate(6.175 -283.558)" fill="#443965"/>
      <path id="Trazado_126323" data-name="Trazado 126323" d="M60.2,331.688c-.05-.135-4.665-13.792,12.42-24.788l1.034,1.609C57.825,318.694,61.953,330.925,62,331.047Z" transform="translate(-3.213 -283.628)" fill="#443965"/>
      <path id="Trazado_126324" data-name="Trazado 126324" d="M53.209,332.079l-1.837-.53c.258-.891,6.486-21.85,22.093-25.1l.39,1.873C59.363,311.339,53.269,331.873,53.209,332.079Z" transform="translate(-8.573 -283.922)" fill="#443965"/>
      <path id="Trazado_126325" data-name="Trazado 126325" d="M86.574,331.293l-1.835-.537c.038-.129,3.633-12.947-5.313-21.879l1.353-1.355C90.539,317.272,86.74,330.727,86.574,331.293Z" transform="translate(9.72 -283.222)" fill="#443965"/>
      <path id="Trazado_126326" data-name="Trazado 126326" d="M58.7,356.694c-.238-.157-5.807-3.963-5.3-16.106l1.91.081c-.466,11.071,4.39,14.395,4.439,14.426Z" transform="translate(-7.269 -261.661)" fill="#443965"/>
      <path id="Trazado_126327" data-name="Trazado 126327" d="M91.97,334.6c.19.211,4.6,5.32.99,16.926l-1.826-.568c3.289-10.582-.55-15.039-.59-15.082Z" transform="translate(16.97 -265.568)" fill="#443965"/>
      <path id="Trazado_126328" data-name="Trazado 126328" d="M89.979,337.112c.1.268,2.3,6.645-5.349,16.088L83.144,352c6.973-8.611,5.059-14.173,5.037-14.228Z" transform="translate(12.145 -263.927)" fill="#443965"/>
      <path id="Trazado_126329" data-name="Trazado 126329" d="M52.811,356.988c-.349-.112-8.485-2.98-2.845-21.67l1.831.553c-5.022,16.643,1.536,19.275,1.6,19.3Z" transform="translate(-10.784 -265.097)" fill="#443965"/>
      <path id="Trazado_126330" data-name="Trazado 126330" d="M76.735,309.776c-1.066-10.757,9.22-13.63,9.324-13.658l.5,1.847c-.36.1-8.821,2.5-7.917,11.622Z" transform="translate(7.915 -290.659)" fill="#443965"/>
      <path id="Trazado_126331" data-name="Trazado 126331" d="M84.917,312.138a12.107,12.107,0,0,1-4.272-.78l-1.325-.57,1.041-1c3.372-3.235,7.107-11.679,7.145-11.763l1.75.77c-.142.325-3.227,7.291-6.5,11.218a7.955,7.955,0,0,0,9.27-4.289l1.683.907A9.561,9.561,0,0,1,84.917,312.138Z" transform="translate(9.651 -289.415)" fill="#443965"/>
      <path id="Trazado_126332" data-name="Trazado 126332" d="M92.182,336.911a20.879,20.879,0,0,1-5.242-12.858l1.913,0a19.273,19.273,0,0,0,4.753,11.583Z" transform="translate(14.62 -272.444)" fill="#443965"/>
      <path id="Trazado_126333" data-name="Trazado 126333" d="M92.783,376.727s33.407-.1,39.647,8.977-13.278,39.86-13.833,41.157-38.053-13.9-35.366-20.382S92.783,376.727,92.783,376.727Z" transform="translate(12.111 -238.095)" fill="#eaac90"/>
      <path id="Trazado_126334" data-name="Trazado 126334" d="M149.253,418.185s-8.5,15.126-23.955,16.076-63.034-38.105-79.034-39.042-5.858-6.187,13.423-8.745S142.6,394.508,149.253,418.185Z" transform="translate(-17.071 -231.983)" fill="#eaac90"/>
      <path id="Trazado_126335" data-name="Trazado 126335" d="M25.472,400.648s-.547,27.444,28.771,30.294,68.287-34.808,76.113-36.64-68.211-9.455-83.625-4.218S25.472,400.648,25.472,400.648Z" transform="translate(-25.462 -230.564)" fill="#eaac90"/>
      <path id="Trazado_126336" data-name="Trazado 126336" d="M67.981,344.384l-1.436-1.036c.112-.157,2.8-3.835,6.351-4.223a5.773,5.773,0,0,1,4.578,1.6l-1.18,1.322a4.027,4.027,0,0,0-3.2-1.166C70.328,341.183,68.005,344.35,67.981,344.384Z" transform="translate(1.321 -262.636)" fill="#261e35"/>
      <path id="Trazado_126337" data-name="Trazado 126337" d="M62.589,332.5c-.758-1.191-3.53-1.6-4.441-1.649l.093-1.766c.453.021,4.457.289,5.842,2.463Z" transform="translate(-4.155 -269.162)" fill="#261e35"/>
      <path id="Trazado_126338" data-name="Trazado 126338" d="M73.764,332.5l-1.493-.952c1.386-2.174,5.391-2.442,5.842-2.463l.093,1.766C77.295,330.9,74.523,331.309,73.764,332.5Z" transform="translate(5.055 -269.162)" fill="#261e35"/>
      <path id="Trazado_126339" data-name="Trazado 126339" d="M67.794,332.458s-5.186,8.064-3.863,9.154,4.272,2.2,5.178,1.008S69.124,330.266,67.794,332.458Z" transform="translate(-0.524 -267.148)" fill="#e1916e"/>
      <path id="Trazado_126340" data-name="Trazado 126340" d="M90.188,380.916l-1.764-.157c0-.061.548-6.286.56-10.334l1.769,0C90.744,374.554,90.193,380.851,90.188,380.916Z" transform="translate(15.588 -242.205)" fill="#261e35"/>
      <path id="Trazado_126341" data-name="Trazado 126341" d="M71.2,377.447a9.3,9.3,0,0,1-3.889-.8c-8.259-3.767-9.61-15.553-9.665-16.055L59.4,360.4c.012.112,1.3,11.287,8.639,14.631,7.272,3.311,18.9-7.18,19.022-7.284l1.193,1.307C87.823,369.456,78.963,377.447,71.2,377.447Z" transform="translate(-4.484 -248.739)" fill="#261e35"/>
      <path id="Trazado_126342" data-name="Trazado 126342" d="M45.287,388.541l-1.75-.283c.01-.06.958-5.852,2.45-11.664l1.715.438C46.232,382.767,45.295,388.485,45.287,388.541Z" transform="translate(-13.682 -238.181)" fill="#261e35"/>
      <path id="Trazado_126343" data-name="Trazado 126343" d="M85.372,414.156c-.322-.2-32.274-20.539-43.982-21.418l.132-1.768c12.151.914,43.475,20.846,44.8,21.7Z" transform="translate(-15.082 -228.807)" fill="#e1916e"/>
      <path id="Trazado_126344" data-name="Trazado 126344" d="M83.077,337.676l-1.759-.207c.254-2.158,2.209-5.759,2.291-5.911l1.555.848A20.51,20.51,0,0,0,83.077,337.676Z" transform="translate(10.954 -267.549)" fill="#e1916e"/>
      <path id="Trazado_126345" data-name="Trazado 126345" d="M54.764,338.83c-.111-1.764-2.034-3.633-2.766-4.206l1.092-1.394c.132.1,3.256,2.579,3.441,5.49Z" transform="translate(-8.165 -266.46)" fill="#e1916e"/>
    </g>
    <g id="Grupo_133059" data-name="Grupo 133059" transform="translate(790.302 1661.053)">
      <path id="Trazado_126346" data-name="Trazado 126346" d="M226.163,411s-19.123,10.934-30.6,9.453-33.418-61.282-24.985-62.573S215.966,360.441,226.163,411Z" transform="translate(-70.274 -255.557)" fill="#2d3339"/>
      <path id="Trazado_126347" data-name="Trazado 126347" d="M150.4,311.1s-10.436,4.267-13.033,17.626c-1.971,10.139,5.113,16.749-2.057,29.315s-4.11,28.231,15.178,25.673c11.971-1.588,19.372,6.095,29.3,1.563s9.683-5.985,19.772-7.621c11.793-1.911,16.969-5.582,19.149-14.1,3.631-14.183-8.8-18.369-10.986-29.974C205.441,321.439,190.466,288.792,150.4,311.1Z" transform="translate(-94.36 -290.901)" fill="#352b4c"/>
      <path id="Trazado_126348" data-name="Trazado 126348" d="M169.18,334.6s.752,29.554.084,33.929-35.394,8.267-44.334,15.919,27.235,23.7,44.316,34.681c13.093,8.416,49.531-42.739,38.575-43.594S194.7,371.418,191.4,364.119c-3.324-7.353,1.454-15.335,1.454-15.335S170.72,335.891,169.18,334.6Z" transform="translate(-99.726 -270.617)" fill="#eaac90"/>
      <path id="Trazado_126349" data-name="Trazado 126349" d="M143.471,325.612s2.014,49.245,29.5,45.822c18.906-2.356,22.531-35.383,15.237-49.536S152.88,312.176,143.471,325.612Z" transform="translate(-86.724 -284.577)" fill="#eaac90"/>
      <ellipse id="Elipse_4907" data-name="Elipse 4907" cx="1.688" cy="2.162" rx="1.688" ry="2.162" transform="translate(94.411 55.168) rotate(-7.07)" fill="#2e1f35"/>
      <ellipse id="Elipse_4908" data-name="Elipse 4908" cx="1.688" cy="2.162" rx="1.688" ry="2.162" transform="translate(71.863 60.481) rotate(-7.07)" fill="#2e1f35"/>
      <path id="Trazado_126350" data-name="Trazado 126350" d="M171.6,332.567s1.959-9.476,6.511-6.033,1.436,14.92-2.458,15.363S170.232,336.507,171.6,332.567Z" transform="translate(-68.703 -276.365)" fill="#eaac90"/>
      <path id="Trazado_126351" data-name="Trazado 126351" d="M142.547,340.042s-3.792-8.9,1.911-8.668,9.683,11.441,6.736,14.023S143.672,344.059,142.547,340.042Z" transform="translate(-88.132 -272.721)" fill="#eaac90"/>
      <path id="Trazado_126352" data-name="Trazado 126352" d="M148.774,312.953s-12.377,9.5-9.1,25.128c1.275,6.085,23.005,3.453,25.773-2.121s.459-19.111.459-19.111,3.038,16.121,9.993,19.12,23.218-2.209,21.376-3.861-8.654-25.044-24.395-27.124S148.774,312.953,148.774,312.953Z" transform="translate(-89.561 -290.111)" fill="#352b4c"/>
      <path id="Trazado_126353" data-name="Trazado 126353" d="M167,350.818a13.106,13.106,0,0,0,5.576-2.837l-1.325-1.38c-.238.226-5.881,5.468-13.6.575l-1.024,1.616A13.2,13.2,0,0,0,167,350.818Z" transform="translate(-78.149 -262.788)" fill="#e1916e"/>
      <ellipse id="Elipse_4909" data-name="Elipse 4909" cx="4.972" cy="4.972" rx="4.972" ry="4.972" transform="translate(67.115 64.975)" fill="#e1916e"/>
      <ellipse id="Elipse_4910" data-name="Elipse 4910" cx="4.972" cy="4.972" rx="4.972" ry="4.972" transform="translate(93.057 59.472)" fill="#e1916e"/>
      <path id="Trazado_126354" data-name="Trazado 126354" d="M201.779,357.438s2.97,17.652-4.434,19.564c-9.736,2.511-26.985-20.218-26.985-20.218-10.887-.193-41.347,1.12-50.594,14.593-7.676,11.185-4.647,37.492,1.477,39.255,7.028,2.024,116.439,6.757,120.255,4.087s-6.066-43.625-15.008-49.79A43.894,43.894,0,0,0,201.779,357.438Z" transform="translate(-105.162 -256.159)" fill="#2d3339"/>
      <ellipse id="Elipse_4911" data-name="Elipse 4911" cx="14.514" cy="14.514" rx="14.514" ry="14.514" transform="translate(34.42 0)" fill="#352b4c"/>
      <path id="Trazado_126355" data-name="Trazado 126355" d="M211.99,378.312h0c-7.114.439-24.006,5.961-25.875,13.241s-13.7,53.4,15.236,42.673C233.677,422.241,211.99,378.312,211.99,378.312Z" transform="translate(-61.505 -242.11)" fill="#eaac90"/>
      <path id="Trazado_126356" data-name="Trazado 126356" d="M220.928,369.748s6.387,20.332,7.1,36.134,12.762,46.331,7.925,45.578-112.2,8.977-112.256,2.524C122.76,338.917,201.2,383.9,220.928,369.748Z" transform="translate(-99.621 -247.694)" fill="#2d3339"/>
      <path id="Trazado_126357" data-name="Trazado 126357" d="M149.9,335.775c4.016-6.263-1.406-26.762-1.639-27.633l-1.849.5c1.525,5.7,4.834,21.494,1.877,26.1Z" transform="translate(-84.808 -287.867)" fill="#443965"/>
      <path id="Trazado_126358" data-name="Trazado 126358" d="M171.886,327.818c.017-.144,1.379-14.5-17.773-21.279l-.638,1.8c17.738,6.285,16.524,19.136,16.511,19.265Z" transform="translate(-80.201 -288.912)" fill="#443965"/>
      <path id="Trazado_126359" data-name="Trazado 126359" d="M182.007,325.777l1.669-.937c-.456-.81-11.325-19.78-27.261-19.364l.05,1.913C171.262,307,181.9,325.591,182.007,325.777Z" transform="translate(-78.284 -289.609)" fill="#443965"/>
      <path id="Trazado_126360" data-name="Trazado 126360" d="M142.706,334.54l1.664-.943c-.066-.117-6.506-11.771.154-22.515l-1.627-1.008C135.632,321.8,142.413,334.024,142.706,334.54Z" transform="translate(-89.281 -286.607)" fill="#443965"/>
      <path id="Trazado_126361" data-name="Trazado 126361" d="M174.957,352.99c.195-.207,4.745-5.189,1.462-16.891l-1.84.517c2.992,10.669-.971,15.018-1.011,15.059Z" transform="translate(-67.098 -269.636)" fill="#443965"/>
      <path id="Trazado_126362" data-name="Trazado 126362" d="M137.276,338.985c-.135.249-3.255,6.232,2.918,16.7l1.647-.971c-5.629-9.546-2.913-14.765-2.885-14.816Z" transform="translate(-91.355 -267.754)" fill="#443965"/>
      <path id="Trazado_126363" data-name="Trazado 126363" d="M141.52,340.488c-.033.282-.715,6.995,8.9,14.433l1.17-1.513c-8.763-6.782-8.173-12.635-8.166-12.693Z" transform="translate(-88.011 -266.774)" fill="#443965"/>
      <path id="Trazado_126364" data-name="Trazado 126364" d="M181.035,351.75c.314-.19,7.576-4.847-2.2-21.745l-1.654.957c8.7,15.049,2.924,19.115,2.865,19.153Z" transform="translate(-64.742 -273.61)" fill="#443965"/>
      <path id="Trazado_126365" data-name="Trazado 126365" d="M149.143,310.61c-1.429-10.714-12.1-11.153-12.209-11.155l-.058,1.911c.373.013,9.159.413,10.372,9.5Z" transform="translate(-91.025 -293.531)" fill="#443965"/>
      <path id="Trazado_126366" data-name="Trazado 126366" d="M142.832,314.895a12.062,12.062,0,0,0,3.98-1.738l1.16-.857-1.242-.734c-4.023-2.376-9.6-9.739-9.651-9.812l-1.528,1.15c.215.284,4.813,6.357,8.9,9.427a7.955,7.955,0,0,1-10.007-2.047l-1.429,1.269A9.557,9.557,0,0,0,142.832,314.895Z" transform="translate(-93.542 -292.032)" fill="#443965"/>
      <path id="Trazado_126367" data-name="Trazado 126367" d="M138.207,341.414a20.876,20.876,0,0,0,2.154-13.717l-1.862.438a19.28,19.28,0,0,1-1.971,12.364Z" transform="translate(-91.252 -275.115)" fill="#443965"/>
      <path id="Trazado_126368" data-name="Trazado 126368" d="M170.942,329.04c-.791-.453-3.341-1.609-4.626-1.019l-.742-1.607c2.341-1.084,5.855.862,6.247,1.089Z" transform="translate(-72.311 -276.165)" fill="#261e35"/>
      <path id="Trazado_126369" data-name="Trazado 126369" d="M151.794,332.437l-1.113-1.376c.35-.286,3.5-2.777,5.99-2.073l-.474,1.7C154.831,330.32,152.5,331.863,151.794,332.437Z" transform="translate(-82.023 -274.355)" fill="#261e35"/>
      <g id="Grupo_133058" data-name="Grupo 133058" transform="translate(0 49.851)">
        <path id="Trazado_126370" data-name="Trazado 126370" d="M120.528,348.993s-11.152-17.479-5.581-17.489c2.045,0,9.095,9.949,9.095,9.949s-6-15.6-2.419-13.641S133.2,341.745,133.2,341.745s-2.843-16.855-.324-15.639,6.324,13.332,7.388,29.87c.453,7.031,16.605,79.92,3.142,95.976-7.572,9.03-21.965,9.876-29.615-3.9s7.841-87.3,5.2-90.23-11.9-14.172-9.473-16.742C110.808,339.723,120.528,348.993,120.528,348.993Z" transform="translate(-109.122 -326.044)" fill="#eaac90"/>
        <path id="Trazado_126371" data-name="Trazado 126371" d="M122.383,351.271c-.167-.4-4.059-9.9-1.1-14.183a5.125,5.125,0,0,1,4.745-2.073l-.058,1.771a3.443,3.443,0,0,0-3.23,1.307c-2,2.894.248,10.005,1.282,12.5Z" transform="translate(-101.916 -320.199)" fill="#261e35"/>
      </g>
      <path id="Trazado_126372" data-name="Trazado 126372" d="M161.267,330.988s6.552,6.858,4.75,8.257-5.406,3.694-5.9,2.384S159.223,328.663,161.267,330.988Z" transform="translate(-76.127 -273.169)" fill="#e1916e"/>
      <path id="Trazado_126373" data-name="Trazado 126373" d="M158.917,340.665s11.3-3.775,11.284-1.361-4.163,9.458-5.589,9.1S153.513,342.992,158.917,340.665Z" transform="translate(-77.713 -268.073)" fill="#f7ece9"/>
      <path id="Trazado_126374" data-name="Trazado 126374" d="M159.122,398.106c-17.339,0-20.55-12.589-20.582-12.721l1.721-.415c.126.512,3.291,12.539,21.429,11.272l.124,1.768Q160.414,398.107,159.122,398.106Z" transform="translate(-89.94 -237.768)" fill="#261e35"/>
      <path id="Trazado_126375" data-name="Trazado 126375" d="M177.439,401.1c-.152,0-.248,0-.278,0l.064-1.771c.073,0,7.137.193,10.877-4.548,2.66-3.372,3.078-8.447,1.241-15.082l1.707-.474c2,7.218,1.472,12.823-1.565,16.663C185.582,400.817,178.9,401.1,177.439,401.1Z" transform="translate(-64.755 -241.519)" fill="#261e35"/>
      <path id="Trazado_126376" data-name="Trazado 126376" d="M171.732,377.537c-8.951,0-18.943-12.179-19.392-12.733l1.375-1.117c.112.137,11.224,13.661,19.531,11.926a7.2,7.2,0,0,0,4.809-3.091c2.133-3.321,1.1-8.034,1.092-8.082l1.726-.393c.051.221,1.209,5.467-1.322,9.422a8.9,8.9,0,0,1-5.941,3.877A9.184,9.184,0,0,1,171.732,377.537Z" transform="translate(-80.941 -251.646)" fill="#261e35"/>
      <path id="Trazado_126377" data-name="Trazado 126377" d="M146.623,339.922a12.885,12.885,0,0,0-3.474-4.059l1.066-1.414a14.541,14.541,0,0,1,4.028,4.753Z" transform="translate(-86.934 -270.712)" fill="#e1916e"/>
      <path id="Trazado_126378" data-name="Trazado 126378" d="M174.79,334.516l-1.753-.241a26.516,26.516,0,0,1,1.444-5.072l1.646.649A25.568,25.568,0,0,0,174.79,334.516Z" transform="translate(-67.445 -274.133)" fill="#e1916e"/>
    </g>
    <path id="Trazado_124213" data-name="Trazado 124213" d="M258.24,127.747a4.316,4.316,0,0,1-2.5-.058,3.675,3.675,0,0,1-1.666-1.77c-2.26-4.323-.575-9.7,2.068-13.8s6.214-7.637,8.168-12.105c1.649-3.775,2.049-8.02,3.848-11.724s5.84-6.934,9.78-5.729c8.837,2.7,6.071,21.085,3.552,27.488C277.949,119.065,267.444,126,258.24,127.747Z" transform="translate(370.98 1638.786)" fill="#b3dcf5"/>
    <path id="Trazado_126380" data-name="Trazado 126380" d="M278.758,127.748a4.316,4.316,0,0,0,2.5-.058,3.675,3.675,0,0,0,1.666-1.77c2.26-4.323.575-9.7-2.068-13.8s-6.214-7.637-8.168-12.105c-1.649-3.775-2.049-8.02-3.848-11.725s-5.84-6.934-9.78-5.729c-8.837,2.7-6.071,21.086-3.552,27.489C259.049,119.066,269.555,126,278.758,127.748Z" transform="translate(816.422 1516.035) rotate(39)" fill="#b3dcf5"/>
  </g>
</svg>
