<svg xmlns="http://www.w3.org/2000/svg" xmlns:xlink="http://www.w3.org/1999/xlink" width="333" height="171" viewBox="0 0 333 171">
  <defs>
    <clipPath id="clip-path">
      <rect id="Rect치ngulo_35870" data-name="Rect치ngulo 35870" width="333" height="171" rx="17" transform="translate(223.333 5372.5)" fill="#fff" opacity="0.429"/>
    </clipPath>
  </defs>
  <g id="img4" transform="translate(-219.333 -5372.5)">
    <rect id="Rect치ngulo_35682" data-name="Rect치ngulo 35682" width="333" height="171" rx="17" transform="translate(219.333 5372.5)" fill="#67bafe" opacity="0.996"/>
    <g id="Enmascarar_grupo_77" data-name="Enmascarar grupo 77" transform="translate(-4)" clip-path="url(#clip-path)">
      <g id="Grupo_132539" data-name="Grupo 132539" transform="translate(229.494 5329.482)">
        <path id="Trazado_125585" data-name="Trazado 125585" d="M142.228,155.4s12.6-1.988,15.6-12.289S131,111.943,123.117,110.077,129.63,156.986,142.228,155.4Z" transform="translate(63.097 56.784)" fill="#352b4c"/>
        <path id="Trazado_125586" data-name="Trazado 125586" d="M113.022,63.306s-12.242,2.311-18.01,16.2c-4.378,10.543,1.829,19.268-8.714,31.287s-10.7,29.658,10.754,31.156c13.312.929,19.628,10.885,31.384,8.176s11.809-4.337,23.094-3.877c13.192.54,19.611-2.29,23.855-11.034,7.068-14.553-5.468-21.836-5.263-34.884C170.337,86.679,161.346,48.017,113.022,63.306Z" transform="translate(24.25 9.786)" fill="#352b4c"/>
        <path id="Trazado_125587" data-name="Trazado 125587" d="M126.268,85.872s-.387,32.669-1.306,37.473-39.428,7.67-49.617,15.755,29.1,27.294,47.513,40.125c14.112,9.836,56.257-43.934,44.4-46.553-12.467-2.752-18.755-4.378-18.755-9.834,0-8.919,3.327-20.321,3.327-20.321S127.915,87.366,126.268,85.872Z" transform="translate(18.959 34.189)" fill="#fa936d"/>
        <path id="Trazado_125588" data-name="Trazado 125588" d="M95.316,77.334S86.6,131.1,117.12,133.478c20.994,1.632,32.224-33.327,27.461-50.267S108.476,64.868,95.316,77.334Z" transform="translate(38.118 18.477)" fill="#ffaf91"/>
        <ellipse id="Elipse_4873" data-name="Elipse 4873" cx="2.389" cy="1.865" rx="2.389" ry="1.865" transform="translate(170.716 124.211) rotate(-85.521)" fill="#2e1f35"/>
        <ellipse id="Elipse_4874" data-name="Elipse 4874" cx="2.389" cy="1.865" rx="2.389" ry="1.865" transform="translate(145.126 124.975) rotate(-85.521)" fill="#2e1f35"/>
        <path id="Trazado_125589" data-name="Trazado 125589" d="M119.538,90.188s4.219-9.828,8.387-5.092-1.748,16.473-6.062,16.09S117.188,94.152,119.538,90.188Z" transform="translate(60.507 32.256)" fill="#ffaf91"/>
        <path id="Trazado_125590" data-name="Trazado 125590" d="M90.624,92.187s-2.135-10.481,3.987-8.963,7.955,14.53,4.19,16.674S90.953,96.784,90.624,92.187Z" transform="translate(34.468 31.571)" fill="#ffaf91"/>
        <path id="Trazado_125591" data-name="Trazado 125591" d="M105.671,65.962S90.167,73.5,90.256,91.157c.035,6.871,24.144,8.83,28.375,3.4s4.727-20.592,4.727-20.592-.279,18.128,6.59,22.914,25.628,2.745,24,.548S150.116,68.4,133.532,62.666,105.671,65.962,105.671,65.962Z" transform="translate(34.461 10.697)" fill="#352b4c"/>
        <circle id="Elipse_4875" data-name="Elipse 4875" cx="5.494" cy="5.494" r="5.494" transform="translate(138.152 125.016)" fill="#fa936d"/>
        <circle id="Elipse_4876" data-name="Elipse 4876" cx="5.494" cy="5.494" r="5.494" transform="translate(167.459 124.797)" fill="#fa936d"/>
        <circle id="Elipse_4877" data-name="Elipse 4877" cx="16.04" cy="16.04" r="16.04" transform="translate(114.802 49.326)" fill="#352b4c"/>
        <path id="Trazado_125592" data-name="Trazado 125592" d="M99.372,92.779c5.735-5.894,4.4-29.29,4.339-30.283l-2.11.126c.389,6.507.478,24.345-3.743,28.682Z" transform="translate(41.572 12.321)" fill="#443965"/>
        <path id="Trazado_125593" data-name="Trazado 125593" d="M122.1,89.181c.048-.151,4.7-15.389-14.538-26.971l-1.09,1.812C124.293,74.75,120.136,88.4,120.091,88.535Z" transform="translate(49.634 12.053)" fill="#443965"/>
        <path id="Trazado_125594" data-name="Trazado 125594" d="M133,89.353l2.013-.646c-.316-.975-7.887-23.925-25.233-27l-.37,2.083C125.516,66.644,132.925,89.126,133,89.353Z" transform="translate(52.378 11.583)" fill="#443965"/>
        <path id="Trazado_125595" data-name="Trazado 125595" d="M92.691,89.606l2.011-.654c-.045-.141-4.44-14.183,5.148-24.343l-1.539-1.452C87.85,74.246,92.489,88.984,92.691,89.606Z" transform="translate(35.619 12.939)" fill="#443965"/>
        <path id="Trazado_125596" data-name="Trazado 125596" d="M118.73,111.916c.256-.18,6.285-4.57,5.319-17.965l-2.108.153c.881,12.213-4.372,16.045-4.426,16.082Z" transform="translate(59.962 41.747)" fill="#443965"/>
        <path id="Trazado_125597" data-name="Trazado 125597" d="M86.406,89c-.2.242-4.9,6.029-.536,18.73l2-.687c-3.983-11.58.11-16.63.153-16.68Z" transform="translate(28.625 37.112)" fill="#443965"/>
        <path id="Trazado_125598" data-name="Trazado 125598" d="M89,91.627c-.1.3-2.323,7.417,6.437,17.6l1.6-1.378c-7.988-9.281-6.054-15.49-6.033-15.55Z" transform="translate(32.98 39.573)" fill="#443965"/>
        <path id="Trazado_125599" data-name="Trazado 125599" d="M97.445,69.818a13.389,13.389,0,0,0,4.694-1l1.446-.674-1.183-1.07c-3.83-3.463-8.236-12.666-8.28-12.759l-1.908.908c.168.356,3.805,7.949,7.552,12.176a8.787,8.787,0,0,1-10.38-4.43l-1.829,1.059C90.364,68.882,94.35,69.909,97.445,69.818Z" transform="translate(31.935 4.667)" fill="#443965"/>
        <path id="Trazado_125600" data-name="Trazado 125600" d="M87.176,93.305A23.076,23.076,0,0,0,92.541,78.93l-2.112.06a21.3,21.3,0,0,1-4.87,12.952Z" transform="translate(30.068 27.695)" fill="#443965"/>
        <path id="Trazado_125601" data-name="Trazado 125601" d="M101.743,66.483a23.081,23.081,0,0,0-4.5-14.671l-1.639,1.335a21.3,21.3,0,0,1,4.026,13.239Z" transform="translate(39.466 2.326)" fill="#443965"/>
        <path id="Trazado_125602" data-name="Trazado 125602" d="M105.329,98.635,104.2,97.06c3.459-2.466,6.437-3.325,8.849-2.545a5.871,5.871,0,0,1,3.569,3.466l-1.829.629a3.9,3.9,0,0,0-2.354-2.261C110.669,95.792,108.207,96.582,105.329,98.635Z" transform="translate(47.509 42.014)" fill="#261e35"/>
        <path id="Trazado_125603" data-name="Trazado 125603" d="M110.628,86.161s6.782,12.908,4.442,12.947-5.938,2.663-7.231-.774S109.554,84.039,110.628,86.161Z" transform="translate(50.613 34.204)" fill="#fa936d"/>
        <path id="Trazado_125604" data-name="Trazado 125604" d="M101.185,86.047a20.029,20.029,0,0,1-2.746-.18l.285-1.914c1.457.219,5.636.451,7.463-1.006l1.208,1.512C105.765,85.76,103.166,86.047,101.185,86.047Z" transform="translate(42.116 31.452)" fill="#261e35"/>
        <path id="Trazado_125605" data-name="Trazado 125605" d="M121.416,86.233c-3.25,0-6.939-2.1-7.121-2.2l.964-1.678c1.276.732,5.077,2.479,7.314,1.792l.571,1.848A5.857,5.857,0,0,1,121.416,86.233Z" transform="translate(56.949 30.896)" fill="#261e35"/>
        <path id="Trazado_125606" data-name="Trazado 125606" d="M175.458,110.215s2.282,10.115-10.769,10.239c-19.386.184-19.113-10.586-24.192-13.279s-30.339-5.392-50.776,8.034-51.4,60.628,19.476,105.706c32.083,5.424,105.995-18.548,119.781-26.277s-15.206-47.868-27.537-62.622c-7.709-9.226-11.311-18.9-15.229-19.375A93.6,93.6,0,0,1,175.458,110.215Z" transform="translate(0 52.056)" fill="#262f36"/>
        <path id="Trazado_125607" data-name="Trazado 125607" d="M123.8,112.9c.381-.135,9.275-3.573,2.429-24.031l-2.005.672c6.1,18.219-1.061,21.343-1.134,21.37Z" transform="translate(65.177 36.988)" fill="#443965"/>
        <path id="Trazado_125611" data-name="Trazado 125611" d="M113.029,105.18a20.2,20.2,0,0,1-10.44-3.095L103.7,100.5c.366.255,9.062,6.145,17.865,0l1.107,1.587A16.546,16.546,0,0,1,113.029,105.18Z" transform="translate(45.998 47.87)" fill="#261e35"/>
        <path id="Trazado_125613" data-name="Trazado 125613" d="M69.464,153.1s32.412-32.418,37.32-29,16.357,18.4,16.357,18.4-18.509,41.563-25.508,39.879S69.464,162.476,69.464,153.1Z" transform="translate(15.01 69.719)" fill="#ffaf91"/>
        <path id="Trazado_125614" data-name="Trazado 125614" d="M114.317,108.789s5.493-12.883,10.99-13.245,11.54,4.5,14.075,9.31-9.078,7.543-8.433,12.3,3.306,87.018-14.315,94.76S86.688,210.43,79.757,200.8,109.91,112.4,114.317,108.789Z" transform="translate(23.834 43.22)" fill="#ffaf91"/>
        <path id="Trazado_125615" data-name="Trazado 125615" d="M131.222,107.889s-5.489-13.014-10.955-12.339-10.489,6.592-12.076,11.787,8.58,5.218,8.839,10.014,44.186,64.83,62.947,69.123,25.1-20,13.088-35.4C185.764,141.722,136.229,110.607,131.222,107.889Z" transform="translate(51.082 43.219)" fill="#ffaf91"/>
        <path id="Trazado_125616" data-name="Trazado 125616" d="M60.518,134.326c-.046-.362-1.041-8.888,4.752-10.113,1.446-.3,1.61-1.485,1.639-4.1.029-2.545.068-6.027,4.272-6.2,2.17-.087,2.7-1.332,3.441-3.052.995-2.321,2.23-5.214,7.91-4.616l-.2,1.924c-4.264-.435-5,1.275-5.932,3.455-.78,1.819-1.752,4.086-5.143,4.223-2.162.089-2.379,1.246-2.414,4.287-.027,2.369-.06,5.317-3.174,5.975-4.059.857-3.24,7.907-3.232,7.978Z" transform="translate(6.554 53.172)" fill="#261e35"/>
        <path id="Trazado_125617" data-name="Trazado 125617" d="M162.43,125.655l-1.936-.031c.068-4.283-1.709-4.866-3.96-5.607-1.881-.617-4.223-1.388-4.659-4.752-.277-2.148-1.448-2.259-4.481-2.032-2.363.182-5.3.4-6.23-2.638-1.214-3.983-8.158-2.537-8.23-2.522l-.406-1.893c.356-.075,8.762-1.814,10.489,3.85.43,1.415,1.622,1.475,4.229,1.274,2.541-.192,6.012-.459,6.55,3.714.279,2.154,1.564,2.576,3.343,3.163C159.536,118.965,162.521,119.947,162.43,125.655Z" transform="translate(74.006 52.897)" fill="#261e35"/>
        <path id="Trazado_125618" data-name="Trazado 125618" d="M141.6,75.187l-1.936-.031c.07-4.283-1.707-4.868-3.958-5.605-1.883-.619-4.225-1.39-4.659-4.754-.277-2.148-1.45-2.261-4.483-2.03-2.363.176-5.3.4-6.228-2.64-1.214-3.983-8.158-2.537-8.23-2.522l-.406-1.891c.356-.077,8.762-1.817,10.489,3.848.43,1.415,1.624,1.473,4.229,1.276,2.539-.2,6.012-.459,6.55,3.712.279,2.154,1.564,2.576,3.343,3.161C138.711,68.5,141.7,69.479,141.6,75.187Z" transform="translate(54.525 5.684)" fill="#261e35"/>
        <path id="Trazado_125621" data-name="Trazado 125621" d="M83.888,143.526l-1.821-.648c1.587-4.448,6.933-18.683,6.987-18.827l1.812.681C90.814,124.876,85.472,139.1,83.888,143.526Z" transform="translate(26.8 69.906)" fill="#fa936d"/>
      </g>
    </g>
  </g>
</svg>
