<svg xmlns="http://www.w3.org/2000/svg" xmlns:xlink="http://www.w3.org/1999/xlink" width="368" height="383" viewBox="0 0 368 383">
  <defs>
    <clipPath id="clip-path">
      <rect id="Rectángulo_35699" data-name="Rectángulo 35699" width="340" height="383" transform="translate(-0.354 0.004)" fill="#fff" stroke="#707070" stroke-width="1"/>
    </clipPath>
    <clipPath id="clip-path-2">
      <rect id="Rectángulo_35698" data-name="Rectángulo 35698" width="475" height="448" transform="translate(0.062 -0.329)" fill="none" stroke="#707070" stroke-width="1"/>
    </clipPath>
    <clipPath id="clip-path-3">
      <path id="Trazado_123014" data-name="Trazado 123014" d="M247.447,458.032c40.684-14.795,116.363,24.058,143.635-9.59,10.207-12.594,58.217-88.348,58.217-88.348L438.1,228.35,390.69,164.9S365.522,87.11,332.266,65.375C317.208,31.524,175.125,0,175.125,0S98.6,77.933,81.074,83.055c-30.749,8.985-40.327,51.9-56.315,79.66C-10.194,223.4-4.476,303.562,19.25,367.264c13.336,35.81,36.873,69.035,70.394,87.378,25.182,13.78,54.563,18.449,83.26,17.7A236.594,236.594,0,0,0,247.447,458.032Z" transform="matrix(0.545, -0.839, 0.839, 0.545, 0, 376.813)" fill="#5bd3a9"/>
    </clipPath>
  </defs>
  <g id="infob1" transform="translate(-962.333 -6678)">
    <g id="Enmascarar_grupo_67" data-name="Enmascarar grupo 67" transform="translate(962.687 6677.996)" clip-path="url(#clip-path)">
      <g id="Enmascarar_grupo_66" data-name="Enmascarar grupo 66" transform="translate(89.584 -39.666)" clip-path="url(#clip-path-2)">
        <g id="Grupo_131066" data-name="Grupo 131066" transform="translate(-94.565 -131.962)">
          <path id="Trazado_122972" data-name="Trazado 122972" d="M171.561,0A171.561,171.561,0,1,1,0,171.561,171.561,171.561,0,0,1,171.561,0Z" transform="translate(570.164 417.414) rotate(150)" fill="#008bfd"/>
          <path id="Trazado_122973" data-name="Trazado 122973" d="M247.447,358.518c40.684-14.795,77.482-40.407,104.754-74.055,10.207-12.594,19.55-27.985,17-43.994-2.714-17.064-18.361-29.345-34.6-35.234s-33.813-7.137-50.347-12.161c-39.285-11.938-69.848-44.736-86.22-81.546C182.973,77.676,184.516,30.032,149.975,7.991c-15.393-9.821-35.4-9.654-52.924-4.532C66.3,12.444,40.747,35.44,24.759,63.2-10.194,123.886-4.476,204.048,19.25,267.75c13.336,35.81,36.873,69.035,70.394,87.378,25.182,13.78,54.563,18.449,83.26,17.7A236.593,236.593,0,0,0,247.447,358.518Z" transform="matrix(0.545, -0.839, 0.839, 0.545, 83.46, 431.013)" fill="#5bd3a9"/>
          <g id="Enmascarar_grupo_65" data-name="Enmascarar grupo 65" transform="translate(0 0)" clip-path="url(#clip-path-3)">
            <g id="Grupo_131065" data-name="Grupo 131065" transform="translate(92.915 134.418)">
              <path id="Trazado_122974" data-name="Trazado 122974" d="M176.315,309.659c-4.186-1.047-89.989-55.458-89.989-55.458s52.319,91.035,50.226,87.9-115.1-134.982-115.1-134.982l54.967,21.648L32.961,152.7S180.5,310.7,176.315,309.659Z" transform="translate(69.024 124.468)" fill="#ffdfa3"/>
              <g id="Grupo_131056" data-name="Grupo 131056" transform="translate(288.87 123.767)">
                <path id="Trazado_122975" data-name="Trazado 122975" d="M334.2,280.327l-115.955-30.8a15.533,15.533,0,0,1,7.976-30.024l102.44,27.208L372.8,145.962l11.016,5.651L352.7,270.853A15.534,15.534,0,0,1,334.2,280.327Z" transform="translate(-206.699 -145.962)" fill="#f3725f"/>
              </g>
              <path id="Trazado_122976" data-name="Trazado 122976" d="M220.743,204.97q.873-1.956,1.831-3.877Q221.669,203.031,220.743,204.97Z" transform="translate(101.613 54.128)" fill="#ffbf80"/>
              <path id="Trazado_122977" data-name="Trazado 122977" d="M160.691,227.866c-2.189-6.233-3.348-12.582-2.337-19.23a32.292,32.292,0,0,1,4.618-12.3c3.913-6.273,9.812-11.445,16.533-15.515A78.351,78.351,0,0,1,194.013,174c.718-.258,1.445-.505,2.165-.742q5.73-1.874,11.621-3.181a130.377,130.377,0,0,1,53.591-.6,125.875,125.875,0,0,1,18.887,5.291A54.918,54.918,0,0,1,305.413,193.5a53.84,53.84,0,0,1,9.962,23.276,41.956,41.956,0,0,1,.37,11.6c-.074.706-.174,1.4-.284,2.091a2.762,2.762,0,0,0-2.034,1.13,97.416,97.416,0,0,0-14.08,26.805c-.165.479-.315.963-.474,1.443a2.3,2.3,0,0,0-.746.775c-5.909,10.212-8.772,21.166-10.248,32.451a226.5,226.5,0,0,0-6.011,36.369,2.688,2.688,0,0,0-.2,1.054c0,.391,0,.784,0,1.176-.651,7.659-1.052,15.341-1.347,23l-.346.038a327.764,327.764,0,0,1-84.166-3.061c-5.4-.9-10.942-2-15.456-5.1-9.962-6.81-11.612-20.758-9.495-32.814.129-.73.267-1.45.424-2.16,2.713-12.506,8.274-24.712,7.411-37.48C177.582,257.695,166.044,243.131,160.691,227.866Z" transform="translate(14.733 6.906)" fill="#d2f3e8"/>
              <path id="Trazado_122978" data-name="Trazado 122978" d="M175.568,149.525a9.3,9.3,0,1,0,9.3-9.3A9.3,9.3,0,0,0,175.568,149.525Z" transform="translate(39.074 -30.135)" fill="#f3725f"/>
              <path id="Trazado_122979" data-name="Trazado 122979" d="M201.855,168.209c13.93-.1,26.986,6.166,39.791,11.65a402.875,402.875,0,0,0,70.909,22.866c2.482.553,5.27,1.3,6.478,3.536a8.359,8.359,0,0,1,.544,4.781,69.592,69.592,0,0,1-30.408,50.663c-4.335,2.868-9.068,5.3-12.566,9.144-3.226,3.543-5.2,8.069-8.276,11.741-7.978,9.514-28.8,9.592-41.193,8.813-8.925-29.891,10.422-53.749,1.423-79.648C222.95,195.622,213.209,180.968,201.855,168.209Z" transform="translate(75.465 8.602)" fill="#d2f3e8"/>
              <path id="Trazado_122980" data-name="Trazado 122980" d="M276.289,245.806l-100.85-3.512s-12.959,51.011-13.9,79.7l64.431,16.459H234.9L296.1,316.72S289.9,262.185,276.289,245.806Z" transform="translate(19.651 111.166)" fill="#12263f"/>
              <path id="Trazado_122981" data-name="Trazado 122981" d="M229.916,203.728l2.015,71.7a20.452,20.452,0,0,1-9.988,18.148l-7.077,4.206-12.7-9.406,7.995-62.547Z" transform="translate(75.9 57.776)" fill="#d2f3e8"/>
              <path id="Trazado_122982" data-name="Trazado 122982" d="M170.815,251.079h96.41a4.953,4.953,0,0,0,4.938-4.938h0a4.953,4.953,0,0,0-4.938-4.938h-96.41a4.953,4.953,0,0,0-4.938,4.938h0A4.953,4.953,0,0,0,170.815,251.079Z" transform="translate(25.658 109.655)" fill="#12263f"/>
              <g id="Grupo_131057" data-name="Grupo 131057" transform="translate(17.623 149.576)">
                <path id="Trazado_122983" data-name="Trazado 122983" d="M177.253,292.1l106.734-54.784A15.532,15.532,0,1,0,269.8,209.679l-89.867,39.09-79.471-91.982-7.525,3.581L157.16,286.782A15.533,15.533,0,0,0,177.253,292.1Z" transform="translate(-92.939 -156.786)" fill="#f3725f"/>
              </g>
              <path id="Trazado_122984" data-name="Trazado 122984" d="M205.108,305.274c-13.031-21.016-29.762-6.369-39.307-39.085-6.114-20.959-36.979-20.732-30.88-53.577,12.334-9.836,54.221-27.5,68.031-35.127,4.836-2.67,9.909-5.246,15.41-5.749s11.571,1.524,14.406,6.264c2.105,3.522,14.59,9.6,14.4,13.7C245.173,235.321,236.647,275.076,205.108,305.274Z" transform="translate(-18.295 13.385)" fill="#d2f3e8"/>
              <g id="Grupo_131058" data-name="Grupo 131058" transform="translate(305.602 225.195)">
                <path id="Trazado_122985" data-name="Trazado 122985" d="M215.058,264.538a1.365,1.365,0,0,1-.386-.057,1.343,1.343,0,0,1-.939-1.493l11.283-73.346a1.344,1.344,0,1,1,2.656.408l-9.833,63.918,20.181-43.73a1.343,1.343,0,0,1,2.439,1.125l-24.18,52.392A1.345,1.345,0,0,1,215.058,264.538Z" transform="translate(-213.716 -188.5)" fill="#2d1a14"/>
              </g>
              <g id="Grupo_131060" data-name="Grupo 131060" transform="translate(184.06 245.23)">
                <g id="Grupo_131059" data-name="Grupo 131059" transform="translate(0)">
                  <path id="Trazado_122986" data-name="Trazado 122986" d="M166.173,268.8q1.152-35.319-.742-70.606c-.093-1.721-2.78-1.731-2.687,0q1.892,35.283.742,70.606c-.057,1.729,2.63,1.726,2.687,0Z" transform="translate(-162.742 -196.903)" fill="#2d1a14"/>
                </g>
              </g>
              <g id="Grupo_131062" data-name="Grupo 131062" transform="translate(159.899 246.04)">
                <g id="Grupo_131061" data-name="Grupo 131061" transform="translate(0)">
                  <path id="Trazado_122987" data-name="Trazado 122987" d="M179.7,268.3c-2.816-12.706-8.46-25.346-12.663-37.64-2.725-7.966-5.453-15.935-8.264-23.87-.625-1.767-1.826-8.481-3.891-9.4-1.729-.772-3.238,1.784-1.5,2.561-.88-.393.451,1.857.842,2.921,1.035,2.809,2.017,5.637,3.007,8.462q4.152,11.863,8.19,23.768c3.789,11.1,8.875,22.516,11.416,33.989.415,1.862,3.274,1.075,2.861-.787Z" transform="translate(-152.609 -197.243)" fill="#2d1a14"/>
                </g>
              </g>
              <g id="Grupo_131064" data-name="Grupo 131064" transform="translate(216.432 258.68)">
                <g id="Grupo_131063" data-name="Grupo 131063" transform="translate(0)">
                  <path id="Trazado_122988" data-name="Trazado 122988" d="M176.412,203.946a93.463,93.463,0,0,0,51.066,50.976c1.4.575,2.008-1.7.625-2.268a90.825,90.825,0,0,1-49.423-49.333c-.57-1.378-2.847-.772-2.268.625Z" transform="translate(-176.319 -202.544)" fill="#2d1a14"/>
                </g>
              </g>
              <path id="Trazado_122989" data-name="Trazado 122989" d="M230.945,153.841c-8.572-.336-16.588-4.111-24.941-6.061s-18.267-1.6-24.063,4.719c-1.559,1.7-2.892,3.868-5.1,4.533-2.561.773-5.184-.784-7.411-2.265-6.438-4.285-13.064-8.584-20.549-10.527s-16.1-1.166-21.965,3.877c-6.884,5.923-8.343,15.992-7.983,25.065.458,11.509,3.176,23.093,9.158,32.938s15.425,17.821,26.557,20.77a24.413,24.413,0,0,0,10.825.668c8.839-1.707,14.879-9.573,20.9-16.271s14.514-13.171,23.21-10.837c3.212.861,5.978,2.849,8.841,4.54a54.528,54.528,0,0,0,51.479,1.636c5.358-2.723,10.258-6.347,15.83-8.593a35.564,35.564,0,0,1,23.424-1.021c11.655,3.553,20.591,12.783,31.223,18.734a60.863,60.863,0,0,0,48,4.683c7.275-2.375,14.952-7.418,15.491-15.053.277-3.944-1.469-7.885-.82-11.786,1.4-8.443,12.4-11.14,20.88-9.952s17.618,4.213,25.179.2c9-4.774,10.744-17.4,7.456-27.041-5.544-16.238-21.839-27.327-38.825-29.743s-34.347,2.78-49.288,11.219c-8.362,4.726-17.609,10.7-26.808,7.938-7.671-2.3-12.7-10.172-20.389-12.4-10.489-3.035-19.194,5.615-29.478,5.427-7.032-.131-13.224-3.372-20.067-4.108-7.883-.849-11.2,3.486-16.393,8.641C248.8,150.238,240.251,154.2,230.945,153.841Z" transform="translate(-39.403 -49.196)" fill="#2d1a14"/>
              <path id="Trazado_122990" data-name="Trazado 122990" d="M298.836,173.141a10.989,10.989,0,0,1-2.391-.51c-6.049-1.853-11.741-5.856-14.156-11.7a10.544,10.544,0,0,0-1.34-2.725,2.515,2.515,0,0,0-2.685-.97,2.8,2.8,0,0,0-1.483,2.69,31.148,31.148,0,0,1,.124,3.259c-.134,1.083-.877,2.225-1.967,2.268a1.026,1.026,0,0,1-.727-.224,1.408,1.408,0,0,1-.32-.52,16.781,16.781,0,0,1-1.328-7.082,7.64,7.64,0,0,1,.818-3.515c1.211-2.155,3.794-3.062,6.154-3.8-.007-.477-.641-.625-1.118-.625l-4.387-.014a3.85,3.85,0,0,0-1.567.212,4.45,4.45,0,0,0-1.624,1.64,15.366,15.366,0,0,1-3.968,3.786,1.239,1.239,0,0,1-1.054.279c-.479-.176-.56-.815-.513-1.323.267-2.811,1.96-5.255,3.6-7.554a4.28,4.28,0,0,1,1.357-1.392,3.959,3.959,0,0,1,1.457-.372,33.185,33.185,0,0,1,10.446.448,44.553,44.553,0,0,0-3.05-5.451c-1.748-2.957-5.756,1.834-8.131,2.418-1.531.379-2.928.291-3.875-.97a.677.677,0,0,1-.179-.548.764.764,0,0,1,.253-.346,28.53,28.53,0,0,1,6.793-4.659c2.525-1.24,5.956-3.348,8.24-.7q5.669,6.57,11.342,13.14a62.247,62.247,0,0,1,6.559,8.55A20.8,20.8,0,0,1,303.333,167a7.736,7.736,0,0,1-1.328,4.84A3.416,3.416,0,0,1,298.836,173.141Z" transform="translate(163.288 -38.944)" fill="#f3725f"/>
              <path id="Trazado_122991" data-name="Trazado 122991" d="M279.244,153.871c1.5-1.567,1.581-4.051.992-6.142s-1.729-3.987-2.4-6.054-.782-4.516.539-6.24c2.337,4.833,4.807,9.614,7.141,14.447a17.555,17.555,0,0,1,2.1,6.269,8.918,8.918,0,0,1-3.629,7.716C282.666,160.9,280.57,156.835,279.244,153.871Z" transform="translate(179.987 -36.768)" fill="#f3725f"/>
              <path id="Trazado_122992" data-name="Trazado 122992" d="M102.788,186.478a10.976,10.976,0,0,0,1.545-1.9c3.55-5.236,5.472-11.924,3.684-17.995a10.543,10.543,0,0,1-.665-2.964,2.517,2.517,0,0,1,1.483-2.439,2.808,2.808,0,0,1,2.842,1.164,31.182,31.182,0,0,0,1.948,2.618,2.4,2.4,0,0,0,2.952.532,1.019,1.019,0,0,0,.427-.63,1.465,1.465,0,0,0-.076-.606,16.793,16.793,0,0,0-3.407-6.347,7.615,7.615,0,0,0-2.842-2.227c-2.3-.918-4.874-.007-7.175.9-.293-.374.11-.889.479-1.19l3.407-2.761a3.884,3.884,0,0,1,1.354-.818,4.454,4.454,0,0,1,2.291.26,15.315,15.315,0,0,0,5.467.46,1.231,1.231,0,0,0,1-.444c.26-.436-.076-.985-.432-1.35-1.972-2.024-4.824-2.866-7.542-3.629a4.288,4.288,0,0,0-1.929-.234,4.068,4.068,0,0,0-1.369.625,33.071,33.071,0,0,0-7.852,6.9,44.357,44.357,0,0,1-1.044-6.159c-.494-3.4,5.632-2.182,7.849-3.214,1.428-.665,2.461-1.609,2.408-3.186a.675.675,0,0,0-.205-.541.769.769,0,0,0-.412-.11,28.478,28.478,0,0,0-8.214.632c-2.744.615-6.738,1.128-6.86,4.619L91.3,163.8a62.042,62.042,0,0,0,.255,10.775,20.829,20.829,0,0,0,3.872,9.941,7.746,7.746,0,0,0,4.07,2.935A3.41,3.41,0,0,0,102.788,186.478Z" transform="translate(-77.73 -28.881)" fill="#f3725f"/>
              <path id="Trazado_122993" data-name="Trazado 122993" d="M94.527,161.949c-.444-7.291-3.465-14.144-6.438-20.813a7.094,7.094,0,0,1,6.1,4.092c.93,2.072.8,4.48,1.6,6.6.587,1.552,1.648,2.883,2.325,4.4a18.719,18.719,0,0,1,1.168,7.3c.045,2.365,1.609,12.022-2.184,11.261C93.566,174.083,94.677,164.393,94.527,161.949Z" transform="translate(-82.03 -28.876)" fill="#f3725f"/>
              <path id="Trazado_122994" data-name="Trazado 122994" d="M207.472,141.971a1.562,1.562,0,0,1,2.442.315,41.128,41.128,0,0,0,19.833,20.1V147.212a24.15,24.15,0,0,0-48.3,0v15.5C192.011,158.631,199.9,150.975,207.472,141.971Z" transform="translate(47.211 -53.896)" fill="#2d1a14"/>
              <path id="Trazado_122995" data-name="Trazado 122995" d="M177.7,188.41a32.414,32.414,0,0,0,15.894-33.389h23.1c-.3,9.018,5.086,15.422,10.05,22.954,2.589,3.927,5.675,8,10.2,9.3-6.528,8.746-17.833,13.119-28.744,13.4S184.66,196.812,177.7,188.41Z" transform="translate(42.023 -9.654)" fill="#f3725f"/>
              <path id="Trazado_122996" data-name="Trazado 122996" d="M214.645,179.189c-6.726-1.185-13.534-3.374-18.655-7.938-4.816-4.29-7.506-10.088-8.961-16.23h16.748c-.3,9.018,5.086,15.422,10.05,22.954C214.094,178.381,214.366,178.784,214.645,179.189Z" transform="translate(54.94 -9.654)" fill="#2d1a14"/>
              <path id="Trazado_122997" data-name="Trazado 122997" d="M205.6,206.373h0a24.222,24.222,0,0,0,24.151-24.149V147.212A24.22,24.22,0,0,0,205.6,123.063h0a24.22,24.22,0,0,0-24.149,24.149v35.012A24.221,24.221,0,0,0,205.6,206.373Z" transform="translate(47.211 -53.896)" fill="#f3725f"/>
              <path id="Trazado_122998" data-name="Trazado 122998" d="M192.707,149.2a8.347,8.347,0,1,1-8.331-8.868A8.613,8.613,0,0,1,192.707,149.2Z" transform="translate(39.734 -29.991)" fill="#f3725f"/>
              <path id="Trazado_122999" data-name="Trazado 122999" d="M216.68,149.341a8.347,8.347,0,1,1-8.331-8.87A8.611,8.611,0,0,1,216.68,149.341Z" transform="translate(72.922 -29.796)" fill="#f3725f"/>
              <path id="Trazado_123000" data-name="Trazado 123000" d="M181.485,171.66c7.461-2.358,13.949-8.221,18.474-15.608s7.179-16.216,8.4-25.215c1.328,8.364,3.374,16.672,7.022,24.011s9.018,13.684,15.692,16.9c-.389-7.99,1.047-16.636.467-24.612-.541-7.485-2.411-15.909-7.795-21.548-6.085-6.376-16.447-8.484-24.719-5.386-8.443,3.164-13.572,11.617-15.971,19.781a57.821,57.821,0,0,0-2.17,16.342C180.891,157.6,181.675,171.6,181.485,171.66Z" transform="translate(46.443 -59.801)" fill="#2d1a14"/>
              <path id="Trazado_123001" data-name="Trazado 123001" d="M286.355,136.437c-3.865-5.99-13.188-5.014-19.182-1.159s-10.687,9.778-17.3,12.439c-13.333,5.363-27.4-4.342-40.992-9.006-7.275-2.494-16.064-3.3-22.008,1.583-1.657,1.359-3.05,3.131-5.024,3.968-5.765,2.439-10.944-4.063-15.038-8.8-12.973-15-38.451-16.808-53.412-3.789" transform="translate(-46.994 -54.041)" fill="none" stroke="#2d1a14" stroke-linecap="round" stroke-linejoin="round" stroke-width="1.353"/>
              <path id="Trazado_123002" data-name="Trazado 123002" d="M199.167,142.612c6.259-3.357,13.925-6.733,20.107-3.236,1.779,1.006,3.231,2.5,4.957,3.6,4.368,2.759,10.076,2.6,14.948.882s9.12-4.8,13.362-7.754c14.378-10,31.2-19.192,48.5-16.443,9.075,1.445,19.023,5.97,26.808,1.087" transform="translate(71.744 -59.293)" fill="none" stroke="#2d1a14" stroke-linecap="round" stroke-linejoin="round" stroke-width="1.353"/>
              <path id="Trazado_123003" data-name="Trazado 123003" d="M187.462,139c4.216.818,6.857,6.2,11.142,5.923" transform="translate(55.54 -31.837)" fill="none" stroke="#2d1a14" stroke-linecap="round" stroke-linejoin="round" stroke-width="1.353"/>
              <path id="Trazado_123004" data-name="Trazado 123004" d="M194.513,144.613c1.524.47,3.078-.663,4.061-1.917s1.776-2.759,3.174-3.524" transform="translate(65.301 -31.595)" fill="none" stroke="#2d1a14" stroke-linecap="round" stroke-linejoin="round" stroke-width="1.353"/>
              <path id="Trazado_123005" data-name="Trazado 123005" d="M203.01,156.523a9.726,9.726,0,0,0-7.425-8.465,5.791,5.791,0,0,0-4.235.5,5.536,5.536,0,0,0-2.344,4.006,16.381,16.381,0,0,0,.269,4.769Z" transform="translate(57.558 -19.537)" fill="#fffaf5"/>
              <path id="Trazado_123006" data-name="Trazado 123006" d="M191.4,146.6l7.2,4.29q-1.12-3.369-2.234-6.733" transform="translate(60.99 -24.695)" fill="none" stroke="#2d1a14" stroke-linecap="round" stroke-linejoin="round" stroke-width="0.451"/>
              <line id="Línea_158" data-name="Línea 158" x2="5.226" y2="0.151" transform="translate(246.565 133.031)" fill="none" stroke="#2d1a14" stroke-linecap="round" stroke-linejoin="round" stroke-width="0.451"/>
              <path id="Trazado_123007" data-name="Trazado 123007" d="M186.7,143.057a5.476,5.476,0,0,0,8.488,2.134" transform="translate(54.483 -26.216)" fill="none" stroke="#2d1a14" stroke-linecap="round" stroke-linejoin="round" stroke-width="0.902"/>
              <path id="Trazado_123008" data-name="Trazado 123008" d="M195.1,145.407a5.475,5.475,0,0,0,8.376-2.542" transform="translate(66.112 -26.482)" fill="none" stroke="#2d1a14" stroke-linecap="round" stroke-linejoin="round" stroke-width="0.902"/>
              <path id="Trazado_123009" data-name="Trazado 123009" d="M166.655,95.986c-1.381-.345-29.677-18.289-29.677-18.289s17.253,30.022,16.563,28.986-37.958-44.515-37.958-44.515l18.127,7.139L119.379,44.224S168.035,96.331,166.655,95.986Z" transform="translate(24.851 -37.542)" fill="#ffdfa3"/>
              <path id="Trazado_123010" data-name="Trazado 123010" d="M186.246,65.95c1.413-.353,30.39-18.728,30.39-18.728s-25.406,41.618-24.7,40.558,46.609-56.46,46.609-56.46l-18.563,7.311,14.676-25.687S184.832,66.3,186.246,65.95Z" transform="translate(106.737 -12.944)" fill="#ffdfa3"/>
              <path id="Trazado_123011" data-name="Trazado 123011" d="M265.072,303.719,230.483,281.4l41.113-2.1-12.15-39.333,32.843,24.82,15.975-37.94,9.206,40.124,36.625-18.8-18.739,36.654,40.138,9.144-37.916,16.033,24.87,32.805L323.1,330.722l-2.036,41.116-22.374-34.556L270.7,367.47l5.073-40.853-40.845,5.135Z" transform="translate(86.428 54.118)" fill="#ffdfa3"/>
              <circle id="Elipse_4805" data-name="Elipse 4805" cx="8.062" cy="8.062" r="8.062" transform="translate(104.816 315.933)" fill="#133d60"/>
              <path id="Trazado_123012" data-name="Trazado 123012" d="M101.674,103.96A8.063,8.063,0,1,1,93.612,95.9,8.061,8.061,0,0,1,101.674,103.96Z" transform="translate(-85.548 -91.502)" fill="#2d1a14"/>
              <path id="Trazado_123013" data-name="Trazado 123013" d="M311.294,213.533a6.091,6.091,0,1,1-6.091-6.09A6.092,6.092,0,0,1,311.294,213.533Z" transform="translate(87.327 63.841)" fill="#133d60"/>
            </g>
          </g>
        </g>
      </g>
    </g>
    <rect id="Rectángulo_35906" data-name="Rectángulo 35906" width="28" height="383" transform="translate(1302.333 6678)" fill="#ffb840"/>
  </g>
</svg>
