<svg xmlns="http://www.w3.org/2000/svg" xmlns:xlink="http://www.w3.org/1999/xlink" width="536" height="498.5" viewBox="0 0 536 498.5">
  <defs>
    <clipPath id="clip-path">
      <rect id="Rectángulo_35921" data-name="Rectángulo 35921" width="511" height="482" transform="translate(527.333 6073)" fill="none" stroke="#707070" stroke-width="1"/>
    </clipPath>
    <clipPath id="clip-path-2">
      <path id="Trazado_126983" data-name="Trazado 126983" d="M266.139,385.6c43.757-15.912,125.152,25.875,154.485-10.315,10.978-13.545,62.615-95.022,62.615-95.022L471.2,138.568,420.2,70.328S393.133-13.342,357.365-36.718c-16.2-36.408-169.011-70.313-169.011-70.313S106.048-23.211,87.2-17.7C54.126-8.039,43.825,38.117,26.629,67.975c-37.593,65.269-31.443,151.487-5.925,220,14.344,38.515,39.659,74.249,75.711,93.979C123.5,396.775,155.1,401.8,185.964,400.991A254.466,254.466,0,0,0,266.139,385.6Z" transform="matrix(0.545, -0.839, 0.839, 0.545, 515.04, 6394.506)" fill="#5bd3a9"/>
    </clipPath>
  </defs>
  <g id="infografia3" transform="translate(4219 5636.5)">
    <g id="infografia3-2" data-name="infografia3" transform="translate(-4746.333 -11709.5)" clip-path="url(#clip-path)">
      <g id="Grupo_133846" data-name="Grupo 133846">
        <path id="Trazado_126941" data-name="Trazado 126941" d="M184.52,0C286.428,0,369.04,82.612,369.04,184.52S286.428,369.04,184.52,369.04,0,286.428,0,184.52,82.612,0,184.52,0Z" transform="translate(1038.509 6379.88) rotate(150)" fill="#008bfd"/>
        <path id="Trazado_126942" data-name="Trazado 126942" d="M266.139,385.6c43.757-15.912,83.335-43.46,112.667-79.649,10.978-13.545,21.027-30.1,18.286-47.317-2.919-18.353-19.748-31.562-37.219-37.9s-36.368-7.676-54.15-13.08c-42.253-12.84-75.125-48.115-92.733-87.706C196.794,83.544,198.454,32.3,161.3,8.595,144.749-1.968,123.232-1.788,104.382,3.721c-33.072,9.664-60.557,34.4-77.753,64.254-37.593,65.269-31.443,151.487-5.925,220,14.344,38.515,39.659,74.249,75.711,93.979C123.5,396.775,155.1,401.8,185.964,400.991A254.466,254.466,0,0,0,266.139,385.6Z" transform="matrix(0.545, -0.839, 0.839, 0.545, 515.04, 6394.506)" fill="#5bd3a9"/>
        <g id="Enmascarar_grupo_103" data-name="Enmascarar grupo 103" clip-path="url(#clip-path-2)">
          <g id="Grupo_133845" data-name="Grupo 133845" transform="translate(339.382 5854.556)">
            <path id="Trazado_126943" data-name="Trazado 126943" d="M188.013,321.515c-4.5-1.126-96.786-59.648-96.786-59.648s56.271,97.912,54.02,94.535-123.8-145.179-123.8-145.179L80.57,234.507,33.831,152.7S192.515,322.64,188.013,321.515Z" transform="translate(261.686 366.356)" fill="#ffdfa3"/>
            <g id="Grupo_133836" data-name="Grupo 133836" transform="translate(496.518 354.068)">
              <path id="Trazado_126944" data-name="Trazado 126944" d="M343.833,290.476,219.119,257.353a16.706,16.706,0,0,1,8.578-32.292l110.178,29.263,47.466-108.363,11.848,6.078L363.731,280.288A16.708,16.708,0,0,1,343.833,290.476Z" transform="translate(-206.699 -145.962)" fill="#f3725f"/>
            </g>
            <path id="Trazado_126945" data-name="Trazado 126945" d="M220.743,205.263q.939-2.1,1.97-4.17Q221.739,203.178,220.743,205.263Z" transform="translate(311.791 294.358)" fill="#ffbf80"/>
            <path id="Trazado_126946" data-name="Trazado 126946" d="M160.9,232.465c-2.354-6.7-3.6-13.533-2.513-20.683a34.732,34.732,0,0,1,4.967-13.233c4.208-6.747,10.553-12.31,17.782-16.687a84.27,84.27,0,0,1,15.6-7.337c.772-.277,1.554-.544,2.329-.8q6.162-2.016,12.5-3.421a140.225,140.225,0,0,1,57.64-.644,135.385,135.385,0,0,1,20.313,5.691,59.067,59.067,0,0,1,27.035,20.152,57.907,57.907,0,0,1,10.715,25.035,45.126,45.126,0,0,1,.4,12.479c-.08.759-.187,1.505-.305,2.249a2.97,2.97,0,0,0-2.187,1.216,104.775,104.775,0,0,0-15.143,28.83c-.177.515-.338,1.036-.51,1.552a2.475,2.475,0,0,0-.8.833c-6.355,10.984-9.435,22.765-11.022,34.9a243.611,243.611,0,0,0-6.465,39.116,2.892,2.892,0,0,0-.213,1.133c0,.421,0,.844,0,1.264-.7,8.237-1.131,16.5-1.449,24.737l-.372.041A352.525,352.525,0,0,1,198.67,365.6c-5.8-.967-11.768-2.154-16.623-5.483-10.714-7.324-12.489-22.327-10.212-35.293.139-.785.287-1.559.456-2.323,2.918-13.451,8.9-26.578,7.97-40.311C179.062,264.547,166.653,248.883,160.9,232.465Z" transform="translate(213.607 240.993)" fill="#d2f3e8"/>
            <path id="Trazado_126947" data-name="Trazado 126947" d="M175.568,150.228a10,10,0,1,0,10-10A10,10,0,0,0,175.568,150.228Z" transform="translate(241.115 199.132)" fill="#f3725f"/>
            <path id="Trazado_126948" data-name="Trazado 126948" d="M201.855,168.209c14.982-.11,29.025,6.632,42.8,12.53a433.31,433.31,0,0,0,76.265,24.594c2.67.595,5.668,1.4,6.968,3.8a8.991,8.991,0,0,1,.585,5.142,74.848,74.848,0,0,1-32.7,54.49c-4.662,3.085-9.753,5.7-13.515,9.835-3.47,3.811-5.588,8.678-8.9,12.628-8.581,10.232-30.976,10.317-44.3,9.478-9.6-32.149,11.209-57.809,1.531-85.664C224.543,197.693,214.067,181.931,201.855,168.209Z" transform="translate(282.241 242.909)" fill="#d2f3e8"/>
            <path id="Trazado_126949" data-name="Trazado 126949" d="M284.957,246.071l-108.468-3.777s-13.938,54.865-14.951,85.718l69.3,17.7h9.609l65.815-23.373S299.595,263.687,284.957,246.071Z" transform="translate(219.165 358.817)" fill="#12263f"/>
            <path id="Trazado_126950" data-name="Trazado 126950" d="M232.012,203.728l2.167,77.119a22,22,0,0,1-10.743,19.518l-7.611,4.524-13.656-10.117,8.6-67.272Z" transform="translate(282.732 298.48)" fill="#d2f3e8"/>
            <path id="Trazado_126951" data-name="Trazado 126951" d="M171.188,251.825H274.881a5.327,5.327,0,0,0,5.311-5.311h0a5.327,5.327,0,0,0-5.311-5.311H171.188a5.327,5.327,0,0,0-5.311,5.311h0A5.327,5.327,0,0,0,171.188,251.825Z" transform="translate(225.954 357.11)" fill="#12263f"/>
            <g id="Grupo_133837" data-name="Grupo 133837" transform="translate(204.782 381.826)">
              <path id="Trazado_126952" data-name="Trazado 126952" d="M183.622,302.321l114.8-58.922a16.706,16.706,0,1,0-15.256-29.725l-96.656,42.042-85.475-98.93-8.094,3.852L162.011,296.6A16.707,16.707,0,0,0,183.622,302.321Z" transform="translate(-92.939 -156.786)" fill="#f3725f"/>
            </g>
            <path id="Trazado_126953" data-name="Trazado 126953" d="M210.47,315.367c-14.015-22.6-32.01-6.85-42.276-42.037-6.575-22.542-39.773-22.3-33.213-57.624,13.266-10.579,58.317-29.576,73.17-37.78,5.2-2.872,10.658-5.642,16.574-6.183s12.445,1.639,15.495,6.737c2.264,3.788,15.692,10.327,15.49,14.738C253.561,240.13,244.391,282.888,210.47,315.367Z" transform="translate(176.283 248.315)" fill="#d2f3e8"/>
            <g id="Grupo_133838" data-name="Grupo 133838" transform="translate(514.514 463.157)">
              <path id="Trazado_126954" data-name="Trazado 126954" d="M215.159,270.281a1.469,1.469,0,0,1-.415-.062,1.445,1.445,0,0,1-1.01-1.605l12.135-78.886a1.445,1.445,0,1,1,2.857.439L218.15,258.913l21.706-47.033a1.445,1.445,0,0,1,2.624,1.21l-26.007,56.35A1.447,1.447,0,0,1,215.159,270.281Z" transform="translate(-213.716 -188.5)" fill="#2d1a14"/>
            </g>
            <g id="Grupo_133840" data-name="Grupo 133840" transform="translate(383.791 484.706)">
              <g id="Grupo_133839" data-name="Grupo 133839" transform="translate(0)">
                <path id="Trazado_126955" data-name="Trazado 126955" d="M166.432,274.235q1.239-37.987-.8-75.94c-.1-1.852-2.99-1.862-2.89,0q2.035,37.948.8,75.94c-.062,1.859,2.829,1.857,2.89,0Z" transform="translate(-162.742 -196.903)" fill="#2d1a14"/>
              </g>
            </g>
            <g id="Grupo_133842" data-name="Grupo 133842" transform="translate(357.805 485.577)">
              <g id="Grupo_133841" data-name="Grupo 133841" transform="translate(0)">
                <path id="Trazado_126956" data-name="Trazado 126956" d="M181.744,273.668c-3.029-13.666-9.1-27.261-13.62-40.483-2.931-8.568-5.865-17.138-8.889-25.673-.672-1.9-1.964-9.122-4.185-10.114-1.859-.831-3.483,1.918-1.611,2.754-.946-.423.485,2,.905,3.142,1.113,3.021,2.17,6.063,3.234,9.1q4.466,12.76,8.809,25.563c4.075,11.943,9.545,24.217,12.279,36.557.446,2,3.521,1.157,3.077-.846Z" transform="translate(-152.609 -197.243)" fill="#2d1a14"/>
              </g>
            </g>
            <g id="Grupo_133844" data-name="Grupo 133844" transform="translate(418.608 499.171)">
              <g id="Grupo_133843" data-name="Grupo 133843" transform="translate(0)">
                <path id="Trazado_126957" data-name="Trazado 126957" d="M176.419,204.052a100.523,100.523,0,0,0,54.924,54.826c1.5.618,2.159-1.828.672-2.439a97.685,97.685,0,0,1-53.157-53.059c-.613-1.482-3.062-.831-2.439.672Z" transform="translate(-176.319 -202.544)" fill="#2d1a14"/>
              </g>
            </g>
            <path id="Trazado_126958" data-name="Trazado 126958" d="M239.41,155.909c-9.219-.362-17.841-4.421-26.825-6.519s-19.647-1.726-25.881,5.075c-1.677,1.828-3.111,4.16-5.488,4.875-2.754.831-5.575-.844-7.97-2.436-6.924-4.608-14.051-9.232-22.1-11.322s-17.321-1.254-23.624,4.17c-7.4,6.37-8.973,17.2-8.586,26.958.492,12.379,3.416,24.837,9.85,35.426s16.59,19.167,28.563,22.339a26.257,26.257,0,0,0,11.643.718c9.507-1.836,16-10.3,22.475-17.5s15.61-14.166,24.963-11.656c3.454.926,6.429,3.065,9.509,4.883a58.647,58.647,0,0,0,55.367,1.759c5.762-2.929,11.032-6.827,17.026-9.242a38.25,38.25,0,0,1,25.194-1.1c12.535,3.821,22.147,13.748,33.582,20.149a65.46,65.46,0,0,0,51.621,5.037c7.824-2.554,16.082-7.978,16.661-16.19.3-4.242-1.58-8.481-.882-12.676,1.508-9.081,13.338-11.981,22.457-10.7s18.949,4.531,27.081.215c9.678-5.134,11.556-18.718,8.019-29.084-5.962-17.464-23.488-29.392-41.758-31.99s-36.941,2.99-53.011,12.066c-8.994,5.083-18.939,11.512-28.833,8.537-8.25-2.477-13.656-10.94-21.929-13.335-11.281-3.265-20.644,6.039-31.7,5.837-7.563-.141-14.223-3.626-21.583-4.419-8.478-.913-12.051,3.749-17.631,9.294C258.615,152.034,249.419,156.3,239.41,155.909Z" transform="translate(152.428 177.591)" fill="#2d1a14"/>
            <path id="Trazado_126959" data-name="Trazado 126959" d="M301.37,176.108a11.819,11.819,0,0,1-2.572-.549c-6.506-1.993-12.628-6.3-15.225-12.589a11.341,11.341,0,0,0-1.441-2.931A2.705,2.705,0,0,0,279.244,159a3.014,3.014,0,0,0-1.6,2.893,33.485,33.485,0,0,1,.133,3.506c-.144,1.164-.944,2.393-2.116,2.439a1.1,1.1,0,0,1-.782-.241,1.515,1.515,0,0,1-.344-.559,18.049,18.049,0,0,1-1.428-7.617,8.218,8.218,0,0,1,.88-3.78c1.3-2.318,4.08-3.293,6.619-4.085-.008-.513-.69-.672-1.2-.672l-4.719-.015a4.141,4.141,0,0,0-1.685.228,4.786,4.786,0,0,0-1.746,1.764,16.528,16.528,0,0,1-4.267,4.072,1.333,1.333,0,0,1-1.133.3c-.515-.19-.6-.877-.551-1.423.287-3.024,2.108-5.652,3.87-8.124a4.6,4.6,0,0,1,1.459-1.5,4.259,4.259,0,0,1,1.567-.4,35.691,35.691,0,0,1,11.235.482,47.923,47.923,0,0,0-3.28-5.862c-1.88-3.18-6.191,1.972-8.745,2.6-1.646.408-3.149.313-4.167-1.044a.728.728,0,0,1-.192-.59.822.822,0,0,1,.272-.372,30.685,30.685,0,0,1,7.306-5.011c2.716-1.333,6.406-3.6,8.863-.757q6.1,7.066,12.2,14.133a66.947,66.947,0,0,1,7.055,9.2,22.368,22.368,0,0,1,3.46,10.94,8.32,8.32,0,0,1-1.428,5.206A3.674,3.674,0,0,1,301.37,176.108Z" transform="translate(381.489 189.177)" fill="#f3725f"/>
            <path id="Trazado_126960" data-name="Trazado 126960" d="M279.387,155.264c1.618-1.685,1.7-4.357,1.067-6.606s-1.859-4.288-2.577-6.511-.841-4.857.58-6.711c2.513,5.2,5.17,10.34,7.681,15.538a18.881,18.881,0,0,1,2.262,6.742,9.591,9.591,0,0,1-3.9,8.3C283.067,162.826,280.813,158.451,279.387,155.264Z" transform="translate(400.362 191.636)" fill="#f3725f"/>
            <path id="Trazado_126961" data-name="Trazado 126961" d="M103.663,189.9a11.8,11.8,0,0,0,1.662-2.041c3.819-5.632,5.886-12.825,3.962-19.354a11.339,11.339,0,0,1-.716-3.188,2.707,2.707,0,0,1,1.6-2.623,3.02,3.02,0,0,1,3.057,1.251,33.536,33.536,0,0,0,2.1,2.816,2.582,2.582,0,0,0,3.175.572,1.1,1.1,0,0,0,.459-.677,1.575,1.575,0,0,0-.082-.651,18.061,18.061,0,0,0-3.665-6.827,8.19,8.19,0,0,0-3.057-2.4c-2.47-.987-5.242-.008-7.717.969-.315-.4.118-.957.515-1.28l3.665-2.97a4.177,4.177,0,0,1,1.457-.88,4.79,4.79,0,0,1,2.464.28,16.472,16.472,0,0,0,5.88.495,1.324,1.324,0,0,0,1.072-.477c.28-.469-.082-1.059-.464-1.451-2.121-2.177-5.188-3.083-8.111-3.9a4.612,4.612,0,0,0-2.075-.251,4.376,4.376,0,0,0-1.472.672,35.569,35.569,0,0,0-8.445,7.422,47.71,47.71,0,0,1-1.123-6.624c-.531-3.654,6.057-2.347,8.442-3.457,1.536-.715,2.647-1.731,2.59-3.426a.726.726,0,0,0-.221-.582.828.828,0,0,0-.444-.118,30.63,30.63,0,0,0-8.835.68c-2.952.662-7.247,1.213-7.378,4.967q-.319,9.328-.639,18.659a66.729,66.729,0,0,0,.274,11.589,22.4,22.4,0,0,0,4.165,10.691,8.332,8.332,0,0,0,4.378,3.157A3.668,3.668,0,0,0,103.663,189.9Z" transform="translate(109.114 200.549)" fill="#f3725f"/>
            <path id="Trazado_126962" data-name="Trazado 126962" d="M95.013,163.521c-.477-7.842-3.726-15.213-6.924-22.385a7.63,7.63,0,0,1,6.56,4.4c1,2.229.859,4.819,1.723,7.1.631,1.669,1.772,3.1,2.5,4.731a20.133,20.133,0,0,1,1.257,7.853c.049,2.544,1.731,12.93-2.349,12.112C93.98,176.572,95.175,166.15,95.013,163.521Z" transform="translate(104.255 200.556)" fill="#f3725f"/>
            <path id="Trazado_126963" data-name="Trazado 126963" d="M209.437,143.4a1.68,1.68,0,0,1,2.626.339,44.234,44.234,0,0,0,21.331,21.616V149.036a25.974,25.974,0,0,0-51.949,0V165.71C192.809,161.318,201.3,153.083,209.437,143.4Z" transform="translate(250.311 172.281)" fill="#2d1a14"/>
            <path id="Trazado_126964" data-name="Trazado 126964" d="M177.7,190.932c12.43-6.793,19.659-21.978,17.095-35.911H219.64c-.323,9.7,5.47,16.587,10.809,24.688,2.785,4.224,6.1,8.609,10.966,10-7.022,9.407-19.18,14.11-30.915,14.407S185.186,199.969,177.7,190.932Z" transform="translate(244.447 222.279)" fill="#f3725f"/>
            <path id="Trazado_126965" data-name="Trazado 126965" d="M216.731,181.015c-7.234-1.275-14.556-3.629-20.065-8.537-5.18-4.614-8.073-10.85-9.637-17.457h18.013c-.323,9.7,5.47,16.587,10.809,24.688C216.139,180.145,216.431,180.579,216.731,181.015Z" transform="translate(259.046 222.279)" fill="#2d1a14"/>
            <path id="Trazado_126966" data-name="Trazado 126966" d="M207.419,212.666h0a26.051,26.051,0,0,0,25.976-25.973V149.036a26.05,26.05,0,0,0-25.976-25.973h0a26.049,26.049,0,0,0-25.973,25.973v37.657A26.051,26.051,0,0,0,207.419,212.666Z" transform="translate(250.311 172.281)" fill="#f3725f"/>
            <path id="Trazado_126967" data-name="Trazado 126967" d="M193.966,149.867c0,5.27-4.013,9.54-8.96,9.54s-8.96-4.27-8.96-9.54,4.011-9.537,8.96-9.537S193.966,144.6,193.966,149.867Z" transform="translate(241.861 199.295)" fill="#f3725f"/>
            <path id="Trazado_126968" data-name="Trazado 126968" d="M217.939,150.011c0,5.267-4.011,9.537-8.96,9.537s-8.96-4.27-8.96-9.537,4.011-9.54,8.96-9.54S217.939,144.743,217.939,150.011Z" transform="translate(279.367 199.515)" fill="#f3725f"/>
            <path id="Trazado_126969" data-name="Trazado 126969" d="M181.53,175.654c8.024-2.536,15-8.842,19.87-16.787s7.722-17.441,9.04-27.119c1.428,9,3.629,17.931,7.552,25.824s9.7,14.718,16.877,18.18c-.418-8.594,1.126-17.892.5-26.471-.582-8.05-2.593-17.11-8.383-23.175-6.545-6.857-17.69-9.124-26.586-5.793-9.081,3.4-14.6,12.494-17.177,21.275a62.189,62.189,0,0,0-2.334,17.577C180.891,160.533,181.735,175.59,181.53,175.654Z" transform="translate(249.443 165.607)" fill="#2d1a14"/>
            <path id="Trazado_126970" data-name="Trazado 126970" d="M299.42,137.455c-4.157-6.442-14.184-5.393-20.631-1.246s-11.494,10.517-18.608,13.379c-14.341,5.768-29.466-4.67-44.089-9.686-7.824-2.682-17.277-3.544-23.67,1.7-1.782,1.462-3.28,3.367-5.4,4.267-6.2,2.623-11.771-4.37-16.174-9.463-13.953-16.133-41.355-18.077-57.447-4.075" transform="translate(143.849 172.116)" fill="none" stroke="#2d1a14" stroke-linecap="round" stroke-linejoin="round" stroke-width="1.353"/>
            <path id="Trazado_126971" data-name="Trazado 126971" d="M199.167,144.383c6.732-3.611,14.977-7.242,21.626-3.48,1.913,1.082,3.475,2.693,5.332,3.867,4.7,2.967,10.838,2.8,16.077.949s9.809-5.165,14.371-8.34c15.464-10.753,33.562-20.642,52.164-17.685,9.76,1.554,20.46,6.421,28.833,1.169" transform="translate(278.036 166.181)" fill="none" stroke="#2d1a14" stroke-linecap="round" stroke-linejoin="round" stroke-width="1.353"/>
            <path id="Trazado_126972" data-name="Trazado 126972" d="M187.462,139c4.534.88,7.375,6.673,11.984,6.37" transform="translate(259.723 197.209)" fill="none" stroke="#2d1a14" stroke-linecap="round" stroke-linejoin="round" stroke-width="1.353"/>
            <path id="Trazado_126973" data-name="Trazado 126973" d="M194.513,145.024c1.639.505,3.311-.713,4.367-2.062s1.911-2.967,3.413-3.79" transform="translate(270.754 197.483)" fill="none" stroke="#2d1a14" stroke-linecap="round" stroke-linejoin="round" stroke-width="1.353"/>
            <path id="Trazado_126974" data-name="Trazado 126974" d="M204.074,157.176a10.461,10.461,0,0,0-7.986-9.1,6.228,6.228,0,0,0-4.555.541,5.954,5.954,0,0,0-2.521,4.308,17.619,17.619,0,0,0,.29,5.129Z" transform="translate(262.004 211.109)" fill="#fffaf5"/>
            <path id="Trazado_126975" data-name="Trazado 126975" d="M191.4,146.785l7.74,4.614q-1.2-3.624-2.4-7.242" transform="translate(265.883 205.28)" fill="none" stroke="#2d1a14" stroke-linecap="round" stroke-linejoin="round" stroke-width="0.451"/>
            <line id="Línea_185" data-name="Línea 185" x2="5.62" y2="0.162" transform="translate(451.017 364.031)" fill="none" stroke="#2d1a14" stroke-linecap="round" stroke-linejoin="round" stroke-width="0.451"/>
            <path id="Trazado_126976" data-name="Trazado 126976" d="M186.7,143.057a5.89,5.89,0,0,0,9.13,2.3" transform="translate(258.529 203.561)" fill="none" stroke="#2d1a14" stroke-linecap="round" stroke-linejoin="round" stroke-width="0.902"/>
            <path id="Trazado_126977" data-name="Trazado 126977" d="M195.1,145.6a5.889,5.889,0,0,0,9.009-2.734" transform="translate(271.671 203.261)" fill="none" stroke="#2d1a14" stroke-linecap="round" stroke-linejoin="round" stroke-width="0.902"/>
            <path id="Trazado_126978" data-name="Trazado 126978" d="M170.513,99.9c-1.485-.371-31.918-19.671-31.918-19.671s18.556,32.289,17.814,31.176-40.826-47.878-40.826-47.878l19.5,7.679L119.666,44.224S172,100.267,170.513,99.9Z" transform="translate(221.287 183.914)" fill="#ffdfa3"/>
            <path id="Trazado_126979" data-name="Trazado 126979" d="M186.248,69.954c1.52-.38,32.685-20.143,32.685-20.143s-27.326,44.762-26.565,43.622S242.5,32.707,242.5,32.707l-19.965,7.864,15.785-27.627S184.728,70.334,186.248,69.954Z" transform="translate(314.694 208.007)" fill="#ffdfa3"/>
            <path id="Trazado_126980" data-name="Trazado 126980" d="M267.685,309.525l-37.2-24.007,44.219-2.257-13.067-42.3,35.324,26.695,17.182-40.806,9.9,43.155,39.392-20.215-20.155,39.423,43.17,9.835-40.78,17.244,26.748,35.283-42.324-13L327.9,382.79,303.84,345.624l-30.1,32.469,5.456-43.939-43.93,5.523Z" transform="translate(296.195 296.293)" fill="#ffdfa3"/>
            <circle id="Elipse_4935" data-name="Elipse 4935" cx="8.671" cy="8.671" r="8.671" transform="translate(298.561 560.749)" fill="#133d60"/>
            <path id="Trazado_126981" data-name="Trazado 126981" d="M102.892,104.569A8.672,8.672,0,1,1,94.221,95.9,8.67,8.67,0,0,1,102.892,104.569Z" transform="translate(100.279 129.781)" fill="#2d1a14"/>
            <path id="Trazado_126982" data-name="Trazado 126982" d="M312.214,213.993a6.551,6.551,0,1,1-6.551-6.55A6.552,6.552,0,0,1,312.214,213.993Z" transform="translate(302.345 305.285)" fill="#133d60"/>
          </g>
        </g>
      </g>
    </g>
    <g id="Grupo_133847" data-name="Grupo 133847" transform="translate(-4650.333 -11703)">
      <rect id="Rectángulo_35691" data-name="Rectángulo 35691" width="135" height="37" rx="18.5" transform="translate(467.333 6223)" fill="#ffb840"/>
      <path id="Trazado_126984" data-name="Trazado 126984" d="M22.361,13.568H17.51v3.059h5.73V19H14.425V6.2h8.833V8.585H17.51v2.7h4.852Zm6.979,2.76a.684.684,0,0,0-.4-.606,6.016,6.016,0,0,0-1.5-.475,6.853,6.853,0,0,1-1.828-.646,3.062,3.062,0,0,1-1.1-.971,2.319,2.319,0,0,1-.378-1.31,2.628,2.628,0,0,1,1.081-2.158,4.453,4.453,0,0,1,2.83-.848,4.934,4.934,0,0,1,3.023.853,2.666,2.666,0,0,1,1.143,2.241H29.243q0-1.143-1.2-1.143a1.194,1.194,0,0,0-.782.259.8.8,0,0,0-.316.646.737.737,0,0,0,.387.642,3.654,3.654,0,0,0,1.235.4,10.671,10.671,0,0,1,1.49.378A2.706,2.706,0,0,1,32.2,16.24a2.491,2.491,0,0,1-1.156,2.118,5.068,5.068,0,0,1-2.993.817,5.172,5.172,0,0,1-2.18-.439,3.645,3.645,0,0,1-1.494-1.2,2.707,2.707,0,0,1-.536-1.591h2.769a1.145,1.145,0,0,0,.439.962,1.808,1.808,0,0,0,1.081.3,1.422,1.422,0,0,0,.91-.246A.787.787,0,0,0,29.34,16.328Zm7.69-9.2V9.49h1.564v2.057H37.03V15.9a1.111,1.111,0,0,0,.193.747,1.037,1.037,0,0,0,.765.211,4.345,4.345,0,0,0,.738-.053v2.118a5.466,5.466,0,0,1-1.67.255,3.1,3.1,0,0,1-2.259-.721,2.954,2.954,0,0,1-.729-2.188v-4.72H32.855V9.49h1.213V7.126Zm8.481,5.045-.976-.07a1.752,1.752,0,0,0-1.793.879V19H39.781V9.49h2.777l.1,1.222a2.294,2.294,0,0,1,2.083-1.4,2.888,2.888,0,0,1,.826.105Zm5.669,7a4.889,4.889,0,0,1-3.542-1.305,4.507,4.507,0,0,1-1.354-3.4v-.246a5.84,5.84,0,0,1,.541-2.575A3.955,3.955,0,0,1,48.4,9.925a4.763,4.763,0,0,1,2.461-.611,4.117,4.117,0,0,1,3.164,1.244,4.887,4.887,0,0,1,1.16,3.467v1.151H49.3a2.135,2.135,0,0,0,.694,1.257,2.066,2.066,0,0,0,1.389.457,2.662,2.662,0,0,0,2.2-.984l1.354,1.6a3.784,3.784,0,0,1-1.569,1.217A5.3,5.3,0,0,1,51.181,19.176ZM50.847,11.6q-1.3,0-1.547,1.723h2.988v-.229a1.467,1.467,0,0,0-.36-1.1A1.434,1.434,0,0,0,50.847,11.6Zm-.035-6.108H53.94L51.5,8.251l-2.417,0ZM61.358,16.328a.684.684,0,0,0-.4-.606,6.016,6.016,0,0,0-1.5-.475,6.853,6.853,0,0,1-1.828-.646,3.062,3.062,0,0,1-1.1-.971,2.319,2.319,0,0,1-.378-1.31,2.628,2.628,0,0,1,1.081-2.158,4.453,4.453,0,0,1,2.83-.848,4.934,4.934,0,0,1,3.023.853,2.666,2.666,0,0,1,1.143,2.241H61.262q0-1.143-1.2-1.143a1.194,1.194,0,0,0-.782.259.8.8,0,0,0-.316.646.737.737,0,0,0,.387.642,3.654,3.654,0,0,0,1.235.4,10.671,10.671,0,0,1,1.49.378,2.706,2.706,0,0,1,2.145,2.646,2.491,2.491,0,0,1-1.156,2.118,5.068,5.068,0,0,1-2.993.817,5.172,5.172,0,0,1-2.18-.439,3.645,3.645,0,0,1-1.494-1.2,2.707,2.707,0,0,1-.536-1.591h2.769a1.145,1.145,0,0,0,.439.962,1.808,1.808,0,0,0,1.081.3,1.422,1.422,0,0,0,.91-.246A.787.787,0,0,0,61.358,16.328ZM75.438,19a3.344,3.344,0,0,1-.281-.853,2.754,2.754,0,0,1-2.285,1.028,3.374,3.374,0,0,1-2.285-.813,2.588,2.588,0,0,1-.94-2.043,2.66,2.66,0,0,1,1.143-2.338,5.821,5.821,0,0,1,3.322-.791h.914v-.5q0-1.316-1.134-1.316a.927.927,0,0,0-1.055,1.042H69.875a2.655,2.655,0,0,1,1.173-2.239,4.931,4.931,0,0,1,2.993-.86,4.323,4.323,0,0,1,2.874.888A3.086,3.086,0,0,1,78,12.637v4.21a4.311,4.311,0,0,0,.4,2V19Zm-1.854-1.934a1.652,1.652,0,0,0,.918-.237,1.487,1.487,0,0,0,.523-.536V14.772h-.861q-1.547,0-1.547,1.389a.848.848,0,0,0,.272.655A.986.986,0,0,0,73.584,17.066Zm5.7-2.892a6.421,6.421,0,0,1,.475-2.549,3.821,3.821,0,0,1,1.362-1.709,3.591,3.591,0,0,1,2.065-.6,2.855,2.855,0,0,1,2.32,1l.105-.826h2.689V18.64a4.009,4.009,0,0,1-.584,2.184,3.75,3.75,0,0,1-1.692,1.424,6.219,6.219,0,0,1-2.566.5,5.365,5.365,0,0,1-2.026-.4,3.657,3.657,0,0,1-1.5-1.028l1.239-1.74a2.716,2.716,0,0,0,2.18.976,1.764,1.764,0,0,0,1.969-2.021v-.3a2.781,2.781,0,0,1-2.153.94,3.437,3.437,0,0,1-2.812-1.332,5.517,5.517,0,0,1-1.072-3.564Zm2.971.185a3.383,3.383,0,0,0,.439,1.85,1.387,1.387,0,0,0,1.23.681,1.573,1.573,0,0,0,1.4-.642v-4a1.534,1.534,0,0,0-1.38-.65,1.4,1.4,0,0,0-1.239.708A3.858,3.858,0,0,0,82.259,14.359Zm13.395,3.612a3.054,3.054,0,0,1-2.54,1.2,3,3,0,0,1-2.369-.91,3.826,3.826,0,0,1-.8-2.615V9.49H92.9v6.179a1.065,1.065,0,0,0,1.187,1.222,1.548,1.548,0,0,0,1.45-.729V9.49h2.979V19H95.741Zm4.113-3.8a5.809,5.809,0,0,1,.976-3.56,3.211,3.211,0,0,1,2.725-1.3,2.731,2.731,0,0,1,2.145,1V5.5h2.971V19h-2.663l-.149-1.02a2.8,2.8,0,0,1-2.32,1.2,3.205,3.205,0,0,1-2.689-1.3A5.993,5.993,0,0,1,99.767,14.175Zm2.962.185q0,2.531,1.477,2.531a1.458,1.458,0,0,0,1.406-.826V12.443a1.419,1.419,0,0,0-1.389-.844q-1.371,0-1.485,2.215Zm7.163-.2a5.613,5.613,0,0,1,.554-2.536,3.96,3.96,0,0,1,1.591-1.709,4.791,4.791,0,0,1,2.435-.6,4.373,4.373,0,0,1,3.366,1.323,5.076,5.076,0,0,1,1.23,3.6v.105a4.925,4.925,0,0,1-1.235,3.529,4.384,4.384,0,0,1-3.344,1.305,4.434,4.434,0,0,1-3.261-1.217,4.761,4.761,0,0,1-1.327-3.3Zm2.962.185a3.538,3.538,0,0,0,.413,1.934,1.376,1.376,0,0,0,1.222.615q1.582,0,1.617-2.435v-.3q0-2.558-1.635-2.558-1.485,0-1.608,2.206Z" transform="translate(468.333 6231)" fill="#12263f"/>
    </g>
    <g id="Grupo_133848" data-name="Grupo 133848" transform="translate(-4313.333 -11696)">
      <rect id="Rectángulo_35691-2" data-name="Rectángulo 35691" width="163" height="37" rx="18.5" transform="translate(467.333 6223)" fill="#ffb840"/>
      <path id="Trazado_126986" data-name="Trazado 126986" d="M20.831,8.585H16.99V19H13.905V8.585H10.135V6.2h10.7ZM25.12,19H22.149V9.49H25.12ZM21.974,7.038A1.322,1.322,0,0,1,22.431,6,1.943,1.943,0,0,1,24.8,6a1.322,1.322,0,0,1,.457,1.037A1.322,1.322,0,0,1,24.8,8.075a1.943,1.943,0,0,1-2.373,0A1.322,1.322,0,0,1,21.974,7.038Zm13.8,7.277a5.735,5.735,0,0,1-1,3.538,3.2,3.2,0,0,1-2.694,1.323,2.742,2.742,0,0,1-2.153-.958v4.438H26.966V9.49h2.769l.088.879a2.742,2.742,0,0,1,2.241-1.055,3.224,3.224,0,0,1,2.733,1.3,5.805,5.805,0,0,1,.976,3.564Zm-2.962-.185q0-2.531-1.477-2.531a1.394,1.394,0,0,0-1.406.756V16.1a1.439,1.439,0,0,0,1.424.791q1.415,0,1.459-2.443Zm3.894.026a5.613,5.613,0,0,1,.554-2.536,3.96,3.96,0,0,1,1.591-1.709,4.791,4.791,0,0,1,2.435-.6,4.373,4.373,0,0,1,3.366,1.323,5.076,5.076,0,0,1,1.23,3.6v.105a4.925,4.925,0,0,1-1.235,3.529A4.384,4.384,0,0,1,41.3,19.176a4.434,4.434,0,0,1-3.261-1.217,4.761,4.761,0,0,1-1.327-3.3Zm2.962.185a3.538,3.538,0,0,0,.413,1.934,1.376,1.376,0,0,0,1.222.615q1.582,0,1.617-2.435v-.3q0-2.558-1.635-2.558-1.485,0-1.608,2.206Zm12.5,1.986a.684.684,0,0,0-.4-.606,6.016,6.016,0,0,0-1.5-.475,6.853,6.853,0,0,1-1.828-.646,3.062,3.062,0,0,1-1.1-.971,2.319,2.319,0,0,1-.378-1.31,2.628,2.628,0,0,1,1.081-2.158,4.453,4.453,0,0,1,2.83-.848,4.934,4.934,0,0,1,3.023.853,2.666,2.666,0,0,1,1.143,2.241H52.067q0-1.143-1.2-1.143a1.194,1.194,0,0,0-.782.259.8.8,0,0,0-.316.646.737.737,0,0,0,.387.642,3.654,3.654,0,0,0,1.235.4,10.671,10.671,0,0,1,1.49.378,2.706,2.706,0,0,1,2.145,2.646,2.491,2.491,0,0,1-1.156,2.118,5.068,5.068,0,0,1-2.993.817,5.172,5.172,0,0,1-2.18-.439,3.645,3.645,0,0,1-1.494-1.2,2.707,2.707,0,0,1-.536-1.591h2.769a1.145,1.145,0,0,0,.439.962,1.808,1.808,0,0,0,1.081.3,1.422,1.422,0,0,0,.91-.246A.787.787,0,0,0,52.164,16.328Zm8.35-2.153a5.809,5.809,0,0,1,.976-3.56,3.211,3.211,0,0,1,2.725-1.3,2.731,2.731,0,0,1,2.145,1V5.5h2.971V19H66.666l-.149-1.02a2.8,2.8,0,0,1-2.32,1.2,3.205,3.205,0,0,1-2.689-1.3A5.993,5.993,0,0,1,60.514,14.175Zm2.962.185q0,2.531,1.477,2.531a1.458,1.458,0,0,0,1.406-.826V12.443A1.419,1.419,0,0,0,64.97,11.6q-1.371,0-1.485,2.215Zm12.138,4.816a4.889,4.889,0,0,1-3.542-1.305,4.507,4.507,0,0,1-1.354-3.4v-.246a5.84,5.84,0,0,1,.541-2.575,3.955,3.955,0,0,1,1.578-1.727A4.763,4.763,0,0,1,75.3,9.314a4.117,4.117,0,0,1,3.164,1.244,4.887,4.887,0,0,1,1.16,3.467v1.151H73.732a2.135,2.135,0,0,0,.694,1.257,2.066,2.066,0,0,0,1.389.457,2.662,2.662,0,0,0,2.2-.984l1.354,1.6A3.784,3.784,0,0,1,77.8,18.723,5.3,5.3,0,0,1,75.613,19.176ZM75.279,11.6q-1.3,0-1.547,1.723h2.988v-.229a1.467,1.467,0,0,0-.36-1.1A1.434,1.434,0,0,0,75.279,11.6ZM88.744,7.126V9.49h1.564v2.057H88.744V15.9a1.111,1.111,0,0,0,.193.747,1.037,1.037,0,0,0,.765.211,4.345,4.345,0,0,0,.738-.053v2.118a5.466,5.466,0,0,1-1.67.255,3.1,3.1,0,0,1-2.259-.721,2.954,2.954,0,0,1-.729-2.188v-4.72H84.569V9.49h1.213V7.126Zm8.481,5.045-.976-.07a1.752,1.752,0,0,0-1.793.879V19H91.5V9.49h2.777l.1,1.222a2.294,2.294,0,0,1,2.083-1.4,2.888,2.888,0,0,1,.826.105ZM103.387,19a3.344,3.344,0,0,1-.281-.853,2.754,2.754,0,0,1-2.285,1.028,3.374,3.374,0,0,1-2.285-.813,2.588,2.588,0,0,1-.94-2.043,2.66,2.66,0,0,1,1.143-2.338,5.821,5.821,0,0,1,3.322-.791h.914v-.5q0-1.316-1.134-1.316a.927.927,0,0,0-1.055,1.042H97.823A2.655,2.655,0,0,1,99,10.175a4.931,4.931,0,0,1,2.993-.86,4.323,4.323,0,0,1,2.874.888,3.086,3.086,0,0,1,1.081,2.435v4.21a4.311,4.311,0,0,0,.4,2V19Zm-1.854-1.934a1.652,1.652,0,0,0,.918-.237,1.487,1.487,0,0,0,.523-.536V14.772h-.861q-1.547,0-1.547,1.389a.848.848,0,0,0,.272.655A.986.986,0,0,0,101.532,17.066Zm11.716.905a3.054,3.054,0,0,1-2.54,1.2,3,3,0,0,1-2.369-.91,3.826,3.826,0,0,1-.8-2.615V9.49H110.5v6.179a1.065,1.065,0,0,0,1.187,1.222,1.548,1.548,0,0,0,1.45-.729V9.49h2.979V19h-2.777Zm7.286-8.481.1,1.116a3.27,3.27,0,0,1,2.716-1.292,2.407,2.407,0,0,1,2.435,1.433,3.165,3.165,0,0,1,2.795-1.433q2.892,0,2.971,3.5V19h-2.971V13a1.813,1.813,0,0,0-.246-1.063,1.048,1.048,0,0,0-.9-.334,1.4,1.4,0,0,0-1.31.782l.009.123V19h-2.971V13.015a1.906,1.906,0,0,0-.237-1.081,1.045,1.045,0,0,0-.905-.334,1.42,1.42,0,0,0-1.3.782V19h-2.962V9.49ZM138.6,19a3.344,3.344,0,0,1-.281-.853,2.754,2.754,0,0,1-2.285,1.028,3.374,3.374,0,0,1-2.285-.813,2.588,2.588,0,0,1-.94-2.043,2.66,2.66,0,0,1,1.143-2.338,5.821,5.821,0,0,1,3.322-.791h.914v-.5q0-1.316-1.134-1.316a.927.927,0,0,0-1.055,1.042h-2.962a2.655,2.655,0,0,1,1.173-2.239,4.931,4.931,0,0,1,2.993-.86,4.323,4.323,0,0,1,2.874.888,3.086,3.086,0,0,1,1.081,2.435v4.21a4.311,4.311,0,0,0,.4,2V19Zm-1.854-1.934a1.652,1.652,0,0,0,.918-.237,1.487,1.487,0,0,0,.523-.536V14.772h-.861q-1.547,0-1.547,1.389a.848.848,0,0,0,.272.655A.986.986,0,0,0,136.741,17.066Zm11.03-.738a.684.684,0,0,0-.4-.606,6.016,6.016,0,0,0-1.5-.475,6.853,6.853,0,0,1-1.828-.646,3.062,3.062,0,0,1-1.1-.971,2.319,2.319,0,0,1-.378-1.31,2.628,2.628,0,0,1,1.081-2.158,4.453,4.453,0,0,1,2.83-.848,4.934,4.934,0,0,1,3.023.853,2.666,2.666,0,0,1,1.143,2.241h-2.971q0-1.143-1.2-1.143a1.194,1.194,0,0,0-.782.259.8.8,0,0,0-.316.646.737.737,0,0,0,.387.642,3.654,3.654,0,0,0,1.235.4,10.671,10.671,0,0,1,1.49.378,2.706,2.706,0,0,1,2.145,2.646,2.491,2.491,0,0,1-1.156,2.118,5.068,5.068,0,0,1-2.993.817,5.172,5.172,0,0,1-2.18-.439,3.645,3.645,0,0,1-1.494-1.2,2.707,2.707,0,0,1-.536-1.591h2.769a1.145,1.145,0,0,0,.439.962,1.808,1.808,0,0,0,1.081.3,1.422,1.422,0,0,0,.91-.246A.787.787,0,0,0,147.771,16.328Z" transform="translate(468.333 6231)" fill="#12263f"/>
    </g>
    <g id="Grupo_133849" data-name="Grupo 133849" transform="translate(-4508.333 -11423)">
      <rect id="Rectángulo_35691-3" data-name="Rectángulo 35691" width="177" height="62" rx="18" transform="translate(467.333 6223)" fill="#ffb840"/>
      <path id="Trazado_126985" data-name="Trazado 126985" d="M11.945,8.585H8.1V19H5.02V8.585H1.249V6.2h10.7Zm6.346,3.586-.976-.07a1.752,1.752,0,0,0-1.793.879V19H12.561V9.49h2.777l.1,1.222a2.294,2.294,0,0,1,2.083-1.4,2.888,2.888,0,0,1,.826.105ZM24.452,19a3.344,3.344,0,0,1-.281-.853,2.754,2.754,0,0,1-2.285,1.028,3.374,3.374,0,0,1-2.285-.813,2.588,2.588,0,0,1-.94-2.043A2.66,2.66,0,0,1,19.8,13.981a5.821,5.821,0,0,1,3.322-.791h.914v-.5q0-1.316-1.134-1.316a.927.927,0,0,0-1.055,1.042H18.889a2.655,2.655,0,0,1,1.173-2.239,4.931,4.931,0,0,1,2.993-.86,4.323,4.323,0,0,1,2.874.888,3.086,3.086,0,0,1,1.081,2.435v4.21a4.311,4.311,0,0,0,.4,2V19ZM22.6,17.066a1.652,1.652,0,0,0,.918-.237,1.487,1.487,0,0,0,.523-.536V14.772h-.861q-1.547,0-1.547,1.389a.848.848,0,0,0,.272.655A.986.986,0,0,0,22.6,17.066Zm11.03-.738a.684.684,0,0,0-.4-.606,6.016,6.016,0,0,0-1.5-.475A6.853,6.853,0,0,1,29.9,14.6a3.062,3.062,0,0,1-1.1-.971,2.319,2.319,0,0,1-.378-1.31,2.628,2.628,0,0,1,1.081-2.158,4.453,4.453,0,0,1,2.83-.848,4.934,4.934,0,0,1,3.023.853A2.666,2.666,0,0,1,36.5,12.408H33.531q0-1.143-1.2-1.143a1.194,1.194,0,0,0-.782.259.8.8,0,0,0-.316.646.737.737,0,0,0,.387.642,3.654,3.654,0,0,0,1.235.4,10.671,10.671,0,0,1,1.49.378,2.706,2.706,0,0,1,2.145,2.646,2.491,2.491,0,0,1-1.156,2.118,5.068,5.068,0,0,1-2.993.817,5.172,5.172,0,0,1-2.18-.439,3.645,3.645,0,0,1-1.494-1.2,2.707,2.707,0,0,1-.536-1.591h2.769a1.145,1.145,0,0,0,.439.962,1.808,1.808,0,0,0,1.081.3,1.422,1.422,0,0,0,.91-.246A.787.787,0,0,0,33.628,16.328Zm7.69-9.2V9.49h1.564v2.057H41.318V15.9a1.111,1.111,0,0,0,.193.747,1.037,1.037,0,0,0,.765.211,4.345,4.345,0,0,0,.738-.053v2.118a5.466,5.466,0,0,1-1.67.255,3.1,3.1,0,0,1-2.259-.721,2.954,2.954,0,0,1-.729-2.188v-4.72H37.144V9.49h1.213V7.126Zm2.092,7.031a5.613,5.613,0,0,1,.554-2.536,3.96,3.96,0,0,1,1.591-1.709,4.791,4.791,0,0,1,2.435-.6,4.373,4.373,0,0,1,3.366,1.323,5.076,5.076,0,0,1,1.23,3.6v.105a4.925,4.925,0,0,1-1.235,3.529,4.384,4.384,0,0,1-3.344,1.305,4.434,4.434,0,0,1-3.261-1.217,4.761,4.761,0,0,1-1.327-3.3Zm2.962.185a3.538,3.538,0,0,0,.413,1.934,1.376,1.376,0,0,0,1.222.615q1.582,0,1.617-2.435v-.3q0-2.558-1.635-2.558-1.485,0-1.608,2.206Zm13.271-2.171-.976-.07a1.752,1.752,0,0,0-1.793.879V19H53.913V9.49H56.69l.1,1.222a2.294,2.294,0,0,1,2.083-1.4,2.888,2.888,0,0,1,.826.105ZM63.432,9.49l.1,1.116a3.225,3.225,0,0,1,2.716-1.292,2.713,2.713,0,0,1,2.219.888,4.226,4.226,0,0,1,.76,2.672V19H66.253V13a1.6,1.6,0,0,0-.29-1.059,1.342,1.342,0,0,0-1.055-.338,1.413,1.413,0,0,0-1.292.686V19H60.654V9.49Zm7.058,4.667a5.613,5.613,0,0,1,.554-2.536,3.96,3.96,0,0,1,1.591-1.709,4.791,4.791,0,0,1,2.435-.6,4.373,4.373,0,0,1,3.366,1.323,5.076,5.076,0,0,1,1.23,3.6v.105a4.925,4.925,0,0,1-1.235,3.529,4.384,4.384,0,0,1-3.344,1.305,4.434,4.434,0,0,1-3.261-1.217,4.761,4.761,0,0,1-1.327-3.3Zm2.962.185a3.538,3.538,0,0,0,.413,1.934,1.376,1.376,0,0,0,1.222.615q1.582,0,1.617-2.435v-.3q0-2.558-1.635-2.558-1.485,0-1.608,2.206Zm11.628-.167a5.809,5.809,0,0,1,.976-3.56,3.211,3.211,0,0,1,2.725-1.3,2.731,2.731,0,0,1,2.145,1V5.5h2.971V19H91.231l-.149-1.02a2.8,2.8,0,0,1-2.32,1.2,3.205,3.205,0,0,1-2.689-1.3A5.993,5.993,0,0,1,85.079,14.175Zm2.962.185q0,2.531,1.477,2.531a1.458,1.458,0,0,0,1.406-.826V12.443a1.419,1.419,0,0,0-1.389-.844q-1.371,0-1.485,2.215Zm12.138,4.816a4.889,4.889,0,0,1-3.542-1.305,4.507,4.507,0,0,1-1.354-3.4v-.246a5.84,5.84,0,0,1,.541-2.575A3.955,3.955,0,0,1,97.4,9.925a4.763,4.763,0,0,1,2.461-.611,4.117,4.117,0,0,1,3.164,1.244,4.887,4.887,0,0,1,1.16,3.467v1.151H98.3a2.135,2.135,0,0,0,.694,1.257,2.066,2.066,0,0,0,1.389.457,2.662,2.662,0,0,0,2.2-.984l1.354,1.6a3.784,3.784,0,0,1-1.569,1.217A5.3,5.3,0,0,1,100.179,19.176ZM99.845,11.6q-1.3,0-1.547,1.723h2.988v-.229a1.467,1.467,0,0,0-.36-1.1A1.434,1.434,0,0,0,99.845,11.6Zm14.616,7.576a4.889,4.889,0,0,1-3.542-1.305,4.507,4.507,0,0,1-1.354-3.4v-.246a5.84,5.84,0,0,1,.541-2.575,3.955,3.955,0,0,1,1.578-1.727,4.763,4.763,0,0,1,2.461-.611,4.117,4.117,0,0,1,3.164,1.244,4.887,4.887,0,0,1,1.16,3.467v1.151H112.58a2.135,2.135,0,0,0,.694,1.257,2.066,2.066,0,0,0,1.389.457,2.662,2.662,0,0,0,2.2-.984l1.354,1.6a3.784,3.784,0,0,1-1.569,1.217A5.3,5.3,0,0,1,114.461,19.176Zm-.334-7.576q-1.3,0-1.547,1.723h2.988v-.229a1.467,1.467,0,0,0-.36-1.1A1.434,1.434,0,0,0,114.127,11.6Zm10.512,4.729a.684.684,0,0,0-.4-.606,6.016,6.016,0,0,0-1.5-.475,6.853,6.853,0,0,1-1.828-.646,3.062,3.062,0,0,1-1.1-.971,2.319,2.319,0,0,1-.378-1.31,2.628,2.628,0,0,1,1.081-2.158,4.453,4.453,0,0,1,2.83-.848,4.934,4.934,0,0,1,3.023.853,2.666,2.666,0,0,1,1.143,2.241h-2.971q0-1.143-1.2-1.143a1.194,1.194,0,0,0-.782.259.8.8,0,0,0-.316.646.737.737,0,0,0,.387.642,3.654,3.654,0,0,0,1.235.4,10.671,10.671,0,0,1,1.49.378A2.706,2.706,0,0,1,127.5,16.24a2.491,2.491,0,0,1-1.156,2.118,5.068,5.068,0,0,1-2.993.817,5.172,5.172,0,0,1-2.18-.439,3.645,3.645,0,0,1-1.494-1.2,2.707,2.707,0,0,1-.536-1.591h2.769a1.145,1.145,0,0,0,.439.962,1.808,1.808,0,0,0,1.081.3,1.422,1.422,0,0,0,.91-.246A.787.787,0,0,0,124.639,16.328Zm7.69-9.2V9.49h1.564v2.057h-1.564V15.9a1.111,1.111,0,0,0,.193.747,1.037,1.037,0,0,0,.765.211,4.345,4.345,0,0,0,.738-.053v2.118a5.466,5.466,0,0,1-1.67.255,3.1,3.1,0,0,1-2.259-.721,2.954,2.954,0,0,1-.729-2.188v-4.72h-1.213V9.49h1.213V7.126Zm8.481,5.045-.976-.07a1.752,1.752,0,0,0-1.793.879V19H135.08V9.49h2.777l.1,1.222a2.294,2.294,0,0,1,2.083-1.4,2.888,2.888,0,0,1,.826.105Zm5.669,7a4.889,4.889,0,0,1-3.542-1.305,4.507,4.507,0,0,1-1.354-3.4v-.246a5.84,5.84,0,0,1,.541-2.575A3.955,3.955,0,0,1,143.7,9.925a4.763,4.763,0,0,1,2.461-.611,4.117,4.117,0,0,1,3.164,1.244,4.887,4.887,0,0,1,1.16,3.467v1.151H144.6a2.135,2.135,0,0,0,.694,1.257,2.066,2.066,0,0,0,1.389.457,2.662,2.662,0,0,0,2.2-.984l1.354,1.6a3.784,3.784,0,0,1-1.569,1.217A5.3,5.3,0,0,1,146.479,19.176Zm-.334-7.576q-1.3,0-1.547,1.723h2.988v-.229a1.467,1.467,0,0,0-.36-1.1A1.434,1.434,0,0,0,146.146,11.6Zm-.035-6.108h3.129L146.8,8.251l-2.417,0Zm10.547,10.837a.684.684,0,0,0-.4-.606,6.016,6.016,0,0,0-1.5-.475,6.853,6.853,0,0,1-1.828-.646,3.062,3.062,0,0,1-1.1-.971,2.319,2.319,0,0,1-.378-1.31,2.628,2.628,0,0,1,1.081-2.158,4.453,4.453,0,0,1,2.83-.848,4.934,4.934,0,0,1,3.023.853,2.666,2.666,0,0,1,1.143,2.241h-2.971q0-1.143-1.2-1.143a1.194,1.194,0,0,0-.782.259.8.8,0,0,0-.316.646.737.737,0,0,0,.387.642,3.654,3.654,0,0,0,1.235.4,10.671,10.671,0,0,1,1.49.378,2.706,2.706,0,0,1,2.145,2.646,2.491,2.491,0,0,1-1.156,2.118,5.068,5.068,0,0,1-2.993.817,5.172,5.172,0,0,1-2.18-.439,3.645,3.645,0,0,1-1.494-1.2,2.707,2.707,0,0,1-.536-1.591h2.769a1.145,1.145,0,0,0,.439.962,1.808,1.808,0,0,0,1.081.3,1.422,1.422,0,0,0,.91-.246A.787.787,0,0,0,156.657,16.328ZM31.387,39.315a5.735,5.735,0,0,1-1,3.538A3.2,3.2,0,0,1,27.7,44.176a2.742,2.742,0,0,1-2.153-.958v4.438H22.58V34.49h2.769l.088.879a2.742,2.742,0,0,1,2.241-1.055,3.224,3.224,0,0,1,2.733,1.3,5.805,5.805,0,0,1,.976,3.564Zm-2.962-.185q0-2.531-1.477-2.531a1.394,1.394,0,0,0-1.406.756V41.1a1.439,1.439,0,0,0,1.424.791q1.415,0,1.459-2.443Zm3.894.026a5.613,5.613,0,0,1,.554-2.536,3.96,3.96,0,0,1,1.591-1.709,4.791,4.791,0,0,1,2.435-.6,4.373,4.373,0,0,1,3.366,1.323,5.076,5.076,0,0,1,1.23,3.6v.105a4.925,4.925,0,0,1-1.235,3.529,4.384,4.384,0,0,1-3.344,1.305,4.434,4.434,0,0,1-3.261-1.217,4.761,4.761,0,0,1-1.327-3.3Zm2.962.185a3.538,3.538,0,0,0,.413,1.934,1.376,1.376,0,0,0,1.222.615q1.582,0,1.617-2.435v-.3q0-2.558-1.635-2.558-1.485,0-1.608,2.206Zm12.5,1.986a.684.684,0,0,0-.4-.606,6.016,6.016,0,0,0-1.5-.475,6.853,6.853,0,0,1-1.828-.646,3.062,3.062,0,0,1-1.1-.971,2.319,2.319,0,0,1-.378-1.31,2.628,2.628,0,0,1,1.081-2.158,4.453,4.453,0,0,1,2.83-.848,4.934,4.934,0,0,1,3.023.853,2.666,2.666,0,0,1,1.143,2.241H47.682q0-1.143-1.2-1.143a1.194,1.194,0,0,0-.782.259.8.8,0,0,0-.316.646.737.737,0,0,0,.387.642,3.654,3.654,0,0,0,1.235.4,10.671,10.671,0,0,1,1.49.378,2.706,2.706,0,0,1,2.145,2.646,2.491,2.491,0,0,1-1.156,2.118,5.068,5.068,0,0,1-2.993.817,5.172,5.172,0,0,1-2.18-.439,3.645,3.645,0,0,1-1.494-1.2,2.707,2.707,0,0,1-.536-1.591h2.769a1.145,1.145,0,0,0,.439.962,1.808,1.808,0,0,0,1.081.3,1.422,1.422,0,0,0,.91-.246A.787.787,0,0,0,47.778,41.328Zm7.69-9.2V34.49h1.564v2.057H55.469V40.9a1.111,1.111,0,0,0,.193.747,1.037,1.037,0,0,0,.765.211,4.345,4.345,0,0,0,.738-.053v2.118a5.466,5.466,0,0,1-1.67.255,3.1,3.1,0,0,1-2.259-.721,2.954,2.954,0,0,1-.729-2.188v-4.72H51.294V34.49h1.213V32.126Zm8.481,5.045-.976-.07a1.752,1.752,0,0,0-1.793.879V44H58.22V34.49H61l.1,1.222a2.294,2.294,0,0,1,2.083-1.4A2.888,2.888,0,0,1,64,34.42ZM70.111,44a3.344,3.344,0,0,1-.281-.853,2.754,2.754,0,0,1-2.285,1.028,3.374,3.374,0,0,1-2.285-.813,2.588,2.588,0,0,1-.94-2.043,2.66,2.66,0,0,1,1.143-2.338,5.821,5.821,0,0,1,3.322-.791H69.7v-.5q0-1.316-1.134-1.316a.927.927,0,0,0-1.055,1.042H64.548a2.655,2.655,0,0,1,1.173-2.239,4.931,4.931,0,0,1,2.993-.86,4.323,4.323,0,0,1,2.874.888,3.086,3.086,0,0,1,1.081,2.435v4.21a4.311,4.311,0,0,0,.4,2V44Zm-1.854-1.934a1.652,1.652,0,0,0,.918-.237,1.487,1.487,0,0,0,.523-.536V39.772h-.861q-1.547,0-1.547,1.389a.848.848,0,0,0,.272.655A.986.986,0,0,0,68.257,42.066Zm11.716.905a3.054,3.054,0,0,1-2.54,1.2,3,3,0,0,1-2.369-.91,3.826,3.826,0,0,1-.8-2.615V34.49h2.962v6.179a1.065,1.065,0,0,0,1.187,1.222,1.548,1.548,0,0,0,1.45-.729V34.49h2.979V44H80.061Zm7.286-8.481.1,1.116a3.27,3.27,0,0,1,2.716-1.292,2.407,2.407,0,0,1,2.435,1.433A3.165,3.165,0,0,1,95.3,34.314q2.892,0,2.971,3.5V44H95.3V38a1.813,1.813,0,0,0-.246-1.063,1.048,1.048,0,0,0-.9-.334,1.4,1.4,0,0,0-1.31.782l.009.123V44H89.887V38.015a1.906,1.906,0,0,0-.237-1.081,1.045,1.045,0,0,0-.905-.334,1.42,1.42,0,0,0-1.3.782V44H84.481V34.49ZM105.32,44a3.344,3.344,0,0,1-.281-.853,2.754,2.754,0,0,1-2.285,1.028,3.374,3.374,0,0,1-2.285-.813,2.588,2.588,0,0,1-.94-2.043,2.66,2.66,0,0,1,1.143-2.338,5.821,5.821,0,0,1,3.322-.791h.914v-.5q0-1.316-1.134-1.316a.927.927,0,0,0-1.055,1.042H99.757a2.655,2.655,0,0,1,1.173-2.239,4.931,4.931,0,0,1,2.993-.86,4.323,4.323,0,0,1,2.874.888,3.086,3.086,0,0,1,1.081,2.435v4.21a4.311,4.311,0,0,0,.4,2V44Zm-1.854-1.934a1.652,1.652,0,0,0,.918-.237,1.487,1.487,0,0,0,.523-.536V39.772h-.861q-1.547,0-1.547,1.389a.848.848,0,0,0,.272.655A.986.986,0,0,0,103.466,42.066ZM104.2,30.5h3.129l-2.443,2.76-2.417,0Zm8.763,1.626V34.49h1.564v2.057h-1.564V40.9a1.111,1.111,0,0,0,.193.747,1.037,1.037,0,0,0,.765.211,4.345,4.345,0,0,0,.738-.053v2.118a5.466,5.466,0,0,1-1.67.255,3.1,3.1,0,0,1-2.259-.721A2.954,2.954,0,0,1,110,41.267v-4.72h-1.213V34.49H110V32.126ZM118.82,44H115.85V34.49h2.971Zm-3.146-11.962A1.322,1.322,0,0,1,116.131,31a1.943,1.943,0,0,1,2.373,0,1.405,1.405,0,0,1,0,2.074,1.943,1.943,0,0,1-2.373,0A1.322,1.322,0,0,1,115.674,32.038Zm8.991,9.853a1.317,1.317,0,0,0,.967-.338,1.241,1.241,0,0,0,.334-.945h2.777a3.288,3.288,0,0,1-1.121,2.566,4.168,4.168,0,0,1-2.887,1,4.22,4.22,0,0,1-3.27-1.3,5.125,5.125,0,0,1-1.2-3.6v-.123A5.792,5.792,0,0,1,120.8,36.6a3.872,3.872,0,0,1,1.534-1.7,4.573,4.573,0,0,1,2.373-.593,4.116,4.116,0,0,1,2.944,1.028,3.647,3.647,0,0,1,1.09,2.786h-2.777a1.626,1.626,0,0,0-.36-1.134,1.244,1.244,0,0,0-.967-.4q-1.151,0-1.345,1.468a10.357,10.357,0,0,0-.062,1.283,4.068,4.068,0,0,0,.343,1.986A1.187,1.187,0,0,0,124.665,41.891Zm4.957-2.733a5.613,5.613,0,0,1,.554-2.536,3.96,3.96,0,0,1,1.591-1.709,4.791,4.791,0,0,1,2.435-.6,4.373,4.373,0,0,1,3.366,1.323,5.076,5.076,0,0,1,1.23,3.6v.105a4.925,4.925,0,0,1-1.235,3.529,4.384,4.384,0,0,1-3.344,1.305,4.434,4.434,0,0,1-3.261-1.217,4.761,4.761,0,0,1-1.327-3.3Zm2.962.185A3.538,3.538,0,0,0,133,41.275a1.376,1.376,0,0,0,1.222.615q1.582,0,1.617-2.435v-.3q0-2.558-1.635-2.558-1.485,0-1.608,2.206Z" transform="translate(475.333 6231)" fill="#12263f"/>
    </g>
  </g>
</svg>
