<svg xmlns="http://www.w3.org/2000/svg" xmlns:xlink="http://www.w3.org/1999/xlink" width="368" height="383" viewBox="0 0 368 383">
  <defs>
    <clipPath id="clip-path">
      <rect id="Rectángulo_35696" data-name="Rectángulo 35696" width="340" height="383" transform="translate(0 -0.221)" fill="#fff" stroke="#707070" stroke-width="1"/>
    </clipPath>
    <clipPath id="clip-path-2">
      <rect id="Rectángulo_35697" data-name="Rectángulo 35697" width="476.723" height="448.637" transform="translate(0 0)" fill="none" stroke="#707070" stroke-width="1"/>
    </clipPath>
    <clipPath id="clip-path-3">
      <path id="Trazado_122971" data-name="Trazado 122971" d="M212.58,439.867c40.7-14.771,116.5,24.264,143.747-9.417C366.526,417.844,414.476,342,414.476,342L403.094,209.966l-47.54-63.643s-25.295-77.988-58.609-99.813C281.828,12.57,139.579-19.211,139.579-19.211S63.091,58.781,45.557,63.89C14.793,72.852,5.265,115.842-10.7,143.639c-34.9,60.764-29.071,141.1-5.239,204.966,13.4,35.9,37,69.227,70.573,87.654,25.222,13.842,54.636,18.561,83.357,17.848A236.2,236.2,0,0,0,212.58,439.867Z" transform="matrix(0.545, -0.839, 0.839, 0.545, 0, 437.127)" fill="#5bd3a9"/>
    </clipPath>
  </defs>
  <g id="infob2" transform="translate(-257.333 -7235)">
    <g id="Enmascarar_grupo_64" data-name="Enmascarar grupo 64" transform="translate(285.333 7235.221)" clip-path="url(#clip-path)">
      <g id="Enmascarar_grupo_63" data-name="Enmascarar grupo 63" transform="translate(-250.298 -39.892)" clip-path="url(#clip-path-2)">
        <g id="Grupo_131055" data-name="Grupo 131055" transform="translate(-59.091 -211.462)">
          <path id="Trazado_122929" data-name="Trazado 122929" d="M153.851-21.238c94.96.121,172.037,77.086,172.158,171.906S249.249,322.257,154.289,322.136-17.749,245.05-17.869,150.23,58.892-21.359,153.851-21.238Z" transform="translate(509.698 487.538) rotate(150)" fill="#008bfd"/>
          <path id="Trazado_122930" data-name="Trazado 122930" d="M227.229,346.473c40.7-14.771,77.5-40.387,104.746-74.068,10.2-12.606,19.53-28.016,16.957-44.062-2.74-17.1-18.416-29.431-34.682-35.354s-33.853-7.2-50.407-12.254c-39.336-12.015-69.97-44.923-86.405-81.831C162.321,64.963,163.8,17.223,129.2-4.911c-15.419-9.862-35.442-9.722-52.976-4.612C45.46-.561,19.914,22.448,3.949,50.245c-34.9,60.764-29.071,141.1-5.239,204.966,13.4,35.9,37,69.227,70.573,87.654,25.222,13.842,54.636,18.561,83.357,17.848A236.2,236.2,0,0,0,227.229,346.473Z" transform="matrix(0.545, -0.839, 0.839, 0.545, 70.348, 500.279)" fill="#5bd3a9"/>
          <g id="Enmascarar_grupo_62" data-name="Enmascarar grupo 62" transform="translate(0 0)" clip-path="url(#clip-path-3)">
            <g id="Grupo_131054" data-name="Grupo 131054" transform="translate(57.436 214.081)">
              <path id="Trazado_122931" data-name="Trazado 122931" d="M176.771,309.659c-4.2-1.047-90.254-55.459-90.254-55.459s52.473,91.035,50.374,87.9S21.451,207.113,21.451,207.113l55.129,21.648L33,152.7S180.969,310.7,176.771,309.659Z" transform="translate(69.291 124.468)" fill="#ffdfa3"/>
              <g id="Grupo_131045" data-name="Grupo 131045" transform="translate(289.721 123.768)">
                <path id="Trazado_122932" data-name="Trazado 122932" d="M334.577,280.327l-116.3-30.8a15.536,15.536,0,1,1,8-30.024l102.742,27.208,44.263-100.752,11.048,5.651-31.2,119.241A15.591,15.591,0,0,1,334.577,280.327Z" transform="translate(-206.699 -145.962)" fill="#f3725f"/>
              </g>
              <path id="Trazado_122933" data-name="Trazado 122933" d="M220.743,204.97q.875-1.956,1.837-3.877Q221.672,203.031,220.743,204.97Z" transform="translate(102.563 54.128)" fill="#ffbf80"/>
              <path id="Trazado_122934" data-name="Trazado 122934" d="M160.7,227.866c-2.2-6.233-3.358-12.582-2.344-19.23a32.234,32.234,0,0,1,4.632-12.3c3.924-6.273,9.841-11.445,16.582-15.515A78.687,78.687,0,0,1,194.119,174c.72-.258,1.449-.505,2.171-.742q5.746-1.874,11.656-3.181a131.138,131.138,0,0,1,53.749-.6,126.535,126.535,0,0,1,18.942,5.291,55.066,55.066,0,0,1,25.21,18.736,53.759,53.759,0,0,1,9.991,23.276,41.836,41.836,0,0,1,.371,11.6c-.074.706-.175,1.4-.285,2.091a2.772,2.772,0,0,0-2.04,1.13,97.317,97.317,0,0,0-14.121,26.805c-.165.479-.316.963-.476,1.443a2.3,2.3,0,0,0-.748.775c-5.926,10.212-8.8,21.166-10.278,32.451a225.892,225.892,0,0,0-6.029,36.369,2.682,2.682,0,0,0-.2,1.054c0,.391,0,.784,0,1.176-.653,7.659-1.055,15.341-1.351,23l-.347.038a329.684,329.684,0,0,1-84.414-3.061c-5.412-.9-10.974-2-15.5-5.1-9.991-6.81-11.646-20.759-9.523-32.814.129-.73.268-1.45.426-2.16,2.721-12.506,8.3-24.712,7.432-37.48C177.64,257.695,166.068,243.131,160.7,227.866Z" transform="translate(15.241 6.906)" fill="#d2f3e8"/>
              <path id="Trazado_122935" data-name="Trazado 122935" d="M175.568,149.525a9.328,9.328,0,1,0,9.329-9.3A9.315,9.315,0,0,0,175.568,149.525Z" transform="translate(39.706 -30.135)" fill="#f3725f"/>
              <path id="Trazado_122936" data-name="Trazado 122936" d="M201.855,168.209c13.971-.1,27.066,6.166,39.908,11.65a404.912,404.912,0,0,0,71.118,22.866c2.489.553,5.285,1.3,6.5,3.536a8.337,8.337,0,0,1,.545,4.781,69.559,69.559,0,0,1-30.5,50.663c-4.348,2.868-9.095,5.3-12.6,9.144-3.236,3.543-5.211,8.069-8.3,11.741-8,9.514-28.886,9.592-41.314,8.813-8.951-29.891,10.453-53.749,1.428-79.648C223.012,195.622,213.243,180.968,201.855,168.209Z" transform="translate(76.282 8.602)" fill="#d2f3e8"/>
              <path id="Trazado_122937" data-name="Trazado 122937" d="M276.627,245.806,175.48,242.294s-13,51.011-13.942,79.7l64.62,16.459h8.961l61.373-21.731S290.277,262.185,276.627,245.806Z" transform="translate(20.185 111.166)" fill="#12263f"/>
              <path id="Trazado_122938" data-name="Trazado 122938" d="M230,203.728l2.021,71.7A20.439,20.439,0,0,1,222,293.579l-7.1,4.206-12.734-9.406,8.018-62.547Z" transform="translate(76.719 57.776)" fill="#d2f3e8"/>
              <path id="Trazado_122939" data-name="Trazado 122939" d="M170.83,251.079h96.694a4.96,4.96,0,0,0,4.953-4.938h0a4.96,4.96,0,0,0-4.953-4.938H170.83a4.96,4.96,0,0,0-4.953,4.938h0A4.96,4.96,0,0,0,170.83,251.079Z" transform="translate(26.222 109.656)" fill="#12263f"/>
              <g id="Grupo_131046" data-name="Grupo 131046" transform="translate(17.675 149.576)">
                <path id="Trazado_122940" data-name="Trazado 122940" d="M177.5,292.1,284.55,237.316a15.542,15.542,0,1,0-14.226-27.637l-90.132,39.09-79.705-91.982-7.547,3.581,64.41,126.415A15.606,15.606,0,0,0,177.5,292.1Z" transform="translate(-92.939 -156.786)" fill="#f3725f"/>
              </g>
              <path id="Trazado_122941" data-name="Trazado 122941" d="M205.317,305.274c-13.069-21.016-29.85-6.369-39.422-39.085-6.132-20.959-37.088-20.732-30.971-53.577,12.371-9.836,54.381-27.5,68.231-35.127,4.85-2.67,9.939-5.246,15.456-5.749s11.605,1.524,14.449,6.264c2.112,3.522,14.633,9.6,14.444,13.7C245.5,235.321,236.949,275.076,205.317,305.274Z" transform="translate(-17.953 13.385)" fill="#d2f3e8"/>
              <g id="Grupo_131047" data-name="Grupo 131047" transform="translate(306.502 225.195)">
                <path id="Trazado_122942" data-name="Trazado 122942" d="M215.062,264.538a1.373,1.373,0,0,1-.387-.057,1.343,1.343,0,0,1-.942-1.493l11.316-73.346a1.348,1.348,0,0,1,2.664.408l-9.862,63.918,20.241-43.73a1.346,1.346,0,0,1,2.446,1.125l-24.251,52.392A1.35,1.35,0,0,1,215.062,264.538Z" transform="translate(-213.716 -188.5)" fill="#2d1a14"/>
              </g>
              <g id="Grupo_131049" data-name="Grupo 131049" transform="translate(184.602 245.23)">
                <g id="Grupo_131048" data-name="Grupo 131048" transform="translate(0)">
                  <path id="Trazado_122943" data-name="Trazado 122943" d="M166.183,268.8q1.155-35.319-.744-70.606c-.093-1.721-2.788-1.731-2.7,0q1.9,35.283.744,70.606c-.057,1.729,2.638,1.726,2.7,0Z" transform="translate(-162.742 -196.903)" fill="#2d1a14"/>
                </g>
              </g>
              <g id="Grupo_131051" data-name="Grupo 131051" transform="translate(160.37 246.04)">
                <g id="Grupo_131050" data-name="Grupo 131050" transform="translate(0)">
                  <path id="Trazado_122944" data-name="Trazado 122944" d="M179.778,268.3c-2.824-12.706-8.485-25.346-12.7-37.64-2.733-7.966-5.469-15.935-8.289-23.87-.627-1.767-1.832-8.481-3.9-9.4-1.734-.772-3.247,1.784-1.5,2.561-.882-.393.452,1.857.844,2.921,1.038,2.809,2.023,5.637,3.016,8.462q4.165,11.864,8.214,23.768c3.8,11.1,8.9,22.516,11.45,33.989.416,1.862,3.283,1.075,2.87-.787Z" transform="translate(-152.609 -197.243)" fill="#2d1a14"/>
                </g>
              </g>
              <g id="Grupo_131053" data-name="Grupo 131053" transform="translate(217.069 258.68)">
                <g id="Grupo_131052" data-name="Grupo 131052" transform="translate(0)">
                  <path id="Trazado_122945" data-name="Trazado 122945" d="M176.413,203.946a93.6,93.6,0,0,0,51.217,50.976c1.4.575,2.014-1.7.627-2.268a90.96,90.96,0,0,1-49.569-49.333c-.572-1.378-2.855-.772-2.274.625Z" transform="translate(-176.319 -202.544)" fill="#2d1a14"/>
                </g>
              </g>
              <path id="Trazado_122946" data-name="Trazado 122946" d="M231.275,153.841c-8.6-.336-16.637-4.111-25.014-6.061s-18.321-1.6-24.134,4.719c-1.564,1.7-2.9,3.868-5.118,4.533-2.568.773-5.2-.784-7.432-2.265-6.457-4.285-13.1-8.584-20.609-10.527s-16.152-1.166-22.03,3.877c-6.9,5.923-8.368,15.992-8.006,25.065.459,11.509,3.185,23.093,9.185,32.938s15.47,17.821,26.635,20.77a24.554,24.554,0,0,0,10.857.668c8.865-1.707,14.922-9.573,20.958-16.271s14.556-13.171,23.278-10.837c3.221.861,6,2.849,8.867,4.54a54.83,54.83,0,0,0,51.63,1.636c5.373-2.723,10.288-6.347,15.876-8.593a35.767,35.767,0,0,1,23.493-1.021c11.689,3.553,20.652,12.783,31.315,18.734a61.2,61.2,0,0,0,48.137,4.683c7.3-2.375,15-7.418,15.537-15.053.277-3.944-1.473-7.885-.823-11.786,1.406-8.443,12.438-11.14,20.942-9.952s17.67,4.213,25.253.2c9.025-4.774,10.776-17.4,7.478-27.041-5.56-16.238-21.9-27.327-38.939-29.743s-34.448,2.78-49.433,11.219c-8.387,4.726-17.66,10.7-26.887,7.938-7.693-2.3-12.734-10.172-20.449-12.4-10.52-3.035-19.251,5.615-29.565,5.427-7.052-.131-13.263-3.372-20.126-4.108-7.906-.849-11.237,3.486-16.441,8.641C249.184,150.238,240.608,154.2,231.275,153.841Z" transform="translate(-39.168 -49.196)" fill="#2d1a14"/>
              <path id="Trazado_122947" data-name="Trazado 122947" d="M298.935,173.141a11.049,11.049,0,0,1-2.4-.51c-6.067-1.853-11.775-5.856-14.2-11.7a10.531,10.531,0,0,0-1.344-2.725,2.527,2.527,0,0,0-2.693-.97,2.8,2.8,0,0,0-1.487,2.69,31.058,31.058,0,0,1,.124,3.259,2.4,2.4,0,0,1-1.973,2.268,1.031,1.031,0,0,1-.729-.224,1.407,1.407,0,0,1-.32-.52,16.738,16.738,0,0,1-1.332-7.082,7.622,7.622,0,0,1,.82-3.515c1.215-2.155,3.8-3.062,6.172-3.8-.007-.477-.643-.625-1.122-.625l-4.4-.014a3.872,3.872,0,0,0-1.571.212,4.456,4.456,0,0,0-1.629,1.64,15.391,15.391,0,0,1-3.979,3.786,1.245,1.245,0,0,1-1.057.279c-.481-.176-.562-.815-.514-1.323.268-2.811,1.966-5.255,3.609-7.554a4.286,4.286,0,0,1,1.361-1.392,3.98,3.98,0,0,1,1.461-.372,33.379,33.379,0,0,1,10.477.448,44.522,44.522,0,0,0-3.059-5.451c-1.753-2.957-5.773,1.834-8.155,2.418-1.535.379-2.937.291-3.886-.97a.676.676,0,0,1-.179-.548.764.764,0,0,1,.254-.346A28.617,28.617,0,0,1,274,135.837c2.532-1.24,5.974-3.348,8.265-.7q5.686,6.57,11.376,13.14a62.268,62.268,0,0,1,6.579,8.55A20.755,20.755,0,0,1,303.445,167a7.719,7.719,0,0,1-1.332,4.84A3.431,3.431,0,0,1,298.935,173.141Z" transform="translate(164.55 -38.944)" fill="#f3725f"/>
              <path id="Trazado_122948" data-name="Trazado 122948" d="M279.25,153.871c1.509-1.567,1.585-4.051.995-6.142s-1.734-3.987-2.4-6.054-.784-4.516.541-6.24c2.344,4.833,4.821,9.614,7.162,14.447a17.52,17.52,0,0,1,2.109,6.269,8.908,8.908,0,0,1-3.64,7.716C282.682,160.9,280.58,156.835,279.25,153.871Z" transform="translate(181.334 -36.768)" fill="#f3725f"/>
              <path id="Trazado_122949" data-name="Trazado 122949" d="M102.822,186.478a10.982,10.982,0,0,0,1.55-1.9c3.561-5.236,5.488-11.924,3.695-17.995a10.517,10.517,0,0,1-.667-2.964,2.517,2.517,0,0,1,1.487-2.439,2.82,2.82,0,0,1,2.851,1.164,31.189,31.189,0,0,0,1.954,2.618,2.413,2.413,0,0,0,2.961.532,1.019,1.019,0,0,0,.428-.63,1.461,1.461,0,0,0-.077-.606,16.777,16.777,0,0,0-3.417-6.347,7.634,7.634,0,0,0-2.851-2.227c-2.3-.918-4.888-.007-7.2.9-.294-.374.11-.889.481-1.19l3.417-2.761a3.9,3.9,0,0,1,1.358-.818,4.479,4.479,0,0,1,2.3.26,15.4,15.4,0,0,0,5.483.46,1.236,1.236,0,0,0,1-.444c.261-.436-.077-.985-.433-1.35-1.978-2.024-4.838-2.866-7.564-3.629a4.312,4.312,0,0,0-1.935-.234,4.086,4.086,0,0,0-1.373.625,33.138,33.138,0,0,0-7.875,6.9,44.241,44.241,0,0,1-1.047-6.159c-.5-3.4,5.648-2.182,7.872-3.214,1.432-.665,2.468-1.609,2.415-3.186a.674.674,0,0,0-.206-.541.773.773,0,0,0-.414-.11,28.644,28.644,0,0,0-8.238.632c-2.752.615-6.758,1.128-6.88,4.619L91.3,163.8a61.861,61.861,0,0,0,.256,10.775,20.793,20.793,0,0,0,3.884,9.941,7.768,7.768,0,0,0,4.082,2.935A3.427,3.427,0,0,0,102.822,186.478Z" transform="translate(-77.691 -28.881)" fill="#f3725f"/>
              <path id="Trazado_122950" data-name="Trazado 122950" d="M94.546,161.949c-.445-7.291-3.475-14.144-6.457-20.813a7.115,7.115,0,0,1,6.117,4.092c.933,2.072.8,4.48,1.607,6.6.588,1.552,1.652,2.883,2.332,4.4a18.669,18.669,0,0,1,1.172,7.3c.045,2.365,1.614,12.022-2.191,11.261C93.582,174.083,94.7,164.393,94.546,161.949Z" transform="translate(-82.012 -28.876)" fill="#f3725f"/>
              <path id="Trazado_122951" data-name="Trazado 122951" d="M207.548,141.971a1.569,1.569,0,0,1,2.449.315,41.188,41.188,0,0,0,19.892,20.1V147.212a24.221,24.221,0,0,0-48.443,0v15.5C192.042,158.631,199.955,150.975,207.548,141.971Z" transform="translate(47.885 -53.895)" fill="#2d1a14"/>
              <path id="Trazado_122952" data-name="Trazado 122952" d="M177.7,188.41c11.591-6.316,18.332-20.434,15.941-33.389h23.17c-.3,9.018,5.1,15.422,10.08,22.954,2.6,3.927,5.692,8,10.226,9.3-6.548,8.746-17.885,13.119-28.828,13.4S184.681,196.812,177.7,188.41Z" transform="translate(42.67 -9.653)" fill="#f3725f"/>
              <path id="Trazado_122953" data-name="Trazado 122953" d="M214.726,179.189c-6.746-1.185-13.574-3.374-18.71-7.938-4.831-4.289-7.528-10.088-8.987-16.23h16.8c-.3,9.018,5.1,15.422,10.08,22.954C214.174,178.381,214.446,178.784,214.726,179.189Z" transform="translate(55.653 -9.653)" fill="#2d1a14"/>
              <path id="Trazado_122954" data-name="Trazado 122954" d="M205.666,206.373h0a24.257,24.257,0,0,0,24.223-24.149V147.212a24.256,24.256,0,0,0-24.223-24.149h0a24.255,24.255,0,0,0-24.22,24.149v35.012A24.257,24.257,0,0,0,205.666,206.373Z" transform="translate(47.885 -53.895)" fill="#f3725f"/>
              <path id="Trazado_122955" data-name="Trazado 122955" d="M192.756,149.2a8.37,8.37,0,1,1-8.356-8.868A8.625,8.625,0,0,1,192.756,149.2Z" transform="translate(40.37 -29.991)" fill="#f3725f"/>
              <path id="Trazado_122956" data-name="Trazado 122956" d="M216.729,149.341a8.37,8.37,0,1,1-8.356-8.87A8.622,8.622,0,0,1,216.729,149.341Z" transform="translate(73.726 -29.796)" fill="#f3725f"/>
              <path id="Trazado_122957" data-name="Trazado 122957" d="M181.486,171.661c7.483-2.358,13.99-8.221,18.529-15.608s7.2-16.216,8.43-25.215c1.332,8.364,3.384,16.672,7.043,24.011s9.044,13.684,15.738,16.9c-.39-7.99,1.05-16.636.469-24.612-.543-7.485-2.418-15.909-7.817-21.548-6.1-6.376-16.5-8.484-24.792-5.386-8.468,3.164-13.612,11.617-16.018,19.781a57.662,57.662,0,0,0-2.176,16.343C180.891,157.6,181.678,171.6,181.486,171.661Z" transform="translate(47.113 -59.801)" fill="#2d1a14"/>
              <path id="Trazado_122958" data-name="Trazado 122958" d="M286.865,136.437c-3.877-5.99-13.227-5.014-19.239-1.159s-10.718,9.778-17.352,12.439c-13.373,5.363-27.477-4.342-41.113-9.006-7.3-2.494-16.111-3.3-22.073,1.583-1.662,1.359-3.059,3.131-5.039,3.968-5.782,2.439-10.977-4.063-15.083-8.8-13.012-15-38.564-16.808-53.57-3.789" transform="translate(-46.799 -54.041)" fill="none" stroke="#2d1a14" stroke-linecap="round" stroke-linejoin="round" stroke-width="1.353"/>
              <path id="Trazado_122959" data-name="Trazado 122959" d="M199.167,142.612c6.277-3.357,13.966-6.733,20.167-3.236,1.784,1.006,3.24,2.5,4.972,3.6,4.381,2.759,10.106,2.6,14.992.882s9.147-4.8,13.4-7.754c14.42-10,31.3-19.192,48.644-16.443,9.1,1.445,19.079,5.97,26.886,1.087" transform="translate(72.542 -59.293)" fill="none" stroke="#2d1a14" stroke-linecap="round" stroke-linejoin="round" stroke-width="1.353"/>
              <path id="Trazado_122960" data-name="Trazado 122960" d="M187.462,139c4.228.818,6.878,6.2,11.175,5.923" transform="translate(56.256 -31.837)" fill="none" stroke="#2d1a14" stroke-linecap="round" stroke-linejoin="round" stroke-width="1.353"/>
              <path id="Trazado_122961" data-name="Trazado 122961" d="M194.513,144.613c1.528.47,3.087-.663,4.073-1.917s1.782-2.759,3.183-3.524" transform="translate(66.066 -31.594)" fill="none" stroke="#2d1a14" stroke-linecap="round" stroke-linejoin="round" stroke-width="1.353"/>
              <path id="Trazado_122962" data-name="Trazado 122962" d="M203.051,156.523a9.735,9.735,0,0,0-7.447-8.465,5.823,5.823,0,0,0-4.247.5,5.533,5.533,0,0,0-2.351,4.006,16.334,16.334,0,0,0,.27,4.769Z" transform="translate(58.284 -19.537)" fill="#fffaf5"/>
              <path id="Trazado_122963" data-name="Trazado 122963" d="M191.4,146.6l7.217,4.29q-1.123-3.369-2.241-6.733" transform="translate(61.733 -24.695)" fill="none" stroke="#2d1a14" stroke-linecap="round" stroke-linejoin="round" stroke-width="0.451"/>
              <line id="Línea_157" data-name="Línea 157" x2="5.241" y2="0.151" transform="translate(247.291 133.031)" fill="none" stroke="#2d1a14" stroke-linecap="round" stroke-linejoin="round" stroke-width="0.451"/>
              <path id="Trazado_122964" data-name="Trazado 122964" d="M186.7,143.057a5.5,5.5,0,0,0,8.513,2.134" transform="translate(55.194 -26.216)" fill="none" stroke="#2d1a14" stroke-linecap="round" stroke-linejoin="round" stroke-width="0.902"/>
              <path id="Trazado_122965" data-name="Trazado 122965" d="M195.1,145.407a5.5,5.5,0,0,0,8.4-2.542" transform="translate(66.882 -26.482)" fill="none" stroke="#2d1a14" stroke-linecap="round" stroke-linejoin="round" stroke-width="0.902"/>
              <path id="Trazado_122966" data-name="Trazado 122966" d="M166.805,95.986C165.42,95.641,137.041,77.7,137.041,77.7s17.3,30.022,16.612,28.986-38.07-44.515-38.07-44.515l18.18,7.139L119.39,44.224S168.19,96.331,166.805,95.986Z" transform="translate(25.265 -37.542)" fill="#ffdfa3"/>
              <path id="Trazado_122967" data-name="Trazado 122967" d="M186.246,65.95c1.418-.353,30.479-18.728,30.479-18.728S191.244,88.84,191.952,87.78,238.7,31.319,238.7,31.319l-18.618,7.311L234.8,12.944S184.828,66.3,186.246,65.95Z" transform="translate(107.6 -12.944)" fill="#ffdfa3"/>
              <path id="Trazado_122968" data-name="Trazado 122968" d="M265.174,303.719,230.483,281.4l41.234-2.1-12.185-39.333,32.94,24.82,16.022-37.94,9.233,40.124,36.733-18.8-18.794,36.654,40.256,9.144-38.028,16.033,24.943,32.805-39.467-12.09-2.042,41.116-22.44-34.556-28.071,30.188,5.088-40.853-40.965,5.135Z" transform="translate(87.362 54.118)" fill="#ffdfa3"/>
              <ellipse id="Elipse_4804" data-name="Elipse 4804" cx="8.086" cy="8.062" rx="8.086" ry="8.062" transform="translate(105.125 315.933)" fill="#133d60"/>
              <path id="Trazado_122969" data-name="Trazado 122969" d="M101.721,103.96A8.087,8.087,0,1,1,93.636,95.9,8.073,8.073,0,0,1,101.721,103.96Z" transform="translate(-85.548 -91.502)" fill="#2d1a14"/>
              <path id="Trazado_122970" data-name="Trazado 122970" d="M311.33,213.533a6.109,6.109,0,1,1-6.109-6.09A6.1,6.1,0,0,1,311.33,213.533Z" transform="translate(88.465 63.841)" fill="#133d60"/>
            </g>
          </g>
        </g>
      </g>
    </g>
    <rect id="Rectángulo_35907" data-name="Rectángulo 35907" width="28" height="383" transform="translate(257.333 7235)" fill="#ffb840"/>
  </g>
</svg>
